<svg width="131" height="28" viewBox="0 0 131 28" fill="none" xmlns="http://www.w3.org/2000/svg">
<path d="M6.11926 27.9999H0.971709C0.239158 27.9999 -0.229229 27.2192 0.115501 26.5729L1.00112 24.9123L9.83749 9.35275C10.1521 8.79878 10.9123 8.70589 11.3511 9.16782C13.2222 11.1379 16.3621 11.1379 18.2332 9.16782C18.6719 8.70589 19.4322 8.79878 19.7468 9.35275L28.5831 24.9123L29.4688 26.5729C29.8135 27.2192 29.3451 27.9999 28.6126 27.9999H23.465C23.0837 27.9999 22.7377 27.7765 22.5807 27.429L19.2137 19.9761C17.4944 16.1703 12.0899 16.1703 10.3706 19.9761L7.00357 27.429C6.84658 27.7765 6.50059 27.9999 6.11926 27.9999Z" fill="#1D5BFB"/>
<path d="M14.6377 5.86627H14.9465C16.5665 5.86627 17.8797 4.55306 17.8797 2.93314C17.8797 1.31321 16.5665 0 14.9465 0H14.7921H14.6377C13.0178 0 11.7046 1.31321 11.7046 2.93314C11.7046 4.55306 13.0178 5.86627 14.6377 5.86627Z" fill="#1D5BFB"/>
<path d="M48.7012 17.0684V12.0234C48.7012 11.332 48.5664 10.6816 48.2969 10.0723C48.0391 9.45117 47.6816 8.91211 47.2246 8.45508C46.7676 7.99805 46.2285 7.64062 45.6074 7.38281C44.998 7.11328 44.3477 6.97852 43.6562 6.97852C42.9648 6.97852 42.3086 7.11328 41.6875 7.38281C41.0781 7.64062 40.5449 7.99805 40.0879 8.45508C39.6309 8.91211 39.2676 9.45117 38.998 10.0723C38.7402 10.6816 38.6113 11.332 38.6113 12.0234V17.0684H48.7012ZM53.7461 27.1406H48.7012V22.0957H38.6113V27.1406H33.584V12.0234C33.584 10.6289 33.8477 9.32227 34.375 8.10352C34.9023 6.87305 35.6172 5.80078 36.5195 4.88672C37.4336 3.97266 38.5 3.25195 39.7188 2.72461C40.9492 2.19727 42.2617 1.93359 43.6562 1.93359C45.0508 1.93359 46.3574 2.19727 47.5762 2.72461C48.8066 3.25195 49.8789 3.97266 50.793 4.88672C51.707 5.80078 52.4277 6.87305 52.9551 8.10352C53.4824 9.32227 53.7461 10.6289 53.7461 12.0234V27.1406Z" fill="#1D5BFB"/>
<path d="M81.5547 27.1406H76.7734V15.1875C76.7734 14.8594 76.709 14.5488 76.5801 14.2559C76.4629 13.9629 76.293 13.7051 76.0703 13.4824C75.8477 13.2598 75.5898 13.0898 75.2969 12.9727C75.0039 12.8438 74.6934 12.7793 74.3652 12.7793C74.0371 12.7793 73.7266 12.8438 73.4336 12.9727C73.1523 13.0898 72.9004 13.2598 72.6777 13.4824C72.4668 13.7051 72.2969 13.9629 72.168 14.2559C72.0508 14.5488 71.9922 14.8594 71.9922 15.1875V27.1406H67.1934V15.1875C67.1934 14.8594 67.1289 14.5488 67 14.2559C66.8828 13.9629 66.7129 13.7051 66.4902 13.4824C66.2676 13.2598 66.0098 13.0898 65.7168 12.9727C65.4238 12.8438 65.1133 12.7793 64.7852 12.7793C64.457 12.7793 64.1465 12.8438 63.8535 12.9727C63.5723 13.0898 63.3203 13.2598 63.0977 13.4824C62.8867 13.7051 62.7168 13.9629 62.5879 14.2559C62.4707 14.5488 62.4121 14.8594 62.4121 15.1875V27.1406H57.6133V8.31445H58.7734L60.0742 9.75586C60.7422 9.19336 61.4746 8.75977 62.2715 8.45508C63.0801 8.13867 63.918 7.98047 64.7852 7.98047C65.6641 7.98047 66.5195 8.14453 67.3516 8.47266C68.1953 8.80078 68.9336 9.36914 69.5664 10.1777C69.8594 9.7793 70.1934 9.43945 70.5684 9.1582C70.9434 8.87695 71.3359 8.64844 71.7461 8.47266C72.168 8.29688 72.6016 8.17383 73.0469 8.10352C73.4922 8.02148 73.9316 7.98047 74.3652 7.98047C75.3613 7.98047 76.293 8.16797 77.1602 8.54297C78.0391 8.91797 78.8008 9.43359 79.4453 10.0898C80.1016 10.7344 80.6172 11.4961 80.9922 12.375C81.3672 13.2539 81.5547 14.1914 81.5547 15.1875V27.1406Z" fill="#1D5BFB"/>
<path d="M90.7305 3.19922C90.7305 3.64453 90.6426 4.06055 90.4668 4.44727C90.3027 4.83398 90.0742 5.17383 89.7812 5.4668C89.4883 5.74805 89.1426 5.97656 88.7441 6.15234C88.3574 6.31641 87.9414 6.39844 87.4961 6.39844C87.0508 6.39844 86.6289 6.31641 86.2305 6.15234C85.8438 5.97656 85.5039 5.74805 85.2109 5.4668C84.9297 5.17383 84.7012 4.83398 84.5254 4.44727C84.3613 4.06055 84.2793 3.64453 84.2793 3.19922C84.2793 2.76562 84.3613 2.35547 84.5254 1.96875C84.7012 1.57031 84.9297 1.23047 85.2109 0.949219C85.5039 0.65625 85.8438 0.427734 86.2305 0.263672C86.6289 0.0878906 87.0508 0 87.4961 0C87.9414 0 88.3574 0.0878906 88.7441 0.263672C89.1426 0.427734 89.4883 0.65625 89.7812 0.949219C90.0742 1.23047 90.3027 1.57031 90.4668 1.96875C90.6426 2.35547 90.7305 2.76562 90.7305 3.19922ZM89.9043 27.1406H85.0703V8.31445H89.9043V27.1406Z" fill="#1D5BFB"/>
<path d="M110.031 12.0586L106.516 15.5918C106.34 15.0996 106.1 14.6602 105.795 14.2734C105.49 13.875 105.145 13.541 104.758 13.2715C104.383 13.002 103.973 12.7969 103.527 12.6562C103.082 12.5156 102.625 12.4453 102.156 12.4453C101.5 12.4453 100.879 12.5801 100.293 12.8496C99.7188 13.1191 99.2148 13.5 98.7812 13.9922C98.3594 14.4727 98.0254 15.0469 97.7793 15.7148C97.5332 16.3828 97.4102 17.1211 97.4102 17.9297C97.4102 18.5859 97.5332 19.2012 97.7793 19.7754C98.0254 20.3496 98.3594 20.8535 98.7812 21.2871C99.2148 21.7207 99.7188 22.0605 100.293 22.3066C100.879 22.5527 101.5 22.6758 102.156 22.6758C102.625 22.6758 103.076 22.6113 103.51 22.4824C103.943 22.3535 104.348 22.1719 104.723 21.9375C105.109 21.6914 105.449 21.3984 105.742 21.0586C106.047 20.707 106.293 20.3203 106.48 19.8984L109.996 23.4316C109.551 24.0645 109.035 24.6328 108.449 25.1367C107.875 25.6406 107.248 26.0684 106.568 26.4199C105.9 26.7715 105.191 27.0352 104.441 27.2109C103.703 27.3984 102.941 27.4922 102.156 27.4922C100.832 27.4922 99.584 27.2461 98.4121 26.7539C97.252 26.25 96.2324 25.5645 95.3535 24.6973C94.4863 23.8301 93.8008 22.8164 93.2969 21.6562C92.793 20.4961 92.541 19.2539 92.541 17.9297C92.541 16.4883 92.793 15.1406 93.2969 13.8867C93.8008 12.6328 94.4863 11.543 95.3535 10.6172C96.2324 9.67969 97.252 8.94141 98.4121 8.40234C99.584 7.86328 100.832 7.59375 102.156 7.59375C102.941 7.59375 103.709 7.69336 104.459 7.89258C105.221 8.0918 105.941 8.38477 106.621 8.77148C107.312 9.14648 107.945 9.60938 108.52 10.1602C109.105 10.7109 109.609 11.3438 110.031 12.0586Z" fill="#1D5BFB"/>
<path d="M130.299 17.5605C130.299 18.9668 130.047 20.2793 129.543 21.498C129.039 22.7051 128.354 23.7539 127.486 24.6445C126.619 25.5234 125.6 26.2207 124.428 26.7363C123.268 27.2402 122.02 27.4922 120.684 27.4922C119.359 27.4922 118.111 27.2402 116.939 26.7363C115.779 26.2207 114.76 25.5234 113.881 24.6445C113.014 23.7539 112.328 22.7051 111.824 21.498C111.32 20.2793 111.068 18.9668 111.068 17.5605C111.068 16.1309 111.32 14.8066 111.824 13.5879C112.328 12.3691 113.014 11.3203 113.881 10.4414C114.76 9.55078 115.779 8.85352 116.939 8.34961C118.111 7.8457 119.359 7.59375 120.684 7.59375C122.02 7.59375 123.268 7.83398 124.428 8.31445C125.6 8.7832 126.619 9.45703 127.486 10.3359C128.354 11.2031 129.039 12.252 129.543 13.4824C130.047 14.7012 130.299 16.0605 130.299 17.5605ZM125.465 17.5605C125.465 16.7871 125.336 16.0898 125.078 15.4688C124.832 14.8359 124.492 14.2969 124.059 13.8516C123.625 13.3945 123.115 13.0488 122.529 12.8145C121.955 12.5684 121.34 12.4453 120.684 12.4453C120.027 12.4453 119.406 12.5684 118.82 12.8145C118.246 13.0488 117.742 13.3945 117.309 13.8516C116.887 14.2969 116.553 14.8359 116.307 15.4688C116.061 16.0898 115.938 16.7871 115.938 17.5605C115.938 18.2871 116.061 18.9609 116.307 19.582C116.553 20.2031 116.887 20.7422 117.309 21.1992C117.742 21.6562 118.246 22.0195 118.82 22.2891C119.406 22.5469 120.027 22.6758 120.684 22.6758C121.34 22.6758 121.955 22.5527 122.529 22.3066C123.115 22.0605 123.625 21.7148 124.059 21.2695C124.492 20.8242 124.832 20.2852 125.078 19.6523C125.336 19.0195 125.465 18.3223 125.465 17.5605Z" fill="#1D5BFB"/>
<mask id="mask0_602_40535" style="mask-type:alpha" maskUnits="userSpaceOnUse" x="0" y="0" width="131" height="28">
<path d="M6.11926 27.9999H0.971709C0.239158 27.9999 -0.229229 27.2192 0.115501 26.5729L1.00112 24.9123L9.83749 9.35275C10.1521 8.79878 10.9123 8.70589 11.3511 9.16782C13.2222 11.1379 16.3621 11.1379 18.2332 9.16782C18.6719 8.70589 19.4322 8.79878 19.7468 9.35275L28.5831 24.9123L29.4688 26.5729C29.8135 27.2192 29.3451 27.9999 28.6126 27.9999H23.465C23.0837 27.9999 22.7377 27.7765 22.5807 27.429L19.2137 19.9761C17.4944 16.1703 12.0899 16.1703 10.3706 19.9761L7.00357 27.429C6.84658 27.7765 6.50059 27.9999 6.11926 27.9999Z" fill="#1D5BFB"/>
<path d="M14.6377 5.86627H14.9465C16.5665 5.86627 17.8797 4.55306 17.8797 2.93314C17.8797 1.31321 16.5665 0 14.9465 0H14.7921H14.6377C13.0178 0 11.7046 1.31321 11.7046 2.93314C11.7046 4.55306 13.0178 5.86627 14.6377 5.86627Z" fill="#1D5BFB"/>
<path d="M48.7012 17.0684V12.0234C48.7012 11.332 48.5664 10.6816 48.2969 10.0723C48.0391 9.45117 47.6816 8.91211 47.2246 8.45508C46.7676 7.99805 46.2285 7.64062 45.6074 7.38281C44.998 7.11328 44.3477 6.97852 43.6562 6.97852C42.9648 6.97852 42.3086 7.11328 41.6875 7.38281C41.0781 7.64062 40.5449 7.99805 40.0879 8.45508C39.6309 8.91211 39.2676 9.45117 38.998 10.0723C38.7402 10.6816 38.6113 11.332 38.6113 12.0234V17.0684H48.7012ZM53.7461 27.1406H48.7012V22.0957H38.6113V27.1406H33.584V12.0234C33.584 10.6289 33.8477 9.32227 34.375 8.10352C34.9023 6.87305 35.6172 5.80078 36.5195 4.88672C37.4336 3.97266 38.5 3.25195 39.7188 2.72461C40.9492 2.19727 42.2617 1.93359 43.6562 1.93359C45.0508 1.93359 46.3574 2.19727 47.5762 2.72461C48.8066 3.25195 49.8789 3.97266 50.793 4.88672C51.707 5.80078 52.4277 6.87305 52.9551 8.10352C53.4824 9.32227 53.7461 10.6289 53.7461 12.0234V27.1406Z" fill="#1D5BFB"/>
<path d="M81.5547 27.1406H76.7734V15.1875C76.7734 14.8594 76.709 14.5488 76.5801 14.2559C76.4629 13.9629 76.293 13.7051 76.0703 13.4824C75.8477 13.2598 75.5898 13.0898 75.2969 12.9727C75.0039 12.8438 74.6934 12.7793 74.3652 12.7793C74.0371 12.7793 73.7266 12.8438 73.4336 12.9727C73.1523 13.0898 72.9004 13.2598 72.6777 13.4824C72.4668 13.7051 72.2969 13.9629 72.168 14.2559C72.0508 14.5488 71.9922 14.8594 71.9922 15.1875V27.1406H67.1934V15.1875C67.1934 14.8594 67.1289 14.5488 67 14.2559C66.8828 13.9629 66.7129 13.7051 66.4902 13.4824C66.2676 13.2598 66.0098 13.0898 65.7168 12.9727C65.4238 12.8438 65.1133 12.7793 64.7852 12.7793C64.457 12.7793 64.1465 12.8438 63.8535 12.9727C63.5723 13.0898 63.3203 13.2598 63.0977 13.4824C62.8867 13.7051 62.7168 13.9629 62.5879 14.2559C62.4707 14.5488 62.4121 14.8594 62.4121 15.1875V27.1406H57.6133V8.31445H58.7734L60.0742 9.75586C60.7422 9.19336 61.4746 8.75977 62.2715 8.45508C63.0801 8.13867 63.918 7.98047 64.7852 7.98047C65.6641 7.98047 66.5195 8.14453 67.3516 8.47266C68.1953 8.80078 68.9336 9.36914 69.5664 10.1777C69.8594 9.7793 70.1934 9.43945 70.5684 9.1582C70.9434 8.87695 71.3359 8.64844 71.7461 8.47266C72.168 8.29688 72.6016 8.17383 73.0469 8.10352C73.4922 8.02148 73.9316 7.98047 74.3652 7.98047C75.3613 7.98047 76.293 8.16797 77.1602 8.54297C78.0391 8.91797 78.8008 9.43359 79.4453 10.0898C80.1016 10.7344 80.6172 11.4961 80.9922 12.375C81.3672 13.2539 81.5547 14.1914 81.5547 15.1875V27.1406Z" fill="#1D5BFB"/>
<path d="M90.7305 3.19922C90.7305 3.64453 90.6426 4.06055 90.4668 4.44727C90.3027 4.83398 90.0742 5.17383 89.7812 5.4668C89.4883 5.74805 89.1426 5.97656 88.7441 6.15234C88.3574 6.31641 87.9414 6.39844 87.4961 6.39844C87.0508 6.39844 86.6289 6.31641 86.2305 6.15234C85.8438 5.97656 85.5039 5.74805 85.2109 5.4668C84.9297 5.17383 84.7012 4.83398 84.5254 4.44727C84.3613 4.06055 84.2793 3.64453 84.2793 3.19922C84.2793 2.76562 84.3613 2.35547 84.5254 1.96875C84.7012 1.57031 84.9297 1.23047 85.2109 0.949219C85.5039 0.65625 85.8438 0.427734 86.2305 0.263672C86.6289 0.0878906 87.0508 0 87.4961 0C87.9414 0 88.3574 0.0878906 88.7441 0.263672C89.1426 0.427734 89.4883 0.65625 89.7812 0.949219C90.0742 1.23047 90.3027 1.57031 90.4668 1.96875C90.6426 2.35547 90.7305 2.76562 90.7305 3.19922ZM89.9043 27.1406H85.0703V8.31445H89.9043V27.1406Z" fill="#1D5BFB"/>
<path d="M110.031 12.0586L106.516 15.5918C106.34 15.0996 106.1 14.6602 105.795 14.2734C105.49 13.875 105.145 13.541 104.758 13.2715C104.383 13.002 103.973 12.7969 103.527 12.6562C103.082 12.5156 102.625 12.4453 102.156 12.4453C101.5 12.4453 100.879 12.5801 100.293 12.8496C99.7188 13.1191 99.2148 13.5 98.7812 13.9922C98.3594 14.4727 98.0254 15.0469 97.7793 15.7148C97.5332 16.3828 97.4102 17.1211 97.4102 17.9297C97.4102 18.5859 97.5332 19.2012 97.7793 19.7754C98.0254 20.3496 98.3594 20.8535 98.7812 21.2871C99.2148 21.7207 99.7188 22.0605 100.293 22.3066C100.879 22.5527 101.5 22.6758 102.156 22.6758C102.625 22.6758 103.076 22.6113 103.51 22.4824C103.943 22.3535 104.348 22.1719 104.723 21.9375C105.109 21.6914 105.449 21.3984 105.742 21.0586C106.047 20.707 106.293 20.3203 106.48 19.8984L109.996 23.4316C109.551 24.0645 109.035 24.6328 108.449 25.1367C107.875 25.6406 107.248 26.0684 106.568 26.4199C105.9 26.7715 105.191 27.0352 104.441 27.2109C103.703 27.3984 102.941 27.4922 102.156 27.4922C100.832 27.4922 99.584 27.2461 98.4121 26.7539C97.252 26.25 96.2324 25.5645 95.3535 24.6973C94.4863 23.8301 93.8008 22.8164 93.2969 21.6562C92.793 20.4961 92.541 19.2539 92.541 17.9297C92.541 16.4883 92.793 15.1406 93.2969 13.8867C93.8008 12.6328 94.4863 11.543 95.3535 10.6172C96.2324 9.67969 97.252 8.94141 98.4121 8.40234C99.584 7.86328 100.832 7.59375 102.156 7.59375C102.941 7.59375 103.709 7.69336 104.459 7.89258C105.221 8.0918 105.941 8.38477 106.621 8.77148C107.312 9.14648 107.945 9.60938 108.52 10.1602C109.105 10.7109 109.609 11.3438 110.031 12.0586Z" fill="#1D5BFB"/>
<path d="M130.299 17.5605C130.299 18.9668 130.047 20.2793 129.543 21.498C129.039 22.7051 128.354 23.7539 127.486 24.6445C126.619 25.5234 125.6 26.2207 124.428 26.7363C123.268 27.2402 122.02 27.4922 120.684 27.4922C119.359 27.4922 118.111 27.2402 116.939 26.7363C115.779 26.2207 114.76 25.5234 113.881 24.6445C113.014 23.7539 112.328 22.7051 111.824 21.498C111.32 20.2793 111.068 18.9668 111.068 17.5605C111.068 16.1309 111.32 14.8066 111.824 13.5879C112.328 12.3691 113.014 11.3203 113.881 10.4414C114.76 9.55078 115.779 8.85352 116.939 8.34961C118.111 7.8457 119.359 7.59375 120.684 7.59375C122.02 7.59375 123.268 7.83398 124.428 8.31445C125.6 8.7832 126.619 9.45703 127.486 10.3359C128.354 11.2031 129.039 12.252 129.543 13.4824C130.047 14.7012 130.299 16.0605 130.299 17.5605ZM125.465 17.5605C125.465 16.7871 125.336 16.0898 125.078 15.4688C124.832 14.8359 124.492 14.2969 124.059 13.8516C123.625 13.3945 123.115 13.0488 122.529 12.8145C121.955 12.5684 121.34 12.4453 120.684 12.4453C120.027 12.4453 119.406 12.5684 118.82 12.8145C118.246 13.0488 117.742 13.3945 117.309 13.8516C116.887 14.2969 116.553 14.8359 116.307 15.4688C116.061 16.0898 115.938 16.7871 115.938 17.5605C115.938 18.2871 116.061 18.9609 116.307 19.582C116.553 20.2031 116.887 20.7422 117.309 21.1992C117.742 21.6562 118.246 22.0195 118.82 22.2891C119.406 22.5469 120.027 22.6758 120.684 22.6758C121.34 22.6758 121.955 22.5527 122.529 22.3066C123.115 22.0605 123.625 21.7148 124.059 21.2695C124.492 20.8242 124.832 20.2852 125.078 19.6523C125.336 19.0195 125.465 18.3223 125.465 17.5605Z" fill="#1D5BFB"/>
</mask>
<g mask="url(#mask0_602_40535)">
<path d="M8 5.07166C13.5724 14.0983 30.2113 28.9645 52.1881 16.2164C66.559 13.2836 68.2209 19.3823 87.1866 21.5933C115.928 22.0821 106.934 7.90672 135.383 22.2776L139 3.01866L26.6724 -18L8 5.07166Z" fill="#FF5D12"/>
</g>
</svg>
