<svg width="20" height="20" viewBox="0 0 20 20" fill="none" xmlns="http://www.w3.org/2000/svg">
<path fill-rule="evenodd" clip-rule="evenodd" d="M3.125 7.91669C3.125 4.11972 6.20303 1.04169 10 1.04169C13.797 1.04169 16.875 4.11972 16.875 7.91669C16.875 10.8465 15.1971 13.593 13.6105 15.5499C12.8076 16.5402 12.0061 17.3548 11.4057 17.9219C11.1051 18.2058 10.8538 18.4286 10.6766 18.5814C10.588 18.6578 10.5177 18.7167 10.469 18.7571C10.4447 18.7773 10.4257 18.7928 10.4125 18.8036L10.397 18.8161L10.3926 18.8197L10.3912 18.8208L10.3908 18.8211C10.3906 18.8213 10.3904 18.8214 10 18.3334C9.60957 18.8214 9.60942 18.8213 9.60924 18.8211L9.60877 18.8208L9.60741 18.8197L9.603 18.8161L9.58752 18.8036C9.57429 18.7928 9.55531 18.7773 9.53096 18.7571C9.48226 18.7167 9.41205 18.6578 9.3234 18.5814C9.14616 18.4286 8.89491 18.2058 8.5943 17.9219C7.99385 17.3548 7.19244 16.5402 6.38953 15.5499C4.80289 13.593 3.125 10.8465 3.125 7.91669ZM10 18.3334L9.60957 18.8214C9.83783 19.004 10.1622 19.004 10.3904 18.8214L10 18.3334ZM10 17.513C10.149 17.3818 10.3348 17.2139 10.5474 17.0131C11.1189 16.4734 11.8799 15.6995 12.6395 14.7626C14.1779 12.8653 15.625 10.4035 15.625 7.91669C15.625 4.81007 13.1066 2.29169 10 2.29169C6.89339 2.29169 4.375 4.81007 4.375 7.91669C4.375 10.4035 5.82211 12.8653 7.36047 14.7626C8.12006 15.6995 8.88115 16.4734 9.45258 17.0131C9.66521 17.2139 9.85102 17.3818 10 17.513Z" fill="white"/>
<path fill-rule="evenodd" clip-rule="evenodd" d="M6.875 7.91669C6.875 6.1908 8.27411 4.79169 10 4.79169C11.7259 4.79169 13.125 6.1908 13.125 7.91669C13.125 9.64257 11.7259 11.0417 10 11.0417C8.27411 11.0417 6.875 9.64257 6.875 7.91669ZM10 6.04169C8.96447 6.04169 8.125 6.88116 8.125 7.91669C8.125 8.95222 8.96447 9.79169 10 9.79169C11.0355 9.79169 11.875 8.95222 11.875 7.91669C11.875 6.88116 11.0355 6.04169 10 6.04169Z" fill="white"/>
</svg>
