<svg width="21" height="21" viewBox="0 0 21 21" fill="none" xmlns="http://www.w3.org/2000/svg">
<g clip-path="url(#clip0_306_35229)">
<path d="M17.5455 7.7V5.8H15.8182V3.9H17.5455V2H19.2727V3.9H21V5.8H19.2727V7.7H17.5455ZM3.72727 21C3.25227 21 2.84579 20.8141 2.50782 20.4424C2.16927 20.07 2 19.6225 2 19.1V7.7C2 7.1775 2.16927 6.73037 2.50782 6.3586C2.84579 5.9862 3.25227 5.8 3.72727 5.8H6.44773L8.04545 3.9H13.2273V5.8H8.80114L7.225 7.7H3.72727V19.1H17.5455V10.55H19.2727V19.1C19.2727 19.6225 19.1037 20.07 18.7658 20.4424C18.4272 20.8141 18.0205 21 17.5455 21H3.72727ZM10.6364 17.675C11.7159 17.675 12.6337 17.2595 13.3896 16.4286C14.145 15.597 14.5227 14.5875 14.5227 13.4C14.5227 12.2125 14.145 11.203 13.3896 10.3714C12.6337 9.54047 11.7159 9.125 10.6364 9.125C9.55682 9.125 8.63906 9.54047 7.88309 10.3714C7.1277 11.203 6.75 12.2125 6.75 13.4C6.75 14.5875 7.1277 15.597 7.88309 16.4286C8.63906 17.2595 9.55682 17.675 10.6364 17.675ZM10.6364 15.775C10.0318 15.775 9.52083 15.5454 9.10341 15.0862C8.68599 14.6271 8.47727 14.065 8.47727 13.4C8.47727 12.735 8.68599 12.1729 9.10341 11.7137C9.52083 11.2546 10.0318 11.025 10.6364 11.025C11.2409 11.025 11.7519 11.2546 12.1693 11.7137C12.5867 12.1729 12.7955 12.735 12.7955 13.4C12.7955 14.065 12.5867 14.6271 12.1693 15.0862C11.7519 15.5454 11.2409 15.775 10.6364 15.775Z" fill="white"/>
</g>
<defs>
<clipPath id="clip0_306_35229">
<rect width="20" height="20" fill="white" transform="translate(0.811523 0.821655)"/>
</clipPath>
</defs>
</svg>
