<svg width="29" height="28" viewBox="0 0 29 28" fill="none" xmlns="http://www.w3.org/2000/svg">
<rect x="0.5" width="28" height="28" rx="14" fill="#1D5BFB"/>
<path fill-rule="evenodd" clip-rule="evenodd" d="M11.441 6.22049C11.5469 6.00875 11.7633 5.875 12 5.875H17C17.2367 5.875 17.4531 6.00875 17.559 6.22049L18.809 8.72049C18.9059 8.91423 18.8955 9.14432 18.7817 9.32858C18.6678 9.51284 18.4666 9.625 18.25 9.625H10.75C10.5334 9.625 10.3322 9.51284 10.2183 9.32858C10.1045 9.14432 10.0941 8.91423 10.191 8.72049L11.441 6.22049ZM12.3863 7.125L11.7613 8.375H17.2387L16.6137 7.125H12.3863Z" fill="white"/>
<path fill-rule="evenodd" clip-rule="evenodd" d="M7.41602 9.625C7.07084 9.625 6.79102 9.90482 6.79102 10.25V20.25C6.79102 20.5952 7.07084 20.875 7.41602 20.875H21.5827C21.9279 20.875 22.2077 20.5952 22.2077 20.25V10.25C22.2077 9.90482 21.9279 9.625 21.5827 9.625H7.41602ZM5.54102 10.25C5.54102 9.21447 6.38048 8.375 7.41602 8.375H21.5827C22.6182 8.375 23.4577 9.21447 23.4577 10.25V20.25C23.4577 21.2855 22.6182 22.125 21.5827 22.125H7.41602C6.38048 22.125 5.54102 21.2855 5.54102 20.25V10.25Z" fill="white"/>
<path fill-rule="evenodd" clip-rule="evenodd" d="M10.541 15.25C10.541 13.0639 12.3132 11.2917 14.4993 11.2917C16.6855 11.2917 18.4577 13.0639 18.4577 15.25C18.4577 17.4362 16.6855 19.2084 14.4993 19.2084C12.3132 19.2084 10.541 17.4362 10.541 15.25ZM14.4993 12.5417C13.0036 12.5417 11.791 13.7542 11.791 15.25C11.791 16.7458 13.0036 17.9584 14.4993 17.9584C15.9951 17.9584 17.2077 16.7458 17.2077 15.25C17.2077 13.7542 15.9951 12.5417 14.4993 12.5417Z" fill="white"/>
</svg>
