<svg width="254" height="80" viewBox="0 0 254 80" fill="none" xmlns="http://www.w3.org/2000/svg">
<circle cx="214.06" cy="39.9398" r="39.6898" stroke="white" stroke-width="0.5"/>
<path d="M228.836 17.5872C227.187 17.9389 226.048 18.5586 224.859 19.756C224.139 20.4762 223.954 20.7191 223.619 21.3973C223.134 22.3855 223.017 22.846 222.849 24.5376C222.506 27.9709 221.903 30.6757 221.141 32.1914C220.839 32.7776 220.814 33.1376 221.049 33.3721C221.283 33.6066 221.643 33.5815 222.204 33.2967C223.728 32.5347 226.509 31.915 229.967 31.5717C230.704 31.4963 231.566 31.3624 231.893 31.2702C234.355 30.5417 236.281 28.331 236.834 25.5927C237.026 24.6632 236.968 23.1308 236.708 22.2347C236.365 21.0289 235.544 19.7644 234.615 18.994C233.978 18.4665 232.772 17.8552 232.019 17.6709C231.248 17.4783 229.523 17.4365 228.836 17.5872Z" fill="white"/>
<path d="M197.183 19.2789C196.538 19.3291 195.935 19.505 195.231 19.865C194.67 20.1581 194.386 20.3675 194.001 20.7946C192.577 22.3437 192.275 24.5126 193.222 26.4219C193.557 27.1169 193.113 26.6312 199.737 33.4141C206.712 40.5487 206.168 39.9626 206.553 40.7497C207.96 43.6304 206.603 47.5326 203.656 49.0567C202.274 49.7685 202.006 49.8187 199.318 49.8271C196.663 49.8271 196.521 49.8522 195.257 50.5054C193.674 51.3176 192.493 52.8333 192.075 54.5751C191.765 55.8815 191.907 57.4725 192.443 58.6867C193.163 60.328 194.754 61.6762 196.563 62.1954C197.409 62.4383 198.941 62.4466 199.779 62.2205C201.855 61.6595 203.53 60.1187 204.167 58.1676C204.527 57.0957 204.585 56.4341 204.468 55.0943C204.3 53.2855 204.493 52.1383 205.18 50.7398C206.762 47.5242 211.284 46.1509 214.09 48.0434C214.316 48.1942 216.702 50.4719 219.39 53.0929C227.371 60.8975 227.128 60.6797 227.798 61.0231C229.732 62.0363 232.069 61.7097 233.576 60.2108C235.192 58.603 235.485 56.208 234.304 54.3072C234.129 54.0308 233.182 53.0176 231.893 51.7531C224.272 44.25 222.564 42.5836 222.472 42.5836C222.246 42.5836 222.053 42.7678 222.053 42.9939C222.053 43.1195 222.489 44.451 223.025 45.9416C223.862 48.2695 224.004 48.7468 224.038 49.3079C224.08 49.9025 224.071 49.9778 223.862 50.2877C222.958 51.6526 220.898 50.899 218.31 48.2695C216.845 46.7706 216.2 45.9164 214.894 43.7225C213.386 41.1852 213.102 40.9004 210.48 39.3345C208.546 38.1789 207.081 37.0819 205.942 35.9263C203.974 33.9249 203.061 32.292 203.363 31.2871C203.589 30.5335 204.309 30.1148 205.171 30.232C205.406 30.2655 206.394 30.5753 207.357 30.9187C211.301 32.3255 211.418 32.359 211.603 32.0827C211.804 31.7896 211.946 31.9487 202.458 22.3186C200.725 20.5601 200.222 20.0995 199.779 19.865C198.95 19.4128 198.07 19.2202 197.183 19.2789Z" fill="white"/>
<path d="M216.133 34.5784C215.271 34.8547 214.634 35.4325 214.249 36.2699C214.098 36.5965 214.056 36.831 214.056 37.392C214.056 38.0284 214.082 38.1708 214.333 38.6649C214.651 39.3097 215.103 39.7535 215.765 40.0633C216.175 40.2559 216.342 40.281 217.071 40.281C217.867 40.281 217.934 40.2643 218.436 39.9963C219.064 39.653 219.483 39.2092 219.784 38.5727C219.968 38.1792 220.002 37.9866 220.002 37.392C220.002 36.7975 219.968 36.6049 219.784 36.2113C219.474 35.5497 219.031 35.0976 218.394 34.7793C217.942 34.5616 217.733 34.5114 217.172 34.4863C216.744 34.4695 216.351 34.503 216.133 34.5784Z" fill="white"/>
</svg>
