<svg width="16" height="16" viewBox="0 0 16 16" fill="none" xmlns="http://www.w3.org/2000/svg">
<path d="M1.81389 14.1876L3.58165 12.4199L1.81388 10.6521L3.58165 8.88432L1.81388 7.11656L3.58165 5.34879L1.81389 3.58102L3.58165 1.81326L5.34942 3.58102L7.11719 1.81326L8.88495 3.58102L10.6527 1.81326L12.4205 3.58102L14.1883 1.81326L12.4205 0.04549L10.6527 1.81326L8.88495 0.0454889L7.11719 1.81326L5.34942 0.0454896L3.58165 1.81326L1.81389 0.04549L0.0461185 1.81326L1.81389 3.58102L0.0461178 5.34879L1.81388 7.11656L0.0461171 8.88432L1.81388 10.6521L0.0461181 12.4199L1.81389 14.1876Z" fill="white"/>
<path d="M14.1883 1.81326L12.4205 3.58102L14.1883 5.34879L15.956 3.58102L14.1883 1.81326Z" fill="white"/>
<path d="M1.81389 14.1876L3.58165 12.4199L5.34942 14.1876L3.58165 15.9554L1.81389 14.1876Z" fill="white"/>
<path d="M5.34942 14.1876L7.11719 12.4199L8.88496 14.1876L7.11719 15.9554L5.34942 14.1876Z" fill="white"/>
<path d="M12.4205 14.1876L10.6527 15.9554L8.88496 14.1876L10.6527 12.4199L12.4205 14.1876Z" fill="white"/>
<path d="M14.1883 12.4199L15.956 14.1876L14.1883 15.9554L12.4205 14.1876L14.1883 12.4199Z" fill="white"/>
<path d="M14.1883 8.88432L12.4205 10.6521L14.1883 12.4199L15.956 10.6521L14.1883 8.88432Z" fill="white"/>
<path d="M14.1883 8.88432L12.4205 7.11656L14.1883 5.34879L15.956 7.11656L14.1883 8.88432Z" fill="white"/>
</svg>
