<svg width="30" height="30" viewBox="0 0 30 30" fill="none" xmlns="http://www.w3.org/2000/svg">
<path fill-rule="evenodd" clip-rule="evenodd" d="M10 6.25L10 8.75L12.5 8.75L12.5 6.25L10 6.25ZM10 23.75L10 21.25L12.5 21.25L12.5 23.75L10 23.75ZM12.5 21.25L12.5 18.75L15 18.75L15 21.25L12.5 21.25ZM17.5 16.25L17.5 18.75L15 18.75L15 16.25L17.5 16.25ZM17.5 13.75L20 13.75L20 16.25L17.5 16.25L17.5 13.75ZM15 11.25L15 13.75L17.5 13.75L17.5 11.25L15 11.25ZM15 11.25L12.5 11.25L12.5 8.75L15 8.75L15 11.25Z" fill="white"/>
</svg>
