<svg width="223" height="22" viewBox="0 0 223 22" fill="none" xmlns="http://www.w3.org/2000/svg">
<path d="M175 17.5C171.473 17.5 171.473 15.8374 167.945 15.8374C164.417 15.8374 164.417 17.5 160.89 17.5C157.362 17.5 157.362 5.5 153.834 5.5C150.306 5.5 150.306 17.5 146.778 17.5C143.25 17.5 143.251 10.7092 139.723 10.7092C136.195 10.7092 136.195 17.5 132.667 17.5C129.139 17.5 129.14 5.5 125.612 5.5C122.084 5.5 122.084 17.5 118.556 17.5C115.028 17.5 115.028 13.2065 111.501 13.2065C107.973 13.2065 107.973 17.5 104.445 17.5C100.918 17.5 100.917 15.5285 97.39 15.5285C93.8625 15.5285 93.8619 17.5 90.3345 17.5C86.8071 17.5 86.8065 8.91292 83.2791 8.91292C79.7516 8.91292 79.751 17.5 76.223 17.5C72.695 17.5 72.6956 5.5 69.1675 5.5C65.6395 5.5 65.6395 17.5 62.1121 17.5C58.5847 17.5 58.5841 7.11664 55.056 7.11664C51.528 7.11664 51.528 17.5 48 17.5" fill="white"/>
</svg>
