<svg width="44" height="24" viewBox="0 0 44 24" fill="none" xmlns="http://www.w3.org/2000/svg">
<g clip-path="url(#clip0_684_38609)">
<path d="M43.3223 0H0.322266V24H43.3223V0Z" fill="#FF0000"/>
<path fill-rule="evenodd" clip-rule="evenodd" d="M22.7389 18.136C22.5261 17.9537 22.2686 17.5826 22.2731 17.2271C22.291 16.9604 22.4769 16.8071 22.5956 17.1315C22.7635 17.4893 23.1241 18.0826 23.6213 17.736C23.8385 17.5782 23.8341 17.3448 23.5384 17.3715C23.1711 17.3471 22.9449 17.1471 22.7815 16.6293C22.7523 16.3448 22.871 16.3515 23.0368 16.536C23.2495 16.7782 23.6751 17.1471 24.1431 16.9493C24.4029 16.8404 24.4768 16.6182 24.0827 16.5626C23.7109 16.5671 23.4063 16.3293 23.104 15.9626C22.9382 15.7604 23.1823 15.556 23.3302 15.7293C23.4623 15.8404 23.6459 16.0471 23.8027 16.076C23.9841 16.1115 24.2103 16.0937 24.4611 15.9626C24.7299 15.7382 24.6426 15.5782 24.3156 15.5404C24.0625 15.5537 23.9236 15.6493 23.5967 15.4315C23.0077 15.0382 22.5418 14.5115 22.4679 13.876C22.4209 13.4582 22.6448 13.3337 22.833 13.3804C23.3436 13.5115 23.6773 14.4582 24.0311 14.9782C24.1476 15.1271 24.2529 15.1315 24.329 15.0848C24.4701 14.9648 24.5843 14.8648 24.7254 14.7293C24.7254 14.7293 25.7646 14.9137 26.3312 15.0982L25.7019 15.3204C25.4622 15.1893 25.1756 15.3315 25.1756 15.5582C24.9494 15.7137 24.9673 15.8937 25.0658 16.0693C25.0949 15.9471 25.1218 15.7893 25.2987 15.7671C25.5541 15.8715 25.8497 15.7226 25.8497 15.5248L26.5932 15.236L27.3435 15.6582C27.3435 15.9426 27.6167 16.0337 27.8989 15.956C28.0333 16.0382 28.1184 16.1804 28.1632 16.3337C28.246 16.1137 28.2304 15.9582 28.0982 15.8493C28.1744 15.5648 27.7712 15.2915 27.4599 15.4737L26.9202 15.1648L27.8452 15.1382C27.9527 15.3271 28.3401 15.3382 28.4543 15.1382C28.5506 15.1115 28.6335 15.096 28.8216 15.2337C28.7611 15.0093 28.6469 14.9115 28.4722 14.9115C28.3401 14.6804 27.8631 14.6804 27.7936 14.9426L26.8306 14.9693L27.4017 14.5648C27.6145 14.6893 27.9146 14.5515 27.9751 14.3248C28.0602 14.2248 28.1654 14.1782 28.3715 14.2448C28.264 14.0582 28.1161 14.0026 27.8452 14.1293C27.5988 13.9426 27.2718 14.1693 27.3211 14.356L26.5596 14.8693C26.0087 14.7048 25.0076 14.4515 25.0076 14.4515C25.1263 14.3271 25.2472 14.2115 25.3659 14.0848C25.4085 14.0115 25.3435 13.9248 25.2517 13.9071C24.3604 13.7248 23.8497 13.3671 23.5384 12.4604C23.4085 12.0804 23.6885 11.9671 23.7848 12.2004C23.9169 12.5226 24.0647 12.876 24.4656 13.1493C24.6045 13.2448 25.0143 13.1671 24.7724 12.9382C24.5216 12.7315 24.4119 12.6426 24.2887 12.1426C24.2887 11.8893 24.5485 11.776 24.6941 12.0182C24.8486 12.516 24.8665 12.7315 25.1465 13.0537C25.3592 13.296 25.6369 13.4604 25.7758 13.456C26.0244 13.4515 26.2752 13.1871 25.9415 12.9937C25.4533 12.8004 25.2741 12.536 25.2024 12.2848C25.1241 11.8448 25.2092 11.6315 25.4779 11.8493C25.8564 12.276 26.582 13.0737 26.9605 13.4448C27.386 13.7671 27.8743 13.7782 28.2617 13.4493C28.4834 13.196 28.4051 12.9226 28.0579 12.9804C27.2718 13.0471 26.6783 12.6582 26.0266 11.6137C25.899 11.3782 25.8631 11.0382 26.1453 11.2915C26.4701 11.7271 26.9448 12.0982 27.386 12.2582C27.8295 12.416 28.1945 12.3293 28.3356 12.1915C28.5058 12.0226 28.461 11.596 28.1654 11.6982C27.9213 11.7826 27.5786 11.8048 27.2226 11.6671C26.8665 11.5293 26.4947 11.2315 26.1005 10.7248C25.9661 10.4382 26.0087 10.1982 26.2819 10.3448C26.9269 10.8871 27.7601 11.3271 28.1856 11.0626C28.4991 10.8693 28.5036 10.3715 28.1072 10.4048C27.3077 10.5137 27.0053 10.3382 26.2371 9.66484C26.0624 9.53595 26.0736 9.20707 26.3536 9.41595C26.9986 9.82929 27.881 9.99151 28.2259 9.77373C28.5372 9.5804 28.4924 8.98929 27.9661 9.19818C27.5473 9.45151 27.0837 9.44484 26.1543 8.78707C25.9191 8.59373 26.0938 8.3404 26.2864 8.44929C27.0344 8.87151 28.1206 9.05373 28.4051 8.19373C28.5148 7.86484 28.3155 7.67373 28.0243 7.9004C27.3816 8.48929 26.6537 8.2004 26.2483 7.90484C26.1319 7.83595 25.9169 7.49151 26.2931 7.55595C27.2651 7.77595 28.2281 7.58484 28.4028 6.9004C28.5036 6.67818 28.3043 6.28707 27.9504 6.61373C27.4846 7.07151 26.9874 7.08706 26.3648 7.08484C26.049 7.01818 26.0445 6.67373 26.311 6.62262C26.8015 6.63373 27.2875 6.4204 27.6749 6.20262C28.0534 5.98707 28.3692 5.68262 28.47 5.26262C28.5305 4.88706 28.1654 4.48706 27.9459 4.88706C27.6212 5.47151 26.9001 6.0204 26.0983 6.1204C26.0557 6.05151 25.9505 5.87373 25.8228 5.92262C25.5877 6.01373 25.3077 6.13373 25.0188 6.26929C24.3962 6.56262 24.1364 6.70262 24.2126 7.20929C24.2909 7.73818 23.8789 8.07151 23.5407 7.9804C23.2451 7.9004 23.0816 7.63595 23.1353 7.17595C23.1779 6.80929 23.5474 6.36706 23.9662 6.13373C24.2372 5.98262 24.6448 5.9004 25.1353 5.79373C25.4354 5.73595 25.5877 5.6204 25.6033 5.49818C25.6033 5.49818 25.3995 5.64707 25.0726 5.62484C24.918 5.61373 24.815 5.54706 24.7747 5.47818C24.8889 5.45595 25.0949 5.48262 25.2808 5.48262C25.5272 5.4804 26.1005 5.42484 26.2506 5.0804C26.2976 4.85373 26.1476 4.81151 26.0065 4.95818C25.8564 5.11595 25.7937 5.25595 25.4914 5.30929C25.3077 5.3404 25.1241 5.37818 24.8889 5.32262C25.021 5.16484 25.2338 5.00484 25.413 5.03595C25.4712 5.04484 25.5518 5.1004 25.6145 5.19818C25.6526 4.94929 25.5854 4.66929 24.9158 4.78706C24.927 4.59818 24.5283 4.51818 24.2887 4.5204C24.1521 4.52484 23.8744 4.60484 23.6728 4.7004C23.3548 4.79818 23.039 4.86929 22.6695 4.89595C22.8845 5.07818 22.9248 5.08929 23.1398 5.24262C22.8151 5.36262 22.562 5.61151 22.45 5.77595C22.45 5.77595 22.8285 5.76484 22.9248 5.80706C22.5284 5.92262 22.3492 5.99151 22.1387 6.20484C22.2126 6.21818 22.3223 6.23818 22.3694 6.25595C22.4186 6.27373 22.4052 6.30484 22.3649 6.33595C22.2798 6.4004 21.9259 6.80929 21.8229 6.90484C21.7199 6.80707 21.366 6.4004 21.2809 6.33595C21.2406 6.30484 21.2294 6.27373 21.2765 6.25595C21.3235 6.23818 21.4332 6.21595 21.5071 6.20484C21.2966 5.99151 21.1197 5.92262 20.721 5.80706C20.8173 5.76484 21.1958 5.77595 21.1958 5.77595C21.0816 5.61151 20.8308 5.36484 20.506 5.24262C20.721 5.08929 20.7614 5.07818 20.9764 4.89373C20.6046 4.86706 20.291 4.79595 19.973 4.69818C19.7715 4.60262 19.4938 4.52262 19.3571 4.51818C19.1175 4.51373 18.7189 4.59595 18.7301 4.78484C18.0604 4.66706 17.991 4.94929 18.0313 5.19595C18.094 5.09818 18.1724 5.04484 18.2329 5.03373C18.4143 5.00484 18.6248 5.16484 18.7569 5.3204C18.5218 5.37818 18.3381 5.3404 18.1545 5.30707C17.8521 5.25373 17.7917 5.11373 17.6394 4.95595C17.4983 4.81151 17.3482 4.85151 17.3953 5.07818C17.5476 5.42262 18.1186 5.47818 18.365 5.47818C18.5509 5.47818 18.7569 5.45151 18.8711 5.47373C18.8331 5.54262 18.7278 5.60929 18.5733 5.6204C18.2463 5.64262 18.0425 5.49373 18.0425 5.49373C18.0604 5.61373 18.2127 5.72929 18.5106 5.78929C19.001 5.89818 19.4109 5.9804 19.6796 6.12929C20.0984 6.36262 20.468 6.80484 20.5105 7.17151C20.5643 7.63151 20.4008 7.89595 20.1052 7.97595C19.767 8.06929 19.3549 7.73373 19.4333 7.20484C19.5072 6.69818 19.2496 6.55818 18.627 6.26484C18.3381 6.12929 18.0582 6.00706 17.823 5.91818C17.6931 5.86929 17.5879 6.04484 17.5476 6.11595C16.7458 6.01595 16.0246 5.46706 15.6999 4.88262C15.4804 4.48262 15.1131 4.88262 15.1758 5.25818C15.2766 5.67818 15.5902 5.98262 15.9709 6.19818C16.3583 6.41373 16.8443 6.62706 17.3348 6.61818C17.6013 6.66929 17.5968 7.01595 17.281 7.0804C16.6584 7.08484 16.1635 7.06707 15.6954 6.60929C15.3393 6.2804 15.14 6.67373 15.243 6.89595C15.4177 7.57818 16.3807 7.77151 17.3527 7.55151C17.729 7.48706 17.514 7.83373 17.3975 7.9004C16.9899 8.19595 16.262 8.48706 15.6215 7.89595C15.3304 7.66929 15.131 7.8604 15.2408 8.18929C15.523 9.04929 16.6114 8.86707 17.3594 8.44484C17.552 8.33595 17.7267 8.58929 17.4916 8.78262C16.5621 9.4404 16.0985 9.44707 15.6797 9.19373C15.1557 8.98484 15.1086 9.57595 15.4199 9.76929C15.7671 9.98484 16.6472 9.82484 17.2922 9.41151C17.5699 9.20262 17.5834 9.52929 17.4087 9.6604C16.6405 10.3337 16.3382 10.5093 15.5386 10.4004C15.1422 10.3693 15.1467 10.8648 15.4603 11.0582C15.8858 11.3226 16.7167 10.8826 17.3639 10.3404C17.6371 10.1937 17.6797 10.4337 17.5453 10.7204C17.1511 11.2271 16.7816 11.5248 16.4233 11.6626C16.0672 11.8004 15.7245 11.7782 15.4804 11.6937C15.1848 11.5915 15.14 12.0182 15.3102 12.1871C15.4513 12.3248 15.8164 12.4115 16.2598 12.2537C16.701 12.0937 17.1758 11.7226 17.5005 11.2871C17.7827 11.036 17.7469 11.3737 17.6192 11.6093C16.9675 12.6537 16.3718 13.0426 15.5879 12.976C15.2408 12.9182 15.1602 13.1915 15.3841 13.4448C15.7716 13.7737 16.2598 13.7626 16.6853 13.4404C17.0638 13.0693 17.7894 12.2715 18.1679 11.8448C18.4344 11.6293 18.5218 11.8404 18.4434 12.2804C18.3717 12.5315 18.1926 12.796 17.7043 12.9893C17.3729 13.1826 17.6215 13.4493 17.8701 13.4515C18.0089 13.456 18.2866 13.2915 18.4994 13.0493C18.7816 12.7271 18.7972 12.5137 18.9518 12.0137C19.0973 11.7715 19.3571 11.8848 19.3571 12.1382C19.234 12.6382 19.1242 12.7271 18.8734 12.9337C18.6293 13.1626 19.0414 13.2404 19.1802 13.1448C19.5811 12.8715 19.7267 12.5182 19.861 12.196C19.9573 11.9626 20.2373 12.0782 20.1074 12.456C19.7983 13.3626 19.2877 13.7204 18.3941 13.9026C18.3023 13.9204 18.2373 14.0071 18.2799 14.0804C18.3986 14.2071 18.5195 14.3226 18.6382 14.4471C18.6382 14.4471 17.6394 14.7026 17.0862 14.8648L16.3247 14.3515C16.374 14.1648 16.0493 13.9382 15.8007 14.1248C15.5297 13.9982 15.3796 14.0537 15.2744 14.2404C15.4804 14.1715 15.5857 14.2204 15.6708 14.3204C15.7312 14.5471 16.0291 14.6871 16.2441 14.5604L16.8152 14.9648L15.8522 14.9382C15.7828 14.6782 15.3057 14.676 15.1736 14.9071C15.0011 14.9071 14.8847 15.0026 14.8242 15.2293C15.0123 15.0893 15.0952 15.1071 15.1915 15.1337C15.3057 15.3337 15.6932 15.3226 15.8007 15.1337L16.7256 15.1604L16.1859 15.4693C15.8746 15.2871 15.4737 15.5604 15.5476 15.8448C15.4177 15.9537 15.3998 16.1093 15.4827 16.3293C15.5274 16.176 15.6148 16.0337 15.7469 15.9515C16.0314 16.0293 16.3023 15.9382 16.3023 15.6537L17.0526 15.2315L17.7961 15.5204C17.7961 15.7182 18.0918 15.8671 18.3471 15.7626C18.5262 15.7826 18.5509 15.9426 18.58 16.0648C18.6785 15.8893 18.6965 15.7071 18.4703 15.5537C18.4703 15.3271 18.1814 15.1848 17.944 15.316L17.3146 15.0937C17.8813 14.9115 18.9204 14.7248 18.9204 14.7248C19.0615 14.8604 19.1757 14.9582 19.3168 15.0804C19.393 15.1271 19.4982 15.1248 19.6147 14.9737C19.9685 14.4537 20.3022 13.5071 20.8129 13.376C21.001 13.3271 21.2272 13.4537 21.1779 13.8715C21.104 14.5048 20.6382 15.0315 20.0492 15.4271C19.7222 15.6426 19.5833 15.5471 19.3303 15.536C19.0033 15.5737 18.9159 15.7337 19.1847 15.9582C19.4355 16.0893 19.6595 16.1071 19.8431 16.0715C19.9999 16.0426 20.1835 15.8382 20.3157 15.7248C20.4635 15.5537 20.7076 15.756 20.5419 15.9582C20.2395 16.3248 19.9349 16.5626 19.5632 16.5582C19.169 16.6137 19.2429 16.836 19.5027 16.9448C19.9708 17.1426 20.3963 16.7737 20.6091 16.5315C20.7748 16.3493 20.8935 16.3426 20.8644 16.6248C20.7009 17.1404 20.4747 17.3426 20.1074 17.3671C19.8095 17.3404 19.8073 17.5737 20.0245 17.7315C20.5217 18.0804 20.8823 17.4871 21.0503 17.1271C21.169 16.8026 21.3526 16.956 21.3728 17.2226C21.3772 17.5804 21.1197 17.9493 20.9069 18.1315C20.6942 18.3137 21.8229 19.476 21.8229 19.476C21.8229 19.476 22.9517 18.3182 22.7389 18.136ZM24.2506 4.97151C24.0759 4.97151 23.9662 5.03151 23.9662 5.10706C23.9662 5.18262 24.0737 5.24262 24.2506 5.24262C24.4253 5.24262 24.5351 5.17595 24.5351 5.1004C24.5373 5.02706 24.4253 4.97151 24.2506 4.97151ZM19.3952 4.97151C19.5699 4.97151 19.6796 5.03151 19.6796 5.10706C19.6796 5.18262 19.5721 5.24262 19.3952 5.24262C19.2205 5.24262 19.1108 5.17595 19.1108 5.1004C19.1085 5.02706 19.2205 4.97151 19.3952 4.97151Z" fill="black"/>
</g>
<rect x="0.472266" y="0.15" width="42.7" height="23.7" stroke="#EFEFF8" stroke-width="0.3"/>
<defs>
<clipPath id="clip0_684_38609">
<rect x="0.322266" width="43" height="24" fill="white"/>
</clipPath>
</defs>
</svg>
