<svg width="44" height="24" viewBox="0 0 44 24" fill="none" xmlns="http://www.w3.org/2000/svg">
<g clip-path="url(#clip0_684_45071)">
<path d="M0.666016 0H43.666V24H0.666016V0Z" fill="black"/>
<path d="M0.666016 0H43.666V12H0.666016V0Z" fill="#CC092F"/>
<path fill-rule="evenodd" clip-rule="evenodd" d="M19.7812 8.23116H21.2594L21.7073 6.84894L22.1664 8.23116H23.6445L22.4576 9.10894L22.9167 10.5134L21.7073 9.66005L20.5091 10.5134L20.9682 9.10894L19.7812 8.23116Z" fill="#FFCB00"/>
<path fill-rule="evenodd" clip-rule="evenodd" d="M25.18 15.7888L24.0176 14.8866C25.1912 13.9377 25.9549 12.4844 25.9549 10.8622C25.9549 8.3866 24.1744 6.30882 21.8273 5.81771L22.0087 4.97771C22.3357 5.04882 22.7187 5.1866 23.0345 5.29326L23.3368 4.78882C23.6638 4.94437 24.0266 5.09993 24.3289 5.29326L24.0983 5.83326C24.4006 6.0266 24.7656 6.32437 24.9695 6.55771L25.4241 6.20437C25.666 6.46882 25.9571 6.74437 26.1632 7.03326L25.7511 7.45326C26.0176 7.83993 26.1206 8.01771 26.3154 8.46437L26.8933 8.33104C27.003 8.6666 27.1687 9.07993 27.2292 9.4266L26.6827 9.63993C26.7477 9.91104 26.8328 10.3844 26.8261 10.7799C26.8261 10.8044 26.8238 10.831 26.8238 10.8555L27.3949 10.9355C27.3703 11.2844 27.3591 11.6799 27.2852 12.0288H26.6917C26.6066 12.3888 26.4968 12.8288 26.3647 13.1666L26.8619 13.4555C26.7051 13.7666 26.5484 14.1399 26.3423 14.4399L25.7981 14.211C25.5921 14.511 25.3614 14.7999 25.1083 15.0644L25.4599 15.5199C25.3636 15.6088 25.2785 15.691 25.18 15.7888ZM22.6268 15.6799L23.5048 16.2044C23.4219 16.2777 23.1778 16.4044 23.1128 16.431L23.2562 16.9777C22.918 17.0866 22.5529 17.2422 22.1789 17.3133L21.9617 16.7733C21.6101 16.8444 21.2607 16.8933 20.8957 16.8933L20.8217 17.4577C20.4836 17.4333 20.0715 17.4577 19.6952 17.3733V16.8088C19.3571 16.7488 19.0301 16.6644 18.7143 16.5555L18.4366 17.0488C18.1454 16.9288 17.758 16.7844 17.4445 16.5933L17.6505 16.0533C17.3952 15.9199 17.1667 15.7533 16.9473 15.5844L17.4915 14.8999C18.3873 15.6088 19.5138 16.0288 20.7478 16.0288C21.404 16.0288 22.0446 15.9199 22.6268 15.6799Z" fill="#FFCB00"/>
<path fill-rule="evenodd" clip-rule="evenodd" d="M26.2835 17.0734L20.4897 12.6978L20.436 12.7734L26.2141 17.1556L25.8715 17.5823L20.2411 13.9956C18.716 13.0467 18.7765 12.3023 19.09 11.4978L19.3565 10.8489C19.5021 11.6889 20.3733 12.3267 21.2803 13.0356L26.3978 16.9334L26.2835 17.0734ZM27.7393 18.3756C27.69 18.3756 27.6497 18.3356 27.6497 18.2867C27.6497 18.2378 27.69 18.1978 27.7393 18.1978C27.7885 18.1978 27.8289 18.2378 27.8289 18.2867C27.8289 18.3356 27.7885 18.3756 27.7393 18.3756ZM27.3921 18.1245C27.3429 18.1245 27.3026 18.0845 27.3026 18.0356C27.3026 17.9867 27.3429 17.9467 27.3921 17.9467C27.4414 17.9467 27.4817 17.9867 27.4817 18.0356C27.4817 18.0845 27.4436 18.1245 27.3921 18.1245ZM27.0383 17.8445C26.989 17.8445 26.9487 17.8045 26.9487 17.7556C26.9509 17.7067 26.9912 17.6667 27.0405 17.6689C27.0875 17.6712 27.1256 17.7089 27.1279 17.7556C27.1279 17.8045 27.0876 17.8445 27.0383 17.8445ZM28.2297 18.3401L26.4941 17.0045L25.9902 17.6489L27.4974 18.6978C27.6183 18.7823 27.6295 19.1667 28.0774 19.2267C28.2589 19.2512 28.3798 19.1178 28.3798 19.1178C28.5769 18.8845 28.5231 18.5601 28.2297 18.3401Z" fill="#FFCB00"/>
</g>
<rect x="0.816016" y="0.15" width="42.7" height="23.7" stroke="#EFEFF8" stroke-width="0.3"/>
<defs>
<clipPath id="clip0_684_45071">
<rect x="0.666016" width="43" height="24" fill="white"/>
</clipPath>
</defs>
</svg>
