<svg width="44" height="24" viewBox="0 0 44 24" fill="none" xmlns="http://www.w3.org/2000/svg">
<g clip-path="url(#clip0_684_43165)">
<path d="M46.0195 0H-2.35547V24H46.0195V0Z" fill="#3F9C35"/>
<path d="M46.0195 0H-2.35547V16H46.0195V0Z" fill="#ED2939"/>
<path d="M46.0195 0H-2.35547V8H46.0195V0Z" fill="#00B9E4"/>
<path d="M21.0266 15.6C23.0303 15.6 24.6547 13.9882 24.6547 12C24.6547 10.0118 23.0303 8.39999 21.0266 8.39999C19.0228 8.39999 17.3984 10.0118 17.3984 12C17.3984 13.9882 19.0228 15.6 21.0266 15.6Z" fill="white"/>
<path d="M21.832 15C23.5018 15 24.8555 13.6569 24.8555 12C24.8555 10.3431 23.5018 9 21.832 9C20.1622 9 18.8086 10.3431 18.8086 12C18.8086 13.6569 20.1622 15 21.832 15Z" fill="#ED2939"/>
<path d="M25.0566 10L25.4418 11.0756L26.481 10.5844L25.9861 11.6156L27.0723 12L25.9883 12.3822L26.4833 13.4133L25.4441 12.9222L25.0566 14L24.6714 12.9244L23.6323 13.4156L24.1272 12.3844L23.041 12L24.125 11.6178L23.63 10.5867L24.6692 11.0778L25.0566 10Z" fill="white"/>
</g>
<rect x="0.482031" y="0.15" width="42.7" height="23.7" stroke="#EFEFF8" stroke-width="0.3"/>
<defs>
<clipPath id="clip0_684_43165">
<rect x="0.332031" width="43" height="24" fill="white"/>
</clipPath>
</defs>
</svg>
