<svg width="44" height="24" viewBox="0 0 44 24" fill="none" xmlns="http://www.w3.org/2000/svg">
<g clip-path="url(#clip0_684_38770)">
<path d="M46.8473 -0.0860596H-3.18945V24.7384H46.8473V-0.0860596Z" fill="#002395"/>
<path d="M10.0703 -0.0860596H35.0887V24.7384L10.0703 -0.0860596Z" fill="#FECB00"/>
<path d="M4.17169 1.53795L5.56695 -2.7265L6.96221 1.53795L3.30273 -1.09983H7.82444L4.17169 1.53795Z" fill="white"/>
<path d="M7.29865 4.64182L8.69391 0.37738L10.0892 4.64182L6.42969 2.00405H10.9514L7.29865 4.64182Z" fill="white"/>
<path d="M10.4256 7.74491L11.8209 3.48047L13.2161 7.74491L9.55664 5.10714H14.0784L10.4256 7.74491Z" fill="white"/>
<path d="M13.5526 10.8465L14.9478 6.58203L16.3431 10.8465L12.6836 8.21092H17.2053L13.5526 10.8465Z" fill="white"/>
<path d="M16.6817 13.9506L18.077 9.6861L19.4723 13.9506L15.8105 11.3128H20.3323L16.6817 13.9506Z" fill="white"/>
<path d="M19.8084 17.0534L21.2037 12.7889L22.5989 17.0534L18.9395 14.4156H23.4612L19.8084 17.0534Z" fill="white"/>
<path d="M22.9354 20.1576L24.3306 15.8931L25.7259 20.1576L22.0664 17.5198H26.5881L22.9354 20.1576Z" fill="white"/>
<path d="M26.0643 23.2592L27.4595 18.9947L28.8548 23.2592L25.1953 20.6214H29.717L26.0643 23.2592Z" fill="white"/>
<path d="M29.1912 26.3622L30.5865 22.0978L31.9817 26.3622L28.3223 23.7244H32.844L29.1912 26.3622Z" fill="white"/>
</g>
<rect x="0.478125" y="0.15" width="42.7" height="23.7" stroke="#EFEFF8" stroke-width="0.3"/>
<defs>
<clipPath id="clip0_684_38770">
<rect x="0.328125" width="43" height="24" fill="white"/>
</clipPath>
</defs>
</svg>
