<svg width="44" height="24" viewBox="0 0 44 24" fill="none" xmlns="http://www.w3.org/2000/svg">
<g clip-path="url(#clip0_684_45098)">
<path d="M0.658203 0H43.6582V24H0.658203V0Z" fill="#CE1126"/>
<path d="M-3.64258 -2.40002V26.4L47.9574 -2.40002V26.4L-3.64258 -2.40002Z" fill="#1EB53A"/>
<path d="M49.6787 29.2246L22.1587 13.8646L-5.36133 29.2246V-5.22876L22.1587 10.1312L49.6787 -5.22876V29.2246ZM25.5001 12.0001L46.2387 23.5757V0.424574L25.5001 12.0001ZM-1.92133 0.424574V23.5735L18.8172 12.0024L-1.92133 0.424574Z" fill="white"/>
<path d="M22.1578 18.8C25.9427 18.8 29.0109 15.7555 29.0109 12C29.0109 8.24448 25.9427 5.20001 22.1578 5.20001C18.3729 5.20001 15.3047 8.24448 15.3047 12C15.3047 15.7555 18.3729 18.8 22.1578 18.8Z" fill="white"/>
<path d="M22.5818 7.75107H23.4283L23.0051 8.47996L23.4283 9.20884H22.5818L22.1585 9.93551L21.7352 9.20662H20.8887L21.312 8.47773L20.8887 7.74885H21.7352L22.1585 7.01996L22.5818 7.75107Z" fill="#CE1126"/>
<path d="M22.1589 10.0801L21.6953 9.28007H20.7637L21.2273 8.48007L20.7637 7.68007H21.6953L22.1589 6.88007L22.6225 7.68007H23.5542L23.0906 8.48007L23.5542 9.28007H22.6225L22.1589 10.0801ZM21.0145 9.13562H21.776L22.1589 9.79118L22.5419 9.13562H23.3034L22.9204 8.48007L23.3034 7.82451H22.5419L22.1589 7.16895L21.776 7.82451H21.0145L21.3975 8.48007L21.0145 9.13562Z" fill="#1EB53A"/>
<path d="M19.5095 13.0311H20.3561L19.9328 13.76L20.3561 14.4889H19.5095L19.0862 15.2178L18.663 14.4889H17.8164L18.2397 13.76L17.8164 13.0311H18.663L19.0862 12.3022L19.5095 13.0311Z" fill="#CE1126"/>
<path d="M19.0847 15.3601L18.6211 14.5601H17.6895L18.153 13.7601L17.6895 12.9601H18.6211L19.0847 12.1601L19.5483 12.9601H20.48L20.0164 13.7601L20.48 14.5601H19.5483L19.0847 15.3601ZM17.9403 14.4157H18.7017L19.0847 15.0712L19.4677 14.4157H20.2291L19.8462 13.7601L20.2291 13.1045H19.4677L19.0847 12.449L18.7017 13.1045H17.9403L18.3233 13.7601L17.9403 14.4157Z" fill="#1EB53A"/>
<path d="M25.6541 13.0311H26.5006L26.0773 13.76L26.5006 14.4889H25.6541L25.2308 15.2178L24.8075 14.4889H23.9609L24.3842 13.76L23.9609 13.0311H24.8075L25.2308 12.3022L25.6541 13.0311Z" fill="#CE1126"/>
<path d="M25.2312 15.3601L24.7676 14.5601H23.8359L24.2995 13.7601L23.8359 12.9601H24.7676L25.2312 12.1601L25.6948 12.9601H26.6265L26.1629 13.7601L26.6265 14.5601H25.6948L25.2312 15.3601ZM24.0845 14.4157H24.846L25.229 15.0712L25.6119 14.4157H26.3734L25.9904 13.7601L26.3734 13.1045H25.6119L25.229 12.449L24.846 13.1045H24.0845L24.4675 13.7601L24.0845 14.4157Z" fill="#1EB53A"/>
</g>
<rect x="0.808203" y="0.15" width="42.7" height="23.7" stroke="#EFEFF8" stroke-width="0.3"/>
<defs>
<clipPath id="clip0_684_45098">
<rect x="0.658203" width="43" height="24" fill="white"/>
</clipPath>
</defs>
</svg>
