<svg width="44" height="24" viewBox="0 0 44 24" fill="none" xmlns="http://www.w3.org/2000/svg">
<g clip-path="url(#clip0_684_43312)">
<path d="M46.0117 0H-2.36328V24H46.0117V0Z" fill="#F7E017"/>
<path d="M-2.36328 1.66664V12.3333L46.0117 17.3333V11.6666L-2.36328 1.66664Z" fill="white"/>
<path d="M-2.36328 7.33337V12.3334L46.0117 22.3334V17.3334L-2.36328 7.33337Z" fill="black"/>
<path d="M21.0078 18.9912C20.3561 18.9045 19.7604 18.7001 19.3483 18.4178C19.2677 18.3645 19.1938 18.3178 19.1803 18.3178C19.1669 18.3178 19.1579 18.3778 19.1579 18.4534C19.1579 18.6667 19.0706 18.7734 18.8556 18.8312C18.6473 18.8845 18.3315 18.7778 18.0762 18.5645C17.8097 18.3467 17.5051 18.1801 17.2453 18.1134C17.0348 18.0556 16.7481 18.0667 16.5421 18.1356C16.448 18.169 16.3405 18.2134 16.3002 18.2356C16.2621 18.2578 16.2196 18.2801 16.2062 18.2801C16.1703 18.2801 16.1748 18.0534 16.2129 17.9801C16.2644 17.8823 16.3876 17.789 16.5287 17.7356C16.6026 17.709 16.6586 17.6756 16.6586 17.6578C16.6586 17.6401 16.6362 17.589 16.6048 17.5356C16.5063 17.3667 16.5466 17.2023 16.7145 17.0712C16.8892 16.9378 17.1849 16.9178 17.4446 17.0134C17.5118 17.0378 17.5723 17.0601 17.579 17.0601C17.6126 17.0601 17.5925 17.0134 17.4984 16.8756C17.3909 16.7178 17.3685 16.6378 17.3797 16.4512C17.3976 16.2156 17.5925 16.0178 17.8343 16.0001C18.0292 15.9867 18.1501 16.0512 18.439 16.3245C19.3035 17.1401 20.2374 17.5867 21.3326 17.7112C21.608 17.7423 22.1612 17.7245 22.4882 17.6778C23.4714 17.5312 24.4635 17.0423 25.2361 16.3178C25.4511 16.1178 25.5564 16.0645 25.7311 16.0645C25.8834 16.0645 25.9909 16.1156 26.1006 16.2312C26.2014 16.3423 26.235 16.4445 26.226 16.6112C26.2193 16.7178 26.2014 16.7712 26.1387 16.8756C26.0446 17.029 26.0603 17.0423 26.2462 16.9712C26.4993 16.8756 26.8106 16.9178 26.9785 17.0778C27.1264 17.2178 27.1398 17.3578 27.0256 17.549C26.983 17.6178 26.9494 17.6823 26.9494 17.6912C26.9494 17.7112 26.983 17.7178 27.1353 17.7445C27.3369 17.7778 27.4511 17.9245 27.4511 18.1512C27.4511 18.2178 27.4421 18.2756 27.4309 18.2756C27.4197 18.2756 27.3436 18.249 27.263 18.2156C27.0278 18.1178 26.8934 18.0956 26.6202 18.0956C26.4119 18.0956 26.3425 18.1067 26.1947 18.1534C25.973 18.2267 25.7333 18.3623 25.5385 18.5378C25.3235 18.729 25.1891 18.789 24.9808 18.7845C24.786 18.7823 24.6539 18.729 24.5844 18.6178C24.5464 18.5578 24.5396 18.5245 24.5508 18.3912C24.5576 18.3045 24.5531 18.2356 24.5464 18.2356C24.5396 18.2356 24.4613 18.2823 24.3784 18.3423C24.1567 18.4956 24.0133 18.569 23.7558 18.669C22.9921 18.9689 21.8656 19.1023 21.0078 18.9912Z" fill="#CF1126"/>
<path d="M21.3634 17.5066C20.0667 17.3821 18.826 16.7133 18.0757 15.6488C17.256 14.5421 17.0007 13.0777 17.2493 11.7421C17.3837 11.1333 17.6502 10.5266 18.1071 10.0888C17.7442 10.8555 17.6188 11.7355 17.8159 12.5666C18.1183 14.2266 19.5292 15.6288 21.2201 15.8733C21.8875 16.0666 22.5817 15.8621 23.22 15.6555C24.6265 15.1621 25.7015 13.8355 25.8336 12.351C25.9434 11.5466 25.8202 10.7133 25.4574 9.98659C25.6657 10.0955 25.9277 10.5221 26.0822 10.811C26.6197 11.8444 26.6444 13.0844 26.3263 14.1844C25.8963 15.5888 24.8146 16.8177 23.3858 17.2644C22.734 17.4755 22.0465 17.5399 21.3634 17.5066Z" fill="#CF1126"/>
<path d="M14.8369 15.6625C14.7518 15.6492 14.66 15.7336 14.6891 15.8203C14.7496 15.9069 14.8571 15.9492 14.9511 15.9936C15.1796 16.0847 15.4282 16.1203 15.6745 16.1136C15.5894 16.1136 15.7059 16.1136 15.735 16.1136C15.9298 16.1136 16.1224 16.0803 16.3016 16.0136C16.4024 15.9758 16.5345 15.9469 16.5748 15.8336C16.6151 15.7603 16.5412 15.6892 16.4673 15.7025C16.3643 15.7269 16.268 15.7736 16.165 15.8003C15.9433 15.8625 15.7104 15.8869 15.4842 15.8669C15.3162 15.8469 15.1549 15.7936 15.0004 15.7292C14.9466 15.7047 14.8974 15.6714 14.8369 15.6625Z" fill="#CF1126"/>
<path d="M14.9303 15.3176C14.843 15.3043 14.7691 15.4043 14.8071 15.4799C14.8743 15.5732 14.9863 15.6265 15.0893 15.671C15.2707 15.7421 15.4656 15.771 15.6604 15.7665C15.5865 15.7665 15.6873 15.7665 15.7142 15.7665C15.8799 15.7665 16.0434 15.7332 16.1957 15.6732C16.2897 15.6354 16.4039 15.6021 16.4398 15.4999C16.4711 15.4421 16.4465 15.3621 16.3748 15.3599C16.3099 15.3576 16.2539 15.3976 16.1934 15.4176C15.9739 15.5088 15.7366 15.5443 15.5014 15.5243C15.3536 15.5043 15.2147 15.451 15.0804 15.391C15.0311 15.3621 14.9885 15.3265 14.9303 15.3176Z" fill="#CF1126"/>
<path d="M15.0475 14.9866C14.9736 14.9755 14.9243 15.0599 14.9378 15.1266C14.9467 15.1844 15.0027 15.2244 15.0453 15.2599C15.2222 15.391 15.4506 15.4466 15.6701 15.4377C15.585 15.4377 15.7843 15.4377 15.7238 15.4377C15.8605 15.4377 15.9993 15.4044 16.127 15.3444C16.2121 15.3088 16.3084 15.2688 16.3375 15.171C16.3509 15.1266 16.3621 15.0644 16.3106 15.0377C16.2569 15.0088 16.2054 15.0555 16.1583 15.071C15.9971 15.151 15.8179 15.1977 15.6365 15.1977C15.4775 15.2044 15.3342 15.1377 15.1953 15.0688C15.1416 15.0399 15.1035 14.9955 15.0475 14.9866Z" fill="#CF1126"/>
<path d="M13.8129 10.0912C13.7031 10.2001 13.786 10.4001 13.7838 10.5423C13.8397 10.9823 13.9114 11.4268 14.0749 11.8401C14.2765 12.2445 14.7065 12.4601 14.9663 12.8157C15.0603 12.989 15.0267 13.1957 15.0469 13.3823C15.0648 13.8957 15.0581 14.4068 15.0469 14.9201C15.2798 15.0379 15.5351 15.1534 15.8039 15.1068C15.9606 15.069 16.2585 15.0468 16.2921 14.889C16.2787 14.0045 16.2719 13.1223 16.2585 12.2379C16.1689 11.9668 15.889 11.8268 15.6852 11.6534C15.515 11.4868 15.3559 11.3068 15.2081 11.1157C15.1208 10.969 14.7759 10.9157 14.8991 11.1734C14.973 11.3979 15.1566 11.5601 15.2037 11.7934C15.2126 11.9201 15.3694 12.1579 15.2372 12.2312C15.1521 12.0912 15.0334 11.9712 14.8767 11.8979C14.7289 11.7868 14.4803 11.7423 14.4265 11.5468C14.3862 11.2712 14.2451 11.0201 14.0615 10.8134C14.1085 10.5668 14.0615 10.2557 13.8465 10.0957L13.8129 10.0912Z" fill="#CF1126"/>
<path d="M14.1443 10.1399C14.0435 10.1577 14.048 10.2821 14.0928 10.3466C14.1443 10.4888 14.1555 10.6421 14.1309 10.7932C14.3078 10.9999 14.4422 11.2444 14.487 11.5132C14.487 11.6132 14.5945 11.651 14.6639 11.6999C14.8274 11.8021 15.011 11.8799 15.1566 12.0066C15.188 12.0399 15.2103 12.0732 15.1902 12.0066C15.1678 11.9221 15.1566 11.8266 15.0894 11.7644C14.9998 11.6688 14.8811 11.5777 14.749 11.5466C14.74 11.4088 14.6728 11.2821 14.6124 11.1621C14.5452 11.0444 14.4735 10.9221 14.3593 10.8444C14.3615 10.6399 14.3593 10.4266 14.272 10.2399C14.2451 10.1999 14.207 10.1421 14.1443 10.1399Z" fill="#CF1126"/>
<path d="M14.4244 10.22C14.3527 10.24 14.3662 10.3266 14.3908 10.3755C14.4244 10.52 14.4267 10.6688 14.4267 10.8155C14.5543 10.9155 14.6349 11.0622 14.7066 11.2022C14.7536 11.2955 14.7939 11.3955 14.8141 11.4999C14.9194 11.5333 15.0089 11.5955 15.0896 11.6688C15.056 11.5733 14.9865 11.4999 14.9373 11.4133C14.8835 11.3222 14.8365 11.2266 14.8119 11.1222C14.7111 11.0155 14.6573 10.8688 14.682 10.7222C14.6864 10.5622 14.6349 10.3977 14.5274 10.28C14.4961 10.2533 14.4625 10.2244 14.4244 10.22Z" fill="#CF1126"/>
<path d="M14.7436 10.2666C14.7055 10.2733 14.6831 10.3089 14.663 10.3378C14.6563 10.3666 14.6899 10.3977 14.6966 10.4311C14.7414 10.5422 14.7571 10.6622 14.7436 10.7777C14.7391 10.8622 14.7705 10.9422 14.813 11.0133C14.8265 10.96 14.8735 10.9244 14.9273 10.92C14.9474 10.9155 14.9743 10.9266 14.9631 10.8955C14.9497 10.7355 14.9273 10.5755 14.869 10.4266C14.8489 10.3733 14.822 10.3178 14.775 10.28C14.766 10.2711 14.7548 10.2622 14.7436 10.2666Z" fill="#CF1126"/>
<path d="M28.8118 15.6625C28.8969 15.6492 28.9887 15.7336 28.9596 15.8203C28.8991 15.9069 28.7916 15.9492 28.6976 15.9936C28.4691 16.0847 28.2206 16.1203 27.9742 16.1136C28.0593 16.1136 27.9451 16.1136 27.9137 16.1136C27.7189 16.1136 27.5263 16.0803 27.3471 16.0136C27.2463 15.9758 27.1142 15.9469 27.0739 15.8336C27.0336 15.7603 27.1075 15.6892 27.1814 15.7025C27.2844 15.7269 27.3785 15.7736 27.4837 15.8003C27.7055 15.8625 27.9384 15.8869 28.1646 15.8669C28.3325 15.8469 28.4938 15.7936 28.6483 15.7292C28.7021 15.7047 28.7513 15.6714 28.8118 15.6625Z" fill="#CF1126"/>
<path d="M28.717 15.3176C28.8043 15.3043 28.8782 15.4043 28.8424 15.4799C28.7752 15.5732 28.6632 15.6265 28.5602 15.671C28.3788 15.7421 28.1839 15.771 27.9891 15.7665C28.063 15.7665 27.9622 15.7665 27.9353 15.7665C27.7696 15.7665 27.6061 15.7332 27.4538 15.6732C27.3598 15.6354 27.2455 15.6021 27.2097 15.4999C27.1806 15.4421 27.203 15.3621 27.2724 15.3599C27.3374 15.3576 27.3934 15.3976 27.4538 15.4176C27.6733 15.5088 27.9107 15.5443 28.1459 15.5243C28.2937 15.5043 28.4325 15.451 28.5669 15.391C28.6162 15.3621 28.661 15.3265 28.717 15.3176Z" fill="#CF1126"/>
<path d="M28.6001 14.9866C28.674 14.9755 28.7255 15.0599 28.7099 15.1266C28.7009 15.1844 28.6449 15.2244 28.6024 15.2599C28.4254 15.391 28.197 15.4466 27.9775 15.4377C28.0626 15.4377 27.8633 15.4377 27.9238 15.4377C27.7871 15.4377 27.6483 15.4044 27.5206 15.3444C27.4355 15.3088 27.3392 15.2688 27.3101 15.171C27.2967 15.1266 27.2855 15.0644 27.337 15.0377C27.3907 15.0088 27.4423 15.0555 27.4893 15.071C27.6505 15.151 27.8297 15.1977 28.0111 15.1977C28.1701 15.2044 28.3135 15.1377 28.4523 15.0688C28.5061 15.0399 28.5441 14.9955 28.6001 14.9866Z" fill="#CF1126"/>
<path d="M29.8366 10.0912C29.9464 10.2001 29.8635 10.4001 29.868 10.5423C29.8097 10.9823 29.7403 11.4268 29.5746 11.8401C29.373 12.2445 28.943 12.4601 28.6832 12.8157C28.5892 12.989 28.6228 13.1957 28.6026 13.3823C28.5847 13.8957 28.5937 14.4068 28.6026 14.9201C28.3719 15.0379 28.1144 15.1534 27.8456 15.1068C27.6866 15.069 27.391 15.0468 27.3574 14.889C27.3709 14.0045 27.3776 13.1223 27.391 12.2379C27.4828 11.9668 27.7605 11.8268 27.9666 11.6534C28.1368 11.4868 28.2958 11.3068 28.4436 11.1157C28.531 10.969 28.8781 10.9157 28.7527 11.1734C28.6788 11.3979 28.4929 11.5601 28.4481 11.7934C28.4391 11.9201 28.2824 12.1579 28.4145 12.2312C28.4996 12.0912 28.6183 11.9712 28.7751 11.8979C28.9229 11.7868 29.1715 11.7423 29.2252 11.5468C29.2655 11.2712 29.4066 11.0201 29.5903 10.8134C29.5432 10.5668 29.5903 10.2557 29.8053 10.0957L29.8366 10.0912Z" fill="#CF1126"/>
<path d="M29.5047 10.1399C29.6055 10.1577 29.6033 10.2821 29.5563 10.3466C29.5047 10.4888 29.4935 10.6421 29.5204 10.7932C29.3435 10.9999 29.2091 11.2444 29.1643 11.5132C29.1643 11.6132 29.0568 11.651 28.9852 11.6999C28.8217 11.8021 28.6403 11.8799 28.4925 12.0066C28.4611 12.0399 28.4387 12.0732 28.4589 12.0066C28.4813 11.9221 28.4925 11.8266 28.5596 11.7644C28.6492 11.6688 28.7679 11.5777 28.8978 11.5466C28.9068 11.4088 28.974 11.2821 29.0344 11.1621C29.1016 11.0444 29.1733 10.9221 29.2875 10.8444C29.2853 10.6399 29.2875 10.4266 29.3748 10.2399C29.404 10.1999 29.442 10.1421 29.5047 10.1399Z" fill="#CF1126"/>
<path d="M29.2235 10.22C29.2951 10.24 29.2817 10.3266 29.257 10.3755C29.2235 10.52 29.2212 10.6688 29.2212 10.8155C29.0936 10.9155 29.0129 11.0622 28.9435 11.2022C28.8965 11.2955 28.8562 11.3955 28.836 11.4999C28.7308 11.5333 28.6412 11.5955 28.5605 11.6688C28.5941 11.5733 28.6636 11.4999 28.7128 11.4133C28.7666 11.3222 28.8136 11.2266 28.8382 11.1222C28.939 11.0155 28.9928 10.8688 28.9681 10.7222C28.9659 10.5622 29.0152 10.3977 29.1227 10.28C29.1495 10.2533 29.1831 10.2244 29.2235 10.22Z" fill="#CF1126"/>
<path d="M28.9057 10.2666C28.9438 10.2733 28.9662 10.3089 28.9863 10.3378C28.9931 10.3666 28.9595 10.3977 28.9527 10.4311C28.9102 10.5422 28.8923 10.6622 28.9057 10.7777C28.9102 10.8622 28.8788 10.9422 28.8363 11.0133C28.8228 10.96 28.7758 10.9244 28.7221 10.92C28.7019 10.9155 28.675 10.9266 28.6862 10.8955C28.6997 10.7355 28.7221 10.5755 28.7803 10.4266C28.8004 10.3733 28.8273 10.3178 28.8744 10.28C28.8811 10.2711 28.8967 10.2622 28.9057 10.2666Z" fill="#CF1126"/>
<path d="M21.6808 15.8667C21.2261 15.8245 20.8163 15.4956 20.6797 15.0667C20.6864 14.9934 20.7805 15.1067 20.8253 15.1179C20.9104 15.1645 20.9955 15.2023 21.0895 15.209C21.2105 15.2601 21.2844 15.3756 21.3986 15.4379C21.4523 15.4779 21.6405 15.5579 21.6024 15.4267C21.5576 15.3601 21.5285 15.2734 21.5666 15.1934C21.6315 15.0534 21.7278 14.9334 21.8263 14.8201C21.9003 14.7956 21.9473 14.9379 21.9966 14.9867C22.0682 15.0956 22.1556 15.229 22.1108 15.3667C22.0705 15.4179 22.0436 15.5667 22.1511 15.5179C22.2855 15.4579 22.3974 15.3601 22.5094 15.2667C22.608 15.2001 22.7356 15.1934 22.8364 15.1334C22.8834 15.1201 22.9842 15.0267 23.0044 15.0801C22.9461 15.2312 22.8521 15.3645 22.7513 15.4867C22.5856 15.6734 22.3683 15.809 22.1197 15.849C21.9764 15.8712 21.8263 15.8756 21.6808 15.8667Z" fill="#CF1126"/>
<path d="M22.2106 15.3398C22.2195 15.2486 22.2016 15.1553 22.1524 15.0753C22.0829 14.9331 21.9822 14.802 21.8836 14.6753C21.7896 14.622 21.7403 14.7997 21.6798 14.8486C21.5813 14.9909 21.4648 15.1375 21.4581 15.3153C21.4043 15.3998 21.3036 15.2486 21.261 15.1975C21.1759 15.0798 21.1154 14.9442 21.1266 14.7975C21.1154 14.5642 21.1625 14.3309 21.2476 14.1109C21.3125 13.9242 21.42 13.7442 21.4088 13.5397C21.4155 13.3864 21.3864 13.2175 21.261 13.1175C21.1423 13.0242 21.3372 13.0042 21.3976 13.0553C21.5051 13.062 21.5634 13.2353 21.6597 13.1953C21.7 13.1064 21.7067 12.9953 21.7873 12.9242C21.8635 12.8175 21.9486 12.9709 21.9754 13.042C22.0292 13.1064 21.9732 13.2597 22.0628 13.262C22.1703 13.1886 22.2487 13.062 22.3853 13.0353C22.4413 13.0064 22.5376 13.0331 22.4637 13.0953C22.3629 13.1886 22.2755 13.3086 22.2554 13.4486C22.224 13.6242 22.2688 13.8042 22.3472 13.9664C22.495 14.2797 22.6115 14.6331 22.5353 14.9797C22.5017 15.1331 22.3942 15.2664 22.2666 15.3575C22.2442 15.362 22.2173 15.362 22.2106 15.3398Z" fill="#CF1126"/>
<path d="M22.051 12.9866C21.9995 12.8999 21.9435 12.8133 21.8584 12.7533C21.7778 12.7533 21.7263 12.8533 21.6725 12.9066C21.6367 12.9755 21.5874 13.0933 21.4956 13.0021C21.3478 12.9155 21.3209 12.7244 21.3209 12.5688C21.312 12.3155 21.415 12.0777 21.5068 11.8488C21.565 11.7066 21.5494 11.5422 21.5135 11.3955C21.4687 11.2266 21.3321 11.1088 21.2246 10.9755C21.2313 10.9244 21.3657 10.951 21.4172 10.9622C21.5314 10.9933 21.5986 11.0888 21.6837 11.1599C21.7442 11.1422 21.7196 11.0244 21.7487 10.9666C21.7509 10.8866 21.8562 10.7822 21.901 10.8955C21.9682 10.9688 21.8987 11.1133 21.9861 11.1555C22.0667 11.1244 22.107 11.0377 22.1854 10.9977C22.2593 10.9466 22.3668 10.9422 22.4474 10.9799C22.4743 11.0533 22.3601 11.1177 22.3265 11.1799C22.1899 11.3466 22.1406 11.5777 22.2033 11.7844C22.2503 11.9466 22.331 12.0977 22.3601 12.2644C22.3937 12.4555 22.3937 12.651 22.3422 12.8377C22.3131 12.951 22.2145 13.0244 22.1137 13.071C22.0801 13.051 22.0667 13.0177 22.051 12.9866Z" fill="#CF1126"/>
<path d="M21.5428 10.8956C21.4286 10.8112 21.3905 10.7356 21.3905 10.5778C21.3905 10.4978 21.404 10.4556 21.4577 10.3845C21.5361 10.2778 21.5227 10.2445 21.4107 10.2734C21.2338 10.3245 21.1486 10.2778 21.1419 10.1267C21.1397 10.0534 21.1554 10.0223 21.2517 9.90227C21.3323 9.80894 21.3592 9.76005 21.3457 9.74227C21.3278 9.7245 21.2338 9.80894 21.0434 10.0023C20.8889 10.1556 20.7186 10.3156 20.6604 10.3556C20.3312 10.5756 20.0154 10.6134 19.8698 10.4423C19.7959 10.3556 19.8004 10.3045 19.8878 10.2512C19.9281 10.2267 19.9908 10.1712 20.0356 10.1267C20.1364 10.0223 20.4275 9.81338 20.5753 9.74005C20.694 9.68005 20.7231 9.64005 20.6447 9.64005C20.544 9.64005 20.2237 9.84672 19.9796 10.0712C19.9102 10.1378 19.8049 10.2112 19.7511 10.2356C19.6302 10.2889 19.3906 10.3089 19.2831 10.2712C19.2092 10.2467 19.0703 10.1178 19.0703 10.0712C19.0703 10.0578 19.1017 10.0312 19.142 10.0112C19.1778 9.99116 19.2495 9.94005 19.2943 9.9045C19.4891 9.73561 19.8586 9.56227 20.152 9.49783C20.2461 9.47783 20.2125 9.43116 20.1072 9.43783C19.9057 9.44672 19.5048 9.63116 19.2674 9.82894C18.9875 10.0578 18.5642 10.0356 18.4298 9.78672C18.4052 9.7445 18.394 9.70227 18.3984 9.69561C18.4052 9.68894 18.488 9.66672 18.5843 9.64227C18.6873 9.61561 18.8889 9.53338 19.086 9.43561C19.3906 9.2845 19.4824 9.25116 19.6929 9.21783C19.787 9.20005 19.7937 9.15783 19.6996 9.14672C19.5809 9.13338 19.4018 9.19338 19.077 9.34672C18.665 9.54672 18.5507 9.5845 18.3313 9.57116C18.1319 9.55783 18.0222 9.50672 17.8609 9.35783C17.7579 9.25783 17.6056 9.00672 17.637 8.97783C17.6437 8.97116 17.693 8.97783 17.7445 8.99561C17.8005 9.01338 17.9684 9.0245 18.1678 9.0245C18.4455 9.0245 18.5216 9.01783 18.6717 8.97338C18.9203 8.90449 19.2517 8.73783 19.4779 8.56672C19.9124 8.24672 20.264 8.11561 20.7142 8.11338C21.1307 8.10894 21.3928 8.20672 21.6279 8.44227C21.7085 8.52227 21.7757 8.57338 21.7869 8.56227C21.7959 8.55338 21.8093 8.41116 21.8138 8.25116C21.8138 8.25116 21.9347 8.23783 21.9616 8.27338C21.9616 8.53338 21.9639 8.55338 22.0019 8.55338C22.0266 8.55338 22.0534 8.52672 22.0691 8.48894C22.1072 8.40227 22.2371 8.28894 22.3782 8.21561C22.6805 8.06227 23.2091 8.06005 23.6301 8.20449C23.8093 8.26894 24.0064 8.37783 24.1945 8.52227C24.3826 8.66672 24.7678 8.86005 24.9962 8.92227C25.2269 8.98894 25.6345 9.00227 25.8428 8.95561C25.9302 8.93561 26.0108 8.92005 26.0197 8.92005C26.0959 8.92005 25.966 9.17338 25.8115 9.32227C25.5293 9.59561 25.1642 9.59338 24.6491 9.32005C24.3289 9.15116 23.9436 9.05338 23.9436 9.15116C23.9436 9.17116 23.9638 9.18449 23.9952 9.18449C24.1049 9.18449 24.3199 9.25783 24.6222 9.40227C24.9492 9.55561 25.1306 9.62005 25.2381 9.62005C25.3143 9.62005 25.3187 9.67116 25.2448 9.77338C25.1687 9.88672 25.0366 9.94227 24.8484 9.94227C24.6715 9.94227 24.573 9.90227 24.4117 9.77338C24.1474 9.55338 23.4845 9.30894 23.5092 9.44005C23.5159 9.46672 23.545 9.48227 23.6122 9.49338C23.8451 9.52672 24.1139 9.65783 24.3916 9.8645C24.4767 9.92672 24.5662 9.99116 24.5864 10.0045C24.6245 10.0289 24.6267 10.0356 24.5976 10.0889C24.5461 10.1823 24.4229 10.2534 24.2841 10.2645C24.1094 10.2823 23.9548 10.2312 23.7958 10.0978C23.4644 9.82227 23.1486 9.62227 23.0478 9.62227C22.9627 9.62227 23.0053 9.66894 23.1486 9.74227C23.3412 9.84227 23.536 9.98005 23.6794 10.1089C23.7466 10.1734 23.8249 10.2334 23.8518 10.2467C23.9123 10.2801 23.91 10.3267 23.8429 10.4134C23.7757 10.5001 23.6615 10.5401 23.5159 10.5223C23.227 10.4912 22.9985 10.3534 22.6424 9.98672C22.5036 9.84227 22.3804 9.72672 22.367 9.72672C22.3199 9.72672 22.3468 9.79116 22.4409 9.89338C22.5551 10.0201 22.5753 10.0912 22.5349 10.1934C22.4991 10.2845 22.4342 10.3067 22.302 10.2712C22.1677 10.2334 22.1475 10.2667 22.2348 10.3734C22.367 10.5334 22.3468 10.7312 22.1878 10.8667C22.1363 10.9089 22.087 10.9423 22.0736 10.9423C22.0602 10.9423 22.0221 10.9067 21.9952 10.8623C21.8944 10.7089 21.8048 10.7089 21.7041 10.8667C21.6705 10.9201 21.6391 10.9667 21.6391 10.9623C21.6481 10.9712 21.5988 10.9378 21.5428 10.8956Z" fill="#CF1126"/>
<path d="M22.0496 7.76663L21.8772 7.90441L21.7227 7.78663V8.71108L22.0474 8.71552L22.0496 7.76663Z" fill="#CF1126"/>
<path d="M20.982 6.81109C20.9484 7.24665 20.8365 7.55554 20.6797 7.8911L21.0515 7.54665L21.3112 7.85332L21.5934 7.54221L21.8801 7.80443L22.1556 7.5311L22.4422 7.86443L22.6908 7.5911L23.1119 7.8911C22.9596 7.55332 22.7535 7.2711 22.7782 6.79776C22.3683 7.09332 21.3964 7.14665 20.982 6.81109Z" fill="#CF1126"/>
<path d="M21.7239 6.58659C21.5716 6.58882 21.4148 6.58882 21.2737 6.61993C21.1752 6.63993 21.0856 6.67104 21.0117 6.72215C21.0252 7.0066 22.3891 7.12438 22.7563 6.72882C22.678 6.67326 22.5839 6.63993 22.4809 6.61993C22.3443 6.59326 22.192 6.58882 22.0509 6.58882C22.0509 6.66659 22.0509 6.74437 22.0509 6.82215H21.7239V6.58659Z" fill="#CF1126"/>
<path d="M21.9901 5.13336L21.7773 5.13781V6.78447H21.9923L21.9901 5.13336Z" fill="#CF1126"/>
<path d="M21.9908 5.17319L21.9102 5.95985L22.7254 6.3554L22.3133 5.8043L22.8776 5.6243L21.9908 5.17319Z" fill="#CF1126"/>
<path d="M21.8986 4.97127C21.7732 4.97127 21.6836 5.01793 21.6836 5.07127C21.6836 5.1246 21.7754 5.17127 21.8986 5.17127C22.0218 5.17127 22.1136 5.1246 22.1136 5.07127C22.1136 5.01793 22.024 4.97127 21.8986 4.97127Z" fill="#CF1126"/>
<path d="M21.522 18.7934C21.6564 18.7512 21.7325 18.6712 21.7885 18.5134C21.8154 18.4356 21.8355 18.3556 21.8288 18.3334C21.8198 18.2823 21.7594 18.2867 21.6944 18.3401C21.6519 18.3756 21.6429 18.3934 21.6586 18.4712C21.6922 18.6578 21.625 18.7045 21.2689 18.7401C21.2353 18.7423 21.1323 18.7378 21.0405 18.7267C20.8725 18.7067 20.812 18.7245 20.8725 18.7734C20.8904 18.7912 20.9397 18.809 20.9755 18.8201C21.0718 18.8423 21.4212 18.8267 21.522 18.7934Z" fill="#F7E017"/>
<path d="M22.2612 18.7643C22.2813 18.7465 22.353 18.7132 22.4157 18.6954C22.503 18.6688 22.5478 18.6377 22.5837 18.5865C22.6867 18.4332 22.6688 18.2999 22.5165 18.1199C22.4314 18.0221 22.3955 18.0265 22.3284 18.1332C22.2701 18.2265 22.2701 18.2332 22.3552 18.2532C22.4 18.2621 22.4403 18.2954 22.4627 18.3376C22.5546 18.491 22.5277 18.5888 22.3933 18.5888C22.2724 18.5888 22.2388 18.6065 22.2052 18.6843C22.1873 18.7243 22.1738 18.7688 22.1738 18.7821C22.1738 18.8065 22.2209 18.7999 22.2612 18.7643Z" fill="#F7E017"/>
<path d="M22.0182 18.591C22.0429 18.531 22.0496 18.4177 22.0451 18.1932C22.0451 18.0243 22.0339 17.8754 22.0272 17.871C22.007 17.851 21.9063 17.9154 21.8928 17.9554C21.8861 17.9754 21.8951 18.0243 21.9152 18.0665C21.9466 18.1265 21.9488 18.1843 21.9421 18.4177C21.9376 18.7065 21.9578 18.7577 22.0182 18.591Z" fill="#F7E017"/>
<path d="M21.4528 18.4468C21.4663 18.3913 21.4797 18.2802 21.4864 18.1957C21.4931 18.1113 21.5088 18.009 21.5223 17.9646C21.5558 17.8468 21.5223 17.8179 21.4304 17.8846L21.3632 17.9357L21.3767 18.1024C21.3901 18.2535 21.3655 18.529 21.3319 18.6379C21.3207 18.669 21.3341 18.6579 21.3767 18.6135C21.4058 18.5757 21.4394 18.5024 21.4528 18.4468Z" fill="#F7E017"/>
<path d="M20.9478 18.5267C21.071 18.4245 21.0553 18.2511 21.0822 18.1089C21.0799 18.0156 21.1426 17.9022 21.1023 17.82C20.9881 17.84 20.9164 17.9511 20.9746 18.0556C20.9769 18.18 20.9747 18.3156 20.9097 18.4245C20.856 18.4978 20.6902 18.4778 20.6992 18.3778C20.7395 18.2245 20.5558 18.2978 20.4842 18.3378C20.4282 18.3778 20.3095 18.3778 20.3498 18.2822C20.3229 18.1511 20.155 18.2356 20.0631 18.2311C19.9758 18.2311 20.0564 18.0578 19.931 18.0867C19.7026 18.0689 19.4517 18.0911 19.2524 17.9511C19.1382 17.8933 19.1561 17.7578 19.2166 17.6667C19.286 17.5422 19.3106 17.3933 19.4249 17.2956C19.5391 17.1889 19.3174 17.2333 19.2681 17.2689C19.1561 17.3289 19.2614 17.4822 19.1695 17.5689C19.1158 17.66 19.0486 17.7778 18.9254 17.7622C18.7507 17.7289 18.6477 17.5667 18.5223 17.46C18.4148 17.44 18.4753 17.6333 18.5313 17.6778C18.6432 17.7622 18.7709 17.82 18.9053 17.8533C19.0352 17.8333 19.0419 18.0045 19.1539 18.0289C19.3622 18.1267 19.5951 18.1533 19.819 18.1667C19.9086 18.1733 19.8593 18.3289 19.9736 18.3C20.0385 18.3178 20.1841 18.2756 20.1953 18.3511C20.0945 18.4689 20.2893 18.4645 20.3632 18.4445C20.4528 18.4311 20.5715 18.3934 20.5984 18.52C20.6768 18.6 20.8179 18.5911 20.9119 18.5445C20.9231 18.5467 20.9343 18.5356 20.9478 18.5267Z" fill="#F7E017"/>
<path d="M18.9367 17.5199C18.9726 17.4732 19.0308 17.3754 19.0599 17.3088C19.0913 17.2399 19.1383 17.1577 19.1607 17.1332C19.2212 17.0688 19.1876 17.0288 19.0913 17.0532C19.0398 17.0621 19.0196 17.0821 19.0106 17.1265C18.9838 17.2665 18.93 17.4132 18.883 17.4799C18.7979 17.6021 18.7979 17.6065 18.8315 17.6065C18.8583 17.6021 18.9009 17.5665 18.9367 17.5199Z" fill="#F7E017"/>
<path d="M17.6825 16.738C17.5884 16.738 17.584 16.798 17.6758 16.8269C17.7183 16.8447 17.7564 16.8802 17.7855 16.9402C17.8773 17.1158 17.9266 17.1469 18.1663 17.1669L18.3185 17.1802L18.3253 17.2736C18.3297 17.3247 18.3432 17.3669 18.3521 17.3669C18.3611 17.3669 18.4216 17.3402 18.4843 17.3091C18.594 17.2536 18.7038 17.1225 18.7038 17.0425C18.7038 16.9891 18.6119 16.9336 18.5335 16.9336C18.4977 16.9336 18.4305 16.9625 18.3768 17.0002C18.2088 17.1247 18.0274 17.098 17.9266 16.9402C17.8393 16.8069 17.7564 16.738 17.6825 16.738ZM18.5 17.0602C18.5447 17.0602 18.5559 17.0936 18.5313 17.158C18.5134 17.2002 18.4619 17.2002 18.444 17.1602C18.4283 17.1091 18.4552 17.0602 18.5 17.0602Z" fill="#F7E017"/>
<path d="M24.8747 16.8578C24.8142 16.86 24.794 16.8756 24.756 16.9311C24.6933 17.0245 24.6865 17.2289 24.747 17.3C24.7828 17.3422 24.7896 17.3467 24.8679 17.3133C24.9754 17.2689 24.9956 17.2689 24.9956 17.3267C24.9956 17.4733 24.7806 17.7578 24.5589 17.9111C24.4984 17.9511 24.4447 17.9978 24.4379 18.0111C24.42 18.0533 24.5051 18.0445 24.6059 17.9911C24.7448 17.9222 24.9262 17.7378 25.0023 17.5911C25.0628 17.4733 25.0695 17.4356 25.0762 17.2356C25.0829 17.0489 25.0762 16.9956 25.0471 16.9311C25.009 16.86 25.0001 16.8533 24.9083 16.8533C24.8948 16.8578 24.8836 16.8578 24.8747 16.8578ZM24.8836 16.9867C24.9307 16.9867 24.9374 16.9956 24.9441 17.0622C24.9463 17.1156 24.9374 17.1489 24.906 17.18C24.8657 17.2156 24.8635 17.2156 24.8254 17.16C24.7739 17.08 24.8075 16.9867 24.8836 16.9867Z" fill="#F7E017"/>
<path d="M23.8644 18.409C24.0593 18.3134 24.1757 18.2067 24.2519 18.049C24.2855 17.9756 24.3146 17.9067 24.3146 17.8912C24.3146 17.8645 24.2183 17.8178 24.16 17.8178C24.1018 17.8178 24.0884 17.7778 24.1153 17.6667C24.1399 17.5601 24.1085 17.4267 24.0615 17.4267C24.0436 17.4267 24.0145 17.4534 23.9943 17.4823C23.963 17.5289 23.9607 17.5489 23.9854 17.6178C24.019 17.7178 23.9921 17.7934 23.9003 17.8601C23.8577 17.8912 23.8331 17.9267 23.8331 17.9601C23.8331 17.9912 23.8353 18.0134 23.8398 18.0134C23.842 18.0134 23.8935 17.989 23.9473 17.9601L24.0458 17.9067L24.1018 17.949C24.1332 17.9734 24.16 18.0156 24.16 18.0401C24.16 18.1601 23.8174 18.3578 23.5867 18.3756C23.4613 18.3867 23.4434 18.3823 23.3986 18.3401C23.365 18.3067 23.356 18.2756 23.3628 18.2334C23.3695 18.2001 23.3829 18.1423 23.3896 18.1067C23.4098 18.0023 23.365 18.0156 23.2889 18.1356C23.2239 18.2356 23.2038 18.3423 23.2418 18.4001C23.2732 18.4467 23.4658 18.4889 23.6002 18.4801C23.6897 18.4756 23.7726 18.4534 23.8644 18.409Z" fill="#F7E017"/>
<path d="M25.1735 17.6846C25.2989 17.5601 25.3482 17.4157 25.3504 17.1846V17.0112L25.4512 16.9646C25.5856 16.9023 25.711 16.7779 25.711 16.709C25.711 16.6379 25.6774 16.6423 25.6192 16.7179C25.5766 16.7757 25.5207 16.809 25.3168 16.9023C25.2653 16.9268 25.2631 16.9401 25.2497 17.1557C25.2362 17.4068 25.2026 17.4957 25.0615 17.6668C24.9764 17.769 24.9742 17.7846 25.0302 17.7846C25.0571 17.7757 25.122 17.7335 25.1735 17.6846Z" fill="#F7E017"/>
<path d="M23.8315 17.5422C23.8405 17.5067 23.7729 17.4822 23.7436 17.5089C23.7301 17.5222 23.7256 17.5422 23.7369 17.5556C23.7571 17.5911 23.8157 17.58 23.8315 17.5422Z" fill="#F7E017"/>
<path d="M25.6847 17.0668C25.6983 17.029 25.6261 17.0068 25.5991 17.0335C25.5856 17.0468 25.5811 17.0668 25.5923 17.0801C25.6104 17.1135 25.6735 17.1024 25.6847 17.0668Z" fill="#F7E017"/>
<path d="M23.4507 15.7754C23.4037 15.7999 23.3768 15.8488 23.3432 15.8888C23.3186 15.9065 23.3387 15.9176 23.3522 15.9354C23.4373 16.0243 23.4731 16.1488 23.5134 16.2621C23.5537 16.3954 23.6052 16.5421 23.5605 16.6821C23.5425 16.7354 23.5 16.7932 23.4395 16.7732C23.3387 16.7665 23.2379 16.7399 23.1349 16.7399C23.0431 16.7421 22.9737 16.8265 22.8796 16.8154C22.8191 16.8199 22.8236 16.6954 22.7699 16.7288C22.743 16.791 22.7564 16.8643 22.752 16.9354C22.7609 16.9465 22.7923 16.9354 22.8102 16.9399H22.9916C23.005 17.0021 23.0028 17.0732 23.0498 17.1221C23.1148 17.1465 23.1842 17.1243 23.2447 17.1021C23.3096 17.071 23.3186 16.9954 23.3365 16.9354C23.3566 16.8732 23.4418 16.8888 23.491 16.8621C23.6142 16.8243 23.6948 16.6976 23.6881 16.5754C23.6814 16.3843 23.6075 16.2043 23.5493 16.0243C23.5224 15.9443 23.5022 15.8621 23.4686 15.7843C23.4686 15.7799 23.4574 15.7732 23.4507 15.7754ZM23.1439 16.8665C23.2111 16.8621 23.2424 16.9465 23.229 16.9999C23.2021 17.0754 23.1103 17.0265 23.0924 16.9732C23.0588 16.9265 23.0767 16.8599 23.1439 16.8665Z" fill="#F7E017"/>
<path d="M20.6128 16.2399C20.5815 16.2399 20.5479 16.2488 20.5143 16.2732C20.3374 16.3955 20.2881 16.5421 20.4113 16.5999C20.5009 16.6421 20.4785 16.6932 20.3374 16.7621C20.1358 16.8621 19.9611 16.8488 19.6207 16.711C19.5356 16.6777 19.5177 16.691 19.5356 16.7643C19.5535 16.8377 19.6229 16.8777 19.7909 16.9177C19.9723 16.9577 20.1918 16.9443 20.3306 16.8843C20.3978 16.8555 20.4829 16.7932 20.5501 16.7177L20.6621 16.5977L20.7898 16.6155C20.9488 16.6355 20.951 16.6355 20.951 16.711C20.951 16.771 20.9555 16.771 21.0988 16.7843C21.1794 16.791 21.2869 16.7977 21.3362 16.7977C21.4012 16.7977 21.437 16.8066 21.4572 16.8377C21.484 16.8777 21.4997 16.8777 21.7393 16.8577C21.9611 16.8377 22.0059 16.8399 22.1022 16.8755C22.1716 16.8999 22.25 16.9088 22.3104 16.9021C22.4784 16.8821 22.7136 16.7443 22.7472 16.6443C22.7516 16.631 22.8143 16.611 22.886 16.5977C23.0562 16.5643 23.0629 16.5266 22.9062 16.5066C22.8367 16.4977 22.7315 16.4732 22.6755 16.451C22.6173 16.4288 22.5366 16.4066 22.4963 16.4066C22.409 16.4066 22.3284 16.4599 22.3284 16.5177C22.3284 16.5555 22.3418 16.5577 22.4426 16.5466C22.5366 16.5377 22.568 16.5443 22.6173 16.5843C22.6509 16.611 22.6732 16.6399 22.6643 16.651C22.6419 16.6888 22.4426 16.7777 22.353 16.791C22.2925 16.8021 22.2455 16.7955 22.1985 16.771C22.1201 16.731 22.0081 16.7243 21.9857 16.7577C21.9767 16.7755 21.9521 16.7643 21.9185 16.731L21.8648 16.6799L21.7461 16.731C21.6251 16.7821 21.5803 16.7777 21.5803 16.7221C21.5803 16.6955 21.5467 16.691 21.3698 16.7043C21.175 16.7177 21.1548 16.7132 21.1167 16.6732C21.0831 16.6377 21.0831 16.6221 21.1078 16.5843C21.1302 16.5466 21.1302 16.5332 21.1078 16.5132C21.0831 16.4932 21.0563 16.4932 20.9801 16.5132C20.7853 16.5643 20.7315 16.5377 20.7315 16.3843C20.7338 16.2955 20.68 16.2421 20.6128 16.2399ZM20.5658 16.3799C20.5748 16.3799 20.586 16.3866 20.5994 16.3999C20.6173 16.4177 20.6263 16.4466 20.6196 16.4666C20.6016 16.5132 20.5188 16.5088 20.5009 16.4621C20.4897 16.4399 20.5031 16.4155 20.5277 16.3999C20.5456 16.3866 20.5546 16.3799 20.5658 16.3799Z" fill="#F7E017"/>
<path d="M20.2143 16.5201C20.333 16.4468 20.333 16.449 20.3487 16.2423C20.3599 16.0957 20.3599 16.0868 20.3173 16.0868C20.2591 16.0868 20.23 16.149 20.23 16.2712C20.23 16.3468 20.2165 16.3845 20.1762 16.4245C20.0777 16.5201 19.8336 16.4779 19.8 16.3579C19.791 16.3134 19.8044 16.2779 19.8537 16.2068C19.9612 16.0557 19.9388 16.0201 19.8067 16.1334C19.7171 16.2134 19.6992 16.2134 19.7171 16.1468C19.735 16.0845 19.6992 16.0601 19.6275 16.0757C19.5895 16.0868 19.5693 16.109 19.5603 16.1534C19.5491 16.1979 19.529 16.2245 19.4954 16.2312C19.4349 16.249 19.3341 16.1912 19.3341 16.1401C19.3341 16.1023 19.4864 15.9201 19.679 15.7201C19.7529 15.6445 19.8134 15.5734 19.8134 15.5645C19.8134 15.5557 19.7731 15.5445 19.7261 15.5445C19.6544 15.5445 19.6387 15.5512 19.6387 15.5845C19.6387 15.609 19.5424 15.7357 19.4192 15.869C19.1662 16.149 19.1483 16.2068 19.2714 16.2823C19.3722 16.3423 19.4999 16.3379 19.6006 16.269L19.6813 16.2157V16.3157C19.6813 16.4423 19.7081 16.489 19.8089 16.5423C19.9366 16.6068 20.0911 16.6001 20.2143 16.5201Z" fill="#F7E017"/>
<path d="M25.4765 14.7912C25.3825 14.8468 25.4564 14.9601 25.4698 15.0379C25.434 15.1423 25.2951 15.1712 25.1988 15.1912C25.0577 15.2134 24.9592 15.3312 24.9054 15.4534C24.8741 15.5334 24.8069 15.6579 24.7308 15.5379C24.6636 15.4712 24.5426 15.4179 24.4642 15.4979C24.4038 15.5556 24.3903 15.6379 24.3679 15.7112C24.3343 15.6556 24.3164 15.569 24.2425 15.5512C24.1238 15.569 24.1664 15.7134 24.2224 15.7779C24.2739 15.849 24.3232 15.9445 24.2739 16.029C24.2291 16.1334 24.079 16.2001 23.9872 16.1134C23.9021 16.0712 23.9603 15.9134 23.8752 15.9068C23.8349 15.9356 23.8327 16.0956 23.7677 16.0112C23.7207 15.9334 23.7431 15.8312 23.6871 15.7645C23.6199 15.7712 23.5662 15.889 23.5863 15.9512C23.6781 16.0712 23.714 16.2245 23.7476 16.369C23.77 16.4268 23.7431 16.5423 23.7991 16.5645C23.8349 16.4712 23.8013 16.369 23.8327 16.2756C23.92 16.2645 24.0186 16.3045 24.1104 16.2823C24.2403 16.2645 24.3455 16.1556 24.3881 16.0356C24.4015 15.9468 24.3859 15.8601 24.3814 15.769C24.4866 15.7868 24.5919 15.7868 24.6927 15.8201C24.7442 15.8979 24.6748 16.0001 24.6636 16.0823C24.6098 16.2534 24.4777 16.3734 24.3478 16.4868C24.294 16.5201 24.2873 16.6045 24.3679 16.5579C24.5426 16.4845 24.6703 16.329 24.7442 16.1579C24.7979 16.029 24.7532 15.8845 24.7912 15.7512C24.845 15.6512 24.9704 15.6712 25.0645 15.6712C25.1608 15.6668 25.2414 15.5534 25.2123 15.4623C25.1832 15.3556 25.2974 15.3023 25.378 15.2623C25.481 15.209 25.5639 15.1023 25.5549 14.9823C25.5549 14.9134 25.5594 14.7956 25.4765 14.7912ZM25.1025 15.4134C25.2145 15.4423 25.0824 15.6579 25.0219 15.5201C25.0062 15.4712 25.0488 15.4134 25.1025 15.4134ZM24.5852 15.5668C24.7285 15.5579 24.6792 15.7712 24.5538 15.6734C24.4911 15.6423 24.5113 15.5623 24.5852 15.5668Z" fill="#F7E017"/>
<path d="M19.308 16.3844C19.3102 16.3644 19.3012 16.3467 19.2809 16.3467C19.2403 16.3467 19.2178 16.3844 19.2336 16.4133C19.2561 16.4422 19.2989 16.4267 19.308 16.3844Z" fill="#F7E017"/>
<path d="M21.0152 16.1934C21.0152 16.1645 21.0039 16.1512 20.9791 16.1578C20.9205 16.1667 20.9138 16.2423 20.9724 16.2423C21.0017 16.2378 21.0152 16.2245 21.0152 16.1934Z" fill="#F7E017"/>
<path d="M18.9008 15.1755C18.8336 15.1621 18.791 15.2199 18.7664 15.2732C18.7149 15.3599 18.6522 15.4466 18.5626 15.491C18.4954 15.5088 18.426 15.4844 18.3678 15.451C18.3006 15.4177 18.314 15.3377 18.2871 15.2821C18.2356 15.2444 18.1528 15.2999 18.1528 15.3577C18.146 15.4377 18.2222 15.4844 18.2827 15.5155C18.3364 15.5488 18.4148 15.5666 18.4349 15.6332C18.4349 15.6888 18.4551 15.7532 18.5223 15.7288C18.5984 15.7288 18.6164 15.8177 18.585 15.8755C18.5559 15.9377 18.5312 16.0088 18.5492 16.0799C18.585 16.1088 18.6231 16.0288 18.6499 16.0066C18.6679 15.9844 18.6858 15.9599 18.7037 15.9355C18.8381 15.9421 18.9724 15.9599 19.1068 15.9555C19.2054 15.951 19.286 15.8955 19.3465 15.8266C19.4338 15.7355 19.5032 15.6332 19.6018 15.5555C19.6734 15.5377 19.6354 15.4088 19.5615 15.4466C19.4943 15.4688 19.4741 15.5466 19.4293 15.5932C19.3532 15.6866 19.2703 15.7799 19.174 15.8532C19.1046 15.8844 19.0195 15.871 18.9456 15.8532C18.9165 15.8266 19.006 15.8066 19.0195 15.7777C19.062 15.7355 19.1113 15.6977 19.1382 15.6399C19.1135 15.5888 19.0441 15.5866 18.9948 15.5844C18.8694 15.5977 18.7754 15.7021 18.6522 15.711C18.5581 15.7155 18.6052 15.611 18.6499 15.5777C18.7351 15.4777 18.8246 15.3888 18.912 15.291C18.9344 15.2599 19.0262 15.2332 18.968 15.191C18.9433 15.1755 18.9254 15.1755 18.9008 15.1755ZM18.9613 15.6732C19.0262 15.7066 18.9209 15.7666 18.8761 15.7577C18.8202 15.7755 18.8202 15.7177 18.8694 15.7044C18.9008 15.6932 18.9321 15.6755 18.9613 15.6732ZM18.7686 15.8066C18.8045 15.8066 18.8806 15.8399 18.809 15.8599C18.7642 15.8955 18.7059 15.8244 18.7686 15.8066Z" fill="#F7E017"/>
<path d="M20.2861 15.8909C20.2861 15.8442 20.2005 15.8509 20.1915 15.8976C20.1847 15.9265 20.1937 15.9353 20.2365 15.9309C20.2636 15.9265 20.2861 15.9087 20.2861 15.8909Z" fill="#F7E017"/>
<path d="M24.0493 15.56C24.0583 15.5134 23.9952 15.4845 23.9614 15.5178C23.9276 15.5511 23.9591 15.6134 24.0065 15.6045C24.0268 15.6 24.0448 15.58 24.0493 15.56Z" fill="#F7E017"/>
<path d="M18.1894 15.1047C18.2498 15.0536 18.2498 15.0514 18.223 14.9425C18.1871 14.7892 18.1894 14.7714 18.2498 14.7558C18.3237 14.7358 18.5163 14.8403 18.5589 14.918C18.5925 14.9803 18.5925 14.9847 18.5365 15.038C18.476 15.0914 18.476 15.158 18.5365 15.158C18.588 15.158 18.7246 15.0269 18.7246 14.9803C18.7246 14.918 18.5723 14.7625 18.4536 14.7069C18.3797 14.6736 18.3058 14.6558 18.2185 14.6558C18.0639 14.6558 18.0438 14.6892 18.0841 14.8647C18.1356 15.0736 18.0662 15.1025 17.896 14.9447C17.7683 14.8269 17.7213 14.7047 17.7213 14.5158C17.7213 14.3092 17.8019 14.2092 17.9811 14.1869C18.0998 14.1692 18.0953 14.1425 17.9744 14.1269C17.7974 14.1003 17.6451 14.218 17.5869 14.4314C17.5242 14.6647 17.6675 14.9492 17.9273 15.098C18.0595 15.1669 18.1132 15.1714 18.1894 15.1047Z" fill="#F7E017"/>
<path d="M25.2075 14.8468C25.2209 14.8335 25.2344 14.8001 25.2344 14.7757C25.2344 14.7535 25.259 14.6957 25.2881 14.6557C25.3195 14.6157 25.3419 14.5712 25.3419 14.5624C25.3419 14.5224 25.2747 14.5224 25.2209 14.5668C25.1672 14.609 25.1246 14.609 25.1246 14.5712C25.1246 14.5601 25.1515 14.5379 25.1829 14.5246C25.2635 14.4846 25.2702 14.4468 25.203 14.4179C25.1157 14.3779 25.0283 14.4512 25.0216 14.569C25.0149 14.649 25.0216 14.6623 25.0821 14.6957C25.1403 14.729 25.1493 14.7468 25.1403 14.7935C25.1179 14.8712 25.1515 14.8957 25.2075 14.8468Z" fill="#F7E017"/>
<path d="M25.8637 14.7735C25.9107 14.729 25.951 14.6801 25.951 14.6624C25.951 14.6446 25.9913 14.6024 26.0451 14.5668C26.1884 14.4624 26.222 14.3601 26.1548 14.2001C26.1279 14.1357 26.0518 14.049 25.8793 13.8957C25.7472 13.7757 25.624 13.6779 25.6106 13.6779C25.5635 13.6779 25.5703 13.849 25.6195 13.8646C25.7069 13.8913 25.7562 13.9268 25.8905 14.049C26.0495 14.189 26.119 14.3224 26.0831 14.3957C26.0473 14.4668 25.9958 14.4468 25.8547 14.2957C25.7808 14.2179 25.7114 14.1557 25.6934 14.1557C25.6755 14.1557 25.6666 14.1846 25.6666 14.2224C25.6666 14.2735 25.6934 14.3179 25.7651 14.3979C25.8838 14.5268 25.8928 14.6046 25.8054 14.6735C25.7763 14.6979 25.7427 14.7201 25.7315 14.7201C25.7248 14.7201 25.6979 14.6801 25.6733 14.6335C25.6218 14.5335 25.3239 14.2201 25.2791 14.2201C25.259 14.2201 25.25 14.2468 25.25 14.2957C25.25 14.3557 25.2634 14.3801 25.3105 14.4024C25.3709 14.4313 25.5188 14.5779 25.6643 14.7557C25.7069 14.8068 25.7494 14.849 25.7584 14.849C25.7718 14.8513 25.8189 14.8179 25.8637 14.7735Z" fill="#F7E017"/>
<path d="M26.1585 13.9379C26.1384 13.8756 25.7353 13.4645 25.695 13.4645C25.6748 13.4645 25.6681 13.4912 25.6703 13.5556C25.6771 13.6356 25.6838 13.649 25.7398 13.6623C25.7734 13.6734 25.8809 13.7556 25.9749 13.8467C26.069 13.9401 26.1541 14.0067 26.1608 14.0001C26.172 13.9934 26.1675 13.9623 26.1585 13.9379Z" fill="#F7E017"/>
<path d="M23.7565 18.5642C23.7565 18.5954 23.7294 18.6176 23.6956 18.6176C23.6618 18.6176 23.6348 18.5931 23.6348 18.5642C23.6348 18.5354 23.6618 18.5109 23.6956 18.5109C23.7294 18.5087 23.7565 18.5331 23.7565 18.5642Z" fill="#F7E017"/>
<path d="M23.9674 18.4932C23.9674 18.5243 23.9404 18.5466 23.9066 18.5466C23.8727 18.5466 23.8457 18.5221 23.8457 18.4932C23.8457 18.4643 23.8727 18.4399 23.9066 18.4399C23.9404 18.4399 23.9674 18.4643 23.9674 18.4932Z" fill="#F7E017"/>
</g>
<rect x="0.474219" y="0.15" width="42.7" height="23.7" stroke="#EFEFF8" stroke-width="0.3"/>
<defs>
<clipPath id="clip0_684_43312">
<rect x="0.324219" width="43" height="24" fill="white"/>
</clipPath>
</defs>
</svg>
