<svg width="44" height="24" viewBox="0 0 44 24" fill="none" xmlns="http://www.w3.org/2000/svg">
<g clip-path="url(#clip0_684_38757)">
<path d="M49.7238 -0.253113H0.332031V24.2513H49.7238V-0.253113Z" fill="#CE1720"/>
<path d="M0.607422 -0.253113H6.09439V24.2513H0.607422V-0.253113Z" fill="white"/>
<path d="M3.47258 -0.253113V0.633554H3.2307V-0.253113H3.47258ZM0.388672 1.30022H0.823151V0.944665H1.04263V0.515776H1.34945V0.14022H1.60253V-0.250891H2.36622V0.14022H2.61258V0.515776H2.9194V0.946887H3.13888V1.30022H3.47258V1.84911H3.13888V2.20244H2.9194V2.63355H2.61258V3.00911H2.36622V3.41133H2.19154V3.74911H1.77497V3.41133H1.60029V3.00911H1.34721V2.63355H1.04039V2.20466H0.820911V1.84911H0.388672V1.30022ZM0.388672 -0.0664462H0.823151V0.422443H0.388672V-0.0664462ZM2.08852 0.569109H1.86456V0.90022H1.64956V1.32022H1.44128V1.838H1.64956V2.258H1.86456V2.58466H2.08852V2.258H2.30352V1.838H2.51852V1.32244H2.30352V0.902442H2.08852V0.569109ZM2.11091 1.32689V1.818H1.84216V1.32689H2.11091ZM0.388672 2.61133H0.823151V3.14022H0.388672V2.61133ZM3.47258 2.66022V3.40689H3.2307V2.66022H3.47258ZM2.87909 3.48911V3.86022H3.14336V4.24244H3.47258V4.74244H3.14336V5.12911H2.87909V5.50022H2.57227V5.12911H2.30799V4.74244H2.08852V4.24244H2.30799V3.86022H2.57227V3.48911H2.87909ZM0.388672 4.24022H0.823151V3.858H1.08742V3.48911H1.38529V3.86022H1.64956V4.24244H1.86904V4.74244H1.64956V5.12911H1.38529V5.50022H1.08518V5.12911H0.820911V4.74244H0.388672V4.24022ZM2.84102 4.25133H2.61706V4.72466H2.84102V4.25133ZM1.35393 4.25133H1.12997V4.72466H1.35393V4.25133ZM1.44128 12.098V11.8424H1.25539V11.4558H1.00904V11.2224H0.823151V10.8447H0.388672V9.97355H0.823151V10.2247H1.00904V10.5891H1.25539V11.0247H1.60701V10.6336H1.86456V10.3447H2.05044V10.0024H2.2968V9.638H2.4782V9.26688H2.65289V8.88466H2.88805V8.37355H2.57451V7.91133H2.23633V7.63355H1.66523V8.03577H1.99445V8.40022H1.77497V8.84688H1.51742V9.238H1.19492V8.84688H0.926172V8.40022H0.760443V8.03577H0.388672V7.34466H0.823151V6.898H0.98888V6.55577H1.13893V6.16466H1.35841V5.778H1.57341V5.52244H1.83096V5.13355H2.14451V5.52022H2.40206V5.77577H2.62154V6.16244H2.83654V6.55577H3.01122V6.89355H3.18591V7.18689H3.47034V9.34911H3.1456V9.71355H3.05154V10.0958H2.80966V10.4669H2.66185V10.7402H2.50732V11.0291H2.24753V11.3113H1.86904V12.1002L1.44128 12.098ZM3.47258 5.49355V6.24022H3.2307V5.49355H3.47258ZM0.388672 5.63355H0.823151V6.16244H0.388672V5.63355ZM0.388672 8.80911H0.823151V9.338H0.388672V8.80911ZM3.46138 10.1491V10.6291H3.2307V10.1491H3.46138ZM3.14336 12.098V11.798H3.00003V11.5647H2.79174V10.8624H3.00003V11.1447H3.21951V11.558H3.46138V12.0913L3.14336 12.098ZM2.2856 12.0936V11.7447H2.51628V12.0936" fill="#CE1720"/>
<path d="M3.23047 -0.253113V0.633554H3.47234V-0.253113H3.23047ZM6.31438 1.30022H5.8799V0.944665H5.66042V0.515776H5.35359V0.14022H5.10052V-0.250891H4.33682V0.14022H4.09047V0.515776H3.78365V0.946887H3.56417V1.30022H3.23047V1.84911H3.56417V2.20244H3.78365V2.63355H4.09047V3.00911H4.33682V3.41133H4.51151V3.74911H4.92359V3.41133H5.09828V3.00911H5.35135V2.63355H5.65818V2.20466H5.87766V1.84911H6.31214L6.31438 1.30022ZM6.31438 -0.0664462H5.8799V0.422443H6.31438V-0.0664462ZM4.61229 0.569109H4.83625V0.90022H5.05125V1.32022H5.25953V1.838H5.05125V2.258H4.83625V2.58466H4.61229V2.258H4.39729V1.838H4.18453V1.32244H4.39953V0.902442H4.61453V0.569109H4.61229ZM4.59214 1.32689V1.818H4.86089V1.32689H4.59214ZM6.31438 2.61133H5.8799V3.14022H6.31438V2.61133ZM3.23047 2.66022V3.40689H3.47234V2.66022H3.23047ZM3.82396 3.48911V3.86022H3.55969V4.24244H3.23047V4.74244H3.55969V5.12911H3.82396V5.50022H4.13078V5.12911H4.39505V4.74244H4.61453V4.24244H4.39505V3.86022H4.13078V3.48911H3.82396ZM6.31438 4.24022H5.8799V3.858H5.61787V3.48911H5.31552V3.86022H5.05125V4.24244H4.83177V4.74244H5.05125V5.12911H5.31552V5.50022H5.61787V5.12911H5.88214V4.74244H6.31662L6.31438 4.24022ZM3.86203 4.25133H4.08599V4.72466H3.86203V4.25133ZM5.34911 4.25133H5.57307V4.72466H5.34911V4.25133ZM5.26177 12.098V11.8424H5.44766V11.4558H5.69401V11.2224H5.8799V10.8447H6.31438V9.97355H5.8799V10.2247H5.69401V10.5891H5.44766V11.0247H5.09604V10.6336H4.83849V10.3447H4.6526V10.0024H4.40625V9.638H4.22484V9.26688H4.05016V8.88466H3.815V8.37355H4.12854V7.91133H4.46896V7.63355H5.03557V8.03577H4.70635V8.40022H4.92583V8.84688H5.18339V9.238H5.50813V8.84688H5.77688V8.40022H5.9426V8.03577H6.31662V7.34466H5.88214V6.898H5.71641V6.55577H5.56188V6.16466H5.3424V5.778H5.1274V5.52244H4.86984V5.13355H4.5563V5.52022H4.29875V5.77577H4.07927V6.16244H3.86427V6.55577H3.69182V6.89355H3.51714V7.18689H3.23271V9.34911H3.55745V9.71355H3.65151V10.0958H3.89339V10.4669H4.0412V10.7402H4.19573V11.0291H4.45328V11.3113H4.83177V12.1002L5.26177 12.098ZM3.23047 5.49355V6.24022H3.47234V5.49355H3.23047ZM6.31438 5.63355H5.8799V6.16244H6.31438V5.63355ZM6.31438 8.80911H5.8799V9.338H6.31438V8.80911ZM3.24167 10.1491V10.6291H3.47234V10.1491H3.24167ZM3.55969 12.098V11.798H3.70302V11.5647H3.9113V10.8624H3.70302V11.1447H3.48354V11.558H3.24167V12.0913L3.55969 12.098ZM4.41521 12.0936V11.7447H4.18453V12.0936" fill="#CE1720"/>
<path d="M3.47258 24.2525V23.3658H3.2307V24.2525H3.47258ZM0.388672 22.6992H0.823151V23.0525H1.04263V23.4836H1.34945V23.8592H1.60253V24.2503H2.36622V23.8592H2.61258V23.4836H2.9194V23.0525H3.13888V22.6992H3.47258V22.1481H3.13888V21.7947H2.9194V21.3636H2.61258V20.9881H2.36622V20.5858H2.19154V20.2481H1.77497V20.5858H1.60029V20.9881H1.34721V21.3636H1.04039V21.7947H0.820911V22.1481H0.388672V22.6992ZM0.388672 24.0658H0.823151V23.577H0.388672V24.0658ZM2.08852 23.4303H1.86456V23.0992H1.64956V22.6792H1.44128V22.1614H1.64956V21.7414H1.86456V21.4147H2.08852V21.7414H2.30352V22.1614H2.51852V22.6792H2.30352V23.0992H2.08852V23.4303ZM2.11091 22.6725V22.1814H1.84216V22.6725H2.11091ZM0.388672 21.3881H0.823151V20.8592H0.388672V21.3881ZM3.47258 21.3392V20.5925H3.2307V21.3392H3.47258ZM2.87909 20.5103V20.1392H3.14336V19.7569H3.47258V19.2569H3.14336V18.8703H2.87909V18.4992H2.57227V18.8703H2.30799V19.2569H2.08852V19.7569H2.30799V20.1392H2.57227V20.5103H2.87909ZM0.388672 19.7592H0.823151V20.1414H1.08742V20.5103H1.38529V20.1392H1.64956V19.7569H1.86904V19.2569H1.64956V18.8703H1.38529V18.4992H1.08518V18.8703H0.820911V19.2569H0.388672V19.7592ZM2.84102 19.7481H2.61706V19.2747H2.84102V19.7481ZM1.35393 19.7481H1.12997V19.2747H1.35393V19.7481ZM1.44128 11.9014V12.1569H1.25539V12.5436H1.00904V12.7769H0.823151V13.1547H0.388672V14.0258H0.823151V13.7747H1.00904V13.4103H1.25539V12.9747H1.60701V13.3658H1.86456V13.6547H2.05044V13.9969H2.2968V14.3614H2.4782V14.7325H2.65289V15.1147H2.88805V15.6258H2.57451V16.0881H2.23633V16.3658H1.66523V15.9636H1.99445V15.5992H1.77497V15.1525H1.51742V14.7614H1.19492V15.1525H0.926172V15.5992H0.760443V15.9636H0.388672V16.6547H0.823151V17.1014H0.98888V17.4436H1.13893V17.8347H1.35841V18.2214H1.57341V18.477H1.83096V18.8658H2.14451V18.4792H2.40206V18.2236H2.62154V17.837H2.83654V17.4436H3.01122V17.1058H3.18591V16.8125H3.47034V14.6503H3.1456V14.2858H3.05154V13.9036H2.80966V13.5325H2.66185V13.2592H2.50732V12.9703H2.24753V12.6881H1.86904V11.8992L1.44128 11.9014ZM3.47258 18.5058V17.7592H3.2307V18.5058H3.47258ZM0.388672 18.3658H0.823151V17.837H0.388672V18.3658ZM0.388672 15.1903H0.823151V14.6614H0.388672V15.1903ZM3.46138 13.8503V13.3703H3.2307V13.8503H3.46138ZM3.14336 11.9014V12.2014H3.00003V12.4347H2.79174V13.1369H3.00003V12.8547H3.21951V12.4414H3.46138V11.9081L3.14336 11.9014ZM2.2856 11.9058V12.2547H2.51628V11.9058" fill="#CE1720"/>
<path d="M3.23047 24.2525V23.3658H3.47234V24.2525H3.23047ZM6.31438 22.6992H5.8799V23.0525H5.66042V23.4836H5.35359V23.8592H5.10052V24.2503H4.33682V23.8592H4.09047V23.4836H3.78365V23.0525H3.56417V22.6992H3.23047V22.1481H3.56417V21.7947H3.78365V21.3636H4.09047V20.9881H4.33682V20.5858H4.51151V20.2481H4.92359V20.5858H5.09828V20.9881H5.35135V21.3636H5.65818V21.7947H5.87766V22.1481H6.31214L6.31438 22.6992ZM6.31438 24.0658H5.8799V23.577H6.31438V24.0658ZM4.61229 23.4303H4.83625V23.0992H5.05125V22.6792H5.25953V22.1614H5.05125V21.7414H4.83625V21.4147H4.61229V21.7414H4.39729V22.1614H4.18453V22.6792H4.39953V23.0992H4.61453V23.4303H4.61229ZM4.59214 22.6725V22.1814H4.86089V22.6725H4.59214ZM6.31438 21.3881H5.8799V20.8592H6.31438V21.3881ZM3.23047 21.3392V20.5925H3.47234V21.3392H3.23047ZM3.82396 20.5103V20.1392H3.55969V19.7569H3.23047V19.2569H3.55969V18.8703H3.82396V18.4992H4.13078V18.8703H4.39505V19.2569H4.61453V19.7569H4.39505V20.1392H4.13078V20.5103H3.82396ZM6.31438 19.7592H5.8799V20.1414H5.61787V20.5103H5.31552V20.1392H5.05125V19.7569H4.83177V19.2569H5.05125V18.8703H5.31552V18.4992H5.61787V18.8703H5.88214V19.2569H6.31662L6.31438 19.7592ZM3.86203 19.7481H4.08599V19.2747H3.86203V19.7481ZM5.34911 19.7481H5.57307V19.2747H5.34911V19.7481ZM5.26177 11.9014V12.1569H5.44766V12.5436H5.69401V12.7769H5.8799V13.1547H6.31438V14.0258H5.8799V13.7747H5.69401V13.4103H5.44766V12.9747H5.09604V13.3658H4.83849V13.6547H4.6526V13.9969H4.40625V14.3614H4.22484V14.7325H4.05016V15.1147H3.815V15.6258H4.12854V16.0881H4.46896V16.3658H5.03557V15.9636H4.70635V15.5992H4.92583V15.1525H5.18339V14.7614H5.50813V15.1525H5.77688V15.5992H5.9426V15.9636H6.31662V16.6547H5.88214V17.1014H5.71641V17.4436H5.56188V17.8347H5.3424V18.2214H5.1274V18.477H4.86984V18.8658H4.5563V18.4792H4.29875V18.2236H4.07927V17.837H3.86427V17.4436H3.69182V17.1058H3.51714V16.8125H3.23271V14.6503H3.55745V14.2858H3.65151V13.9036H3.89339V13.5325H4.0412V13.2592H4.19573V12.9703H4.45328V12.6881H4.83177V11.8992L5.26177 11.9014ZM3.23047 18.5058V17.7592H3.47234V18.5058H3.23047ZM6.31438 18.3658H5.8799V17.837H6.31438V18.3658ZM6.31438 15.1903H5.8799V14.6614H6.31438V15.1903ZM3.24167 13.8503V13.3703H3.47234V13.8503H3.24167ZM3.55969 11.9014V12.2014H3.70302V12.4347H3.9113V13.1369H3.70302V12.8547H3.48354V12.4414H3.24167V11.9081L3.55969 11.9014ZM4.41521 11.9058V12.2547H4.18453V11.9058" fill="#CE1720"/>
<path d="M6.09375 16.0843H49.723V24.2532H6.09375V16.0843Z" fill="#007C30"/>
</g>
<rect x="0.482031" y="0.15" width="42.7" height="23.7" stroke="#EFEFF8" stroke-width="0.3"/>
<defs>
<clipPath id="clip0_684_38757">
<rect x="0.332031" width="43" height="24" fill="white"/>
</clipPath>
</defs>
</svg>
