<svg width="44" height="24" viewBox="0 0 44 24" fill="none" xmlns="http://www.w3.org/2000/svg">
<g clip-path="url(#clip0_684_45111)">
<path d="M0.867188 -2.30463H44.1135V26.3021H0.867188V-2.30463Z" fill="#CE1126"/>
<path d="M0.867188 -2.30463H15.2834V26.3021H0.867188V-2.30463Z" fill="#007A5E"/>
<path d="M29.6973 -2.30463H44.1135V26.3021H29.6973V-2.30463Z" fill="#FCD116"/>
<path d="M22.5106 8.78229L21.5117 11.829L23.0481 12.3267" fill="#FCD116"/>
<path d="M22.5102 8.78229L23.509 11.829L21.9727 12.3267" fill="#FCD116"/>
<path d="M25.581 10.9954H22.3516V12.5976" fill="#FCD116"/>
<path d="M25.5805 10.9954L22.9669 12.8798L22.0195 11.582" fill="#FCD116"/>
<path d="M24.4083 14.58L23.4094 11.5334L21.873 12.0312" fill="#FCD116"/>
<path d="M24.4105 14.58L21.7969 12.6955L22.7465 11.3978" fill="#FCD116"/>
<path d="M20.6113 14.58L23.2249 12.6955L22.2753 11.3978" fill="#FCD116"/>
<path d="M20.6113 14.58L21.6102 11.5334L23.1465 12.0312" fill="#FCD116"/>
<path d="M19.4395 10.9954L22.053 12.8798L23.0026 11.582" fill="#FCD116"/>
<path d="M19.4395 10.9954H22.6689V12.5976" fill="#FCD116"/>
</g>
<rect x="1.14023" y="0.15" width="42.7" height="23.7" stroke="#EFEFF8" stroke-width="0.3"/>
<defs>
<clipPath id="clip0_684_45111">
<rect x="0.990234" width="43" height="24" fill="white"/>
</clipPath>
</defs>
</svg>
