<svg width="43" height="24" viewBox="0 0 43 24" fill="none" xmlns="http://www.w3.org/2000/svg">
<g clip-path="url(#clip0_684_42645)">
<path d="M43 -0.0445404H0V23.9555H43V-0.0445404Z" fill="#DE2910"/>
<path d="M6.0469 2.35545L8.17899 8.86657L2.5957 4.84434H9.4981L3.91482 8.86879L6.0469 2.35545Z" fill="#FFDE00"/>
<path d="M12.5664 1.25107L12.3648 3.52218L11.1801 1.56662L13.2965 2.45773L11.0547 2.96885L12.5664 1.25107Z" fill="#FFDE00"/>
<path d="M15.3799 3.91984L14.3027 5.9354L13.9757 3.6754L15.577 5.3154L13.3105 4.92429L15.3799 3.91984Z" fill="#FFDE00"/>
<path d="M15.6505 7.9446L13.8409 9.35349L14.4747 7.15793L15.2653 9.30238L13.3594 8.02682L15.6505 7.9446Z" fill="#FFDE00"/>
<path d="M12.5215 9.63113L12.4162 11.9111L11.1509 10.0022L13.3031 10.8067L11.0859 11.4111L12.5215 9.63113Z" fill="#FFDE00"/>
</g>
<rect x="0.15" y="0.15" width="42.7" height="23.7" stroke="#EFEFF8" stroke-width="0.3"/>
<defs>
<clipPath id="clip0_684_42645">
<rect width="43" height="24" fill="white"/>
</clipPath>
</defs>
</svg>
