<svg width="44" height="24" viewBox="0 0 44 24" fill="none" xmlns="http://www.w3.org/2000/svg">
<g clip-path="url(#clip0_684_45125)">
<path d="M0.322266 0H43.3223V24H0.322266V0Z" fill="#003893"/>
<path d="M0.322266 12H43.3223V18H0.322266V12Z" fill="white"/>
<path d="M0.322266 14H43.3223V16H0.322266V14Z" fill="#CF2027"/>
<path d="M16.6826 7.79999L16.3086 8.93999L16.8842 9.12443" fill="#F7D116"/>
<path d="M16.682 7.79999L17.056 8.93999L16.4805 9.12443" fill="#F7D116"/>
<path d="M17.8305 8.62872H16.6211V9.22872" fill="#F7D116"/>
<path d="M17.8306 8.62872L16.8519 9.33317L16.498 8.84872" fill="#F7D116"/>
<path d="M17.3929 9.97112L17.0189 8.83112L16.4434 9.01556" fill="#F7D116"/>
<path d="M17.3928 9.97118L16.4141 9.26673L16.7679 8.78229" fill="#F7D116"/>
<path d="M15.9727 9.97118L16.9514 9.26673L16.5975 8.78229" fill="#F7D116"/>
<path d="M15.9727 9.97112L16.3467 8.83112L16.9222 9.01556" fill="#F7D116"/>
<path d="M15.5332 8.62872L16.5119 9.33317L16.8658 8.84872" fill="#F7D116"/>
<path d="M15.5332 8.62872H16.7426V9.22872" fill="#F7D116"/>
<path d="M16.6826 19.8L16.3086 20.94L16.8842 21.1244" fill="#F7D116"/>
<path d="M16.682 19.8L17.056 20.94L16.4805 21.1244" fill="#F7D116"/>
<path d="M17.8305 20.6287H16.6211V21.2287" fill="#F7D116"/>
<path d="M17.3929 21.9712L17.0189 20.8312L16.4434 21.0156" fill="#F7D116"/>
<path d="M15.9727 21.9712L16.9514 21.2667L16.5975 20.7823" fill="#F7D116"/>
<path d="M15.5332 20.6287L16.5119 21.3332L16.8658 20.8487" fill="#F7D116"/>
<path d="M23.5844 12.7755H22.375V13.3755" fill="#F7D116"/>
<path d="M23.5845 12.7755L22.6058 13.4799L22.252 12.9955" fill="#F7D116"/>
<path d="M23.1429 14.1155L22.7689 12.9755L22.1934 13.1599" fill="#F7D116"/>
<path d="M21.7207 14.1156L22.6994 13.4112L22.3455 12.9268" fill="#F7D116"/>
<path d="M21.2832 12.7755L22.2619 13.4799L22.6158 12.9955" fill="#F7D116"/>
<path d="M22.4365 11.9445L22.0625 13.0845L22.6381 13.269" fill="#F7D116"/>
<path d="M12.0824 16.4842H10.873V17.0842" fill="#F7D116"/>
<path d="M11.6429 17.8242L11.2689 16.6842L10.6934 16.8686" fill="#F7D116"/>
<path d="M10.2207 17.8246L11.1994 17.1202L10.8455 16.6357" fill="#F7D116"/>
<path d="M9.78125 16.4842L10.7599 17.1886L11.1138 16.7042" fill="#F7D116"/>
<path d="M10.9287 15.6555L10.5547 16.7955L11.1303 16.9799" fill="#F7D116"/>
<path d="M20.9457 20.8242L20.5717 19.6842L19.9961 19.8686" fill="#F7D116"/>
<path d="M20.9474 20.8244L19.9688 20.1199L20.3226 19.6355" fill="#F7D116"/>
<path d="M19.5254 20.8244L20.5041 20.1199L20.1502 19.6355" fill="#F7D116"/>
<path d="M19.0859 19.4842L20.0646 20.1886L20.4185 19.7042" fill="#F7D116"/>
<path d="M20.2392 18.6555L19.8652 19.7955L20.4408 19.9799" fill="#F7D116"/>
<path d="M21.3871 19.4842H20.1777V20.0842" fill="#F7D116"/>
<path d="M13.8402 11.1154L13.4662 9.9754L12.8906 10.1598" fill="#F7D116"/>
<path d="M12.418 11.1154L13.3967 10.4109L13.0428 9.92871" fill="#F7D116"/>
<path d="M11.9766 9.77539L12.9553 10.4798L13.3091 9.99539" fill="#F7D116"/>
<path d="M13.126 8.94452L12.752 10.0845L13.3275 10.269" fill="#F7D116"/>
<path d="M14.2797 9.77539H13.0703V10.3754" fill="#F7D116"/>
<path d="M12.418 20.8244L13.3967 20.1199L13.0428 19.6355" fill="#F7D116"/>
<path d="M12.418 20.8242L12.792 19.6842L13.3675 19.8686" fill="#F7D116"/>
<path d="M11.9766 19.4842L12.9553 20.1886L13.3091 19.7042" fill="#F7D116"/>
<path d="M13.126 18.6555L12.752 19.7955L13.3275 19.9799" fill="#F7D116"/>
<path d="M14.2797 19.4842H13.0703V20.0842" fill="#F7D116"/>
<path d="M13.8402 20.8242L13.4662 19.6842L12.8906 19.8686" fill="#F7D116"/>
<path d="M19.5254 11.1156L20.5041 10.4112L20.1502 9.92676" fill="#F7D116"/>
<path d="M19.0859 9.77539L20.0646 10.4798L20.4185 9.99539" fill="#F7D116"/>
<path d="M20.2392 8.94452L19.8652 10.0845L20.4408 10.269" fill="#F7D116"/>
<path d="M21.3871 9.77539H20.1777V10.3754" fill="#F7D116"/>
<path d="M20.9457 11.1154L20.5717 9.9754L19.9961 10.1598" fill="#F7D116"/>
<path d="M9.78125 12.7755L10.7599 13.4799L11.1138 12.9955" fill="#F7D116"/>
<path d="M9.78125 12.7755H10.9906V13.3755" fill="#F7D116"/>
<path d="M10.9287 11.9445L10.5547 13.0845L11.1303 13.269" fill="#F7D116"/>
<path d="M12.0824 12.7755H10.873V13.3755" fill="#F7D116"/>
<path d="M11.6429 14.1155L11.2689 12.9755L10.6934 13.1599" fill="#F7D116"/>
<path d="M10.2207 14.1156L11.1994 13.4112L10.8455 12.9268" fill="#F7D116"/>
<path d="M21.2832 16.4842L22.2619 17.1886L22.6158 16.7042" fill="#F7D116"/>
<path d="M22.4365 15.6555L22.0625 16.7955L22.6381 16.9799" fill="#F7D116"/>
<path d="M23.5844 16.4842H22.375V17.0842" fill="#F7D116"/>
<path d="M23.1429 17.8242L22.7689 16.6842L22.1934 16.8686" fill="#F7D116"/>
<path d="M21.7207 17.8246L22.6994 17.1202L22.3455 16.6357" fill="#F7D116"/>
</g>
<rect x="0.472266" y="0.15" width="42.7" height="23.7" stroke="#EFEFF8" stroke-width="0.3"/>
<defs>
<clipPath id="clip0_684_45125">
<rect x="0.322266" width="43" height="24" fill="white"/>
</clipPath>
</defs>
</svg>
