<svg width="44" height="24" viewBox="0 0 44 24" fill="none" xmlns="http://www.w3.org/2000/svg">
<g clip-path="url(#clip0_684_39021)">
<path d="M44.1155 -2.30475H0.869141V26.3019H44.1155V-2.30475Z" fill="white"/>
<path d="M23.1203 21.8562C23.1158 21.8518 23.1069 21.8518 23.1069 21.8473L23.1024 21.8429C23.0733 21.8184 23.0486 21.7895 23.0263 21.7673C22.9635 21.6962 22.8762 21.5918 22.8001 21.4962C22.65 21.3095 22.5268 21.154 22.5022 21.1207L22.4641 21.074L22.0901 20.9607L21.8169 20.8362L21.9602 20.674L22.4596 20.8895L22.8336 20.9651L23.5257 21.4695C23.5257 21.4695 23.4249 21.5495 23.3286 21.6407C23.286 21.6784 23.2278 21.7318 23.1897 21.774C23.1763 21.794 23.1606 21.8073 23.1472 21.8273C23.136 21.8273 23.1248 21.8407 23.1203 21.8562ZM20.5582 21.094C20.2223 21.0895 19.8908 20.9984 19.6019 20.8273C19.6355 20.7695 19.6826 20.7184 19.7408 20.6784C19.8326 20.6118 20.0006 20.5295 20.2738 20.5295H20.2783C20.6008 20.5295 20.995 20.6384 21.4518 20.854C21.1786 21.0118 20.8718 21.0984 20.5582 21.094ZM19.1473 20.7829C19.0891 20.7829 19.0376 20.7584 18.9928 20.7207C18.9592 20.6829 18.9345 20.634 18.9256 20.5829C18.9122 20.5162 18.9054 20.4495 18.9054 20.3829C18.9301 20.374 18.9525 20.3695 18.9816 20.3629H18.9861C19.107 20.3629 19.2033 20.4673 19.2414 20.5673C19.266 20.614 19.2705 20.6629 19.2548 20.7162C19.2369 20.7584 19.1943 20.7873 19.1473 20.7829ZM21.631 20.4962C20.7956 20.3762 20.444 20.0762 20.2962 19.8473C20.1999 19.7095 20.1574 19.5429 20.1708 19.3695C20.2133 19.3607 20.2581 19.3562 20.3007 19.3562C20.5157 19.3629 21.0823 19.4718 21.631 20.4962ZM19.92 20.334C19.5639 20.334 19.2906 20.2718 19.1137 20.1518C19.0376 20.1051 18.9749 20.0384 18.9368 19.9562C18.9234 19.9273 18.9122 19.894 18.9077 19.8607C19.0286 19.814 19.1518 19.7851 19.2817 19.7851C19.3018 19.7851 19.3198 19.7851 19.3399 19.7851C19.6131 19.7851 20.0319 19.8762 20.4731 20.3007C20.2895 20.3207 20.1036 20.334 19.92 20.334ZM18.1955 20.2673C17.8215 20.2673 17.3019 20.154 16.9794 19.834C17.2235 19.7762 17.4743 19.7429 17.7252 19.734C17.7498 19.734 17.7722 19.734 17.7968 19.734C18.1485 19.734 18.4172 19.8007 18.5986 19.934C18.6456 19.9629 18.686 20.0095 18.7039 20.0673C18.7084 20.1095 18.6904 20.1473 18.6501 20.1673C18.5695 20.2295 18.4239 20.2584 18.2224 20.2629L18.1955 20.2673ZM16.9749 19.6473C16.9279 19.6473 16.8831 19.6273 16.854 19.5895C16.8249 19.5562 16.8114 19.514 16.8002 19.4695C16.7868 19.4118 16.7801 19.3562 16.7868 19.294C16.807 19.2851 16.8249 19.2807 16.845 19.2807C16.8921 19.2807 16.9368 19.3051 16.9704 19.3384C17.0085 19.3718 17.0331 19.414 17.0511 19.4629C17.0712 19.5007 17.0712 19.5495 17.06 19.5873C17.0466 19.6251 17.013 19.6473 16.9749 19.6473ZM19.7901 19.5873C19.7318 19.5873 19.6803 19.5629 19.6355 19.5251C19.6019 19.4873 19.5773 19.4384 19.5683 19.3873C19.5549 19.3207 19.5482 19.254 19.5482 19.1873C19.5728 19.1784 19.5952 19.174 19.6243 19.1673H19.6288C19.7498 19.1673 19.8461 19.2718 19.8841 19.3718C19.9088 19.4184 19.9132 19.4673 19.8976 19.5207C19.8819 19.5629 19.8393 19.5873 19.7901 19.5873ZM18.4217 19.5295C17.6669 19.5007 17.2728 19.2918 17.0757 19.114C16.9951 19.0429 16.9212 18.9518 16.8741 18.8562C16.854 18.8184 16.8405 18.7807 16.8316 18.7429C16.8943 18.7229 16.957 18.714 17.0197 18.714H17.0399C17.2862 18.7095 17.8058 18.8184 18.4217 19.5295ZM19.2436 19.454C18.6344 19.3629 18.2918 19.1007 18.1104 18.9007C18.0006 18.7807 17.9133 18.6384 17.8596 18.4851C17.9223 18.4718 17.985 18.4607 18.0477 18.4607C18.0566 18.4607 18.0611 18.4607 18.0723 18.4607C18.0835 18.4607 18.0925 18.4607 18.1014 18.4607C18.4015 18.4718 18.9547 18.6051 19.2436 19.454ZM16.1194 19.1629C15.9268 19.1629 15.7342 19.1384 15.5438 19.0962C15.2258 19.0162 15.087 18.8962 15.0287 18.8095C15.0041 18.7718 14.9862 18.734 14.9817 18.6895C14.9772 18.6695 14.9772 18.6562 14.9817 18.6362C15.1452 18.5984 15.3132 18.574 15.4856 18.574C15.4946 18.574 15.5102 18.574 15.5192 18.574C15.6581 18.574 15.7924 18.5873 15.9335 18.6118C16.2403 18.674 16.5158 18.8451 16.7062 19.094C16.5091 19.1429 16.312 19.1673 16.1194 19.1629ZM17.5281 18.6562C17.4699 18.6562 17.4184 18.6362 17.3736 18.594C17.34 18.5562 17.3153 18.5073 17.3064 18.4562C17.2929 18.3895 17.2862 18.3229 17.2862 18.2562C17.3109 18.2473 17.3333 18.2429 17.3624 18.2362H17.3668C17.4878 18.2362 17.5841 18.3407 17.6222 18.4407C17.6468 18.4829 17.6468 18.5362 17.6311 18.5829C17.6177 18.6318 17.5751 18.6562 17.5281 18.6562ZM16.4643 18.5095C16.2627 18.4518 16.0701 18.3718 15.8887 18.2607C15.6245 18.0984 15.2975 17.8073 15.2549 17.3651C15.2751 17.3607 15.293 17.3607 15.3176 17.3562C15.3221 17.3562 15.3266 17.3562 15.3311 17.3562C15.4117 17.3562 15.5707 17.3807 15.7678 17.5273C16.0276 17.7184 16.2583 18.0473 16.4643 18.5095ZM17.163 18.4851C16.9996 18.4095 16.845 18.314 16.7062 18.194C16.3501 17.894 16.0769 17.5118 15.9044 17.0829C15.947 17.0629 15.9962 17.0495 16.0433 17.0495C16.0477 17.0495 16.0522 17.0495 16.0567 17.0495C16.0612 17.0495 16.0701 17.0495 16.0813 17.0495C16.1955 17.054 16.3747 17.1029 16.5718 17.3118C16.7913 17.5495 16.9884 17.9473 17.163 18.4851ZM15.3647 18.4318C15.134 18.4318 15.0534 18.3073 15.0287 18.2562C15.0041 18.1984 14.9951 18.1429 14.9996 18.0807C15.0377 18.0718 15.0758 18.0673 15.1138 18.0673H15.1228C15.2773 18.0629 15.4207 18.1295 15.5125 18.2495C15.5259 18.2695 15.5595 18.3295 15.5326 18.3784C15.5102 18.414 15.452 18.4318 15.3647 18.4318ZM14.8518 17.7895C14.6749 17.7895 14.4912 17.7762 14.3188 17.7429C14.1127 17.7051 13.9963 17.534 13.9336 17.3895C13.891 17.294 13.8619 17.194 13.8462 17.0895C14.4845 17.1095 14.7891 17.294 14.928 17.4473C15.0153 17.5384 15.0668 17.6518 15.0825 17.7762C15.0758 17.7784 14.9862 17.7895 14.8518 17.7895ZM15.5147 17.1318C15.5147 17.1318 15.4431 17.0407 15.3714 16.9318C15.2952 16.8184 15.2281 16.694 15.2281 16.594C15.2281 16.4984 15.2034 16.294 15.19 16.1829C15.1698 16.0407 15.1564 15.9206 15.1519 15.9073C15.1653 15.9118 15.5506 16.0562 15.5506 16.4118C15.5506 16.7673 15.5147 17.1251 15.5147 17.1318ZM15.0198 17.0984C15.0153 17.0984 15.0108 17.0984 15.0063 17.0984C14.8921 17.0784 14.695 16.994 14.4733 16.8695C14.2292 16.7318 14.0321 16.5829 13.9157 16.4495C13.8104 16.3295 13.7477 16.1406 13.7275 15.8918C13.7186 15.7784 13.7231 15.6629 13.732 15.5495C13.7522 15.5451 13.7746 15.5406 13.7947 15.5406C13.8821 15.5406 13.9672 15.5784 14.0926 15.6651C14.2023 15.7407 14.3098 15.8318 14.4039 15.9273C14.5248 16.0473 14.639 16.1762 14.7488 16.3095C14.7622 16.334 14.8697 16.5295 14.9548 16.7207C14.9974 16.8073 15.031 16.9029 15.0511 16.9918C15.0601 17.0206 15.0601 17.0495 15.0511 17.0784C15.0466 17.0873 15.0422 17.0918 15.031 17.0984C15.0332 17.0984 15.0243 17.0984 15.0198 17.0984Z" fill="#4E5B31"/>
<path d="M21.8644 21.8562C21.8688 21.8518 21.8778 21.8518 21.8778 21.8473L21.8823 21.8429C21.9114 21.8184 21.936 21.7895 21.9584 21.7673C22.0211 21.6962 22.1085 21.5918 22.1846 21.4962C22.3347 21.3095 22.4578 21.154 22.4825 21.1207L22.5206 21.074L22.8946 20.9607L23.1678 20.8362L23.0245 20.674L22.525 20.8895L22.151 20.9651L21.459 21.4695C21.459 21.4695 21.5598 21.5495 21.6561 21.6407C21.6986 21.6784 21.7569 21.7318 21.7949 21.774C21.8084 21.794 21.824 21.8073 21.8375 21.8273C21.8487 21.8273 21.8599 21.8407 21.8644 21.8562ZM24.4264 21.094C24.7624 21.0895 25.0938 20.9984 25.3827 20.8273C25.3492 20.7695 25.3021 20.7184 25.2439 20.6784C25.1521 20.6118 24.9841 20.5295 24.7109 20.5295H24.7064C24.3839 20.5295 23.9897 20.6384 23.5328 20.854C23.8061 21.0118 24.1129 21.0984 24.4264 21.094ZM25.8374 20.7829C25.8956 20.7829 25.9471 20.7584 25.9919 20.7207C26.0255 20.6829 26.0501 20.634 26.0591 20.5829C26.0725 20.5162 26.0793 20.4495 26.0793 20.3829C26.0546 20.374 26.0322 20.3695 26.0031 20.3629H25.9986C25.8777 20.3629 25.7814 20.4673 25.7433 20.5673C25.7187 20.614 25.7142 20.6629 25.7299 20.7162C25.7478 20.7584 25.7904 20.7873 25.8374 20.7829ZM23.3537 20.4962C24.189 20.3762 24.5407 20.0762 24.6885 19.8473C24.7848 19.7095 24.8273 19.5429 24.8139 19.3695C24.7713 19.3607 24.7265 19.3562 24.684 19.3562C24.469 19.3629 23.9024 19.4718 23.3537 20.4962ZM25.0647 20.334C25.4208 20.334 25.6941 20.2718 25.871 20.1518C25.9471 20.1051 26.0098 20.0384 26.0479 19.9562C26.0613 19.9273 26.0725 19.894 26.077 19.8607C25.9561 19.814 25.8329 19.7851 25.703 19.7851C25.6829 19.7851 25.6649 19.7851 25.6448 19.7851C25.3716 19.7851 24.9527 19.8762 24.5115 20.3007C24.6952 20.3207 24.8811 20.334 25.0647 20.334ZM26.7892 20.2673C27.1632 20.2673 27.6828 20.154 28.0053 19.834C27.7612 19.7762 27.5104 19.7429 27.2595 19.734C27.2349 19.734 27.2125 19.734 27.1879 19.734C26.8362 19.734 26.5675 19.8007 26.3861 19.934C26.3391 19.9629 26.2987 20.0095 26.2808 20.0673C26.2763 20.1095 26.2943 20.1473 26.3346 20.1673C26.4152 20.2295 26.5608 20.2584 26.7623 20.2629L26.7892 20.2673ZM28.0098 19.6473C28.0568 19.6473 28.1016 19.6273 28.1307 19.5895C28.1598 19.5562 28.1733 19.514 28.1845 19.4695C28.1979 19.4118 28.2046 19.3562 28.1979 19.294C28.1778 19.2851 28.1598 19.2807 28.1397 19.2807C28.0927 19.2807 28.0479 19.3051 28.0143 19.3384C27.9762 19.3718 27.9516 19.414 27.9336 19.4629C27.9135 19.5007 27.9135 19.5495 27.9247 19.5873C27.9381 19.6251 27.9717 19.6473 28.0098 19.6473ZM25.1946 19.5873C25.2529 19.5873 25.3044 19.5629 25.3492 19.5251C25.3827 19.4873 25.4074 19.4384 25.4163 19.3873C25.4298 19.3207 25.4365 19.254 25.4365 19.1873C25.4119 19.1784 25.3895 19.174 25.3604 19.1673H25.3559C25.2349 19.1673 25.1386 19.2718 25.1006 19.3718C25.0759 19.4184 25.0714 19.4673 25.0871 19.5207C25.1028 19.5629 25.1454 19.5873 25.1946 19.5873ZM26.563 19.5295C27.3178 19.5007 27.7119 19.2918 27.909 19.114C27.9896 19.0429 28.0635 18.9518 28.1106 18.8562C28.1307 18.8184 28.1442 18.7807 28.1531 18.7429C28.0904 18.7229 28.0277 18.714 27.965 18.714H27.9448C27.6985 18.7095 27.1789 18.8184 26.563 19.5295ZM25.7478 19.454C26.357 19.3629 26.6996 19.1007 26.881 18.9007C26.9908 18.7807 27.0781 18.6384 27.1319 18.4851C27.0692 18.4718 27.0065 18.4607 26.9437 18.4607C26.9348 18.4607 26.9303 18.4607 26.9191 18.4607C26.9102 18.4607 26.899 18.4607 26.89 18.4607C26.5832 18.4718 26.03 18.6051 25.7478 19.454ZM28.8698 19.1629C29.0624 19.1629 29.255 19.1384 29.4454 19.0962C29.7634 19.0162 29.9022 18.8962 29.9605 18.8095C29.9851 18.7718 30.003 18.734 30.0075 18.6895C30.012 18.6695 30.012 18.6562 30.0075 18.6362C29.844 18.5984 29.676 18.574 29.5036 18.574C29.4946 18.574 29.479 18.574 29.47 18.574C29.3311 18.574 29.1968 18.5873 29.0557 18.6118C28.7489 18.674 28.4734 18.8451 28.283 19.094C28.4756 19.1429 28.6727 19.1673 28.8698 19.1629ZM27.4566 18.6562C27.5148 18.6562 27.5664 18.6362 27.6111 18.594C27.6447 18.5562 27.6694 18.5073 27.6783 18.4562C27.6918 18.3895 27.6985 18.3229 27.6985 18.2562C27.6739 18.2473 27.6515 18.2429 27.6223 18.2362H27.6179C27.4969 18.2362 27.4006 18.3407 27.3625 18.4407C27.3379 18.4829 27.3379 18.5362 27.3536 18.5829C27.367 18.6318 27.4096 18.6562 27.4566 18.6562ZM28.5204 18.5095C28.722 18.4518 28.9146 18.3718 29.096 18.2607C29.3603 18.0984 29.6872 17.8073 29.7298 17.3651C29.7096 17.3607 29.6917 17.3607 29.6671 17.3562C29.6626 17.3562 29.6581 17.3562 29.6536 17.3562C29.573 17.3562 29.414 17.3807 29.2169 17.5273C28.9571 17.7184 28.7265 18.0473 28.5204 18.5095ZM27.8217 18.4851C27.9852 18.4095 28.1397 18.314 28.2785 18.194C28.6346 17.894 28.9079 17.5118 29.0803 17.0829C29.0378 17.0629 28.9885 17.0495 28.9415 17.0495C28.937 17.0495 28.9325 17.0495 28.928 17.0495C28.9235 17.0495 28.9146 17.0495 28.9034 17.0495C28.7892 17.054 28.61 17.1029 28.4129 17.3118C28.1934 17.5495 27.9964 17.9473 27.8217 18.4851ZM29.6201 18.4318C29.8507 18.4318 29.9314 18.3073 29.956 18.2562C29.9806 18.1984 29.9896 18.1429 29.9851 18.0807C29.947 18.0718 29.909 18.0673 29.8709 18.0673H29.8619C29.7074 18.0629 29.5641 18.1295 29.4722 18.2495C29.4588 18.2695 29.4252 18.3295 29.4521 18.3784C29.4745 18.414 29.5327 18.4318 29.6201 18.4318ZM30.1329 17.7895C30.3099 17.7895 30.4935 17.7762 30.6659 17.7429C30.872 17.7051 30.9884 17.534 31.0512 17.3895C31.0937 17.294 31.1228 17.194 31.1385 17.0895C30.5002 17.1095 30.1956 17.294 30.0568 17.4473C29.9694 17.5384 29.9179 17.6518 29.9022 17.7762C29.909 17.7784 29.9985 17.7895 30.1329 17.7895ZM29.47 17.1318C29.47 17.1318 29.5417 17.0407 29.6133 16.9318C29.6895 16.8184 29.7567 16.694 29.7567 16.594C29.7567 16.4984 29.7813 16.294 29.7947 16.1829C29.8149 16.0407 29.8283 15.9206 29.8328 15.9073C29.8194 15.9118 29.4342 16.0562 29.4342 16.4118C29.4342 16.7673 29.47 17.1251 29.47 17.1318ZM29.965 17.0984C29.9694 17.0984 29.9739 17.0984 29.9784 17.0984C30.0926 17.0784 30.2897 16.994 30.5114 16.8695C30.7555 16.7318 30.9526 16.5829 31.0691 16.4495C31.1743 16.3295 31.237 16.1406 31.2572 15.8918C31.2662 15.7784 31.2617 15.6629 31.2527 15.5495C31.2326 15.5451 31.2102 15.5406 31.19 15.5406C31.1027 15.5406 31.0176 15.5784 30.8921 15.6651C30.7824 15.7407 30.6749 15.8318 30.5808 15.9273C30.4599 16.0473 30.3457 16.1762 30.2359 16.3095C30.2225 16.334 30.115 16.5295 30.0299 16.7207C29.9873 16.8073 29.9538 16.9029 29.9336 16.9918C29.9246 17.0206 29.9246 17.0495 29.9336 17.0784C29.9381 17.0873 29.9426 17.0918 29.9538 17.0984C29.9515 17.0984 29.9605 17.0984 29.965 17.0984Z" fill="#4E5B31"/>
<path d="M35.8053 2.65533L35.6911 2.69756L35.6485 2.71756L35.5097 2.70867L35.3798 2.77089L35.1536 2.92422L35.1446 2.93311L35.0573 2.95756L34.9811 2.92422L34.9386 2.94422L34.9251 3.03533L34.8826 3.102L34.8288 3.13978L34.6452 3.15978L34.4907 3.23533L34.2891 3.182L34.1973 3.21978L34.0002 3.39533L33.8994 3.442H33.8658L33.7314 3.43756L33.6732 3.45756L33.5859 3.53756L33.4268 3.55089L33.3798 3.58422L33.3037 3.742L33.2163 3.82867L33.1693 3.83756L33.1155 3.81756L33.0775 3.822L33.0573 3.922L33.0192 3.96422L32.914 4.002L32.8266 4.07311L32.7505 4.11089L32.6497 4.10645H32.6251L32.5243 4.15978L32.3362 4.17311L32.26 4.24422L32.2399 4.25756L32.2018 4.282L32.1436 4.31533L32.1301 4.32422L32.0585 4.31089L31.9711 4.34422L31.9375 4.29089L31.8793 4.32422L31.8032 4.32867L31.7068 4.28645L31.6352 4.25311L31.5814 4.262L31.5613 4.35311V4.362L31.503 4.43756L31.3978 4.49978L31.3843 4.51978L31.2634 4.67311L31.0372 4.91089L30.8446 5.00645L30.6475 5.06867L30.5087 5.182L30.1436 5.36422L29.568 5.65089L29.4471 5.68867L29.2791 5.71756L28.9768 5.82645L28.7125 5.90644L28.6991 5.91089L28.6453 5.92422L28.2713 6.03756L28.0989 6.01756L27.9936 6.05533L27.7249 6.02645L27.5367 6.03089L27.4158 6.05533L27.1941 6.15978L26.8201 6.342L26.6947 6.45533L26.5021 6.55533L26.2759 6.62645V6.53089V6.52645L26.1997 6.55089L26.1415 6.57089L25.9578 6.59978H25.8571L25.7943 6.57978L25.7854 6.58422L25.4114 6.70867L24.9926 6.74645L24.7821 6.81311L24.623 6.80867L24.5267 6.83756L24.3341 6.862L24.267 6.842L24.2535 6.83756L23.6869 6.862L23.4271 6.83311L23.3017 6.862L23.0957 6.79533L22.7933 6.762L22.7216 6.742L22.5626 6.69533L22.491 6.73756L22.4372 6.742L22.3073 6.69533H22.2603L22.155 6.73311L22.108 6.69978L22.0498 6.65756L21.9154 6.63756L21.8348 6.57089L21.3824 6.62867L21.257 6.59089L20.8426 6.47089L20.7754 6.47533L20.6948 6.53756L20.5739 6.57978L20.4686 6.60867L20.3253 6.61311L20.1573 6.57089L19.9849 6.49089L19.9222 6.47756L19.7788 6.49089L19.7363 6.49533L19.472 6.35756L19.1361 6.14867L18.9054 6.03978L18.818 6.02645L18.8091 6.06867L18.8516 6.202L18.8651 6.33533L18.8606 6.45978V6.53533L18.8808 6.602L18.9614 6.69311L18.995 6.78422L19.0196 7.03756V7.29533L18.9815 7.70644L18.9681 7.76867L18.9211 7.97756L18.8785 8.17311L18.7105 8.68867L18.6635 8.75089L18.5493 8.82645L18.2895 9.002L18.0969 9.11089L18.0342 9.13533H17.8841L17.7878 9.13089L17.6669 9.06422L17.546 9.03533L17.3914 8.92645L17.219 8.89311L17.0309 8.78422L16.9838 8.72645L16.883 8.71756L16.7397 8.67533L16.686 8.662L16.6479 8.65311L16.4642 8.64867L16.2963 8.57311L16.2045 8.55311L16.0835 8.54867L15.9536 8.60644L15.8864 8.63533L15.8058 8.602L15.7476 8.60644L15.6804 8.70644L15.6714 8.71978L15.6244 8.74422H15.5662H15.5236L15.4766 8.76422L15.4094 8.79311L15.3512 8.81756L15.3221 8.83089L15.3019 8.83533L15.2728 8.83978L15.2347 8.84867L15.1675 8.81089L15.1295 8.79089L15.0667 8.77756L15.0332 8.802L15.0287 8.91089L14.9996 8.97756L14.9033 9.05756L14.807 9.14422L14.7398 9.23978L14.5628 9.63978L14.4531 9.802L14.4195 9.83978L14.3053 9.96867L14.2045 10.0487L13.9693 10.2309L13.7432 10.3109L13.5505 10.3487H13.4542L13.2773 10.3242L13.1183 10.2776L12.9459 10.1687L12.7533 10.0153L12.4755 9.74422L12.4375 9.71978L12.4285 9.71533L12.3412 9.65756H12.274L12.2493 9.69978L12.2359 9.762L12.227 9.81533L12.1934 10.1198V10.1398L12.2068 10.2642L12.4173 10.5553L12.4845 10.7131L12.4935 10.7331L12.536 10.8042L12.5696 10.862L12.5741 10.8664L12.6458 11.082L12.592 11.202L12.6166 11.282L12.5539 11.3287L12.545 11.3998L12.7376 11.6376L12.7801 11.742L12.7331 11.8842L12.6614 11.9642L12.6413 11.9887L12.6502 12.0509L12.7376 12.1264L12.8876 12.2598L12.9638 12.4553L13.0265 12.5087L13.0982 12.4953L13.1362 12.5242H13.1945L13.2527 12.582L13.2908 12.602L13.349 12.6309L13.396 12.6931L13.405 12.8798L13.4923 13.1131V13.2376V13.2576L13.5461 13.3487L13.5662 13.4198L13.5371 13.6153L13.6043 13.6776L13.6804 13.6642L13.7275 13.6731L13.8036 13.7398L13.8999 13.882L13.9917 13.8687L14.05 13.8976L14.3344 14.1509L14.3971 14.1842H14.4016L14.4486 14.2087L14.5068 14.2664L14.5987 14.2087H14.6076L14.7039 14.1998L14.7465 14.2287L14.8271 14.282H14.9324L15.163 14.3531L15.2638 14.3776L15.4699 14.502L15.5572 14.5553L15.611 14.5976L15.6782 14.6553L15.8125 14.7131L15.9267 14.742L15.9895 14.7553L16.0365 14.7753V14.7709V14.7753L16.2918 14.8709L16.4307 14.9042L16.5561 14.9509L16.6479 14.9842H16.7151L16.8114 14.9042L16.9032 14.8998L16.9793 14.9198L17.0555 14.9064L17.1764 14.8353L17.2011 14.802L17.2884 14.7642L17.5728 14.7309L17.6535 14.7598L17.8707 14.6687L18.014 14.7064L18.1395 14.6642L18.4172 14.7264L18.4888 14.7798L18.5695 14.8753H18.5784H18.6702L18.6322 14.9376L18.7531 15.062L18.8628 15.2242L18.8718 15.2487L18.9524 15.482L19.0107 15.562L19.0532 15.6753V15.7509L18.9905 15.7976L18.9815 15.8264L18.9771 15.8353L18.9905 15.8687L19.0151 15.8553L19.0622 15.8309L19.1204 15.822L19.2212 15.8309L19.2884 15.8353L19.3936 15.782L19.4608 15.7487L19.5705 15.7953H19.6915L19.7452 15.8198L19.8886 15.8864L19.9602 15.8909L19.9893 15.8709L20.0095 15.8287L20.0005 15.782L19.9423 15.7198L19.8214 15.582L19.7743 15.5109L19.7363 15.4064L19.7273 15.2731L19.7184 15.182L19.7318 15.062L19.7654 15.0198L19.79 14.9242L19.7945 14.8998L19.8617 14.8087L20.0386 14.6953L20.2312 14.5242L20.3858 14.4242L20.5448 14.3576L20.5492 14.3376L20.5694 14.342L20.968 14.2087H20.9725L21.1495 14.1798L22.3454 14.2664L22.3879 14.2531L22.426 14.1442L22.4462 14.1242L22.4596 14.1109L22.5895 14.0531L22.6522 14.0442L22.8247 14.0864L22.8963 14.1064L23.0061 14.0442H23.0867L23.2502 13.9531L23.351 13.9576L23.389 13.9442L23.5861 13.802L23.7787 13.7487L23.8258 13.7242L23.8459 13.7153L24.043 13.6153L24.1684 13.5198L24.2737 13.462L24.3879 13.4331L24.6947 13.4131L24.7574 13.3131L24.8873 13.2931L24.9679 13.202L25.0598 13.1642L25.127 13.0687L25.1807 12.9931L25.2568 12.9509L25.501 12.9376L25.7899 12.9709L25.8279 12.9464L25.8951 12.7131L25.9623 12.6709L26.1504 12.4042V12.3087V12.2287L26.1796 12.1153L26.1594 11.9064L26.184 11.6976L26.2983 11.4309L26.399 11.322L26.5625 11.2131L26.6432 11.1753L26.7574 11.1553L26.7775 11.1509L26.8066 11.1464L27.2098 11.142C27.2142 11.1376 27.3598 11.142 27.3598 11.142H27.4942L27.8346 11.2042L27.8592 11.2087L27.9735 11.2464L28.1078 11.3509L28.2467 11.4887L28.2758 11.5131L28.3676 11.5509L28.3967 11.5642L28.4729 11.5509L28.5782 11.4931L28.6588 11.4264L28.7685 11.3642L28.773 11.3598L28.8357 11.2687L28.8603 11.2309L29.0709 11.1509L29.3217 11.1376L29.3508 11.1242L29.3642 11.1153L29.4314 11.0398H29.4941L29.6442 11.0931L29.7495 11.0731L29.8368 11.1064L29.904 11.0976L30.0294 11.0842L30.1638 11.1753L30.2399 11.1842L30.5131 11.342H30.5266H30.5355L30.549 11.3464L30.5826 11.3376L30.6296 11.3242H30.6341L30.6386 11.3331L30.6677 11.3753L30.7102 11.3798L30.7573 11.3131L30.7371 11.2842L30.7282 11.2753L30.6318 11.2553L30.5445 11.1064L30.6251 11.0153L30.4952 10.8576L30.4706 10.8287L30.4616 10.8198L30.4191 10.7531L30.1929 10.4109L29.895 10.1776L29.7898 10.0976L29.7517 10.0687L29.5927 9.90644L29.4785 9.75756L29.465 9.72422L29.4404 9.67089L29.3732 9.522L29.2523 9.43089L29.156 9.32645L29.1515 9.322L28.9544 9.05533L28.9208 9.01311L28.8738 8.98422H28.773V8.922L28.7685 8.91756L28.773 8.91311L28.82 8.86644L28.8738 8.85311L28.8984 8.79978L28.7976 8.50867V8.49978L28.7887 8.40867L28.8693 7.98422L28.8783 7.93089L29.0171 7.64422L29.1045 7.57311L29.2008 7.38644L29.2814 7.26645L29.3575 7.19089L29.371 7.182L29.5098 7.09533L29.6308 7.082L29.7405 7.06867L29.9376 7.13089L30.1257 7.12645L30.1638 7.122L30.2511 7.11311L30.39 7.07089L30.4572 7.03311L30.4908 6.97978L30.5624 6.742L30.5871 6.66644L30.6296 6.58644L30.8849 6.29533L31.0775 6.11978L31.5098 5.80422L31.7203 5.67978L31.83 5.61756L32.7953 5.19311L33.0461 4.93978L33.176 4.80645L33.4067 4.65311L33.6754 4.54422L33.9106 4.362L33.9643 4.29978L34.0271 4.09533L34.0808 4.082L34.1278 3.97756L34.1413 3.94867L34.3339 3.81533L34.354 3.80645L35.0931 3.43978L35.1984 3.45311L35.2566 3.36645L35.4738 3.32867L35.5119 3.32422L35.5657 3.29533L35.6082 3.21978V3.20645L35.6127 3.002L35.6597 2.94422L35.6843 2.81089L35.709 2.77756L35.7336 2.74422L35.7963 2.702L35.8053 2.65533Z" fill="#D57800"/>
</g>
<rect x="1.14219" y="0.15" width="42.7" height="23.7" stroke="#EFEFF8" stroke-width="0.3"/>
<defs>
<clipPath id="clip0_684_39021">
<rect x="0.992188" width="43" height="24" fill="white"/>
</clipPath>
</defs>
</svg>
