<svg width="44" height="24" viewBox="0 0 44 24" fill="none" xmlns="http://www.w3.org/2000/svg">
<g clip-path="url(#clip0_684_45067)">
<path d="M0.0234375 -0.348938H44.2709V24.3466H0.0234375V-0.348938Z" fill="white"/>
<path d="M0.0234375 -0.348938H22.1483V24.3466H0.0234375V-0.348938Z" fill="#006233"/>
<path d="M27.5421 8.91328C25.8243 5.95995 22.0192 4.94883 19.0428 6.65328C16.0664 8.35772 15.0452 12.1333 16.7652 15.0866C18.4852 18.0399 22.288 19.0511 25.2644 17.3466C26.2095 16.8044 26.9956 16.0244 27.5421 15.0866C25.8243 17.2155 22.6911 17.5599 20.5456 15.8555C18.4001 14.1511 18.0529 11.0422 19.7707 8.91328C21.4885 6.78439 24.6216 6.43995 26.7672 8.14439C27.0538 8.37106 27.3136 8.62884 27.5421 8.91328ZM27.7503 11.9999L22.1491 10.1888L25.6339 14.9222V9.07772L22.1491 13.8111L27.7503 11.9999Z" fill="#D21034"/>
</g>
<rect x="0.798438" y="0.15" width="42.7" height="23.7" stroke="#EFEFF8" stroke-width="0.3"/>
<defs>
<clipPath id="clip0_684_45067">
<rect x="0.648438" width="43" height="24" fill="white"/>
</clipPath>
</defs>
</svg>
