<svg width="43" height="24" viewBox="0 0 43 24" fill="none" xmlns="http://www.w3.org/2000/svg">
<g clip-path="url(#clip0_684_45218)">
<path d="M0 0H43V24H0V0Z" fill="black"/>
<path d="M0 0H43V16H0V0Z" fill="white"/>
<path d="M0 0H43V8H0V0Z" fill="#CE1126"/>
<path d="M21.5311 12.0954L24.2926 14.6399L24.0955 10.0199C24.0664 9.31987 23.455 9.47987 23.007 9.73098C22.5546 10.0199 22.0395 10.0199 21.4998 9.82654C20.9556 10.0154 20.4405 10.0154 19.9926 9.73098C19.5491 9.47987 18.9332 9.31987 18.9041 10.0199L18.707 14.6399L21.5311 12.0954Z" fill="white"/>
<path d="M24.2924 14.6645C24.2834 14.6645 24.2812 14.6601 24.2767 14.6556L21.531 12.1289L18.7225 14.6556C18.7136 14.6645 18.7024 14.6645 18.6934 14.6601C18.6845 14.6556 18.6777 14.6489 18.6777 14.6356L18.8748 10.0156C18.8838 9.78005 18.9599 9.62005 19.101 9.5445C19.3787 9.39339 19.8222 9.60894 19.9991 9.70894C20.4134 9.97339 20.9151 10.0045 21.4862 9.8045C21.4907 9.8045 21.4974 9.8045 21.5018 9.8045C22.0752 10.0045 22.5746 9.97339 22.9889 9.70894C23.1659 9.60894 23.6093 9.38894 23.887 9.54005C24.0281 9.61561 24.1042 9.77561 24.1132 10.0112L24.3103 14.6312C24.3103 14.6423 24.3058 14.6512 24.2946 14.6556C24.3013 14.6645 24.2969 14.6645 24.2924 14.6645ZM19.3339 9.5445C19.2623 9.5445 19.1884 9.55561 19.1279 9.59339C19.0025 9.66228 18.9353 9.8045 18.9263 10.0245L18.7337 14.5845L21.5153 12.0801C21.5242 12.0712 21.5399 12.0712 21.5511 12.0801L24.2677 14.5801L24.0751 10.0245C24.0662 9.80894 23.999 9.66005 23.8736 9.59339C23.6205 9.45339 23.1972 9.66228 23.027 9.75783C22.6037 10.0267 22.0909 10.0623 21.5041 9.86228C20.9196 10.0623 20.4067 10.0312 19.9812 9.75783C19.8468 9.6845 19.5736 9.5445 19.3339 9.5445Z" fill="#C09300"/>
<path d="M19.2218 9.86011L19.0315 14.3512L18.709 14.6401L18.9061 10.0201C18.9957 9.95566 19.1569 9.86011 19.2218 9.86011ZM19.6093 10.1801L19.448 13.9401L19.1255 14.269L19.3226 9.929C19.3831 9.99122 19.5735 10.149 19.6093 10.1801ZM19.9587 10.469L19.8288 13.6046L19.5667 13.8557L19.728 10.2801C19.7974 10.3401 19.9273 10.4312 19.9587 10.469ZM20.3416 10.629L20.2117 13.3001L19.9587 13.5046L20.0886 10.5334C20.1535 10.5601 20.2789 10.629 20.3416 10.629ZM20.6977 10.629L20.6037 12.8557L20.3416 13.1068L20.4379 10.6557C20.5029 10.6557 20.6641 10.6557 20.6977 10.629Z" fill="#C09300"/>
<path d="M23.7767 9.86011L23.967 14.3512L24.2895 14.6401L24.0924 10.0201C24.0029 9.95566 23.8416 9.86011 23.7767 9.86011ZM23.3892 10.1801L23.5505 13.9401L23.873 14.269L23.6759 9.929C23.6154 9.99122 23.4251 10.149 23.3892 10.1801ZM23.0398 10.469L23.1697 13.6046L23.4318 13.8557L23.2705 10.2801C23.2011 10.3401 23.0712 10.4312 23.0398 10.469ZM22.6569 10.629L22.7868 13.3001L23.0398 13.5046L22.9099 10.5334C22.845 10.5601 22.7196 10.629 22.6569 10.629ZM22.3008 10.629L22.3926 12.8579L22.6546 13.109L22.5583 10.6579C22.4956 10.6557 22.3344 10.6557 22.3008 10.629Z" fill="#C09300"/>
<path d="M21.6291 12.6046L22.0143 14.3557L21.8845 14.4846L21.7523 14.3891L21.5306 12.8291L21.6224 14.3891L21.4925 14.5491L21.3626 14.3891L21.4545 12.8291L21.2327 14.3891L21.1006 14.4846L20.9707 14.3557L21.3582 12.6046H21.6291Z" fill="#C09300"/>
<path d="M21.499 14.5757L21.349 14.3868L21.4094 13.3557L21.2638 14.3957L21.1071 14.5068L20.957 14.3579L21.3512 12.5779H21.6423L22.0365 14.3579L21.8864 14.5068L21.7297 14.3957L21.5886 13.3557L21.6491 14.3868L21.499 14.5757ZM21.3937 14.3757L21.499 14.5068L21.6043 14.3757L21.5124 12.8245L21.5572 12.8201L21.7745 14.3712L21.8842 14.4512L21.9895 14.3468L21.6065 12.6268H21.3848L21.0018 14.3468L21.1071 14.4512L21.2168 14.3712L21.4341 12.8201L21.4788 12.8245L21.3937 14.3757Z" fill="#C09300"/>
<path d="M20.6337 11.8312L19.8633 14.5401L20.9226 14.7001L21.375 12.6645L20.6337 11.8312Z" fill="white"/>
<path d="M20.9252 14.7289C20.9207 14.7289 20.9207 14.7289 20.9252 14.7289L19.8659 14.5689C19.8569 14.5689 19.8547 14.5644 19.8502 14.5578C19.8457 14.5533 19.8457 14.5467 19.8457 14.5378L20.6161 11.8289C20.6206 11.82 20.6251 11.8133 20.6318 11.8133C20.6408 11.8089 20.6475 11.8133 20.6564 11.8222L21.3977 12.6533C21.4022 12.6578 21.4067 12.6644 21.4022 12.6733L20.9498 14.7089C20.9453 14.72 20.9319 14.7289 20.9252 14.7289ZM19.8927 14.5244L20.9005 14.6755L21.344 12.6711L20.643 11.88L19.8927 14.5244Z" fill="#C09300"/>
<path d="M20.4719 13.0088H20.4674C20.4585 13.0088 20.4518 12.9999 20.4473 12.9933L20.3555 12.7688L20.4047 12.7488L20.4809 12.9377L20.9534 12.4888L20.9893 12.5244L20.4876 12.9999C20.4831 13.0044 20.4764 13.0088 20.4719 13.0088Z" fill="#C09300"/>
<path d="M20.9969 14.36L20.8961 13.8889L20.69 14.2089C20.6856 14.2178 20.6744 14.22 20.6654 14.22C20.6564 14.22 20.6497 14.2111 20.6452 14.2045L20.5355 13.8734L20.3339 14.2045C20.3295 14.2134 20.3183 14.2156 20.3093 14.2156C20.2981 14.2156 20.2892 14.2067 20.2892 14.1956L20.1189 13.5845C20.1145 13.5756 20.1189 13.5689 20.1279 13.56L20.4594 13.2245C20.4683 13.2156 20.475 13.2156 20.484 13.2156C20.493 13.22 20.4997 13.2245 20.5042 13.2311L20.5937 13.5467L20.7998 13.2711C20.8087 13.2623 20.8155 13.26 20.8289 13.2623C20.8378 13.2667 20.8446 13.2734 20.849 13.2823L20.9386 13.7578L21.1603 13.4267L21.0282 12.9756L20.867 13.1845C20.858 13.1934 20.8513 13.1956 20.8378 13.1934C20.8267 13.1889 20.8222 13.1823 20.8177 13.1734L20.7124 12.2023L20.7639 12.1978L20.8602 13.1089L21.138 12.7445L21.1783 12.7756L21.0618 12.9267L21.1917 13.3711L21.2522 13.28L21.297 13.3089L21.2119 13.4378L21.232 13.5067L21.1827 13.5223L21.1738 13.4934L20.9476 13.8334L21.0573 14.3489L20.9969 14.36ZM20.5422 13.7845C20.5534 13.7845 20.5624 13.7934 20.5669 13.8L20.6766 14.1311L20.8826 13.8156L20.7975 13.3467L20.596 13.6156C20.5915 13.6245 20.5803 13.6267 20.5713 13.6245C20.5624 13.6245 20.5557 13.6156 20.5512 13.6045L20.4594 13.28L20.1682 13.5711L20.3183 14.1111L20.5198 13.7823C20.5243 13.7889 20.5333 13.7845 20.5422 13.7845Z" fill="#C09300"/>
<path d="M20.7332 14.7113L20.6235 14.3802L20.4622 14.6513C20.4578 14.6602 20.4466 14.6624 20.4376 14.6624C20.4264 14.6624 20.4174 14.6535 20.4174 14.6468L20.292 14.238L20.1106 14.4935L20.0703 14.4646L20.2831 14.1691C20.2876 14.1602 20.2988 14.158 20.3077 14.158C20.3167 14.158 20.3234 14.1668 20.3279 14.1735L20.4488 14.578L20.6101 14.3068C20.6145 14.298 20.6257 14.2957 20.6347 14.2957C20.6436 14.2957 20.6548 14.3046 20.6548 14.3113L20.7847 14.6957L20.7332 14.7113Z" fill="#C09300"/>
<path d="M22.3663 11.8312L23.1367 14.5401L22.0774 14.7001L21.625 12.6645L22.3663 11.8312Z" fill="white"/>
<path d="M22.0747 14.729C22.0635 14.729 22.0545 14.7201 22.0501 14.709L21.5977 12.6734C21.5977 12.6645 21.5977 12.6579 21.6021 12.6534L22.3434 11.8223C22.3479 11.8134 22.3591 11.8134 22.3681 11.8134C22.377 11.8134 22.3838 11.8223 22.3838 11.829L23.1542 14.5379C23.1542 14.5468 23.1542 14.549 23.1497 14.5579C23.1452 14.5623 23.1407 14.5668 23.134 14.569L22.0747 14.729C22.0792 14.729 22.0792 14.729 22.0747 14.729ZM21.6514 12.6712L22.0948 14.6756L23.1027 14.5245L22.3524 11.8845L21.6514 12.6712Z" fill="#C09300"/>
<path d="M22.5288 13.009C22.5198 13.009 22.5176 13.0046 22.5131 13.0001L22.0137 12.529L22.0495 12.4935L22.522 12.9424L22.5982 12.7535L22.6475 12.7735L22.5556 12.9979C22.5512 13.0068 22.5444 13.009 22.5355 13.0135C22.5332 13.009 22.5332 13.009 22.5288 13.009Z" fill="#C09300"/>
<path d="M22.0038 14.36L21.9545 14.3489L22.0642 13.8334L21.838 13.4934L21.8291 13.5223L21.7798 13.5067L21.7999 13.4378L21.7148 13.3089L21.7596 13.28L21.8201 13.3711L21.95 12.9267L21.8335 12.7756L21.8739 12.7445L22.1516 13.1089L22.2479 12.1978L22.2994 12.2023L22.1941 13.1734C22.1941 13.1845 22.1852 13.1934 22.174 13.1934C22.1628 13.1934 22.1538 13.1934 22.1448 13.1845L21.9836 12.9756L21.8515 13.4267L22.0732 13.7578L22.1628 13.2823C22.1628 13.2734 22.1717 13.2667 22.1829 13.2623C22.1919 13.2578 22.2031 13.2623 22.212 13.2711L22.4181 13.5467L22.5077 13.2311C22.5121 13.2223 22.5166 13.2156 22.5278 13.2156C22.5368 13.2111 22.548 13.2156 22.5524 13.2245L22.8839 13.56C22.8929 13.5689 22.8929 13.5756 22.8929 13.5845L22.7227 14.1956C22.7182 14.2045 22.7115 14.2111 22.7025 14.2156C22.6913 14.2156 22.6823 14.2111 22.6779 14.2045L22.4763 13.8734L22.3666 14.2045C22.3621 14.2134 22.3554 14.22 22.3464 14.22C22.3374 14.22 22.3263 14.2156 22.3218 14.2089L22.1157 13.8889L22.0038 14.36ZM22.1202 13.8156L22.3263 14.1311L22.436 13.8C22.4405 13.7911 22.4472 13.7845 22.4561 13.7845C22.4651 13.7845 22.4763 13.7889 22.4808 13.7956L22.6823 14.1245L22.8324 13.5845L22.5413 13.2934L22.4494 13.6178C22.4449 13.6267 22.4382 13.6334 22.4293 13.6378C22.4203 13.6378 22.4091 13.6334 22.4046 13.6289L22.2031 13.36L22.1202 13.8156Z" fill="#C09300"/>
<path d="M22.2661 14.7113L22.2168 14.6957L22.3467 14.3113C22.3512 14.3024 22.3579 14.2957 22.3668 14.2957C22.378 14.2957 22.387 14.3002 22.3915 14.3068L22.5527 14.578L22.6737 14.1735C22.6782 14.1646 22.6849 14.158 22.6938 14.158C22.7028 14.158 22.714 14.1624 22.7185 14.1691L22.9312 14.4646L22.8909 14.4935L22.7095 14.238L22.5841 14.6468C22.5796 14.6557 22.5729 14.6624 22.5639 14.6624C22.555 14.6624 22.5438 14.658 22.5393 14.6513L22.378 14.3802L22.2661 14.7113Z" fill="#C09300"/>
<path d="M21.4992 15.7513C22.3009 15.7513 23.0714 15.6868 23.5238 15.5624C23.7141 15.5268 23.7141 15.4313 23.7141 15.3024C23.9045 15.2379 23.8059 15.0135 23.9403 15.0135C23.8082 15.049 23.7791 14.789 23.6178 14.8246C23.6178 14.6001 23.3916 14.5735 23.2035 14.6357C22.8205 14.7646 22.1442 14.7913 21.5014 14.7913C20.8609 14.7624 20.1868 14.7624 19.7993 14.6357C19.609 14.5713 19.385 14.6001 19.385 14.8246C19.2237 14.789 19.1946 15.049 19.0625 15.0135C19.1946 15.0135 19.0983 15.2379 19.2887 15.3024C19.2887 15.4313 19.2887 15.5268 19.4858 15.5624C19.927 15.689 20.6974 15.7513 21.4992 15.7513Z" fill="white"/>
<path d="M21.5004 15.7999C20.6381 15.7999 19.8991 15.731 19.4735 15.6088C19.2608 15.5688 19.2406 15.4577 19.2406 15.3377C19.1399 15.2888 19.1197 15.1977 19.104 15.1377C19.0928 15.0932 19.0883 15.0777 19.0794 15.0688C19.0704 15.0688 19.0637 15.0643 19.0503 15.0643C19.0256 15.0554 19.01 15.0354 19.0144 15.0132C19.0189 14.9888 19.0391 14.9732 19.0637 14.9732C19.0749 14.9732 19.0839 14.9732 19.0928 14.9777C19.1175 14.9732 19.1376 14.9488 19.1734 14.9066C19.2138 14.8554 19.263 14.791 19.3459 14.7821C19.3571 14.6977 19.4019 14.6466 19.4422 14.6221C19.5318 14.5577 19.6729 14.551 19.8207 14.5977C20.132 14.6977 20.6314 14.7177 21.1622 14.7377C21.2787 14.7421 21.3929 14.7466 21.5093 14.7488C22.3313 14.7488 22.8844 14.6999 23.1935 14.5977C23.3435 14.5488 23.4846 14.5577 23.572 14.6221C23.6078 14.651 23.6571 14.6977 23.6683 14.7821C23.7489 14.791 23.8004 14.8532 23.8407 14.9066C23.8766 14.951 23.8967 14.9754 23.9214 14.9777C23.9303 14.9777 23.9415 14.9732 23.9505 14.9732C23.9751 14.9732 23.9953 14.9888 23.9997 15.0132C24.0042 15.0377 23.9886 15.0621 23.9639 15.0643C23.955 15.0688 23.9438 15.0688 23.9348 15.0688C23.9258 15.0732 23.9191 15.0888 23.9102 15.1377C23.8945 15.2021 23.8743 15.2888 23.7736 15.3377C23.7736 15.4577 23.7534 15.5732 23.5429 15.6088C23.1017 15.731 22.3581 15.7999 21.5004 15.7999ZM19.1712 15.0399C19.1824 15.0643 19.1914 15.091 19.1958 15.1154C19.2115 15.1799 19.225 15.2354 19.3011 15.2643C19.3213 15.2732 19.3325 15.2888 19.3325 15.3088C19.3325 15.4377 19.3325 15.4932 19.4892 15.5199H19.4937C19.908 15.6354 20.6583 15.7088 21.4981 15.7088C22.3492 15.7088 23.0815 15.6399 23.5093 15.5199H23.5138C23.6661 15.491 23.666 15.4354 23.666 15.3088C23.666 15.2888 23.6772 15.2688 23.6974 15.2643C23.7736 15.2399 23.787 15.1843 23.8027 15.1154C23.8071 15.091 23.8139 15.0643 23.8273 15.0399C23.7982 15.0199 23.7758 14.9888 23.7556 14.9599C23.7041 14.8954 23.675 14.8643 23.6257 14.8754C23.6101 14.8799 23.5966 14.8754 23.5854 14.8666C23.5742 14.8577 23.5697 14.8421 23.5697 14.831C23.5697 14.771 23.5496 14.7221 23.5093 14.6954C23.4443 14.651 23.3324 14.6466 23.2159 14.6866C22.8979 14.791 22.3335 14.8421 21.4981 14.8421C21.3817 14.8377 21.2652 14.8332 21.151 14.831C20.6157 14.811 20.1074 14.791 19.7849 14.6866C19.6684 14.6466 19.5542 14.651 19.4915 14.6954C19.4512 14.7243 19.431 14.7666 19.431 14.831C19.431 14.8466 19.422 14.8599 19.4153 14.8666C19.4041 14.8754 19.3907 14.8777 19.375 14.8754C19.3257 14.8643 19.2944 14.8954 19.2451 14.9599C19.2227 14.9888 19.1981 15.0154 19.1712 15.0399Z" fill="#C09300"/>
<path d="M20.4073 14.5399C20.6694 14.5755 20.956 14.6044 21.1822 14.5755C21.3121 14.5755 21.3995 14.7955 21.1464 14.8266C20.9202 14.8555 20.5708 14.8266 20.376 14.791C20.2147 14.7621 19.8609 14.6999 19.6347 14.6355C19.4085 14.5399 19.5697 14.3466 19.6996 14.3755C19.899 14.4444 20.1543 14.5088 20.4073 14.5399ZM22.5932 14.5399C22.3311 14.5755 22.0445 14.6044 21.8228 14.5755C21.6906 14.5755 21.5966 14.7955 21.8519 14.8266C22.0781 14.8555 22.4274 14.8266 22.6223 14.791C22.7835 14.7621 23.1374 14.6999 23.3636 14.6355C23.5898 14.5399 23.4285 14.3466 23.2987 14.3755C23.1016 14.4444 22.8463 14.5088 22.5932 14.5399Z" fill="white"/>
<path d="M22.0735 14.8646C21.9929 14.8646 21.9168 14.8601 21.8518 14.8535C21.6749 14.829 21.6659 14.7246 21.6704 14.6935C21.6749 14.6135 21.7466 14.549 21.8272 14.549C22.0534 14.5779 22.3557 14.5446 22.5931 14.5135C22.8999 14.4735 23.1665 14.3979 23.2941 14.3535C23.3792 14.3335 23.471 14.389 23.4957 14.469C23.5046 14.4979 23.5248 14.5979 23.3747 14.6601C23.1418 14.729 22.77 14.7912 22.629 14.8157C22.4968 14.8446 22.2751 14.8646 22.0735 14.8646ZM21.8227 14.6001C21.7667 14.6001 21.7219 14.6512 21.7219 14.6957C21.7174 14.7512 21.7712 14.7868 21.8585 14.8001C22.0892 14.829 22.4431 14.7957 22.62 14.7646C22.7611 14.7401 23.1284 14.6735 23.3568 14.609C23.4285 14.5779 23.4621 14.5335 23.4464 14.4801C23.4307 14.4246 23.3613 14.389 23.3053 14.4001C23.1754 14.4401 22.9067 14.5201 22.5954 14.5601C22.3557 14.6001 22.0534 14.6312 21.8227 14.6001ZM20.9269 14.8646C20.7253 14.8646 20.4991 14.8401 20.3714 14.8157C20.2304 14.7912 19.8586 14.7246 19.6301 14.6601C19.4779 14.5957 19.498 14.4957 19.5047 14.469C19.5338 14.389 19.6257 14.3379 19.7063 14.3535C19.8384 14.3979 20.1049 14.4735 20.4118 14.5135C20.6492 14.5446 20.9515 14.5779 21.1822 14.549C21.2628 14.549 21.3322 14.6135 21.3345 14.6935C21.3389 14.7246 21.33 14.829 21.1531 14.8535C21.0859 14.8646 21.0075 14.8646 20.9269 14.8646ZM19.6749 14.4046C19.6257 14.4046 19.5697 14.4401 19.554 14.489C19.5383 14.5379 19.5697 14.5846 19.6458 14.6179C19.872 14.6824 20.2416 14.7468 20.3804 14.769C20.5573 14.8001 20.9089 14.8335 21.1419 14.8046C21.2337 14.7935 21.283 14.7535 21.2785 14.6957C21.274 14.6468 21.227 14.6001 21.1777 14.6001C20.9448 14.629 20.638 14.5957 20.4006 14.5646C20.0893 14.5246 19.825 14.4446 19.6906 14.4046C19.6861 14.4046 19.6817 14.4046 19.6749 14.4046Z" fill="#C09300"/>
<path d="M19.6099 14.4155C19.4128 14.3799 19.3187 14.6043 19.3837 14.731C19.4128 14.6666 19.5449 14.6666 19.574 14.6021C19.6099 14.5088 19.5449 14.5088 19.6099 14.4155ZM20.3803 15.0044C20.3803 14.8755 20.5102 14.8932 20.5102 14.7688C20.5102 14.7043 20.4744 14.6088 20.4139 14.6088C20.3489 14.6088 20.284 14.6732 20.284 14.7377C20.2504 14.8555 20.3803 14.8755 20.3803 15.0044ZM21.294 14.6399C21.4844 14.6399 21.4665 14.891 21.3747 15.0199C21.3747 14.9288 21.2134 14.891 21.2134 14.831C21.2089 14.731 21.359 14.731 21.294 14.6399ZM23.3903 14.4155C23.5874 14.3799 23.6814 14.6043 23.6165 14.731C23.5874 14.6666 23.4552 14.6666 23.4261 14.6021C23.3903 14.5088 23.4552 14.5088 23.3903 14.4155ZM22.6199 15.0044C22.6199 14.8755 22.49 14.8932 22.49 14.7688C22.49 14.7043 22.5258 14.6088 22.5863 14.6088C22.6512 14.6088 22.7162 14.6732 22.7162 14.7377C22.7498 14.8555 22.6199 14.8755 22.6199 15.0044ZM21.7061 14.6399C21.5158 14.6399 21.5337 14.891 21.6255 15.0199C21.6255 14.9288 21.7867 14.891 21.7867 14.831C21.7912 14.731 21.6412 14.731 21.7061 14.6399Z" fill="white"/>
<path d="M21.3709 15.0446C21.3664 15.0446 21.3664 15.0446 21.3619 15.0446C21.3507 15.0401 21.3462 15.0335 21.3462 15.0201C21.3462 14.9846 21.3059 14.9557 21.2656 14.929C21.2253 14.9001 21.185 14.8735 21.185 14.8335C21.185 14.7779 21.2208 14.7446 21.2499 14.7246C21.2858 14.6957 21.2903 14.689 21.2701 14.6601C21.2656 14.6512 21.2656 14.6446 21.2701 14.6312C21.2746 14.6224 21.2813 14.6201 21.2947 14.6201C21.3843 14.6201 21.4246 14.669 21.4448 14.7046C21.4941 14.8001 21.456 14.9535 21.3955 15.0401C21.3888 15.0401 21.3798 15.0446 21.3709 15.0446ZM21.335 14.6712C21.344 14.7157 21.3059 14.7401 21.2835 14.7601C21.2544 14.7846 21.2343 14.8001 21.2343 14.8312C21.2343 14.8468 21.2656 14.8668 21.2947 14.8868C21.3238 14.9068 21.3597 14.9312 21.3798 14.9579C21.4157 14.8868 21.4313 14.7868 21.3955 14.7224C21.3843 14.6957 21.3642 14.6801 21.335 14.6712ZM21.6262 15.0446C21.6172 15.0446 21.6105 15.0401 21.606 15.0335C21.5456 14.949 21.5052 14.7979 21.5568 14.6979C21.5769 14.6579 21.6172 14.6135 21.7068 14.6135C21.7158 14.6135 21.727 14.6179 21.7314 14.6246C21.7359 14.6335 21.7359 14.6446 21.7314 14.6535C21.7113 14.6846 21.7202 14.689 21.7516 14.7179C21.7807 14.7424 21.8166 14.769 21.8166 14.8268C21.8166 14.8668 21.7762 14.8957 21.7359 14.9224C21.6956 14.9512 21.6553 14.9779 21.6553 15.0135C21.6553 15.0246 21.6463 15.0335 21.6396 15.0379C21.6329 15.0446 21.6307 15.0446 21.6262 15.0446ZM21.6665 14.6712C21.6374 14.6801 21.6172 14.6957 21.6016 14.7224C21.5702 14.7868 21.5859 14.8824 21.6172 14.9579C21.6374 14.9268 21.6732 14.9068 21.7023 14.8868C21.7314 14.8668 21.7628 14.8468 21.7628 14.8312C21.7628 14.8024 21.7471 14.7824 21.7135 14.7601C21.6934 14.7401 21.6575 14.7112 21.6665 14.6712ZM22.6206 15.029C22.6049 15.029 22.5959 15.0179 22.5959 15.0046C22.5959 14.9535 22.5713 14.9335 22.5399 14.9046C22.5086 14.8757 22.4683 14.8401 22.4683 14.769C22.4683 14.689 22.5131 14.5801 22.5937 14.5801C22.6698 14.5801 22.7437 14.6512 22.746 14.729C22.7617 14.8046 22.7258 14.849 22.6967 14.889C22.6721 14.9201 22.6474 14.9535 22.6474 15.0001C22.6497 15.0157 22.6385 15.029 22.6206 15.029ZM22.5937 14.6312C22.5534 14.6312 22.522 14.7112 22.522 14.7668C22.522 14.8179 22.5467 14.8379 22.578 14.8668C22.5937 14.8779 22.6094 14.8957 22.6228 14.9112C22.634 14.8912 22.6474 14.8757 22.6586 14.8601C22.6877 14.8246 22.7101 14.7912 22.6989 14.7401V14.7357C22.6945 14.6846 22.6407 14.6312 22.5937 14.6312ZM20.381 15.029C20.3653 15.029 20.3563 15.0179 20.3563 15.0046C20.3563 14.9535 20.3317 14.9246 20.3071 14.8935C20.2757 14.8535 20.2421 14.809 20.2578 14.7335C20.2578 14.6579 20.334 14.5846 20.4101 14.5846C20.4907 14.5846 20.5355 14.6935 20.5355 14.7735C20.5355 14.849 20.4952 14.8824 20.4638 14.909C20.4325 14.9379 20.4079 14.9579 20.4079 15.009C20.4034 15.0157 20.3922 15.029 20.381 15.029ZM20.4079 14.6312C20.3586 14.6312 20.3071 14.6824 20.3071 14.7312V14.7357C20.2959 14.7912 20.3183 14.8201 20.3474 14.8557C20.3586 14.8712 20.372 14.8868 20.3832 14.9068C20.3944 14.8868 20.4123 14.8757 20.428 14.8624C20.4594 14.8335 20.484 14.8135 20.484 14.7624C20.4818 14.7112 20.4482 14.6312 20.4079 14.6312ZM19.3844 14.7557C19.3754 14.7557 19.3642 14.7512 19.3597 14.7401C19.3194 14.6601 19.3306 14.5512 19.3911 14.4712C19.4426 14.4024 19.5232 14.3712 19.6128 14.3868C19.6218 14.3868 19.6285 14.3957 19.633 14.4024C19.6374 14.4112 19.6374 14.4179 19.6285 14.4268C19.5994 14.4712 19.5994 14.4868 19.6038 14.5068C19.6083 14.5312 19.6128 14.5579 19.5949 14.6068C19.5747 14.6512 19.5299 14.6668 19.4852 14.6868C19.4493 14.6979 19.4135 14.7157 19.4045 14.7379C19.4045 14.7512 19.3933 14.7557 19.3844 14.7557ZM19.5658 14.4357C19.4963 14.4357 19.4538 14.4801 19.4336 14.5046C19.3978 14.5557 19.3821 14.6246 19.3933 14.6801C19.4135 14.6646 19.4426 14.6512 19.4695 14.6446C19.5053 14.6335 19.5411 14.6157 19.5501 14.5957C19.5613 14.5601 19.5591 14.5401 19.5546 14.5201C19.5546 14.4912 19.5501 14.4712 19.5658 14.4357ZM23.6172 14.7557C23.606 14.7557 23.597 14.7512 23.5925 14.7401C23.5813 14.7157 23.5433 14.7046 23.5119 14.689C23.4671 14.6735 23.4223 14.6535 23.4022 14.6135C23.382 14.5624 23.391 14.5335 23.3932 14.509C23.3955 14.4846 23.4022 14.469 23.3686 14.429C23.3641 14.4201 23.3641 14.4135 23.3641 14.4046C23.3686 14.3957 23.3753 14.3935 23.3843 14.389C23.4738 14.3735 23.5545 14.4046 23.606 14.4735C23.6664 14.549 23.6776 14.6624 23.6373 14.7424C23.6373 14.7512 23.6261 14.7557 23.6172 14.7557ZM23.4358 14.4357C23.4514 14.4668 23.447 14.4912 23.4447 14.5201C23.4402 14.5401 23.4358 14.5601 23.4537 14.5957C23.4626 14.6157 23.4985 14.6312 23.5343 14.6446C23.5634 14.6557 23.5903 14.6646 23.6105 14.6801C23.6216 14.6246 23.606 14.5557 23.5701 14.5046C23.5477 14.4801 23.5052 14.4401 23.4358 14.4357Z" fill="#C09300"/>
<path d="M19.6758 14.48C19.7407 14.48 19.837 14.5089 19.8661 14.5445L19.6758 14.48ZM19.9893 14.5756C20.0252 14.5756 20.1506 14.6045 20.2155 14.64L19.9893 14.5756ZM21.1472 14.7045C21.0822 14.7045 20.9568 14.7045 20.921 14.7334L21.1472 14.7045ZM20.7956 14.7045C20.7597 14.6689 20.6343 14.6689 20.5694 14.7045H20.7956ZM23.3263 14.48C23.2614 14.48 23.1695 14.5089 23.1359 14.5445L23.3263 14.48ZM23.0083 14.5756C22.9725 14.5756 22.847 14.6045 22.7821 14.64L23.0083 14.5756ZM21.8527 14.7045C21.9176 14.7045 22.043 14.7045 22.0789 14.7334L21.8527 14.7045ZM22.2065 14.7045C22.2423 14.6689 22.3678 14.6689 22.4327 14.7045H22.2065Z" fill="white"/>
<path d="M22.0761 14.749L21.8499 14.7201C21.8454 14.7201 21.8409 14.7201 21.8387 14.7156C21.8342 14.7112 21.8297 14.7045 21.8342 14.6956C21.8387 14.6868 21.8454 14.6845 21.8544 14.6868C21.9507 14.6868 22.0515 14.6912 22.0873 14.7179C22.0963 14.7223 22.0963 14.729 22.0918 14.7379C22.094 14.7445 22.0851 14.749 22.0761 14.749ZM20.925 14.749C20.916 14.749 20.9138 14.7445 20.9093 14.7379C20.9048 14.729 20.9093 14.7223 20.9138 14.7179C20.9496 14.689 21.0548 14.6868 21.1467 14.6868C21.1556 14.6868 21.1579 14.6912 21.1624 14.6956C21.1668 14.7001 21.1668 14.7068 21.1624 14.7156C21.1579 14.7201 21.1534 14.7245 21.1467 14.7245L20.925 14.749ZM22.4322 14.7201H22.206C22.197 14.7201 22.1903 14.7112 22.1903 14.7045C22.1903 14.7001 22.1948 14.6934 22.1993 14.689C22.2441 14.649 22.3807 14.6534 22.4456 14.689C22.4546 14.6934 22.4568 14.7001 22.4546 14.709C22.4479 14.7156 22.4389 14.7201 22.4322 14.7201ZM20.7951 14.7201H20.5689C20.5599 14.7201 20.5532 14.7156 20.5532 14.709C20.5532 14.7001 20.5532 14.6934 20.5621 14.689C20.6271 14.6534 20.7682 14.649 20.8085 14.6934C20.813 14.6979 20.8175 14.7045 20.813 14.7134C20.8063 14.7156 20.804 14.7201 20.7951 14.7201ZM22.7816 14.6556C22.7726 14.6556 22.7704 14.6512 22.7659 14.6445C22.7614 14.6356 22.7659 14.6245 22.7749 14.6201C22.8398 14.5845 22.9652 14.5556 23.0055 14.5556C23.0145 14.5556 23.0212 14.5601 23.0257 14.5645C23.0302 14.5734 23.0302 14.5801 23.0212 14.5845C23.0167 14.589 23.0123 14.589 23.01 14.589L22.7883 14.6534C22.7861 14.6556 22.7861 14.6556 22.7816 14.6556ZM20.215 14.6556H20.2105L19.9888 14.5912C19.9843 14.5912 19.9798 14.5868 19.9776 14.5868C19.9731 14.5823 19.9686 14.5712 19.9776 14.5668C19.9821 14.5579 19.9888 14.5579 19.9978 14.5579C20.0381 14.5579 20.1635 14.589 20.2284 14.6223C20.2374 14.6268 20.2396 14.6334 20.2374 14.6468C20.2307 14.6512 20.2217 14.6556 20.215 14.6556ZM23.1377 14.5601C23.1287 14.5601 23.1265 14.5556 23.122 14.5512C23.1175 14.5423 23.1175 14.5356 23.1265 14.5312C23.1668 14.4912 23.2676 14.4623 23.328 14.4623C23.337 14.4623 23.3437 14.4712 23.3437 14.4779C23.3437 14.4868 23.3392 14.4934 23.3325 14.4979L23.1421 14.5623C23.1421 14.5601 23.1377 14.5601 23.1377 14.5601ZM19.8634 14.5601H19.8589L19.6685 14.4956H19.6641C19.6551 14.4912 19.6529 14.4801 19.6551 14.4712C19.6596 14.4623 19.6663 14.4601 19.6753 14.4601C19.7447 14.4601 19.8455 14.4912 19.8768 14.529C19.8813 14.5379 19.8813 14.5445 19.8768 14.549C19.8768 14.5556 19.8679 14.5601 19.8634 14.5601Z" fill="#C09300"/>
<path d="M19.6173 14.9843C19.5971 14.9799 19.5859 14.9643 19.5882 14.9443C19.5971 14.9199 19.6173 14.9043 19.633 14.9132C19.6442 14.9177 19.6643 14.9377 19.6643 14.9443C19.6643 14.9532 19.6531 14.9755 19.6486 14.9755C19.6442 14.9755 19.6442 14.9755 19.6397 14.9799C19.6419 14.9843 19.6307 14.9843 19.6173 14.9843ZM21.8345 15.1399C21.8255 15.1355 21.8143 15.1199 21.8143 15.111C21.8143 15.0955 21.839 15.071 21.8501 15.071C21.8591 15.071 21.8793 15.0799 21.8815 15.0866C21.8927 15.0977 21.8927 15.1221 21.8725 15.1355C21.8725 15.1443 21.8479 15.1443 21.8345 15.1399ZM21.8479 15.2399C21.8322 15.2354 21.8233 15.2288 21.8233 15.2088C21.8233 15.1888 21.8233 15.1843 21.8434 15.1777L21.8591 15.1688L21.8703 15.1777C21.8905 15.1866 21.8994 15.1932 21.8994 15.2088C21.8994 15.2199 21.8905 15.2377 21.8748 15.2443C21.8636 15.2443 21.8636 15.2443 21.8479 15.2399Z" fill="#C09300"/>
<path d="M19.7963 14.8046C19.7851 14.8046 19.765 14.8157 19.7515 14.8246C19.7269 14.8335 19.6955 14.8491 19.6709 14.8291C19.6463 14.8202 19.6149 14.8291 19.6104 14.858C19.6194 14.8868 19.6552 14.898 19.6754 14.8824C19.6911 14.8624 19.7359 14.8468 19.7448 14.8868C19.7247 14.9157 19.7291 14.9513 19.7135 14.978C19.709 14.998 19.7023 15.0135 19.6933 15.0291C19.6732 15.0291 19.653 15.0291 19.6418 15.0402C19.6172 15.0402 19.5903 15.0513 19.5768 15.0757C19.5612 15.1002 19.5455 15.1246 19.541 15.1513C19.5455 15.1802 19.5768 15.1868 19.606 15.1913C19.6351 15.2002 19.6575 15.2068 19.6866 15.2157C19.7314 15.2246 19.7717 15.2402 19.8165 15.2513C19.8814 15.2713 19.9464 15.2802 20.0091 15.2957C20.018 15.3002 20.0203 15.3002 20.0292 15.3002C20.0584 15.3046 20.0696 15.2757 20.074 15.2557C20.0852 15.2068 20.0987 15.1646 20.1099 15.1157C20.1188 15.0957 20.13 15.0557 20.0942 15.0646C20.074 15.0757 20.0539 15.0957 20.0292 15.0957C19.9934 15.1002 20.0136 15.1313 20.0292 15.1468C20.0337 15.1713 20.0248 15.198 20.0091 15.218C19.9889 15.2291 19.9598 15.2135 19.9397 15.2091C19.915 15.2091 19.8702 15.198 19.8904 15.1646C19.8993 15.1402 19.8993 15.1157 19.9061 15.0935C19.9173 15.0691 19.9173 15.0424 19.9262 15.018C19.9105 14.9868 19.8859 15.0291 19.8658 15.0291C19.8546 15.038 19.8008 15.0402 19.8299 15.0646C19.8546 15.0802 19.8344 15.1135 19.8299 15.1357C19.8299 15.1668 19.7986 15.1757 19.7695 15.1668C19.7448 15.1668 19.709 15.1468 19.7291 15.118C19.7336 15.0935 19.7403 15.0735 19.7448 15.0491C19.7538 15.0202 19.7605 14.9935 19.7739 14.9646C19.7784 14.9402 19.7851 14.9157 19.7986 14.8935C19.7986 14.8646 19.8187 14.8424 19.8187 14.8135C19.812 14.8091 19.8075 14.8046 19.7963 14.8046ZM19.6552 15.0913C19.6597 15.0913 19.6597 15.0913 19.6642 15.0913C19.6732 15.0957 19.6754 15.1024 19.6642 15.1113C19.6597 15.1157 19.6552 15.1202 19.653 15.1202C19.6328 15.1202 19.6284 15.1157 19.6284 15.1091C19.6284 15.1002 19.6284 15.1002 19.6396 15.098C19.6463 15.0957 19.6508 15.0957 19.6552 15.0913ZM19.6104 15.2957C19.5903 15.2757 19.5948 15.2646 19.6216 15.2402C19.6328 15.2313 19.6418 15.2313 19.6575 15.2446C19.6821 15.2646 19.6821 15.2757 19.662 15.2957C19.653 15.3046 19.6508 15.3068 19.6373 15.3068C19.6261 15.3046 19.6216 15.3046 19.6104 15.2957ZM19.7359 15.3313C19.7157 15.3269 19.7067 15.3068 19.7112 15.2913C19.7112 15.2913 19.7112 15.2913 19.7112 15.2868C19.7157 15.2713 19.7202 15.2668 19.7426 15.2668C19.7717 15.2668 19.7784 15.2713 19.7784 15.2957C19.7784 15.3113 19.7784 15.3113 19.7695 15.3202C19.7583 15.3291 19.7426 15.3357 19.7359 15.3313ZM23.3259 15.3357C23.3169 15.3268 23.3147 15.3246 23.3147 15.3157C23.3147 15.3002 23.3237 15.2868 23.3438 15.2802C23.3729 15.2691 23.3841 15.2691 23.3931 15.2891C23.4043 15.3135 23.4043 15.3202 23.3886 15.3402C23.3796 15.3491 23.3774 15.3491 23.3572 15.3491C23.3393 15.3446 23.3349 15.3446 23.3259 15.3357ZM19.8971 15.3802C19.8814 15.3757 19.8725 15.3646 19.8725 15.3491C19.8725 15.338 19.8725 15.3335 19.8837 15.3246C19.8926 15.3202 19.8993 15.3157 19.9083 15.3157C19.9195 15.3157 19.924 15.3157 19.9329 15.3202C19.9576 15.3357 19.9621 15.3513 19.9441 15.3646C19.9329 15.3846 19.9195 15.3891 19.8971 15.3802ZM20.7795 15.4202C20.775 15.4157 20.7683 15.4113 20.7683 15.4091C20.7683 15.3846 20.7728 15.3646 20.7773 15.3446C20.7817 15.3246 20.7773 15.3002 20.7862 15.2802C20.7952 15.2446 20.7952 15.2046 20.8019 15.1691C20.8019 15.1491 20.8064 15.1335 20.8109 15.1135C20.8198 15.0846 20.8109 15.0535 20.8198 15.0246C20.8198 15.0135 20.831 14.9846 20.8444 15.0002C20.8601 15.0246 20.8803 15.0402 20.9004 15.0602C20.9161 15.0713 20.9004 15.0846 20.8892 15.0891C20.8736 15.098 20.8691 15.1135 20.8691 15.1291C20.8646 15.1446 20.8601 15.1602 20.8601 15.178C20.8556 15.2024 20.8556 15.2291 20.8512 15.2535C20.8422 15.278 20.8467 15.3046 20.8422 15.3291C20.8422 15.3446 20.8332 15.3602 20.8332 15.378C20.8332 15.3935 20.8288 15.4135 20.8176 15.4269C20.8109 15.4313 20.7907 15.4313 20.7795 15.4202ZM21.9754 15.0291C21.9553 15.0446 21.9396 15.0602 21.9239 15.078C21.8993 15.0935 21.9441 15.1068 21.9486 15.1224C21.9575 15.1468 21.953 15.1713 21.9575 15.1935C21.9665 15.218 21.9687 15.238 21.9665 15.2624C21.962 15.2868 21.9306 15.2824 21.9172 15.2935C21.897 15.3024 21.8881 15.3224 21.8724 15.3335C21.8635 15.3535 21.8612 15.378 21.8612 15.398C21.8612 15.4135 21.85 15.4335 21.8612 15.4491C21.8612 15.4535 21.8657 15.4535 21.8657 15.458C21.8702 15.4624 21.8769 15.458 21.8858 15.4624C21.906 15.4624 21.9262 15.4624 21.9463 15.4535C21.9956 15.4446 22.0426 15.4446 22.0964 15.4424C22.1255 15.4424 22.1568 15.4335 22.186 15.4335C22.2106 15.438 22.2218 15.4135 22.2173 15.3935C22.2061 15.3646 22.2173 15.338 22.2061 15.3091C22.1971 15.2802 22.2016 15.2535 22.1949 15.2246C22.1949 15.2046 22.1658 15.1935 22.1501 15.2135C22.1389 15.2246 22.1143 15.2291 22.1008 15.2446C22.0897 15.2691 22.1255 15.2691 22.1322 15.2891C22.1389 15.3091 22.1367 15.3291 22.1412 15.3491C22.1456 15.3735 22.121 15.3735 22.1053 15.378C22.0852 15.3868 22.0538 15.3891 22.0404 15.3668C22.0314 15.3468 22.0314 15.3268 22.0314 15.3068C22.0314 15.2713 22.0225 15.2357 22.0202 15.198C22.0157 15.1535 22.0113 15.1091 22.009 15.0668C22.0045 15.0513 22.0045 15.0246 21.9754 15.0291ZM21.953 15.3557H21.9642V15.3713V15.3869L21.9486 15.3913C21.9396 15.3957 21.9329 15.3957 21.9329 15.3957C21.9284 15.3957 21.9284 15.3913 21.9239 15.3913C21.915 15.3824 21.915 15.3757 21.9284 15.3624C21.9396 15.3602 21.9396 15.3557 21.953 15.3557ZM20.7437 14.9891C20.728 14.9935 20.7078 15.018 20.6944 15.018C20.6586 15.0224 20.663 15.0535 20.6899 15.0668C20.6944 15.078 20.6899 15.0913 20.6899 15.1024C20.6944 15.1335 20.6742 15.158 20.6787 15.1913C20.6787 15.2268 20.6675 15.2602 20.6675 15.2957C20.6586 15.3313 20.6586 15.3668 20.6518 15.4068C20.6474 15.438 20.6227 15.4268 20.6026 15.418C20.6026 15.4024 20.6026 15.3891 20.6026 15.3735C20.6115 15.3424 20.5869 15.3291 20.5578 15.3246C20.5287 15.3291 20.5175 15.3046 20.5219 15.2802C20.5331 15.2646 20.5623 15.2691 20.5824 15.2691C20.6227 15.278 20.6183 15.2246 20.5981 15.2046C20.5869 15.1802 20.5488 15.1691 20.5421 15.1402C20.5466 15.1046 20.5219 15.0713 20.4928 15.0513C20.448 15.0468 20.4167 15.0868 20.401 15.1224C20.3809 15.1268 20.3652 15.1335 20.3495 15.138C20.3204 15.1468 20.2801 15.1935 20.3181 15.2135C20.3383 15.218 20.4077 15.2335 20.3786 15.2646C20.3629 15.2935 20.3293 15.2935 20.3025 15.2846C20.2734 15.2846 20.242 15.2691 20.242 15.2357C20.2375 15.2068 20.2375 15.1713 20.2218 15.1446C20.2174 15.1135 20.1771 15.1202 20.1726 15.1491C20.1435 15.1691 20.1479 15.2046 20.1681 15.2291C20.1793 15.258 20.1681 15.2935 20.1569 15.318C20.1479 15.3535 20.1076 15.3535 20.0852 15.3668C20.074 15.3713 20.0203 15.3624 20.036 15.3957C20.0673 15.4068 20.1054 15.4157 20.1323 15.4068C20.1636 15.4024 20.1927 15.378 20.2084 15.3513C20.233 15.3268 20.2689 15.3402 20.298 15.3402C20.3293 15.3402 20.3629 15.3602 20.3898 15.3491C20.3988 15.3246 20.4391 15.2891 20.4503 15.3291C20.4458 15.3646 20.4794 15.3802 20.5108 15.378C20.5466 15.378 20.5309 15.4024 20.5309 15.4224C20.5354 15.458 20.56 15.478 20.5869 15.4935C20.5981 15.498 20.6071 15.4935 20.6183 15.4935C20.6474 15.4846 20.6832 15.4691 20.6899 15.438C20.7011 15.4091 20.7011 15.378 20.7101 15.3491C20.719 15.3046 20.7258 15.258 20.7258 15.2135C20.7369 15.1735 20.7347 15.1291 20.7414 15.0846C20.7459 15.0535 20.7504 15.0202 20.7526 14.9935C20.7638 14.9891 20.7549 14.9846 20.7437 14.9891ZM20.4727 15.1513C20.4816 15.1513 20.4816 15.1602 20.4839 15.1713C20.4839 15.1868 20.4928 15.2002 20.4996 15.2002C20.5063 15.2002 20.5085 15.2091 20.4996 15.2157C20.4951 15.2202 20.4884 15.2202 20.4704 15.2202C20.4458 15.2202 20.4346 15.2113 20.4212 15.2002L20.4122 15.1913L20.4234 15.1824C20.4324 15.1735 20.4391 15.1713 20.448 15.1624C20.457 15.1557 20.4637 15.1513 20.4727 15.1513ZM23.1333 14.8357C23.1087 14.8357 23.0885 14.8402 23.0639 14.8468C23.0236 14.8424 22.9989 14.8868 23.0392 14.9113C23.0639 14.9713 23.0997 14.9002 23.14 14.9024C23.196 14.9135 23.205 14.9735 23.2117 15.0224C23.2162 15.0713 23.2274 15.1135 23.2408 15.158C23.2811 15.2024 23.2117 15.2268 23.1848 15.1935C23.1602 15.1646 23.1087 15.1335 23.0751 15.1691C23.0392 15.1846 23.0392 15.2335 23.0056 15.2446C22.9564 15.2602 22.9496 15.2002 22.925 15.1757C22.9004 15.1446 22.8556 15.1402 22.8198 15.1268C22.8041 15.0913 22.8108 15.0357 22.775 15.0113C22.7458 15.0224 22.6899 15.0802 22.7346 15.1024C22.7794 15.1424 22.7145 15.158 22.6943 15.1868C22.6652 15.218 22.663 15.2624 22.654 15.3068C22.6025 15.3357 22.5936 15.2757 22.5846 15.238C22.5801 15.1935 22.5443 15.2068 22.5152 15.2224C22.4749 15.238 22.4592 15.2735 22.4301 15.3024C22.4256 15.3268 22.4301 15.358 22.4301 15.3824C22.439 15.4135 22.4793 15.398 22.5017 15.398C22.542 15.3824 22.5577 15.4224 22.5264 15.4468C22.5062 15.4757 22.4368 15.458 22.4413 15.5024C22.4614 15.5068 22.4861 15.5024 22.5107 15.5024C22.5555 15.4913 22.6025 15.458 22.607 15.4113C22.6115 15.3668 22.6764 15.3757 22.7078 15.3668C22.7481 15.3557 22.7996 15.3513 22.8086 15.4024C22.8377 15.4313 22.8981 15.4669 22.9295 15.4269C22.9608 15.4068 22.9788 15.3757 22.9743 15.3357C22.9653 15.3046 23.0258 15.3046 23.0392 15.3202C23.0594 15.3557 23.1288 15.3446 23.1557 15.3246C23.187 15.3002 23.196 15.2557 23.2453 15.2557C23.3169 15.2357 23.3908 15.2246 23.4625 15.1957C23.5185 15.1846 23.4536 15.1468 23.4379 15.1268C23.3931 15.1068 23.3572 15.1913 23.308 15.1513C23.2721 15.1224 23.2721 15.0668 23.2587 15.0268C23.2497 14.9713 23.2498 14.9113 23.2094 14.8668C23.2094 14.8446 23.1691 14.8357 23.1333 14.8357ZM22.8601 15.2157C22.8645 15.2157 22.8713 15.2202 22.8802 15.2246C22.8959 15.2335 22.9116 15.2491 22.9093 15.2646C22.9093 15.2735 22.9049 15.2735 22.8937 15.2802C22.8847 15.2846 22.878 15.2891 22.8735 15.2891C22.8645 15.2891 22.8489 15.2735 22.8489 15.2691C22.8489 15.2646 22.8444 15.258 22.8444 15.2491C22.8399 15.238 22.8399 15.238 22.8489 15.2291C22.8511 15.2202 22.8556 15.2157 22.8601 15.2157ZM23.1221 15.2313C23.1378 15.2313 23.1467 15.2357 23.1512 15.2468C23.1602 15.258 23.1557 15.2713 23.1355 15.278C23.1266 15.2824 23.1199 15.2868 23.1199 15.2868C23.1199 15.2868 23.1109 15.2824 23.1042 15.278C23.093 15.2691 23.093 15.2668 23.093 15.258C23.0885 15.2446 23.1042 15.2313 23.1221 15.2313ZM22.7615 15.2313C22.766 15.2313 22.7705 15.2313 22.7727 15.2402C22.7817 15.2491 22.7817 15.2513 22.7839 15.2646C22.7839 15.2735 22.7839 15.2846 22.7839 15.2891C22.7839 15.298 22.7794 15.298 22.7593 15.298C22.7346 15.298 22.7302 15.2935 22.7302 15.2691C22.7302 15.2535 22.7302 15.2491 22.7391 15.2402C22.7503 15.2357 22.7593 15.2357 22.7615 15.2313ZM22.5398 15.2913C22.5488 15.2913 22.5555 15.3002 22.5555 15.3068C22.56 15.318 22.5555 15.3269 22.5443 15.3313C22.5353 15.3357 22.5152 15.3402 22.5085 15.3357C22.5085 15.3357 22.504 15.3313 22.4995 15.3268C22.495 15.3224 22.495 15.318 22.4995 15.318C22.504 15.318 22.504 15.3135 22.504 15.3091C22.504 15.3091 22.5085 15.3002 22.5129 15.298C22.5241 15.2913 22.5331 15.2891 22.5398 15.2913ZM22.9116 15.3402C22.9205 15.3402 22.9228 15.3446 22.9273 15.3491C22.9362 15.358 22.9362 15.3646 22.9273 15.3735C22.9228 15.378 22.8914 15.378 22.8825 15.3735C22.878 15.3735 22.8735 15.3691 22.8735 15.3646C22.8735 15.3602 22.8735 15.3557 22.8847 15.3535C22.8959 15.3402 22.9026 15.3402 22.9116 15.3402ZM22.2218 15.5313C22.2173 15.5269 22.2128 15.5268 22.2173 15.5224C22.2263 15.5113 22.2375 15.5068 22.2487 15.5024C22.2688 15.4935 22.289 15.478 22.3047 15.458C22.3047 15.4468 22.3203 15.438 22.3203 15.4224C22.3203 15.4024 22.3203 15.3824 22.3158 15.3668C22.3114 15.3513 22.2957 15.3357 22.2845 15.3268C22.2733 15.318 22.2554 15.3157 22.2531 15.3024C22.2487 15.2913 22.2643 15.278 22.2688 15.2668C22.2778 15.2513 22.2845 15.2313 22.2979 15.2157C22.3091 15.2046 22.327 15.2157 22.3293 15.2268C22.3382 15.238 22.345 15.2513 22.3494 15.2624C22.3606 15.2735 22.3741 15.2913 22.3786 15.3113C22.383 15.3224 22.3942 15.3357 22.3942 15.3513C22.3942 15.3668 22.4032 15.3824 22.4032 15.4002C22.4032 15.4246 22.4032 15.4446 22.3942 15.4691C22.3898 15.4802 22.3786 15.4891 22.3696 15.498C22.3584 15.5091 22.3405 15.5224 22.3248 15.5269C22.3136 15.5313 22.3047 15.5424 22.2935 15.538C22.2733 15.538 22.2531 15.5424 22.233 15.538C22.2263 15.5357 22.2173 15.5313 22.2218 15.5313ZM21.9441 15.5491C21.9351 15.5402 21.9329 15.5335 21.9329 15.5246C21.9329 15.5157 21.9329 15.5135 21.9441 15.5002C21.9598 15.4846 21.9732 15.4802 22.0001 15.4957C22.0292 15.5113 22.0404 15.5113 22.0404 15.5002C22.0449 15.4891 22.0605 15.4802 22.0762 15.4802C22.0874 15.4802 22.0919 15.4802 22.1008 15.4891C22.112 15.498 22.112 15.498 22.112 15.518C22.112 15.538 22.112 15.538 22.1008 15.5468C22.0897 15.5557 22.0897 15.558 22.0717 15.5557C22.0561 15.5557 22.0426 15.5469 22.0404 15.5313C22.0359 15.5224 22.0359 15.5202 22.0314 15.5269C22.0314 15.5313 22.0269 15.5313 22.0225 15.5313C22.0135 15.5357 22.0023 15.5424 21.9911 15.5513C21.9866 15.5557 21.9799 15.5557 21.971 15.5557C21.9553 15.5602 21.9553 15.5602 21.9441 15.5491ZM21.1468 15.1913C21.1177 15.1913 21.0908 15.2157 21.0863 15.2402C21.0953 15.2713 21.1177 15.3002 21.102 15.3313C21.1132 15.3713 21.0706 15.3868 21.0415 15.3624C21.0259 15.3224 21.0169 15.2824 20.99 15.2468C20.9587 15.238 20.9407 15.2913 20.9206 15.3068C20.9318 15.338 20.9654 15.3624 20.9699 15.4024C20.9788 15.438 20.9542 15.478 20.9206 15.498C20.8915 15.5269 20.8556 15.5135 20.8198 15.5224C20.7795 15.5468 20.8512 15.5535 20.8691 15.5535C20.9094 15.558 20.9542 15.5535 20.9855 15.5224C21.0169 15.5068 21.0147 15.4535 21.0505 15.4513C21.1154 15.4468 21.1804 15.4602 21.2409 15.4624C21.2722 15.4713 21.3304 15.458 21.3528 15.4824C21.3528 15.5269 21.3887 15.5535 21.4245 15.5713C21.4447 15.5757 21.4648 15.5513 21.485 15.5468C21.5253 15.5357 21.5141 15.4868 21.5365 15.4668C21.6059 15.4624 21.6686 15.4624 21.738 15.4624C21.7492 15.4624 21.7537 15.4469 21.7627 15.438C21.7627 15.4135 21.7582 15.3868 21.7537 15.3624C21.7425 15.3313 21.7582 15.2913 21.7336 15.2624C21.7022 15.2535 21.6731 15.2824 21.6373 15.2868C21.6014 15.3024 21.5678 15.338 21.5678 15.378C21.5477 15.4135 21.5118 15.3691 21.523 15.3424C21.523 15.3313 21.5275 15.3135 21.523 15.3024C21.5029 15.278 21.467 15.2868 21.4379 15.2824C21.3976 15.2824 21.3573 15.2735 21.317 15.2735C21.2812 15.2691 21.2453 15.278 21.2073 15.2646C21.1669 15.2646 21.1714 15.2246 21.1625 15.1935C21.1625 15.1957 21.1535 15.1913 21.1468 15.1913ZM21.2274 15.3402C21.2386 15.3402 21.2565 15.3446 21.2677 15.3446C21.2834 15.3491 21.3036 15.3402 21.3192 15.3446C21.3595 15.3535 21.3999 15.3491 21.4357 15.3535C21.4469 15.3535 21.4514 15.3624 21.4603 15.3646C21.4603 15.3935 21.4603 15.4202 21.4603 15.4491C21.4603 15.4602 21.4648 15.4735 21.4514 15.4802C21.4469 15.4846 21.4424 15.4846 21.4424 15.4846C21.4312 15.4802 21.4178 15.4757 21.4133 15.4646C21.4133 15.4491 21.4133 15.4357 21.4133 15.4202C21.4133 15.4157 21.4133 15.4113 21.4133 15.4091C21.4043 15.4002 21.3931 15.4002 21.3842 15.398C21.3528 15.398 21.3148 15.3935 21.2834 15.3935C21.2543 15.3935 21.2274 15.398 21.1983 15.3891C21.1871 15.3846 21.1737 15.3846 21.1669 15.378C21.158 15.3668 21.1714 15.3535 21.1781 15.3491C21.1983 15.3446 21.2095 15.3402 21.2274 15.3402ZM21.682 15.3513C21.691 15.3513 21.691 15.3513 21.6932 15.3624C21.6932 15.3713 21.6977 15.378 21.6977 15.3824C21.6977 15.3868 21.6977 15.3913 21.6888 15.3913C21.6686 15.4002 21.6485 15.4002 21.6395 15.3869C21.635 15.3824 21.6395 15.3713 21.6485 15.3624C21.6619 15.3602 21.6731 15.3513 21.682 15.3513Z" fill="#C09300"/>
<path d="M21.9946 10.1244C22.0237 10.1244 21.9587 9.97993 21.9587 9.97993C22.0304 10.051 22.2969 10.0688 22.2969 10.0688C22.1357 9.99771 21.9744 9.46437 21.9946 9.03993C22.0102 8.61104 21.9341 8.44437 21.8692 8.38437C21.7885 8.30437 21.531 8.23326 21.3563 8.22437C21.26 8.21993 21.2757 8.29548 21.2757 8.29548C21.0987 8.25104 20.9173 8.23104 20.8367 8.28659C20.7605 8.3377 20.7449 8.58659 20.8009 8.54215C20.933 8.43326 21.0517 8.53326 21.1323 8.65104C21.204 8.75104 21.1973 9.04215 21.0965 9.37993C20.9867 9.73548 20.6934 10.0888 20.6934 10.0888C20.8546 10.0888 21.0763 9.94882 21.0763 9.94882L21.0248 10.1688C21.195 10.0888 21.3272 9.96437 21.3272 9.96437L21.4884 10.1333C21.5399 10.0621 21.6497 9.96437 21.6497 9.96437C21.6497 9.96437 21.7908 10.1044 21.9946 10.1244Z" fill="white"/>
<path d="M20.9956 10.2111L21.0471 9.99552C20.9709 10.04 20.8209 10.1111 20.6999 10.1111H20.6484L20.6798 10.0711C20.6843 10.0666 20.9709 9.71552 21.074 9.37107C21.1792 9.02218 21.1747 8.75107 21.1143 8.66218C21.0583 8.57774 20.9933 8.53107 20.9373 8.52218C20.897 8.51774 20.8567 8.53107 20.8164 8.56218C20.8007 8.57774 20.7851 8.5733 20.7761 8.57107C20.7604 8.56218 20.747 8.54218 20.7447 8.51107C20.7358 8.44663 20.7604 8.31107 20.8254 8.26663C20.9217 8.20218 21.1232 8.23552 21.2531 8.26663C21.2576 8.25552 21.2621 8.24218 21.2688 8.23107C21.289 8.21107 21.3181 8.19996 21.3584 8.20218C21.5353 8.21107 21.8018 8.28663 21.8869 8.37107C21.9564 8.43996 22.037 8.61552 22.0191 9.04663C21.9989 9.48218 22.1691 9.99107 22.3102 10.0511L22.299 10.1C22.2744 10.1 22.1131 10.0888 22.0079 10.0444C22.037 10.12 22.0235 10.1333 22.0191 10.14C22.0146 10.1488 22.0034 10.1511 21.9899 10.1511C21.8175 10.1355 21.6966 10.04 21.6518 9.99996C21.6204 10.0288 21.551 10.0955 21.5107 10.1488L21.495 10.1733L21.3293 10.0022C21.2845 10.0377 21.1725 10.1311 21.0381 10.1933L20.9956 10.2111ZM21.121 9.89107L21.065 10.12C21.2061 10.0444 21.3158 9.94441 21.3158 9.94441L21.3315 9.92885L21.4883 10.0933C21.5443 10.0244 21.6294 9.94885 21.6339 9.94441L21.6495 9.92885L21.6652 9.94441C21.6652 9.94441 21.7861 10.0688 21.9675 10.0933C21.9586 10.0688 21.9429 10.0244 21.9272 9.9844L21.9675 9.95552C22.0079 9.99552 22.1198 10.02 22.2094 10.0266C22.0639 9.86218 21.9429 9.40663 21.9586 9.03107C21.9743 8.59552 21.8936 8.44218 21.8421 8.39107C21.766 8.31552 21.5152 8.24663 21.3472 8.23996C21.3315 8.23996 21.3114 8.23996 21.2979 8.25107C21.2867 8.26218 21.289 8.28218 21.289 8.28218L21.2979 8.31774L21.2621 8.30885C21.065 8.25774 20.9082 8.2533 20.8433 8.29774C20.8231 8.3133 20.803 8.3533 20.7918 8.40885C20.7828 8.4533 20.7828 8.48885 20.7873 8.50885C20.8366 8.4733 20.8836 8.45996 20.9373 8.46441C21.009 8.47552 21.0784 8.52885 21.1479 8.62441C21.2285 8.73996 21.2128 9.04885 21.1165 9.37329C21.0314 9.65774 20.8298 9.93774 20.7447 10.0444C20.8903 10.02 21.0583 9.91329 21.0583 9.91329L21.121 9.89107Z" fill="#C09300"/>
<path d="M21.9393 9.9956C21.787 9.77116 21.7489 9.17561 21.7467 9.15116L21.7982 9.14672C21.7982 9.15561 21.834 9.7556 21.9841 9.96671L21.9393 9.9956ZM21.3547 9.9756L21.3099 9.95116C21.4219 9.74672 21.46 9.09116 21.46 9.08228L21.5115 9.08672C21.5093 9.11561 21.4757 9.76005 21.3547 9.9756ZM21.6324 9.97116C21.5877 9.84227 21.5877 9.14005 21.5877 9.11116H21.6392C21.6392 9.31116 21.6481 9.8556 21.684 9.9556L21.6324 9.97116ZM21.1061 9.96449L21.0703 9.93338C21.2316 9.75338 21.3234 9.10894 21.3234 9.10228L21.3749 9.11116C21.3682 9.13116 21.2741 9.77116 21.1061 9.96449Z" fill="#C09300"/>
<path d="M21.1809 8.78433C21.172 8.72877 21.1608 8.67988 21.1361 8.65322C21.0555 8.53766 20.9391 8.44211 20.8047 8.54433C20.8047 8.54433 20.8495 8.40433 20.9503 8.39988C21.0264 8.39544 21.2011 8.45544 21.3489 8.711C21.3489 8.711 21.2369 8.68655 21.2078 8.711C21.1608 8.75544 21.1809 8.78433 21.1809 8.78433Z" fill="#C09300"/>
<path d="M21.172 8.78874C21.172 8.78874 21.1631 8.77763 21.1676 8.75985C21.1586 8.71096 21.1474 8.67985 21.1317 8.65096C21.0712 8.56207 21.0063 8.51096 20.9414 8.50207C20.8966 8.49318 20.8518 8.51096 20.8092 8.54652L20.7891 8.56207L20.798 8.53763C20.798 8.53318 20.8473 8.39318 20.9481 8.38652C21.0242 8.38207 21.2011 8.44207 21.3557 8.70207L21.3646 8.71763L21.349 8.71318C21.3086 8.7043 21.2325 8.69318 21.2168 8.70874C21.1967 8.72874 21.1877 8.73985 21.1855 8.75318C21.1855 8.76207 21.1899 8.76874 21.1899 8.77763L21.172 8.78874ZM20.9234 8.49096C20.9324 8.49096 20.9391 8.49096 20.9481 8.49096C21.0175 8.49985 21.0802 8.55096 21.1452 8.64207C21.1608 8.66207 21.1743 8.69318 21.181 8.73096C21.1855 8.72207 21.1967 8.71096 21.2101 8.69985C21.2347 8.67985 21.3064 8.69096 21.34 8.69541C21.1899 8.45096 21.0287 8.39541 20.9526 8.39985C20.8831 8.40429 20.8406 8.47985 20.8227 8.51985C20.854 8.50429 20.8854 8.49096 20.9234 8.49096Z" fill="#C09300"/>
<path d="M20.7891 8.37104C20.8003 8.33548 20.8182 8.30215 20.8406 8.28659C20.9212 8.23548 21.0981 8.25104 21.2795 8.29548C21.2795 8.29548 21.2638 8.21993 21.3602 8.22437C21.5304 8.23326 21.7924 8.30437 21.873 8.38437C21.8932 8.40437 21.9133 8.43548 21.9335 8.47993H21.929C21.8887 8.42437 21.7767 8.42882 21.7521 8.43104C21.7073 8.43548 21.6826 8.43548 21.6267 8.44659C21.5975 8.45548 21.5572 8.46215 21.5371 8.4777C21.5214 8.49326 21.5057 8.54215 21.4766 8.54215C21.4318 8.54215 21.4363 8.53104 21.4251 8.5177C21.4094 8.50215 21.4049 8.47326 21.3893 8.4777C21.3445 8.48659 21.2728 8.44882 21.1832 8.38215C21.0936 8.31104 21.0578 8.29326 20.9414 8.30215C20.8249 8.31104 20.7891 8.37326 20.7891 8.37326V8.37104Z" fill="#C09300"/>
<path d="M21.4747 8.55116C21.4388 8.55116 21.4299 8.54227 21.4231 8.53116C21.4231 8.52671 21.4187 8.52671 21.4187 8.52227C21.4142 8.51338 21.4097 8.51116 21.4075 8.50227C21.403 8.49338 21.3963 8.48227 21.3918 8.48227C21.347 8.49116 21.2753 8.45783 21.1813 8.38227C21.0917 8.31116 21.0603 8.29338 20.9439 8.30227C20.8341 8.31116 20.7983 8.37116 20.7983 8.37338L20.7871 8.36449L20.7916 8.3556C20.8005 8.33116 20.8162 8.28671 20.8431 8.26671C20.9394 8.20227 21.1544 8.24227 21.2776 8.2756C21.2776 8.26449 21.2776 8.24449 21.2932 8.22671C21.3089 8.21116 21.3336 8.20227 21.3649 8.20227C21.5418 8.21116 21.7994 8.28227 21.88 8.36671C21.9047 8.3956 21.9248 8.42671 21.9405 8.46227L21.945 8.47116H21.9293L21.9248 8.46671C21.889 8.41782 21.7882 8.41782 21.7524 8.42227C21.7412 8.42227 21.7277 8.42671 21.721 8.42671C21.6919 8.43116 21.6695 8.43116 21.6292 8.44227L21.6202 8.44671C21.5956 8.45116 21.5598 8.45782 21.5441 8.4756C21.5396 8.48005 21.5329 8.49116 21.5284 8.50005C21.5082 8.53116 21.4948 8.55116 21.4747 8.55116ZM21.3873 8.4756C21.3985 8.4756 21.4075 8.48671 21.4164 8.50005C21.4209 8.50894 21.4254 8.51116 21.4276 8.5156C21.4321 8.52005 21.4321 8.52005 21.4321 8.52449C21.4366 8.53338 21.4411 8.5356 21.4724 8.5356C21.4836 8.5356 21.4971 8.5156 21.5038 8.50005C21.5127 8.48894 21.515 8.4756 21.5239 8.47116C21.5441 8.4556 21.5799 8.44671 21.609 8.44005L21.618 8.4356C21.6583 8.42449 21.6874 8.42449 21.7143 8.42005C21.7255 8.42005 21.7344 8.42005 21.7456 8.4156C21.7456 8.4156 21.8509 8.40449 21.9069 8.44449C21.8957 8.42005 21.8778 8.40005 21.8621 8.38005C21.786 8.30449 21.5284 8.23116 21.3582 8.22449C21.3291 8.22449 21.3089 8.22894 21.2977 8.24449C21.2821 8.26449 21.2865 8.28894 21.2865 8.28894L21.291 8.30005L21.2798 8.2956C21.0738 8.24449 20.917 8.24005 20.8476 8.28449C20.8364 8.29338 20.8185 8.31338 20.8117 8.3356C20.8364 8.3156 20.8767 8.29116 20.9439 8.28671C21.0603 8.27783 21.0962 8.2956 21.1902 8.36671C21.2731 8.44894 21.347 8.48449 21.3873 8.4756Z" fill="#C09300"/>
<path d="M21.45 8.47784C21.4774 8.47784 21.4996 8.45595 21.4996 8.42895C21.4996 8.40195 21.4774 8.38007 21.45 8.38007C21.4226 8.38007 21.4004 8.40195 21.4004 8.42895C21.4004 8.45595 21.4226 8.47784 21.45 8.47784Z" fill="white"/>
<path d="M21.4995 13.0889C22.8141 12.0844 22.6999 10.6133 22.6999 10.6133C22.6641 10.6222 22.6305 10.6244 22.5991 10.6244C22.3259 10.6244 21.663 10.4689 21.5107 10.2689C21.3449 10.4489 20.6731 10.6244 20.3976 10.6244C20.3618 10.6244 20.3282 10.62 20.2968 10.6133C20.2991 10.6111 20.1804 12.0844 21.4995 13.0889Z" fill="white"/>
<path d="M21.4997 13.1198L21.484 13.1087C20.1739 12.1087 20.2702 10.6287 20.2747 10.6131L20.2791 10.5843L20.3038 10.5887C20.3351 10.5976 20.3687 10.5976 20.4001 10.5976C20.6778 10.5976 21.3362 10.422 21.493 10.2487L21.5132 10.2287L21.5288 10.2487C21.6744 10.4376 22.3261 10.5976 22.5971 10.5976C22.6285 10.5976 22.6621 10.5931 22.6934 10.5887L22.7181 10.5843V10.6087C22.7181 10.6243 22.8144 12.1043 21.5042 13.1043L21.4997 13.1198ZM20.3194 10.6398C20.3105 10.8398 20.315 12.1487 21.4997 13.0598C22.68 12.1487 22.6889 10.8398 22.68 10.6398C22.6509 10.6443 22.6285 10.6487 22.5994 10.6487C22.3328 10.6487 21.6968 10.4998 21.5109 10.3043C21.3093 10.4931 20.6554 10.6487 20.4023 10.6487C20.371 10.6487 20.3463 10.6443 20.3194 10.6398Z" fill="#C09300"/>
<path d="M21.4997 12.9756L21.4885 12.9667C21.0003 12.5823 20.6576 12.0623 20.4919 11.4712C20.4404 11.2756 20.4023 11.08 20.3911 10.8867C20.3866 10.8423 20.3821 10.7823 20.3866 10.7178V10.6978L20.4068 10.7023C20.418 10.7067 20.4269 10.7067 20.4381 10.7067C20.6845 10.7067 21.2735 10.5623 21.4975 10.3912L21.5087 10.3823L21.5199 10.3912C21.7461 10.5823 22.3306 10.7023 22.5635 10.7023C22.5747 10.7023 22.5837 10.7023 22.5949 10.7023H22.615V10.7223C22.615 10.7667 22.6105 10.8334 22.6105 10.8867C22.5993 11.0823 22.5613 11.2778 22.5097 11.4712C22.344 12.0623 21.9969 12.5823 21.5109 12.9667L21.4997 12.9756ZM20.4202 10.74C20.4202 10.7912 20.4247 10.8489 20.4247 10.8845C20.4359 11.0756 20.4695 11.2734 20.5255 11.4645C20.6912 12.0534 21.0182 12.5489 21.4975 12.9334C21.9812 12.5489 22.3082 12.0534 22.4739 11.4645C22.5254 11.2734 22.5635 11.0756 22.5747 10.8845C22.5747 10.8489 22.5792 10.7889 22.5792 10.7445C22.5747 10.7445 22.568 10.7445 22.5635 10.7445C22.3261 10.7445 21.7483 10.6245 21.5064 10.4334C21.2645 10.6045 20.689 10.7445 20.4337 10.7445C20.4314 10.74 20.4269 10.74 20.4202 10.74Z" fill="#C09300"/>
<path fill-rule="evenodd" clip-rule="evenodd" d="M20.3965 10.3912H21.1333V12.9623H20.3965V10.3912Z" fill="#C09300"/>
<path fill-rule="evenodd" clip-rule="evenodd" d="M21.1328 10.3912H21.8696V12.9623H21.1328V10.3912Z" fill="white"/>
<path fill-rule="evenodd" clip-rule="evenodd" d="M21.8672 10.3912H22.604V12.9623H21.8672V10.3912Z" fill="#C09300"/>
</g>
<rect x="0.15" y="0.15" width="42.7" height="23.7" stroke="#EFEFF8" stroke-width="0.3"/>
<defs>
<clipPath id="clip0_684_45218">
<rect width="43" height="24" fill="white"/>
</clipPath>
</defs>
</svg>
