<svg width="44" height="24" viewBox="0 0 44 24" fill="none" xmlns="http://www.w3.org/2000/svg">
<g clip-path="url(#clip0_684_45345)">
<path d="M0.660156 0H43.6602V24H0.660156V0Z" fill="#EA0437"/>
<path d="M0.660156 24H43.6602V12" fill="#4189DD"/>
<path d="M0.660156 0H43.6602V12" fill="#12AD2B"/>
<path d="M10.4707 17.2245C10.0027 17.3534 9.73391 17.7134 9.74063 18.0534L12.0452 18.0445C12.0653 17.6779 11.763 17.3401 11.3016 17.2067C13.5591 17.1601 15.521 16.3223 15.8771 15.7823C15.5255 15.6312 15.1156 15.8756 14.8267 15.8179C15.5165 15.5023 17.5836 14.1734 17.2477 12.749C16.9857 13.5401 16.1951 14.1934 15.8569 14.369C16.6296 13.2045 17.6844 11.9934 16.7684 11.0556C16.8155 11.6001 16.4213 12.1979 16.2466 12.2423C16.6945 11.0134 17.1223 9.46896 16.1503 8.45119C16.278 8.82007 16.2265 9.85563 16.0518 9.9023C15.998 9.06674 15.8547 7.30674 14.9656 7.33341C15.2478 7.5823 15.3709 8.2623 15.3777 8.94896C15.1761 8.47785 14.9454 8.12452 14.4549 7.77785C14.0563 7.02007 13.3486 6.39341 12.6431 5.94452C12.7215 6.49563 12.7887 6.92896 13.5636 7.5023C13.1605 7.47785 12.7551 6.71785 12.3229 6.69563C11.9802 6.68007 11.7092 7.00452 11.1493 6.81785C11.212 7.0023 11.4741 7.0823 11.5278 7.22007C11.4069 7.3023 11.1224 7.20674 10.8851 7.08452C11.212 7.52674 11.7182 7.78452 12.1459 7.69785C12.6566 7.60007 13.2053 7.65119 13.7271 7.94674C13.5927 8.01563 13.0754 8.01341 12.7417 7.97341C13.044 8.27785 13.2478 8.48007 13.7741 8.47563C14.2444 8.47341 14.4908 8.22674 14.6117 8.38008C14.9073 8.72674 15.1044 9.07341 15.353 9.4823C14.8088 9.5423 14.9723 8.87119 14.3654 8.52674C14.0249 9.22674 14.7573 10.0579 15.2567 10.4023C15.2634 10.929 15.3418 11.369 15.5658 11.7712C15.7181 12.0534 15.9129 12.3423 15.839 12.9801C15.5411 12.7645 15.2478 12.0356 15.3553 11.4579C14.9813 11.5601 14.8357 12.2112 15.0104 12.5401C15.1425 12.7912 15.2298 13.269 15.0776 13.4823C14.9297 13.6823 14.9141 13.6601 14.9163 14.0867C14.9208 14.3423 14.7774 14.6445 14.5423 14.8556C14.5916 14.6756 14.6476 14.3645 14.5938 14.1712C14.4079 14.4845 13.9421 14.8067 13.7965 15.1423C13.6532 15.4779 13.6151 16.0623 12.9186 16.1956C12.0228 16.3712 11.7137 16.5267 11.1359 16.7601C11.0709 16.3245 11.2635 15.4201 11.6308 15.4712C11.9892 15.5334 13.0731 15.1001 12.6857 14.1934C12.6095 14.4801 12.3542 14.7579 12.0765 14.7712C12.3744 14.3867 12.9074 13.989 12.6476 13.3445C12.5043 13.6179 12.2758 13.9467 11.9332 14.1312C12.3027 13.429 11.9757 13.2201 11.539 13.7979C11.3733 14.0201 11.2747 14.4667 11.1695 15.0334C10.997 14.5712 11.0082 13.9645 10.8044 13.4712C10.5917 12.9379 11.0866 12.7979 11.3195 12.8401C11.8906 12.9912 12.8447 12.9912 12.773 12.0556C12.5267 12.3712 12.0944 12.469 11.6264 12.3556C12.1504 11.9756 12.5647 11.2601 11.9802 10.8867C11.9601 11.2823 11.651 11.7267 11.2389 11.9312C11.1426 11.5979 11.1426 11.2423 11.2255 10.8534C10.9948 11.0934 10.8268 11.5934 10.6947 12.1623C10.6857 11.6001 10.791 11.1956 10.8716 10.8934C10.9926 10.4512 11.2904 10.7401 11.7495 10.7712C12.1907 10.7956 12.7977 10.5534 12.6812 9.96008C12.5311 10.1956 12.2221 10.2867 11.9063 10.2623C12.287 10.0334 12.9499 9.62674 12.5849 9.0023C12.4326 9.24008 12.3833 9.4423 11.9399 9.51341C12.0564 9.24896 12.0743 8.87563 12.4169 8.72674C11.8055 8.60674 11.4539 9.00452 11.277 9.62896C11.2053 9.19563 11.118 9.03785 11.1023 8.72007C11.4338 8.35563 11.4673 7.6423 10.7507 7.4823C10.7081 7.85119 10.7216 7.93785 10.8022 8.23785C10.4662 8.04008 9.99146 7.93119 9.67792 8.21119C9.89068 8.44008 10.2221 8.6423 10.7328 8.39119C10.6118 8.7823 10.2983 8.71563 9.86828 8.56674C10.1303 9.05785 10.464 9.14452 10.8291 9.08674C11.0217 9.58896 11.0284 9.96896 10.4685 10.7001C10.4954 10.2467 10.4618 9.90674 10.099 9.54008C9.78766 9.23785 9.53458 9.55341 10.0206 10.2267C9.72495 10.0112 9.39125 9.57341 9.29047 9.13563C9.19417 9.67785 9.28151 10.3156 9.58161 10.6734C9.43828 10.8245 9.27703 10.6579 9.03516 10.2867C9.12698 11.4734 9.63536 11.7001 10.3207 11.4379C10.3408 12.089 10.3408 12.6912 10.3789 13.4779C9.98026 12.9067 9.47411 12.4823 9.18969 12.3756C9.10234 12.6956 9.4338 13.1112 9.61745 13.3423C9.33526 13.2845 8.72161 12.8201 8.72161 12.8201C8.65891 13.349 9.3487 13.8379 9.79214 14.0579C9.27031 14.0356 9.03964 13.8379 8.70146 13.5156C8.70818 14.9823 10.3028 14.7267 10.6006 14.5023C10.6387 15.2245 10.6947 16.0579 10.735 16.7801C10.2848 16.7023 10.3207 16.5667 9.93323 16.5312C8.86271 16.489 8.01391 15.2556 7.73396 14.349C7.65333 14.4979 7.71828 14.6534 7.64438 14.8379C7.46969 14.3934 7.24797 13.8179 6.9501 13.549C7.02625 13.809 7.03297 14.0734 7.00833 14.5579C6.90531 14.2445 6.81125 14.1467 6.80453 13.7779C6.81125 13.4934 7.08 13.2845 7.06432 12.8867C7.05313 12.5956 6.78661 11.9645 6.7463 11.4779C6.61641 11.9801 6.53578 12.509 6.33646 12.8201C6.435 12.2845 6.40365 11.9134 6.56937 11.5512C6.76198 11.1712 6.92547 10.8312 6.79781 10.449C6.67464 10.5979 6.71719 10.7312 6.40813 11.0912C6.34094 10.7001 6.80677 10.0734 7.26141 9.82008C7.58167 9.65341 7.98255 9.05563 7.72052 8.64674C7.42042 8.86008 7.28604 9.14896 6.86052 9.64452C7.16286 8.47119 7.94896 8.16452 8.89182 8.16008C9.1001 8.16008 9.52115 8.08452 9.6376 7.81119C9.37333 7.91341 9.05755 7.92674 8.77984 7.87119C8.98365 7.57563 9.41141 7.61341 9.81005 7.61119C10.1236 7.60896 10.6118 7.56674 10.8089 7.12452C10.4282 7.28896 9.83245 7.3223 9.45844 7.20674C10.0542 6.90007 10.9881 6.86674 11.4673 6.46452C10.9209 6.06007 9.55698 6.55785 8.69474 7.14452C8.93661 6.92674 9.31734 6.53785 9.52786 6.22452C9.05531 6.00007 7.86385 7.31119 7.45177 8.09119C7.06208 8.30896 6.90531 8.65341 6.75302 8.89119C6.9613 8.19341 6.9837 7.68896 7.15615 7.11341C5.81911 7.57119 6.37453 10.0223 6.08339 10.609C6.11698 9.96008 6.0901 9.12896 5.82135 8.70008C5.40927 9.01119 5.37568 10.849 5.76312 12.3756C5.62427 11.9667 5.36 11.5845 5.2749 11.0867C4.66573 12.1912 5.63323 13.4934 6.44172 14.5201C5.83255 14.2045 5.2301 13.529 4.83594 12.9601C4.94568 14.9356 7.02401 15.3467 7.34651 15.8312C6.90755 15.629 6.06995 15.229 5.71609 15.649C6.29391 15.7823 6.75526 15.9356 7.12703 16.1756C7.67125 16.8579 8.6925 17.149 10.4707 17.2245Z" fill="#FFC726"/>
</g>
<rect x="0.810156" y="0.15" width="42.7" height="23.7" stroke="#EFEFF8" stroke-width="0.3"/>
<defs>
<clipPath id="clip0_684_45345">
<rect x="0.660156" width="43" height="24" fill="white"/>
</clipPath>
</defs>
</svg>
