<svg width="44" height="24" viewBox="0 0 44 24" fill="none" xmlns="http://www.w3.org/2000/svg">
<g clip-path="url(#clip0_684_45396)">
<path d="M-1.69531 0H46.6797V24H-1.69531V0Z" fill="#DA121A"/>
<path d="M-1.69531 0H46.6797V16H-1.69531V0Z" fill="#FCDD09"/>
<path d="M-1.69531 0H46.6797V8H-1.69531V0Z" fill="#078930"/>
<path d="M22.4922 20C26.945 20 30.5547 16.4183 30.5547 12C30.5547 7.58172 26.945 4 22.4922 4C18.0394 4 14.4297 7.58172 14.4297 12C14.4297 16.4183 18.0394 20 22.4922 20Z" fill="#0F47AF"/>
<path d="M22.4925 5.59998L22.2103 6.46442L23.3749 10.0244H21.8228L21.6504 10.5555H26.6335L27.3748 10.0244H23.9437L22.4925 5.59998Z" fill="#FCDD09"/>
<path d="M24.2305 9.62903L26.2819 6.82458L24.2305 9.62903Z" fill="black"/>
<path d="M26.1744 6.74656L24.1191 9.55255L24.3383 9.71063L26.3936 6.90464L26.1744 6.74656Z" fill="#FCDD09"/>
<path d="M28.6294 10.0246H27.7134L24.6608 12.2246L24.1816 10.7557H23.6172L25.158 15.4602L25.8993 15.9913L24.84 12.7557L28.6294 10.0246Z" fill="#FCDD09"/>
<path d="M25.3027 12.9088L28.624 13.9799L25.3027 12.9088Z" fill="black"/>
<path d="M25.3455 12.7758L25.2617 13.0315L28.5868 14.1034L28.6705 13.8476L25.3455 12.7758Z" fill="#FCDD09"/>
<path d="M26.2807 17.1757L25.9985 16.3113L22.946 14.1113L24.2046 13.2024L24.0322 12.6713L20.0009 15.5802L19.7188 16.4446L22.4914 14.4446L26.2807 17.1757Z" fill="#FCDD09"/>
<path d="M22.6323 14.9312H22.3613V18.4H22.6323V14.9312Z" fill="#FCDD09"/>
<path d="M18.7031 17.1754L19.4444 16.6443L20.609 13.0843L21.8676 13.9932L22.3222 13.6643L18.291 10.7554H17.375L20.1476 12.7554L18.7031 17.1754Z" fill="#FCDD09"/>
<path d="M19.6807 12.9088L16.3594 13.9799L19.6807 12.9088Z" fill="black"/>
<path d="M19.6391 12.777L16.3145 13.8492L16.3982 14.1049L19.7229 13.0327L19.6391 12.777Z" fill="#FCDD09"/>
<path d="M16.3555 10.0242L17.0968 10.5553H20.8705L20.3912 12.0242L20.8458 12.3531L22.3867 7.64863L22.1045 6.78418L21.0452 10.0197H16.3555V10.0242Z" fill="#FCDD09"/>
<path d="M20.7546 9.62903L18.7031 6.82458L20.7546 9.62903Z" fill="black"/>
<path d="M18.813 6.74283L18.5938 6.90088L20.6487 9.70721L20.8679 9.54916L18.813 6.74283Z" fill="#FCDD09"/>
</g>
<rect x="1.14219" y="0.15" width="42.7" height="23.7" stroke="#EFEFF8" stroke-width="0.3"/>
<defs>
<clipPath id="clip0_684_45396">
<rect x="0.992188" width="43" height="24" fill="white"/>
</clipPath>
</defs>
</svg>
