<svg width="44" height="24" viewBox="0 0 44 24" fill="none" xmlns="http://www.w3.org/2000/svg">
<g clip-path="url(#clip0_684_38177)">
<path d="M-1.95703 -0.130432V24.134H46.951V-0.130432H-1.95703Z" fill="#012169"/>
<path d="M-1.95703 -0.130432L46.951 24.134L-1.95703 -0.130432ZM46.951 -0.130432L-1.95703 24.1318L46.951 -0.130432Z" fill="black"/>
<path d="M45.8572 26.3041L22.4961 14.713L-0.864948 26.3041L-3.05078 21.9597L17.0271 11.9997L-3.05078 2.0397L-0.864948 -2.30475L22.4961 9.28636L45.8572 -2.30475L48.0431 2.0397L27.9652 11.9997L48.0431 21.9597L45.8572 26.3041Z" fill="white"/>
<path d="M-1.95703 -0.130432L46.951 24.134L-1.95703 -0.130432ZM46.951 -0.130432L-1.95703 24.1318L46.951 -0.130432Z" fill="black"/>
<path d="M46.2205 25.5794L22.4966 13.8061L-1.22729 25.5794L-2.6875 22.6839L18.8528 11.9994L-2.6875 1.31499L-1.22729 -1.58057L22.4966 10.1928L46.2205 -1.58057L47.6807 1.31499L26.1404 11.9994L47.6807 22.6839L46.2205 25.5794Z" fill="#C8102E"/>
<path d="M22.497 -0.130432V24.134V-0.130432ZM-1.95703 12.0007H46.951H-1.95703Z" fill="black"/>
<path d="M26.573 24.1318H18.4209V16.0451H-1.95703V7.95623H18.4209V-0.130432H26.573V7.95623H46.951V16.0451H26.573V24.1318Z" fill="white"/>
<path d="M22.497 -0.130432V24.134V-0.130432ZM-1.95703 12.0007H46.951H-1.95703Z" fill="black"/>
<path d="M24.9426 24.1318H20.0513V14.4273H-1.95703V9.57401H20.0513V-0.130432H24.9426V9.57401H46.951V14.4273H24.9426V24.1318Z" fill="#C8102E"/>
</g>
<rect x="1.14609" y="0.15" width="42.7" height="23.7" stroke="#EFEFF8" stroke-width="0.3"/>
<defs>
<clipPath id="clip0_684_38177">
<rect x="0.996094" width="43" height="24" fill="white"/>
</clipPath>
</defs>
</svg>
