<svg width="44" height="24" viewBox="0 0 44 24" fill="none" xmlns="http://www.w3.org/2000/svg">
<g clip-path="url(#clip0_684_43514)">
<path d="M43.6543 0H0.654297V24H43.6543V0Z" fill="#FDFDFD"/>
<path d="M9.98685 14.4088C6.98357 14.4088 3.98701 14.4088 0.985965 14.4088C0.665705 14.4088 0.699299 14.4443 0.699299 14.1777C0.699299 12.7377 0.699299 11.2999 0.699299 9.85989C0.699299 9.571 0.652268 9.611 1.0106 9.611C7.00596 9.611 13.0013 9.611 18.99 9.611C19.0952 9.611 19.2184 9.651 19.2945 9.58211C19.3573 9.52211 19.3192 9.42211 19.3192 9.34211C19.3192 6.31544 19.3192 3.29544 19.3192 0.268778C19.3192 0.193223 19.2811 0.0998892 19.3393 0.0443337C19.4065 -0.0156663 19.5252 0.0198893 19.6215 0.0198893C21.3303 0.0198893 23.0436 0.0198893 24.7524 0.0198893C24.8039 0.0198893 24.8577 0.0198893 24.9137 0.0198893C25.0324 0.0243337 25.0368 0.0287781 25.0436 0.131C25.0436 0.182111 25.0436 0.235445 25.0436 0.282111C25.0436 3.30878 25.0436 6.32878 25.0436 9.35544C25.0436 9.43544 25.001 9.53544 25.0772 9.591C25.1443 9.63989 25.2541 9.60655 25.3437 9.60655C31.3435 9.60655 37.3478 9.60655 43.3477 9.60655C43.706 9.60655 43.6522 9.56211 43.6522 9.85544C43.6522 11.3021 43.6522 12.7443 43.6522 14.1932C43.6522 14.4288 43.6814 14.4043 43.3902 14.4043C37.3725 14.4043 31.3569 14.4043 25.3392 14.4043C25.2496 14.4043 25.1376 14.3732 25.0727 14.4199C24.9965 14.4754 25.0391 14.5754 25.0391 14.6554C25.0391 17.6843 25.0391 20.7199 25.0391 23.7488C25.0391 24.0288 25.0816 23.9932 24.7479 23.9932C23.0212 23.9932 21.2967 23.9932 19.57 23.9932C19.2834 23.9932 19.3125 24.0221 19.3125 23.7821C19.3125 20.7532 19.3125 17.7177 19.3125 14.6888C19.3125 14.5999 19.355 14.4932 19.2878 14.4288C19.2162 14.3599 19.0863 14.3999 18.9832 14.3999C15.9867 14.4088 12.9901 14.4088 9.98685 14.4088Z" fill="#FF0000"/>
<path d="M35.3908 21.5845C35.1713 21.6045 34.9608 21.5534 34.7503 21.5557C34.5353 21.5557 34.3203 21.5557 34.1097 21.5557C33.8992 21.5557 33.6887 21.6045 33.4603 21.5845C33.4804 21.4845 33.4983 21.389 33.5118 21.2957C33.5879 20.8912 33.6506 20.4845 33.673 20.0757C33.6775 20.0312 33.6775 19.9868 33.6775 19.9401C33.6775 19.9112 33.6573 19.8912 33.6193 19.8912C33.5678 19.8912 33.514 19.8912 33.458 19.8957C32.8847 19.9245 32.3181 19.9845 31.7537 20.0668C31.7246 20.0712 31.6955 20.0712 31.6574 20.0779C31.6372 19.889 31.6955 19.7134 31.691 19.5379C31.6865 19.3579 31.6955 19.1779 31.691 19.0023C31.682 18.8268 31.6619 18.6468 31.6484 18.4557C31.7627 18.4712 31.859 18.4801 31.953 18.4957C32.4771 18.5668 33.0079 18.6245 33.5431 18.6445C33.673 18.649 33.6775 18.6445 33.673 18.5445C33.6641 18.289 33.6349 18.0334 33.5969 17.7801C33.5543 17.509 33.5073 17.2357 33.458 16.9557C33.6148 16.9268 33.7738 16.9757 33.9306 16.9757C34.0918 16.9757 34.2508 16.9845 34.4121 16.9845C34.5733 16.9845 34.7323 16.9846 34.8936 16.9757C35.0504 16.9668 35.2094 16.9557 35.3661 16.9445C35.4132 16.9957 35.3751 17.0401 35.3706 17.0801C35.3661 17.1245 35.3572 17.169 35.346 17.2112C35.2654 17.6268 35.2027 18.0468 35.1735 18.4668C35.1735 18.4979 35.1691 18.5312 35.1691 18.5623C35.1691 18.6312 35.1825 18.6468 35.2586 18.6423C35.4401 18.6334 35.6259 18.6268 35.8073 18.6134C36.2665 18.5823 36.7144 18.5223 37.1668 18.4579C37.2183 18.5023 37.1959 18.5579 37.1914 18.6023C37.1489 18.9023 37.1489 19.2023 37.1578 19.5023C37.1623 19.6223 37.178 19.7468 37.1869 19.8668C37.1914 19.9357 37.216 20.0068 37.1869 20.0779C36.9674 20.049 36.748 20.0179 36.533 19.9934C36.1186 19.9445 35.7021 19.9023 35.2833 19.8934C35.187 19.889 35.178 19.9023 35.1825 19.9823C35.187 20.2468 35.2206 20.5068 35.2631 20.7668C35.3012 21.0179 35.3527 21.2712 35.3975 21.5268C35.3953 21.5401 35.3908 21.5601 35.3908 21.5845Z" fill="#FF0000"/>
<path d="M31.6611 3.95542C31.7283 3.92653 31.7753 3.94653 31.829 3.95542C32.3688 4.03542 32.9175 4.08653 33.4662 4.12431C33.5132 4.12875 33.5558 4.12875 33.605 4.12875C33.6633 4.12875 33.6901 4.10875 33.6857 4.05987C33.6767 3.91987 33.6655 3.77987 33.6521 3.63987C33.614 3.2532 33.5468 2.86431 33.4662 2.47987C33.4662 2.46876 33.4707 2.45542 33.4796 2.43098C33.6028 2.42209 33.7327 2.44209 33.8559 2.44653C33.9858 2.45098 34.1134 2.46209 34.2433 2.46653C34.3665 2.47098 34.4874 2.47098 34.6106 2.46653C34.7405 2.46209 34.8682 2.45098 34.998 2.44653C35.1279 2.44209 35.2511 2.42209 35.3945 2.43542C35.3743 2.53542 35.3609 2.61987 35.3429 2.70653C35.2623 3.13098 35.1951 3.5532 35.175 3.98209C35.175 4.0132 35.175 4.04653 35.175 4.07764C35.175 4.10875 35.2041 4.12209 35.2377 4.12209C35.3049 4.12209 35.3765 4.12209 35.4437 4.11764C35.9835 4.07764 36.5232 4.0332 37.0562 3.94875C37.0853 3.94431 37.1189 3.93987 37.1458 3.93987C37.1839 3.93987 37.1973 3.95542 37.1973 3.98875C37.1973 4.02875 37.1928 4.06431 37.1884 4.10431C37.1301 4.53987 37.1301 4.97098 37.1884 5.40653C37.1928 5.43764 37.1928 5.47098 37.1928 5.50209C37.1928 5.5132 37.1884 5.52653 37.1794 5.54653C37.1279 5.56653 37.0652 5.55098 37.007 5.54209C36.4448 5.4532 35.876 5.41098 35.3026 5.3732C35.2735 5.3732 35.2399 5.36875 35.213 5.3732C35.1929 5.37764 35.175 5.39764 35.1705 5.40875C35.166 5.44431 35.166 5.48431 35.1705 5.52431C35.1951 5.95098 35.2556 6.37542 35.3429 6.79986C35.3564 6.86875 35.3721 6.93986 35.3855 7.00875C35.3945 7.05986 35.3721 7.07986 35.3138 7.07764C34.8413 7.02653 34.3687 7.0332 33.8962 7.04875C33.773 7.0532 33.6521 7.06875 33.5334 7.07764C33.4751 7.08209 33.4527 7.06209 33.4662 7.00875C33.5468 6.6332 33.6095 6.2532 33.6476 5.86875C33.661 5.71986 33.6722 5.57764 33.6767 5.42875C33.6767 5.3932 33.6521 5.36875 33.605 5.3732C33.399 5.38431 33.1952 5.3932 32.9891 5.4132C32.6017 5.44875 32.2165 5.48431 31.8335 5.54875C31.782 5.55764 31.7283 5.55764 31.6655 5.56431C31.6364 5.37986 31.7036 5.20875 31.6991 5.02875C31.6947 4.84875 31.6947 4.66875 31.6991 4.4932C31.7036 4.30431 31.6521 4.12875 31.6611 3.95542Z" fill="#FF0000"/>
<path d="M12.6979 3.95349C12.6934 4.2246 12.6508 4.4846 12.6508 4.7446C12.6508 5.00904 12.6934 5.2646 12.6979 5.52016C12.6598 5.56904 12.6083 5.54904 12.568 5.5446C12.1917 5.48904 11.8132 5.4446 11.437 5.41349C11.2085 5.39349 10.9779 5.38238 10.7539 5.3646C10.7113 5.36016 10.6777 5.38016 10.6777 5.41571C10.6777 5.48016 10.6777 5.5446 10.6822 5.60682C10.7248 6.05349 10.783 6.49793 10.8771 6.93793C10.8816 6.96904 10.8905 7.00238 10.8905 7.03349C10.8905 7.05349 10.8704 7.0646 10.848 7.06904C10.8345 7.06904 10.8188 7.06904 10.8009 7.06904C10.2231 7.01793 9.6453 7.01793 9.06301 7.06904C8.97343 7.07793 8.95775 7.06015 8.97343 6.98015C9.0115 6.76015 9.05853 6.54015 9.09212 6.31571C9.1302 6.0246 9.15931 5.73127 9.18843 5.43571C9.19291 5.38016 9.16379 5.35571 9.09212 5.36016C8.73379 5.38904 8.37546 5.41127 8.02384 5.4446C7.79093 5.46904 7.55577 5.5046 7.32285 5.53349C7.29374 5.53793 7.26015 5.54238 7.23327 5.54238C7.17504 5.54682 7.14817 5.52682 7.16161 5.47349C7.1952 5.30238 7.19968 5.12904 7.20416 4.95793C7.21312 4.64682 7.21312 4.33127 7.16161 4.01793C7.16161 4.00905 7.16161 4.00682 7.16161 3.99793C7.15713 3.93793 7.18176 3.91793 7.25791 3.92905C7.60056 3.9846 7.94994 4.0246 8.29931 4.05793C8.56582 4.08238 8.83009 4.09793 9.0966 4.11349C9.18171 4.11793 9.20186 4.09793 9.19739 4.02238C9.15931 3.55127 9.1078 3.07793 9.00254 2.61571C8.99358 2.5646 8.98239 2.51571 8.98239 2.4646C8.97791 2.43349 9.00702 2.42016 9.04061 2.42016C9.15483 2.4246 9.26905 2.42905 9.38327 2.44016C9.77968 2.47127 10.1761 2.46905 10.5725 2.43571C10.6195 2.43127 10.6621 2.43127 10.7113 2.42682C10.8883 2.41571 10.9263 2.38682 10.8838 2.57793C10.783 3.02905 10.7225 3.48905 10.6889 3.94905C10.6755 4.13793 10.6755 4.12905 10.8995 4.11349C11.4526 4.08238 12.0058 4.02905 12.5568 3.9446C12.5881 3.94905 12.6307 3.93349 12.6979 3.95349Z" fill="#FF0000"/>
<path d="M8.98095 16.9467C9.20939 16.9578 9.41991 16.9755 9.63491 16.9778C9.84095 16.9822 10.0448 16.9822 10.2553 16.9778C10.4658 16.9733 10.6808 16.9578 10.9048 16.9467C10.8801 17.0667 10.8667 17.1755 10.842 17.2778C10.7659 17.6578 10.7233 18.0378 10.6853 18.42C10.6808 18.4444 10.6808 18.4711 10.6808 18.4955C10.6718 18.6511 10.6763 18.6444 10.8488 18.64C11.3728 18.62 11.8991 18.5644 12.4187 18.4911C12.5083 18.48 12.5956 18.4711 12.6964 18.46C12.7099 18.6489 12.6673 18.8244 12.6628 19.0044C12.6583 19.1844 12.6583 19.3644 12.6628 19.54C12.6673 19.7155 12.7009 19.8911 12.7009 20.0844C12.5665 20.0689 12.4568 20.0533 12.347 20.0355C11.8543 19.9667 11.3639 19.92 10.8667 19.8955C10.8196 19.8911 10.7771 19.8911 10.7278 19.8955C10.6898 19.8955 10.6763 19.9155 10.6763 19.9467C10.6763 20.0111 10.6763 20.0755 10.6853 20.1378C10.7278 20.5844 10.7861 21.0289 10.8868 21.4689C10.8913 21.4933 10.8958 21.52 10.9003 21.5444C10.9048 21.5755 10.8801 21.5889 10.842 21.5889C10.7793 21.5889 10.7189 21.5844 10.6606 21.58C10.1791 21.5355 9.7021 21.5355 9.21835 21.58C9.1422 21.5889 9.07053 21.5889 8.97871 21.5911C8.95855 21.5267 8.97423 21.4711 8.98767 21.4155C9.09293 20.9444 9.14892 20.4689 9.18923 19.9889C9.19371 19.9044 9.18027 19.8889 9.07501 19.8933C8.80402 19.9089 8.52631 19.9222 8.25309 19.9489C7.91939 19.98 7.59017 20.0289 7.25647 20.0733C7.16689 20.0844 7.14673 20.0733 7.16017 19.9933C7.2184 19.6267 7.21168 19.2533 7.19376 18.8822C7.18928 18.7778 7.17361 18.6778 7.16465 18.5778C7.16017 18.5422 7.14001 18.5022 7.1848 18.4578C7.28111 18.4689 7.38637 18.4867 7.48939 18.4978C8.00001 18.5667 8.51512 18.6222 9.03694 18.6378C9.07501 18.6378 9.11309 18.6422 9.15116 18.6333C9.1646 18.6289 9.18475 18.6089 9.18923 18.5933C9.19371 18.5822 9.19371 18.5689 9.18923 18.5578C9.15116 18.0867 9.09965 17.6133 8.99439 17.1511C8.98543 17.0911 8.96527 17.0267 8.98095 16.9467Z" fill="#FF0000"/>
</g>
<rect x="0.804297" y="0.15" width="42.7" height="23.7" stroke="#EFEFF8" stroke-width="0.3"/>
<defs>
<clipPath id="clip0_684_43514">
<rect x="0.654297" width="43" height="24" fill="white"/>
</clipPath>
</defs>
</svg>
