<svg width="44" height="24" viewBox="0 0 44 24" fill="none" xmlns="http://www.w3.org/2000/svg">
<g clip-path="url(#clip0_684_45266)">
<path d="M0.996094 0H43.9961V24H0.996094V0Z" fill="#E32118"/>
<path d="M0.996094 0H43.9961V16H0.996094V0Z" fill="white"/>
<path d="M0.996094 0H43.9961V8H0.996094V0Z" fill="#3E9A00"/>
<path d="M0.996094 0V24L13.4258 12L0.996094 0Z" fill="#0073CE"/>
<path d="M20.5605 9.58881H24.4216V13.5999C24.4216 14.951 22.7397 13.8977 22.4933 14.6288C22.2626 13.8977 20.574 14.9599 20.574 13.5177C20.5695 12.1199 20.5605 9.58881 20.5605 9.58881Z" fill="white"/>
<path d="M22.5141 14.6378H22.4693C22.3797 14.349 22.0527 14.3556 21.672 14.3623C21.3294 14.369 20.98 14.3734 20.7583 14.1623C20.6172 14.0245 20.55 13.8134 20.55 13.5223C20.55 12.1401 20.541 9.61563 20.541 9.58896L20.5657 9.56451H24.4267L24.4513 9.58896V13.6001C24.4513 13.8667 24.3886 14.0556 24.2587 14.1823C24.0437 14.3867 23.6944 14.3778 23.3539 14.3645C22.971 14.3512 22.6149 14.3423 22.5141 14.6378ZM21.8377 14.3134C22.1311 14.3134 22.3887 14.3423 22.4917 14.5645C22.6283 14.2956 22.9777 14.3045 23.3472 14.3156C23.6764 14.3245 24.0191 14.3356 24.2139 14.1445C24.3349 14.0267 24.3931 13.8512 24.3931 13.5978V9.61118H20.5858C20.5858 9.87563 20.5948 12.209 20.5948 13.5201C20.5948 13.8001 20.6575 14.0001 20.7874 14.1267C20.9934 14.3267 21.3338 14.3223 21.6675 14.3156C21.7258 14.3134 21.7817 14.3134 21.8377 14.3134Z" fill="black"/>
<path d="M22.7692 13.9888C22.7692 13.9888 22.7177 14.0399 22.6281 13.9977C22.5385 13.9577 22.5273 11.4266 22.5273 11.4266C22.7289 11.2066 22.8902 11.1355 22.8902 11.1355L23.0111 11.2355C22.5565 11.4666 22.5968 11.7955 22.6393 12.3666C22.6483 12.5777 22.6483 12.8466 22.6998 13.1066C22.7692 13.4377 22.9103 13.7155 22.9215 13.9266C22.9282 14.0599 22.7692 13.9888 22.7692 13.9888Z" fill="#73452B"/>
<path d="M22.6959 14.0221C22.6757 14.0221 22.6533 14.0199 22.6265 14.0066C22.5369 13.9666 22.5234 11.691 22.5234 11.4332V11.431C22.7228 11.211 22.8863 11.1399 22.8885 11.1399H22.8907L23.0139 11.2421V11.251C22.5794 11.4732 22.6018 11.791 22.6399 12.3199L22.6421 12.3777C22.6444 12.4199 22.6444 12.4621 22.6489 12.5066C22.6556 12.6954 22.6645 12.9088 22.7026 13.1154C22.734 13.2621 22.781 13.4043 22.8213 13.5266C22.8728 13.6866 22.9176 13.8199 22.9243 13.9377C22.9266 13.971 22.9176 13.9954 22.8997 14.0088C22.8594 14.0354 22.7855 14.0088 22.7698 14.0021C22.7631 13.9999 22.7362 14.0221 22.6959 14.0221ZM22.5324 11.4332C22.5346 12.451 22.566 13.9688 22.6287 13.9977C22.716 14.0377 22.7608 13.991 22.7653 13.9888L22.7676 13.9866H22.7698C22.7698 13.9866 22.8549 14.0221 22.893 13.9954C22.9087 13.9843 22.9176 13.9621 22.9131 13.9332C22.9064 13.8154 22.8616 13.6821 22.8101 13.5243C22.7676 13.4021 22.7228 13.2599 22.6914 13.1132C22.6511 12.9021 22.6421 12.691 22.6377 12.5021C22.6354 12.4577 22.6354 12.4154 22.6309 12.3732L22.6287 12.3154C22.5884 11.7843 22.5682 11.4666 23.0005 11.2421L22.8885 11.1488C22.8661 11.1577 22.7138 11.231 22.5324 11.4332Z" fill="black"/>
<path d="M22.4566 11.0801H22.638C22.4857 12.529 22.6179 13.3912 22.6179 13.809C22.6179 13.949 22.6985 13.9978 22.6873 13.9978C22.5059 14.1978 22.4141 13.989 22.4141 13.989L22.4566 11.0801Z" fill="#73452B"/>
<path d="M22.54 14.0909C22.5333 14.0909 22.5289 14.0909 22.5221 14.0909C22.4505 14.0798 22.4124 13.9976 22.4102 13.9909L22.4505 11.082L22.4572 11.0754H22.6386L22.6453 11.082C22.5311 12.1732 22.5759 12.9243 22.605 13.4198C22.614 13.5821 22.6229 13.7109 22.6229 13.8132C22.6229 13.922 22.6722 13.9754 22.6856 13.9932C22.6923 13.9998 22.6946 14.0021 22.6923 14.0043V14.0065H22.6901C22.6363 14.0598 22.5848 14.0909 22.54 14.0909ZM22.4191 13.9887C22.4214 13.9976 22.4594 14.0687 22.5221 14.0776C22.5714 14.0865 22.6229 14.0598 22.6789 13.9976L22.6767 13.9954C22.661 13.9776 22.6095 13.9198 22.6095 13.8087C22.6095 13.7065 22.6005 13.5776 22.5916 13.4154C22.5624 12.9198 22.5154 12.1732 22.6274 11.0843H22.4549L22.4191 13.9887Z" fill="black"/>
<path d="M22.1789 13.9889C22.0065 14.0689 21.9819 13.9111 21.9953 13.8889C22.3671 13.1378 22.5306 11.4889 22.1857 11.3089L22.2058 11.1489C22.3357 11.1889 22.4567 11.36 22.4567 11.36C22.5082 13.2111 22.4567 13.9667 22.4275 13.9978C22.2461 14.1867 22.1767 13.9734 22.1677 13.9534" fill="#A36629"/>
<path d="M22.2906 14.08C22.2839 14.08 22.2794 14.08 22.2727 14.0778C22.2234 14.0689 22.1943 14.0267 22.1786 13.9933C22.0913 14.0333 22.0465 14.0111 22.0174 13.9867C21.9838 13.9533 21.9771 13.9 21.986 13.8867C22.1607 13.5356 22.3041 12.9467 22.3488 12.3844C22.3981 11.8044 22.3309 11.3956 22.1786 11.3133L22.1764 11.3111L22.1966 11.1489L22.2033 11.1467C22.3332 11.1867 22.4541 11.3511 22.4563 11.36V11.3622C22.5056 13.1556 22.4586 13.9689 22.4227 14.0022C22.378 14.0511 22.3332 14.08 22.2906 14.08ZM22.1697 13.9511C22.1697 13.9533 22.1719 13.9533 22.1719 13.96C22.1809 13.9844 22.2145 14.06 22.2749 14.0711C22.3175 14.08 22.3645 14.0533 22.4227 13.9956C22.4474 13.9711 22.5034 13.2733 22.4519 11.3644C22.4407 11.3489 22.3287 11.2 22.21 11.16L22.1921 11.3111C22.3488 11.3978 22.4138 11.8 22.3645 12.3911C22.3152 12.9556 22.1742 13.5467 21.9995 13.8978C21.9972 13.9067 21.9995 13.9556 22.0308 13.9844C22.0644 14.0178 22.1114 14.0178 22.1786 13.9911C22.1764 13.9822 22.1697 13.9733 22.1697 13.9667C22.1697 13.9644 22.1674 13.96 22.1674 13.96L22.1697 13.9511Z" fill="black"/>
<path d="M22.16 13.9553C22.1488 13.8886 22.1914 13.782 22.2406 13.6464C22.3168 13.4553 22.4108 13.2109 22.3974 12.962H22.4064C22.4176 13.2175 22.3257 13.4575 22.2496 13.6531C22.1981 13.7886 22.1555 13.8931 22.169 13.9598L22.16 13.9553Z" fill="black"/>
<path d="M22.774 13.9888H22.765C22.7831 13.7888 22.7493 13.571 22.6523 13.311L22.6614 13.3088C22.756 13.571 22.7921 13.7888 22.774 13.9888Z" fill="black"/>
<path d="M23.0502 10.4001C23.1106 10.3312 23.1106 10.3312 23.2226 10.3312C23.2428 10.1801 23.4936 10.1801 23.516 10.3712C23.7176 10.3312 23.7579 10.4512 23.6773 10.5712C23.8676 10.5201 24.0401 10.5712 23.9886 10.7912C24.3312 10.8801 24.2013 11.1201 24.049 11.1712C24.0289 11.3223 23.8878 11.3712 23.6952 11.3112C23.4533 11.4823 23.3122 11.4223 23.2025 11.2512C22.9315 11.2912 22.9091 11.2312 22.7881 11.0801C22.5754 11.169 22.5373 11.169 22.3559 11.0601C22.3469 11.2001 22.2954 11.1601 22.2036 11.149C22.2126 11.329 22.1431 11.409 21.9819 11.349C22.1028 11.5979 21.7915 11.709 21.6392 11.5001C21.4981 11.509 21.4869 11.4712 21.4175 11.4201C21.357 11.6201 21.1353 11.5912 21.095 11.4801C20.8128 11.4401 20.8442 11.2912 21.0748 11.2801C21.095 11.1201 21.2361 11.1512 21.3257 11.169C21.3346 11.069 21.3951 11.089 21.4466 11.109C21.4175 11.0401 21.4377 10.9979 21.5272 10.9801C21.3973 10.809 21.4757 10.749 21.6079 10.689C21.5384 10.529 21.6594 10.5379 21.749 10.529C21.74 10.3579 21.7893 10.329 21.9707 10.309C21.9505 10.249 21.9796 10.1979 22.0827 10.1979C22.0222 10.0268 22.1028 9.98678 22.2842 10.0179C22.3133 9.77123 22.8486 9.889 22.8083 10.229C22.9606 10.2512 23.0121 10.2801 23.0502 10.4001Z" fill="#009A3B"/>
<path d="M21.8403 11.6157C21.7709 11.6157 21.6947 11.5824 21.6387 11.5046C21.5267 11.5135 21.4976 11.4868 21.4551 11.4513C21.4461 11.4424 21.4372 11.4357 21.426 11.4268C21.3946 11.5135 21.3319 11.5668 21.2513 11.5713C21.1818 11.5735 21.1214 11.5379 21.0967 11.4846C20.9422 11.4646 20.8907 11.4091 20.8907 11.3668C20.8929 11.3157 20.9668 11.2802 21.0743 11.2735C21.0811 11.2246 21.099 11.1935 21.1281 11.1713C21.1818 11.1313 21.2669 11.1513 21.3252 11.1624C21.3274 11.1268 21.3409 11.1046 21.3588 11.0935C21.3834 11.0779 21.4125 11.0868 21.4394 11.1002C21.4282 11.0691 21.4282 11.0468 21.4372 11.0246C21.4484 11.0002 21.4775 10.9846 21.5178 10.9735C21.4663 10.9046 21.4461 10.8513 21.4573 10.8046C21.4685 10.7535 21.52 10.7202 21.5984 10.6824C21.5782 10.6313 21.5738 10.5935 21.5894 10.5691C21.6096 10.5335 21.6656 10.5291 21.7171 10.5246C21.7261 10.5246 21.735 10.5246 21.7417 10.5224C21.7328 10.3535 21.7843 10.3224 21.9635 10.3024C21.9545 10.2757 21.9567 10.2513 21.9724 10.2313C21.9903 10.2068 22.0239 10.1913 22.0754 10.1913C22.0508 10.1202 22.0508 10.0713 22.0777 10.0379C22.1068 10.0024 22.1717 9.9935 22.2792 10.0068C22.2949 9.9135 22.3823 9.86239 22.5054 9.87795C22.6712 9.89795 22.8324 10.0313 22.8145 10.2179C22.9534 10.2357 23.0116 10.2668 23.0541 10.3824C23.1079 10.3202 23.1146 10.3157 23.2199 10.3157C23.2311 10.2402 23.2982 10.2068 23.3587 10.2068C23.3587 10.2068 23.3587 10.2068 23.361 10.2068C23.4304 10.2068 23.5088 10.2557 23.5222 10.3535C23.614 10.3357 23.6767 10.3513 23.7059 10.3957C23.7327 10.4357 23.726 10.4913 23.6879 10.5513C23.8066 10.5246 23.9052 10.5357 23.9567 10.5868C23.9992 10.6291 24.0149 10.6913 23.9925 10.7757C24.1762 10.8268 24.2075 10.9135 24.2075 10.9646C24.2098 11.0535 24.1314 11.1357 24.0508 11.1624C24.0418 11.2224 24.0149 11.2668 23.9701 11.2935C23.9074 11.3357 23.8066 11.3379 23.6947 11.3024C23.5804 11.3824 23.4797 11.4157 23.3946 11.3979C23.3229 11.3824 23.2557 11.3313 23.1952 11.2424C22.9444 11.2779 22.9041 11.2268 22.8078 11.1046C22.7988 11.0957 22.7921 11.0846 22.7831 11.0713C22.5749 11.1624 22.5301 11.1579 22.3576 11.0535C22.3554 11.1024 22.3419 11.1291 22.3285 11.1424C22.3084 11.1579 22.2837 11.1513 22.2479 11.1446C22.2367 11.1424 22.2232 11.1379 22.2076 11.1379C22.2143 11.2379 22.1919 11.3024 22.1471 11.3357C22.1113 11.3624 22.0575 11.3668 21.9903 11.3424C22.0418 11.4602 21.9971 11.5379 21.9366 11.5735C21.9097 11.6068 21.8761 11.6157 21.8403 11.6157ZM21.641 11.4957C21.7216 11.6091 21.8515 11.6268 21.9321 11.5824C21.9903 11.5491 22.0329 11.4691 21.9769 11.3513L21.9836 11.3446C22.053 11.3713 22.1068 11.3713 22.1449 11.3446C22.1874 11.3135 22.2053 11.2491 22.1986 11.1491L22.2053 11.1424C22.221 11.1446 22.2367 11.1491 22.2501 11.1491C22.2837 11.1557 22.3084 11.1579 22.3218 11.1468C22.3375 11.1357 22.3464 11.1046 22.3487 11.0557L22.3576 11.0535C22.5368 11.1624 22.5749 11.1624 22.7876 11.0735H22.7899L22.7921 11.0757C22.8011 11.0868 22.81 11.1002 22.819 11.1113C22.9153 11.2335 22.9511 11.2802 23.1997 11.2424H23.2019L23.2042 11.2446C23.2647 11.3335 23.3274 11.3846 23.3968 11.4002C23.4774 11.4157 23.576 11.3846 23.6902 11.3046H23.6924H23.6947C23.8066 11.3402 23.9007 11.3379 23.9634 11.2979C24.006 11.2713 24.0328 11.2268 24.0418 11.1691V11.1668H24.044C24.1202 11.1424 24.1986 11.0624 24.1963 10.9757C24.1941 10.8957 24.1179 10.8313 23.9836 10.7957L23.9813 10.7891C23.9992 10.7046 23.988 10.6446 23.9477 10.6068C23.8962 10.5557 23.7954 10.5468 23.6745 10.5779L23.6678 10.5691C23.7081 10.5091 23.7171 10.4491 23.6924 10.4135C23.6655 10.3713 23.6028 10.3602 23.5133 10.3779L23.5065 10.3757C23.4976 10.2757 23.4214 10.2313 23.3542 10.2313C23.3542 10.2313 23.3542 10.2313 23.352 10.2313C23.2938 10.2313 23.2311 10.2646 23.2221 10.3357V10.3379H23.2131C23.1034 10.3379 23.1034 10.3379 23.0474 10.4068L23.0385 10.4046C22.9981 10.2913 22.9578 10.2579 22.7988 10.2357L22.7966 10.2291C22.8212 10.0246 22.6353 9.91128 22.4965 9.89572C22.4069 9.88461 22.2949 9.91128 22.2815 10.0224L22.2748 10.0246C22.1695 10.0068 22.1046 10.0157 22.0777 10.0491C22.053 10.0802 22.053 10.1268 22.0799 10.2002L22.0732 10.2068C22.0239 10.2068 21.9881 10.2179 21.9724 10.2424C21.9612 10.2602 21.9567 10.2846 21.9657 10.3113L21.9635 10.3179C21.7843 10.3379 21.7373 10.3668 21.7462 10.5335L21.744 10.5402C21.735 10.5402 21.7238 10.5424 21.7149 10.5424C21.6656 10.5446 21.6141 10.5513 21.5939 10.5824C21.5782 10.6068 21.585 10.6424 21.6051 10.6935L21.6029 10.7002C21.5245 10.7357 21.473 10.7691 21.4618 10.8179C21.4506 10.8602 21.4707 10.9135 21.5245 10.9824L21.5223 10.9913C21.4775 11.0002 21.4506 11.0157 21.4372 11.0402C21.4282 11.0579 21.4304 11.0846 21.4439 11.1179L21.4372 11.1246C21.4058 11.1135 21.3744 11.1002 21.3521 11.1157C21.3364 11.1246 21.3274 11.1491 21.3229 11.1824L21.3162 11.1846C21.258 11.1735 21.1751 11.1535 21.1236 11.1913C21.0967 11.2091 21.0788 11.2446 21.0721 11.2913V11.2935H21.0699C20.9489 11.3002 20.8952 11.3424 20.8907 11.3779C20.8885 11.4135 20.94 11.4646 21.09 11.4868H21.0923V11.4891C21.1102 11.5402 21.1684 11.5735 21.2311 11.5735C21.2334 11.5735 21.2334 11.5735 21.2378 11.5735C21.3162 11.5713 21.3789 11.5157 21.408 11.4291L21.417 11.4268C21.4327 11.4357 21.4439 11.4468 21.4528 11.4557C21.5021 11.4802 21.529 11.5024 21.641 11.4957Z" fill="black"/>
<path d="M22.2613 10.5199H22.2523C22.2523 10.4332 22.221 10.3666 22.1762 10.3554C22.1426 10.3466 22.109 10.371 22.0799 10.4243L22.0709 10.4221C22.0642 10.3421 22.0351 10.3354 22.0037 10.3266C21.9948 10.3243 21.9836 10.3199 21.9746 10.3177L21.9768 10.3088C21.9858 10.311 21.9948 10.3154 22.0037 10.3177C22.0351 10.3266 22.0664 10.3332 22.0754 10.4088C22.1179 10.3466 22.156 10.3421 22.1762 10.3488C22.2277 10.3599 22.2613 10.4288 22.2613 10.5199Z" fill="black"/>
<path d="M22.6337 10.4512C22.6068 10.4112 22.5621 10.389 22.5195 10.3912C22.4993 10.3912 22.4702 10.4001 22.4523 10.4334L22.4434 10.4267C22.459 10.4001 22.4859 10.3823 22.5195 10.3823C22.5598 10.3801 22.6046 10.4001 22.6337 10.4334C22.627 10.3334 22.6942 10.2979 22.7457 10.2712C22.7703 10.2556 22.795 10.2445 22.8084 10.2267L22.8174 10.2334C22.8017 10.2534 22.7771 10.2667 22.7502 10.2823C22.6964 10.3134 22.6315 10.3445 22.6449 10.4512H22.6337Z" fill="black"/>
<path d="M23.0051 10.6222L22.9961 10.6156C23.0322 10.5578 23.0457 10.4445 23.0457 10.4H23.0547C23.0569 10.4378 23.0479 10.56 23.0051 10.6222Z" fill="black"/>
<path d="M23.4657 10.6222L23.459 10.6133C23.5083 10.58 23.5911 10.5711 23.6404 10.5689C23.6561 10.5689 23.6695 10.5667 23.6695 10.5667C23.6695 10.5667 23.6695 10.5667 23.6673 10.5689H23.6695L23.6717 10.5667L23.674 10.5733C23.6717 10.58 23.665 10.58 23.6337 10.5822C23.5956 10.5844 23.5127 10.5889 23.4657 10.6222Z" fill="black"/>
<path d="M23.872 11.1843L23.8631 11.1821C23.8631 11.1421 23.8631 11.0376 23.7578 11.0376V11.0287C23.8608 11.0287 23.872 11.1221 23.872 11.1687C23.9303 11.1065 24.0019 11.1421 24.0423 11.1621C24.0445 11.1643 24.049 11.1643 24.0512 11.1687L24.049 11.1776C24.0467 11.1776 24.0423 11.1754 24.04 11.171C23.9975 11.1487 23.9235 11.111 23.872 11.1843Z" fill="black"/>
<path d="M23.698 11.3111H23.689C23.689 11.2111 23.671 11.1845 23.6484 11.1556L23.6575 11.1489C23.6777 11.1778 23.698 11.2089 23.698 11.3111Z" fill="black"/>
<path d="M23.2062 11.251H23.1973C23.1973 11.2199 23.2241 11.1755 23.2645 11.1577C23.298 11.1399 23.3339 11.1466 23.3675 11.1688L23.3608 11.1777C23.3249 11.151 23.2913 11.1577 23.2712 11.1688C23.2309 11.1844 23.2062 11.2221 23.2062 11.251Z" fill="black"/>
<path d="M22.7827 11.0799H22.7737C22.7737 11.071 22.7737 11.0621 22.7715 11.0488C22.7647 11.0066 22.7602 10.9488 22.8165 10.9221L22.8188 10.931C22.767 10.951 22.7737 11.0066 22.7782 11.0443C22.7827 11.0599 22.7827 11.0688 22.7827 11.0799Z" fill="black"/>
<path d="M21.6347 11.5019L21.6257 11.4997C21.6369 11.4464 21.6615 11.4197 21.6839 11.3997C21.7019 11.3842 21.7108 11.373 21.7086 11.3508C21.7019 11.3086 21.6795 11.2753 21.6414 11.2642C21.5988 11.2486 21.5496 11.2664 21.5048 11.3153L21.498 11.3086C21.5496 11.2575 21.6011 11.2397 21.6459 11.2553C21.6862 11.2664 21.7131 11.3064 21.7175 11.3508C21.7243 11.3753 21.7086 11.3908 21.6907 11.4086C21.6683 11.4242 21.6436 11.4486 21.6347 11.5019Z" fill="black"/>
<path d="M21.8459 11.3733C21.828 11.3422 21.7675 11.3378 21.7093 11.3556L21.707 11.3467C21.7675 11.3267 21.8302 11.3356 21.8548 11.3667L21.8459 11.3733Z" fill="black"/>
<path d="M21.737 10.9822C21.6765 10.9511 21.5758 10.9422 21.5399 10.9822L21.5332 10.9755C21.5758 10.9333 21.6743 10.9422 21.7415 10.9755L21.737 10.9822Z" fill="black"/>
<path d="M21.9169 10.8113H21.9079C21.8833 10.7402 21.8183 10.7424 21.7668 10.7446C21.7579 10.7446 21.7489 10.7446 21.7422 10.7446V10.7357C21.7489 10.7357 21.7579 10.7357 21.7668 10.7357C21.8161 10.7335 21.8855 10.729 21.9146 10.8024C21.993 10.6846 22.0535 10.6713 22.0804 10.6713C22.1005 10.6713 22.1207 10.6824 22.1296 10.7024L22.1207 10.7046C22.114 10.689 22.1005 10.6802 22.0804 10.6802C22.0535 10.6779 21.9953 10.6913 21.9169 10.8113Z" fill="black"/>
<path d="M22.624 10.8713C22.5389 10.7269 22.4001 10.6558 22.3284 10.6824L22.3262 10.6736C22.4113 10.6402 22.5501 10.7269 22.6285 10.8558C22.6621 10.7713 22.7091 10.7691 22.7562 10.7669C22.7674 10.7669 22.7763 10.7647 22.7898 10.7647L22.792 10.7735C22.7808 10.7758 22.7674 10.7758 22.7584 10.7758C22.7091 10.778 22.6688 10.7824 22.6352 10.8691L22.624 10.8713Z" fill="black"/>
<path d="M23.4182 10.9823C23.416 10.98 23.4115 10.9734 23.4093 10.9711C23.3667 10.9178 23.2906 10.82 23.1741 10.8756L23.1719 10.8667C23.2995 10.8089 23.3779 10.9111 23.4205 10.9667C23.4227 10.9689 23.4227 10.9689 23.4272 10.9734C23.4877 10.8956 23.5392 10.8956 23.5996 10.8956V10.9045C23.5392 10.9045 23.4899 10.9045 23.4339 10.9823H23.4182Z" fill="black"/>
<path d="M21.9543 11.1112L21.9453 11.1045C21.961 11.08 21.9856 11.0623 22.017 11.0556C22.0439 11.0489 22.0707 11.0556 22.0954 11.0667C22.0931 11.0223 22.1066 10.9867 22.1357 10.9667C22.1536 10.9556 22.1782 10.9512 22.1961 10.9601L22.1939 10.9689C22.1782 10.9601 22.1603 10.9623 22.1446 10.9756C22.1178 10.9934 22.1043 11.0289 22.111 11.0756L22.1021 11.0823C22.0774 11.0667 22.0506 11.0645 22.0237 11.0667C21.9946 11.0756 21.9699 11.0912 21.9543 11.1112Z" fill="black"/>
<path d="M22.3508 9.02675L22.1291 9.03564L22.0171 9.23342L21.8962 9.04453L21.6745 9.05342L21.7752 8.85564L21.6543 8.66675L21.8872 8.65786L21.988 8.46008L22.1089 8.64897L22.3307 8.64008L22.2299 8.83786L22.3508 9.02675Z" fill="#FFD700"/>
<path d="M22.0032 9.24201L21.8889 9.06201L21.6762 9.0709L21.6605 9.04646L21.7568 8.85757L21.6426 8.67757L21.6583 8.6509L21.88 8.64201L21.9763 8.45312H22.0054L22.1196 8.63312L22.3301 8.62424L22.3458 8.64868L22.2495 8.83757L22.3637 9.01757L22.348 9.04424L22.1353 9.05312L22.03 9.24201H22.0032ZM21.9068 9.02646L22.0188 9.19757L22.1196 9.01757L22.3189 9.00868L22.2092 8.83757L22.2988 8.65757L22.0972 8.66646L21.9875 8.49535L21.8979 8.67535L21.6851 8.68424L21.7949 8.85535L21.7053 9.03535L21.9068 9.02646Z" fill="black"/>
<path d="M21.4004 9.10029L21.1786 9.15362L21.1182 9.36695L20.9569 9.20695L20.7442 9.25806L20.8046 9.04473L20.6523 8.88251L20.8629 8.82918L20.9233 8.61584L21.0846 8.77584L21.3063 8.72473L21.2369 8.93806L21.4004 9.10029Z" fill="#FFD700"/>
<path d="M21.1081 9.37775L20.9536 9.22442L20.752 9.27553L20.7319 9.25553L20.7901 9.05109L20.6445 8.89553L20.6535 8.86442L20.8551 8.81331L20.9133 8.60886L20.9424 8.59998L21.0969 8.75331L21.3097 8.7022L21.3298 8.7222L21.2627 8.92664L21.4172 9.07998L21.4082 9.11109L21.1955 9.1622L21.1372 9.36664L21.1081 9.37775ZM20.967 9.18664L21.1148 9.33331L21.1686 9.13775L21.3702 9.08886L21.2223 8.9422L21.2851 8.74664L21.0857 8.79553L20.9379 8.64886L20.8842 8.84442L20.6916 8.89331L20.8304 9.03998L20.7767 9.23109L20.967 9.18664Z" fill="black"/>
<path d="M20.4855 9.28439L20.284 9.38439L20.275 9.60661L20.0847 9.48439L19.8831 9.58439L19.9033 9.36217L19.7129 9.23995L19.9145 9.13995L19.9346 8.91772L20.116 9.03995L20.3176 8.93995L20.3086 9.16217L20.4855 9.28439Z" fill="#FFD700"/>
<path d="M20.2655 9.61999L20.0819 9.50221L19.8893 9.59554L19.8647 9.57777L19.8826 9.36665L19.7012 9.24888L19.7034 9.21777L19.896 9.12221L19.9139 8.90888L19.9408 8.89777L20.1133 9.01554L20.3059 8.92221L20.3305 8.93999L20.3215 9.15332L20.494 9.2711L20.4917 9.30221L20.2991 9.39554L20.2902 9.60888L20.2655 9.61999ZM20.0841 9.46443L20.2588 9.57554L20.2678 9.37554L20.4514 9.28665L20.2879 9.17332L20.2969 8.97332L20.1133 9.06443L19.9475 8.95332L19.9296 9.15332L19.7482 9.24221L19.9229 9.35332L19.905 9.55332L20.0841 9.46443Z" fill="black"/>
<path d="M22.6406 9.02675L22.8623 9.03564L22.9631 9.23342L23.0841 9.04453L23.3058 9.05342L23.205 8.85564L23.3259 8.66675L23.1042 8.65786L22.9922 8.46008L22.8713 8.64897L22.6496 8.64008L22.7504 8.83786L22.6406 9.02675Z" fill="#FFD700"/>
<path d="M22.9808 9.24201H22.9517L22.8554 9.05312L22.6426 9.04424L22.627 9.01757L22.7322 8.83757L22.6359 8.64868L22.6516 8.62424L22.8643 8.63312L22.9786 8.45312H23.0077L23.1129 8.64201L23.3235 8.6509L23.3391 8.67757L23.2249 8.85757L23.3212 9.04646L23.3055 9.0709L23.0928 9.06201L22.9808 9.24201ZM22.6717 9.00868L22.8733 9.01757L22.9629 9.19757L23.0726 9.02646L23.2742 9.03535L23.1846 8.85535L23.2943 8.68424L23.095 8.67535L22.9942 8.49535L22.8823 8.66646L22.6807 8.65757L22.7703 8.83757L22.6717 9.00868Z" fill="black"/>
<path d="M23.5918 9.10029L23.8046 9.15362L23.865 9.36695L24.0263 9.20695L24.2368 9.25806L24.1763 9.04473L24.3376 8.88251L24.1159 8.82918L24.0554 8.61584L23.8941 8.77584L23.6836 8.72473L23.7441 8.93806L23.5918 9.10029Z" fill="#FFD700"/>
<path d="M23.876 9.37779L23.8469 9.3689L23.7886 9.16446L23.5871 9.11335L23.5781 9.08223L23.7237 8.9289L23.6655 8.72446L23.6856 8.70446L23.8872 8.75557L24.0417 8.60223L24.0708 8.61112L24.1291 8.81557L24.3418 8.86668L24.3508 8.89779L24.1963 9.05334L24.2545 9.25779L24.2343 9.27779L24.0328 9.22668L23.876 9.37779ZM23.6252 9.0889L23.8178 9.13779L23.8715 9.33334L24.0193 9.18668L24.2097 9.23557L24.1559 9.04001L24.3015 8.89335L24.1 8.84446L24.0462 8.6489L23.8984 8.79557L23.708 8.74668L23.7618 8.94223L23.6252 9.0889Z" fill="black"/>
<path d="M24.498 9.28439L24.6996 9.38439L24.7086 9.60661L24.8989 9.48439L25.1005 9.58439L25.0915 9.36217L25.2729 9.23995L25.0714 9.13995L25.0624 8.91772L24.8721 9.03995L24.6705 8.93995L24.6907 9.16217L24.498 9.28439Z" fill="#FFD700"/>
<path d="M24.717 9.6201L24.6901 9.60454L24.6812 9.39121L24.4886 9.29788L24.4863 9.26677L24.6677 9.14899L24.6498 8.93565L24.6745 8.91788L24.8671 9.01121L25.0507 8.89343L25.0776 8.90899L25.0865 9.12232L25.2791 9.21788L25.2814 9.24899L25.1089 9.36677L25.1179 9.5801L25.0933 9.59788L24.9007 9.50454L24.717 9.6201ZM24.5334 9.28454L24.717 9.37343L24.726 9.57343L24.9007 9.46232L25.0843 9.55343L25.0753 9.35343L25.2388 9.24232L25.0552 9.15343L25.0462 8.95343L24.8715 9.06454L24.6901 8.97565L24.708 9.17565L24.5334 9.28454Z" fill="black"/>
<path d="M23.1777 14.5713L23.1979 14.9313C23.1979 14.9313 23.2987 14.9313 23.3883 14.9024C23.4689 14.8713 23.5406 14.8113 23.5406 14.8113L23.5316 14.6224L23.1777 14.5713Z" fill="white"/>
<path d="M23.1943 14.9489L23.1764 14.9311L23.1562 14.5711L23.1764 14.5533L23.5415 14.6045L23.5527 14.8178L23.5459 14.8245C23.5437 14.8267 23.4743 14.8867 23.3892 14.9178C23.2996 14.9467 23.201 14.9489 23.1943 14.9489ZM23.1943 14.5889L23.2122 14.9111C23.2458 14.9111 23.3153 14.9045 23.3824 14.88C23.4452 14.8556 23.5034 14.8133 23.5213 14.8L23.5123 14.6311L23.1943 14.5889Z" fill="black"/>
<path d="M21.8238 14.5713L21.8036 14.9224C21.8036 14.9224 21.714 14.9224 21.6222 14.9024C21.5416 14.8824 21.4699 14.8335 21.4699 14.8335L21.3691 14.5935L21.8238 14.5713Z" fill="white"/>
<path d="M21.8031 14.9378C21.8009 14.9378 21.709 14.9378 21.6195 14.9178C21.5343 14.8978 21.4649 14.8467 21.4627 14.8467L21.4604 14.8445L21.3574 14.5978L21.3731 14.5733L21.8277 14.5533L21.8457 14.5711L21.8255 14.9222L21.8031 14.9378ZM21.4851 14.8178C21.5008 14.8267 21.5612 14.8667 21.6262 14.8845C21.6889 14.9 21.7561 14.9022 21.7874 14.9022L21.8053 14.5867L21.3977 14.6045L21.4851 14.8178Z" fill="black"/>
<path d="M20.1954 13.52L19.9423 13.88L19.6602 13.4222L19.8729 13.2022L20.1954 13.52Z" fill="white"/>
<path d="M19.94 13.8998C19.9332 13.8998 19.9288 13.8975 19.9243 13.8909L19.6421 13.4309C19.6399 13.4242 19.6399 13.4153 19.6443 13.4109L19.8571 13.1909C19.8593 13.1886 19.8661 13.1842 19.8683 13.1842C19.8705 13.1842 19.8773 13.1864 19.8795 13.1909L20.2065 13.5109C20.2132 13.5175 20.2132 13.5264 20.2087 13.5309L19.9556 13.8909C19.9489 13.8953 19.9467 13.8998 19.94 13.8998ZM19.6802 13.422L19.94 13.8486L20.1706 13.522L19.8683 13.2242L19.6802 13.422Z" fill="black"/>
<path d="M21.4609 15.2912C21.4609 15.6312 23.537 15.6312 23.537 15.2912V14.8112C23.537 15.06 21.4609 15.0112 21.4609 14.8112V15.2912Z" fill="white"/>
<path d="M22.4982 15.5647C22.2272 15.5647 21.9697 15.5402 21.7815 15.5025C21.5576 15.4536 21.4434 15.3825 21.4434 15.2958V14.8158H21.4792C21.4792 14.8225 21.4882 14.8758 21.8219 14.9247C22.0301 14.9536 22.3078 14.9691 22.5878 14.9691C23.2283 14.9691 23.5217 14.8914 23.5217 14.8158H23.5575V15.2958C23.5575 15.5047 22.8924 15.5647 22.4982 15.5647ZM21.4792 14.8625V15.2891C21.4792 15.4247 21.9182 15.5269 22.5004 15.5269C23.0805 15.5269 23.5217 15.4247 23.5217 15.2891V14.8691C23.3694 14.9869 22.7849 14.9958 22.5878 14.9958C22.3101 14.9958 22.0279 14.9802 21.8196 14.9514C21.6136 14.9247 21.5217 14.8914 21.4792 14.8625Z" fill="black"/>
<path d="M19.6094 14.18C19.7908 15.1 21.4638 15.12 21.4638 15.12V14.8111C21.4234 14.6911 21.4951 14.6511 21.7661 14.6111C21.8781 14.6022 21.8266 14.44 21.8266 14.44C21.8266 14.44 21.1009 14.5689 20.5881 14.3711C19.8938 14.0911 19.793 13.5511 19.793 13.5511C19.793 13.5511 19.7393 13.9711 19.6094 14.18Z" fill="white"/>
<path d="M21.4621 15.1377C21.4442 15.1377 19.7712 15.1066 19.5898 14.1844V14.1777L19.5921 14.1711C19.7197 13.9666 19.7712 13.5533 19.7712 13.5466H19.8071C19.8071 13.5533 19.9168 14.08 20.5932 14.3533C21.0948 14.5489 21.8137 14.4222 21.8227 14.4222L21.8429 14.4333C21.8429 14.4355 21.8742 14.5333 21.8361 14.5889C21.8205 14.6133 21.7958 14.6244 21.7667 14.6289C21.6144 14.6489 21.5069 14.6777 21.48 14.7222C21.4689 14.7422 21.4689 14.7666 21.48 14.8066V14.8133V15.12L21.4621 15.1377ZM19.6279 14.1844C19.8004 15.0244 21.2673 15.0955 21.4442 15.1022V14.8133C21.4285 14.7644 21.4285 14.7333 21.4465 14.7022C21.48 14.6511 21.5607 14.6222 21.76 14.5911C21.7802 14.5889 21.7936 14.5822 21.8026 14.5666C21.8205 14.5377 21.8137 14.4866 21.8093 14.4555C21.6995 14.4733 21.0478 14.5644 20.5753 14.38C20.0378 14.1644 19.8496 13.7889 19.7914 13.6266C19.7757 13.7644 19.7242 14.0244 19.6279 14.1844Z" fill="black"/>
<path d="M25.3827 14.18C25.2103 15.1 23.5373 15.12 23.5373 15.12V14.8111C23.5664 14.6911 23.497 14.6511 23.226 14.6111C23.114 14.6022 23.1745 14.44 23.1745 14.44C23.1745 14.44 23.9001 14.5689 24.413 14.3711C25.0983 14.0911 25.1789 13.5511 25.1789 13.5511C25.1789 13.5511 25.2506 13.9711 25.3827 14.18Z" fill="white"/>
<path d="M23.5397 15.1376L23.5218 15.1198V14.8043C23.5308 14.7643 23.5308 14.742 23.5151 14.7198C23.4815 14.6709 23.3762 14.6487 23.2217 14.6265C23.1903 14.6243 23.1702 14.6109 23.1545 14.5865C23.1187 14.5287 23.1545 14.4332 23.1568 14.4309L23.1635 14.4154L23.1792 14.4176C23.1859 14.4176 23.9048 14.5443 24.4087 14.3487C25.0761 14.0754 25.1612 13.5487 25.1657 13.5421H25.2015C25.2015 13.5443 25.2732 13.962 25.4008 14.1665L25.4031 14.1732V14.1798C25.2284 15.1087 23.5554 15.1376 23.5397 15.1376ZM23.5576 14.8109V15.102C23.7368 15.0954 25.2015 15.022 25.365 14.1843C25.2687 14.0243 25.2037 13.7621 25.1813 13.6332C25.1298 13.7954 24.9551 14.1732 24.4244 14.3887C23.9518 14.5709 23.2956 14.4798 23.1903 14.4643C23.1814 14.4954 23.1724 14.5487 23.1903 14.5754C23.1993 14.5865 23.2105 14.5954 23.2307 14.5954C23.43 14.6243 23.5128 14.6532 23.5487 14.7065C23.5644 14.7287 23.5666 14.7665 23.5576 14.8109Z" fill="black"/>
<path d="M19.7322 13.829C19.2686 13.5801 19.6359 13.3201 19.674 12.5779C19.9069 13.049 20.1376 13.0645 20.2025 13.3601C20.2115 13.3957 20.2182 13.4623 20.1958 13.5068C19.9831 13.5157 19.8845 13.1979 19.7815 13.5468L19.7322 13.829Z" fill="white"/>
<path d="M19.7265 13.8444C19.4151 13.6755 19.4644 13.5 19.545 13.2022C19.5898 13.04 19.6458 12.84 19.6593 12.5755L19.6929 12.5688C19.8071 12.8 19.9235 12.9222 20.0154 13.02C20.1117 13.1222 20.1878 13.2022 20.2236 13.3555C20.2326 13.4 20.2393 13.4688 20.2169 13.5111L20.2147 13.52H20.2035C20.1184 13.5222 20.049 13.4777 19.9952 13.4422C19.9527 13.4133 19.9168 13.3888 19.8899 13.4C19.8586 13.4111 19.8317 13.46 19.8093 13.5511L19.7556 13.8311L19.7265 13.8444ZM19.6906 12.6444C19.6727 12.8777 19.6212 13.0644 19.5786 13.2133C19.5003 13.5044 19.4577 13.6511 19.7197 13.8022L19.769 13.5466C19.7981 13.4422 19.8317 13.3866 19.872 13.3733C19.9168 13.3577 19.9594 13.3844 20.0109 13.4222C20.0624 13.4555 20.1161 13.4933 20.1856 13.4933C20.1968 13.4533 20.1923 13.3977 20.1856 13.3666C20.152 13.2222 20.0803 13.1444 19.9862 13.0466C19.9056 12.9577 19.7959 12.8466 19.6906 12.6444Z" fill="black"/>
<path d="M24.7871 13.52L25.0402 13.88L25.3224 13.42L25.1119 13.2L24.7871 13.52Z" fill="white"/>
<path d="M25.0417 13.8999C25.035 13.8999 25.0305 13.8977 25.026 13.8933L24.773 13.5333C24.7662 13.5266 24.7707 13.5177 24.7752 13.5133L25.1022 13.1933C25.1044 13.191 25.1111 13.1866 25.1134 13.1866C25.1201 13.1866 25.1223 13.1888 25.1246 13.1933L25.3373 13.4133C25.344 13.4199 25.344 13.4288 25.3396 13.4333L25.0574 13.8933C25.0529 13.8933 25.0462 13.8955 25.0417 13.8999ZM24.8088 13.5199L25.0395 13.8466L25.2993 13.4199L25.1089 13.2221L24.8088 13.5199Z" fill="black"/>
<path d="M25.2463 13.829C25.7099 13.5801 25.3426 13.3201 25.3045 12.5779C25.0716 13.049 24.8409 13.0645 24.776 13.3601C24.767 13.3957 24.7603 13.4623 24.7827 13.5068C24.9932 13.5157 25.094 13.1979 25.197 13.5468L25.2463 13.829Z" fill="white"/>
<path d="M25.2573 13.8443L25.2304 13.8332L25.1767 13.5532C25.1521 13.4666 25.1252 13.4154 25.0961 13.4066C25.0692 13.3977 25.0334 13.4221 24.9908 13.4488C24.9371 13.4843 24.8676 13.5288 24.7825 13.5266H24.7713L24.7691 13.5177C24.7489 13.4732 24.7512 13.4066 24.7624 13.3621C24.796 13.2088 24.8743 13.1288 24.9707 13.0266C25.0647 12.9266 25.1789 12.8066 25.2932 12.5754L25.3268 12.5821C25.3424 12.8421 25.3962 13.0466 25.441 13.2088C25.5194 13.4999 25.5686 13.6777 25.2573 13.8443ZM25.0804 13.3688C25.0894 13.3688 25.0983 13.3688 25.1073 13.3754C25.1498 13.391 25.1789 13.4443 25.2103 13.5466L25.2596 13.8043C25.5216 13.6532 25.4813 13.5043 25.4007 13.2154C25.3581 13.0643 25.3088 12.8799 25.2887 12.6443C25.1789 12.8443 25.0737 12.9554 24.9886 13.0466C24.8945 13.1466 24.8228 13.2199 24.7892 13.3666C24.7825 13.3954 24.778 13.4532 24.7892 13.4932C24.8587 13.4932 24.9169 13.4532 24.9639 13.4221C25.0087 13.391 25.0446 13.3688 25.0804 13.3688Z" fill="black"/>
<path d="M20.0187 14.1688L20.0702 14.2088L19.9582 14.3288C19.9134 14.3777 19.9045 14.4088 19.9336 14.4377C19.9739 14.4733 20.0008 14.4622 20.0388 14.4199L20.1598 14.291L20.2001 14.331L20.0791 14.471C20.012 14.5466 19.9515 14.531 19.9 14.4822C19.8552 14.4399 19.8305 14.3799 19.8933 14.3088L20.0187 14.1688Z" fill="black"/>
<path d="M20.2229 14.3399L20.2745 14.371L20.2655 14.611L20.3775 14.4399L20.429 14.4688L20.2677 14.7288L20.2073 14.6999L20.2162 14.4599L20.1042 14.631L20.0527 14.6021L20.2229 14.3399Z" fill="black"/>
<path d="M20.3125 14.76L20.4536 14.48L20.5051 14.5089L20.3752 14.78L20.3125 14.76Z" fill="black"/>
<path d="M20.5339 14.52L20.4219 14.8111L20.5339 14.8511C20.6369 14.8911 20.6861 14.8422 20.7175 14.7555C20.7511 14.6666 20.7354 14.6022 20.6324 14.56L20.5339 14.52ZM20.5764 14.5888C20.6794 14.6244 20.6884 14.6644 20.657 14.7355C20.6302 14.8044 20.6033 14.8289 20.5047 14.7777L20.5764 14.5888Z" fill="black"/>
<path d="M20.865 14.6312L20.6836 14.9023L20.753 14.9223L20.7933 14.8534L20.9143 14.8823L20.9232 14.9512L20.9927 14.96L20.9232 14.6401L20.865 14.6312ZM20.8874 14.7001L20.9076 14.8201L20.8269 14.8112L20.8874 14.7001Z" fill="black"/>
<path d="M21.0385 14.6555L21.0273 14.9643L21.146 14.9666C21.2558 14.9688 21.2871 14.9088 21.2916 14.8155C21.2938 14.7199 21.258 14.6621 21.146 14.6599L21.0385 14.6555ZM21.099 14.7088C21.211 14.7088 21.2289 14.7443 21.2267 14.8199C21.2244 14.891 21.2065 14.9243 21.0968 14.9088L21.099 14.7088Z" fill="black"/>
<path d="M22.0977 15.0888V15.4088H22.1671V15.2888C22.1671 15.2888 22.2275 15.2911 22.2791 15.2799C22.3194 15.2711 22.3462 15.2444 22.3485 15.1799C22.3485 15.1199 22.3127 15.0866 22.2522 15.0866L22.0977 15.0888ZM22.1671 15.1399H22.2387C22.2992 15.1399 22.288 15.2288 22.241 15.2288H22.1693L22.1671 15.1399Z" fill="black"/>
<path d="M22.46 15.0888L22.3301 15.4088H22.3995L22.4286 15.3288H22.5585L22.5876 15.4088H22.6571L22.5272 15.0888H22.46ZM22.4891 15.1599L22.5406 15.2799H22.451L22.4891 15.1599Z" fill="black"/>
<path d="M22.6621 15.351L22.8346 15.1399H22.6823V15.0888H22.9242V15.1399L22.7427 15.351H22.9242V15.411H22.6621V15.351Z" fill="black"/>
<path d="M23.6789 14.7289L23.7394 14.72L23.7685 14.9C23.7797 14.9622 23.7506 15.0089 23.7058 15.0222C23.6543 15.04 23.5871 15.0244 23.5781 14.9378L23.6296 14.9289C23.6408 14.98 23.6632 14.9866 23.6879 14.9778C23.7058 14.9711 23.717 14.9422 23.7125 14.9089L23.6789 14.7289Z" fill="black"/>
<path d="M23.7812 14.7113L23.8417 14.7002L23.8686 14.8513C23.8798 14.9135 23.9022 14.9402 23.9447 14.9357C23.9963 14.9268 24.003 14.8957 23.9895 14.8402L23.9537 14.6802L24.0142 14.6713L24.0545 14.8357C24.0791 14.9313 24.0276 14.9713 23.9582 14.9868C23.8977 14.9979 23.835 14.9846 23.8126 14.8868L23.7812 14.7113Z" fill="black"/>
<path d="M24.0933 14.8509L24.1448 14.8309C24.1694 14.8753 24.2075 14.8731 24.2388 14.8598C24.2814 14.842 24.2836 14.8064 24.2657 14.7931C24.2366 14.7753 24.1649 14.7998 24.1291 14.7864C24.0843 14.7709 24.0664 14.7442 24.0664 14.7064C24.0686 14.6576 24.1112 14.6353 24.1537 14.6198C24.2053 14.6042 24.2545 14.6109 24.2859 14.6709L24.2254 14.6909C24.2053 14.6576 24.1806 14.662 24.1582 14.6709C24.1403 14.6798 24.109 14.6953 24.1246 14.722C24.1358 14.742 24.212 14.7309 24.2523 14.7309C24.2926 14.7331 24.3239 14.7576 24.3307 14.7976C24.3396 14.8509 24.3195 14.882 24.2545 14.9064C24.1784 14.9331 24.109 14.8998 24.0933 14.8509Z" fill="black"/>
<path d="M24.3645 14.6L24.2838 14.64L24.2637 14.5889L24.4854 14.4978L24.5055 14.5378L24.4249 14.5778L24.5167 14.7978L24.4652 14.8267L24.3645 14.6Z" fill="black"/>
<path d="M24.4941 14.489L24.5457 14.4601L24.6867 14.7201L24.6352 14.7512L24.4941 14.489Z" fill="black"/>
<path d="M24.8382 14.5111L24.8987 14.4911C24.9255 14.5511 24.883 14.66 24.78 14.6556C24.6255 14.6533 24.6098 14.4844 24.6344 14.4311C24.6747 14.3378 24.7889 14.3422 24.836 14.3911L24.7845 14.4311C24.7509 14.3889 24.6814 14.4156 24.6747 14.4511C24.6658 14.5111 24.6926 14.5689 24.7509 14.5956C24.8001 14.62 24.8718 14.5622 24.8382 14.5111Z" fill="black"/>
<path d="M24.8105 14.3001L24.8621 14.2601L25.0435 14.5001L24.992 14.5401L24.8105 14.3001Z" fill="black"/>
<path d="M25.0007 14.1511L24.9492 14.1911L25.0612 14.4911L25.1127 14.44L25.0836 14.38L25.1732 14.3L25.2336 14.3288L25.2852 14.2888L25.0007 14.1511ZM25.0209 14.22L25.1217 14.2711L25.0612 14.3311L25.0209 14.22Z" fill="black"/>
</g>
<rect x="1.14609" y="0.15" width="42.7" height="23.7" stroke="#EFEFF8" stroke-width="0.3"/>
<defs>
<clipPath id="clip0_684_45266">
<rect x="0.996094" width="43" height="24" fill="white"/>
</clipPath>
</defs>
</svg>
