<svg width="44" height="24" viewBox="0 0 44 24" fill="none" xmlns="http://www.w3.org/2000/svg">
<g clip-path="url(#clip0_684_43521)">
<path d="M43.9863 0H0.986328V24H43.9863V0Z" fill="#DE2910"/>
<path d="M22.4854 11.9956C18.2414 10.2156 20.1227 4.73114 24.183 5.00669C23.3611 5.42669 23.2446 6.20669 23.7105 6.93114C24.2345 7.74225 23.6612 9.04224 22.9535 9.36224C21.7844 9.88447 21.5493 11.2711 22.4854 11.9956Z" fill="white"/>
<path d="M22.2547 8.03544L22.0173 8.40655L21.9322 7.97544L21.5 7.86433L21.8874 7.64877L21.8583 7.20877L22.1853 7.50877L22.5996 7.34877L22.4137 7.74877L22.6959 8.08877L22.2547 8.03544Z" fill="#DE2910"/>
<path d="M22.5117 11.951C21.9988 11.691 21.5845 11.1421 21.4031 10.4955C21.197 9.74657 21.3135 8.94657 21.7301 8.29545L21.6405 8.2399C21.2127 8.91545 21.0873 9.74879 21.3023 10.5243C21.4927 11.2132 21.9159 11.7688 22.4624 12.0488L22.5117 11.951Z" fill="#DE2910"/>
<path d="M22.4902 11.9955C22.8844 7.43998 28.723 7.52442 29.7106 11.4355C29.0567 10.7911 28.2706 10.92 27.7241 11.5844C27.1105 12.3289 25.6839 12.1933 25.1598 11.62C24.2953 10.6844 22.8934 10.8911 22.4902 11.9955Z" fill="white"/>
<path d="M26.2154 10.5555L25.7832 10.4444L26.1707 10.2288L26.1415 9.78882L26.4685 10.0888L26.8828 9.92882L26.697 10.3288L26.9791 10.6688L26.5402 10.6177L26.3028 10.9888L26.2154 10.5555Z" fill="#DE2910"/>
<path d="M22.5425 12.0044C22.6343 11.4399 23.0307 10.8799 23.5996 10.5088C24.2535 10.0844 25.0598 9.9488 25.8078 10.1377L25.8324 10.0377C25.0508 9.84214 24.2154 9.98214 23.5391 10.4266C22.9389 10.8177 22.5358 11.391 22.4395 11.991L22.5425 12.0044Z" fill="#DE2910"/>
<path d="M22.4902 12.0002C26.9761 10.9646 28.7028 16.5002 25.2561 18.6447C25.6704 17.8291 25.3054 17.1247 24.4991 16.8135C23.5966 16.4647 23.2853 15.0735 23.6727 14.4047C24.3088 13.3046 23.6705 12.0446 22.4902 12.0002Z" fill="white"/>
<path d="M25.0205 15.0712L24.9914 14.6312L25.3184 14.9312L25.7327 14.7712L25.5469 15.1712L25.829 15.5112L25.3901 15.4601L25.1527 15.8312L25.0631 15.4001L24.6309 15.2889L25.0205 15.0712Z" fill="#DE2910"/>
<path d="M22.4967 12.0509C23.0656 11.962 23.7263 12.162 24.2548 12.582C24.864 13.0665 25.2424 13.7865 25.294 14.5532L25.3992 14.5443C25.3477 13.7487 24.9513 12.9998 24.3197 12.4998C23.7598 12.0509 23.0857 11.8509 22.4766 11.9443L22.4967 12.0509Z" fill="#DE2910"/>
<path d="M22.4862 12.0046C24.8647 15.9202 20.0966 19.2557 16.9746 16.6691C17.8861 16.8091 18.446 16.2446 18.4953 15.3891C18.5513 14.4291 19.7853 13.7046 20.5467 13.8646C21.8009 14.1202 22.8132 13.1313 22.4862 12.0046Z" fill="white"/>
<path d="M20.324 15.3398L20.7383 15.1798L20.5524 15.5798L20.8346 15.9198L20.3912 15.8687L20.156 16.2398L20.0709 15.8087L19.6387 15.6976L20.0261 15.4821L19.997 15.0421L20.324 15.3398Z" fill="#DE2910"/>
<path d="M22.4367 12.0289C22.6988 12.54 22.71 13.22 22.4681 13.8534C22.1949 14.5778 21.6215 15.1578 20.9004 15.4445L20.9407 15.54C21.691 15.2445 22.2822 14.64 22.5689 13.8889C22.822 13.22 22.8108 12.5245 22.533 11.98L22.4367 12.0289Z" fill="#DE2910"/>
<path d="M22.4816 11.9999C19.4671 15.4555 14.7909 11.9843 16.3093 8.2399C16.4593 9.14434 17.1671 9.49546 18.0069 9.2799C18.9453 9.03545 20.018 9.9799 20.1031 10.7488C20.2398 12.0088 21.5029 12.6555 22.4816 11.9999Z" fill="white"/>
<path d="M18.6152 10.9911L18.8974 11.3311L18.4584 11.28L18.221 11.6511L18.1315 11.22L17.6992 11.1089L18.0867 10.8933L18.0576 10.4533L18.3845 10.7533L18.7989 10.5933L18.6152 10.9911Z" fill="#DE2910"/>
<path d="M22.4463 11.9646C22.0387 12.369 21.387 12.589 20.7084 12.5602C19.9312 12.5246 19.1967 12.1646 18.7017 11.5713L18.6211 11.6402C19.1362 12.2557 19.8999 12.629 20.7061 12.6646C21.4228 12.6957 22.088 12.469 22.5247 12.0402L22.4463 11.9646Z" fill="#DE2910"/>
</g>
<rect x="1.13633" y="0.15" width="42.7" height="23.7" stroke="#EFEFF8" stroke-width="0.3"/>
<defs>
<clipPath id="clip0_684_43521">
<rect x="0.986328" width="43" height="24" fill="white"/>
</clipPath>
</defs>
</svg>
