<svg width="44" height="24" viewBox="0 0 44 24" fill="none" xmlns="http://www.w3.org/2000/svg">
<g clip-path="url(#clip0_684_43663)">
<path d="M0.328125 0H43.3281V24H0.328125V0Z" fill="white"/>
<path d="M0.328125 2.2511H43.3281V5.99999H0.328125V2.2511Z" fill="#0038B8"/>
<path d="M0.328125 18H43.3281V21.7511H0.328125V18Z" fill="#0038B8"/>
<path d="M21.8281 17.1958L20.3164 14.598H17.293L18.8047 12.0002L17.293 9.40242H20.3164L21.8281 6.80464L23.3398 9.40242H26.3633L24.8516 12.0002L26.3633 14.598H23.3398L21.8281 17.1958ZM21.2772 14.598L21.8281 15.5469L22.3791 14.598H21.2772ZM23.8214 13.7735H24.9255L24.3745 12.8246L23.8214 13.7735ZM20.7979 13.7735H22.8606L23.8908 12.0002L22.8606 10.2269H20.7979L19.7677 12.0002L20.7979 13.7735ZM18.733 13.7735H19.8349L19.284 12.8246L18.733 13.7735ZM23.8214 10.2269L24.3723 11.1758L24.9232 10.2269H23.8214ZM18.733 10.2269L19.284 11.1758L19.8349 10.2269H18.733ZM21.2772 9.40242H22.3813L21.8281 8.45353L21.2772 9.40242Z" fill="#0038B8"/>
</g>
<rect x="0.478125" y="0.15" width="42.7" height="23.7" stroke="#EFEFF8" stroke-width="0.3"/>
<defs>
<clipPath id="clip0_684_43663">
<rect x="0.328125" width="43" height="24" fill="white"/>
</clipPath>
</defs>
</svg>
