<svg width="44" height="24" viewBox="0 0 44 24" fill="none" xmlns="http://www.w3.org/2000/svg">
<g clip-path="url(#clip0_684_43538)">
<path d="M43.9844 0H0.984375V24H43.9844V0Z" fill="#FF9933"/>
<path d="M43.9844 8H0.984375V16H43.9844V8Z" fill="white"/>
<path d="M43.9844 16H0.984375V24H43.9844V16Z" fill="#128807"/>
<path d="M22.4848 15.2C24.2659 15.2 25.7098 13.7673 25.7098 12C25.7098 10.2327 24.2659 8.8 22.4848 8.8C20.7036 8.8 19.2598 10.2327 19.2598 12C19.2598 13.7673 20.7036 15.2 22.4848 15.2Z" fill="#000088"/>
<path d="M22.484 14.8C24.0425 14.8 25.3059 13.5464 25.3059 12C25.3059 10.4536 24.0425 9.2 22.484 9.2C20.9255 9.2 19.6621 10.4536 19.6621 12C19.6621 13.5464 20.9255 14.8 22.484 14.8Z" fill="white"/>
<path d="M22.4843 12.5599C22.796 12.5599 23.0487 12.3092 23.0487 11.9999C23.0487 11.6906 22.796 11.4399 22.4843 11.4399C22.1726 11.4399 21.9199 11.6906 21.9199 11.9999C21.9199 12.3092 22.1726 12.5599 22.4843 12.5599Z" fill="#000088"/>
<path d="M25.282 12.5065C25.3612 12.5065 25.4253 12.4429 25.4253 12.3643C25.4253 12.2858 25.3612 12.2221 25.282 12.2221C25.2028 12.2221 25.1387 12.2858 25.1387 12.3643C25.1387 12.4429 25.2028 12.5065 25.282 12.5065Z" fill="#000088"/>
<path d="M22.485 14.7999L22.5813 13.1199L22.485 12.3199L22.3887 13.1199L22.485 14.7999Z" fill="#000088"/>
<path d="M25.0925 13.2132C25.1717 13.2132 25.2359 13.1495 25.2359 13.071C25.2359 12.9924 25.1717 12.9287 25.0925 12.9287C25.0134 12.9287 24.9492 12.9924 24.9492 13.071C24.9492 13.1495 25.0134 13.2132 25.0925 13.2132Z" fill="#000088"/>
<path d="M21.7539 14.7044L22.2869 13.1066L22.4034 12.3088L22.1033 13.0555L21.7539 14.7044Z" fill="#000088"/>
<path d="M24.7234 13.8464C24.8026 13.8464 24.8667 13.7828 24.8667 13.7042C24.8667 13.6257 24.8026 13.562 24.7234 13.562C24.6443 13.562 24.5801 13.6257 24.5801 13.7042C24.5801 13.7828 24.6443 13.8464 24.7234 13.8464Z" fill="#000088"/>
<path d="M21.0742 14.4244L22.0036 13.0155L22.3239 12.2733L21.8379 12.9177L21.0742 14.4244Z" fill="#000088"/>
<path d="M24.2019 14.3645C24.2811 14.3645 24.3453 14.3008 24.3453 14.2222C24.3453 14.1437 24.2811 14.08 24.2019 14.08C24.1228 14.08 24.0586 14.1437 24.0586 14.2222C24.0586 14.3008 24.1228 14.3645 24.2019 14.3645Z" fill="#000088"/>
<path d="M20.4902 13.9776L21.7556 12.8576L22.2573 12.2221L21.6167 12.7199L20.4902 13.9776Z" fill="#000088"/>
<path d="M23.5633 14.729C23.6424 14.729 23.7066 14.6653 23.7066 14.5867C23.7066 14.5082 23.6424 14.4445 23.5633 14.4445C23.4841 14.4445 23.4199 14.5082 23.4199 14.5867C23.4199 14.6653 23.4841 14.729 23.5633 14.729Z" fill="#000088"/>
<path d="M20.041 13.4001L21.5572 12.6423L22.2067 12.1601L21.4587 12.4779L20.041 13.4001Z" fill="#000088"/>
<path d="M22.8523 14.9178C22.9315 14.9178 22.9956 14.8541 22.9956 14.7756C22.9956 14.697 22.9315 14.6334 22.8523 14.6334C22.7732 14.6334 22.709 14.697 22.709 14.7756C22.709 14.8541 22.7732 14.9178 22.8523 14.9178Z" fill="#000088"/>
<path d="M19.7578 12.7242L21.4196 12.382L22.1721 12.0842L21.3681 12.1997L19.7578 12.7242Z" fill="#000088"/>
<path d="M22.1179 14.9178C22.1971 14.9178 22.2613 14.8541 22.2613 14.7756C22.2613 14.697 22.1971 14.6334 22.1179 14.6334C22.0388 14.6334 21.9746 14.697 21.9746 14.7756C21.9746 14.8541 22.0388 14.9178 22.1179 14.9178Z" fill="#000088"/>
<path d="M19.6621 12.0002L21.3552 12.0957L22.1615 12.0002L21.3552 11.9046L19.6621 12.0002Z" fill="#000088"/>
<path d="M21.4051 14.729C21.4842 14.729 21.5484 14.6653 21.5484 14.5867C21.5484 14.5082 21.4842 14.4445 21.4051 14.4445C21.3259 14.4445 21.2617 14.5082 21.2617 14.5867C21.2617 14.6653 21.3259 14.729 21.4051 14.729Z" fill="#000088"/>
<path d="M19.7578 11.2754L21.3681 11.8043L22.1721 11.9198L21.4196 11.6221L19.7578 11.2754Z" fill="#000088"/>
<path d="M20.7664 14.3645C20.8455 14.3645 20.9097 14.3008 20.9097 14.2222C20.9097 14.1437 20.8455 14.08 20.7664 14.08C20.6872 14.08 20.623 14.1437 20.623 14.2222C20.623 14.3008 20.6872 14.3645 20.7664 14.3645Z" fill="#000088"/>
<path d="M20.041 10.6L21.4609 11.5222L22.2089 11.84L21.5595 11.3578L20.041 10.6Z" fill="#000088"/>
<path d="M20.2449 13.8464C20.3241 13.8464 20.3882 13.7828 20.3882 13.7042C20.3882 13.6257 20.3241 13.562 20.2449 13.562C20.1657 13.562 20.1016 13.6257 20.1016 13.7042C20.1016 13.7828 20.1657 13.8464 20.2449 13.8464Z" fill="#000088"/>
<path d="M20.4902 10.0221L21.619 11.2777L22.2595 11.7754L21.7578 11.1399L20.4902 10.0221Z" fill="#000088"/>
<path d="M19.8777 13.2132C19.9569 13.2132 20.021 13.1495 20.021 13.071C20.021 12.9924 19.9569 12.9287 19.8777 12.9287C19.7985 12.9287 19.7344 12.9924 19.7344 13.071C19.7344 13.1495 19.7985 13.2132 19.8777 13.2132Z" fill="#000088"/>
<path d="M21.0742 9.57541L21.8379 11.0799L22.3239 11.7243L22.0036 10.9821L21.0742 9.57541Z" fill="#000088"/>
<path d="M19.6863 12.5065C19.7655 12.5065 19.8296 12.4429 19.8296 12.3643C19.8296 12.2858 19.7655 12.2221 19.6863 12.2221C19.6071 12.2221 19.543 12.2858 19.543 12.3643C19.543 12.4429 19.6071 12.5065 19.6863 12.5065Z" fill="#000088"/>
<path d="M21.7539 9.29536L22.0988 10.9443L22.3989 11.6909L22.2824 10.8931L21.7539 9.29536Z" fill="#000088"/>
<path d="M19.6863 11.7779C19.7655 11.7779 19.8296 11.7142 19.8296 11.6357C19.8296 11.5571 19.7655 11.4935 19.6863 11.4935C19.6071 11.4935 19.543 11.5571 19.543 11.6357C19.543 11.7142 19.6071 11.7779 19.6863 11.7779Z" fill="#000088"/>
<path d="M22.485 9.2L22.3887 10.88L22.485 11.68L22.5813 10.88L22.485 9.2Z" fill="#000088"/>
<path d="M19.8777 11.071C19.9569 11.071 20.021 11.0074 20.021 10.9288C20.021 10.8503 19.9569 10.7866 19.8777 10.7866C19.7985 10.7866 19.7344 10.8503 19.7344 10.9288C19.7344 11.0074 19.7985 11.071 19.8777 11.071Z" fill="#000088"/>
<path d="M23.2139 9.29536L22.6809 10.8931L22.5645 11.6909L22.8646 10.9443L23.2139 9.29536Z" fill="#000088"/>
<path d="M20.2449 10.4378C20.3241 10.4378 20.3882 10.3741 20.3882 10.2955C20.3882 10.217 20.3241 10.1533 20.2449 10.1533C20.1657 10.1533 20.1016 10.217 20.1016 10.2955C20.1016 10.3741 20.1657 10.4378 20.2449 10.4378Z" fill="#000088"/>
<path d="M23.8962 9.57541L22.9667 10.9843L22.6465 11.7221L23.1325 11.0776L23.8962 9.57541Z" fill="#000088"/>
<path d="M20.7664 9.91996C20.8455 9.91996 20.9097 9.85628 20.9097 9.77774C20.9097 9.69919 20.8455 9.63551 20.7664 9.63551C20.6872 9.63551 20.623 9.69919 20.623 9.77774C20.623 9.85628 20.6872 9.91996 20.7664 9.91996Z" fill="#000088"/>
<path d="M24.478 10.0221L23.2126 11.1421L22.7109 11.7777L23.3515 11.2799L24.478 10.0221Z" fill="#000088"/>
<path d="M21.4051 9.55571C21.4842 9.55571 21.5484 9.49204 21.5484 9.41349C21.5484 9.33495 21.4842 9.27127 21.4051 9.27127C21.3259 9.27127 21.2617 9.33495 21.2617 9.41349C21.2617 9.49204 21.3259 9.55571 21.4051 9.55571Z" fill="#000088"/>
<path d="M24.9291 10.6L23.4129 11.3578L22.7656 11.84L23.5137 11.5222L24.9291 10.6Z" fill="#000088"/>
<path d="M22.1179 9.36673C22.1971 9.36673 22.2613 9.30305 22.2613 9.22451C22.2613 9.14596 22.1971 9.08229 22.1179 9.08229C22.0388 9.08229 21.9746 9.14596 21.9746 9.22451C21.9746 9.30305 22.0388 9.36673 22.1179 9.36673Z" fill="#000088"/>
<path d="M25.2092 11.2754L23.5474 11.6176L22.7949 11.9154L23.5989 11.7998L25.2092 11.2754Z" fill="#000088"/>
<path d="M22.8523 9.36673C22.9315 9.36673 22.9956 9.30305 22.9956 9.22451C22.9956 9.14596 22.9315 9.08229 22.8523 9.08229C22.7732 9.08229 22.709 9.14596 22.709 9.22451C22.709 9.30305 22.7732 9.36673 22.8523 9.36673Z" fill="#000088"/>
<path d="M25.306 12.0002L23.6129 11.9046L22.8066 12.0002L23.6129 12.0957L25.306 12.0002Z" fill="#000088"/>
<path d="M23.5633 9.55571C23.6424 9.55571 23.7066 9.49204 23.7066 9.41349C23.7066 9.33495 23.6424 9.27127 23.5633 9.27127C23.4841 9.27127 23.4199 9.33495 23.4199 9.41349C23.4199 9.49204 23.4841 9.55571 23.5633 9.55571Z" fill="#000088"/>
<path d="M25.2092 12.7245L23.5989 12.1956L22.7949 12.08L23.5474 12.3778L25.2092 12.7245Z" fill="#000088"/>
<path d="M24.2019 9.91996C24.2811 9.91996 24.3453 9.85628 24.3453 9.77774C24.3453 9.69919 24.2811 9.63551 24.2019 9.63551C24.1228 9.63551 24.0586 9.69919 24.0586 9.77774C24.0586 9.85628 24.1228 9.91996 24.2019 9.91996Z" fill="#000088"/>
<path d="M24.9291 13.4001L23.5092 12.4779L22.7656 12.1601L23.4151 12.6423L24.9291 13.4001Z" fill="#000088"/>
<path d="M24.7234 10.4378C24.8026 10.4378 24.8667 10.3741 24.8667 10.2955C24.8667 10.217 24.8026 10.1533 24.7234 10.1533C24.6443 10.1533 24.5801 10.217 24.5801 10.2955C24.5801 10.3741 24.6443 10.4378 24.7234 10.4378Z" fill="#000088"/>
<path d="M24.4782 13.9779L23.3495 12.7223L22.709 12.2246L23.2106 12.8601L24.4782 13.9779Z" fill="#000088"/>
<path d="M25.0925 11.071C25.1717 11.071 25.2359 11.0074 25.2359 10.9288C25.2359 10.8503 25.1717 10.7866 25.0925 10.7866C25.0134 10.7866 24.9492 10.8503 24.9492 10.9288C24.9492 11.0074 25.0134 11.071 25.0925 11.071Z" fill="#000088"/>
<path d="M23.8962 14.4246L23.1325 12.9201L22.6465 12.2779L22.9667 13.0201L23.8962 14.4246Z" fill="#000088"/>
<path d="M25.282 11.7779C25.3612 11.7779 25.4253 11.7142 25.4253 11.6357C25.4253 11.5571 25.3612 11.4935 25.282 11.4935C25.2028 11.4935 25.1387 11.5571 25.1387 11.6357C25.1387 11.7142 25.2028 11.7779 25.282 11.7779Z" fill="#000088"/>
<path d="M23.2153 14.7044L22.8704 13.0555L22.5703 12.3088L22.6868 13.1066L23.2153 14.7044Z" fill="#000088"/>
</g>
<rect x="1.13438" y="0.15" width="42.7" height="23.7" stroke="#EFEFF8" stroke-width="0.3"/>
<defs>
<clipPath id="clip0_684_43538">
<rect x="0.984375" width="43" height="24" fill="white"/>
</clipPath>
</defs>
</svg>
