<svg width="44" height="24" viewBox="0 0 44 24" fill="none" xmlns="http://www.w3.org/2000/svg">
<g clip-path="url(#clip0_684_43652)">
<path d="M0.664062 0H43.6641V24H0.664062V0Z" fill="#CE1126"/>
<path d="M0.664062 8H43.6641V24H0.664062V8Z" fill="white"/>
<path d="M0.664062 16H43.6641V24H0.664062V16Z" fill="black"/>
<path d="M25.7003 10.5045C25.651 10.48 25.595 10.4356 25.5749 10.4134C25.5458 10.3734 25.5637 10.3734 25.6757 10.4045C25.8817 10.46 26.0138 10.4356 26.1437 10.3289L26.2602 10.2334L26.3968 10.3022C26.4729 10.3378 26.5491 10.3667 26.5737 10.3578C26.6342 10.3422 26.7551 10.1867 26.7506 10.1334C26.7462 10.0645 26.8021 10.0845 26.8313 10.1578C26.8828 10.3022 26.8066 10.4667 26.6655 10.5022C26.5961 10.5178 26.5334 10.5134 26.4326 10.4778C26.3072 10.4334 26.2826 10.4334 26.2199 10.4822C26.0788 10.5845 25.8817 10.5956 25.7003 10.5045Z" fill="#007A3D"/>
<path d="M26.2068 10.0444C26.1576 9.97992 26.0971 9.74437 26.1173 9.68437C26.1329 9.63326 26.1531 9.62437 26.1979 9.63548C26.2785 9.65992 26.2987 9.71548 26.2875 9.90437C26.2763 10.0599 26.2516 10.0999 26.2068 10.0444Z" fill="#007A3D"/>
<path d="M20.2439 9.87128C20.2283 9.98683 20.45 10.2713 20.5508 10.3224C20.4813 10.3535 20.3985 10.3379 20.338 10.3735C19.9909 10.7179 18.7165 11.9491 18.4836 12.2446C19.1734 12.2557 19.9349 12.2357 20.5799 12.2046C20.5799 11.7402 21.0233 11.7157 21.3212 11.5491C21.4735 11.7891 21.8564 11.7691 21.9057 12.1291C21.9057 12.5602 21.9057 13.2046 21.9057 13.6735C19.9595 13.6735 17.9708 13.6735 16.0246 13.6735C15.9193 14.1246 15.5095 14.4735 14.9316 14.3291C15.1086 14.1446 15.4064 14.0802 15.5162 13.8246C15.6058 13.2691 15.3348 12.9246 15.1623 12.6046C15.4535 12.5002 15.496 12.4735 15.7916 12.2757C15.5856 12.9002 16.3269 12.8313 16.8846 12.8157C16.9047 12.6046 16.8935 12.3557 16.7278 12.3246C16.9383 12.2491 16.9741 12.2202 17.3123 11.9357V12.7757C18.627 12.7757 20.0446 12.7668 21.3839 12.7668C21.3839 12.5024 21.4533 12.0824 21.2428 12.0824C21.0412 12.0824 21.2338 12.6224 21.0771 12.6224C20.9203 12.6224 18.9853 12.6224 17.9327 12.6224C17.9327 12.5068 17.9282 12.2624 17.9282 12.0868C18.0603 11.9557 18.0447 11.9668 18.9562 11.0624C19.048 10.9846 19.6885 10.4113 20.2439 9.87128Z" fill="#007A3D"/>
<path d="M28.1094 9.85107C28.3266 9.96663 28.5035 10.1311 28.77 10.2C28.7387 10.3111 28.6402 10.3555 28.6133 10.4711V12.8266C28.9111 12.8911 28.9761 12.7222 29.1217 12.6355C29.162 13.0111 29.4038 13.3844 29.3949 13.68C28.9671 13.68 28.5371 13.68 28.1094 13.68C28.1094 12.4 28.1094 11.1289 28.1094 9.85107Z" fill="#007A3D"/>
<path d="M26.3969 11.1112C26.3969 11.1112 26.865 10.72 26.865 10.7023V12.7578H27.2031C27.2031 11.9734 27.1919 11.1778 27.1919 10.4489C27.3286 10.3134 27.5951 10.1178 27.6645 9.98004V13.6645C26.7172 13.6645 24.9479 13.6645 24.7127 13.6645C24.6679 12.9 24.6612 12.1089 25.5593 12.2756C25.5593 12.1445 25.5593 12.0667 25.5593 11.9645C25.5302 11.9134 25.4831 11.9756 25.4697 11.9089C25.6108 11.7689 25.6601 11.7334 26.0453 11.3978C26.0453 11.8023 26.0542 12.7534 26.0542 12.7534C26.1461 12.7534 26.3319 12.7534 26.3924 12.7534C26.3924 12.7645 26.3969 11.1689 26.3969 11.1112ZM25.2883 12.7445C25.3532 12.84 25.566 12.8356 25.5593 12.6756C25.519 12.5489 25.2368 12.5956 25.2883 12.7445Z" fill="#007A3D"/>
<path d="M16.742 14.2912C16.8421 14.2912 16.9234 14.2106 16.9234 14.1112C16.9234 14.0117 16.8421 13.9312 16.742 13.9312C16.6418 13.9312 16.5605 14.0117 16.5605 14.1112C16.5605 14.2106 16.6418 14.2912 16.742 14.2912Z" fill="#007A3D"/>
<path d="M22.3047 9.85545C22.5219 9.97101 22.6989 10.1355 22.9654 10.2043C22.934 10.3155 22.8355 10.3599 22.8086 10.4755V12.831C23.1065 12.8955 23.1714 12.7266 23.317 12.6399C23.3573 13.0155 23.5992 13.3888 23.5902 13.6843C23.1625 13.6843 22.7325 13.6843 22.3047 13.6843C22.3047 12.4043 22.3047 11.131 22.3047 9.85545Z" fill="#007A3D"/>
</g>
<rect x="0.814063" y="0.15" width="42.7" height="23.7" stroke="#EFEFF8" stroke-width="0.3"/>
<defs>
<clipPath id="clip0_684_43652">
<rect x="0.664062" width="43" height="24" fill="white"/>
</clipPath>
</defs>
</svg>
