<svg width="44" height="24" viewBox="0 0 44 24" fill="none" xmlns="http://www.w3.org/2000/svg">
<g clip-path="url(#clip0_684_43596)">
<path d="M44.2761 -0.348907H0.720703V24.3466H44.2761V-0.348907Z" fill="#DA0000"/>
<path d="M44.2761 -0.348907H0.720703V16.1155H44.2761V-0.348907Z" fill="white"/>
<path d="M44.2761 -0.348907H0.720703V7.8822H44.2761V-0.348907Z" fill="#239F40"/>
<path d="M4.97818 7.50023H4.01068V7.11579H3.43062V7.3069H3.81807V7.49801H3.23802V6.92245H4.01292V6.53801H4.20552V7.3069H4.39813V6.53801H4.59073V7.3069H4.78333V6.53801H4.97594V7.50023H4.97818ZM3.04318 7.50023H2.07568V7.11579H1.49563V7.50023H1.30302V6.92468H2.27052V7.30912H2.85057V7.11801H2.46313V6.9269H3.04318V7.50023ZM1.88083 7.50023H1.68823V7.30912H1.88083V7.50023ZM3.81807 6.73134H1.30078V6.54023H3.81807V6.73134Z" fill="white"/>
<path d="M4.97818 8.07567H3.23802V7.69122H4.98042V8.07567H4.97818ZM3.04318 8.07567H1.30078V7.69122H3.04318V8.07567Z" fill="white"/>
<path d="M4.97818 16.309H3.23802V15.9246H4.98042V16.309H4.97818ZM3.04318 16.309H1.30078V15.9246H3.04318V16.309Z" fill="white"/>
<path d="M4.97818 17.46H4.01068V17.0756H3.43062V17.2667H3.81807V17.4578H3.23802V16.8822H4.01292V16.4978H4.20552V17.2667H4.39813V16.4978H4.59073V17.2667H4.78333V16.4978H4.97594V17.46H4.97818ZM3.04318 17.46H2.07568V17.0756H1.49563V17.46H1.30302V16.8844H2.27052V17.2689H2.85057V17.0778H2.46313V16.8867H3.04318V17.46ZM1.88083 17.46H1.68823V17.2689H1.88083V17.46ZM3.81807 16.6933H1.30078V16.5022H3.81807V16.6933Z" fill="white"/>
<path d="M8.84927 7.50023H7.88177V7.11579H7.30172V7.3069H7.68917V7.49801H7.10911V6.92245H7.88401V6.53801H8.07661V7.3069H8.26922V6.53801H8.46182V7.3069H8.65443V6.53801H8.84703V7.50023H8.84927ZM6.91427 7.50023H5.94677V7.11579H5.36448V7.50023H5.17188V6.92468H6.13937V7.30912H6.71943V7.11801H6.33198V6.9269H6.91203V7.50023H6.91427ZM5.75193 7.50023H5.55932V7.30912H5.75193V7.50023ZM7.68917 6.73134H5.17188V6.54023H7.68917V6.73134Z" fill="white"/>
<path d="M8.84927 8.07567H7.10687V7.69122H8.84927V8.07567ZM6.91427 8.07567H5.17188V7.69122H6.91427V8.07567Z" fill="white"/>
<path d="M8.84927 16.309H7.10687V15.9246H8.84927V16.309ZM6.91427 16.309H5.17188V15.9246H6.91427V16.309Z" fill="white"/>
<path d="M8.84927 17.46H7.88177V17.0756H7.30172V17.2667H7.68917V17.4578H7.10911V16.8822H7.88401V16.4978H8.07661V17.2667H8.26922V16.4978H8.46182V17.2667H8.65443V16.4978H8.84703V17.46H8.84927ZM6.91427 17.46H5.94677V17.0756H5.36448V17.46H5.17188V16.8844H6.13937V17.2689H6.71943V17.0778H6.33198V16.8867H6.91203V17.46H6.91427ZM5.75193 17.46H5.55932V17.2689H5.75193V17.46ZM7.68917 16.6933H5.17188V16.5022H7.68917V16.6933Z" fill="white"/>
<path d="M12.7223 7.50023H11.7548V7.11579H11.1748V7.3069H11.5622V7.49801H10.9822V6.92245H11.7571V6.53801H11.9497V7.3069H12.1423V6.53801H12.3349V7.3069H12.5275V6.53801H12.7201V7.50023H12.7223ZM10.7873 7.50023H9.81982V7.11579H9.23977V7.50023H9.04716V6.92468H10.0147V7.30912H10.5947V7.11801H10.2073V6.9269H10.7873V7.50023ZM9.62497 7.50023H9.43237V7.30912H9.62497V7.50023ZM11.56 6.73134H9.04492V6.54023H11.5622V6.73134H11.56Z" fill="white"/>
<path d="M12.7223 8.07567H10.9799V7.69122H12.7223V8.07567ZM10.7873 8.07567H9.04492V7.69122H10.7873V8.07567Z" fill="white"/>
<path d="M12.7223 16.309H10.9799V15.9246H12.7223V16.309ZM10.7873 16.309H9.04492V15.9246H10.7873V16.309Z" fill="white"/>
<path d="M12.7223 17.46H11.7548V17.0756H11.1748V17.2667H11.5622V17.4578H10.9822V16.8822H11.7571V16.4978H11.9497V17.2667H12.1423V16.4978H12.3349V17.2667H12.5275V16.4978H12.7201V17.46H12.7223ZM10.7873 17.46H9.81982V17.0756H9.23977V17.46H9.04716V16.8844H10.0147V17.2689H10.5947V17.0778H10.2073V16.8867H10.7873V17.46ZM9.62497 17.46H9.43237V17.2689H9.62497V17.46ZM11.56 16.6933H9.04492V16.5022H11.5622V16.6933H11.56Z" fill="white"/>
<path d="M16.5956 7.50023H15.6282V7.11579H15.0481V7.3069H15.4355V7.49801H14.8555V6.92245H15.6304V6.53801H15.823V7.3069H16.0156V6.53801H16.2082V7.3069H16.4008V6.53801H16.5934V7.50023H16.5956ZM14.6584 7.50023H13.6909V7.11579H13.1109V7.50023H12.9183V6.92468H13.8858V7.30912H14.4658V7.11801H14.0784V6.9269H14.6584V7.50023ZM13.4983 7.50023H13.3057V7.30912H13.4983V7.50023ZM15.4333 6.73134H12.916V6.54023H15.4333V6.73134Z" fill="white"/>
<path d="M16.5956 8.07567H14.8533V7.69122H16.5956V8.07567ZM14.6584 8.07567H12.916V7.69122H14.6584V8.07567Z" fill="white"/>
<path d="M16.5956 16.309H14.8533V15.9246H16.5956V16.309ZM14.6584 16.309H12.916V15.9246H14.6584V16.309Z" fill="white"/>
<path d="M16.5956 17.46H15.6282V17.0756H15.0481V17.2667H15.4355V17.4578H14.8555V16.8822H15.6304V16.4978H15.823V17.2667H16.0156V16.4978H16.2082V17.2667H16.4008V16.4978H16.5934V17.46H16.5956ZM14.6584 17.46H13.6909V17.0756H13.1109V17.46H12.9183V16.8844H13.8858V17.2689H14.4658V17.0778H14.0784V16.8867H14.6584V17.46ZM13.4983 17.46H13.3057V17.2689H13.4983V17.46ZM15.4333 16.6933H12.916V16.5022H15.4333V16.6933Z" fill="white"/>
<path d="M20.4645 7.50023H19.497V7.11579H18.917V7.3069H19.3044V7.49801H18.7243V6.92245H19.497V6.53801H19.6896V7.3069H19.8822V6.53801H20.0748V7.3069H20.2674V6.53801H20.46V7.50023H20.4645ZM18.5295 7.50023H17.562V7.11579H16.982V7.50023H16.7871V6.92468H17.7546V7.30912H18.3347V7.11801H17.9472V6.9269H18.5273V7.50023H18.5295ZM17.3672 7.50023H17.1746V7.30912H17.3672V7.50023ZM19.3044 6.73134H16.7871V6.54023H19.3044V6.73134Z" fill="white"/>
<path d="M20.4645 8.07567H18.7221V7.69122H20.4645V8.07567ZM18.5295 8.07567H16.7871V7.69122H18.5295V8.07567Z" fill="white"/>
<path d="M20.4645 16.309H18.7221V15.9246H20.4645V16.309ZM18.5295 16.309H16.7871V15.9246H18.5295V16.309Z" fill="white"/>
<path d="M20.4645 17.46H19.497V17.0756H18.917V17.2667H19.3044V17.4578H18.7243V16.8822H19.497V16.4978H19.6896V17.2667H19.8822V16.4978H20.0748V17.2667H20.2674V16.4978H20.46V17.46H20.4645ZM18.5295 17.46H17.562V17.0756H16.982V17.46H16.7871V16.8844H17.7546V17.2689H18.3347V17.0778H17.9472V16.8867H18.5273V17.46H18.5295ZM17.3672 17.46H17.1746V17.2689H17.3672V17.46ZM19.3044 16.6933H16.7871V16.5022H19.3044V16.6933Z" fill="white"/>
<path d="M24.3376 7.50023H23.3701V7.11579H22.79V7.3069H23.1775V7.49801H22.5974V6.92245H23.3723V6.53801H23.5649V7.3069H23.7575V6.53801H23.9501V7.3069H24.1427V6.53801H24.3353V7.50023H24.3376ZM22.4026 7.50023H21.4351V7.11579H20.855V7.50023H20.6624V6.92468H21.6299V7.30912H22.2077V7.11801H21.8203V6.9269H22.4003V7.50023H22.4026ZM21.2402 7.50023H21.0476V7.30912H21.2402V7.50023ZM23.1775 6.73134H20.6602V6.54023H23.1775V6.73134Z" fill="white"/>
<path d="M24.3376 8.07567H22.5952V7.69122H24.3376V8.07567ZM22.4026 8.07567H20.6602V7.69122H22.4026V8.07567Z" fill="white"/>
<path d="M24.3376 16.309H22.5952V15.9246H24.3376V16.309ZM22.4026 16.309H20.6602V15.9246H22.4026V16.309Z" fill="white"/>
<path d="M24.3376 17.46H23.3701V17.0756H22.79V17.2667H23.1775V17.4578H22.5974V16.8822H23.3723V16.4978H23.5649V17.2667H23.7575V16.4978H23.9501V17.2667H24.1427V16.4978H24.3353V17.46H24.3376ZM22.4026 17.46H21.4351V17.0756H20.855V17.46H20.6624V16.8844H21.6299V17.2689H22.2077V17.0778H21.8203V16.8867H22.4003V17.46H22.4026ZM21.2402 17.46H21.0476V17.2689H21.2402V17.46ZM23.1775 16.6933H20.6602V16.5022H23.1775V16.6933Z" fill="white"/>
<path d="M28.2089 7.50023H27.2414V7.11579H26.6614V7.3069H27.0488V7.49801H26.4688V6.92245H27.2437V6.53801H27.4363V7.3069H27.6289V6.53801H27.8215V7.3069H28.0141V6.53801H28.2067V7.50023H28.2089ZM26.2739 7.50023H25.3064V7.11579H24.7264V7.50023H24.5338V6.92468H25.5013V7.30912H26.0813V7.11801H25.6939V6.9269H26.2739V7.50023ZM25.1116 7.50023H24.919V7.30912H25.1116V7.50023ZM27.0466 6.73134H24.5293V6.54023H27.0466V6.73134Z" fill="white"/>
<path d="M28.2086 8.07567H26.4662V7.69122H28.2086V8.07567ZM26.2736 8.07567H24.5312V7.69122H26.2736V8.07567Z" fill="white"/>
<path d="M28.2086 16.309H26.4662V15.9246H28.2086V16.309ZM26.2736 16.309H24.5312V15.9246H26.2736V16.309Z" fill="white"/>
<path d="M28.2089 17.46H27.2414V17.0756H26.6614V17.2667H27.0488V17.4578H26.4688V16.8822H27.2437V16.4978H27.4363V17.2667H27.6289V16.4978H27.8215V17.2667H28.0141V16.4978H28.2067V17.46H28.2089ZM26.2739 17.46H25.3064V17.0756H24.7264V17.46H24.5338V16.8844H25.5013V17.2689H26.0813V17.0778H25.6939V16.8867H26.2739V17.46ZM25.1116 17.46H24.919V17.2689H25.1116V17.46ZM27.0466 16.6933H24.5293V16.5022H27.0466V16.6933Z" fill="white"/>
<path d="M32.082 7.50023H31.1145V7.11579H30.5344V7.3069H30.9219V7.49801H30.3418V6.92245H31.1167V6.53801H31.3093V7.3069H31.5019V6.53801H31.6945V7.3069H31.8871V6.53801H32.0797V7.50023H32.082ZM30.1447 7.50023H29.1772V7.11579H28.5972V7.50023H28.4046V6.92468H29.3721V7.30912H29.9521V7.11801H29.5647V6.9269H30.1447V7.50023ZM28.9846 7.50023H28.792V7.30912H28.9846V7.50023ZM30.9196 6.73134H28.4023V6.54023H30.9196V6.73134Z" fill="white"/>
<path d="M32.082 8.07567H30.3396V7.69122H32.082V8.07567ZM30.1447 8.07567H28.4023V7.69122H30.1447V8.07567Z" fill="white"/>
<path d="M32.082 16.309H30.3396V15.9246H32.082V16.309ZM30.1447 16.309H28.4023V15.9246H30.1447V16.309Z" fill="white"/>
<path d="M32.082 17.46H31.1145V17.0756H30.5344V17.2667H30.9219V17.4578H30.3418V16.8822H31.1167V16.4978H31.3093V17.2667H31.5019V16.4978H31.6945V17.2667H31.8871V16.4978H32.0797V17.46H32.082ZM30.1447 17.46H29.1772V17.0756H28.5972V17.46H28.4046V16.8844H29.3721V17.2689H29.9521V17.0778H29.5647V16.8867H30.1447V17.46ZM28.9846 17.46H28.792V17.2689H28.9846V17.46ZM30.9196 16.6933H28.4023V16.5022H30.9196V16.6933Z" fill="white"/>
<path d="M35.9508 7.50023H34.9833V7.11579H34.4033V7.3069H34.7907V7.49801H34.2107V6.92245H34.9856V6.53801H35.1782V7.3069H35.3708V6.53801H35.5634V7.3069H35.756V6.53801H35.9486V7.50023H35.9508ZM34.0158 7.50023H33.0483V7.11579H32.4683V7.50023H32.2757V6.92468H33.2432V7.30912H33.8232V7.11801H33.4358V6.9269H34.0158V7.50023ZM32.8535 7.50023H32.6609V7.30912H32.8535V7.50023ZM34.7907 6.73134H32.2734V6.54023H34.7907V6.73134Z" fill="white"/>
<path d="M35.9508 8.07567H34.2084V7.69122H35.9508V8.07567ZM34.0158 8.07567H32.2734V7.69122H34.0158V8.07567Z" fill="white"/>
<path d="M35.9508 16.309H34.2084V15.9246H35.9508V16.309ZM34.0158 16.309H32.2734V15.9246H34.0158V16.309Z" fill="white"/>
<path d="M35.9508 17.46H34.9833V17.0756H34.4033V17.2667H34.7907V17.4578H34.2107V16.8822H34.9856V16.4978H35.1782V17.2667H35.3708V16.4978H35.5634V17.2667H35.756V16.4978H35.9486V17.46H35.9508ZM34.0158 17.46H33.0483V17.0756H32.4683V17.46H32.2757V16.8844H33.2432V17.2689H33.8232V17.0778H33.4358V16.8867H34.0158V17.46ZM32.8535 17.46H32.6609V17.2689H32.8535V17.46ZM34.7907 16.6933H32.2734V16.5022H34.7907V16.6933Z" fill="white"/>
<path d="M39.8242 7.50023H38.8567V7.11579H38.2766V7.3069H38.6641V7.49801H38.084V6.92245H38.8589V6.53801H39.0515V7.3069H39.2441V6.53801H39.4367V7.3069H39.6293V6.53801H39.8219V7.50023H39.8242ZM37.8892 7.50023H36.9217V7.11579H36.3394V7.50023H36.1468V6.92468H37.1143V7.30912H37.6943V7.11801H37.3069V6.9269H37.8869V7.50023H37.8892ZM36.7268 7.50023H36.5342V7.30912H36.7268V7.50023ZM38.6618 6.73134H36.1445V6.54023H38.6618V6.73134Z" fill="white"/>
<path d="M39.8239 8.07567H38.0815V7.69122H39.8239V8.07567ZM37.8889 8.07567H36.1465V7.69122H37.8889V8.07567Z" fill="white"/>
<path d="M39.8239 16.309H38.0815V15.9246H39.8239V16.309ZM37.8889 16.309H36.1465V15.9246H37.8889V16.309Z" fill="white"/>
<path d="M39.8242 17.46H38.8567V17.0756H38.2766V17.2667H38.6641V17.4578H38.084V16.8822H38.8589V16.4978H39.0515V17.2667H39.2441V16.4978H39.4367V17.2667H39.6293V16.4978H39.8219V17.46H39.8242ZM37.8892 17.46H36.9217V17.0756H36.3394V17.46H36.1468V16.8844H37.1143V17.2689H37.6943V17.0778H37.3069V16.8867H37.8869V17.46H37.8892ZM36.7268 17.46H36.5342V17.2689H36.7268V17.46ZM38.6618 16.6933H36.1445V16.5022H38.6618V16.6933Z" fill="white"/>
<path d="M43.6953 7.50023H42.7278V7.11579H42.1477V7.3069H42.5352V7.49801H41.9551V6.92245H42.73V6.53801H42.9226V7.3069H43.1152V6.53801H43.3078V7.3069H43.5004V6.53801H43.693V7.50023H43.6953ZM41.7603 7.50023H40.7928V7.11579H40.2127V7.50023H40.0201V6.92468H40.9876V7.30912H41.5677V7.11801H41.1802V6.9269H41.7603V7.50023ZM40.5979 7.50023H40.4053V7.30912H40.5979V7.50023ZM42.5329 6.73134H40.0156V6.54023H42.5329V6.73134Z" fill="white"/>
<path d="M43.6953 8.07567H41.9529V7.69122H43.6953V8.07567ZM41.758 8.07567H40.0156V7.69122H41.758V8.07567Z" fill="white"/>
<path d="M43.6953 16.309H41.9529V15.9246H43.6953V16.309ZM41.758 16.309H40.0156V15.9246H41.758V16.309Z" fill="white"/>
<path d="M43.6953 17.46H42.7278V17.0756H42.1477V17.2667H42.5352V17.4578H41.9551V16.8822H42.73V16.4978H42.9226V17.2667H43.1152V16.4978H43.3078V17.2667H43.5004V16.4978H43.693V17.46H43.6953ZM41.7603 17.46H40.7928V17.0756H40.2127V17.46H40.0201V16.8844H40.9876V17.2689H41.5677V17.0778H41.1802V16.8867H41.7603V17.46ZM40.5979 17.46H40.4053V17.2689H40.5979V17.46ZM42.5329 16.6933H40.0156V16.5022H42.5329V16.6933Z" fill="white"/>
<path d="M20.791 14.5801C22.2848 15.0601 23.8816 14.2512 24.3654 12.7689C24.717 11.6912 24.3856 10.5045 23.5144 9.7645C24.4751 11.1778 24.1011 13.0978 22.6767 14.0512C22.1236 14.4289 21.4607 14.6134 20.791 14.5801Z" fill="#DA0000"/>
<path d="M24.4197 14.0447C25.5529 13.3936 25.9471 11.9514 25.2909 10.8203C24.9662 10.2647 24.4331 9.86693 23.8105 9.71582C25.1856 10.738 25.4633 12.6736 24.4264 14.038C24.4264 14.038 24.4264 14.038 24.4197 14.0447Z" fill="#DA0000"/>
<path d="M22.4969 15.0868L22.3379 12.0002L22.4969 9.57127C22.5932 9.70238 22.7186 9.80461 22.8642 9.88016V11.6979L22.7388 14.7646L22.4969 15.0868Z" fill="#DA0000"/>
<path d="M22.4355 9.38025L22.4983 9.43581C22.6438 9.63581 22.9193 9.68248 23.1209 9.5447C23.2933 9.42914 23.356 9.20914 23.2799 9.01581C23.2373 9.24248 23.0178 9.39359 22.7827 9.35136C22.6573 9.33136 22.5542 9.25581 22.4915 9.1447" fill="#DA0000"/>
<path d="M24.2048 14.5801C22.7111 15.0601 21.1142 14.2512 20.6305 12.7689C20.2789 11.6912 20.6103 10.5045 21.4815 9.7645C20.5207 11.1778 20.8948 13.0978 22.3191 14.0512C22.8723 14.4289 23.5352 14.6134 24.2048 14.5801Z" fill="#DA0000"/>
<path d="M20.5756 14.0447C19.4424 13.3936 19.0482 11.9514 19.7044 10.8203C20.0291 10.2647 20.5622 9.86693 21.1848 9.71582C19.8097 10.738 19.5319 12.6736 20.5689 14.038C20.5689 14.038 20.5689 14.038 20.5756 14.0447Z" fill="#DA0000"/>
<path d="M22.4982 15.0868L22.6572 12.0002L22.4982 9.57127C22.4019 9.70238 22.2764 9.80461 22.1309 9.88016V11.6979L22.2563 14.7646L22.4982 15.0868Z" fill="#DA0000"/>
<path d="M22.5599 9.38025L22.4972 9.43581C22.3516 9.63581 22.0761 9.68248 21.8746 9.5447C21.7021 9.42914 21.6394 9.20914 21.7155 9.01581C21.7581 9.24248 21.9776 9.39359 22.2127 9.35136C22.3381 9.33136 22.4412 9.25581 22.5039 9.1447" fill="#DA0000"/>
</g>
<rect x="1.14805" y="0.15" width="42.7" height="23.7" stroke="#EFEFF8" stroke-width="0.3"/>
<defs>
<clipPath id="clip0_684_43596">
<rect x="0.998047" width="43" height="24" fill="white"/>
</clipPath>
</defs>
</svg>
