<svg width="44" height="24" viewBox="0 0 44 24" fill="none" xmlns="http://www.w3.org/2000/svg">
<g clip-path="url(#clip0_684_43671)">
<path d="M0.660156 -0.10878H49.4764V24.109H0.660156V-0.10878Z" fill="white"/>
<path d="M0.660156 -0.10878H49.4764V7.96455H0.660156V-0.10878Z" fill="black"/>
<path d="M0.660156 16.0355H49.4764V24.1088H0.660156V16.0355Z" fill="#007A3D"/>
<path d="M25.0671 12.0001L0.660156 24.109V-0.10878L25.0671 12.0001ZM8.20083 10.2712L7.82234 11.2223L6.83917 10.9246L7.35203 11.809L6.49875 12.3846L7.52 12.5379L7.44161 13.5557L8.19635 12.8646L8.95557 13.5557L8.87719 12.5379L9.89396 12.3846L9.0474 11.809L9.56026 10.9246L8.5838 11.2223L8.20083 10.2712Z" fill="#CE1126"/>
</g>
<rect x="0.810156" y="0.15" width="42.7" height="23.7" stroke="#EFEFF8" stroke-width="0.3"/>
<defs>
<clipPath id="clip0_684_43671">
<rect x="0.660156" width="43" height="24" fill="white"/>
</clipPath>
</defs>
</svg>
