<svg width="44" height="24" viewBox="0 0 44 24" fill="none" xmlns="http://www.w3.org/2000/svg">
<g clip-path="url(#clip0_684_45438)">
<path d="M43.9844 0H0.984375V24H43.9844V0Z" fill="white"/>
<path d="M43.9844 0H0.984375V7.2H43.9844V0Z" fill="black"/>
<path d="M43.9844 8.40002H0.984375V15.6H43.9844V8.40002Z" fill="#BB0000"/>
<path d="M43.9844 16.8H0.984375V24H43.9844V16.8Z" fill="#006600"/>
<path d="M18.1621 19.1245L18.4241 19.2756L25.4878 7.14001C25.8999 7.03112 26.1283 6.64001 26.3545 6.25112C26.5068 5.99112 27.1115 4.95112 27.3735 3.60223C26.3254 4.50223 25.7207 5.54223 25.5707 5.80223C25.3445 6.19112 25.116 6.58223 25.228 6.99112L18.1621 19.1245Z" fill="black"/>
<path d="M18.1621 19.1245L18.4241 19.2756L25.4878 7.14001C25.8999 7.03112 26.1283 6.64001 26.3545 6.25112C26.5068 5.99112 27.1115 4.95112 27.3735 3.60223C26.3254 4.50223 25.7207 5.54223 25.5707 5.80223C25.3445 6.19112 25.116 6.58223 25.228 6.99112L18.1621 19.1245Z" fill="white"/>
<path d="M26.8071 19.1245L26.5451 19.2756L19.4814 7.14001C19.0694 7.03112 18.8409 6.64001 18.6147 6.25112C18.4624 5.99112 17.8577 4.95112 17.5957 3.60223C18.6438 4.50223 19.2485 5.54223 19.3986 5.80223C19.6248 6.19112 19.8532 6.58223 19.7412 6.99112L26.8071 19.1245Z" fill="black"/>
<path d="M26.8071 19.1245L26.5451 19.2756L19.4814 7.14001C19.0694 7.03112 18.8409 6.64001 18.6147 6.25112C18.4624 5.99112 17.8577 4.95112 17.5957 3.60223C18.6438 4.50223 19.2485 5.54223 19.3986 5.80223C19.6248 6.19112 19.8532 6.58223 19.7412 6.99112L26.8071 19.1245Z" fill="white"/>
<path d="M19.6133 15.6C20.0679 16.8 21.5796 19.2 22.4867 19.2C23.3937 19.2 24.9054 16.8 25.3601 15.6V8.39999C24.9054 7.19999 23.3937 4.79999 22.4867 4.79999C21.5796 4.79999 20.0679 7.19999 19.6133 8.39999V15.6Z" fill="#BB0000"/>
<path d="M25.3585 15.6C25.8132 14.4 26.1155 13.2 26.1155 12C26.1155 10.8 25.8132 9.60002 25.3585 8.40002C24.9039 9.60002 24.6016 10.8 24.6016 12C24.6016 13.2 24.9039 14.4 25.3585 15.6Z" fill="black"/>
<path d="M19.6124 15.6C19.1578 14.4 18.8555 13.2 18.8555 12C18.8555 10.8 19.1578 9.60002 19.6124 8.40002C20.0671 9.60002 20.3694 10.8 20.3694 12C20.3694 13.2 20.0648 14.4 19.6124 15.6Z" fill="black"/>
<path d="M22.4836 12.9C22.8175 12.9 23.0883 12.497 23.0883 12C23.0883 11.5029 22.8175 11.1 22.4836 11.1C22.1496 11.1 21.8789 11.5029 21.8789 12C21.8789 12.497 22.1496 12.9 22.4836 12.9Z" fill="white"/>
<path d="M22.6367 12.8754C22.6367 12.8754 23.2414 14.0754 23.2414 16.0265C23.2414 17.9776 22.6367 19.1776 22.6367 19.1776V12.8754Z" fill="white"/>
<path d="M22.3352 11.1246C22.3352 11.1246 21.7305 9.92458 21.7305 7.97347C21.7305 6.02236 22.3352 4.82458 22.3352 4.82458V11.1246Z" fill="white"/>
<path d="M22.3352 12.8754C22.3352 12.8754 21.7305 14.0754 21.7305 16.0265C21.7305 17.9776 22.3352 19.1776 22.3352 19.1776V12.8754Z" fill="white"/>
<path d="M22.6367 11.1246C22.6367 11.1246 23.2414 9.92458 23.2414 7.97347C23.2414 6.02236 22.6367 4.82458 22.6367 4.82458V11.1246Z" fill="white"/>
</g>
<rect x="1.13438" y="0.15" width="42.7" height="23.7" stroke="#EFEFF8" stroke-width="0.3"/>
<defs>
<clipPath id="clip0_684_45438">
<rect x="0.984375" width="43" height="24" fill="white"/>
</clipPath>
</defs>
</svg>
