<svg width="44" height="24" viewBox="0 0 44 24" fill="none" xmlns="http://www.w3.org/2000/svg">
<g clip-path="url(#clip0_684_43733)">
<path d="M0.65625 0H43.6562V24H0.65625V0Z" fill="#FF0000"/>
<path d="M20.3384 10.3709C19.8882 10.0932 19.409 9.86205 18.9185 9.67316C18.4952 10.2954 18.2489 11.042 18.2489 11.8465C18.2489 12.2465 18.3093 12.6332 18.4258 12.9976C18.6296 12.5309 18.8894 12.0754 19.2052 11.642C19.5389 11.1709 19.9218 10.7443 20.3384 10.3709ZM19.1357 9.38871C19.6687 9.57094 20.1794 9.80871 20.6721 10.0865C20.7818 9.99094 20.8983 9.91093 21.0058 9.82871C20.4862 9.54427 19.933 9.31316 19.3664 9.1376C19.2858 9.21982 19.2052 9.29982 19.1357 9.38871ZM19.615 8.90649C20.2286 9.06871 20.8154 9.29316 21.3686 9.58427C21.4985 9.50205 21.6284 9.42871 21.7516 9.35316C21.1648 9.05538 20.5422 8.8376 19.9017 8.68205C19.7986 8.75094 19.7023 8.82649 19.615 8.90649ZM20.1951 8.50205C20.8714 8.6376 21.5254 8.85538 22.1412 9.15316C22.7616 8.85538 23.4178 8.6376 24.0874 8.50205C23.5208 8.17094 22.8512 7.97982 22.1412 7.97982C21.4291 7.97982 20.7684 8.16871 20.1951 8.50205ZM24.3786 8.69094C23.7358 8.83982 23.1155 9.06427 22.5287 9.35538C22.6586 9.43094 22.7818 9.50427 22.9117 9.58649C23.4716 9.29538 24.0583 9.07094 24.6653 8.90871C24.5779 8.82649 24.4816 8.75094 24.3786 8.69094ZM24.9116 9.14427C24.345 9.31316 23.7985 9.54427 23.2722 9.82871C23.3887 9.91093 23.5052 9.9976 23.6127 10.0865C24.0964 9.80871 24.6093 9.57094 25.1423 9.38871C25.0751 9.29982 25.0012 9.21982 24.9116 9.14427ZM25.3618 9.67982C24.8713 9.86205 24.3987 10.0932 23.9486 10.3709C24.3652 10.7443 24.7414 11.1709 25.0818 11.6443C25.3886 12.0776 25.6484 12.5309 25.8612 12.9998C25.9709 12.6265 26.0314 12.2487 26.0314 11.8487C26.0314 11.042 25.785 10.2954 25.3618 9.67982ZM25.0281 12.3354C24.6182 11.6776 24.1278 11.0954 23.5813 10.602C23.4581 10.6909 23.3282 10.7776 23.2118 10.8665C24.1345 11.7198 24.878 12.7909 25.3483 14.0376C25.4581 13.8754 25.5589 13.7065 25.6417 13.5354C25.4715 13.1287 25.2655 12.7287 25.0281 12.3354ZM22.8624 10.5732C22.9856 10.4843 23.1087 10.3976 23.2386 10.3154C23.1289 10.2198 23.0124 10.1332 22.8982 10.0443C22.7683 10.1265 22.6384 10.2065 22.5085 10.2954H22.5153C22.6317 10.3843 22.7482 10.4798 22.8624 10.5732ZM22.139 10.0309C22.2689 9.94871 22.4055 9.86871 22.5287 9.79316C22.3988 9.71094 22.2689 9.63094 22.139 9.55538C22.0091 9.63094 21.8859 9.71094 21.756 9.79316C21.8882 9.86871 22.0091 9.95093 22.139 10.0309ZM21.7717 10.2954C21.6418 10.2065 21.5186 10.1265 21.3887 10.0443C21.2723 10.1332 21.1558 10.2198 21.0416 10.3087C21.1715 10.3976 21.2947 10.4776 21.4179 10.5665C21.5321 10.4732 21.6485 10.3843 21.7717 10.2954ZM22.139 10.5665C22.0226 10.6554 21.9061 10.7487 21.7829 10.8509C21.9061 10.9465 22.0226 11.0465 22.139 11.1487C22.2555 11.0465 22.3719 10.9465 22.4951 10.8509C22.3786 10.7576 22.2622 10.6554 22.139 10.5665ZM22.139 11.8332C21.6194 12.3887 21.1625 13.0243 20.793 13.7376C20.5399 14.2109 20.3429 14.7065 20.1928 15.1998C20.7661 15.5176 21.4291 15.7087 22.139 15.7087C22.849 15.7087 23.5119 15.5198 24.0852 15.1998C23.9352 14.7043 23.7381 14.2109 23.485 13.7376C23.1155 13.0265 22.6653 12.3887 22.139 11.8332ZM19.886 14.402C20.3294 13.2776 20.9856 12.2954 21.7896 11.482C21.6732 11.3732 21.5567 11.2732 21.4335 11.1643C20.4974 12.0643 19.7471 13.182 19.2903 14.4776C19.4202 14.6198 19.5568 14.7487 19.7068 14.8709C19.765 14.7132 19.8255 14.5576 19.886 14.402ZM22.4884 11.482C23.2946 12.2954 23.9486 13.2776 24.401 14.402C24.4615 14.5576 24.5174 14.7132 24.5712 14.8687C24.7212 14.7465 24.8646 14.6176 24.9945 14.4754C24.5309 13.182 23.7784 12.0643 22.8445 11.162C22.7191 11.2709 22.6048 11.3732 22.4884 11.482ZM18.9319 14.0354C19.4022 12.7887 20.148 11.7265 21.0752 10.8709C20.952 10.7754 20.8289 10.6887 20.699 10.5998C20.1525 11.102 19.662 11.6843 19.2522 12.3398C19.0126 12.7265 18.8087 13.1265 18.6385 13.5309C18.7192 13.7109 18.8222 13.8732 18.9319 14.0354ZM22.1614 7.66871C24.5645 7.66871 26.5241 9.61316 26.5241 11.9976C26.5241 14.382 24.5645 16.3265 22.1614 16.3265C19.7583 16.3265 17.7987 14.382 17.7987 11.9976C17.7987 9.61316 19.7583 7.66871 22.1614 7.66871ZM24.0852 6.71982C23.962 6.86205 23.8254 7.04427 23.6888 7.33538C23.6552 7.25982 23.6552 7.17316 23.6754 7.0776C23.709 6.76649 23.7985 6.57538 23.962 6.31316C24.0158 6.2176 24.0718 6.1376 24.0986 6.03538C24.2017 5.73094 24.1815 5.32427 23.9553 5.00649C23.9889 5.36649 23.8792 5.66427 23.7582 5.84649C23.7381 5.87982 23.7179 5.89982 23.691 5.92871C23.5611 6.0576 23.4178 6.18649 23.2342 6.48427C23.1311 6.64649 23.0304 6.84427 22.9341 7.15538C22.8937 7.08871 22.8803 7.00649 22.887 6.91094C22.8736 6.59316 22.9273 6.39538 23.0438 6.10427C23.0841 6.00205 23.1267 5.91538 23.1401 5.80649C23.1871 5.49538 23.1065 5.09538 22.8333 4.8176C22.9229 5.16205 22.8669 5.47538 22.7728 5.6776C22.7527 5.71094 22.7392 5.7376 22.7191 5.76649C22.6093 5.91538 22.4929 6.06427 22.3495 6.38205C22.2823 6.56427 22.2062 6.77538 22.1659 7.09316C22.1121 7.03316 22.083 6.95094 22.0763 6.85538C22.0158 6.54427 22.036 6.33982 22.1032 6.03538C22.13 5.93316 22.1569 5.83982 22.1502 5.73094C22.1502 5.41316 22.0069 5.03316 21.6933 4.79538C21.8367 5.12649 21.8299 5.44649 21.7695 5.66205C21.756 5.68871 21.7426 5.72205 21.7292 5.75093C21.6463 5.91982 21.5522 6.08205 21.4627 6.42205C21.4223 6.61094 21.3798 6.83538 21.3865 7.15316C21.3328 7.09982 21.2902 7.02427 21.2633 6.93538C21.1536 6.63094 21.1402 6.43316 21.167 6.11538C21.1737 6.00649 21.1805 5.91316 21.167 5.81094C21.1133 5.49316 20.9072 5.13982 20.5668 4.9576C20.7572 5.26205 20.7997 5.57982 20.7706 5.7976C20.7639 5.83094 20.7572 5.86427 20.7505 5.89982C20.6967 6.07538 20.6273 6.25316 20.5937 6.60427C20.5803 6.79316 20.5735 7.0176 20.634 7.33538C20.5668 7.28871 20.5176 7.21982 20.4772 7.13982C20.3205 6.85538 20.2802 6.65982 20.251 6.34649C20.2443 6.2376 20.2376 6.14427 20.1973 6.04205C20.101 5.7376 19.8412 5.41982 19.4739 5.2976C19.7091 5.56205 19.8054 5.86649 19.8054 6.08871C19.8054 6.12205 19.8054 6.15538 19.7986 6.19094C19.7718 6.37316 19.7382 6.56427 19.7583 6.90871C19.7785 7.0976 19.8054 7.32205 19.9151 7.62649C19.839 7.59316 19.7785 7.53094 19.7247 7.4576C19.5277 7.20649 19.4582 7.0176 19.3843 6.71316C19.3574 6.60427 19.3373 6.5176 19.2813 6.41538C19.138 6.1376 18.8311 5.85982 18.4482 5.79316C18.7214 6.02427 18.8647 6.31538 18.9051 6.53094C18.9118 6.56427 18.9118 6.5976 18.9118 6.63316C18.9185 6.81538 18.9118 7.00649 18.9879 7.35093C19.0349 7.53316 19.0977 7.75093 19.2544 8.02871C19.1783 8.00871 19.1111 7.96205 19.0439 7.89316C18.8043 7.67538 18.7035 7.49982 18.587 7.20871C18.5467 7.10649 18.5042 7.01982 18.4437 6.93094C18.2533 6.67982 17.9107 6.4576 17.5143 6.45093C17.8278 6.63316 18.0137 6.89094 18.0876 7.10205C18.0943 7.13538 18.101 7.16871 18.1078 7.20427C18.1414 7.38649 18.1615 7.5776 18.2914 7.90205C18.3676 8.0776 18.4683 8.28205 18.6677 8.53094C18.5848 8.52427 18.5109 8.48427 18.4347 8.42871C18.1682 8.25316 18.0383 8.09094 17.8681 7.82649C17.8144 7.73094 17.7651 7.65094 17.6845 7.57538C17.4583 7.35093 17.0843 7.18205 16.6946 7.2376C17.0283 7.37316 17.2545 7.60427 17.3642 7.79982C17.3777 7.82649 17.3911 7.85982 17.4045 7.89538C17.465 8.06427 17.5143 8.24871 17.6912 8.55316C17.7942 8.71538 17.9241 8.8976 18.1615 9.12205C18.0786 9.12205 17.998 9.09538 17.9152 9.05538C17.6218 8.91982 17.4717 8.78427 17.2657 8.54649C17.1895 8.46427 17.1291 8.39094 17.0395 8.32205C16.7797 8.13982 16.3833 8.03094 16.0093 8.14649C16.3654 8.22871 16.6229 8.4176 16.7528 8.59316C16.7797 8.61982 16.7931 8.64649 16.8066 8.68205C16.8961 8.84427 16.9768 9.01982 17.203 9.28427C17.3261 9.43316 17.4829 9.59538 17.7494 9.77982C17.6733 9.79316 17.5927 9.77982 17.4964 9.74649C17.1895 9.66427 17.0193 9.55094 16.7797 9.34649C16.6968 9.27982 16.6229 9.2176 16.5266 9.16427C16.2399 9.02205 15.8301 8.98205 15.4762 9.15094C15.8391 9.17094 16.1257 9.32649 16.2892 9.47538C16.3094 9.50205 16.3295 9.52205 16.3497 9.5576C16.4661 9.69982 16.5692 9.86205 16.8334 10.0932C16.9768 10.2154 17.1604 10.3509 17.4538 10.4932C17.3777 10.5198 17.2903 10.5198 17.2007 10.4998C16.8805 10.4665 16.6946 10.3776 16.4214 10.2154C16.3251 10.162 16.2444 10.1065 16.1414 10.0798C15.8346 9.9776 15.4315 9.9976 15.1112 10.222C15.4673 10.1887 15.7741 10.2976 15.9578 10.4176C15.9846 10.4376 16.0115 10.4576 16.0339 10.4843C16.1705 10.6132 16.3004 10.7554 16.5938 10.9376C16.7573 11.0398 16.9633 11.1465 17.2702 11.2354C17.203 11.2754 17.1201 11.2887 17.0238 11.2887C16.7035 11.2954 16.5042 11.242 16.2108 11.1265C16.1078 11.0865 16.0205 11.0443 15.9107 11.0309C15.5972 10.9843 15.1941 11.0643 14.9141 11.3354C15.2612 11.2465 15.5837 11.302 15.7808 11.3954C15.8144 11.4154 15.8413 11.4287 15.8704 11.4487C16.0205 11.5576 16.1705 11.6732 16.4975 11.8154C16.6744 11.882 16.8872 11.9576 17.2074 11.9976C17.147 12.0509 17.0641 12.0798 16.9745 12.0865C16.6543 12.1532 16.4549 12.1265 16.1414 12.0598C16.0384 12.0332 15.9443 12.0132 15.8346 12.0132C15.5143 12.0132 15.1314 12.1554 14.8984 12.4665C15.2254 12.3243 15.5479 12.3309 15.7652 12.3909C15.7987 12.4043 15.8256 12.4176 15.8615 12.4309C16.0249 12.5132 16.1952 12.6065 16.5378 12.6954C16.7215 12.7354 16.9477 12.7776 17.2679 12.7709C17.2142 12.8243 17.138 12.8665 17.0484 12.8932C16.7483 13.002 16.5423 13.0154 16.2287 12.9887C16.119 12.982 16.0249 12.9754 15.9152 12.9887C15.6017 13.042 15.2456 13.2465 15.0619 13.5909C15.362 13.3954 15.6823 13.3532 15.9085 13.382C15.9421 13.3887 15.969 13.3954 16.0048 13.402C16.1817 13.462 16.3609 13.5243 16.7147 13.5576C16.9051 13.5709 17.1313 13.5776 17.4516 13.5176C17.4045 13.5843 17.3351 13.6332 17.2545 13.6732C16.9745 13.8287 16.7707 13.8687 16.4549 13.8976C16.3452 13.9109 16.2511 13.9176 16.1481 13.9509C15.8413 14.0465 15.5278 14.3043 15.3979 14.6687C15.6711 14.4309 15.9779 14.3443 16.2041 14.3376C16.2377 14.3376 16.2713 14.3376 16.3071 14.3443C16.4841 14.3709 16.6767 14.4043 17.0305 14.3843C17.2209 14.3709 17.4471 14.3376 17.7472 14.2287C17.7203 14.3043 17.6576 14.3643 17.577 14.4176C17.3239 14.6132 17.1335 14.682 16.8267 14.7554C16.7237 14.782 16.6296 14.802 16.5333 14.8576C16.2467 14.9998 15.9734 15.3043 15.9062 15.6843C16.1324 15.4132 16.4258 15.2709 16.6431 15.2309C16.6767 15.2243 16.7103 15.2243 16.7461 15.2243C16.9297 15.2176 17.1291 15.2243 17.4695 15.1487C17.6531 15.102 17.8726 15.0398 18.1593 14.8843C18.1391 14.9598 18.0831 15.0332 18.0159 15.0932C17.7965 15.3309 17.6195 15.4309 17.3261 15.5465C17.2298 15.5932 17.1425 15.6287 17.0529 15.6887C16.7931 15.8776 16.5692 16.2176 16.5624 16.6109C16.7461 16.2998 17.0126 16.1154 17.2254 16.042C17.259 16.0354 17.2858 16.0287 17.3217 16.022C17.5053 15.9887 17.6979 15.9687 18.0249 15.8398C18.2018 15.7643 18.4079 15.6643 18.6677 15.4732C18.6542 15.5487 18.6206 15.622 18.5579 15.6976C18.381 15.962 18.2242 16.0909 17.951 16.2598C17.8614 16.3132 17.7808 16.362 17.6979 16.442C17.4717 16.6665 17.3082 17.0376 17.3642 17.4243C17.4941 17.0932 17.727 16.8687 17.9241 16.7598C17.9577 16.7465 17.9846 16.7332 18.0204 16.7198C18.1973 16.6665 18.3832 16.6109 18.6833 16.4354C18.8468 16.3332 19.0305 16.2043 19.2567 15.9687C19.2634 16.0509 19.2365 16.1309 19.1895 16.2132C19.0529 16.5043 18.9162 16.6532 18.6766 16.8576C18.5937 16.9332 18.5198 16.9932 18.4571 17.082C18.2735 17.3398 18.1637 17.7332 18.2802 18.1043C18.3564 17.7509 18.5467 17.4954 18.7304 17.3665C18.7572 17.3465 18.7841 17.3265 18.8132 17.3132C18.9767 17.2243 19.1536 17.1443 19.4269 16.9198C19.5702 16.7976 19.7337 16.642 19.9173 16.3776C19.9308 16.4532 19.9173 16.5398 19.8905 16.6287C19.8009 16.9332 19.6934 17.102 19.4806 17.3398C19.4134 17.422 19.3507 17.4954 19.3037 17.5976C19.1604 17.882 19.1133 18.282 19.2835 18.6332C19.3104 18.2732 19.4605 17.9887 19.6172 17.8332C19.6374 17.8065 19.6643 17.7865 19.6934 17.7665C19.8434 17.6509 20.0002 17.5487 20.2331 17.2865C20.3563 17.1443 20.4929 16.962 20.6362 16.6709C20.6631 16.7465 20.6631 16.8332 20.6497 16.922C20.6094 17.2398 20.5265 17.4243 20.363 17.6954C20.3026 17.7909 20.2533 17.8709 20.2197 17.9732C20.1234 18.2776 20.1435 18.6843 20.3697 19.002C20.3361 18.642 20.4369 18.3376 20.5668 18.1554C20.587 18.1287 20.6071 18.102 20.6273 18.0798C20.7572 17.9443 20.9005 17.8154 21.0909 17.5243C21.1872 17.362 21.2947 17.1576 21.3843 16.8532C21.4246 16.9198 21.438 17.002 21.438 17.0976C21.4515 17.4154 21.3977 17.6132 21.2745 17.9043C21.2342 18.0065 21.1984 18.0932 21.1782 18.202C21.1312 18.5132 21.2118 18.9132 21.4851 19.1909C21.3955 18.8465 21.4515 18.5265 21.5522 18.3309C21.5657 18.2976 21.5791 18.2709 21.5993 18.242C21.709 18.0932 21.8322 17.9443 21.9688 17.6198C22.0449 17.4443 22.1189 17.2332 22.1592 16.9154C22.2062 16.9754 22.2353 17.0576 22.2487 17.1465C22.3092 17.4643 22.2891 17.662 22.2152 17.9732C22.1883 18.0754 22.1681 18.1687 22.1681 18.2776C22.1681 18.5954 22.3182 18.9754 22.6317 19.2065C22.4884 18.882 22.4884 18.562 22.5556 18.3465C22.5623 18.3132 22.5757 18.2865 22.5892 18.2509C22.672 18.0887 22.7661 17.9198 22.8557 17.5798C22.896 17.3976 22.9385 17.1732 22.9318 16.8554C22.9923 16.9087 23.0281 16.9843 23.055 17.0732C23.1715 17.3709 23.1782 17.5754 23.158 17.8932C23.1446 17.9954 23.1379 18.0887 23.158 18.1976C23.2051 18.5154 23.4111 18.8687 23.7582 19.0509C23.5679 18.7465 23.5186 18.4287 23.5544 18.2109C23.5544 18.1776 23.5611 18.1443 23.5746 18.1087C23.6283 17.9332 23.6978 17.7554 23.7314 17.4043C23.7381 17.2154 23.7448 16.9909 23.691 16.6732C23.7515 16.7198 23.8075 16.7887 23.8478 16.8687C24.0046 17.1465 24.0449 17.3487 24.074 17.662C24.0807 17.7709 24.0874 17.8643 24.121 17.9665C24.2241 18.2709 24.4771 18.582 24.8511 18.7109C24.6115 18.4398 24.5174 18.1354 24.5107 17.9109C24.5107 17.8776 24.5107 17.8443 24.5174 17.8087C24.5443 17.6332 24.5846 17.442 24.5578 17.0909C24.5443 16.902 24.5107 16.6776 24.4077 16.3798C24.4749 16.4132 24.5376 16.4687 24.5914 16.5487C24.7884 16.7998 24.8646 16.9887 24.9385 17.2932C24.9586 17.3954 24.9855 17.4887 25.0348 17.5843C25.1848 17.8687 25.4849 18.1398 25.8746 18.2065C25.5947 17.982 25.4514 17.6909 25.411 17.4754C25.4043 17.442 25.4043 17.4087 25.4043 17.3732C25.4043 17.1909 25.411 16.9998 25.3371 16.6554C25.2901 16.4732 25.2207 16.2554 25.0639 15.9709C25.1468 15.9909 25.214 16.0465 25.2744 16.1132C25.5141 16.3309 25.6148 16.5065 25.738 16.7976C25.7783 16.8932 25.8142 16.9798 25.8814 17.0687C26.0717 17.3265 26.4144 17.5487 26.8041 17.5554C26.4972 17.3732 26.3136 17.1087 26.2374 16.8976C26.224 16.8643 26.2173 16.8376 26.2106 16.802C26.1837 16.6198 26.1568 16.4287 26.0269 16.1043C25.9508 15.9287 25.8567 15.7243 25.6574 15.4754C25.7403 15.482 25.8142 15.5154 25.8903 15.5776C26.1568 15.7532 26.2867 15.9087 26.4502 16.1798C26.504 16.2687 26.5599 16.3554 26.6339 16.4309C26.86 16.6554 27.2341 16.8176 27.6237 16.762C27.29 16.6332 27.0639 16.402 26.9608 16.2065C26.9407 16.1732 26.9272 16.1465 26.9205 16.1109C26.86 15.9354 26.8041 15.7509 26.6271 15.4532C26.5241 15.2909 26.3942 15.1087 26.1635 14.8843C26.2397 14.8843 26.3203 14.9043 26.4099 14.9509C26.6966 15.0865 26.8533 15.222 27.0594 15.4598C27.1266 15.542 27.1893 15.6154 27.2788 15.6776C27.5386 15.8665 27.935 15.9687 28.3091 15.8598C27.9619 15.7776 27.7021 15.5887 27.5655 15.4065C27.5454 15.3798 27.5252 15.3532 27.5118 15.3243C27.4222 15.162 27.3483 14.9865 27.1221 14.7154C26.9922 14.5732 26.8354 14.4109 26.5689 14.2287C26.6518 14.2154 26.7324 14.2287 26.822 14.2554C27.1288 14.3443 27.299 14.4576 27.5454 14.662C27.6282 14.7287 27.7021 14.7909 27.7984 14.8376C28.0851 14.9798 28.4882 15.0265 28.8421 14.8576C28.4793 14.8309 28.1993 14.682 28.0358 14.5265C28.009 14.5065 27.9888 14.4798 27.9686 14.4509C27.8589 14.302 27.7492 14.1465 27.4916 13.9154C27.3416 13.7932 27.1579 13.6576 26.8712 13.5154C26.9474 13.4887 27.028 13.4887 27.1243 13.502C27.4379 13.542 27.6305 13.6243 27.8947 13.7932C27.991 13.8465 28.0717 13.8954 28.1747 13.9287C28.4815 14.0243 28.8914 14.0043 29.2116 13.7798C28.8488 13.8132 28.5487 13.7132 28.365 13.5843C28.3382 13.5643 28.3113 13.5443 28.2822 13.5243C28.1523 13.3954 28.0224 13.2532 27.7223 13.0643C27.5588 12.9687 27.3595 12.862 27.0459 12.7732C27.1131 12.7332 27.2027 12.7198 27.2923 12.7198C27.6193 12.7065 27.8186 12.7598 28.1053 12.882C28.2083 12.922 28.2956 12.9576 28.4054 12.9776C28.7189 13.0243 29.122 12.9443 29.402 12.6732C29.0548 12.762 28.7391 12.7065 28.5353 12.6065C28.5084 12.5932 28.4748 12.5798 28.4457 12.5598C28.2956 12.4509 28.1456 12.3354 27.8253 12.1932C27.6484 12.1265 27.4289 12.0509 27.1086 12.0043C27.1691 11.9576 27.252 11.9287 27.3483 11.9154C27.6618 11.8554 27.8679 11.8754 28.1747 11.9487C28.2777 11.9754 28.3718 11.9954 28.4815 11.9954C28.8018 11.9954 29.1847 11.8465 29.4244 11.542C29.0907 11.6776 28.7682 11.6776 28.5577 11.6087C28.5241 11.602 28.4905 11.5887 28.4614 11.5754C28.2911 11.4932 28.1277 11.3998 27.785 11.3109C27.5946 11.2709 27.3752 11.2287 27.0482 11.2354C27.1019 11.1754 27.1781 11.1398 27.2677 11.1132C27.5745 10.9976 27.7805 10.9909 28.0941 11.0109C28.2038 11.0243 28.2979 11.0309 28.4076 11.0109C28.7211 10.9643 29.0772 10.7598 29.2609 10.4154C28.9541 10.6043 28.6405 10.6532 28.4143 10.6243C28.3807 10.6176 28.3471 10.6109 28.3113 10.5976C28.1344 10.5443 27.9552 10.4754 27.6081 10.442C27.4177 10.4354 27.1848 10.4287 26.8712 10.4887C26.9116 10.422 26.981 10.3665 27.0683 10.3265C27.3483 10.1709 27.5454 10.1309 27.8611 10.102C27.9709 10.0954 28.0649 10.0887 28.168 10.0554C28.4748 9.95316 28.795 9.70205 28.9182 9.33094C28.6517 9.56871 28.3449 9.66205 28.1187 9.66871C28.0851 9.66871 28.0515 9.66871 28.0157 9.66205C27.832 9.63538 27.6394 9.59538 27.2923 9.62205C27.1019 9.63538 26.8757 9.66871 26.5689 9.7776C26.6025 9.70205 26.6652 9.64205 26.7391 9.58871C26.9922 9.39316 27.1825 9.3176 27.4894 9.24427C27.5991 9.22427 27.6865 9.1976 27.7895 9.14871C28.0694 8.99982 28.3494 8.70205 28.4166 8.31538C28.1836 8.59316 27.897 8.73538 27.673 8.77538C27.6394 8.78205 27.6058 8.78205 27.57 8.78205C27.3863 8.78205 27.1937 8.77538 26.8533 8.84871C26.663 8.89538 26.4435 8.96427 26.1635 9.11982C26.1837 9.0376 26.2307 8.97094 26.3002 8.91094C26.5196 8.67316 26.6966 8.57316 26.9899 8.45093C27.093 8.41093 27.1803 8.37538 27.2699 8.30871C27.523 8.11982 27.7469 7.77982 27.7536 7.39316C27.57 7.6976 27.3102 7.87982 27.0974 7.95538C27.0639 7.96871 27.0303 7.97538 26.9944 7.98205C26.8108 8.01538 26.6182 8.03538 26.2912 8.16427C26.121 8.23982 25.9149 8.33316 25.6574 8.53094C25.6641 8.45538 25.7044 8.37538 25.7604 8.29982C25.9373 8.03538 26.1008 7.90649 26.3673 7.74427C26.4636 7.69094 26.5443 7.63538 26.6204 7.56205C26.8466 7.3376 27.0168 6.96649 26.9608 6.57982C26.8242 6.91094 26.5913 7.13538 26.3942 7.24427C26.3673 7.2576 26.3337 7.27094 26.3046 7.2776C26.1277 7.3376 25.9418 7.39316 25.635 7.56871C25.4715 7.67094 25.2879 7.79982 25.0617 8.02871C25.0617 7.95316 25.0885 7.87316 25.1288 7.79094C25.2655 7.49982 25.4021 7.35093 25.6417 7.13982C25.7246 7.07316 25.7985 7.01094 25.8679 6.92205C26.0516 6.66427 26.1613 6.27094 26.0448 5.89982C25.962 6.24427 25.7716 6.50205 25.5947 6.6376C25.5678 6.6576 25.5409 6.6776 25.5051 6.69094C25.3416 6.77982 25.1647 6.85316 24.8982 7.0776C24.7481 7.20649 24.5846 7.36205 24.4077 7.62649C24.3875 7.55094 24.401 7.46427 24.4346 7.37538C24.5242 7.07094 24.6317 6.90205 24.8377 6.6576C24.9049 6.57538 24.9743 6.50871 25.0214 6.40649C25.1647 6.12205 25.205 5.72205 25.0348 5.37094C25.0146 5.73094 24.8646 6.00871 24.7078 6.17094C24.6809 6.1976 24.6608 6.2176 24.6317 6.2376C24.4816 6.34649 24.3181 6.45538 24.0852 6.71982Z" fill="#FFFF00"/>
</g>
<rect x="0.80625" y="0.15" width="42.7" height="23.7" stroke="#EFEFF8" stroke-width="0.3"/>
<defs>
<clipPath id="clip0_684_43733">
<rect x="0.65625" width="43" height="24" fill="white"/>
</clipPath>
</defs>
</svg>
