<svg width="44" height="24" viewBox="0 0 44 24" fill="none" xmlns="http://www.w3.org/2000/svg">
<g clip-path="url(#clip0_684_45682)">
<path d="M43.9922 0H0.992188V24H43.9922V0Z" fill="#FFC61E"/>
<path d="M43.9922 6H0.992188V24H43.9922V6Z" fill="white"/>
<path d="M43.9922 12H0.992188V24H43.9922V12Z" fill="#CE1126"/>
<path d="M43.9922 18H0.992188V24H43.9922V18Z" fill="#3A75C4"/>
<path d="M0.992188 24L19.1328 12L0.992188 0V24Z" fill="#3D8E33"/>
<path d="M12.0576 11.9999C12.0576 14.6843 9.8651 16.8599 7.15968 16.8599C4.45427 16.8599 2.26172 14.6843 2.26172 11.9999C2.26172 9.31545 4.45427 7.13989 7.15968 7.13989C9.8651 7.13989 12.0576 9.31545 12.0576 11.9999Z" fill="white"/>
<path d="M14.2354 11.9999C14.2354 14.6843 12.0428 16.8599 9.33743 16.8599C6.63201 16.8599 4.43945 14.6843 4.43945 11.9999C4.43945 9.31545 6.63201 7.13989 9.33743 7.13989C12.0428 7.13989 14.2354 9.31545 14.2354 11.9999Z" fill="#3D8E33"/>
<path d="M7.38672 15.2H8.04292L8.24448 14.58L8.44604 15.2H9.10224L8.56922 15.5845L8.77078 16.2045L8.23776 15.82L7.70474 16.2045L7.9063 15.5845L7.38672 15.2Z" fill="white"/>
<path d="M7.38672 8.24457H8.04292L8.24448 7.62457L8.44604 8.24457H9.10224L8.56922 8.62902L8.77078 9.24902L8.23776 8.86457L7.70474 9.24902L7.9063 8.62902L7.38672 8.24457Z" fill="white"/>
<path d="M7.38672 10.5645H8.04292L8.24448 9.94452L8.44604 10.5645H9.10224L8.56922 10.949L8.77078 11.569L8.23776 11.1845L7.70474 11.569L7.9063 10.949L7.38672 10.5645Z" fill="white"/>
<path d="M7.38672 12.8801H8.04292L8.24448 12.2601L8.44604 12.8801H9.10224L8.56922 13.2645L8.77078 13.8845L8.23776 13.5001L7.70474 13.8845L7.9063 13.2645L7.38672 12.8801Z" fill="white"/>
</g>
<rect x="1.14219" y="0.15" width="42.7" height="23.7" stroke="#EFEFF8" stroke-width="0.3"/>
<defs>
<clipPath id="clip0_684_45682">
<rect x="0.992188" width="43" height="24" fill="white"/>
</clipPath>
</defs>
</svg>
