<svg width="44" height="24" viewBox="0 0 44 24" fill="none" xmlns="http://www.w3.org/2000/svg">
<g clip-path="url(#clip0_684_43676)">
<path d="M0.279297 0H43.3689V24H0.279297V0Z" fill="#00AFCA"/>
<path d="M23.5546 13.1667C25.1563 13.1667 26.4548 11.8783 26.4548 10.289C26.4548 8.6996 25.1563 7.41118 23.5546 7.41118C21.9528 7.41118 20.6543 8.6996 20.6543 10.289C20.6543 11.8783 21.9528 13.1667 23.5546 13.1667Z" fill="#FEC50C"/>
<path d="M23.5558 7.02203C23.7282 7.01759 23.7932 6.91092 23.7932 6.78203C23.7932 6.61092 23.5558 5.79536 23.5558 5.79536C23.5558 5.79536 23.3184 6.61092 23.3184 6.78203C23.3206 6.91092 23.3833 7.02203 23.5558 7.02203Z" fill="#FEC50C"/>
<path d="M26.8516 10.2889C26.8516 10.46 26.9591 10.5244 27.089 10.5244C27.2614 10.5244 28.0811 10.2889 28.0811 10.2889C28.0811 10.2889 27.2614 10.0533 27.089 10.0533C26.9591 10.0555 26.8516 10.1178 26.8516 10.2889Z" fill="#FEC50C"/>
<path d="M23.5558 13.5601C23.3833 13.5601 23.3184 13.6668 23.3184 13.7956C23.3184 13.9668 23.5558 14.7801 23.5558 14.7801C23.5558 14.7801 23.7932 13.9668 23.7932 13.7956C23.7932 13.6668 23.7282 13.5601 23.5558 13.5601Z" fill="#FEC50C"/>
<path d="M20.2647 10.2889C20.2647 10.1178 20.1572 10.0533 20.0273 10.0533C19.8548 10.0533 19.0352 10.2889 19.0352 10.2889C19.0352 10.2889 19.8548 10.5244 20.0273 10.5244C20.1505 10.5244 20.2647 10.46 20.2647 10.2889Z" fill="#FEC50C"/>
<path d="M24.8179 7.27093C24.9769 7.33537 25.08 7.2576 25.1292 7.14204C25.1942 6.98426 25.2882 6.14204 25.2882 6.14204C25.2882 6.14204 24.753 6.80426 24.6903 6.96204C24.641 7.0776 24.6589 7.20204 24.8179 7.27093Z" fill="#FEC50C"/>
<path d="M26.6036 11.5421C26.5386 11.6999 26.617 11.8021 26.7335 11.851C26.8925 11.9154 27.7413 12.0087 27.7413 12.0087C27.7413 12.0087 27.0739 11.4776 26.9149 11.4154C26.7917 11.3665 26.6685 11.3843 26.6036 11.5421Z" fill="#FEC50C"/>
<path d="M22.3004 13.309C22.1414 13.2446 22.0384 13.3224 21.9891 13.4379C21.9241 13.5957 21.8301 14.4379 21.8301 14.4379C21.8301 14.4379 22.3653 13.7757 22.4281 13.6179C22.4773 13.5001 22.4594 13.3779 22.3004 13.309Z" fill="#FEC50C"/>
<path d="M20.5147 9.03794C20.5796 8.88016 20.5012 8.77794 20.3848 8.72905C20.2258 8.66461 19.377 8.57127 19.377 8.57127C19.377 8.57127 20.0444 9.10239 20.2034 9.16461C20.3221 9.2135 20.4497 9.19572 20.5147 9.03794Z" fill="#FEC50C"/>
<path d="M25.886 7.97786C26.0114 8.09786 26.1324 8.06675 26.222 7.97786C26.3429 7.85786 26.7572 7.11342 26.7572 7.11342C26.7572 7.11342 26.007 7.52453 25.886 7.64453C25.7964 7.73342 25.7651 7.85786 25.886 7.97786Z" fill="#FEC50C"/>
<path d="M25.886 12.6022C25.7651 12.7267 25.7964 12.8467 25.886 12.9356C26.007 13.0556 26.7572 13.4667 26.7572 13.4667C26.7572 13.4667 26.3429 12.7222 26.222 12.6022C26.1324 12.5133 26.007 12.4778 25.886 12.6022Z" fill="#FEC50C"/>
<path d="M21.2286 12.6025C21.1032 12.4825 20.9823 12.5136 20.8927 12.6025C20.7717 12.7225 20.3574 13.467 20.3574 13.467C20.3574 13.467 21.1077 13.0559 21.2286 12.9359C21.3204 12.847 21.3496 12.7225 21.2286 12.6025Z" fill="#FEC50C"/>
<path d="M21.2286 7.97786C21.3496 7.85342 21.3182 7.73342 21.2286 7.64453C21.1077 7.52453 20.3574 7.11342 20.3574 7.11342C20.3574 7.11342 20.7717 7.85786 20.8927 7.97786C20.9845 8.06675 21.1054 8.10008 21.2286 7.97786Z" fill="#FEC50C"/>
<path d="M26.6022 9.03772C26.6716 9.1955 26.797 9.21328 26.9135 9.16661C27.0725 9.10216 27.7399 8.57327 27.7399 8.57327C27.7399 8.57327 26.8911 8.66661 26.7321 8.73105C26.6112 8.77994 26.5328 8.87772 26.6022 9.03772Z" fill="#FEC50C"/>
<path d="M24.8187 13.309C24.6596 13.3779 24.6417 13.5024 24.6888 13.6179C24.7537 13.7757 25.2867 14.4379 25.2867 14.4379C25.2867 14.4379 25.1927 13.5957 25.1277 13.4379C25.0785 13.3224 24.9777 13.2446 24.8187 13.309Z" fill="#FEC50C"/>
<path d="M20.5147 11.5423C20.4452 11.3846 20.3198 11.3668 20.2034 11.4135C20.0443 11.4779 19.377 12.0068 19.377 12.0068C19.377 12.0068 20.2258 11.9135 20.3848 11.849C20.5057 11.8001 20.5796 11.7001 20.5147 11.5423Z" fill="#FEC50C"/>
<path d="M22.2982 7.27093C22.4572 7.20204 22.4751 7.0776 22.4281 6.96204C22.3631 6.80426 21.8301 6.14204 21.8301 6.14204C21.8301 6.14204 21.9241 6.98426 21.9891 7.14204C22.0339 7.2576 22.1369 7.33537 22.2982 7.27093Z" fill="#FEC50C"/>
<path d="M24.2032 7.08227C24.3711 7.11116 24.4585 7.02227 24.4831 6.89338C24.5167 6.72672 24.4451 5.88005 24.4451 5.88005C24.4451 5.88005 24.0531 6.63338 24.0195 6.80005C23.9927 6.92894 24.0307 7.04894 24.2032 7.08227Z" fill="#FEC50C"/>
<path d="M26.7868 10.9266C26.7576 11.0933 26.8472 11.1799 26.9771 11.2044C27.1451 11.2377 27.9984 11.1666 27.9984 11.1666C27.9984 11.1666 27.2392 10.7777 27.0712 10.7444C26.9435 10.7177 26.8226 10.7599 26.7868 10.9266Z" fill="#FEC50C"/>
<path d="M22.9139 13.4954C22.7459 13.4665 22.6586 13.5554 22.634 13.6843C22.6004 13.851 22.672 14.6976 22.672 14.6976C22.672 14.6976 23.0639 13.9443 23.0975 13.7776C23.1244 13.651 23.0819 13.531 22.9139 13.4954Z" fill="#FEC50C"/>
<path d="M20.3288 9.65325C20.3579 9.48658 20.2683 9.39991 20.1384 9.37547C19.9705 9.34214 19.1172 9.41325 19.1172 9.41325C19.1172 9.41325 19.8764 9.80214 20.0444 9.83547C20.1743 9.86214 20.2952 9.81992 20.3288 9.65325Z" fill="#FEC50C"/>
<path d="M25.3874 7.57109C25.533 7.66443 25.645 7.60887 25.7189 7.5022C25.8129 7.3622 26.0727 6.55331 26.0727 6.55331C26.0727 6.55331 25.4188 7.09998 25.3225 7.2422C25.2553 7.35331 25.2463 7.47554 25.3874 7.57109Z" fill="#FEC50C"/>
<path d="M26.2979 12.1068C26.2038 12.2512 26.2598 12.3623 26.3673 12.4357C26.5084 12.529 27.3236 12.7868 27.3236 12.7868C27.3236 12.7868 26.7726 12.1379 26.6293 12.0423C26.5218 11.9712 26.3919 11.9623 26.2979 12.1068Z" fill="#FEC50C"/>
<path d="M21.7302 13.0088C21.5847 12.9155 21.4727 12.971 21.3988 13.0777C21.3047 13.2177 21.0449 14.0266 21.0449 14.0266C21.0449 14.0266 21.6989 13.4799 21.7952 13.3377C21.8624 13.2266 21.8713 13.1022 21.7302 13.0088Z" fill="#FEC50C"/>
<path d="M20.8206 8.47346C20.9147 8.32901 20.8587 8.2179 20.7512 8.14457C20.6101 8.05124 19.7949 7.79346 19.7949 7.79346C19.7949 7.79346 20.3459 8.44235 20.4892 8.5379C20.5967 8.60902 20.7199 8.6179 20.8206 8.47346Z" fill="#FEC50C"/>
<path d="M26.2979 8.47346C26.3964 8.61346 26.5218 8.61123 26.6293 8.5379C26.7704 8.44457 27.3236 7.79346 27.3236 7.79346C27.3236 7.79346 26.5084 8.04901 26.3673 8.14457C26.2598 8.21568 26.2038 8.33123 26.2979 8.47346Z" fill="#FEC50C"/>
<path d="M25.3883 13.0089C25.2472 13.1067 25.2494 13.2311 25.3233 13.3378C25.4174 13.4778 26.0736 14.0267 26.0736 14.0267C26.0736 14.0267 25.8161 13.2178 25.7197 13.0778C25.6481 12.9667 25.5316 12.9111 25.3883 13.0089Z" fill="#FEC50C"/>
<path d="M20.8206 12.1068C20.7221 11.9668 20.5967 11.9691 20.4892 12.0424C20.3481 12.1357 19.7949 12.7868 19.7949 12.7868C19.7949 12.7868 20.6101 12.5313 20.7512 12.4357C20.8587 12.3646 20.9147 12.2491 20.8206 12.1068Z" fill="#FEC50C"/>
<path d="M21.7302 7.57109C21.8713 7.47331 21.8691 7.34887 21.7952 7.2422C21.7011 7.1022 21.0449 6.55331 21.0449 6.55331C21.0449 6.55331 21.3025 7.3622 21.3988 7.5022C21.4704 7.61331 21.5824 7.66887 21.7302 7.57109Z" fill="#FEC50C"/>
<path d="M26.7881 9.65332C26.8217 9.81999 26.9426 9.86221 27.0681 9.83777C27.236 9.80444 27.9953 9.41555 27.9953 9.41555C27.9953 9.41555 27.142 9.34222 26.974 9.37777C26.8486 9.39999 26.7545 9.48666 26.7881 9.65332Z" fill="#FEC50C"/>
<path d="M24.2021 13.4953C24.0341 13.5286 23.9916 13.6486 24.0162 13.7731C24.0498 13.9397 24.4417 14.6931 24.4417 14.6931C24.4417 14.6931 24.5157 13.8464 24.4798 13.6797C24.4529 13.5553 24.3701 13.462 24.2021 13.4953Z" fill="#FEC50C"/>
<path d="M20.3282 10.9267C20.2946 10.7601 20.1737 10.7178 20.0483 10.7423C19.8803 10.7756 19.1211 11.1645 19.1211 11.1645C19.1211 11.1645 19.9744 11.2378 20.1423 11.2023C20.2655 11.1801 20.3596 11.0934 20.3282 10.9267Z" fill="#FEC50C"/>
<path d="M22.9145 7.08196C23.0824 7.04863 23.125 6.92863 23.1004 6.80418C23.0668 6.63752 22.6748 5.88419 22.6748 5.88419C22.6748 5.88419 22.6009 6.73085 22.6368 6.89752C22.6592 7.02196 22.7465 7.11752 22.9145 7.08196Z" fill="#FEC50C"/>
<path d="M23.0405 16.52C22.9621 16.5244 22.8904 16.5333 22.8121 16.5577C22.7135 16.5711 22.6127 16.6044 22.5142 16.6222L22.4761 16.6266L22.4067 16.6311C22.4112 16.6489 22.4157 16.6689 22.4157 16.6866C22.4157 16.7089 22.4157 16.7244 22.4067 16.7422C22.4022 16.76 22.3888 16.7755 22.3776 16.7844C22.3641 16.8022 22.3485 16.8133 22.3305 16.8222C22.3126 16.8311 22.2925 16.8355 22.2746 16.8355C22.2522 16.8355 22.2365 16.8355 22.2141 16.8266C22.1917 16.8222 22.176 16.8089 22.1581 16.7933C22.1357 16.7977 22.1155 16.8022 22.0976 16.8066C22.0752 16.8066 22.0596 16.8066 22.0416 16.8066C22.0192 16.8022 21.9991 16.7933 21.9812 16.7844C21.9588 16.7755 21.9431 16.7666 21.9252 16.7555C21.8513 16.7977 21.7707 16.84 21.7259 16.9133C21.699 16.9466 21.6967 16.9866 21.6923 17.0289C21.6878 17.08 21.7012 17.1311 21.7214 17.1777C21.7303 17.1911 21.7348 17.1311 21.7595 17.1177C21.802 17.0844 21.849 17.0577 21.9006 17.0444C21.9431 17.0222 21.9386 17.0444 21.9229 17.0777C21.9185 17.0955 21.8938 17.1622 21.9274 17.1289C22.073 17.0644 22.2342 17.0511 22.3933 17.04C22.6217 17.0177 22.8501 17.0111 23.0786 17.0111C23.2936 17.0155 23.5086 17.0155 23.7258 17.0244C23.8288 17.0289 23.9318 17.0511 24.0326 17.0333C24.0595 17.0289 24.0976 17.0244 24.111 17.0111C24.064 16.9844 24.0125 16.9844 23.961 16.9777H23.5489C23.4324 16.9644 23.316 16.9644 23.2085 16.9222C23.1793 16.9089 23.1525 16.8844 23.1256 16.9133C23.083 16.9266 23.0405 16.94 22.9957 16.94C22.9173 16.9444 22.8456 16.9311 22.7762 16.9022C22.8277 16.8333 22.8882 16.7733 22.9397 16.7089C22.8972 16.7 22.8546 16.6911 22.8053 16.6822C22.8927 16.64 22.9666 16.58 23.0405 16.52Z" fill="#FEC50C"/>
<path d="M26.3957 17.26C26.2412 17.3533 26.1202 17.1866 25.9903 17.14C25.8963 17.1911 25.8873 17.3577 25.8 17.44C25.697 17.56 25.5671 17.4066 25.576 17.2911C25.4506 17.3933 25.3857 17.6333 25.1886 17.6C25.0945 17.5222 25.0206 17.36 24.9467 17.5444C24.8862 17.6333 24.7272 17.7622 24.6444 17.6266C24.6175 17.5066 24.5592 17.3666 24.4943 17.5533C24.4473 17.6911 24.3039 17.7888 24.1628 17.7288C24.0845 17.6644 24.2233 17.4333 24.1292 17.4511C23.9837 17.5444 23.8963 17.7844 23.6948 17.7666C23.6164 17.6777 23.7418 17.5266 23.6567 17.4288C23.5537 17.5622 23.4417 17.7488 23.2603 17.7666C23.1752 17.6977 23.2648 17.4977 23.2088 17.4711C23.0274 17.5777 22.8348 17.7755 22.6063 17.7111C22.6959 17.3733 23.0677 17.2533 23.3812 17.2288C23.921 17.1644 24.4876 17.2844 25.0094 17.0911C25.0945 17.04 25.2983 16.9666 25.2244 16.8511C25.1595 16.7577 25.3924 16.7955 25.4148 16.6844C25.4013 16.5466 25.5223 16.5644 25.6387 16.5511C26.165 16.5288 26.6824 16.6355 27.2064 16.6577C27.2445 16.9111 26.9601 17.0888 26.7361 17.0133C26.6286 17.0311 26.4651 16.7644 26.4942 16.9577C26.4741 17.0577 26.492 17.1911 26.3957 17.26ZM21.9277 16.7422C22.0487 16.8533 22.1338 16.72 22.2458 16.6733C22.6242 16.5444 22.9602 16.3133 23.2894 16.0866C23.4887 15.9244 23.6589 15.7111 23.9277 15.66C24.4495 15.5022 25.0004 15.5222 25.5223 15.3777C25.9187 14.84 26.595 14.6466 27.1594 14.3355C27.2848 14.2977 27.3363 14.1955 27.3744 14.08C27.5894 13.7422 27.8828 13.4422 28.2322 13.2377C28.3957 13.1488 28.595 13.0977 28.7786 13.14C28.7652 13.3622 28.6375 13.5555 28.4852 13.7088C28.6107 13.7044 28.7182 13.6266 28.848 13.6311C28.8906 13.8577 28.6465 13.9777 28.5166 14.1177C28.5905 14.1355 28.8704 14.1555 28.7159 14.2288C28.5211 14.3622 28.3016 14.4555 28.1202 14.6088C28.2837 14.6377 28.3061 14.6733 28.1381 14.7333C28.0485 14.7933 27.8716 14.8155 27.8537 14.9333C27.9791 15.0111 27.7977 15.0822 27.7238 15.1088C27.5894 15.1377 27.4483 15.1977 27.6252 15.3022C27.5558 15.4044 27.4147 15.4266 27.2938 15.4133C27.3274 15.5288 27.3789 15.6577 27.2333 15.7088C26.8974 15.9622 26.501 16.1444 26.0777 16.1866C26.6085 16.2244 27.1504 16.1311 27.6028 15.8444C27.6633 15.7755 27.9724 15.7 27.8022 15.64C27.7193 15.6066 27.5446 15.5666 27.5312 15.5066C27.7775 15.3577 28.0821 15.4088 28.3464 15.3222C28.3553 15.2377 28.1471 15.2622 28.0709 15.24C27.885 15.2222 27.8985 15.18 28.0754 15.1622C28.2994 15.1022 28.5547 15.0888 28.7428 14.9488C28.5883 14.8755 28.3934 14.94 28.2299 14.8844C28.5099 14.7644 28.8369 14.7511 29.0877 14.5688C29.1997 14.4444 28.9421 14.4844 28.8682 14.4866C28.7137 14.5133 28.6442 14.44 28.8167 14.3755C29.1146 14.1577 29.4931 14.0155 29.7036 13.7C29.7551 13.6266 29.82 13.4133 29.661 13.4911C29.455 13.56 29.2691 13.7955 29.0317 13.7222C29.502 13.3622 29.9454 12.9533 30.2635 12.4533C30.2814 12.3088 30.0529 12.2955 29.9925 12.4066C29.6901 12.6933 29.4191 13.0355 29.0362 13.2155C29.4057 12.86 29.7081 12.4466 29.9746 12.0088C30.0306 11.88 30.1851 11.7266 30.1045 11.5822C29.9701 11.4711 29.8021 11.5733 29.7349 11.7066C29.502 12.0111 29.3251 12.3644 29.025 12.6088C29.287 12.1088 29.5602 11.5777 29.567 11.0066C29.567 10.8866 29.5401 10.7155 29.3811 10.7377C29.2512 10.76 29.2825 10.9511 29.231 11.0488C29.1146 11.4422 29.0586 11.8644 28.8212 12.2111C28.8727 11.8911 28.9667 11.5577 28.8996 11.2355C28.866 11.0911 28.6331 11.1533 28.6622 11.2955C28.3822 12.7022 27.4304 13.9333 26.1852 14.6466C25.6163 14.9666 24.978 15.1733 24.333 15.2666C24.1606 15.3044 23.9702 15.2844 23.8023 15.34C23.3969 15.6488 23.155 16.16 22.6422 16.3244C22.4137 16.4355 22.1159 16.4622 21.9524 16.6711C21.9322 16.6777 21.9277 16.7111 21.9277 16.7422Z" fill="#FEC50C"/>
<path d="M23.458 15.3133C23.3796 15.4511 23.337 15.6044 23.243 15.7289C22.9496 15.4644 22.5286 15.4733 22.1568 15.4555C21.85 15.4377 21.5185 15.4133 21.2811 15.1955C21.0303 14.9955 20.8287 14.7289 20.5532 14.5666C20.2979 14.4977 20.0449 14.4133 19.8433 14.2422C19.4088 13.8911 19.158 13.3666 18.7325 13.0022C18.6496 12.92 18.5555 12.8622 18.466 12.7933C18.3809 12.8155 18.4189 12.9977 18.3114 12.9044C18.2554 12.8622 18.1099 12.8622 18.0964 12.9177C18.2263 13.0889 18.354 13.2822 18.3764 13.5C18.2868 13.5089 18.13 13.4822 18.0875 13.5133C18.2039 13.6889 18.354 13.8422 18.5264 13.9666C18.4436 13.98 18.2801 13.9711 18.251 14.0044C18.4234 14.1422 18.6048 14.2822 18.8288 14.3155C18.8758 14.3755 18.7638 14.4911 18.8556 14.5422C18.9116 14.5644 19.093 14.6022 18.9676 14.6622C18.8825 14.7177 18.9161 14.8555 19.0236 14.8511C19.093 14.8844 19.2476 14.8933 19.261 14.9533C19.2005 15.0133 19.0102 15.0911 19.1714 15.1466C19.3215 15.2311 19.4939 15.2844 19.6709 15.2911C19.5857 15.3644 19.476 15.4066 19.3864 15.4755C19.7873 15.7066 20.2307 15.86 20.6652 16.0089C20.8377 16.0689 21.0146 16.12 21.196 16.1533C20.6697 16.1244 20.1613 15.9689 19.6843 15.76C19.4335 15.6533 19.1893 15.5466 18.934 15.4555C19.046 15.4 19.1759 15.3822 19.2924 15.3355C19.0505 15.2889 18.7929 15.2711 18.5824 15.1422C18.616 15.0866 18.7369 15.0822 18.8064 15.0533C18.9363 15.0244 19.0124 14.9844 18.8332 14.9755C18.6518 14.9289 18.4458 14.9489 18.2868 14.8377C18.2957 14.7733 18.4637 14.7955 18.5331 14.7689C18.6182 14.7555 18.7146 14.7422 18.784 14.6844C18.504 14.5689 18.1367 14.6511 17.9173 14.4066C17.8657 14.3133 18.0718 14.3889 18.1323 14.3733C18.2823 14.3733 18.4436 14.42 18.5891 14.36C18.1793 14.18 17.7448 14.0177 17.4335 13.6889C17.3999 13.6377 17.2947 13.4911 17.3775 13.4755C17.6194 13.5044 17.7963 13.7711 18.0539 13.7289C18.0875 13.6822 17.9038 13.6089 17.8546 13.54C17.4761 13.22 17.1088 12.8689 16.8467 12.4489C16.8288 12.3089 17.0483 12.2866 17.1088 12.3977C17.3977 12.6755 17.6597 12.9955 18.018 13.1844C18.1479 13.2444 17.9441 13.1111 17.9195 13.0644C17.588 12.68 17.2678 12.2777 17.0416 11.8244C16.999 11.7422 16.9296 11.5977 17.055 11.5511C17.1804 11.4911 17.3059 11.5733 17.3663 11.68C17.6127 11.9889 17.7896 12.3511 18.0942 12.6044C17.8366 12.1044 17.5589 11.5777 17.5522 11.0044C17.5567 10.8933 17.5656 10.7266 17.7157 10.7311C17.8456 10.7133 17.8232 10.8711 17.8657 10.9533C17.9912 11.3755 18.0472 11.8333 18.3002 12.2066C18.2442 11.8955 18.1614 11.5689 18.2174 11.2533C18.2308 11.1511 18.3473 11.1155 18.4234 11.18C18.4884 11.3333 18.5018 11.5177 18.5578 11.68C18.8803 12.7822 19.6081 13.7489 20.5622 14.4C21.3416 14.9311 22.2732 15.2511 23.2206 15.3066C23.2855 15.3044 23.3729 15.3089 23.458 15.3133Z" fill="#FEC50C"/>
<path d="M22.255 16.7711C22.2836 16.7711 22.3068 16.7482 22.3068 16.72C22.3068 16.6917 22.2836 16.6689 22.255 16.6689C22.2263 16.6689 22.2031 16.6917 22.2031 16.72C22.2031 16.7482 22.2263 16.7711 22.255 16.7711Z" fill="#FEC50C"/>
<path d="M22.2491 16.7379C22.2615 16.7379 22.2716 16.728 22.2716 16.7157C22.2716 16.7034 22.2615 16.6935 22.2491 16.6935C22.2366 16.6935 22.2266 16.7034 22.2266 16.7157C22.2266 16.728 22.2366 16.7379 22.2491 16.7379Z" fill="#FEC50C" stroke="#00AFCA" stroke-width="0.1905" stroke-miterlimit="2"/>
<path d="M2.86443 2.87105C2.86443 2.87105 2.65839 2.69994 2.58896 2.78661C2.47698 2.92661 2.93833 3.61994 2.93833 3.86439C2.93833 4.26661 2.66734 4.37327 2.33589 4.43327C2.11193 4.46661 1.74464 4.41105 1.74464 4.41105C1.81406 4.32216 1.85661 4.29105 1.97307 4.28661C1.84318 4.22216 1.71552 4.07772 1.71552 3.8555C1.71552 3.50883 1.85661 3.36883 1.85661 2.97994C1.85661 2.76661 1.67969 2.48883 1.67969 2.48883C1.99323 2.51772 2.15 2.80883 2.06266 3.03994C2.11417 3.04883 2.15672 3.0355 2.19703 2.99772C2.21943 3.06216 2.18359 3.1355 2.13656 3.19772C2.17464 3.21994 2.20599 3.20661 2.26646 3.19327C2.26198 3.25772 2.21943 3.33105 2.12536 3.39327C2.40979 3.31994 2.58224 3.51772 2.58224 3.72216C2.58224 3.8755 2.47474 3.98661 2.36724 3.98661C2.33365 3.98661 2.28214 3.97327 2.25526 3.95327C2.23286 3.9955 2.2463 4.05105 2.2687 4.09327C2.19031 4.07105 2.1388 4.02439 2.17464 3.93105C2.11417 3.92661 2.06714 3.90439 2.03354 3.86661C2.06714 3.82439 2.11641 3.80216 2.17464 3.80216C2.13208 3.71328 2.17911 3.66216 2.25302 3.62216C2.25302 3.62216 2.20599 3.80216 2.32245 3.80216C2.37396 3.80216 2.42099 3.78439 2.42099 3.70883C2.42099 3.64439 2.36052 3.55105 2.22615 3.5555C2.09177 3.55994 1.97979 3.64883 1.97979 3.86439C1.97979 4.06216 2.1388 4.15994 2.34932 4.16439C2.53969 4.16883 2.68526 4.06661 2.68526 3.87328C2.68526 3.61328 2.30677 3.02216 2.30677 2.79105C2.30677 2.6155 2.4613 2.52216 2.61807 2.52216C2.8174 2.52216 2.98536 2.71994 2.98536 2.71994L2.86443 2.87105Z" fill="#FEC50C"/>
<path d="M2.9093 7.55803C2.9093 7.98915 2.51737 8.21137 2.21055 8.21137C1.79622 8.21137 1.57227 7.96248 1.57227 7.64248C1.57227 7.45803 1.60586 7.34248 1.6932 7.17137C1.6932 7.17137 2.37852 5.76026 2.64503 5.21359C2.67862 5.1447 2.68758 5.06915 2.68758 4.95359C2.68758 4.77803 2.51513 4.63359 2.33372 4.62915C2.17023 4.6247 1.98883 4.78248 1.98883 4.95803C1.98883 5.17137 2.10081 5.26915 2.21727 5.26915C2.35836 5.26915 2.41659 5.20915 2.41659 5.11137C2.41659 5.04248 2.38299 5.01359 2.33372 5.01359C2.21279 5.01359 2.24862 5.17581 2.24862 5.17581C2.18815 5.16248 2.13664 5.10248 2.16576 5.02692C2.11872 5.01803 2.08065 4.99359 2.04482 4.95803C2.07841 4.92915 2.11424 4.90248 2.16576 4.89359C2.13664 4.79581 2.17471 4.75359 2.25982 4.73137C2.2419 4.7647 2.2419 4.80026 2.24638 4.83359C2.37628 4.79581 2.57784 4.85581 2.57784 5.07803C2.57784 5.30026 2.42331 5.4847 2.1344 5.44248C2.20383 5.47581 2.23742 5.54026 2.24638 5.61803C2.19487 5.59581 2.1344 5.59581 2.1344 5.59581C2.16799 5.65581 2.21727 5.70692 2.21279 5.82248C2.1568 5.79581 2.10977 5.75359 2.04034 5.78026C2.14784 5.98915 2.01346 6.2847 1.67753 6.35359C1.80294 6.20915 1.86341 6.05359 1.86341 5.90026C1.86341 5.40026 1.72232 5.31359 1.72232 4.9647C1.72232 4.82026 1.8007 4.66026 1.94628 4.55359V4.55803C1.84773 4.53137 1.78279 4.4847 1.74695 4.41803C1.97539 4.35359 2.30237 4.35359 2.4793 4.42692C2.68086 4.44915 2.82419 4.60692 2.86674 4.68248C2.9093 4.76026 2.99216 5.04692 2.86674 5.30248C2.73237 5.58026 2.09633 6.91803 1.90148 7.33803C1.85893 7.42692 1.83206 7.52248 1.83206 7.6247C1.83206 7.88026 2.06945 7.97137 2.20159 7.97137C2.3606 7.97137 2.52857 7.84692 2.52857 7.69803C2.52857 7.60026 2.47706 7.5447 2.39867 7.5447C2.21727 7.5447 2.22622 7.69803 2.2643 7.79803C2.15232 7.74692 2.08289 7.65803 2.10529 7.56248C2.04034 7.55359 1.97987 7.5247 1.92388 7.46026C1.96643 7.4047 2.02242 7.36248 2.10529 7.36248C2.07169 7.21359 2.17023 7.15359 2.2643 7.11803C2.23518 7.2247 2.21279 7.35359 2.39867 7.35359C2.53753 7.35359 2.64055 7.37581 2.7055 7.4647C2.70997 7.34915 2.71893 6.88692 2.71893 6.88692C2.72789 6.71581 2.48602 6.72026 2.33148 6.77137C2.38747 6.57137 2.50841 6.46248 2.78388 6.49359C2.71893 6.46692 2.64503 6.4047 2.64503 6.2847C2.64503 6.12248 2.7794 5.94248 2.86451 5.89137L2.9093 7.55803Z" fill="#FEC50C"/>
<path d="M2.9093 8.85797C2.9093 8.42686 2.51737 8.20464 2.21055 8.20464C1.79622 8.20464 1.57227 8.45352 1.57227 8.77352C1.57227 8.95797 1.60586 9.07352 1.6932 9.24463C1.6932 9.24463 2.37852 10.6557 2.64503 11.2024C2.67862 11.2713 2.68758 11.3469 2.68758 11.4624C2.68758 11.638 2.51513 11.7824 2.33372 11.7869C2.17023 11.7913 1.98883 11.6335 1.98883 11.458C1.98883 11.2446 2.10081 11.1469 2.21727 11.1469C2.35836 11.1469 2.41659 11.2069 2.41659 11.3046C2.41659 11.3735 2.38299 11.4024 2.33372 11.4024C2.21279 11.4024 2.24862 11.2402 2.24862 11.2402C2.18815 11.2535 2.13664 11.3135 2.16576 11.3891C2.11872 11.398 2.08065 11.4224 2.04482 11.458C2.07841 11.4869 2.11424 11.5135 2.16576 11.5224C2.13664 11.6157 2.17471 11.6624 2.25534 11.6802C2.23742 11.6469 2.23742 11.6113 2.2419 11.578C2.3718 11.6157 2.57336 11.5557 2.57336 11.3335C2.57336 11.1113 2.41883 10.9269 2.12992 10.9691C2.19935 10.9357 2.23294 10.8713 2.2419 10.7935C2.19039 10.8157 2.12992 10.8157 2.12992 10.8157C2.16352 10.7557 2.21279 10.7046 2.20831 10.5891C2.15232 10.6157 2.10529 10.658 2.03586 10.6313C2.14336 10.4224 2.00898 10.1269 1.67305 10.058C1.79846 10.2024 1.85893 10.358 1.85893 10.5113C1.85893 11.0113 1.71784 11.098 1.71784 11.4469C1.71784 11.5913 1.79622 11.7513 1.9418 11.858V11.8535C1.84326 11.8802 1.77831 11.9269 1.74247 11.9935C1.97091 12.058 2.29789 12.058 2.47482 11.9846C2.67638 11.9624 2.81971 11.8046 2.86227 11.7291C2.90482 11.6513 2.98768 11.3646 2.86227 11.1091C2.72789 10.8313 2.09185 9.49352 1.89701 9.07352C1.85445 8.98463 1.82758 8.88908 1.82758 8.78686C1.82758 8.5313 2.06497 8.44019 2.19711 8.44019C2.35612 8.44019 2.52409 8.56463 2.52409 8.71352C2.52409 8.8113 2.47258 8.86686 2.39419 8.86686C2.21279 8.86686 2.22175 8.71352 2.25982 8.61352C2.14784 8.66463 2.07841 8.75352 2.10081 8.84908C2.03586 8.85797 1.97539 8.88686 1.9194 8.9513C1.96195 9.00686 2.01794 9.04908 2.10081 9.04908C2.06721 9.19797 2.16576 9.25797 2.25982 9.29352C2.2307 9.18686 2.20831 9.05797 2.39419 9.05797C2.53305 9.05797 2.63607 9.03575 2.70102 8.94686C2.7055 9.06241 2.71445 9.52463 2.71445 9.52463C2.72341 9.69574 2.48154 9.6913 2.32701 9.64019C2.383 9.84019 2.50393 9.94908 2.7794 9.91797C2.71445 9.94463 2.64055 10.0069 2.64055 10.1269C2.64055 10.2891 2.77492 10.4691 2.86003 10.5202L2.9093 8.85797Z" fill="#FEC50C"/>
<path d="M2.86451 2.87123C2.86451 2.87123 3.07055 2.70012 3.13997 2.78679C3.25195 2.92679 2.7906 3.62012 2.7906 3.86456C2.7906 4.26679 3.06159 4.37345 3.39305 4.43345C3.61701 4.47123 3.97982 4.41567 3.97982 4.41567C3.91039 4.32679 3.86784 4.29567 3.75138 4.29123C3.88128 4.22679 4.00893 4.08234 4.00893 3.86012C4.00893 3.51345 3.86784 3.37345 3.86784 2.98456C3.86784 2.77123 4.04477 2.49345 4.04477 2.49345C3.73122 2.52234 3.57445 2.81345 3.6618 3.04456C3.61029 3.05345 3.56773 3.04012 3.52742 3.00234C3.50951 3.06679 3.54534 3.14012 3.59685 3.20234C3.55878 3.22456 3.52742 3.21123 3.46695 3.1979C3.47143 3.26234 3.51398 3.33568 3.60805 3.3979C3.32362 3.32456 3.15117 3.52234 3.15117 3.72679C3.15117 3.88012 3.25867 3.99123 3.36617 3.99123C3.39977 3.99123 3.45128 3.9779 3.47815 3.9579C3.50055 4.00012 3.48711 4.05567 3.46471 4.0979C3.5431 4.07567 3.59461 4.02901 3.55878 3.93568C3.61924 3.93123 3.66628 3.90901 3.69987 3.87123C3.66628 3.82901 3.61701 3.80679 3.55878 3.80679C3.60133 3.7179 3.5543 3.66679 3.48039 3.62679C3.48039 3.62679 3.52742 3.80679 3.41096 3.80679C3.35945 3.80679 3.31242 3.78901 3.31242 3.71345C3.31242 3.64901 3.37289 3.55568 3.50727 3.56012C3.64164 3.56456 3.75362 3.65345 3.75362 3.86901C3.75362 4.06679 3.59461 4.16456 3.38409 4.16901C3.19372 4.17345 3.04815 4.07123 3.04815 3.8779C3.04815 3.6179 3.42664 3.02679 3.42664 2.79568C3.42664 2.62012 3.27211 2.52679 3.11534 2.52679C2.91602 2.52679 2.74805 2.72456 2.74805 2.72456L2.86451 2.87123Z" fill="#FEC50C"/>
<path d="M2.82215 7.55764C2.82215 7.98875 3.21408 8.21097 3.5209 8.21097C3.93522 8.21097 4.15918 7.96208 4.15918 7.64208C4.15918 7.45764 4.12559 7.34208 4.03825 7.17097C4.03825 7.17097 3.35293 5.75986 3.08642 5.21319C3.05283 5.1443 3.04387 5.06874 3.04387 4.95319C3.04387 4.77763 3.21632 4.63319 3.39772 4.62874C3.56121 4.6243 3.74262 4.78208 3.74262 4.95763C3.74262 5.17097 3.63064 5.26875 3.51418 5.26875C3.37309 5.26875 3.31486 5.20875 3.31486 5.11097C3.31486 5.04208 3.34845 5.01319 3.39772 5.01319C3.51866 5.01319 3.48283 5.17541 3.48283 5.17541C3.5433 5.16208 3.59481 5.10208 3.56569 5.02652C3.61272 5.01763 3.6508 4.99319 3.68663 4.95763C3.65304 4.92875 3.6172 4.90208 3.56569 4.89319C3.59481 4.79986 3.55674 4.75319 3.47611 4.73541C3.49403 4.76874 3.49403 4.8043 3.48955 4.83763C3.35965 4.79986 3.15809 4.85986 3.15809 5.08208C3.15809 5.3043 3.31262 5.48875 3.60153 5.44652C3.5321 5.47986 3.49851 5.5443 3.48955 5.62208C3.54106 5.59986 3.60153 5.59986 3.60153 5.59986C3.56793 5.65986 3.51866 5.71097 3.52314 5.82652C3.57913 5.79986 3.62616 5.75763 3.69559 5.7843C3.58809 5.99319 3.72246 6.28875 4.0584 6.35764C3.93298 6.21319 3.87252 6.05764 3.87252 5.9043C3.87252 5.4043 4.01361 5.31763 4.01361 4.96875C4.01361 4.8243 3.93522 4.6643 3.78965 4.55763V4.56208C3.88819 4.53541 3.95314 4.48874 3.98897 4.42208C3.76054 4.35763 3.43356 4.35763 3.25663 4.43097C3.05507 4.45319 2.91174 4.61097 2.86918 4.68652C2.82663 4.7643 2.74377 5.05097 2.86918 5.30652C3.00356 5.5843 3.6396 6.92208 3.83444 7.34208C3.877 7.43097 3.90387 7.52652 3.90387 7.62875C3.90387 7.8843 3.66647 7.97541 3.53434 7.97541C3.37533 7.97541 3.20736 7.85097 3.20736 7.70208C3.20736 7.6043 3.25887 7.54875 3.33726 7.54875C3.51866 7.54875 3.5097 7.70208 3.47163 7.80208C3.58361 7.75097 3.65304 7.66208 3.63064 7.56652C3.69559 7.55764 3.75606 7.52875 3.81205 7.4643C3.7695 7.40875 3.71351 7.36652 3.63064 7.36652C3.66424 7.21764 3.56569 7.15764 3.47163 7.12208C3.50075 7.22875 3.52314 7.35764 3.33726 7.35764C3.1984 7.35764 3.09538 7.37986 3.03043 7.46875C3.02595 7.35319 3.017 6.89097 3.017 6.89097C3.00804 6.71986 3.24991 6.7243 3.40444 6.77541C3.34845 6.57541 3.22752 6.46652 2.95205 6.49764C3.017 6.47097 3.0909 6.40875 3.0909 6.28875C3.0909 6.12652 2.95653 5.94652 2.87142 5.89541L2.82215 7.55764Z" fill="#FEC50C"/>
<path d="M2.82215 8.85797C2.82215 8.42686 3.21408 8.20464 3.5209 8.20464C3.93522 8.20464 4.15918 8.45352 4.15918 8.77352C4.15918 8.95797 4.12559 9.07352 4.03825 9.24463C4.03825 9.24463 3.35293 10.6557 3.08642 11.2024C3.05283 11.2713 3.04387 11.3469 3.04387 11.4624C3.04387 11.638 3.21632 11.7824 3.39772 11.7869C3.56121 11.7913 3.74262 11.6335 3.74262 11.458C3.74262 11.2446 3.63064 11.1469 3.51418 11.1469C3.37309 11.1469 3.31486 11.2069 3.31486 11.3046C3.31486 11.3735 3.34845 11.4024 3.39772 11.4024C3.51866 11.4024 3.48283 11.2402 3.48283 11.2402C3.5433 11.2535 3.59481 11.3135 3.56569 11.3891C3.61272 11.398 3.6508 11.4224 3.68663 11.458C3.65304 11.4869 3.6172 11.5135 3.56569 11.5224C3.59481 11.6157 3.55674 11.6624 3.47611 11.6802C3.49403 11.6469 3.49403 11.6113 3.48955 11.578C3.35965 11.6157 3.15809 11.5557 3.15809 11.3335C3.15809 11.1113 3.31262 10.9269 3.60153 10.9691C3.5321 10.9357 3.49851 10.8713 3.48955 10.7935C3.54106 10.8157 3.60153 10.8157 3.60153 10.8157C3.56793 10.7557 3.51866 10.7046 3.52314 10.5891C3.57913 10.6157 3.62616 10.658 3.69559 10.6313C3.58809 10.4224 3.72246 10.1269 4.0584 10.058C3.93298 10.2024 3.87252 10.358 3.87252 10.5113C3.87252 11.0113 4.01361 11.098 4.01361 11.4469C4.01361 11.5913 3.93522 11.7513 3.78965 11.858V11.8535C3.88819 11.8802 3.95314 11.9269 3.98897 11.9935C3.76054 12.058 3.43356 12.058 3.25663 11.9846C3.05507 11.9624 2.91174 11.8046 2.86918 11.7291C2.82663 11.6513 2.74377 11.3646 2.86918 11.1091C3.00356 10.8313 3.6396 9.49352 3.83444 9.07352C3.877 8.98463 3.90387 8.88908 3.90387 8.78686C3.90387 8.5313 3.66647 8.44019 3.53434 8.44019C3.37533 8.44019 3.20736 8.56463 3.20736 8.71352C3.20736 8.8113 3.25887 8.86686 3.33726 8.86686C3.51866 8.86686 3.5097 8.71352 3.47163 8.61352C3.58361 8.66463 3.65304 8.75352 3.63064 8.84908C3.69559 8.85797 3.75606 8.88686 3.81205 8.9513C3.7695 9.00686 3.71351 9.04908 3.63064 9.04908C3.66424 9.19797 3.56569 9.25797 3.47163 9.29352C3.50075 9.18686 3.52314 9.05797 3.33726 9.05797C3.1984 9.05797 3.09538 9.03575 3.03043 8.94686C3.02595 9.06241 3.017 9.52463 3.017 9.52463C3.00804 9.69574 3.24991 9.6913 3.40444 9.64019C3.34845 9.84019 3.22752 9.94908 2.95205 9.91797C3.017 9.94463 3.0909 10.0069 3.0909 10.1269C3.0909 10.2891 2.95653 10.4691 2.87142 10.5202L2.82215 8.85797Z" fill="#FEC50C"/>
<path d="M2.86385 21.1289C2.86385 21.1289 2.65781 21.3 2.58839 21.2133C2.47641 21.0733 2.93776 20.38 2.93776 20.1355C2.93776 19.7333 2.66677 19.6266 2.33531 19.5666C2.11135 19.5289 1.74854 19.5844 1.74854 19.5844C1.81797 19.6733 1.86052 19.7044 1.97698 19.7089C1.84708 19.7733 1.71943 19.9178 1.71943 20.14C1.71943 20.4866 1.86052 20.6266 1.86052 21.0155C1.86052 21.2289 1.68359 21.5066 1.68359 21.5066C1.99714 21.4778 2.15391 21.1866 2.06656 20.9555C2.11807 20.9466 2.16062 20.96 2.20094 20.9978C2.22333 20.9333 2.1875 20.86 2.14047 20.7978C2.17854 20.7755 2.2099 20.7889 2.27036 20.8022C2.26589 20.7378 2.22333 20.6644 2.12927 20.6022C2.4137 20.6755 2.58615 20.4778 2.58615 20.2733C2.58615 20.12 2.47865 20.0089 2.37115 20.0089C2.33755 20.0089 2.28604 20.0222 2.25917 20.0422C2.23677 20 2.25021 19.9444 2.2726 19.9022C2.19422 19.9244 2.14271 19.9711 2.17854 20.0644C2.11807 20.0689 2.07104 20.0911 2.03745 20.1289C2.07104 20.1711 2.12031 20.1933 2.17854 20.1933C2.13599 20.2822 2.18302 20.3333 2.25693 20.3733C2.25693 20.3733 2.2099 20.1933 2.32635 20.1933C2.37786 20.1933 2.4249 20.2111 2.4249 20.2866C2.4249 20.3511 2.36443 20.4444 2.23005 20.44C2.09568 20.4355 1.9837 20.3466 1.9837 20.1311C1.9837 19.9333 2.14271 19.8355 2.35323 19.8311C2.54359 19.8266 2.68917 19.9289 2.68917 20.1222C2.68917 20.3822 2.31068 20.9733 2.31068 21.2044C2.31068 21.38 2.46521 21.4733 2.62198 21.4733C2.8213 21.4733 2.98927 21.2755 2.98927 21.2755L2.86385 21.1289Z" fill="#FEC50C"/>
<path d="M2.9093 16.4422C2.9093 16.011 2.51737 15.7888 2.21055 15.7888C1.79622 15.7888 1.57227 16.0377 1.57227 16.3577C1.57227 16.5421 1.60586 16.6577 1.6932 16.8288C1.6932 16.8288 2.37852 18.2399 2.64503 18.7866C2.67862 18.8555 2.68758 18.931 2.68758 19.0466C2.68758 19.2221 2.51513 19.3666 2.33372 19.371C2.17023 19.3755 1.98883 19.2177 1.98883 19.0421C1.98883 18.8288 2.10081 18.731 2.21727 18.731C2.35836 18.731 2.41659 18.791 2.41659 18.8888C2.41659 18.9577 2.38299 18.9866 2.33372 18.9866C2.21279 18.9866 2.24862 18.8244 2.24862 18.8244C2.18815 18.8377 2.13664 18.8977 2.16576 18.9733C2.11872 18.9821 2.08065 19.0066 2.04482 19.0421C2.07841 19.071 2.11424 19.0977 2.16576 19.1066C2.13664 19.1999 2.17471 19.2466 2.25534 19.2644C2.23742 19.231 2.23742 19.1955 2.2419 19.1621C2.3718 19.1999 2.57336 19.1399 2.57336 18.9177C2.57336 18.6955 2.41883 18.511 2.12992 18.5533C2.19935 18.5199 2.23294 18.4555 2.2419 18.3777C2.19039 18.3999 2.12992 18.3999 2.12992 18.3999C2.16352 18.3399 2.21279 18.2888 2.20831 18.1733C2.15232 18.1999 2.10529 18.2421 2.03586 18.2155C2.14336 18.0066 2.00898 17.711 1.67305 17.6421C1.79846 17.7866 1.85893 17.9421 1.85893 18.0955C1.85893 18.5955 1.71784 18.6821 1.71784 19.031C1.71784 19.1755 1.79622 19.3355 1.9418 19.4421V19.4377C1.84326 19.4644 1.77831 19.511 1.74247 19.5777C1.97091 19.6421 2.29789 19.6421 2.47482 19.5688C2.67638 19.5466 2.81971 19.3888 2.86227 19.3133C2.90482 19.2355 2.98768 18.9488 2.86227 18.6933C2.72789 18.4155 2.09185 17.0777 1.89701 16.6577C1.85445 16.5688 1.82758 16.4733 1.82758 16.371C1.82758 16.1155 2.06497 16.0244 2.19711 16.0244C2.35612 16.0244 2.52409 16.1488 2.52409 16.2977C2.52409 16.3955 2.47258 16.451 2.39419 16.451C2.21279 16.451 2.22175 16.2977 2.25982 16.1977C2.14784 16.2488 2.07841 16.3377 2.10081 16.4333C2.03586 16.4422 1.97539 16.471 1.9194 16.5355C1.96195 16.591 2.01794 16.6333 2.10081 16.6333C2.06721 16.7821 2.16576 16.8421 2.25982 16.8777C2.2307 16.771 2.20831 16.6422 2.39419 16.6422C2.53305 16.6422 2.63607 16.6199 2.70102 16.531C2.7055 16.6466 2.71445 17.1088 2.71445 17.1088C2.72341 17.2799 2.48154 17.2755 2.32701 17.2244C2.383 17.4244 2.50393 17.5333 2.7794 17.5021C2.71445 17.5288 2.64055 17.591 2.64055 17.711C2.64055 17.8733 2.77492 18.0533 2.86003 18.1044L2.9093 16.4422Z" fill="#FEC50C"/>
<path d="M2.9093 15.1423C2.9093 15.5734 2.51737 15.7957 2.21055 15.7957C1.79622 15.7957 1.57227 15.5468 1.57227 15.2268C1.57227 15.0423 1.60586 14.9268 1.6932 14.7557C1.6932 14.7557 2.37852 13.3446 2.64503 12.7979C2.67862 12.729 2.68758 12.6534 2.68758 12.5379C2.68758 12.3623 2.51513 12.2179 2.33372 12.2134C2.17023 12.209 1.98883 12.3668 1.98883 12.5423C1.98883 12.7557 2.10081 12.8534 2.21727 12.8534C2.35836 12.8534 2.41659 12.7934 2.41659 12.6957C2.41659 12.6268 2.38299 12.5979 2.33372 12.5979C2.21279 12.5979 2.24862 12.7601 2.24862 12.7601C2.18815 12.7468 2.13664 12.6868 2.16576 12.6112C2.11872 12.6023 2.08065 12.5779 2.04482 12.5423C2.07841 12.5134 2.11424 12.4868 2.16576 12.4779C2.13664 12.3846 2.17471 12.3379 2.25534 12.3201C2.23742 12.3534 2.23742 12.389 2.2419 12.4223C2.3718 12.3846 2.57336 12.4446 2.57336 12.6668C2.57336 12.889 2.41883 13.0734 2.12992 13.0312C2.19935 13.0646 2.23294 13.129 2.2419 13.2068C2.19039 13.1846 2.12992 13.1846 2.12992 13.1846C2.16352 13.2446 2.21279 13.2957 2.20831 13.4112C2.15232 13.3846 2.10529 13.3423 2.03586 13.369C2.14336 13.5779 2.00898 13.8734 1.67305 13.9423C1.79846 13.7979 1.85893 13.6423 1.85893 13.489C1.85893 12.989 1.71784 12.9023 1.71784 12.5534C1.71784 12.409 1.79622 12.249 1.9418 12.1423V12.1468C1.84326 12.1201 1.77831 12.0734 1.74247 12.0068C1.97091 11.9423 2.29789 11.9423 2.47482 12.0157C2.67638 12.0379 2.81971 12.1957 2.86227 12.2712C2.90482 12.349 2.98768 12.6357 2.86227 12.8912C2.72789 13.169 2.09185 14.5068 1.89701 14.9268C1.85445 15.0157 1.82758 15.1112 1.82758 15.2134C1.82758 15.469 2.06497 15.5601 2.19711 15.5601C2.35612 15.5601 2.52409 15.4357 2.52409 15.2868C2.52409 15.189 2.47258 15.1334 2.39419 15.1334C2.21279 15.1334 2.22175 15.2868 2.25982 15.3868C2.14784 15.3357 2.07841 15.2468 2.10081 15.1512C2.03586 15.1423 1.97539 15.1134 1.9194 15.049C1.96195 14.9934 2.01794 14.9512 2.10081 14.9512C2.06721 14.8023 2.16576 14.7423 2.25982 14.7068C2.2307 14.8134 2.20831 14.9423 2.39419 14.9423C2.53305 14.9423 2.63607 14.9646 2.70102 15.0534C2.7055 14.9379 2.71445 14.4757 2.71445 14.4757C2.72341 14.3046 2.48154 14.309 2.32701 14.3601C2.383 14.1601 2.50393 14.0512 2.7794 14.0823C2.71445 14.0557 2.64055 13.9934 2.64055 13.8734C2.64055 13.7112 2.77492 13.5312 2.86003 13.4801L2.9093 15.1423Z" fill="#FEC50C"/>
<path d="M2.8637 21.1289C2.8637 21.1289 3.06974 21.3 3.13917 21.2133C3.25115 21.0733 2.78979 20.38 2.78979 20.1355C2.78979 19.7333 3.06078 19.6266 3.39224 19.5666C3.6162 19.5289 3.97901 19.5844 3.97901 19.5844C3.90958 19.6733 3.86703 19.7044 3.75057 19.7089C3.88047 19.7733 4.00812 19.9178 4.00812 20.14C4.00812 20.4866 3.86703 20.6266 3.86703 21.0155C3.86703 21.2289 4.04396 21.5066 4.04396 21.5066C3.73042 21.4778 3.57365 21.1866 3.66099 20.9555C3.60948 20.9466 3.56693 20.96 3.52661 20.9978C3.50422 20.9333 3.54005 20.86 3.58708 20.7978C3.54901 20.7755 3.51766 20.7889 3.45719 20.8022C3.46167 20.7378 3.50422 20.6644 3.59828 20.6022C3.31385 20.6755 3.14141 20.4778 3.14141 20.2733C3.14141 20.12 3.24891 20.0089 3.35641 20.0089C3.39 20.0089 3.44151 20.0222 3.46839 20.0422C3.49078 20 3.47734 19.9444 3.45495 19.9022C3.53333 19.9244 3.58484 19.9711 3.54901 20.0644C3.60948 20.0689 3.65651 20.0911 3.6901 20.1289C3.65651 20.1711 3.60724 20.1933 3.54901 20.1933C3.59156 20.2822 3.54453 20.3333 3.47062 20.3733C3.47062 20.3733 3.51766 20.1933 3.4012 20.1933C3.34969 20.1933 3.30266 20.2111 3.30266 20.2866C3.30266 20.3511 3.36312 20.4444 3.4975 20.44C3.63187 20.4355 3.74385 20.3466 3.74385 20.1311C3.74385 19.9333 3.58484 19.8355 3.37432 19.8311C3.18396 19.8266 3.03839 19.9289 3.03839 20.1222C3.03839 20.3822 3.41688 20.9733 3.41688 21.2044C3.41688 21.38 3.26234 21.4733 3.10557 21.4733C2.90625 21.4733 2.73828 21.2755 2.73828 21.2755L2.8637 21.1289Z" fill="#FEC50C"/>
<path d="M2.82215 16.4422C2.82215 16.011 3.21408 15.7888 3.5209 15.7888C3.93522 15.7888 4.15918 16.0377 4.15918 16.3577C4.15918 16.5421 4.12559 16.6577 4.03825 16.8288C4.03825 16.8288 3.35293 18.2399 3.08642 18.7866C3.05283 18.8555 3.04387 18.931 3.04387 19.0466C3.04387 19.2221 3.21632 19.3666 3.39772 19.371C3.56121 19.3755 3.74262 19.2177 3.74262 19.0421C3.74262 18.8288 3.63064 18.731 3.51418 18.731C3.37309 18.731 3.31486 18.791 3.31486 18.8888C3.31486 18.9577 3.34845 18.9866 3.39772 18.9866C3.51866 18.9866 3.48283 18.8244 3.48283 18.8244C3.5433 18.8377 3.59481 18.8977 3.56569 18.9733C3.61272 18.9821 3.6508 19.0066 3.68663 19.0421C3.65304 19.071 3.6172 19.0977 3.56569 19.1066C3.59481 19.1999 3.55674 19.2466 3.47611 19.2644C3.49403 19.231 3.49403 19.1955 3.48955 19.1621C3.35965 19.1999 3.15809 19.1399 3.15809 18.9177C3.15809 18.6955 3.31262 18.511 3.60153 18.5533C3.5321 18.5199 3.49851 18.4555 3.48955 18.3777C3.54106 18.3999 3.60153 18.3999 3.60153 18.3999C3.56793 18.3399 3.51866 18.2888 3.52314 18.1733C3.57913 18.1999 3.62616 18.2421 3.69559 18.2155C3.58809 18.0066 3.72246 17.711 4.0584 17.6421C3.93298 17.7866 3.87252 17.9421 3.87252 18.0955C3.87252 18.5955 4.01361 18.6821 4.01361 19.031C4.01361 19.1755 3.93522 19.3355 3.78965 19.4421V19.4377C3.88819 19.4644 3.95314 19.511 3.98897 19.5777C3.76054 19.6421 3.43356 19.6421 3.25663 19.5688C3.05507 19.5466 2.91174 19.3888 2.86918 19.3133C2.82663 19.2355 2.74377 18.9488 2.86918 18.6933C3.00356 18.4155 3.6396 17.0777 3.83444 16.6577C3.877 16.5688 3.90387 16.4733 3.90387 16.371C3.90387 16.1155 3.66647 16.0244 3.53434 16.0244C3.37533 16.0244 3.20736 16.1488 3.20736 16.2977C3.20736 16.3955 3.25887 16.451 3.33726 16.451C3.51866 16.451 3.5097 16.2977 3.47163 16.1977C3.58361 16.2488 3.65304 16.3377 3.63064 16.4333C3.69559 16.4422 3.75606 16.471 3.81205 16.5355C3.7695 16.591 3.71351 16.6333 3.63064 16.6333C3.66424 16.7821 3.56569 16.8421 3.47163 16.8777C3.50075 16.771 3.52314 16.6422 3.33726 16.6422C3.1984 16.6422 3.09538 16.6199 3.03043 16.531C3.02595 16.6466 3.017 17.1088 3.017 17.1088C3.00804 17.2799 3.24991 17.2755 3.40444 17.2244C3.34845 17.4244 3.22752 17.5333 2.95205 17.5021C3.017 17.5288 3.0909 17.591 3.0909 17.711C3.0909 17.8733 2.95653 18.0533 2.87142 18.1044L2.82215 16.4422Z" fill="#FEC50C"/>
<path d="M2.82215 15.1423C2.82215 15.5734 3.21408 15.7957 3.5209 15.7957C3.93522 15.7957 4.15918 15.5468 4.15918 15.2268C4.15918 15.0423 4.12559 14.9268 4.03825 14.7557C4.03825 14.7557 3.35293 13.3446 3.08642 12.7979C3.05283 12.729 3.04387 12.6534 3.04387 12.5379C3.04387 12.3623 3.21632 12.2179 3.39772 12.2134C3.56121 12.209 3.74262 12.3668 3.74262 12.5423C3.74262 12.7557 3.63064 12.8534 3.51418 12.8534C3.37309 12.8534 3.31486 12.7934 3.31486 12.6957C3.31486 12.6268 3.34845 12.5979 3.39772 12.5979C3.51866 12.5979 3.48283 12.7601 3.48283 12.7601C3.5433 12.7468 3.59481 12.6868 3.56569 12.6112C3.61272 12.6023 3.6508 12.5779 3.68663 12.5423C3.65304 12.5134 3.6172 12.4868 3.56569 12.4779C3.59481 12.3846 3.55674 12.3379 3.47611 12.3201C3.49403 12.3534 3.49403 12.389 3.48955 12.4223C3.35965 12.3846 3.15809 12.4446 3.15809 12.6668C3.15809 12.889 3.31262 13.0734 3.60153 13.0312C3.5321 13.0646 3.49851 13.129 3.48955 13.2068C3.54106 13.1846 3.60153 13.1846 3.60153 13.1846C3.56793 13.2446 3.51866 13.2957 3.52314 13.4112C3.57913 13.3846 3.62616 13.3423 3.69559 13.369C3.58809 13.5779 3.72246 13.8734 4.0584 13.9423C3.93298 13.7979 3.87252 13.6423 3.87252 13.489C3.87252 12.989 4.01361 12.9023 4.01361 12.5534C4.01361 12.409 3.93522 12.249 3.78965 12.1423V12.1468C3.88819 12.1201 3.95314 12.0734 3.98897 12.0068C3.76054 11.9423 3.43356 11.9423 3.25663 12.0157C3.05507 12.0379 2.91174 12.1957 2.86918 12.2712C2.82663 12.349 2.74377 12.6357 2.86918 12.8912C3.00356 13.169 3.6396 14.5068 3.83444 14.9268C3.877 15.0157 3.90387 15.1112 3.90387 15.2134C3.90387 15.469 3.66647 15.5601 3.53434 15.5601C3.37533 15.5601 3.20736 15.4357 3.20736 15.2868C3.20736 15.189 3.25887 15.1334 3.33726 15.1334C3.51866 15.1334 3.5097 15.2868 3.47163 15.3868C3.58361 15.3357 3.65304 15.2468 3.63064 15.1512C3.69559 15.1423 3.75606 15.1134 3.81205 15.049C3.7695 14.9934 3.71351 14.9512 3.63064 14.9512C3.66424 14.8023 3.56569 14.7423 3.47163 14.7068C3.50075 14.8134 3.52314 14.9423 3.33726 14.9423C3.1984 14.9423 3.09538 14.9646 3.03043 15.0534C3.02595 14.9379 3.017 14.4757 3.017 14.4757C3.00804 14.3046 3.24991 14.309 3.40444 14.3601C3.34845 14.1601 3.22752 14.0512 2.95205 14.0823C3.017 14.0557 3.0909 13.9934 3.0909 13.8734C3.0909 13.7112 2.95653 13.5312 2.87142 13.4801L2.82215 15.1423Z" fill="#FEC50C"/>
</g>
<rect x="0.474219" y="0.15" width="42.7" height="23.7" stroke="#EFEFF8" stroke-width="0.3"/>
<defs>
<clipPath id="clip0_684_43676">
<rect x="0.324219" width="43" height="24" fill="white"/>
</clipPath>
</defs>
</svg>
