<svg width="44" height="24" viewBox="0 0 44 24" fill="none" xmlns="http://www.w3.org/2000/svg">
<g clip-path="url(#clip0_684_43740)">
<path d="M0.666016 0H43.666V24H0.666016V0Z" fill="#ED1C24"/>
<path d="M0.666016 6H43.666V18H0.666016V6Z" fill="white"/>
<path d="M22.0011 6C21.7413 6.54222 21.253 6.92222 20.785 7.28C20.7088 7.34667 20.5162 7.47556 20.6551 7.57333C20.7738 7.44222 21.1007 7.61556 20.9104 7.75778C20.7402 7.91556 20.5073 7.97333 20.3191 8.10222C20.1512 8.19111 19.9832 8.28667 19.8511 8.42445C19.8421 8.64 20.1198 8.52 20.234 8.61111C20.3818 8.76667 20.1713 9.02889 19.9787 8.96889C19.7324 8.97556 19.5622 9.19111 19.4681 9.39778C19.2755 9.69333 18.9104 9.78222 18.6193 9.94889C18.4536 10.0444 18.2923 10.1511 18.1355 10.2644C17.9362 10.4 18.1087 10.6689 18.3214 10.6022C18.5499 10.58 18.7581 10.4 18.9955 10.4511C19.2105 10.5267 19.271 10.8067 19.1971 11C19.1434 11.1556 19.0112 11.2667 18.906 11.3889C18.7335 11.5622 18.5096 11.6733 18.2744 11.7267C18.046 11.8022 17.8399 11.9422 17.6899 12.1289C17.5152 12.3022 17.3427 12.48 17.1434 12.6244C17.0807 12.7844 17.2576 12.92 17.4077 12.9156C17.7212 12.8956 17.9385 12.6422 18.205 12.5111C18.4267 12.4133 18.6865 12.6489 18.6327 12.8778C18.6148 13.1 18.4065 13.2133 18.2184 13.2822C17.6697 13.5556 17.1927 13.9533 16.7694 14.3911C16.6821 14.5689 16.4402 14.5156 16.3125 14.64C16.2274 14.7956 16.4402 14.8778 16.5656 14.8622C17.1076 14.7978 17.616 14.5689 18.0952 14.32C18.2744 14.2356 18.4424 14.1244 18.626 14.0556C18.8007 14.0133 19.0426 14.0889 19.0739 14.2844C19.0739 14.4933 18.8656 14.6067 18.7022 14.6889C18.196 14.9533 17.6384 15.1 17.0986 15.2733C16.8948 15.2178 16.7425 15.5756 16.9665 15.64C17.2016 15.72 17.4525 15.6556 17.6921 15.6444C18.4356 15.5311 19.0874 15.1311 19.7816 14.8733C20.0705 14.78 20.411 14.9111 20.5543 15.18C20.6976 15.42 20.6842 15.7356 20.5341 15.9667C20.2945 16.4733 19.9317 16.94 19.4435 17.2311C19.1366 17.3822 18.7805 17.44 18.5185 17.6689C18.2766 17.7489 18.6394 18.0733 18.6932 17.8156C18.8388 17.6178 19.0963 17.56 19.3292 17.5511C19.6809 17.5133 20.0526 17.4489 20.3236 17.2089C20.5677 17.02 20.8096 16.76 21.1411 16.7578C21.3247 16.78 21.5061 16.9244 21.692 16.8356C21.8555 16.7622 22.1108 16.8044 22.1534 17.0044C22.2317 17.2378 22.4736 17.3422 22.664 17.4667C22.7334 17.5622 22.9641 17.8133 23.0156 17.5933C22.973 17.4378 23.0335 17.1978 23.2418 17.2489C23.4232 17.2578 23.5956 17.3222 23.7748 17.3333C24.0144 17.3822 24.216 17.5467 24.3526 17.7422C24.4467 17.8711 24.6527 18.0911 24.805 17.9222C24.8991 17.7467 24.7199 17.5978 24.5721 17.5356C24.3571 17.4044 24.1735 17.2267 23.9853 17.06C23.7076 16.8044 23.4702 16.4778 23.4254 16.0933C23.365 15.7111 23.3963 15.3222 23.4478 14.94C23.5105 14.6956 23.8263 14.56 24.048 14.6911C24.3593 14.8311 24.6684 15.0333 25.0245 15.0111C25.5396 15.0222 26.0704 14.9244 26.5743 15.0733C27.0648 15.2267 27.4141 15.6378 27.8934 15.8156C28.0009 15.88 28.1375 15.8178 28.1756 15.7044C28.2226 15.6022 28.189 15.4733 28.0905 15.4133C27.5373 14.86 26.7803 14.5889 26.1398 14.1556C25.9382 14.1044 25.9024 13.7822 26.0883 13.6889C26.3324 13.5111 26.6795 13.5956 26.8968 13.7756C27.0804 13.8822 27.2865 13.9622 27.5037 13.9622C27.7254 13.8933 27.6179 13.5778 27.4209 13.5533C27.0625 13.3533 26.8072 13.0244 26.4959 12.7622C26.3167 12.6111 26.1219 12.46 25.8823 12.4311C25.7501 12.4067 25.618 12.4022 25.4836 12.4111C25.3582 12.2778 25.5262 12.0711 25.6852 12.0867C25.8509 12.0978 26.0144 12.1089 26.1801 12.0867C26.3638 12.0733 26.5497 12.0533 26.7333 12.0533C26.8834 12.1533 27.1812 11.98 27.0468 11.8067C26.899 11.6778 26.6863 11.6889 26.5093 11.6244C26.2003 11.5244 25.8845 11.4422 25.5665 11.3778C25.3425 11.3644 25.3716 11.0733 25.5665 11.0422C25.6941 10.9956 25.8061 11.0933 25.9293 11.1067C26.1398 11.1511 26.357 11.1511 26.5676 11.1956C26.7467 11.1089 26.6079 10.8489 26.4466 10.8356C26.0659 10.7 25.7367 10.4578 25.4164 10.22C25.0626 9.95556 24.7401 9.64889 24.3795 9.39111C24.2496 9.31111 24.0346 9.28889 24.001 9.11111C23.9898 8.94667 24.1824 8.87333 24.3213 8.91111C24.5161 8.96889 24.6975 9.06667 24.8968 9.11556C25.0536 9.14222 25.2126 9.18667 25.3627 9.16889C25.553 9.04889 25.2798 8.97333 25.1813 8.93333C24.926 8.79778 24.702 8.61556 24.4713 8.44222C24.2787 8.27778 24.6348 8.20667 24.758 8.26889C24.964 8.35333 24.9864 8.05778 24.8341 7.98222C24.6527 7.90667 24.4982 7.78 24.3325 7.66889C24.0368 7.46 23.7009 7.29333 23.3359 7.24667C22.926 7.20667 22.5453 6.97333 22.328 6.62667C22.1959 6.43778 22.0974 6.21778 22.0011 6ZM20.6596 8.27556C20.8701 8.28222 20.8387 8.65778 20.6304 8.63333C20.4289 8.62 20.4401 8.23556 20.6596 8.27556ZM22.6461 8.48C22.8521 8.44445 22.8947 8.81556 22.6886 8.83333C22.4759 8.86889 22.3975 8.45556 22.6461 8.48ZM22.0638 8.52667C22.2721 8.56667 22.234 8.92667 22.0257 8.92889C21.8712 8.96222 21.7077 9.06667 21.5509 8.98889C21.4255 8.85556 21.6069 8.66 21.748 8.61778C21.8577 8.59778 21.9563 8.54889 22.0638 8.52667ZM23.4053 8.52889C23.6046 8.60222 23.5352 8.95333 23.3247 8.94889C23.1253 8.97556 23.0313 8.64444 23.2172 8.56667C23.2776 8.54445 23.3403 8.52667 23.4053 8.52889ZM21.1433 8.92667C21.2911 9.06667 21.2038 9.33333 21.0224 9.39778C20.8925 9.47111 20.7133 9.64 20.57 9.5C20.4916 9.32889 20.6864 9.19778 20.8006 9.10445C20.9037 9.02667 21.0156 8.95556 21.1433 8.92667ZM22.8275 9.70222C23.038 9.8 22.9305 10.1778 22.6998 10.1556C22.5094 10.1067 22.5341 9.78445 22.7267 9.75778C22.7625 9.74445 22.7939 9.72445 22.8275 9.70222ZM22.1578 9.74C22.3549 9.83111 22.2049 10.1578 22.0055 10.1111C21.7995 10.0867 21.804 9.72667 22.0302 9.76C22.0727 9.75778 22.1175 9.75778 22.1578 9.74ZM23.6001 9.92667C23.8174 9.86 24.0772 10.08 24.0055 10.3044C23.9092 10.4778 23.6718 10.5 23.4993 10.4356C23.3045 10.4267 23.1724 10.1333 23.3471 10.0089C23.421 9.95778 23.5105 9.93556 23.6001 9.92667ZM20.4065 9.98444C20.5856 9.88889 20.776 10.1778 20.6237 10.3067C20.5229 10.4533 20.2654 10.5133 20.1512 10.3511C20.0549 10.1889 20.2072 9.92222 20.4065 9.98444ZM19.5823 10.1222C19.7861 10.1489 19.9183 10.3333 19.9922 10.5067C20.0101 10.7178 19.6943 10.8356 19.5577 10.68C19.4031 10.5844 19.2665 10.3867 19.3494 10.2022C19.3987 10.1289 19.4972 10.0978 19.5823 10.1222ZM24.5161 10.8867C24.7356 10.8289 24.8968 11.1778 24.7065 11.3044C24.534 11.46 24.1981 11.2533 24.2877 11.0311C24.3325 10.9511 24.4221 10.8956 24.5161 10.8867ZM21.7144 11.2867C21.898 11.3089 21.8398 11.6267 21.6696 11.6178C21.486 11.5822 21.5285 11.2689 21.7144 11.2867ZM20.7782 11.4533C20.9283 11.3467 21.1231 11.6067 20.9977 11.7267C20.8477 11.8311 20.6528 11.5778 20.7782 11.4533ZM22.2676 11.4867C22.4423 11.5911 22.5453 11.7889 22.5677 11.9867C22.4848 12.1711 22.1601 12.1267 22.1242 11.9311C22.0593 11.7733 22.1198 11.5733 22.2676 11.4867ZM22.7872 11.7911C23.0111 11.7356 22.9305 12.2022 22.7446 12.04C22.6797 11.9667 22.7132 11.8467 22.7872 11.7911ZM19.5241 12.1156C19.6719 12.0733 19.8891 12.1178 19.9317 12.2867C19.9496 12.4467 19.7727 12.5289 19.6428 12.5689C19.4345 12.6333 19.2329 12.7356 19.009 12.7222C18.841 12.6267 18.7828 12.4333 18.7223 12.2644C18.8836 12.1133 19.121 12.1578 19.3203 12.12C19.3897 12.1178 19.4569 12.1178 19.5241 12.1156ZM24.5855 12.8467C24.7759 12.7533 24.9797 13.0533 24.8207 13.1933C24.6214 13.42 24.2384 13.4622 24.001 13.2711C23.9719 13.0711 24.1757 12.9244 24.3549 12.8956C24.4288 12.8756 24.5049 12.8422 24.5855 12.8467ZM25.6516 13.0756C25.8666 13.0378 26.0368 13.3444 25.8823 13.5022C25.7367 13.72 25.3896 13.7778 25.1902 13.5978C25.1118 13.4178 25.2709 13.2289 25.4366 13.1711C25.5105 13.1422 25.5777 13.1022 25.6516 13.0756ZM20.2855 13.4C20.4849 13.38 20.6685 13.5778 20.6416 13.7733C20.7872 13.9156 20.5297 14.1778 20.3863 14.0311C20.2587 13.8778 20.2609 13.6711 20.2116 13.4889C20.2094 13.4489 20.2385 13.3956 20.2855 13.4ZM21.8197 13.5156C22.0257 13.4267 22.2944 13.6711 22.1802 13.88C22.0996 14.0489 21.7861 13.9933 21.7973 13.7956C21.7973 13.7022 21.7883 13.6067 21.8197 13.5156ZM21.0739 13.6467C21.2799 13.6 21.4703 13.8667 21.3561 14.0444C21.1478 14.0622 21.0403 13.82 21.0739 13.6467Z" fill="#00A651"/>
</g>
<rect x="0.816016" y="0.15" width="42.7" height="23.7" stroke="#EFEFF8" stroke-width="0.3"/>
<defs>
<clipPath id="clip0_684_43740">
<rect x="0.666016" width="43" height="24" fill="white"/>
</clipPath>
</defs>
</svg>
