<svg width="44" height="24" viewBox="0 0 44 24" fill="none" xmlns="http://www.w3.org/2000/svg">
<g clip-path="url(#clip0_684_39076)">
<path d="M43.6892 -0.82196H0.615234V24.8225H43.6892V-0.82196Z" fill="#002B7F"/>
<path d="M43.6892 12H0.615234V24.8223H43.6892V12Z" fill="#CE1126"/>
<path d="M9.93547 4.40505L9.85708 7.07616H7.12703C6.79109 6.42727 6.51562 5.87616 6.51562 5.13172C6.51562 4.50727 7.01057 4.01172 7.72276 4.01172C8.47078 4.01172 9.30391 4.26505 9.93547 4.40505Z" fill="#FFD83D"/>
<path d="M6.84045 6.10255C6.82242 6.10255 6.80664 6.08922 6.80664 6.06922V4.52699C6.80664 4.50921 6.82016 4.49365 6.84045 4.49365C6.86073 4.49365 6.87425 4.50699 6.87425 4.52699V6.067C6.86974 6.08922 6.85622 6.10255 6.84045 6.10255Z" fill="black"/>
<path d="M7.05529 6.45603C7.03726 6.45603 7.02148 6.44269 7.02148 6.42269V4.37159C7.02148 4.35381 7.03501 4.33826 7.05529 4.33826C7.07557 4.33826 7.08909 4.35159 7.08909 4.37159V6.42269C7.08909 6.44047 7.07557 6.45603 7.05529 6.45603Z" fill="black"/>
<path d="M7.27404 6.7372C7.25601 6.7372 7.24023 6.72386 7.24023 6.70386V4.26386C7.24023 4.24609 7.25376 4.23053 7.27404 4.23053C7.29658 4.23053 7.30784 4.24386 7.30784 4.26386V6.70831C7.30784 6.72609 7.29432 6.7372 7.27404 6.7372Z" fill="black"/>
<path d="M7.49474 6.16147C7.47671 6.16147 7.46094 6.14814 7.46094 6.12814V4.20814C7.46094 4.19036 7.47446 4.1748 7.49474 4.1748C7.51503 4.1748 7.52855 4.18814 7.52855 4.20814V6.12814C7.52855 6.14814 7.51728 6.16147 7.49474 6.16147Z" fill="black"/>
<path d="M7.71349 6.17101C7.69546 6.17101 7.67969 6.15768 7.67969 6.13768V4.1999C7.67969 4.18212 7.69321 4.16656 7.71349 4.16656C7.73378 4.16656 7.7473 4.1799 7.7473 4.1999V6.13545C7.7473 6.15768 7.73152 6.17101 7.71349 6.17101Z" fill="black"/>
<path d="M7.93224 6.17121C7.91421 6.17121 7.89844 6.15788 7.89844 6.13788V4.13789C7.89844 4.12011 7.91196 4.10455 7.93224 4.10455C7.95252 4.10455 7.96605 4.11789 7.96605 4.13789V6.14232C7.96605 6.15788 7.95027 6.17121 7.93224 6.17121Z" fill="black"/>
<path d="M8.15294 6.17121C8.13491 6.17121 8.11914 6.15788 8.11914 6.13788V4.13789C8.11914 4.12011 8.13266 4.10455 8.15294 4.10455C8.17322 4.10455 8.18674 4.11789 8.18674 4.13789V6.14232C8.18899 6.15788 8.17097 6.17121 8.15294 6.17121Z" fill="black"/>
<path d="M8.37169 6.19074C8.35366 6.19074 8.33789 6.17741 8.33789 6.15741V4.15296C8.33789 4.13518 8.35141 4.11963 8.37169 4.11963C8.39197 4.11963 8.40549 4.13296 8.40549 4.15296V6.15741C8.40774 6.17296 8.38972 6.19074 8.37169 6.19074Z" fill="black"/>
<path d="M8.59239 6.20924C8.57437 6.20924 8.55859 6.19591 8.55859 6.17591V4.17146C8.55859 4.15368 8.57211 4.13812 8.59239 4.13812C8.61267 4.13812 8.62619 4.15146 8.62619 4.17146V6.17591C8.62845 6.19591 8.61042 6.20924 8.59239 6.20924Z" fill="black"/>
<path d="M8.81115 6.33753C8.79312 6.33753 8.77734 6.3242 8.77734 6.3042V4.29975C8.77734 4.28197 8.79087 4.26642 8.81115 4.26642C8.83369 4.26642 8.84495 4.27975 8.84495 4.29975V6.3042C8.8427 6.3242 8.82918 6.33753 8.81115 6.33753Z" fill="black"/>
<path d="M9.03185 6.61174C9.01382 6.61174 8.99805 6.5984 8.99805 6.5784V4.31617C8.99805 4.29839 9.01157 4.28284 9.03185 4.28284C9.05214 4.28284 9.06566 4.29617 9.06566 4.31617V6.57618C9.06115 6.5984 9.04763 6.61174 9.03185 6.61174Z" fill="black"/>
<path d="M9.25255 6.35706C9.23453 6.35706 9.21875 6.34373 9.21875 6.32373V4.31928C9.21875 4.30151 9.23227 4.28595 9.25255 4.28595C9.27284 4.28595 9.28636 4.29928 9.28636 4.31928V6.32373C9.28185 6.3415 9.26833 6.35706 9.25255 6.35706Z" fill="black"/>
<path d="M9.47326 6.35706C9.45523 6.35706 9.43945 6.34373 9.43945 6.32373V4.31928C9.43945 4.30151 9.45298 4.28595 9.47326 4.28595C9.4958 4.28595 9.50706 4.29928 9.50706 4.31928V6.32373C9.50256 6.3415 9.48903 6.35706 9.47326 6.35706Z" fill="black"/>
<path d="M8.21414 4.21716C8.67997 4.29494 9.69674 4.76383 9.58029 5.40605C9.4168 6.31271 8.88154 5.94827 8.17607 5.8216L7.64305 5.99716C7.45268 6.19049 7.16826 6.36827 6.98013 6.13494H6.66211V7.3616H10.1648V4.3905L8.21414 4.21716Z" fill="black"/>
<path d="M10.163 7.39276H6.6625C6.64458 7.39276 6.62891 7.37943 6.62891 7.35943V6.13276C6.62891 6.11498 6.64234 6.09943 6.6625 6.09943H6.98052C6.98948 6.09943 6.99844 6.10387 7.0074 6.11276C7.05891 6.17721 7.11938 6.2061 7.1888 6.21054C7.35229 6.21943 7.52922 6.0661 7.62328 5.97054C7.62776 5.9661 7.63224 5.9661 7.63672 5.96165L8.16974 5.7861C8.17422 5.7861 8.1787 5.7861 8.18766 5.7861C8.32651 5.81276 8.44969 5.8461 8.57511 5.87498C8.87297 5.95276 9.12604 6.01498 9.29849 5.90832C9.42391 5.83054 9.50453 5.66387 9.55156 5.39943C9.57844 5.2461 9.53813 5.09276 9.43063 4.94165C9.15964 4.56165 8.54375 4.30387 8.21229 4.24832C8.19438 4.24387 8.18318 4.23054 8.18542 4.21499C8.18766 4.19943 8.20333 4.1861 8.21901 4.1861L10.1697 4.36165C10.1876 4.36165 10.1988 4.37943 10.1988 4.39054V7.35721C10.1943 7.37943 10.1809 7.39276 10.163 7.39276ZM6.69162 7.32832H10.1294V4.42165L8.56167 4.28165C8.88865 4.40165 9.2761 4.61943 9.4799 4.9061C9.59636 5.07276 9.63891 5.23943 9.60979 5.41498C9.55828 5.70165 9.4687 5.88165 9.32537 5.9661C9.12828 6.09054 8.85953 6.02165 8.55047 5.93943C8.42953 5.91054 8.30412 5.87498 8.17646 5.85054L7.65464 6.02165C7.55609 6.12387 7.36573 6.28165 7.1776 6.27276C7.09474 6.26832 7.01859 6.23054 6.95813 6.16165H6.68714V7.32832H6.69162Z" fill="black"/>
<path d="M9.78083 4.21478C9.8971 4.21478 9.99136 4.12125 9.99136 4.00589C9.99136 3.89052 9.8971 3.797 9.78083 3.797C9.66457 3.797 9.57031 3.89052 9.57031 4.00589C9.57031 4.12125 9.66457 4.21478 9.78083 4.21478Z" fill="#FFD83D"/>
<path d="M9.78042 4.26021C9.63932 4.26021 9.52734 4.14466 9.52734 4.0091C9.52734 3.87355 9.6438 3.758 9.78042 3.758C9.91703 3.758 10.0335 3.87355 10.0335 4.0091C10.0335 4.14466 9.92375 4.26021 9.78042 4.26021ZM9.78042 3.83577C9.68635 3.83577 9.61245 3.91355 9.61245 4.00244C9.61245 4.09577 9.69083 4.1691 9.78042 4.1691C9.87 4.1691 9.94838 4.09132 9.94838 4.00244C9.95286 3.91355 9.87672 3.83577 9.78042 3.83577Z" fill="black"/>
<path d="M9.30427 4.09985C9.42054 4.09985 9.51479 4.00632 9.51479 3.89096C9.51479 3.77559 9.42054 3.68207 9.30427 3.68207C9.188 3.68207 9.09375 3.77559 9.09375 3.89096C9.09375 4.00632 9.188 4.09985 9.30427 4.09985Z" fill="#FFD83D"/>
<path d="M9.30385 4.14926C9.16276 4.14926 9.05078 4.0337 9.05078 3.89814C9.05078 3.76259 9.16724 3.64703 9.30385 3.64703C9.44047 3.64703 9.55693 3.76259 9.55693 3.89814C9.55693 4.0337 9.44495 4.14926 9.30385 4.14926ZM9.30385 3.72481C9.20979 3.72481 9.13589 3.80259 9.13589 3.89148C9.13589 3.98037 9.21427 4.05815 9.30385 4.05815C9.39792 4.05815 9.47182 3.98037 9.47182 3.89148C9.47182 3.80259 9.39792 3.72481 9.30385 3.72481Z" fill="black"/>
<path d="M8.81599 3.98168C8.93226 3.98168 9.02651 3.88816 9.02651 3.77279C9.02651 3.65743 8.93226 3.5639 8.81599 3.5639C8.69972 3.5639 8.60547 3.65743 8.60547 3.77279C8.60547 3.88816 8.69972 3.98168 8.81599 3.98168Z" fill="#FFD83D"/>
<path d="M8.81557 4.02407C8.67448 4.02407 8.5625 3.90852 8.5625 3.77296C8.5625 3.63741 8.67896 3.52185 8.81557 3.52185C8.95219 3.52185 9.06865 3.63741 9.06865 3.77296C9.06865 3.90852 8.95891 4.02407 8.81557 4.02407ZM8.81557 3.60185C8.72151 3.60185 8.6476 3.67963 8.6476 3.76852C8.6476 3.86185 8.72599 3.93518 8.81557 3.93518C8.90516 3.93518 8.98354 3.85741 8.98354 3.76852C8.98802 3.67741 8.91187 3.60185 8.81557 3.60185Z" fill="black"/>
<path d="M8.32966 3.90051C8.44593 3.90051 8.54018 3.80699 8.54018 3.69162C8.54018 3.57625 8.44593 3.48273 8.32966 3.48273C8.21339 3.48273 8.11914 3.57625 8.11914 3.69162C8.11914 3.80699 8.21339 3.90051 8.32966 3.90051Z" fill="#FFD83D"/>
<path d="M8.32924 3.94381C8.18815 3.94381 8.07617 3.82826 8.07617 3.6927C8.07617 3.55492 8.19263 3.44159 8.32924 3.44159C8.46586 3.44159 8.58232 3.55714 8.58232 3.6927C8.58232 3.82826 8.47034 3.94381 8.32924 3.94381ZM8.32924 3.52381C8.23518 3.52381 8.16128 3.60159 8.16128 3.69048C8.16128 3.78381 8.23966 3.85715 8.32924 3.85715C8.42331 3.85715 8.49721 3.77937 8.49721 3.69048C8.50169 3.59715 8.42331 3.52381 8.32924 3.52381Z" fill="black"/>
<path d="M7.84333 3.85387C7.9596 3.85387 8.05386 3.76035 8.05386 3.64499C8.05386 3.52962 7.9596 3.4361 7.84333 3.4361C7.72707 3.4361 7.63281 3.52962 7.63281 3.64499C7.63281 3.76035 7.72707 3.85387 7.84333 3.85387Z" fill="#FFD83D"/>
<path d="M7.84292 3.89602C7.70182 3.89602 7.58984 3.78047 7.58984 3.64491C7.58984 3.50713 7.7063 3.3938 7.84292 3.3938C7.97953 3.3938 8.09599 3.50935 8.09599 3.64491C8.09599 3.78047 7.98401 3.89602 7.84292 3.89602ZM7.84292 3.4738C7.74885 3.4738 7.67495 3.55158 7.67495 3.64047C7.67495 3.7338 7.75333 3.80713 7.84292 3.80713C7.93698 3.80713 8.01089 3.72935 8.01089 3.64047C8.01536 3.55158 7.93698 3.4738 7.84292 3.4738Z" fill="black"/>
<path d="M7.36482 3.8778C7.48109 3.8778 7.57534 3.78428 7.57534 3.66891C7.57534 3.55354 7.48109 3.46002 7.36482 3.46002C7.24855 3.46002 7.1543 3.55354 7.1543 3.66891C7.1543 3.78428 7.24855 3.8778 7.36482 3.8778Z" fill="#FFD83D"/>
<path d="M7.3644 3.92709C7.22331 3.92709 7.11133 3.81153 7.11133 3.67598C7.11133 3.5382 7.22779 3.42487 7.3644 3.42487C7.50102 3.42487 7.61748 3.54042 7.61748 3.67598C7.61972 3.81153 7.50774 3.92709 7.3644 3.92709ZM7.3644 3.50264C7.27034 3.50264 7.19643 3.58042 7.19643 3.66931C7.19643 3.76264 7.27482 3.83598 7.3644 3.83598C7.45847 3.83598 7.53238 3.7582 7.53238 3.66931C7.53685 3.57598 7.46071 3.50264 7.3644 3.50264Z" fill="black"/>
<path d="M6.91169 4.0335C7.02796 4.0335 7.12221 3.93998 7.12221 3.82461C7.12221 3.70925 7.02796 3.61572 6.91169 3.61572C6.79543 3.61572 6.70117 3.70925 6.70117 3.82461C6.70117 3.93998 6.79543 4.0335 6.91169 4.0335Z" fill="#FFD83D"/>
<path d="M6.91128 4.08022C6.77018 4.08022 6.6582 3.96467 6.6582 3.82911C6.6582 3.69134 6.77466 3.578 6.91128 3.578C7.04789 3.578 7.16435 3.69356 7.16435 3.82911C7.16659 3.96467 7.05461 4.08022 6.91128 4.08022ZM6.91128 3.658C6.81721 3.658 6.74331 3.73578 6.74331 3.82467C6.74331 3.918 6.82169 3.99134 6.91128 3.99134C7.00534 3.99134 7.07925 3.91356 7.07925 3.82467C7.07925 3.73356 7.00758 3.658 6.91128 3.658Z" fill="black"/>
<path d="M6.52888 4.31463C6.64515 4.31463 6.7394 4.22111 6.7394 4.10574C6.7394 3.99037 6.64515 3.89685 6.52888 3.89685C6.41261 3.89685 6.31836 3.99037 6.31836 4.10574C6.31836 4.22111 6.41261 4.31463 6.52888 4.31463Z" fill="#FFD83D"/>
<path d="M6.52846 4.35775C6.38737 4.35775 6.27539 4.2422 6.27539 4.10664C6.27539 3.96886 6.39185 3.85553 6.52846 3.85553C6.66508 3.85553 6.78153 3.97109 6.78153 4.10664C6.78377 4.2422 6.67179 4.35775 6.52846 4.35775ZM6.52846 3.93553C6.4344 3.93553 6.36049 4.01331 6.36049 4.1022C6.36049 4.19109 6.43888 4.26886 6.52846 4.26886C6.62252 4.26886 6.69643 4.19109 6.69643 4.1022C6.69643 4.01331 6.61804 3.93553 6.52846 3.93553Z" fill="black"/>
<path d="M6.46692 4.52864C6.48554 4.41476 6.4076 4.30746 6.29284 4.28898C6.17807 4.2705 6.06993 4.34784 6.0513 4.46171C6.03268 4.57559 6.11062 4.68289 6.22538 4.70137C6.34015 4.71985 6.44829 4.64252 6.46692 4.52864Z" fill="#FFD83D"/>
<path d="M6.25698 4.75131C6.11589 4.75131 6.00391 4.63575 6.00391 4.5002C6.00391 4.36464 6.12036 4.24908 6.25698 4.24908C6.39583 4.24908 6.51005 4.36464 6.51005 4.5002C6.51005 4.63575 6.39359 4.75131 6.25698 4.75131ZM6.25698 4.32908C6.16292 4.32908 6.08901 4.40686 6.08901 4.49575C6.08901 4.58464 6.1674 4.66242 6.25698 4.66242C6.34656 4.66242 6.42495 4.58464 6.42495 4.49575C6.42495 4.40464 6.34656 4.32908 6.25698 4.32908Z" fill="black"/>
<path d="M6.12459 5.16467C6.24086 5.16467 6.33511 5.07114 6.33511 4.95578C6.33511 4.84041 6.24086 4.74689 6.12459 4.74689C6.00832 4.74689 5.91406 4.84041 5.91406 4.95578C5.91406 5.07114 6.00832 5.16467 6.12459 5.16467Z" fill="#FFD83D"/>
<path d="M6.12417 5.20925C5.98307 5.20925 5.87109 5.0937 5.87109 4.95814C5.87109 4.82036 5.98755 4.70703 6.12417 4.70703C6.26079 4.70703 6.37724 4.82259 6.37724 4.95814C6.37948 5.0937 6.2675 5.20925 6.12417 5.20925ZM6.12417 4.78481C6.03011 4.78481 5.9562 4.86259 5.9562 4.95148C5.9562 5.04037 6.03459 5.11814 6.12417 5.11814C6.21823 5.11814 6.29214 5.04037 6.29214 4.95148C6.29214 4.86259 6.22047 4.78481 6.12417 4.78481Z" fill="black"/>
<path d="M6.12849 5.64025C6.24476 5.64025 6.33901 5.54673 6.33901 5.43136C6.33901 5.316 6.24476 5.22247 6.12849 5.22247C6.01222 5.22247 5.91797 5.316 5.91797 5.43136C5.91797 5.54673 6.01222 5.64025 6.12849 5.64025Z" fill="#FFD83D"/>
<path d="M6.12807 5.68283C5.98698 5.68283 5.875 5.56727 5.875 5.43171C5.875 5.29394 5.99146 5.1806 6.12807 5.1806C6.26468 5.1806 6.38114 5.29616 6.38114 5.43171C6.38338 5.56727 6.2714 5.68283 6.12807 5.68283ZM6.12807 5.26505C6.03401 5.26505 5.9601 5.34283 5.9601 5.43171C5.9601 5.52505 6.03849 5.59838 6.12807 5.59838C6.21765 5.59838 6.29604 5.5206 6.29604 5.43171C6.30052 5.33838 6.22437 5.26505 6.12807 5.26505Z" fill="black"/>
<path d="M6.22419 6.10387C6.34046 6.10387 6.43471 6.01035 6.43471 5.89499C6.43471 5.77962 6.34046 5.6861 6.22419 5.6861C6.10793 5.6861 6.01367 5.77962 6.01367 5.89499C6.01367 6.01035 6.10793 6.10387 6.22419 6.10387Z" fill="#FFD83D"/>
<path d="M6.22573 6.15316C6.08464 6.15316 5.97266 6.03761 5.97266 5.90205C5.97266 5.7665 6.08912 5.65094 6.22573 5.65094C6.36459 5.65094 6.4788 5.7665 6.4788 5.90205C6.4788 6.03761 6.36235 6.15316 6.22573 6.15316ZM6.22573 5.72872C6.13167 5.72872 6.05776 5.80649 6.05776 5.89538C6.05776 5.98872 6.13615 6.06205 6.22573 6.06205C6.31531 6.06205 6.3937 5.98427 6.3937 5.89538C6.3937 5.80205 6.31531 5.72872 6.22573 5.72872Z" fill="black"/>
<path d="M9.87634 4.28465L9.85394 4.55799C9.32316 4.47576 8.57513 4.18688 7.8719 4.18688C7.22466 4.18688 6.72076 4.44243 6.72076 5.0891C6.72076 5.72687 6.99175 6.30687 7.35456 6.89798L6.98055 7.07354C6.64461 6.42465 6.36914 5.87354 6.36914 5.1291C6.36914 4.50465 6.86409 3.8891 7.71737 3.8891C8.46987 3.89132 9.24253 4.14465 9.87634 4.28465Z" fill="#FFD83D"/>
<path d="M6.98656 7.12018C6.96865 7.12018 6.95745 7.11129 6.94849 7.09796C6.63047 6.4824 6.32812 5.90462 6.32812 5.13129C6.32812 4.51128 6.81412 3.84906 7.71891 3.84906C8.3012 3.84906 8.89021 3.99795 9.41651 4.12684C9.58 4.16906 9.73902 4.20906 9.89131 4.24239C9.9137 4.24684 9.9249 4.26906 9.9249 4.28462L9.90251 4.55795C9.90251 4.57128 9.89355 4.58017 9.88459 4.58684C9.87563 4.59573 9.86219 4.59573 9.85099 4.59573C9.66063 4.56684 9.44115 4.51128 9.20375 4.45128C8.78943 4.34462 8.32136 4.22462 7.87344 4.22462C7.45912 4.22462 6.76708 4.33573 6.76708 5.08462C6.76708 5.75573 7.08511 6.3624 7.39641 6.87129C7.40089 6.88018 7.40537 6.89351 7.40089 6.90462C7.39641 6.91796 7.38745 6.92685 7.37849 6.93129L7.00448 7.10685C7 7.12018 6.99104 7.12018 6.98656 7.12018ZM7.71891 3.93573C6.87458 3.93573 6.41323 4.55128 6.41323 5.13351C6.41323 5.86907 6.69766 6.43351 7.00224 7.0224L7.30011 6.88462C6.99104 6.37573 6.68422 5.76907 6.68422 5.09795C6.68422 4.49573 7.1187 4.15351 7.87792 4.15351C8.33479 4.15351 8.80735 4.27795 9.23063 4.38462C9.44115 4.44017 9.64495 4.49128 9.81964 4.5224L9.83308 4.32906C9.69198 4.30017 9.54865 4.26017 9.39412 4.22239C8.87677 4.08462 8.28776 3.93573 7.71891 3.93573Z" fill="black"/>
<path d="M10.418 4.40505L10.4964 7.07616H13.2264C13.5624 6.42727 13.8378 5.87616 13.8378 5.13172C13.8378 4.50727 13.3429 4.01172 12.6307 4.01172C11.8782 4.01172 11.0518 4.26505 10.418 4.40505Z" fill="#FFD83D"/>
<path d="M13.5162 6.10255C13.4982 6.10255 13.4824 6.08922 13.4824 6.06922V4.52699C13.4824 4.50921 13.4959 4.49365 13.5162 4.49365C13.5365 4.49365 13.55 4.50699 13.55 4.52699V6.067C13.5455 6.08922 13.532 6.10255 13.5162 6.10255Z" fill="black"/>
<path d="M13.2975 6.45603C13.2794 6.45603 13.2637 6.44269 13.2637 6.42269V4.37159C13.2637 4.35381 13.2772 4.33826 13.2975 4.33826C13.32 4.33826 13.3313 4.35159 13.3313 4.37159V6.42269C13.3268 6.44047 13.3133 6.45603 13.2975 6.45603Z" fill="black"/>
<path d="M13.0768 6.7372C13.0587 6.7372 13.043 6.72386 13.043 6.70386V4.26386C13.043 4.24609 13.0565 4.23053 13.0768 4.23053C13.0971 4.23053 13.1106 4.24386 13.1106 4.26386V6.70831C13.1061 6.72609 13.0925 6.7372 13.0768 6.7372Z" fill="black"/>
<path d="M12.8561 6.16147C12.838 6.16147 12.8223 6.14814 12.8223 6.12814V4.20814C12.8223 4.19036 12.8358 4.1748 12.8561 4.1748C12.8764 4.1748 12.8899 4.18814 12.8899 4.20814V6.12814C12.8921 6.14814 12.8741 6.16147 12.8561 6.16147Z" fill="black"/>
<path d="M12.6373 6.17101C12.6193 6.17101 12.6035 6.15768 12.6035 6.13768V4.1999C12.6035 4.18212 12.617 4.16656 12.6373 4.16656C12.6576 4.16656 12.6711 4.1799 12.6711 4.1999V6.13545C12.6734 6.15768 12.6554 6.17101 12.6373 6.17101Z" fill="black"/>
<path d="M12.4166 6.17121C12.3986 6.17121 12.3828 6.15788 12.3828 6.13788V4.13789C12.3828 4.12011 12.3963 4.10455 12.4166 4.10455C12.4369 4.10455 12.4504 4.11789 12.4504 4.13789V6.14232C12.4527 6.15788 12.4347 6.17121 12.4166 6.17121Z" fill="black"/>
<path d="M12.1979 6.17121C12.1798 6.17121 12.1641 6.15788 12.1641 6.13788V4.13789C12.1641 4.12011 12.1776 4.10455 12.1979 4.10455C12.2182 4.10455 12.2317 4.11789 12.2317 4.13789V6.14232C12.2339 6.15788 12.2159 6.17121 12.1979 6.17121Z" fill="black"/>
<path d="M11.9791 6.19074C11.9611 6.19074 11.9453 6.17741 11.9453 6.15741V4.15296C11.9453 4.13518 11.9588 4.11963 11.9791 4.11963C11.9994 4.11963 12.0129 4.13296 12.0129 4.15296V6.15741C12.0129 6.17296 11.9971 6.19074 11.9791 6.19074Z" fill="black"/>
<path d="M11.7584 6.20924C11.7404 6.20924 11.7246 6.19591 11.7246 6.17591V4.17146C11.7246 4.15368 11.7381 4.13812 11.7584 4.13812C11.7787 4.13812 11.7923 4.15146 11.7923 4.17146V6.17591C11.7923 6.19591 11.7765 6.20924 11.7584 6.20924Z" fill="black"/>
<path d="M11.5397 6.33753C11.5216 6.33753 11.5059 6.3242 11.5059 6.3042V4.29975C11.5059 4.28197 11.5194 4.26642 11.5397 4.26642C11.56 4.26642 11.5735 4.27975 11.5735 4.29975V6.3042C11.5735 6.3242 11.5622 6.33753 11.5397 6.33753Z" fill="black"/>
<path d="M11.3209 6.61174C11.3029 6.61174 11.2871 6.5984 11.2871 6.5784V4.31617C11.2871 4.29839 11.3006 4.28284 11.3209 4.28284C11.3412 4.28284 11.3547 4.29617 11.3547 4.31617V6.57618C11.3547 6.5984 11.3412 6.61174 11.3209 6.61174Z" fill="black"/>
<path d="M11.1041 6.35706C11.0861 6.35706 11.0703 6.34373 11.0703 6.32373V4.31928C11.0703 4.30151 11.0838 4.28595 11.1041 4.28595C11.1244 4.28595 11.1379 4.29928 11.1379 4.31928V6.32373C11.1334 6.3415 11.1199 6.35706 11.1041 6.35706Z" fill="black"/>
<path d="M10.8854 6.35706C10.8673 6.35706 10.8516 6.34373 10.8516 6.32373V4.31928C10.8516 4.30151 10.8651 4.28595 10.8854 4.28595C10.9057 4.28595 10.9192 4.29928 10.9192 4.31928V6.32373C10.9147 6.3415 10.9011 6.35706 10.8854 6.35706Z" fill="black"/>
<path d="M12.1376 4.21716C11.6718 4.29494 10.655 4.76383 10.7715 5.40605C10.9349 6.31271 11.4702 5.94827 12.1757 5.8216L12.7087 5.99716C12.899 6.19049 13.1835 6.36827 13.3716 6.13494H13.6896V7.3616H10.1914V4.3905L12.1376 4.21716Z" fill="black"/>
<path d="M13.6925 7.39276H10.1898C10.1719 7.39276 10.1562 7.37943 10.1562 7.35943V4.39054C10.1562 4.37276 10.1697 4.36165 10.1854 4.36165L12.136 4.1861C12.1539 4.1861 12.1696 4.19943 12.1696 4.21499C12.1741 4.23276 12.1607 4.24832 12.1428 4.24832C11.8113 4.30387 11.1954 4.55943 10.9244 4.94165C10.8169 5.09054 10.7789 5.2461 10.8035 5.39943C10.8505 5.66387 10.9334 5.83054 11.0566 5.90832C11.229 6.01943 11.4866 5.95054 11.7799 5.87498C11.9054 5.84165 12.0308 5.81054 12.1674 5.7861C12.1719 5.7861 12.1808 5.7861 12.1853 5.7861L12.7183 5.96165C12.7228 5.96165 12.7273 5.9661 12.7318 5.97054C12.8213 6.06387 12.9983 6.21943 13.1662 6.21054C13.2357 6.2061 13.2961 6.17721 13.3476 6.11276C13.3521 6.10387 13.3656 6.09943 13.3745 6.09943H13.6925C13.7105 6.09943 13.7261 6.11276 13.7261 6.13276V7.35943C13.7261 7.37943 13.7082 7.39276 13.6925 7.39276ZM10.219 7.32832H13.6567V6.1661H13.3857C13.3252 6.23498 13.2513 6.27276 13.1662 6.27721C12.9804 6.2861 12.7922 6.12387 12.6892 6.0261L12.1674 5.85498C12.033 5.88165 11.9143 5.91054 11.7934 5.94387C11.4843 6.0261 11.2156 6.09276 11.0185 5.97054C10.8774 5.88165 10.7856 5.7061 10.7341 5.41943C10.7049 5.24832 10.7475 5.07721 10.864 4.91054C11.0655 4.62387 11.453 4.4061 11.7822 4.2861L10.2145 4.4261V7.32832H10.219Z" fill="black"/>
<path d="M10.5699 4.21478C10.6862 4.21478 10.7804 4.12125 10.7804 4.00589C10.7804 3.89052 10.6862 3.797 10.5699 3.797C10.4536 3.797 10.3594 3.89052 10.3594 4.00589C10.3594 4.12125 10.4536 4.21478 10.5699 4.21478Z" fill="#FFD83D"/>
<path d="M10.5695 4.26021C10.4284 4.26021 10.3164 4.14466 10.3164 4.0091C10.3164 3.87355 10.4329 3.758 10.5695 3.758C10.7061 3.758 10.8226 3.87355 10.8226 4.0091C10.8226 4.14466 10.7128 4.26021 10.5695 4.26021ZM10.5695 3.83577C10.4754 3.83577 10.4015 3.91355 10.4015 4.00244C10.4015 4.09577 10.4799 4.1691 10.5695 4.1691C10.6591 4.1691 10.7374 4.09132 10.7374 4.00244C10.7419 3.91355 10.6635 3.83577 10.5695 3.83577Z" fill="black"/>
<path d="M11.0484 4.09985C11.1647 4.09985 11.2589 4.00632 11.2589 3.89096C11.2589 3.77559 11.1647 3.68207 11.0484 3.68207C10.9321 3.68207 10.8379 3.77559 10.8379 3.89096C10.8379 4.00632 10.9321 4.09985 11.0484 4.09985Z" fill="#FFD83D"/>
<path d="M11.048 4.14891C10.9069 4.14891 10.7949 4.03336 10.7949 3.8978C10.7949 3.76225 10.9091 3.64447 11.048 3.64447C11.1868 3.64447 11.3011 3.76003 11.3011 3.89558C11.3011 4.03114 11.1891 4.14891 11.048 4.14891ZM11.048 3.72447C10.9539 3.72447 10.88 3.80225 10.88 3.89114C10.88 3.98003 10.9584 4.0578 11.048 4.0578C11.1421 4.0578 11.216 3.98003 11.216 3.89114C11.216 3.80225 11.1421 3.72447 11.048 3.72447Z" fill="black"/>
<path d="M11.5347 3.98168C11.651 3.98168 11.7452 3.88816 11.7452 3.77279C11.7452 3.65743 11.651 3.5639 11.5347 3.5639C11.4185 3.5639 11.3242 3.65743 11.3242 3.77279C11.3242 3.88816 11.4185 3.98168 11.5347 3.98168Z" fill="#FFD83D"/>
<path d="M11.5343 4.02407C11.3932 4.02407 11.2812 3.90852 11.2812 3.77296C11.2812 3.63741 11.3977 3.52185 11.5343 3.52185C11.6709 3.52185 11.7874 3.63741 11.7874 3.77296C11.7874 3.90852 11.6754 4.02407 11.5343 4.02407ZM11.5343 3.60185C11.4403 3.60185 11.3664 3.67963 11.3664 3.76852C11.3664 3.86185 11.4447 3.93518 11.5343 3.93518C11.6239 3.93518 11.7023 3.85741 11.7023 3.76852C11.7023 3.67741 11.6284 3.60185 11.5343 3.60185Z" fill="black"/>
<path d="M12.0211 3.90051C12.1373 3.90051 12.2316 3.80699 12.2316 3.69162C12.2316 3.57625 12.1373 3.48273 12.0211 3.48273C11.9048 3.48273 11.8105 3.57625 11.8105 3.69162C11.8105 3.80699 11.9048 3.90051 12.0211 3.90051Z" fill="#FFD83D"/>
<path d="M12.0207 3.94381C11.8796 3.94381 11.7676 3.82826 11.7676 3.6927C11.7676 3.55492 11.884 3.44159 12.0207 3.44159C12.1573 3.44159 12.2737 3.55714 12.2737 3.6927C12.276 3.82826 12.164 3.94381 12.0207 3.94381ZM12.0207 3.52381C11.9266 3.52381 11.8527 3.60159 11.8527 3.69048C11.8527 3.78381 11.9311 3.85715 12.0207 3.85715C12.1147 3.85715 12.1886 3.77937 12.1886 3.69048C12.1886 3.59715 12.117 3.52381 12.0207 3.52381Z" fill="black"/>
<path d="M12.5074 3.85387C12.6237 3.85387 12.7179 3.76035 12.7179 3.64499C12.7179 3.52962 12.6237 3.4361 12.5074 3.4361C12.3911 3.4361 12.2969 3.52962 12.2969 3.64499C12.2969 3.76035 12.3911 3.85387 12.5074 3.85387Z" fill="#FFD83D"/>
<path d="M12.5089 3.89602C12.3678 3.89602 12.2559 3.78047 12.2559 3.64491C12.2559 3.50713 12.3723 3.3938 12.5089 3.3938C12.6478 3.3938 12.762 3.50935 12.762 3.64491C12.762 3.78047 12.65 3.89602 12.5089 3.89602ZM12.5089 3.4738C12.4149 3.4738 12.341 3.55158 12.341 3.64047C12.341 3.7338 12.4193 3.80713 12.5089 3.80713C12.603 3.80713 12.6769 3.72935 12.6769 3.64047C12.6769 3.55158 12.603 3.4738 12.5089 3.4738Z" fill="black"/>
<path d="M12.9859 3.8778C13.1022 3.8778 13.1964 3.78428 13.1964 3.66891C13.1964 3.55354 13.1022 3.46002 12.9859 3.46002C12.8696 3.46002 12.7754 3.55354 12.7754 3.66891C12.7754 3.78428 12.8696 3.8778 12.9859 3.8778Z" fill="#FFD83D"/>
<path d="M12.9855 3.92709C12.8444 3.92709 12.7324 3.81153 12.7324 3.67598C12.7324 3.5382 12.8489 3.42487 12.9855 3.42487C13.1243 3.42487 13.2385 3.54042 13.2385 3.67598C13.2408 3.81153 13.1288 3.92709 12.9855 3.92709ZM12.9855 3.50264C12.8914 3.50264 12.8175 3.58042 12.8175 3.66931C12.8175 3.76264 12.8959 3.83598 12.9855 3.83598C13.0795 3.83598 13.1534 3.7582 13.1534 3.66931C13.1534 3.57598 13.0795 3.50264 12.9855 3.50264Z" fill="black"/>
<path d="M13.4429 4.0335C13.5592 4.0335 13.6535 3.93998 13.6535 3.82461C13.6535 3.70925 13.5592 3.61572 13.4429 3.61572C13.3267 3.61572 13.2324 3.70925 13.2324 3.82461C13.2324 3.93998 13.3267 4.0335 13.4429 4.0335Z" fill="#FFD83D"/>
<path d="M13.4425 4.08022C13.3014 4.08022 13.1895 3.96467 13.1895 3.82911C13.1895 3.69134 13.3059 3.578 13.4425 3.578C13.5814 3.578 13.6956 3.69356 13.6956 3.82911C13.6956 3.96467 13.5814 4.08022 13.4425 4.08022ZM13.4425 3.658C13.3485 3.658 13.2746 3.73578 13.2746 3.82467C13.2746 3.918 13.3529 3.99134 13.4425 3.99134C13.5366 3.99134 13.6105 3.91356 13.6105 3.82467C13.6105 3.73356 13.5321 3.658 13.4425 3.658Z" fill="black"/>
<path d="M13.8258 4.31463C13.942 4.31463 14.0363 4.22111 14.0363 4.10574C14.0363 3.99037 13.942 3.89685 13.8258 3.89685C13.7095 3.89685 13.6152 3.99037 13.6152 4.10574C13.6152 4.22111 13.7095 4.31463 13.8258 4.31463Z" fill="#FFD83D"/>
<path d="M13.8253 4.35775C13.6842 4.35775 13.5723 4.2422 13.5723 4.10664C13.5723 3.96886 13.6887 3.85553 13.8253 3.85553C13.9642 3.85553 14.0784 3.97109 14.0784 4.10664C14.0806 4.2422 13.9642 4.35775 13.8253 4.35775ZM13.8253 3.93553C13.7313 3.93553 13.6574 4.01331 13.6574 4.1022C13.6574 4.19109 13.7357 4.26886 13.8253 4.26886C13.9194 4.26886 13.9933 4.19109 13.9933 4.1022C13.9933 4.01331 13.9171 3.93553 13.8253 3.93553Z" fill="black"/>
<path d="M14.0972 4.70373C14.2135 4.70373 14.3078 4.6102 14.3078 4.49484C14.3078 4.37947 14.2135 4.28595 14.0972 4.28595C13.981 4.28595 13.8867 4.37947 13.8867 4.49484C13.8867 4.6102 13.981 4.70373 14.0972 4.70373Z" fill="#FFD83D"/>
<path d="M14.0968 4.75131C13.9557 4.75131 13.8438 4.63575 13.8438 4.5002C13.8438 4.36464 13.9602 4.24908 14.0968 4.24908C14.2357 4.24908 14.3499 4.36464 14.3499 4.5002C14.3499 4.63575 14.2402 4.75131 14.0968 4.75131ZM14.0968 4.32908C14.0028 4.32908 13.9289 4.40686 13.9289 4.49575C13.9289 4.58464 14.0072 4.66242 14.0968 4.66242C14.1864 4.66242 14.2648 4.58464 14.2648 4.49575C14.2648 4.40464 14.1931 4.32908 14.0968 4.32908Z" fill="black"/>
<path d="M14.2261 5.16467C14.3424 5.16467 14.4367 5.07114 14.4367 4.95578C14.4367 4.84041 14.3424 4.74689 14.2261 4.74689C14.1099 4.74689 14.0156 4.84041 14.0156 4.95578C14.0156 5.07114 14.1099 5.16467 14.2261 5.16467Z" fill="#FFD83D"/>
<path d="M14.2277 5.20925C14.0866 5.20925 13.9746 5.0937 13.9746 4.95814C13.9746 4.82036 14.0911 4.70703 14.2277 4.70703C14.3665 4.70703 14.4808 4.82259 14.4808 4.95814C14.483 5.0937 14.371 5.20925 14.2277 5.20925ZM14.2277 4.78481C14.1336 4.78481 14.0597 4.86259 14.0597 4.95148C14.0597 5.04037 14.1381 5.11814 14.2277 5.11814C14.3217 5.11814 14.3957 5.04037 14.3957 4.95148C14.3957 4.86259 14.3217 4.78481 14.2277 4.78481Z" fill="black"/>
<path d="M14.2222 5.64025C14.3385 5.64025 14.4328 5.54673 14.4328 5.43136C14.4328 5.316 14.3385 5.22247 14.2222 5.22247C14.106 5.22247 14.0117 5.316 14.0117 5.43136C14.0117 5.54673 14.106 5.64025 14.2222 5.64025Z" fill="#FFD83D"/>
<path d="M14.2218 5.68283C14.0807 5.68283 13.9688 5.56727 13.9688 5.43171C13.9688 5.29394 14.0852 5.1806 14.2218 5.1806C14.3607 5.1806 14.4749 5.29616 14.4749 5.43171C14.4771 5.56727 14.3652 5.68283 14.2218 5.68283ZM14.2218 5.26505C14.1278 5.26505 14.0539 5.34283 14.0539 5.43171C14.0539 5.52505 14.1322 5.59838 14.2218 5.59838C14.3114 5.59838 14.3898 5.5206 14.3898 5.43171C14.3943 5.33838 14.3159 5.26505 14.2218 5.26505Z" fill="black"/>
<path d="M14.1324 6.10387C14.2487 6.10387 14.3429 6.01035 14.3429 5.89499C14.3429 5.77962 14.2487 5.6861 14.1324 5.6861C14.0161 5.6861 13.9219 5.77962 13.9219 5.89499C13.9219 6.01035 14.0161 6.10387 14.1324 6.10387Z" fill="#FFD83D"/>
<path d="M14.132 6.15316C13.9909 6.15316 13.8789 6.03761 13.8789 5.90205C13.8789 5.7665 13.9954 5.65094 14.132 5.65094C14.2708 5.65094 14.3851 5.7665 14.3851 5.90205C14.3851 6.03761 14.2731 6.15316 14.132 6.15316ZM14.132 5.72872C14.0379 5.72872 13.964 5.80649 13.964 5.89538C13.964 5.98872 14.0424 6.06205 14.132 6.06205C14.2216 6.06205 14.2999 5.98427 14.2999 5.89538C14.2999 5.80205 14.226 5.72872 14.132 5.72872Z" fill="black"/>
<path d="M10.4746 4.28465L10.497 4.55799C11.0278 4.47576 11.7758 4.18688 12.479 4.18688C13.124 4.18688 13.6302 4.44243 13.6302 5.0891C13.6302 5.72687 13.3592 6.30687 12.9964 6.89798L13.3704 7.07354C13.7063 6.42465 13.9818 5.87354 13.9818 5.1291C13.9818 4.50465 13.4868 3.8891 12.6336 3.8891C11.8788 3.89132 11.1084 4.14465 10.4746 4.28465Z" fill="#FFD83D"/>
<path d="M13.3641 7.12007C13.3596 7.12007 13.3507 7.12007 13.3462 7.11563L12.9722 6.94007C12.9587 6.93563 12.9543 6.92674 12.9498 6.9134C12.9453 6.90007 12.9498 6.88674 12.9543 6.88007C13.2633 6.37563 13.5836 5.76452 13.5836 5.0934C13.5836 4.34452 12.8893 4.2334 12.4772 4.2334C12.0338 4.2334 11.5635 4.3534 11.1469 4.46007C10.914 4.52007 10.6945 4.57563 10.4997 4.60452C10.4863 4.60452 10.4728 4.60452 10.4661 4.59563C10.4571 4.58674 10.4482 4.57785 10.4482 4.56674L10.4258 4.2934C10.4258 4.27118 10.4392 4.25563 10.4594 4.25118C10.6094 4.21785 10.7662 4.17785 10.9342 4.13563C11.456 4.00229 12.0495 3.85785 12.6318 3.85785C13.5321 3.85785 14.0225 4.51563 14.0225 5.14007C14.0225 5.90896 13.7202 6.49118 13.4022 7.10674C13.3955 7.11118 13.382 7.12007 13.3641 7.12007ZM13.0506 6.88007L13.3484 7.01785C13.6552 6.42896 13.9374 5.86452 13.9374 5.12896C13.9374 4.54674 13.4806 3.93118 12.6318 3.93118C12.0629 3.93118 11.4784 4.07563 10.9566 4.20896C10.8065 4.24674 10.6587 4.28229 10.5176 4.31563L10.531 4.50896C10.708 4.48007 10.9095 4.42674 11.12 4.37118C11.5388 4.26452 12.0159 4.14007 12.4728 4.14007C13.232 4.14007 13.6664 4.48674 13.6664 5.08452C13.6664 5.76452 13.3596 6.37118 13.0506 6.88007Z" fill="black"/>
<path d="M10.1771 1.44696L9.95312 1.86252L10.1771 2.27363L10.401 1.86252L10.1771 1.44696ZM10.1771 2.49141L9.95312 2.90252L10.1771 3.31808L10.401 2.90252L10.1771 2.49141Z" fill="#FFD83D"/>
<path d="M10.177 3.35845C10.159 3.35845 10.1478 3.34956 10.1389 3.33623L9.91492 2.92067C9.90596 2.90734 9.90596 2.89401 9.91492 2.88289L10.1389 2.47178C10.1523 2.4429 10.1993 2.4429 10.2173 2.47178L10.4412 2.88289C10.4502 2.89623 10.4502 2.90956 10.4412 2.92067L10.2173 3.33623C10.2083 3.34956 10.1904 3.35845 10.177 3.35845ZM10 2.90067L10.1725 3.22067L10.3449 2.90067L10.1725 2.58067L10 2.90067ZM10.177 2.31623C10.159 2.31623 10.1478 2.30734 10.1389 2.29401L9.91492 1.8829C9.90596 1.86956 9.90596 1.85623 9.91492 1.84512L10.1389 1.42956C10.1523 1.40068 10.1993 1.40068 10.2173 1.42956L10.439 1.84512C10.4479 1.85845 10.4479 1.87179 10.439 1.8829L10.215 2.29401C10.2083 2.30734 10.1904 2.31623 10.177 2.31623ZM10 1.8629L10.1725 2.1829L10.3449 1.8629L10.1725 1.5429L10 1.8629Z" fill="black"/>
<path d="M9.38477 2.38397L9.73414 2.60619L10.0835 2.38397L9.73414 2.16174L9.38477 2.38397ZM10.2694 2.38397L10.6188 2.60619L10.9682 2.38397L10.6188 2.16174L10.2694 2.38397Z" fill="#FFD83D"/>
<path d="M10.6164 2.64398C10.6074 2.64398 10.5985 2.63953 10.594 2.63509L10.2446 2.41287C10.2312 2.40398 10.2222 2.39064 10.2222 2.37953C10.2222 2.36842 10.2312 2.35064 10.2446 2.3462L10.594 2.12398C10.6074 2.11509 10.6231 2.11509 10.641 2.12398L10.9904 2.3462C11.0039 2.35509 11.0128 2.36842 11.0128 2.37953C11.0128 2.39064 11.0039 2.40842 10.9904 2.41287L10.641 2.63509C10.6343 2.64398 10.6254 2.64398 10.6164 2.64398ZM10.3499 2.38398L10.6164 2.55509L10.8874 2.38398L10.6164 2.21287L10.3499 2.38398ZM9.73401 2.64398C9.72505 2.64398 9.71609 2.63953 9.71161 2.63509L9.36224 2.41287C9.3488 2.40398 9.33984 2.39064 9.33984 2.37953C9.33984 2.36842 9.3488 2.35064 9.36224 2.3462L9.71161 2.12398C9.72505 2.11509 9.74073 2.11509 9.75865 2.12398L10.108 2.3462C10.1215 2.35509 10.1304 2.36842 10.1304 2.37953C10.1304 2.39064 10.1215 2.40842 10.108 2.41287L9.75865 2.63509C9.75193 2.64398 9.74297 2.64398 9.73401 2.64398ZM9.4675 2.38398L9.73849 2.55509L10.005 2.38398L9.73849 2.21287L9.4675 2.38398Z" fill="black"/>
<path d="M10.1777 2.55306C10.2705 2.55306 10.3457 2.47844 10.3457 2.3864C10.3457 2.29435 10.2705 2.21973 10.1777 2.21973C10.085 2.21973 10.0098 2.29435 10.0098 2.3864C10.0098 2.47844 10.085 2.55306 10.1777 2.55306Z" fill="#FFD83D"/>
<path d="M10.1773 2.59838C10.0609 2.59838 9.9668 2.50505 9.9668 2.38949C9.9668 2.27394 10.0609 2.1806 10.1773 2.1806C10.2938 2.1806 10.3878 2.27394 10.3878 2.38949C10.3878 2.50505 10.2938 2.59838 10.1773 2.59838ZM10.1773 2.26505C10.1079 2.26505 10.0519 2.3206 10.0519 2.38949C10.0519 2.45838 10.1079 2.51394 10.1773 2.51394C10.2467 2.51394 10.3027 2.45838 10.3027 2.38949C10.3027 2.3206 10.2467 2.26505 10.1773 2.26505Z" fill="black"/>
<path d="M10.177 3.90011C10.4269 3.90011 10.6294 3.69913 10.6294 3.45121C10.6294 3.2033 10.4269 3.00232 10.177 3.00232C9.92715 3.00232 9.72461 3.2033 9.72461 3.45121C9.72461 3.69913 9.92715 3.90011 10.177 3.90011Z" fill="#FFD83D"/>
<path d="M10.1766 3.94395C9.9056 3.94395 9.68164 3.72618 9.68164 3.45284C9.68164 3.17951 9.90112 2.96173 10.1766 2.96173C10.4521 2.96173 10.6715 3.17951 10.6715 3.45284C10.6715 3.72395 10.4476 3.94395 10.1766 3.94395ZM10.1766 3.04618C9.95263 3.04618 9.76674 3.22618 9.76674 3.45284C9.76674 3.67951 9.94815 3.85951 10.1766 3.85951C10.405 3.85951 10.5864 3.67951 10.5864 3.45284C10.5864 3.22395 10.4005 3.04618 10.1766 3.04618Z" fill="black"/>
<path d="M10.6108 3.59314H10.6063C10.3218 3.54648 10.0285 3.54648 9.74402 3.59314C9.7261 3.59759 9.71043 3.58426 9.70595 3.56648C9.70147 3.5487 9.7149 3.53314 9.73282 3.5287C10.0262 3.48203 10.3218 3.48203 10.6152 3.5287C10.6331 3.53314 10.6443 3.55092 10.6421 3.56648C10.6421 3.58426 10.6287 3.59314 10.6108 3.59314ZM10.6108 3.36648H10.6063C10.5032 3.3487 10.3957 3.33759 10.2927 3.33314C10.2748 3.33314 10.2636 3.31981 10.2636 3.30425V3.02203C10.2636 3.00425 10.277 2.9887 10.2972 2.9887C10.3174 2.9887 10.3308 3.00203 10.3308 3.02203V3.27314C10.4293 3.27759 10.5279 3.29092 10.6242 3.30648C10.6421 3.31092 10.6533 3.3287 10.6511 3.34425C10.6376 3.35759 10.6242 3.36648 10.6108 3.36648ZM9.74178 3.36648C9.72386 3.36648 9.71267 3.35314 9.71267 3.33981C9.70819 3.32203 9.72162 3.30648 9.73954 3.30203C9.83808 3.28425 9.93439 3.27537 10.0329 3.2687V3.23981C10.0329 3.18425 10.0329 3.11536 10.0329 3.01759C10.0329 2.99981 10.0464 2.98425 10.0665 2.98425C10.0867 2.98425 10.1001 2.99759 10.1001 3.01759C10.1001 3.11536 10.1001 3.17981 10.1001 3.23981V3.29981C10.1001 3.31759 10.0867 3.3287 10.071 3.3287C9.96798 3.33314 9.86048 3.34648 9.75746 3.36203C9.74626 3.36648 9.74178 3.36648 9.74178 3.36648Z" fill="black"/>
<path d="M9.73912 4.20844C9.69656 4.93955 9.60922 5.68399 9.32031 6.22177L9.78615 6.03288C9.94964 5.42177 9.98323 4.63066 10.0325 4.2551L9.73912 4.20844ZM10.617 4.20844L10.3192 4.25955C10.3662 4.6351 10.402 5.42621 10.5655 6.03733L11.0314 6.22621C10.7469 5.68177 10.6618 4.93955 10.617 4.20844Z" fill="#FFD83D"/>
<path d="M11.0302 6.26397C11.0257 6.26397 11.0167 6.26397 11.0123 6.25953L10.5464 6.07064C10.533 6.0662 10.524 6.05286 10.5196 6.04175C10.3986 5.59286 10.3471 5.04175 10.3135 4.64397C10.3001 4.49063 10.2866 4.36174 10.2754 4.25952C10.271 4.2373 10.2889 4.2173 10.309 4.21285L10.6069 4.16174C10.6203 4.16174 10.6338 4.16174 10.6405 4.17063C10.6494 4.17952 10.6584 4.18841 10.6584 4.19952C10.6965 4.87952 10.7793 5.64397 11.0683 6.19508C11.0772 6.21286 11.0727 6.22842 11.0638 6.24175C11.0548 6.25953 11.0436 6.26397 11.0302 6.26397ZM10.6047 6.00397L10.9451 6.14175C10.6942 5.60397 10.6181 4.89286 10.58 4.26174L10.374 4.29508C10.3874 4.38841 10.3964 4.50841 10.4076 4.64174C10.4389 5.02841 10.4882 5.56175 10.6047 6.00397ZM9.31913 6.26397C9.3057 6.26397 9.29674 6.25953 9.29002 6.25064C9.27658 6.23731 9.27658 6.21731 9.28554 6.20397C9.57893 5.65286 9.65507 4.88841 9.69538 4.20841C9.69538 4.19508 9.70434 4.18619 9.7133 4.17952C9.72226 4.17063 9.7357 4.16619 9.7469 4.17063L10.0448 4.22174C10.0672 4.22619 10.0828 4.24841 10.0784 4.26841C10.0649 4.37063 10.0515 4.49952 10.0403 4.65286C10.0022 5.05508 9.9507 5.60175 9.83424 6.05064C9.82976 6.06397 9.8208 6.07731 9.80736 6.07953L9.34153 6.26842C9.32809 6.26397 9.32361 6.26397 9.31913 6.26397ZM9.77601 4.25952C9.73794 4.8973 9.65955 5.60175 9.41096 6.13953L9.75137 6.00175C9.86335 5.56175 9.91486 5.02619 9.94846 4.6373C9.9619 4.50397 9.97085 4.38619 9.98205 4.29063L9.77601 4.25952Z" fill="black"/>
<path d="M10.177 5.78894C9.62156 5.78894 9.21172 6.04894 9.18708 6.71116C9.04823 6.47116 8.47713 5.72894 7.9374 5.82672C7.61937 5.88672 7.33495 6.32672 7.38646 6.82672C7.12443 6.07339 6.34729 5.95116 5.78516 6.39561C6.28458 6.80672 6.50854 8.01116 6.93182 8.53783H10.1792H13.4266C13.8477 8.01116 14.0739 6.80672 14.5778 6.39561C14.0134 5.95116 13.2385 6.07561 12.9765 6.82672C13.0235 6.32227 12.7391 5.88672 12.421 5.82672C11.8835 5.72894 11.3102 6.47116 11.1758 6.71116C11.1422 6.05116 10.7324 5.78894 10.177 5.78894Z" fill="#FFD83D"/>
<path d="M13.42 8.58012H6.92974C6.9163 8.58012 6.90286 8.57568 6.89614 8.56235C6.70578 8.32679 6.56021 7.96457 6.40568 7.58457C6.21979 7.12235 6.02719 6.64901 5.7562 6.42679C5.74724 6.4179 5.73828 6.40457 5.73828 6.39346C5.73828 6.38012 5.74276 6.36679 5.7562 6.36012C6.06302 6.12012 6.42359 6.03568 6.75505 6.12901C7.00588 6.20235 7.20745 6.37346 7.34182 6.61568C7.37541 6.16679 7.64864 5.83346 7.93083 5.78235C8.43921 5.68901 8.9476 6.2779 9.15364 6.5779C9.22307 6.04012 9.57916 5.74457 10.1749 5.74457C10.7729 5.74457 11.1312 6.04012 11.2006 6.5779C11.4067 6.2779 11.915 5.68901 12.4234 5.78235C12.7079 5.83346 12.9833 6.17123 13.0124 6.61568C13.1468 6.37123 13.3484 6.20012 13.5992 6.12901C13.9262 6.03568 14.2935 6.12012 14.5981 6.36012C14.607 6.36901 14.616 6.38235 14.616 6.39346C14.616 6.40679 14.6115 6.42012 14.5981 6.42679C14.3271 6.64901 14.1322 7.12457 13.9486 7.58457C13.794 7.96457 13.6462 8.32457 13.4581 8.56235C13.4469 8.57568 13.4335 8.58012 13.42 8.58012ZM6.95213 8.49568H13.4044C13.5813 8.26901 13.7224 7.92235 13.8702 7.55568C14.0516 7.10679 14.2397 6.64457 14.5085 6.3979C14.233 6.1979 13.9195 6.13346 13.6306 6.21346C13.3461 6.29568 13.1267 6.5179 13.0147 6.84235C13.0057 6.86457 12.9856 6.87568 12.9632 6.86901C12.9408 6.86457 12.9296 6.84235 12.9296 6.82235C12.9766 6.32679 12.6922 5.92012 12.4077 5.86457C11.8814 5.76679 11.3171 6.53123 11.2051 6.72901C11.1961 6.74679 11.176 6.75568 11.1581 6.75123C11.1401 6.74679 11.1289 6.72901 11.1245 6.71346C11.0976 5.98235 10.5937 5.83346 10.1771 5.83346C9.75833 5.83346 9.2589 5.98679 9.22978 6.71346C9.22978 6.73123 9.21635 6.74679 9.19619 6.75123C9.17827 6.75568 9.15812 6.74679 9.14916 6.72901C9.03718 6.53346 8.47281 5.76679 7.94651 5.86457C7.66208 5.91568 7.38213 6.32235 7.42916 6.82235C7.42916 6.84457 7.41573 6.86457 7.39557 6.86901C7.37317 6.87346 7.35302 6.86012 7.34406 6.84235C7.23208 6.52235 7.0126 6.29568 6.72817 6.21346C6.43927 6.13123 6.12573 6.19568 5.85026 6.3979C6.11677 6.64679 6.30265 7.10679 6.48406 7.55123C6.63187 7.92235 6.77521 8.26901 6.95213 8.49568Z" fill="black"/>
<path d="M13.4135 8.53703C13.4135 8.77703 11.9623 9.03703 10.1795 9.03703C8.39685 9.03703 6.94336 8.77703 6.94336 8.53703C6.94336 8.29703 8.39461 8.1748 10.1773 8.1748C11.96 8.1748 13.4135 8.29703 13.4135 8.53703Z" fill="black"/>
<path d="M10.178 9.07326C8.43784 9.07326 6.9082 8.82437 6.9082 8.53993C6.9082 8.17326 9.40982 8.14215 10.178 8.14215C10.9462 8.14215 13.4478 8.17104 13.4478 8.53993C13.4478 8.82437 11.9182 9.07326 10.178 9.07326ZM10.178 8.20882C8.07503 8.20882 6.97315 8.37548 6.97315 8.54215C6.97315 8.73104 8.3169 9.01326 10.178 9.01326C12.0391 9.01326 13.3828 8.73104 13.3828 8.54215C13.3828 8.37548 12.281 8.20882 10.178 8.20882Z" fill="black"/>
<path d="M10.1774 4.21556C10.2603 4.21556 10.3274 4.1489 10.3274 4.06667C10.3274 3.98445 10.2603 3.91779 10.1774 3.91779C10.0945 3.91779 10.0273 3.98445 10.0273 4.06667C10.0273 4.1489 10.0945 4.21556 10.1774 4.21556Z" fill="#FFD83D"/>
<path d="M10.1781 4.25158C10.0795 4.25158 9.99219 4.16936 9.99219 4.06713C9.99219 3.96491 10.0751 3.88269 10.1781 3.88269C10.2811 3.88269 10.364 3.96491 10.364 4.06713C10.364 4.16936 10.2766 4.25158 10.1781 4.25158ZM10.1781 3.95158C10.1131 3.95158 10.0571 4.00269 10.0571 4.07158C10.0571 4.14047 10.1086 4.19158 10.1781 4.19158C10.2475 4.19158 10.299 4.14047 10.299 4.07158C10.299 4.00269 10.243 3.95158 10.1781 3.95158Z" fill="black"/>
<path d="M10.1766 4.54914C10.2644 4.54914 10.3356 4.4785 10.3356 4.39136C10.3356 4.30422 10.2644 4.23358 10.1766 4.23358C10.0888 4.23358 10.0176 4.30422 10.0176 4.39136C10.0176 4.4785 10.0888 4.54914 10.1766 4.54914Z" fill="#FFD83D"/>
<path d="M10.1773 4.58418C10.0698 4.58418 9.98242 4.49973 9.98242 4.39084C9.98242 4.28195 10.0675 4.19751 10.1773 4.19751C10.2848 4.19751 10.3721 4.28195 10.3721 4.39084C10.3721 4.49973 10.2803 4.58418 10.1773 4.58418ZM10.1773 4.26418C10.1078 4.26418 10.0474 4.31973 10.0474 4.39306C10.0474 4.4664 10.1034 4.52195 10.1773 4.52195C10.2512 4.52195 10.3072 4.4664 10.3072 4.39306C10.3072 4.31973 10.2467 4.26418 10.1773 4.26418Z" fill="black"/>
<path d="M10.1769 4.91764C10.2746 4.91764 10.3539 4.83904 10.3539 4.74208C10.3539 4.64513 10.2746 4.56653 10.1769 4.56653C10.0792 4.56653 10 4.64513 10 4.74208C10 4.83904 10.0792 4.91764 10.1769 4.91764Z" fill="#FFD83D"/>
<path d="M10.1767 4.94716C10.0603 4.94716 9.9707 4.85382 9.9707 4.74271C9.9707 4.6316 10.0648 4.53827 10.1767 4.53827C10.2887 4.53827 10.3828 4.6316 10.3828 4.74271C10.3828 4.85382 10.2887 4.94716 10.1767 4.94716ZM10.1767 4.60271C10.0984 4.60271 10.0357 4.66716 10.0357 4.74271C10.0357 4.81827 10.1006 4.88271 10.1767 4.88271C10.2529 4.88271 10.3178 4.81827 10.3178 4.74271C10.3178 4.66716 10.2551 4.60271 10.1767 4.60271Z" fill="black"/>
<path d="M10.1781 5.33066C10.2894 5.33066 10.3797 5.24112 10.3797 5.13066C10.3797 5.02021 10.2894 4.93066 10.1781 4.93066C10.0668 4.93066 9.97656 5.02021 9.97656 5.13066C9.97656 5.24112 10.0668 5.33066 10.1781 5.33066Z" fill="#FFD83D"/>
<path d="M10.1782 5.36212C10.0483 5.36212 9.94531 5.2599 9.94531 5.13101C9.94531 5.00212 10.0483 4.8999 10.1782 4.8999C10.3081 4.8999 10.4111 5.00212 10.4111 5.13101C10.4111 5.2599 10.3036 5.36212 10.1782 5.36212ZM10.1782 4.96435C10.0842 4.96435 10.0103 5.04212 10.0103 5.13101C10.0103 5.2199 10.0886 5.29768 10.1782 5.29768C10.2678 5.29768 10.3462 5.2199 10.3462 5.13101C10.3462 5.04212 10.2701 4.96435 10.1782 4.96435Z" fill="black"/>
<path d="M10.1765 5.78022C10.2977 5.78022 10.396 5.68272 10.396 5.56244C10.396 5.44217 10.2977 5.34467 10.1765 5.34467C10.0553 5.34467 9.95703 5.44217 9.95703 5.56244C9.95703 5.68272 10.0553 5.78022 10.1765 5.78022Z" fill="#FFD83D"/>
<path d="M10.1769 5.81069C10.038 5.81069 9.92383 5.69958 9.92383 5.55958C9.92383 5.42181 10.0358 5.30847 10.1769 5.30847C10.318 5.30847 10.43 5.41958 10.43 5.55958C10.4277 5.69958 10.3158 5.81069 10.1769 5.81069ZM10.1769 5.37514C10.0739 5.37514 9.98654 5.45958 9.98654 5.56403C9.98654 5.66625 10.0716 5.75292 10.1769 5.75292C10.2799 5.75292 10.3673 5.66847 10.3673 5.56403C10.3628 5.45958 10.2799 5.37514 10.1769 5.37514Z" fill="black"/>
<path d="M10.0883 5.98273C10.0614 5.98273 10.0412 6.00495 10.0502 6.03828C10.0591 6.0805 10.0681 6.16717 10.0771 6.22273C10.086 6.28717 10.1241 6.26939 10.133 6.22273C10.142 6.17162 10.1375 6.1405 10.142 6.04717C10.1398 6.00495 10.1129 5.98273 10.0883 5.98273ZM10.2652 5.98273C10.2383 5.98273 10.2137 6.00495 10.2182 6.05162C10.2226 6.14495 10.2182 6.17606 10.2271 6.22717C10.2361 6.27828 10.2741 6.29162 10.2831 6.22717C10.2921 6.17162 10.301 6.08717 10.31 6.04273C10.3122 6.00495 10.2898 5.98273 10.2652 5.98273ZM9.93372 6.00717C9.91133 6.01162 9.89117 6.03384 9.89117 6.05384C9.89565 6.09606 9.90461 6.14717 9.90909 6.21162C9.91357 6.27606 9.9606 6.24939 9.96508 6.21606C9.96956 6.17828 9.97404 6.12273 9.96956 6.04939C9.96956 6.02273 9.95612 6.01162 9.94044 6.00717C9.94044 6.00717 9.93596 6.00717 9.93372 6.00717ZM10.4108 6.00717C10.3973 6.00717 10.3839 6.0205 10.3816 6.04939C10.3772 6.12273 10.3816 6.17828 10.3861 6.21606C10.3906 6.25384 10.4376 6.2805 10.4421 6.21162C10.4466 6.14717 10.46 6.09606 10.46 6.05384C10.46 6.03162 10.4376 6.00717 10.4175 6.00717C10.4197 6.00717 10.4152 6.00717 10.4108 6.00717ZM9.74784 6.0805C9.72544 6.08495 9.70976 6.10939 9.71424 6.13606C9.72768 6.19162 9.73664 6.25161 9.73664 6.30717C9.73664 6.35384 9.77471 6.33606 9.77919 6.30273C9.78367 6.26939 9.78815 6.2005 9.78815 6.13606C9.78591 6.08939 9.76351 6.07606 9.74784 6.0805ZM10.5966 6.0805C10.5832 6.08495 10.5698 6.10273 10.5698 6.13606C10.5698 6.2005 10.5742 6.26939 10.5787 6.30273C10.5832 6.33606 10.6213 6.35384 10.6213 6.30717C10.6213 6.25161 10.6347 6.19162 10.6437 6.13606C10.6482 6.10939 10.6302 6.08495 10.6101 6.0805C10.6056 6.0805 10.6011 6.0805 10.5966 6.0805ZM8.05023 6.08939C8.02335 6.08939 8.01215 6.11828 8.02335 6.15828C8.05023 6.21384 8.07934 6.25162 8.10622 6.31162C8.13309 6.36717 8.16669 6.33384 8.15325 6.29384C8.13981 6.25384 8.12637 6.21162 8.09278 6.13162C8.07934 6.10273 8.06366 6.08939 8.05023 6.08939ZM12.3055 6.08939C12.292 6.08939 12.2763 6.10273 12.2629 6.13162C12.2293 6.21384 12.2159 6.25606 12.2024 6.29384C12.189 6.33162 12.2293 6.36717 12.2495 6.31162C12.2763 6.25162 12.3055 6.21384 12.3323 6.15828C12.3458 6.11828 12.3278 6.08939 12.3055 6.08939ZM8.22268 6.09384C8.20476 6.09828 8.19356 6.1205 8.20476 6.14939C8.22716 6.2005 8.25627 6.25606 8.27867 6.31162C8.29658 6.36273 8.33913 6.34495 8.3257 6.30273C8.31226 6.25606 8.30778 6.22939 8.27867 6.14495C8.26075 6.09828 8.24059 6.08495 8.22268 6.09384ZM12.1218 6.09384C12.1084 6.09828 12.0882 6.11162 12.0793 6.14495C12.0501 6.22939 12.0457 6.25606 12.0322 6.30273C12.0188 6.34939 12.0613 6.36273 12.0793 6.31162C12.1016 6.25606 12.1308 6.2005 12.1532 6.14939C12.1621 6.12273 12.1532 6.10273 12.1352 6.09384C12.1285 6.08939 12.124 6.08939 12.1218 6.09384ZM8.43768 6.13162C8.41528 6.13606 8.3996 6.16939 8.4108 6.20939C8.42872 6.2605 8.45783 6.31162 8.48023 6.37162C8.50262 6.43162 8.54518 6.41828 8.53622 6.3805C8.52726 6.34273 8.51382 6.27828 8.48471 6.18495C8.47127 6.14495 8.45559 6.12717 8.43768 6.13162ZM11.918 6.13162C11.9001 6.12717 11.8799 6.14495 11.8665 6.18717C11.8374 6.2805 11.8284 6.34495 11.815 6.38273C11.806 6.4205 11.8441 6.43384 11.871 6.37384C11.8978 6.31384 11.9225 6.26717 11.9404 6.21162C11.9561 6.17162 11.9404 6.13606 11.918 6.13162ZM7.90465 6.16273C7.87778 6.16717 7.85762 6.20495 7.87554 6.23606C7.90241 6.28273 7.91361 6.3005 7.93601 6.35161C7.96288 6.40273 7.98752 6.36495 7.97408 6.32939C7.96512 6.29606 7.95169 6.25606 7.94049 6.20939C7.93377 6.17162 7.91585 6.16273 7.90465 6.16273ZM12.4533 6.16273C12.4398 6.16273 12.4241 6.17162 12.4152 6.20495C12.4018 6.25162 12.3883 6.28939 12.3816 6.32495C12.3726 6.35828 12.3995 6.39828 12.4197 6.34717C12.4421 6.29606 12.4577 6.27828 12.4801 6.23162C12.4958 6.20495 12.4734 6.16717 12.4533 6.16273ZM9.56195 6.28273C9.53508 6.28273 9.51044 6.31606 9.5194 6.34717C9.53284 6.39828 9.55299 6.4405 9.57091 6.50495C9.58435 6.5605 9.6269 6.53384 9.62242 6.49606C9.61794 6.45828 9.61346 6.40717 9.59555 6.32495C9.59331 6.29384 9.57987 6.28273 9.56195 6.28273ZM10.7892 6.28273C10.7713 6.28273 10.7601 6.29606 10.7557 6.32495C10.7377 6.40717 10.7333 6.45828 10.7288 6.49606C10.7243 6.53384 10.7669 6.5605 10.7803 6.50495C10.7982 6.4405 10.8184 6.39828 10.8318 6.34717C10.8408 6.31606 10.8161 6.28273 10.7892 6.28273ZM10.1778 6.33384C10.1487 6.33384 10.1442 6.37606 10.1442 6.41161C10.1398 6.52273 10.0972 6.62939 10.0547 6.6805C10.0166 6.73161 9.95612 6.71828 9.90461 6.69384C9.8531 6.66717 9.8195 6.64273 9.76351 6.6005C9.70752 6.55828 9.66497 6.58273 9.72992 6.67828C9.927 6.9605 10.1442 7.2005 10.1442 7.65606C10.1442 7.71606 10.1532 7.73383 10.1778 7.73383C10.2047 7.73383 10.2159 7.71606 10.2159 7.65606C10.2159 7.19828 10.4309 6.95606 10.6302 6.67828C10.6997 6.5805 10.6571 6.55828 10.5966 6.6005C10.5407 6.64273 10.5071 6.66495 10.4555 6.69384C10.404 6.72273 10.3436 6.73606 10.3055 6.6805C10.2674 6.62939 10.2204 6.52273 10.2159 6.41161C10.2137 6.37606 10.2092 6.33384 10.1778 6.33384ZM8.65716 6.26495C8.65268 6.26495 8.65268 6.26495 8.6482 6.26495C8.63476 6.26939 8.63028 6.28273 8.63476 6.30717C8.64372 6.34939 8.67283 6.43606 8.68627 6.47384C8.69971 6.51161 8.74674 6.50273 8.73778 6.45161C8.72434 6.39606 8.72434 6.37828 8.71091 6.31828C8.69971 6.28717 8.67507 6.26495 8.65716 6.26495ZM11.6985 6.26495C11.6806 6.26495 11.656 6.28717 11.647 6.3205C11.6336 6.3805 11.6336 6.39828 11.6201 6.45384C11.6067 6.50939 11.6582 6.51828 11.6716 6.47606C11.6851 6.43828 11.7142 6.35161 11.7232 6.30939C11.7276 6.28273 11.7187 6.27162 11.7097 6.26717C11.703 6.26495 11.6985 6.26495 11.6985 6.26495ZM7.75236 6.28273C7.72549 6.28273 7.70981 6.31606 7.73445 6.3605C7.76132 6.41162 7.80835 6.47162 7.82851 6.50495C7.8509 6.53828 7.88898 6.51828 7.8621 6.47162C7.83523 6.42495 7.82851 6.37384 7.79715 6.30939C7.7882 6.28939 7.77028 6.28273 7.75236 6.28273ZM12.5988 6.28273C12.5854 6.28273 12.5652 6.29162 12.5563 6.31606C12.5272 6.3805 12.5182 6.43161 12.4913 6.47828C12.4645 6.52495 12.5048 6.54717 12.5249 6.51161C12.5451 6.47606 12.5944 6.41384 12.619 6.36717C12.6414 6.31606 12.6257 6.28273 12.5988 6.28273ZM6.38845 6.42273C6.35934 6.42273 6.35038 6.47384 6.37501 6.50717C6.41309 6.55828 6.43996 6.58495 6.48699 6.62273C6.52059 6.65161 6.53402 6.61384 6.51611 6.5805C6.49819 6.55161 6.47355 6.51606 6.43772 6.4605C6.41757 6.43606 6.39965 6.42273 6.38845 6.42273ZM13.965 6.42273C13.9516 6.42273 13.9359 6.43606 13.9135 6.46495C13.8799 6.51606 13.853 6.54939 13.8351 6.58495C13.8172 6.61384 13.8261 6.65828 13.8642 6.62717C13.9068 6.58939 13.9381 6.55828 13.9762 6.51161C14.0031 6.47384 13.9941 6.42273 13.965 6.42273ZM6.60793 6.46495C6.58553 6.46495 6.56986 6.48273 6.58553 6.5205C6.61241 6.57606 6.646 6.6405 6.6684 6.68273C6.6908 6.72495 6.7535 6.73828 6.72887 6.67384C6.70199 6.60939 6.69975 6.57606 6.67288 6.51161C6.65944 6.48273 6.62809 6.46495 6.60793 6.46495ZM13.75 6.46495C13.7276 6.46495 13.694 6.48273 13.685 6.51161C13.6582 6.57161 13.6559 6.60495 13.629 6.67384C13.6022 6.73828 13.6671 6.72495 13.6895 6.68273C13.7119 6.6405 13.7455 6.57606 13.7724 6.5205C13.7881 6.48273 13.7701 6.46495 13.75 6.46495ZM6.18465 6.48273C6.15105 6.48273 6.15105 6.51606 6.17569 6.53828C6.21376 6.56717 6.26079 6.59828 6.31007 6.63606C6.36158 6.67828 6.38397 6.6405 6.3571 6.60273C6.32798 6.56939 6.30111 6.52939 6.2272 6.49606C6.21152 6.48273 6.19809 6.48273 6.18465 6.48273ZM14.1666 6.48273C14.1531 6.48273 14.1397 6.48717 14.124 6.49606C14.0501 6.52939 14.0255 6.56939 13.9941 6.60273C13.965 6.63606 13.9851 6.67606 14.0411 6.63606C14.0882 6.59828 14.1307 6.56717 14.1755 6.53828C14.2046 6.51161 14.2024 6.48273 14.1666 6.48273ZM9.44549 6.51161C9.42758 6.51606 9.4119 6.53828 9.41862 6.56273C9.43205 6.61384 9.44773 6.66495 9.45669 6.71606C9.46565 6.76717 9.52612 6.76717 9.51268 6.7205C9.50372 6.67384 9.49924 6.61828 9.48357 6.54939C9.47909 6.52273 9.46565 6.51161 9.44997 6.51161H9.44549ZM10.9012 6.51161C10.8878 6.51161 10.8744 6.52495 10.8676 6.54939C10.8497 6.61828 10.8452 6.67384 10.8385 6.7205C10.8296 6.76717 10.8855 6.76273 10.8945 6.71606C10.9035 6.66495 10.9214 6.61384 10.9326 6.56273C10.9415 6.53606 10.9236 6.51606 10.9057 6.51161H10.9012ZM8.14877 6.42717C8.13533 6.43162 8.12637 6.45606 8.13533 6.5005C8.1958 6.71828 8.21372 6.82939 8.20476 6.88495C8.1958 6.93606 8.16669 6.94495 8.12637 6.92717C8.0883 6.90939 8.04127 6.88495 8.00544 6.85828C7.97184 6.83161 7.93153 6.86273 7.98304 6.90495C8.24507 7.11828 8.42648 7.36272 8.49591 7.65828C8.50934 7.71828 8.54742 7.72717 8.53846 7.65828C8.47799 7.28717 8.46903 6.98273 8.55638 6.79161C8.58997 6.71828 8.55638 6.65161 8.50039 6.76495C8.46679 6.84272 8.40632 6.87161 8.35929 6.80717C8.31226 6.73828 8.2182 6.55828 8.18684 6.47828C8.17788 6.44939 8.15997 6.43606 8.15325 6.43161C8.15325 6.42717 8.14877 6.42717 8.14877 6.42717ZM12.198 6.42717C12.1845 6.42717 12.1711 6.44495 12.1644 6.47384C12.1352 6.55606 12.0389 6.73384 11.9919 6.80273C11.9449 6.87161 11.8889 6.8405 11.8508 6.7605C11.7993 6.64495 11.7657 6.71384 11.7948 6.78717C11.8844 6.9805 11.8732 7.28272 11.8127 7.65383C11.8038 7.72272 11.8396 7.71383 11.8553 7.65383C11.9247 7.35828 12.1061 7.11606 12.3682 6.9005C12.4197 6.85828 12.3816 6.82717 12.3458 6.85384C12.3122 6.8805 12.2629 6.90495 12.2248 6.92272C12.1868 6.9405 12.1554 6.93161 12.1464 6.8805C12.1375 6.82939 12.1554 6.71384 12.2159 6.49606C12.2293 6.45828 12.2203 6.42717 12.2024 6.42273C12.2024 6.42717 12.2024 6.42717 12.198 6.42717ZM6.83637 6.52939C6.81397 6.52939 6.79382 6.54717 6.80278 6.5805C6.82069 6.63606 6.85429 6.7005 6.86772 6.73384C6.88116 6.76717 6.91923 6.75161 6.91028 6.70495C6.90132 6.65828 6.90132 6.62273 6.88788 6.57161C6.88788 6.54717 6.861 6.52939 6.83637 6.52939ZM13.5171 6.52939C13.4947 6.52939 13.4656 6.54273 13.4611 6.57161C13.4521 6.62717 13.4476 6.65606 13.4387 6.70495C13.4297 6.75161 13.4678 6.76939 13.4812 6.73384C13.4947 6.7005 13.5283 6.63606 13.5462 6.5805C13.5596 6.54717 13.5372 6.52939 13.5171 6.52939ZM7.64486 6.45606C7.61799 6.45161 7.61575 6.5205 7.6359 6.54939C7.66502 6.58717 7.70981 6.63384 7.75236 6.68717C7.78596 6.72939 7.80835 6.69161 7.78596 6.65828C7.76356 6.62495 7.73445 6.58495 7.67398 6.49606C7.66726 6.46939 7.65382 6.45606 7.64486 6.45606ZM12.7063 6.45606C12.6974 6.45606 12.6839 6.46939 12.6727 6.48939C12.6168 6.57828 12.5832 6.61828 12.5608 6.65161C12.5384 6.68495 12.5608 6.72495 12.5944 6.6805C12.6369 6.62939 12.6795 6.58273 12.7108 6.54273C12.7377 6.5205 12.7377 6.45384 12.7063 6.45606ZM7.02002 6.62273C7.0021 6.62273 6.9909 6.63606 6.99314 6.66939C7.0021 6.71606 7.02002 6.75384 7.02673 6.80273C7.04017 6.84939 7.06929 6.8405 7.06929 6.79828C7.06929 6.75606 7.06033 6.70939 7.05585 6.6605C7.06033 6.6405 7.03793 6.62717 7.02002 6.62273ZM13.3312 6.62273C13.3133 6.62273 13.2931 6.6405 13.2931 6.6605C13.2842 6.70717 13.2797 6.75384 13.2797 6.79828C13.2797 6.8405 13.3088 6.84939 13.3222 6.80273C13.3357 6.75606 13.3491 6.71828 13.3558 6.66939C13.3603 6.63606 13.3491 6.62273 13.3312 6.62273ZM7.58439 6.68717C7.55752 6.69161 7.53288 6.71606 7.56648 6.75606C7.61799 6.8205 7.6695 6.86273 7.69189 6.88939C7.70981 6.91606 7.76132 6.90273 7.72549 6.85606C7.69637 6.80495 7.6471 6.74495 7.62694 6.70717C7.62023 6.68717 7.60231 6.68273 7.58439 6.68717ZM12.7578 6.68717C12.7444 6.68717 12.7355 6.69606 12.7287 6.70495C12.7063 6.74273 12.6593 6.80273 12.6302 6.85384C12.6011 6.90495 12.6481 6.91384 12.6638 6.88717C12.6817 6.8605 12.7377 6.81828 12.7892 6.75384C12.8183 6.71606 12.7982 6.68939 12.7713 6.68495C12.7623 6.68273 12.7623 6.68273 12.7578 6.68717ZM6.69751 6.86272C6.67512 6.86272 6.6684 6.87606 6.69751 6.91828C6.76246 7.00272 6.83189 7.13606 6.83861 7.19606C6.84309 7.25161 6.81621 7.25161 6.7871 7.25161C6.70871 7.25161 6.67064 7.19606 6.59673 7.17828C6.52283 7.1605 6.51387 7.2005 6.56762 7.23384C6.82965 7.42272 7.09392 7.63606 7.19694 7.82272C7.2395 7.9005 7.29549 7.92939 7.26637 7.85606C7.16783 7.62939 7.14543 7.43383 7.16783 7.31828C7.19022 7.20272 7.21934 7.12272 7.21486 7.05384C7.21038 6.98495 7.17231 6.98939 7.15887 7.05384C7.14991 7.09606 7.12976 7.15161 7.11184 7.17384C7.0984 7.19606 7.03793 7.20717 6.98642 7.13606C6.93043 7.06272 6.79158 6.92272 6.74903 6.88717C6.72887 6.87606 6.70647 6.86717 6.69751 6.86272ZM13.6582 6.86272C13.6447 6.86272 13.629 6.87161 13.6111 6.88495C13.5641 6.91828 13.4252 7.0605 13.3737 7.13384C13.3177 7.20717 13.2618 7.19384 13.2483 7.17161C13.2349 7.14939 13.2147 7.09384 13.2013 7.05161C13.1834 6.98717 13.1453 6.98272 13.1453 7.05161C13.1408 7.1205 13.1722 7.19606 13.1923 7.31606C13.2147 7.43161 13.1878 7.62717 13.0938 7.85383C13.0647 7.92717 13.1207 7.9005 13.1632 7.8205C13.2662 7.62717 13.5283 7.41828 13.7925 7.23161C13.8441 7.19384 13.8306 7.15828 13.7634 7.17606C13.6895 7.19384 13.6514 7.24939 13.5731 7.24939C13.5462 7.24939 13.5171 7.24939 13.5215 7.19384C13.526 7.13828 13.5999 7.00495 13.6626 6.91606C13.685 6.8805 13.6806 6.86272 13.6582 6.86272Z" fill="black"/>
<path d="M7.08008 8.26831L7.16294 8.53275L7.08008 8.26831ZM7.25253 8.2172L7.32643 8.48164L7.25253 8.2172ZM7.44289 8.18609L7.4944 8.45942L7.44289 8.18609ZM7.61534 8.15275L7.67133 8.42164L7.61534 8.15275ZM7.83482 8.13053L7.87737 8.40386L7.83482 8.13053ZM8.07221 8.13053L8.11924 8.40386L8.07221 8.13053ZM8.30289 8.05498L8.33648 8.32831L8.30289 8.05498ZM8.52013 8.06831L8.55372 8.34164L8.52013 8.06831ZM8.73065 8.0372L8.76425 8.31053L8.73065 8.0372ZM8.94117 8.01498L8.95909 8.29275L8.94117 8.01498ZM9.16513 8.01498L9.18305 8.29275L9.16513 8.01498ZM9.37117 8.00387L9.38461 8.28164L9.37117 8.00387ZM9.59513 7.99053L9.60857 8.26831L9.59513 7.99053ZM9.85492 7.98165L9.86836 8.25942L9.85492 7.98165ZM13.2703 8.26831L13.1874 8.53275L13.2703 8.26831ZM13.0978 8.2172L13.0239 8.48164L13.0978 8.2172ZM12.912 8.18609L12.8604 8.45942L12.912 8.18609ZM12.7373 8.15275L12.6813 8.42164L12.7373 8.15275ZM12.5178 8.13053L12.4752 8.40386L12.5178 8.13053ZM12.2804 8.13053L12.2334 8.40386L12.2804 8.13053ZM12.052 8.05498L12.0184 8.32831L12.052 8.05498ZM11.8325 8.06831L11.7989 8.34164L11.8325 8.06831ZM11.6197 8.0372L11.5861 8.31053L11.6197 8.0372ZM11.4092 8.01498L11.3913 8.29275L11.4092 8.01498ZM11.1852 8.01498L11.1673 8.29275L11.1852 8.01498ZM10.9837 8.00387L10.9702 8.28164L10.9837 8.00387ZM10.7597 7.99053L10.7463 8.26831L10.7597 7.99053ZM10.4954 7.98165L10.482 8.25942L10.4954 7.98165ZM10.1774 7.96387V8.26831V7.96387Z" fill="#FFD83D"/>
<path d="M13.1901 8.564C13.1856 8.564 13.1811 8.564 13.1811 8.564C13.1632 8.55955 13.1542 8.54178 13.1587 8.52622L13.2416 8.26177C13.2461 8.244 13.264 8.23511 13.2796 8.23955C13.2976 8.244 13.3065 8.26178 13.302 8.27733L13.2192 8.54177C13.2147 8.55511 13.2013 8.564 13.1901 8.564ZM7.16781 8.564C7.15437 8.564 7.14093 8.55511 7.13869 8.54177L7.05583 8.27733C7.05135 8.25955 7.06031 8.244 7.07822 8.23955C7.09614 8.23511 7.11182 8.244 7.1163 8.26177L7.19916 8.52622C7.20364 8.544 7.19468 8.55955 7.17677 8.564C7.17229 8.564 7.17229 8.564 7.16781 8.564ZM13.0243 8.51511C13.0199 8.51511 13.0199 8.51511 13.0154 8.51511C12.9975 8.51066 12.9885 8.49289 12.993 8.47733L13.0669 8.21289C13.0714 8.19511 13.0893 8.18622 13.105 8.19066C13.1229 8.19511 13.1318 8.21289 13.1274 8.22844L13.0534 8.49289C13.0512 8.50844 13.0378 8.51511 13.0243 8.51511ZM7.3313 8.51511C7.31786 8.51511 7.30442 8.50622 7.30218 8.49289L7.22828 8.22844C7.2238 8.21066 7.23276 8.19511 7.25067 8.19066C7.26859 8.18622 7.28427 8.19511 7.28875 8.21289L7.36265 8.47733C7.36713 8.49511 7.35817 8.51066 7.34026 8.51511C7.33578 8.51511 7.3313 8.51511 7.3313 8.51511ZM12.8608 8.49066H12.8564C12.8384 8.48622 12.8273 8.46844 12.8295 8.45289L12.881 8.17955C12.8855 8.16178 12.9034 8.15066 12.9191 8.15289C12.937 8.15733 12.9482 8.17511 12.9459 8.19066L12.8944 8.464C12.8922 8.47733 12.8743 8.49066 12.8608 8.49066ZM7.49479 8.49066C7.47687 8.49066 7.46567 8.47733 7.46567 8.464L7.41416 8.19066C7.40968 8.17289 7.42312 8.15733 7.44104 8.15289C7.45896 8.14844 7.47463 8.16178 7.47911 8.17955L7.53062 8.45289C7.5351 8.47066 7.52166 8.48622 7.50375 8.49066C7.49479 8.49066 7.49479 8.49066 7.49479 8.49066ZM12.6862 8.45733H12.6817C12.6638 8.45289 12.6526 8.43511 12.6548 8.41955L12.7108 8.15066C12.7153 8.13289 12.7332 8.12178 12.7489 8.124C12.7668 8.12844 12.778 8.14622 12.7757 8.16177L12.7198 8.43066C12.7108 8.444 12.6974 8.45733 12.6862 8.45733ZM7.67172 8.45733C7.6538 8.45733 7.6426 8.44844 7.6426 8.43066L7.58661 8.16177C7.58213 8.144 7.59557 8.12844 7.61349 8.124C7.6314 8.11955 7.64708 8.13289 7.65156 8.15066L7.70755 8.41955C7.71203 8.43733 7.69859 8.45289 7.68067 8.45733C7.6762 8.45733 7.67172 8.45733 7.67172 8.45733ZM12.4734 8.43511H12.4689C12.451 8.43066 12.4398 8.41289 12.442 8.39733L12.4846 8.124C12.4891 8.10622 12.507 8.09511 12.5227 8.09733C12.5406 8.10178 12.5518 8.11955 12.5495 8.13511L12.507 8.40844C12.5003 8.42177 12.4868 8.43511 12.4734 8.43511ZM7.88224 8.43511C7.86432 8.43511 7.85312 8.42177 7.85312 8.40844L7.81057 8.13511C7.80609 8.11733 7.81953 8.10178 7.83745 8.09733C7.85536 8.09289 7.87104 8.10622 7.87552 8.124L7.91807 8.39733C7.92255 8.41511 7.90911 8.43066 7.8912 8.43511C7.88672 8.43511 7.88224 8.43511 7.88224 8.43511ZM12.2338 8.43511H12.2293C12.2114 8.43066 12.2002 8.41289 12.2024 8.39733L12.2494 8.124C12.2539 8.10622 12.2718 8.09511 12.2875 8.09733C12.3054 8.10178 12.3166 8.11955 12.3144 8.13511L12.2674 8.40844C12.2629 8.42177 12.2494 8.43511 12.2338 8.43511ZM8.11963 8.43511C8.10172 8.43511 8.09052 8.42177 8.09052 8.40844L8.04349 8.13511C8.03901 8.11733 8.05245 8.10178 8.07036 8.09733C8.08828 8.09289 8.10396 8.10622 8.10844 8.124L8.15547 8.39733C8.15995 8.41511 8.14651 8.43066 8.12859 8.43511C8.12411 8.43511 8.12411 8.43511 8.11963 8.43511ZM11.797 8.37511C11.797 8.37066 11.797 8.37511 11.797 8.37511C11.7746 8.37066 11.7634 8.35733 11.7679 8.34177L11.8015 8.06844C11.806 8.05066 11.8194 8.03955 11.8351 8.03955C11.853 8.044 11.8642 8.05733 11.8642 8.07289L11.8306 8.34622C11.8284 8.36178 11.815 8.37511 11.797 8.37511ZM8.55411 8.37511C8.5362 8.37511 8.525 8.36178 8.525 8.34622L8.49141 8.07289C8.48693 8.05511 8.50036 8.03955 8.52052 8.03955C8.53844 8.03955 8.55411 8.04844 8.55411 8.06844L8.58771 8.34177C8.58771 8.35289 8.57651 8.37066 8.55411 8.37511C8.55859 8.37511 8.55859 8.37066 8.55411 8.37511ZM12.0165 8.35733C12.012 8.35733 12.012 8.35733 12.0165 8.35733C11.9941 8.35289 11.9829 8.33955 11.9874 8.324L12.021 8.05066C12.0255 8.03289 12.0389 8.02178 12.0546 8.02178C12.0725 8.02622 12.0837 8.03955 12.0837 8.05511L12.0501 8.32844C12.0434 8.34622 12.03 8.35733 12.0165 8.35733ZM8.33911 8.35733C8.3212 8.35733 8.31 8.344 8.31 8.32844L8.27641 8.05511C8.27193 8.03733 8.28536 8.02178 8.30552 8.02178C8.32344 8.02178 8.33911 8.03066 8.33911 8.05066L8.37271 8.324C8.37271 8.34178 8.35927 8.35733 8.33911 8.35733ZM11.5865 8.34622C11.5641 8.34178 11.5529 8.32844 11.5574 8.31289L11.591 8.03955C11.5955 8.02177 11.6089 8.01066 11.6246 8.01066C11.6425 8.01511 11.6537 8.02844 11.6537 8.044L11.6201 8.31733C11.6179 8.33289 11.6044 8.34622 11.5865 8.34622ZM8.76464 8.34622C8.74672 8.34622 8.73552 8.33289 8.73552 8.31733L8.70193 8.044C8.69745 8.02622 8.71089 8.01066 8.73104 8.01066C8.74896 8.01066 8.76464 8.01955 8.76464 8.03955L8.79823 8.31289C8.80047 8.32844 8.78703 8.34178 8.76464 8.34622C8.76912 8.34622 8.76464 8.34622 8.76464 8.34622ZM11.1677 8.324C11.1453 8.324 11.1341 8.30622 11.1386 8.29066L11.1565 8.01289C11.1565 7.99511 11.1744 7.984 11.1901 7.984C11.208 7.984 11.2192 8.00177 11.2192 8.01733L11.2013 8.29511C11.2035 8.31066 11.1856 8.324 11.1677 8.324ZM9.18344 8.324C9.16552 8.324 9.15432 8.31066 9.15432 8.29511L9.13641 8.01733C9.13641 7.99955 9.14985 7.984 9.16552 7.984C9.1812 7.984 9.19912 7.99733 9.19912 8.01289L9.21703 8.29066C9.21703 8.31066 9.2036 8.324 9.18344 8.324ZM11.3939 8.324C11.3715 8.324 11.3603 8.30622 11.3648 8.29066L11.3827 8.01289C11.3827 7.99511 11.4006 7.984 11.4163 7.984C11.4342 7.984 11.4454 8.00177 11.4454 8.01733L11.4275 8.29511C11.423 8.31066 11.4096 8.324 11.3939 8.324ZM8.95948 8.324C8.94156 8.324 8.93037 8.31066 8.93037 8.29511L8.91245 8.01733C8.91245 7.99955 8.92589 7.984 8.94156 7.984C8.95724 7.984 8.97516 7.99733 8.97516 8.01289L8.99307 8.29066C8.99307 8.30622 8.97964 8.324 8.95948 8.324C8.96396 8.324 8.95948 8.324 8.95948 8.324ZM10.9706 8.31066C10.9662 8.31066 10.9662 8.31066 10.9706 8.31066C10.9482 8.31066 10.937 8.29289 10.9415 8.27733L10.955 7.99955C10.955 7.98178 10.9729 7.97066 10.9885 7.97066C11.0065 7.97066 11.0177 7.98844 11.0177 8.004L11.0042 8.28178C10.9997 8.29733 10.9885 8.31066 10.9706 8.31066ZM9.385 8.31066C9.36709 8.31066 9.35589 8.29733 9.35589 8.28178L9.34245 8.004C9.34245 7.98622 9.35589 7.97066 9.37156 7.97066C9.38724 7.97066 9.40516 7.984 9.40516 7.99955L9.4186 8.27733C9.42084 8.29289 9.40292 8.31066 9.385 8.31066ZM10.1778 8.30178C10.1599 8.30178 10.1442 8.28844 10.1442 8.26844V7.964C10.1442 7.94622 10.1577 7.93066 10.1778 7.93066C10.198 7.93066 10.2114 7.944 10.2114 7.964V8.26844C10.2092 8.28622 10.1957 8.30178 10.1778 8.30178ZM10.7467 8.29733C10.7288 8.29733 10.7131 8.27955 10.7131 8.264L10.7265 7.98622C10.7265 7.96844 10.7444 7.95733 10.7601 7.95733C10.7758 7.95733 10.7892 7.97511 10.7892 7.99066L10.7758 8.26844C10.7758 8.28622 10.7646 8.29733 10.7467 8.29733ZM9.60896 8.29733C9.59104 8.29733 9.57985 8.284 9.57985 8.26844L9.56641 7.99066C9.56641 7.97289 9.57985 7.95733 9.59552 7.95733C9.6112 7.95733 9.62912 7.97066 9.62912 7.98622L9.64255 8.264C9.64032 8.28177 9.62688 8.29733 9.60896 8.29733ZM10.4891 8.29066C10.4712 8.29066 10.4555 8.27289 10.4555 8.25733L10.469 7.97955C10.469 7.96178 10.4869 7.95066 10.5026 7.95066C10.5205 7.95066 10.5317 7.96844 10.5317 7.984L10.5182 8.26177C10.5182 8.27733 10.5048 8.29066 10.4891 8.29066ZM9.86875 8.29066C9.85084 8.29066 9.83964 8.27733 9.83964 8.26177L9.8262 7.984C9.8262 7.96622 9.83964 7.95066 9.85532 7.95066C9.87099 7.95066 9.88891 7.964 9.88891 7.97955L9.90235 8.25733C9.89787 8.27733 9.88443 8.29066 9.86875 8.29066Z" fill="black"/>
</g>
<rect x="0.802344" y="0.15" width="42.7" height="23.7" stroke="#EFEFF8" stroke-width="0.3"/>
<defs>
<clipPath id="clip0_684_39076">
<rect x="0.652344" width="43" height="24" fill="white"/>
</clipPath>
</defs>
</svg>
