<svg width="44" height="24" viewBox="0 0 44 24" fill="none" xmlns="http://www.w3.org/2000/svg">
<g clip-path="url(#clip0_684_45460)">
<path d="M46.2883 0H0.332031V24H46.2883V0Z" fill="#BF0A30"/>
<path d="M0.332031 3.27124H46.2883H0.332031ZM0.332031 7.63569H46.2883H0.332031ZM0.332031 12.0001H46.2883H0.332031ZM0.332031 16.3646H46.2883H0.332031ZM0.332031 20.729H46.2883H0.332031Z" fill="black"/>
<path d="M46.2883 21.8201H0.332031V19.6401H46.2883V21.8201ZM46.2883 17.4556H0.332031V15.2756H46.2883V17.4556ZM46.2883 13.0912H0.332031V10.9112H46.2883V13.0912ZM46.2883 8.72894H0.332031V6.54894H46.2883V8.72894ZM46.2883 4.3645H0.332031V2.18005H46.2883V4.3645Z" fill="white"/>
<path d="M11.3261 0H0.332031V10.9089H11.3261V0Z" fill="#002868"/>
<path d="M5.82956 2.18005L4.81055 5.29561L6.37826 5.80005L5.82956 2.18005Z" fill="white"/>
<path d="M5.83023 2.18005L6.847 5.29561L5.2793 5.80005L5.83023 2.18005Z" fill="white"/>
<path d="M8.96882 4.44452H5.66992V6.08008L8.96882 4.44452Z" fill="white"/>
<path d="M8.96773 4.44452L6.29815 6.36896L5.32617 5.04452L8.96773 4.44452Z" fill="white"/>
<path d="M2.68945 4.44452L5.35904 6.36896L6.32878 5.04452L2.68945 4.44452Z" fill="white"/>
<path d="M2.68945 4.44452H5.9906V6.08008L2.68945 4.44452Z" fill="white"/>
<path d="M7.76865 8.10439L6.74964 4.98883L5.17969 5.4955L7.76865 8.10439Z" fill="white"/>
<path d="M7.76919 8.10436L5.09961 6.17991L6.06711 4.85547L7.76919 8.10436Z" fill="white"/>
<path d="M3.89062 8.10436L6.56021 6.17991L5.58823 4.85547L3.89062 8.10436Z" fill="white"/>
<path d="M3.89062 8.10439L4.91187 4.98883L6.47958 5.4955L3.89062 8.10439Z" fill="white"/>
</g>
<rect x="0.482031" y="0.15" width="42.7" height="23.7" stroke="#EFEFF8" stroke-width="0.3"/>
<defs>
<clipPath id="clip0_684_45460">
<rect x="0.332031" width="43" height="24" fill="white"/>
</clipPath>
</defs>
</svg>
