<svg width="44" height="24" viewBox="0 0 44 24" fill="none" xmlns="http://www.w3.org/2000/svg">
<g clip-path="url(#clip0_684_45455)">
<path d="M0.238281 -0.22876H44.0602V24.2312H0.238281V-0.22876Z" fill="#009543"/>
<path d="M0.238281 -0.22876H44.0602V16.8935H0.238281V-0.22876Z" fill="white"/>
<path d="M0.238281 -0.22876H44.0602V7.10902H0.238281V-0.22876Z" fill="#00209F"/>
<path d="M22.1687 7.51996H22.1306C22.0455 7.52218 21.9693 7.56663 21.9156 7.60885C21.8596 7.65107 21.8238 7.69107 21.8238 7.69107L21.8148 7.69996C21.5259 7.75107 21.2616 7.87551 21.0511 8.07774C20.7712 8.34663 20.5942 8.74218 20.5383 9.24663C20.48 9.7644 20.6234 10.34 20.7734 10.7977C20.9235 11.2555 21.087 11.5977 21.087 11.5977L21.1161 11.6577L19.2371 14.1688L18.8586 14.04L18.1777 15.48L18.2091 15.5C18.2091 15.5 19.8261 16.5044 22.1687 16.4777C24.7375 16.4466 26.1417 15.4533 26.1417 15.4533L26.1708 15.4333L25.4676 14.0111L25.1316 14.1555L23.181 11.5955L23.1966 11.6022C23.1966 11.6022 23.3668 11.2533 23.5214 10.7866C23.6737 10.32 23.8192 9.73107 23.7431 9.20663C23.6714 8.70885 23.5147 8.31996 23.2347 8.05551C23.0309 7.86218 22.7666 7.74663 22.4621 7.70218V7.69329L22.4509 7.68218C22.4509 7.68218 22.4128 7.64218 22.3546 7.60218C22.3075 7.56885 22.2448 7.53996 22.1754 7.53107L22.1687 7.51996ZM22.4553 8.11107C22.6614 8.14885 22.8204 8.22885 22.9458 8.34885C23.1339 8.52885 23.2683 8.81996 23.331 9.26218C23.3892 9.66885 23.2683 10.22 23.125 10.66C23.0376 10.9288 22.9592 11.1155 22.9055 11.24L22.6099 10.8533L22.6054 9.93329H23.0936L22.4531 9.33329L22.4553 8.11107ZM21.8148 8.11774L21.8238 9.35329L21.2437 9.95551H21.7252L21.7208 10.8466L21.396 11.28C21.3535 11.1888 21.2706 11.0088 21.1609 10.6733C21.0198 10.2422 20.8988 9.69774 20.9436 9.29107C20.9929 8.85551 21.1362 8.55996 21.3333 8.37107C21.4677 8.2444 21.6289 8.15996 21.8148 8.11774ZM25.154 14.5133L25.2593 14.6644L24.9659 15.0977L24.6636 14.7133L25.154 14.5133ZM19.0937 14.6555L19.2169 15.0311L18.8563 15.1066C18.8563 15.1066 19.0646 14.6933 19.0937 14.6555ZM19.4722 14.6644L20.003 14.8244L20.1262 15.0866L19.6626 15.2177L19.4722 14.6644ZM24.3209 14.8333L24.4732 14.9933L24.0275 15.34L23.7521 15.0022L24.3209 14.8333ZM25.3534 14.8911L25.5325 15.2488L25.172 15.3711L25.1428 15.2022L25.3534 14.8911ZM20.4464 14.9466L20.9772 15.06L21.1295 15.2844L20.6659 15.4622L20.4464 14.9466ZM23.3265 15.04L23.4676 15.2466L22.9368 15.5L22.7107 15.1155L23.3265 15.04ZM21.4408 15.0977L22.303 15.1355L22.3792 15.3133L21.7073 15.5577L21.4408 15.0977ZM24.5673 15.1822L24.8427 15.5488L24.256 15.7L24.1417 15.5022L24.5673 15.1822ZM19.302 15.1911L19.3782 15.4911L18.9235 15.3133L19.302 15.1911ZM20.2001 15.2755L20.4464 15.7933L19.8305 15.6422L19.7634 15.4155L20.2001 15.2755ZM23.5818 15.4066L23.9043 15.7822L23.1944 15.8955L23.0533 15.6688L23.5818 15.4066ZM22.4934 15.4822L22.807 15.9422L21.9738 15.9711L21.8327 15.7266L22.4934 15.4822ZM21.2437 15.4822L21.5461 15.9511L20.8272 15.8466L20.751 15.6488L21.2437 15.4822Z" fill="black"/>
</g>
<rect x="0.800391" y="0.15" width="42.7" height="23.7" stroke="#EFEFF8" stroke-width="0.3"/>
<defs>
<clipPath id="clip0_684_45455">
<rect x="0.650391" width="43" height="24" fill="white"/>
</clipPath>
</defs>
</svg>
