<svg width="44" height="24" viewBox="0 0 44 24" fill="none" xmlns="http://www.w3.org/2000/svg">
<g clip-path="url(#clip0_684_45475)">
<path d="M46.0176 0H-2.35742V24H46.0176V0Z" fill="#239E46"/>
<path d="M46.0176 0H-2.35742V18H46.0176V0Z" fill="black"/>
<path d="M46.0176 0H-2.35742V6H46.0176V0Z" fill="#E70013"/>
<path d="M21.8301 15C23.4999 15 24.8535 13.6569 24.8535 12C24.8535 10.3431 23.4999 9 21.8301 9C20.1603 9 18.8066 10.3431 18.8066 12C18.8066 13.6569 20.1603 15 21.8301 15Z" fill="white"/>
<path d="M22.4392 14.6043C23.8889 14.6043 25.064 13.4382 25.064 11.9998C25.064 10.5614 23.8889 9.39539 22.4392 9.39539C20.9896 9.39539 19.8145 10.5614 19.8145 11.9998C19.8145 13.4382 20.9896 14.6043 22.4392 14.6043Z" fill="black"/>
<path d="M23.3008 11.9999L27.3679 10.691L24.8528 14.1199V9.87543L27.3679 13.3065L23.3008 11.9999Z" fill="white"/>
</g>
<rect x="0.480078" y="0.15" width="42.7" height="23.7" stroke="#EFEFF8" stroke-width="0.3"/>
<defs>
<clipPath id="clip0_684_45475">
<rect x="0.330078" width="43" height="24" fill="white"/>
</clipPath>
</defs>
</svg>
