<svg width="44" height="24" viewBox="0 0 44 24" fill="none" xmlns="http://www.w3.org/2000/svg">
<g clip-path="url(#clip0_684_39289)">
<path d="M46.3496 0H-2.02539V24H46.3496V0Z" fill="#CC092F"/>
<path d="M30.2246 0H-2.02539V24H30.2246V0Z" fill="#FFD200"/>
<path d="M14.0996 0H-2.02539V24H14.0996V0Z" fill="#0046AE"/>
<path d="M20.7559 4.88428C20.6708 4.88428 20.5946 4.9065 20.5498 4.93983C20.6192 4.96205 20.6708 5.02428 20.6708 5.10205V5.29983H20.4714C20.393 5.29983 20.3281 5.24872 20.3079 5.17983C20.2721 5.22205 20.252 5.29983 20.252 5.38428C20.252 5.46872 20.2743 5.54427 20.3079 5.58872C20.3303 5.51983 20.393 5.46872 20.4714 5.46872H20.6708V6.41983C20.6708 6.49538 20.6215 6.55538 20.5588 6.57983C20.6528 6.59316 20.7357 6.7176 20.7581 6.78871C20.7805 6.71983 20.8634 6.59094 20.9574 6.57983C20.8902 6.5576 20.841 6.49538 20.841 6.41983V5.46872H21.0403C21.1187 5.46872 21.1836 5.51983 21.2038 5.58872C21.2396 5.5465 21.2598 5.46872 21.2598 5.38428C21.2598 5.29983 21.2374 5.22428 21.2038 5.17983C21.1814 5.24872 21.1187 5.29983 21.0403 5.29983H20.841V5.10205C20.841 5.02428 20.8925 4.95983 20.9619 4.93983C20.9171 4.90872 20.8432 4.88428 20.7559 4.88428Z" fill="black"/>
<path d="M20.7549 4.92889C20.7101 4.92889 20.6698 4.93778 20.6362 4.94667C20.681 4.98445 20.7123 5.04 20.7123 5.10445V5.30223C20.7123 5.30445 20.7123 5.30667 20.7101 5.31111V5.34223H20.6788C20.6765 5.34223 20.6743 5.34445 20.6698 5.34445H20.4705C20.4055 5.34445 20.3518 5.31556 20.3115 5.27334C20.3003 5.30889 20.2891 5.34445 20.2891 5.39111C20.2891 5.43778 20.298 5.47556 20.307 5.50889C20.3451 5.46445 20.401 5.43334 20.466 5.43334H20.7079C20.7079 5.43778 20.7056 5.44223 20.7056 5.44667V5.46889C20.7056 5.47111 20.7079 5.47334 20.7079 5.47778V6.42889C20.7079 6.49111 20.6765 6.53778 20.6317 6.57778C20.6608 6.59555 20.6877 6.62 20.7101 6.64666C20.728 6.67111 20.737 6.69555 20.7504 6.71778C20.7639 6.69333 20.7728 6.66889 20.7907 6.64666C20.8131 6.62 20.84 6.59778 20.8691 6.58C20.8266 6.54222 20.793 6.49111 20.793 6.43111V5.44H20.8243C20.8266 5.44 20.8288 5.43778 20.8333 5.43778H21.0326C21.0976 5.43778 21.1513 5.46667 21.1916 5.50889C21.2028 5.47334 21.214 5.43778 21.214 5.39111C21.214 5.34445 21.2051 5.30667 21.1961 5.27334C21.158 5.31778 21.102 5.34889 21.0371 5.34889H20.84C20.8378 5.34889 20.8355 5.34889 20.831 5.34667H20.7997V5.31111C20.7997 5.30889 20.7974 5.30667 20.7974 5.30223V5.10445C20.7974 5.04 20.8266 4.98667 20.8691 4.94667C20.84 4.93556 20.8019 4.92889 20.7549 4.92889Z" fill="#F5D402"/>
<path d="M23.2523 8.37376C23.1314 8.28931 23.0283 8.18931 22.9589 8.0782C22.7865 7.80709 22.7148 7.46931 22.7148 7.13153C22.7148 6.98709 22.876 6.82487 22.876 6.70931C22.876 6.53375 22.8604 6.42931 22.8604 6.42931C22.9164 6.4382 23.0194 6.5382 23.0194 6.5382C23.0194 6.5382 23.0171 6.24709 22.9231 6.19598C22.9231 6.19598 22.9611 6.1582 23.0978 6.15375C23.0597 6.0582 22.8716 5.94042 22.8716 5.94042C22.8828 5.92487 22.8984 5.90931 22.9208 5.8982C22.9701 5.87153 23.0328 5.85598 23.0843 5.84487C23.0306 5.83375 22.9656 5.81598 22.8984 5.79375C22.7417 5.74264 22.558 5.66931 22.3856 5.58487C22.072 5.43598 21.8302 5.42487 21.698 5.42487C21.6017 5.42487 21.4606 5.42709 21.3778 5.48264C21.3016 5.53375 21.3083 5.5982 21.2815 5.62042C21.2187 5.67375 21.1112 5.67153 21.062 5.67153C20.7283 5.67153 20.7148 6.02709 20.7148 6.02709C20.7148 6.02709 20.7999 5.8982 20.9522 5.8982C21.2053 5.8982 21.3934 6.03375 21.3934 6.08487C21.3934 6.10709 21.3666 6.10931 21.3666 6.10931C21.2031 6.10931 20.9545 6.01598 20.8246 6.01153V6.07598C21.118 6.1782 21.4158 6.32042 21.4158 6.95375C21.4158 7.35153 21.3666 7.7582 21.165 8.0782C21.0956 8.18931 20.9926 8.28931 20.8694 8.37376L22.0631 8.58709L23.2523 8.37376Z" fill="black"/>
<path d="M22.0585 8.10672L20.8648 8.37338C20.8111 8.35783 20.5558 8.27783 20.3766 8.17783C20.0631 8.0045 19.8974 7.83116 19.5256 7.81338V7.53116C19.5256 7.38005 19.5793 7.24227 19.5793 7.10005C19.4203 7.05783 18.9836 6.52672 18.5805 6.28894C17.987 6.67116 17.5234 7.30005 17.5234 7.58672C17.5234 7.58672 17.5413 13.7867 17.5234 15.9467C17.5234 16.0712 17.4473 16.2489 17.4473 16.2489C17.6645 16.1578 18.0631 15.6178 18.146 15.4112V15.5089C18.473 15.3601 18.7126 14.9712 18.8201 14.7712C18.8224 14.8001 18.8291 14.8734 18.8291 14.8734C19.1225 14.6156 19.4965 13.1112 19.4965 13.1112L20.1168 13.7156C20.1168 13.7156 19.8906 14.1689 19.8055 14.2489C19.8055 14.2489 19.8638 14.2578 19.9309 14.2578C19.8906 14.3156 19.5793 14.7623 19.4786 14.9289C19.3867 15.0867 19.3218 15.0178 19.1807 15.0178C19.0642 15.0178 18.8 15.2023 18.7552 15.2756C18.7104 15.3534 18.6745 15.4489 18.6745 15.5289C18.6745 15.6134 18.7664 15.7334 18.7664 15.7334C18.7776 15.6912 18.7932 15.6778 18.7932 15.6778C18.7932 15.6778 19.0351 15.9756 19.071 16.0156C19.0978 16.0445 19.221 16.0667 19.268 16.0267C19.3778 15.9289 19.483 15.8578 19.5793 15.7178C19.6308 15.6423 19.6331 15.5601 19.6891 15.4801C19.8817 15.2156 20.2646 14.7112 20.352 14.5978C20.3565 14.6289 20.3632 14.6556 20.3677 14.6889C20.4662 14.4889 20.9455 14.1112 20.9455 14.1112L21.4449 14.3378C21.4449 14.3378 20.5132 16.4623 19.6846 16.7912C19.6846 16.7912 20.0452 16.9423 20.4864 17.1689C20.5513 17.2001 20.6185 17.2378 20.6857 17.2734C20.7417 17.2067 20.8021 17.1312 20.8581 17.0578C21.1224 16.7067 21.3822 16.3001 21.3822 16.3001C21.4001 16.4067 21.2612 16.7312 21.0239 17.1356C20.9791 17.2156 20.9298 17.2978 20.876 17.3801C20.9343 17.4156 20.9947 17.4489 21.0552 17.4845C21.4942 17.7467 21.904 18.0467 22.0585 18.3223L22.166 18.0556L22.0585 17.7889V8.45561L22.1123 8.32227L22.0585 8.10672Z" fill="black"/>
<path d="M22.059 17.7912C21.9067 17.6267 21.5797 17.4201 21.2169 17.2334C21.6558 16.4512 21.8731 15.2156 21.7701 14.969C21.7701 14.969 21.5909 15.609 21.3692 15.9734C21.1654 16.3112 20.9145 16.6934 20.6704 16.9734C20.4711 16.889 20.2785 16.8179 20.1105 16.769C20.8384 16.2134 21.5797 14.3779 21.5797 14.3779L20.8182 14.0268C20.8182 14.0268 20.5316 14.3601 20.4375 14.4223C20.4375 14.4223 20.3972 14.2579 20.3726 14.1979C20.3726 14.1979 20.2628 14.2801 20.2023 14.2823C20.2023 14.2823 20.1844 14.1712 20.171 14.0956C20.0948 14.1468 19.9694 14.1356 19.9694 14.1356C20.0792 14.0823 20.2113 13.7645 20.2113 13.7645L19.4767 12.7956C19.4767 12.7956 19.2192 14.0245 18.9258 14.2779V8.98454L19.1587 9.19787L19.5103 8.87343V8.62454L19.199 8.91565V8.16676C19.2483 8.09787 19.2774 8.04454 19.302 8.00232C19.3535 8.09121 19.517 8.35787 19.7074 8.52232C19.7388 8.39343 19.947 8.27343 19.947 8.27343C19.947 8.27343 20.0232 8.47343 20.1352 8.52454C20.1755 8.45565 20.4151 8.3001 20.4151 8.3001C20.4151 8.3001 20.2113 8.33121 20.1284 8.40676C20.059 8.39121 20.0389 8.11121 20.0389 8.11121C20.0389 8.11121 19.7388 8.25787 19.685 8.36232C19.629 8.34676 19.5372 8.12232 19.5014 8.03121C19.5551 8.02676 19.6268 8.01787 19.7253 8.01787C19.8104 8.01787 19.9224 8.05787 20.0366 8.11121C20.162 8.16899 20.2942 8.24454 20.4129 8.29787C20.5629 8.36454 20.7936 8.3801 20.8585 8.38232C20.7824 8.43565 20.6973 8.48454 20.6055 8.52898C20.6055 8.52898 20.966 8.52676 21.2191 8.4001C21.3109 8.34232 21.4028 8.28454 21.4834 8.21565C21.4476 8.31121 21.3938 8.42454 21.3087 8.52232C21.6805 8.49121 21.8641 8.2801 21.9179 8.21121C21.9425 8.27565 21.9873 8.37565 22.0545 8.46454H22.1889V17.5312L22.059 17.7912Z" fill="#B07F55"/>
<path d="M19.3178 7.12918L19.3268 7.29807V7.79586C19.1924 7.75141 19.0222 7.52919 18.9393 7.41363V7.34474C18.9393 7.28029 18.9774 7.23363 19.0065 7.20918L18.9259 7.18029C18.8945 7.21585 18.8609 7.26918 18.8609 7.33585V7.37585L18.6191 7.63363L18.3794 7.27585V7.18696C18.3794 7.12918 18.4242 7.06251 18.4623 7.01807L18.3817 6.98918C18.3414 7.04029 18.2988 7.1114 18.2988 7.17585V7.24696C18.2428 7.30474 18.0256 7.52696 18.0256 7.52696C18.0256 7.52696 17.9158 7.29585 17.8867 7.2314C18.0524 7.00251 18.3257 6.74695 18.5765 6.56251C18.5832 6.56029 19.1342 7.06474 19.3178 7.12918Z" fill="#B07F55"/>
<path d="M17.9172 7.61088V8.022L17.7246 8.19978V7.58866C17.7246 7.53088 17.7492 7.45977 17.7918 7.38422L17.9172 7.61088Z" fill="#B07F55"/>
<path d="M18.5183 7.77119V8.02452L18.2988 8.22897V7.43341L18.5183 7.77119Z" fill="#B07F55"/>
<path d="M18.2214 8.22855L18.002 8.02411V7.72634L18.2214 7.49524V8.22855Z" fill="#B07F55"/>
<path d="M19.2299 7.92039C19.1784 7.9915 19.044 8.16928 18.8984 8.24483V7.54706C18.932 7.60261 19.0843 7.84928 19.2299 7.92039Z" fill="#B07F55"/>
<path d="M18.821 7.58435V8.2288L18.6016 8.02435V7.79768L18.821 7.58435Z" fill="#B07F55"/>
<path d="M17.9172 8.26947V8.91169L17.7246 8.73392V8.44947L17.9172 8.26947Z" fill="#B07F55"/>
<path d="M18.2214 8.47776V8.70887L18.002 8.91331V8.27332L18.2214 8.47776Z" fill="#B07F55"/>
<path d="M18.5183 8.27118V8.91118L18.2988 8.70674V8.48007L18.5183 8.27118Z" fill="#B07F55"/>
<path d="M18.821 8.47836V8.70503L18.6016 8.90947V8.26947L18.821 8.47836Z" fill="#B07F55"/>
<path d="M19.1199 8.91491L18.9004 8.71046V8.49713C18.9765 8.45268 19.0527 8.36601 19.1199 8.2749V8.91491Z" fill="#B07F55"/>
<path d="M18.5594 9.19828L18.7923 8.98273V14.2783C18.7923 14.2783 18.808 14.5427 18.8192 14.7138C18.7139 14.8183 18.3242 15.2094 18.3242 15.2094V8.98273L18.5594 9.19828Z" fill="#B07F55"/>
<path d="M18.1943 15.0116C18.1943 15.1827 17.8808 15.5805 17.7285 15.6694V8.98495L17.9592 9.19828L18.1921 8.98273V15.0116H18.1943Z" fill="#B07F55"/>
<path d="M20.1331 14.4386L20.3033 14.3208C20.3033 14.3208 20.3145 14.3763 20.3302 14.4541C20.2585 14.5519 19.8375 15.1208 19.6292 15.3986C19.5777 15.4675 19.5352 15.643 19.5352 15.643C19.5352 15.643 19.459 15.6075 19.459 15.5452C19.459 15.4808 19.468 15.4075 19.468 15.4075C19.468 15.4075 19.412 15.4719 19.3157 15.4719C19.3157 15.3941 19.4657 15.3097 19.4725 15.2008C19.356 15.2852 19.2575 15.2408 19.1231 15.283C18.9775 15.3275 18.9372 15.3875 18.8946 15.3852C18.8678 15.383 18.8431 15.3408 18.8543 15.3097C18.87 15.2608 19.0514 15.1319 19.1768 15.1075C19.2059 15.103 19.4433 15.1586 19.4904 15.0852C19.6875 14.783 20.0032 14.2986 20.0368 14.2497C20.0592 14.2452 20.0749 14.2386 20.0906 14.2319C20.0883 14.2297 20.0839 14.3852 20.1331 14.4386Z" fill="#D10429"/>
<path d="M19.0359 15.3739C19.0471 15.3851 19.0449 15.4006 19.0337 15.4095L18.9553 15.4762C18.9441 15.4851 18.9284 15.4851 18.9195 15.4717C18.9083 15.4606 18.9105 15.4451 18.9217 15.4362L19.0001 15.3695C19.0046 15.3651 19.0113 15.3651 19.018 15.3651C19.027 15.3628 19.0315 15.3651 19.0359 15.3739Z" fill="#D10429"/>
<path d="M19.1542 15.4537C19.1788 15.4804 19.1766 15.5181 19.1519 15.5381L18.9638 15.7004C18.9392 15.7226 18.8989 15.7159 18.8787 15.6892C18.8541 15.6626 18.8563 15.6248 18.881 15.6048L19.0691 15.4448C19.078 15.4359 19.0915 15.4315 19.1004 15.4315C19.1206 15.427 19.1385 15.4381 19.1542 15.4537Z" fill="#D10429"/>
<path d="M19.2627 15.5776C19.2873 15.6043 19.2851 15.6421 19.2605 15.6621L19.0723 15.8243C19.0477 15.8465 19.0096 15.8399 18.9872 15.8132C18.9648 15.7865 18.9648 15.7487 18.9895 15.7287L19.1776 15.5688C19.1866 15.5599 19.2 15.5554 19.209 15.5554C19.2246 15.5554 19.247 15.5621 19.2627 15.5776Z" fill="#D10429"/>
<path d="M19.327 15.6786C19.3449 15.6764 19.3673 15.6831 19.3807 15.7009C19.4054 15.7275 19.4031 15.7653 19.3785 15.7853L19.1904 15.9453C19.1657 15.9675 19.1276 15.9609 19.1052 15.9342C19.0829 15.9075 19.0806 15.8697 19.1075 15.8497L19.2956 15.6875C19.3023 15.6831 19.3135 15.6809 19.327 15.6786Z" fill="#D10429"/>
<path d="M22.0587 8.10672L23.2524 8.37338C23.3061 8.35783 23.5614 8.27783 23.7406 8.17783C24.0541 8.0045 24.2199 7.83116 24.5916 7.81339V7.53116C24.5916 7.38005 24.5379 7.24227 24.5379 7.10005C24.6969 7.05783 25.1336 6.52672 25.5367 6.28894C26.1302 6.67116 26.5938 7.30005 26.5938 7.58672C26.5938 7.58672 26.5759 13.7867 26.5938 15.9467C26.5938 16.0712 26.67 16.2489 26.67 16.2489C26.4527 16.1578 26.0541 15.6178 25.9712 15.4112V15.5089C25.6442 15.3601 25.4046 14.9712 25.2971 14.7712C25.2949 14.8001 25.2882 14.8734 25.2882 14.8734C24.9948 14.6178 24.6208 13.1134 24.6208 13.1134L24.0004 13.7178C24.0004 13.7178 24.2266 14.1712 24.3117 14.2512C24.3117 14.2512 24.2535 14.2601 24.1863 14.2601C24.2266 14.3178 24.5379 14.7645 24.6387 14.9312C24.7305 15.0889 24.7954 15.0201 24.9365 15.0201C25.053 15.0201 25.3173 15.2045 25.3621 15.2778C25.4069 15.3556 25.4427 15.4512 25.4427 15.5312C25.4427 15.6156 25.3509 15.7356 25.3509 15.7356C25.3397 15.6934 25.324 15.6801 25.324 15.6801C25.324 15.6801 25.0821 15.9778 25.0463 16.0178C25.0194 16.0467 24.8962 16.0689 24.8492 16.0289C24.7395 15.9312 24.6342 15.8601 24.5379 15.7201C24.4864 15.6445 24.4841 15.5623 24.4282 15.4823C24.2355 15.2178 23.8526 14.7134 23.7652 14.6001C23.7608 14.6312 23.754 14.6578 23.7496 14.6912C23.651 14.4912 23.1717 14.1134 23.1717 14.1134L22.6723 14.3401C22.6723 14.3401 23.604 16.4645 24.4326 16.7934C24.4326 16.7934 24.0721 16.9445 23.6309 17.1712C23.5659 17.2023 23.4987 17.2401 23.4315 17.2756C23.3755 17.2089 23.3151 17.1334 23.2591 17.0601C22.9948 16.7089 22.735 16.3023 22.735 16.3023C22.7171 16.4089 22.856 16.7334 23.0934 17.1378C23.1382 17.2178 23.1874 17.3001 23.2412 17.3823C23.1829 17.4178 23.1225 17.4512 23.062 17.4867C22.623 17.7489 22.2132 18.0489 22.0587 18.3245L21.9512 18.0578L22.0587 17.7912V8.45783L22.0049 8.3245L22.0587 8.10672Z" fill="black"/>
<path d="M22.059 17.7912C22.2113 17.6267 22.5383 17.4201 22.9011 17.2334C22.4621 16.4512 22.2449 15.2156 22.3479 14.969C22.3479 14.969 22.5271 15.609 22.7488 15.9734C22.9526 16.3112 23.2035 16.6934 23.4476 16.9734C23.6469 16.889 23.8395 16.8179 24.0075 16.769C23.2796 16.2134 22.5383 14.3779 22.5383 14.3779L23.3065 14.0223C23.3065 14.0223 23.5931 14.3556 23.6872 14.4179C23.6872 14.4179 23.7275 14.2534 23.7522 14.1934C23.7522 14.1934 23.8619 14.2756 23.9224 14.2779C23.9224 14.2779 23.9403 14.1668 23.9537 14.0912C24.0299 14.1423 24.1553 14.1312 24.1553 14.1312C24.0455 14.0779 23.9134 13.7601 23.9134 13.7601L24.648 12.7912C24.648 12.7912 24.9055 14.0201 25.1989 14.2734V8.98454L24.966 9.19787L24.6122 8.87343V8.62454L24.9235 8.91565V8.16676C24.8742 8.09787 24.8451 8.04454 24.8204 8.00232C24.7689 8.09121 24.6054 8.35787 24.4151 8.52232C24.3837 8.39343 24.1754 8.27343 24.1754 8.27343C24.1754 8.27343 24.0993 8.47343 23.9873 8.52454C23.947 8.45565 23.7074 8.3001 23.7074 8.3001C23.7074 8.3001 23.9112 8.33121 23.994 8.40676C24.0635 8.39121 24.0836 8.11121 24.0836 8.11121C24.0836 8.11121 24.3837 8.25787 24.4375 8.36232C24.4935 8.34676 24.5853 8.12232 24.6211 8.03121C24.5674 8.02676 24.4957 8.01787 24.3972 8.01787C24.3121 8.01787 24.2001 8.05787 24.0859 8.11121C23.9604 8.16899 23.8283 8.24454 23.7096 8.29787C23.5595 8.36454 23.3289 8.3801 23.2639 8.38232C23.3401 8.43565 23.4252 8.48454 23.517 8.52898C23.517 8.52898 23.1564 8.52676 22.9033 8.4001C22.8115 8.34232 22.7197 8.28454 22.6391 8.21565C22.6749 8.31121 22.7287 8.42454 22.8138 8.52232C22.442 8.49121 22.2583 8.2801 22.2046 8.21121C22.18 8.27565 22.1352 8.37565 22.068 8.46454H21.9336V17.5312L22.059 17.7912Z" fill="#B07F55"/>
<path d="M24.8 7.12918L24.791 7.29807V7.79586C24.9254 7.75141 25.0956 7.52919 25.1785 7.41363V7.34474C25.1785 7.28029 25.1404 7.23363 25.1113 7.20918L25.1919 7.18029C25.2233 7.21585 25.2568 7.26918 25.2568 7.33585V7.37585L25.4987 7.63363L25.7384 7.27585V7.18696C25.7384 7.12918 25.6936 7.06251 25.6555 7.01807L25.7361 6.98918C25.7764 7.04029 25.819 7.1114 25.819 7.17585V7.24696C25.875 7.30474 26.0922 7.52696 26.0922 7.52696C26.0922 7.52696 26.202 7.29585 26.2311 7.2314C26.0653 7.00251 25.7921 6.74695 25.5413 6.56251C25.5368 6.56029 24.9859 7.06474 24.8 7.12918Z" fill="#B07F55"/>
<path d="M26.2031 7.61088V8.022L26.3957 8.19978V7.58866C26.3957 7.53088 26.3711 7.45977 26.3285 7.38422L26.2031 7.61088Z" fill="#B07F55"/>
<path d="M25.6016 7.77119V8.02452L25.821 8.22897V7.43341L25.6016 7.77119Z" fill="#B07F55"/>
<path d="M25.9004 8.22855L26.1199 8.02411V7.72634L25.9004 7.49524V8.22855Z" fill="#B07F55"/>
<path d="M24.8906 7.92039C24.9421 7.9915 25.0765 8.16928 25.2221 8.24483V7.54706C25.1885 7.60261 25.0362 7.84928 24.8906 7.92039Z" fill="#B07F55"/>
<path d="M25.2969 7.58435V8.2288L25.5164 8.02435V7.79768L25.2969 7.58435Z" fill="#B07F55"/>
<path d="M26.2031 8.26947V8.91169L26.3957 8.73392V8.44947L26.2031 8.26947Z" fill="#B07F55"/>
<path d="M25.9004 8.47776V8.70887L26.1199 8.91331V8.27332L25.9004 8.47776Z" fill="#B07F55"/>
<path d="M25.6016 8.27118V8.91118L25.821 8.70674V8.48007L25.6016 8.27118Z" fill="#B07F55"/>
<path d="M25.3027 8.47836V8.70503L25.5222 8.90947V8.26947L25.3027 8.47836Z" fill="#B07F55"/>
<path d="M25 8.91491L25.2195 8.71046V8.49713C25.1433 8.45268 25.0672 8.36601 25 8.2749V8.91491Z" fill="#B07F55"/>
<path d="M25.5625 9.19828L25.3296 8.98273V14.2783C25.3296 14.2783 25.3139 14.5427 25.3027 14.7138C25.408 14.8183 25.7977 15.2094 25.7977 15.2094V8.98273L25.5625 9.19828Z" fill="#B07F55"/>
<path d="M25.9297 15.0116C25.9297 15.1827 26.2432 15.5805 26.3955 15.6694V8.98495L26.1648 9.19828L25.9319 8.98273L25.9297 15.0116Z" fill="#B07F55"/>
<path d="M23.9881 14.4386L23.8179 14.3208C23.8179 14.3208 23.8067 14.3763 23.791 14.4541C23.8627 14.5519 24.2837 15.1208 24.492 15.3986C24.5435 15.4675 24.5861 15.643 24.5861 15.643C24.5861 15.643 24.6622 15.6075 24.6622 15.5452C24.6622 15.4808 24.6533 15.4075 24.6533 15.4075C24.6533 15.4075 24.7092 15.4719 24.8055 15.4719C24.8055 15.3941 24.6555 15.3097 24.6488 15.2008C24.7652 15.2852 24.8638 15.2408 24.9982 15.283C25.1437 15.3275 25.184 15.3875 25.2266 15.3852C25.2535 15.383 25.2781 15.3408 25.2669 15.3097C25.2512 15.2608 25.0698 15.1319 24.9444 15.1075C24.9153 15.103 24.6779 15.1586 24.6309 15.0852C24.4338 14.783 24.118 14.2986 24.0844 14.2497C24.062 14.2452 24.0463 14.2386 24.0307 14.2319C24.0329 14.2297 24.0351 14.3852 23.9881 14.4386Z" fill="#D10429"/>
<path d="M25.0835 15.3739C25.0723 15.3851 25.0746 15.4006 25.0858 15.4095L25.1642 15.4762C25.1754 15.4851 25.191 15.4851 25.2 15.4717C25.2112 15.4606 25.2089 15.4451 25.1977 15.4362L25.1194 15.3695C25.1149 15.3651 25.1082 15.3651 25.1014 15.3651C25.0947 15.3628 25.0903 15.3651 25.0835 15.3739Z" fill="#D10429"/>
<path d="M24.9666 15.4537C24.942 15.4804 24.9442 15.5181 24.9689 15.5381L25.157 15.7004C25.1816 15.7226 25.2219 15.7159 25.2421 15.6892C25.2667 15.6626 25.2645 15.6248 25.2399 15.6048L25.0517 15.4448C25.0428 15.4359 25.0293 15.4315 25.0204 15.4315C25.0002 15.427 24.9823 15.4381 24.9666 15.4537Z" fill="#D10429"/>
<path d="M24.8592 15.5776C24.8346 15.6043 24.8368 15.6421 24.8614 15.6621L25.0496 15.8243C25.0742 15.8465 25.1123 15.8399 25.1347 15.8132C25.1571 15.7865 25.1571 15.7487 25.1324 15.7287L24.9443 15.5688C24.9353 15.5599 24.9219 15.5554 24.9129 15.5554C24.895 15.5554 24.8749 15.5621 24.8592 15.5776Z" fill="#D10429"/>
<path d="M24.7938 15.6786C24.7759 15.6764 24.7535 15.6831 24.74 15.7009C24.7154 15.7275 24.7177 15.7653 24.7423 15.7853L24.9304 15.9453C24.955 15.9675 24.9931 15.9609 25.0155 15.9342C25.0401 15.9075 25.0401 15.8697 25.0132 15.8497L24.8251 15.6875C24.8184 15.6831 24.8072 15.6809 24.7938 15.6786Z" fill="#D10429"/>
<path d="M21.7841 5.50857C22.0931 5.50857 22.3081 5.64635 22.6015 5.77524C22.6777 5.81079 22.7493 5.83746 22.812 5.85746C22.7717 5.89302 22.7426 5.92635 22.7336 5.95524C22.7336 5.95524 22.8658 5.97968 22.924 6.08857C22.924 6.08857 22.8008 6.1019 22.7784 6.17302C22.8479 6.17746 22.9173 6.26635 22.9173 6.34857L22.7404 6.29524C22.7404 6.29524 22.7829 6.49302 22.7829 6.70635C22.7829 6.81524 22.6239 6.94413 22.6239 7.12857C22.6239 7.70635 22.7717 7.9308 22.877 8.1108C22.9173 8.17969 22.9531 8.26191 23.0203 8.32191C22.7202 8.16191 22.494 7.96413 22.494 7.77747V7.07524H22.4156V7.77747C22.4156 7.9108 22.447 7.97524 22.447 7.97524C22.4963 8.12413 22.5903 8.35302 22.6485 8.44413C22.3708 8.29525 22.2297 8.10858 22.2297 8.03969V7.07746H22.1514V8.05302L22.167 8.11969C22.1312 8.1708 22.0886 8.22858 22.0595 8.2508C22.0304 8.22858 21.9879 8.1708 21.9543 8.11969L21.9699 8.05302V7.07746H21.8938V8.03969C21.8938 8.10858 21.7549 8.29525 21.475 8.44413C21.5332 8.3508 21.6318 8.12413 21.6766 7.97524C21.6766 7.97524 21.7079 7.91302 21.7079 7.77747V7.07524H21.6295V7.77747C21.6295 7.96191 21.4056 8.16191 21.1055 8.32191C21.1727 8.25969 21.2085 8.17969 21.2488 8.1108C21.3653 7.91524 21.5041 7.66635 21.5041 6.95524C21.5041 6.68857 21.4638 6.50635 21.3966 6.38191C21.3742 6.33968 21.3473 6.23079 21.5064 6.23079C21.5892 6.23079 21.7796 6.37746 21.7796 6.37746C21.7796 6.37746 21.7706 6.25968 21.6743 6.19302C21.6586 6.18191 21.6318 6.14857 21.6318 6.11524C21.6318 6.09079 21.6743 6.03302 21.7079 6.01746C21.7303 6.00635 21.3809 5.94857 21.3809 5.79079C21.3809 5.75968 21.4033 5.73746 21.475 5.73746C21.5691 5.73746 21.7258 5.84857 21.8624 5.84857C21.9655 5.84857 22.0058 5.82413 22.1088 5.82413C22.2342 5.82413 22.5007 6.06413 22.5926 6.05524C22.4895 5.99079 22.326 5.75079 22.0797 5.75079C21.9946 5.75079 21.9162 5.76857 21.8356 5.76857C21.7326 5.76857 21.6318 5.67524 21.5176 5.67524C21.4414 5.67524 21.3585 5.67968 21.3473 5.65968C21.3249 5.62413 21.3451 5.60635 21.3653 5.57968C21.4033 5.52635 21.5108 5.51301 21.6161 5.50857C21.6474 5.50857 21.6788 5.50635 21.7079 5.50635C21.7348 5.50857 21.7617 5.50857 21.7841 5.50857Z" fill="#B07F55"/>
<path d="M20.7832 5.88466C20.7832 5.88466 20.8482 5.76244 21.0116 5.76244C21.0811 5.76244 21.3073 5.758 21.3073 5.758C21.3364 5.83577 21.473 5.96688 21.473 6.10244C21.473 6.10244 21.3341 5.85133 20.9445 5.85133C20.8482 5.85133 20.7832 5.88466 20.7832 5.88466Z" fill="#CC092F"/>
<path d="M21.4191 6.14894C21.4191 6.14894 21.3362 6.23783 21.316 6.28227C21.2332 6.25116 21.0898 6.10449 21.0898 6.10449C21.0898 6.10449 21.213 6.1756 21.4191 6.14894Z" fill="#D10429"/>
<path d="M21.2864 5.92004C21.2864 5.92004 21.1895 5.89115 21.1895 5.85782C21.1895 5.81781 21.2345 5.81781 21.2661 5.84893C21.2864 5.86893 21.2864 5.92004 21.2864 5.92004Z" fill="black"/>
<path d="M21.7011 6.02974C21.7765 6.02974 21.8377 5.98198 21.8377 5.92307C21.8377 5.86416 21.7765 5.81641 21.7011 5.81641C21.6256 5.81641 21.5645 5.86416 21.5645 5.92307C21.5645 5.98198 21.6256 6.02974 21.7011 6.02974Z" fill="black"/>
<path d="M21.6998 6.01765C21.753 6.01765 21.7961 5.97487 21.7961 5.92209C21.7961 5.86932 21.753 5.82654 21.6998 5.82654C21.6466 5.82654 21.6035 5.86932 21.6035 5.92209C21.6035 5.97487 21.6466 6.01765 21.6998 6.01765Z" fill="#F5D402"/>
<path d="M21.7007 5.96263C21.7231 5.96263 21.7413 5.94472 21.7413 5.92263C21.7413 5.90054 21.7231 5.88263 21.7007 5.88263C21.6783 5.88263 21.6602 5.90054 21.6602 5.92263C21.6602 5.94472 21.6783 5.96263 21.7007 5.96263Z" fill="black"/>
<path d="M19.5118 15.7859L19.9463 16.0215L19.8388 16.5015L19.4043 16.2659L19.5118 15.7859Z" fill="black"/>
<path d="M17.4829 11.164L17.3262 11.2351L19.0977 15.0885H19.2858L17.4829 11.164ZM19.5725 15.7085L19.4426 15.8396L19.5232 16.0151L19.68 15.944L19.5725 15.7085Z" fill="black"/>
<path d="M18.0352 14.2029C18.0352 14.2029 18.1852 14.5096 18.2994 14.5496C18.2412 14.5341 18.0486 14.6029 18.0486 14.6029C18.0486 14.6029 18.3845 14.9007 18.669 14.9207C18.9108 14.9363 19.0295 14.8163 19.0295 14.8163L18.9803 14.5629C18.9803 14.5629 18.8324 14.3874 18.5951 14.3052C18.3577 14.2252 18.0352 14.2029 18.0352 14.2029Z" fill="black"/>
<path d="M19.161 13.6523C19.161 13.6523 18.9549 13.8278 18.8967 14.0301C18.8407 14.2323 18.9348 14.4612 18.9348 14.4612L19.1072 14.7812C19.1072 14.7812 19.3469 14.6523 19.4476 14.4634C19.5507 14.2745 19.5126 14.0189 19.5126 14.0189C19.5126 14.0189 19.3222 14.0878 19.2976 14.1212C19.3401 13.9145 19.161 13.6523 19.161 13.6523Z" fill="black"/>
<path d="M18.4967 13.5724C18.4967 13.5724 18.2638 13.6502 18.0354 13.6369C17.8181 13.6235 17.6367 13.4413 17.6367 13.4413C17.6367 13.4413 17.8159 13.3213 17.9055 13.3369C17.8092 13.3013 17.6658 13.0591 17.6658 13.0591C17.6658 13.0591 17.8674 12.9969 18.0443 13.0635C18.2212 13.1302 18.378 13.3258 18.378 13.3258L18.4967 13.5724Z" fill="black"/>
<path d="M18.5765 12.4375C18.5765 12.4375 18.6952 12.6775 18.666 12.7619C18.7041 12.7064 18.8407 12.6197 18.8407 12.6197C18.8407 12.6197 18.9236 13.0086 18.843 13.2508C18.7623 13.4908 18.5205 13.5842 18.5205 13.5842L18.2539 13.0686C18.2539 13.0686 18.2136 12.8775 18.2965 12.7264C18.3838 12.5731 18.5765 12.4375 18.5765 12.4375Z" fill="black"/>
<path d="M17.0537 11.8003C17.0537 11.8003 17.3068 11.7736 17.5397 11.8692C17.7323 11.9492 17.7928 12.0936 17.7928 12.0936L17.8891 12.347C17.8891 12.347 17.6114 12.4492 17.3941 12.3714C17.1769 12.2936 17.0156 12.0336 17.0156 12.0336C17.0156 12.0336 17.1679 11.9781 17.2261 11.9981C17.1388 11.9603 17.0537 11.8003 17.0537 11.8003Z" fill="black"/>
<path d="M17.8486 11.3281C17.8486 11.3281 17.9583 11.4703 17.965 11.6325C17.9941 11.5481 18.1352 11.4503 18.1352 11.4503C18.1352 11.4503 18.2785 11.7947 18.2449 12.037C18.2136 12.2792 18.0076 12.4236 18.0076 12.4236L17.7523 11.9414C17.7523 11.9414 17.6694 11.7436 17.694 11.5903C17.7164 11.437 17.8486 11.3281 17.8486 11.3281Z" fill="black"/>
<path d="M16.973 10.4048C16.973 10.4048 16.9282 10.6692 17.0044 10.8181C17.0738 10.9537 17.1208 10.9826 17.1208 10.9826C16.9864 10.8937 16.7871 10.887 16.7871 10.887C16.7871 10.887 16.8588 11.1714 17.029 11.3025C17.1992 11.4337 17.4635 11.4003 17.4635 11.4003C17.4635 11.4003 17.6382 11.1714 17.6247 10.9226C17.6135 10.6737 17.4142 10.4115 17.4142 10.4115C17.4142 10.4115 17.3358 10.5714 17.3291 10.6914C17.2798 10.5737 16.973 10.4048 16.973 10.4048Z" fill="black"/>
<path d="M19.043 14.8079L19.0519 14.9012C19.2109 14.9034 19.2356 14.8879 19.2759 14.9368C19.3028 14.9679 19.3677 14.999 19.4326 14.9679C19.4976 14.939 19.5267 14.8612 19.4976 14.7968C19.4685 14.7323 19.408 14.719 19.3498 14.7301C19.314 14.739 19.2916 14.7656 19.2602 14.7812C19.1953 14.8123 19.043 14.8079 19.043 14.8079Z" fill="black"/>
<path d="M19.0271 14.7359L19.1055 14.7915C19.0226 14.9248 18.998 14.9359 19.0159 14.9959C19.0293 15.0359 19.0204 15.1048 18.9621 15.1448C18.9039 15.1848 18.8233 15.167 18.783 15.107C18.7427 15.0492 18.7651 14.9892 18.8054 14.947C18.83 14.9203 18.8681 14.9159 18.8972 14.8981C18.951 14.8692 19.0271 14.7359 19.0271 14.7359Z" fill="black"/>
<path d="M18.4942 13.6165L18.5031 13.7098C18.6621 13.7121 18.6868 13.6965 18.7271 13.7454C18.754 13.7765 18.8189 13.8076 18.8839 13.7765C18.9488 13.7476 18.9779 13.6698 18.9488 13.6054C18.9197 13.541 18.8592 13.5276 18.801 13.5387C18.7652 13.5476 18.7428 13.5743 18.7114 13.5898C18.6465 13.6232 18.4919 13.6165 18.4942 13.6165Z" fill="black"/>
<path d="M18.523 13.6494L18.5902 13.7161C18.4872 13.8361 18.4603 13.845 18.4715 13.905C18.4805 13.9472 18.4581 14.0138 18.3931 14.0427C18.3282 14.0716 18.2498 14.0427 18.2207 13.9783C18.1916 13.9138 18.2207 13.8605 18.2655 13.8227C18.2946 13.8005 18.3304 13.8005 18.3618 13.7872C18.4267 13.7694 18.523 13.6494 18.523 13.6494Z" fill="black"/>
<path d="M17.9609 12.4976L17.9699 12.5909C18.1289 12.5932 18.1536 12.5776 18.1939 12.6265C18.2207 12.6576 18.2857 12.6887 18.3506 12.6576C18.4156 12.6287 18.4447 12.5509 18.4156 12.4865C18.3865 12.4221 18.326 12.4087 18.2678 12.4198C18.2319 12.4287 18.2095 12.4554 18.1782 12.471C18.1155 12.5043 17.9609 12.4976 17.9609 12.4976Z" fill="black"/>
<path d="M18.0054 12.4805L18.0726 12.5471C17.9696 12.6671 17.9427 12.676 17.9539 12.736C17.9629 12.7782 17.9405 12.8449 17.8755 12.8738C17.8106 12.9027 17.7322 12.8738 17.7031 12.8094C17.674 12.7449 17.7031 12.6916 17.7479 12.6538C17.777 12.6316 17.8128 12.6316 17.8442 12.6182C17.9069 12.6005 18.0054 12.4805 18.0054 12.4805Z" fill="black"/>
<path d="M17.3945 11.3196L17.4035 11.4129C17.5625 11.4151 17.5871 11.3996 17.6274 11.4485C17.6543 11.4796 17.7193 11.5107 17.7842 11.4796C17.8492 11.4507 17.8783 11.3729 17.8492 11.3085C17.82 11.244 17.7596 11.2307 17.7013 11.2418C17.6655 11.2507 17.6431 11.2774 17.6118 11.2929C17.5513 11.324 17.3945 11.3196 17.3945 11.3196Z" fill="black"/>
<path d="M17.4371 11.3025L17.5043 11.3692C17.4012 11.4892 17.3744 11.4981 17.3856 11.5581C17.3945 11.6003 17.3721 11.6669 17.3072 11.6958C17.2422 11.7247 17.1639 11.6958 17.1347 11.6314C17.1056 11.5669 17.1347 11.5136 17.1795 11.4758C17.2086 11.4536 17.2445 11.4536 17.2758 11.4403C17.3408 11.4225 17.4371 11.3025 17.4371 11.3025Z" fill="black"/>
<path d="M19.5725 15.922L19.8457 16.0664L19.7785 16.3642L19.5098 16.2176L19.5725 15.922Z" fill="#F5D402"/>
<path d="M18.3913 13.3361C18.3353 13.3606 18.2524 13.1139 18.1897 12.9806C18.1248 12.8428 17.9994 12.6317 18.033 12.6161C18.0733 12.5984 18.127 12.7095 18.192 12.8517C18.2569 12.9895 18.445 13.3161 18.3913 13.3361Z" fill="#F5D402"/>
<path d="M17.8098 12.0489C17.7538 12.0733 17.6911 11.9133 17.6307 11.7778C17.5657 11.64 17.5075 11.5422 17.5411 11.5267C17.5814 11.5089 17.6396 11.6289 17.6911 11.7422C17.7426 11.8511 17.8636 12.0266 17.8098 12.0489Z" fill="#F5D402"/>
<path d="M19.1537 14.9684C19.1089 14.9795 18.9141 14.5773 18.7595 14.2373C18.6028 13.8951 18.4863 13.6217 18.5221 13.6062C18.5625 13.5884 18.6879 13.9106 18.8446 14.2506C19.0036 14.5884 19.1895 14.9595 19.1537 14.9684Z" fill="#F5D402"/>
<path d="M17.0512 10.5639C17.0512 10.5639 17.0422 10.755 17.1072 10.8661C17.1722 10.975 17.3133 11.0172 17.3133 11.0172C17.3133 11.0172 17.3222 10.8261 17.2573 10.715C17.1923 10.6083 17.0512 10.5639 17.0512 10.5639Z" fill="#097754"/>
<path d="M16.916 11C16.916 11 17.0862 11.0111 17.1825 11.0822C17.2788 11.1578 17.3169 11.3089 17.3169 11.3089C17.3169 11.3089 17.2072 11.32 17.1064 11.2467C17.0101 11.1733 16.916 11 16.916 11Z" fill="#097754"/>
<path d="M17.4424 10.611C17.4424 10.611 17.3864 10.7399 17.3931 10.8754C17.3976 11.011 17.4782 11.1665 17.4782 11.1665C17.4782 11.1665 17.5499 11.0021 17.5454 10.8643C17.5387 10.7287 17.4603 10.651 17.4424 10.611Z" fill="#097754"/>
<path d="M17.1621 11.8479C17.1621 11.8479 17.245 11.9634 17.3726 12.0234C17.498 12.0856 17.6906 12.0879 17.6906 12.0879C17.6906 12.0879 17.5966 11.9656 17.4712 11.9034C17.339 11.8412 17.1621 11.8479 17.1621 11.8479Z" fill="#097754"/>
<path d="M17.2012 12.1157C17.2012 12.1157 17.2639 12.2335 17.3736 12.2846C17.4834 12.3357 17.7118 12.3291 17.7118 12.3291C17.7118 12.3291 17.6267 12.2202 17.5125 12.1691C17.4027 12.1179 17.2012 12.1157 17.2012 12.1157Z" fill="#097754"/>
<path d="M17.8403 11.4843C17.8403 11.4843 17.7731 11.5931 17.7776 11.7154C17.782 11.8354 17.8627 11.9687 17.8627 11.9687C17.8627 11.9687 17.9186 11.8176 17.9142 11.6976C17.9119 11.5754 17.8403 11.4843 17.8403 11.4843Z" fill="#097754"/>
<path d="M18.0892 11.6396C18.0892 11.6396 17.9728 11.7908 17.9571 11.9485C17.9414 12.1063 18.022 12.2663 18.022 12.2663C18.022 12.2663 18.1609 12.1285 18.1788 11.9708C18.1945 11.8152 18.0892 11.6396 18.0892 11.6396Z" fill="#097754"/>
<path d="M17.7695 13.0912C17.7695 13.0912 17.783 13.1467 17.8322 13.209C17.8815 13.2712 17.9621 13.3312 17.9621 13.3312C17.9621 13.3312 18.0405 13.3067 18.1391 13.3267C18.2376 13.3489 18.3675 13.4356 18.3675 13.4356C18.3675 13.4356 18.2286 13.2267 18.0808 13.1445C17.933 13.0645 17.7695 13.0912 17.7695 13.0912Z" fill="#097754"/>
<path d="M17.7539 13.4517C17.7539 13.4517 17.9376 13.3739 18.0876 13.3939C18.2377 13.4117 18.372 13.5317 18.372 13.5317C18.372 13.5317 18.1682 13.6006 18.0182 13.5828C17.8704 13.5606 17.7539 13.4517 17.7539 13.4517Z" fill="#097754"/>
<path d="M18.5291 12.6086C18.5291 12.6086 18.3678 12.7798 18.3544 12.9264C18.341 13.0731 18.4865 13.2109 18.4865 13.2109C18.4865 13.2109 18.4776 13.1175 18.5044 13.0531C18.5291 12.9909 18.5828 12.9242 18.5828 12.9242C18.5828 12.9242 18.6052 12.8486 18.5962 12.7886C18.5783 12.702 18.5291 12.6086 18.5291 12.6086Z" fill="#097754"/>
<path d="M18.7596 12.8047C18.7596 12.8047 18.6073 12.9558 18.567 13.1225C18.5267 13.2847 18.5983 13.4602 18.5983 13.4602C18.5983 13.4602 18.735 13.3514 18.7753 13.1891C18.8156 13.0247 18.7596 12.8047 18.7596 12.8047Z" fill="#097754"/>
<path d="M19.1417 13.7889C19.1417 13.7889 19.2111 13.9334 19.2268 14.0512C19.2447 14.1712 19.2268 14.2112 19.2268 14.2112C19.2268 14.2112 19.1551 14.2801 19.1237 14.3201C19.0834 14.3734 19.0745 14.4689 19.0745 14.4689C19.0745 14.4689 18.9312 14.2578 18.9535 14.1045C18.9782 13.9512 19.1417 13.7889 19.1417 13.7889Z" fill="#097754"/>
<path d="M19.4427 14.1197C19.4427 14.1197 19.259 14.2397 19.1874 14.3619C19.1157 14.4841 19.1515 14.6108 19.1515 14.6108C19.1515 14.6108 19.2837 14.5997 19.3553 14.4774C19.4248 14.3552 19.4427 14.1197 19.4427 14.1197Z" fill="#097754"/>
<path d="M18.2383 14.6274C18.2383 14.6274 18.5026 14.6185 18.6638 14.6585C18.8251 14.6985 18.8833 14.783 18.8833 14.783C18.8833 14.783 18.6996 14.8674 18.5384 14.8274C18.3771 14.7919 18.2383 14.6274 18.2383 14.6274Z" fill="#097754"/>
<path d="M18.1934 14.3177C18.1934 14.3177 18.3121 14.5021 18.4666 14.5688C18.6794 14.6599 18.9235 14.6177 18.9235 14.6177C18.9235 14.6177 18.7891 14.4555 18.6054 14.3821C18.424 14.3088 18.1934 14.3177 18.1934 14.3177Z" fill="#097754"/>
<path d="M27.233 10.7178L27.2688 10.7889C27.2688 10.7889 27.2128 10.8067 27.1882 10.8578C27.1635 10.9067 27.2039 10.9778 27.2039 10.9778C27.2039 10.9778 26.9127 10.9533 26.8679 10.9822C26.8276 11.0089 26.8836 11.2089 26.8567 11.3778C26.8186 11.6133 26.7246 11.5933 26.7223 11.64C26.7201 11.6844 26.7582 11.7511 26.7582 11.7511C26.7582 11.7511 26.7044 11.7667 26.691 11.7911C26.6731 11.8289 26.7044 11.8956 26.6798 11.9378C26.5544 12.1822 26.3685 12.5467 26.2453 12.7867C26.2296 12.8222 26.1804 12.8311 26.1602 12.8778C26.1378 12.92 26.1557 12.98 26.1557 12.98C26.1557 12.98 26.0751 12.9844 26.046 13.0422C26.0169 13.1 26.0325 13.18 26.0325 13.18C26.0325 13.18 25.981 13.1844 25.9542 13.2356C25.9273 13.2889 25.9721 13.3156 25.9631 13.34C25.7974 13.6622 25.6025 14.0444 25.4816 14.2756C25.439 14.36 25.2845 14.3778 25.1949 14.5511C25.1098 14.72 25.233 14.8444 25.233 14.8444C25.233 14.8444 25.1031 14.8556 25.0718 14.9222C25.0359 14.9889 25.0628 15.0933 25.1569 15.1378C25.2487 15.1867 25.3495 15.1467 25.3853 15.08C25.4211 15.0133 25.3495 14.9044 25.3495 14.9044C25.3495 14.9044 25.5242 14.9289 25.6093 14.76C25.6988 14.5867 25.6227 14.4556 25.6675 14.3711C25.7862 14.14 25.981 13.7578 26.149 13.4356C26.1602 13.4111 26.2117 13.4333 26.2386 13.38C26.2632 13.3289 26.2386 13.2867 26.2386 13.2867C26.2386 13.2867 26.3147 13.2556 26.3438 13.1956C26.373 13.14 26.3282 13.0711 26.3282 13.0711C26.3282 13.0711 26.3864 13.0489 26.4088 13.0067C26.4334 12.9622 26.4133 12.9156 26.4334 12.8844C26.5566 12.6444 26.7425 12.2822 26.8679 12.0356C26.8903 11.9911 26.9642 11.9778 26.9799 11.94C26.9911 11.9178 26.9709 11.8622 26.9709 11.8622C26.9709 11.8622 27.0516 11.8533 27.0829 11.8244C27.1187 11.7956 27.0471 11.7311 27.2173 11.5622C27.3382 11.4422 27.5353 11.3711 27.5308 11.3222C27.5286 11.2689 27.3382 11.0511 27.3382 11.0511C27.3382 11.0511 27.4189 11.0422 27.4435 10.9956C27.4681 10.9467 27.4524 10.8889 27.4524 10.8889L27.5331 10.8756V10.5L27.233 10.7178ZM24.597 15.9467C24.5858 15.9711 24.5835 16.0022 24.597 16.0289C24.597 16.0289 24.5007 16 24.4671 16.0156C24.4357 16.0311 24.4671 16.4822 24.4671 16.4822C24.4671 16.4822 24.8523 16.2422 24.8456 16.2067C24.8411 16.1689 24.7604 16.1111 24.7604 16.1111C24.7918 16.1067 24.8164 16.0867 24.8276 16.0622C24.8411 16.0378 24.8411 15.9667 24.756 15.9244C24.7246 15.9089 24.6933 15.9022 24.6709 15.9067C24.6306 15.9089 24.6059 15.9311 24.597 15.9467Z" fill="black"/>
<path d="M27.3047 10.7331L27.4883 10.8242L27.4861 10.6086L27.3047 10.7331Z" fill="#F5D402"/>
<path d="M27.2323 10.8653C27.2076 10.9097 27.2323 10.9697 27.2838 10.9964C27.3353 11.0231 27.3935 11.0075 27.4182 10.9608C27.4428 10.9164 27.4182 10.8564 27.3667 10.8297C27.3487 10.8186 27.3264 10.8164 27.3084 10.8164C27.2771 10.8186 27.2502 10.8386 27.2323 10.8653Z" fill="#F5D402"/>
<path d="M26.9213 11.0294C26.9034 11.0428 26.9303 11.2028 26.9235 11.3406C26.9191 11.4717 26.8743 11.5094 26.8541 11.5517C26.8317 11.5917 26.7578 11.6428 26.7578 11.6428L26.8228 11.7072C26.8228 11.7072 26.8631 11.6428 26.928 11.5183C27.0042 11.3694 27.0042 11.1006 27.0243 11.0872C27.0422 11.0739 27.2035 11.0361 27.2035 11.0361C27.2035 11.0361 27.0579 11.0272 26.9773 11.0272C26.9459 11.0272 26.928 11.0272 26.9213 11.0294Z" fill="#F5D402"/>
<path d="M26.9378 11.7779C26.9378 11.7779 26.9602 11.7201 27.0319 11.5757C27.1215 11.4023 27.3119 11.2779 27.3141 11.2446C27.3186 11.2135 27.2469 11.0601 27.2469 11.0601C27.2469 11.0601 27.0812 11.0912 27.0565 11.1135C27.0319 11.1357 27.0431 11.3623 26.9535 11.5357C26.8818 11.6801 26.8438 11.7335 26.8438 11.7335L26.9378 11.7779Z" fill="#F5D402"/>
<path d="M27.366 11.2583C27.3682 11.285 27.1465 11.4428 27.0703 11.5895C27.0054 11.7139 26.9785 11.7872 26.9785 11.7872L27.0681 11.8006C27.0681 11.8006 27.0636 11.7095 27.0838 11.6695C27.1084 11.625 27.1129 11.5717 27.2159 11.4872C27.3257 11.4028 27.4735 11.3272 27.4712 11.3028C27.4712 11.2806 27.3077 11.0806 27.3077 11.0806C27.3077 11.0806 27.3637 11.2383 27.366 11.2583Z" fill="#F5D402"/>
<path d="M26.7188 12.2304C26.8509 11.9726 26.8912 11.9548 26.9091 11.9215C26.927 11.8882 26.9226 11.8393 26.8643 11.8104C26.8419 11.7993 26.824 11.7971 26.8083 11.7971C26.7815 11.7993 26.7591 11.8193 26.7501 11.8393C26.7344 11.8704 26.7412 11.9171 26.6113 12.1726L26.3112 12.7593C26.3112 12.7593 26.2798 12.8171 26.338 12.8482C26.3963 12.8771 26.4231 12.8193 26.4231 12.8193L26.7188 12.2304Z" fill="#F5D402"/>
<path d="M26.188 12.9047C26.1724 12.9358 26.1992 12.9847 26.253 13.0091C26.3045 13.0358 26.3605 13.0314 26.3761 12.998C26.3918 12.9669 26.3627 12.918 26.3112 12.8936C26.2843 12.8803 26.2597 12.8758 26.2351 12.878C26.2104 12.8803 26.1947 12.8892 26.188 12.9047Z" fill="#F5D402"/>
<path d="M26.0753 13.0716C26.0529 13.1138 26.0865 13.1738 26.1514 13.2049C26.2141 13.236 26.2813 13.2293 26.3015 13.1871C26.3239 13.1449 26.2903 13.0849 26.2253 13.0538C26.2007 13.0427 26.1805 13.036 26.1559 13.036C26.1223 13.0316 26.0887 13.0449 26.0753 13.0716Z" fill="#F5D402"/>
<path d="M26.0044 13.2554C25.9888 13.2865 26.0156 13.3354 26.0694 13.3599C26.1209 13.3866 26.1769 13.3821 26.1925 13.3488C26.2082 13.3177 26.1813 13.2688 26.1276 13.2443C26.1007 13.231 26.0738 13.2265 26.0515 13.2288C26.0313 13.231 26.0134 13.2399 26.0044 13.2554Z" fill="#F5D402"/>
<path d="M25.9601 13.4347C25.9601 13.4347 25.6264 14.088 25.5077 14.3169C25.4696 14.3925 25.3106 14.4369 25.2502 14.5569C25.1875 14.6791 25.2322 14.7925 25.3151 14.8347C25.3957 14.8747 25.5167 14.8458 25.5794 14.7258C25.6421 14.6058 25.5839 14.448 25.6219 14.3769C25.7406 14.148 26.0743 13.4947 26.0743 13.4947C26.0743 13.4947 26.1057 13.4369 26.0474 13.4058C26.0318 13.3969 26.0206 13.3969 26.0094 13.3969C25.9758 13.3991 25.9601 13.4347 25.9601 13.4347Z" fill="#F5D402"/>
<path d="M25.1145 14.9491C25.0899 14.998 25.1168 15.0647 25.1795 15.0936C25.2422 15.1247 25.3116 15.1091 25.3363 15.0625C25.3609 15.0136 25.3318 14.9469 25.2691 14.918C25.2444 14.9069 25.2243 14.9025 25.1996 14.9025C25.1638 14.9025 25.1302 14.9202 25.1145 14.9491Z" fill="#F5D402"/>
<path d="M24.6707 15.9482C24.6528 15.9482 24.6349 15.9526 24.6304 15.966C24.617 15.9904 24.6439 16.0304 24.6887 16.0548C24.7335 16.0793 24.7827 16.0771 24.7939 16.0504C24.8074 16.026 24.7805 15.986 24.7357 15.9615C24.7111 15.9504 24.6887 15.946 24.6707 15.9482Z" fill="#F5D402"/>
<path d="M24.5117 16.0708V16.393L24.776 16.2041C24.776 16.2041 24.7402 16.1397 24.6595 16.1019C24.5834 16.0641 24.5117 16.0708 24.5117 16.0708Z" fill="#F5D402"/>
<path d="M24.678 8.89549C24.678 8.71993 24.911 8.54437 24.911 8.54437H19.209C19.209 8.54437 19.4419 8.71771 19.4419 8.89549V13.1088C19.4419 13.22 19.4777 13.2933 19.5315 13.3622C19.5852 13.44 19.7039 13.5444 19.8249 13.62C20.1989 13.8622 20.8237 14.1155 21.3008 14.3289C21.6949 14.5066 21.8562 14.58 22.0622 14.8311C22.266 14.5777 22.4295 14.5066 22.8259 14.3289C23.2985 14.1155 23.9255 13.86 24.3018 13.62C24.4227 13.5422 24.5414 13.4355 24.5952 13.3622C24.6489 13.2933 24.6848 13.2177 24.6848 13.1088L24.678 8.89549Z" fill="#F5D402"/>
<path d="M19.5772 11.2806V8.89616C19.5772 8.7606 19.5078 8.6806 19.5078 8.6806H24.6118C24.6118 8.6806 24.5424 8.76283 24.5424 8.89616L24.5446 11.2806L22.0609 12.0273L19.5772 11.2806Z" fill="#D10429"/>
<path d="M24.5453 11.2798L23.0089 11.2509H21.1164L19.5801 11.2798V13.1087C19.5801 13.1998 19.6764 13.4154 20.2296 13.6909C21.1456 14.1442 21.851 14.3554 22.0616 14.6131C22.2743 14.3554 22.9776 14.1442 23.8935 13.6909C24.4467 13.4154 24.543 13.1998 24.543 13.1087V11.2798H24.5453Z" fill="#0B45BB"/>
<path d="M22.971 11.1847C22.971 11.1847 23.8579 10.9624 23.8579 10.0224C23.8579 9.28689 22.9688 8.92467 22.9441 8.74689C22.859 9.05133 23.242 9.46911 23.242 9.96467C23.242 10.6069 22.7627 10.6358 22.7627 10.6358C22.6508 10.6358 22.606 10.7158 22.5612 10.7158C22.4671 10.7047 22.4246 10.5869 22.3305 10.5869C22.2454 10.5869 22.1782 10.7202 22.0618 10.7202C21.9453 10.7202 21.8826 10.5869 21.793 10.5869C21.6989 10.5869 21.6564 10.7047 21.5623 10.7158C21.5198 10.7158 21.4727 10.6358 21.3608 10.6358C21.3608 10.6358 20.8815 10.6047 20.8815 9.96467C20.8815 9.46911 21.2667 9.04911 21.1794 8.74689C21.1547 8.92244 20.2656 9.28911 20.2656 10.0224C20.2656 10.9647 21.1525 11.1847 21.1525 11.1847L20.8994 11.6402C20.8994 11.6402 21.2645 11.658 21.4616 11.8247C21.6945 12.0225 21.6743 12.4425 21.6743 12.7491C21.6743 12.9891 21.6452 13.2447 21.5175 13.3491C21.3518 13.4913 21.2376 13.5002 21.2376 13.6669C21.2376 13.8047 21.3451 13.8313 21.5175 13.9225C21.7415 14.0402 21.7303 14.1936 22.0595 14.1936C22.3887 14.1936 22.382 14.0358 22.606 13.9225C22.7807 13.8313 22.8859 13.8025 22.8859 13.6669C22.8859 13.5025 22.7739 13.4913 22.606 13.3491C22.4828 13.2447 22.4492 12.9891 22.4492 12.7491C22.4492 12.4425 22.4268 12.0202 22.662 11.8247C22.8546 11.6602 23.2241 11.6402 23.2241 11.6402L22.971 11.1847Z" fill="black"/>
<path d="M22.0588 8.81104L21.9065 9.24659L21.4877 9.04881L21.687 9.46437L21.248 9.61992L21.687 9.77548L21.4877 10.191L21.9065 9.99326L22.0588 10.4288L22.2155 9.99326L22.6343 10.191L22.435 9.77548L22.874 9.61992L22.435 9.46437L22.6343 9.04881L22.2155 9.24659L22.0588 8.81104Z" fill="black"/>
<path d="M21.1145 11.2513C21.1145 11.2513 20.5658 11.1179 20.362 10.8491C20.0036 11.1691 19.5781 11.2779 19.5781 11.2779C19.5781 11.2779 20.0238 11.4779 20.362 11.7313C20.521 11.5113 21.1145 11.2513 21.1145 11.2513Z" fill="black"/>
<path d="M23.0059 11.2506C23.0059 11.2506 23.6016 11.5128 23.7584 11.7328C24.0966 11.4795 24.5422 11.2795 24.5422 11.2795C24.5422 11.2795 24.1145 11.1684 23.7584 10.8506C23.5546 11.1173 23.0059 11.2506 23.0059 11.2506Z" fill="black"/>
<path d="M21.3397 11.8281L21.127 12.0392L21.3397 12.2503L21.5525 12.0392L21.3397 11.8281Z" fill="black"/>
<path d="M22.7831 11.8281L22.5703 12.0392L22.7831 12.2503L22.9959 12.0392L22.7831 11.8281Z" fill="black"/>
<path d="M21.2859 13.0642C21.2859 13.3309 21.259 13.4731 21.259 13.4731C21.259 13.4731 21.5591 13.3842 21.6196 13.0842C21.6465 12.942 21.6778 12.4198 21.5345 12.3287L21.1426 12.2509C21.1851 12.3576 21.2859 12.6798 21.2859 13.0642Z" fill="black"/>
<path d="M22.5873 12.3287C22.4417 12.4176 22.4753 12.9398 22.5022 13.0842C22.5604 13.3865 22.8628 13.4731 22.8628 13.4731C22.8628 13.4731 22.8359 13.3309 22.8359 13.0642C22.8359 12.6776 22.9344 12.3554 22.9792 12.2509L22.5873 12.3287Z" fill="black"/>
<path d="M20.3607 12.3445C20.2263 12.38 20.1435 12.5156 20.1771 12.6489C20.1815 12.6711 20.1905 12.6889 20.2017 12.7045C20.1838 12.7 20.1614 12.6934 20.139 12.6911C20.13 12.6911 20.1211 12.6911 20.1121 12.6911C19.9822 12.6956 19.8792 12.7956 19.868 12.9267C19.8568 13.0645 19.9643 13.1822 20.1054 13.1933C20.1278 13.1956 20.1457 13.1933 20.1681 13.1911C20.1569 13.2067 20.1457 13.2267 20.139 13.2445C20.0875 13.3733 20.1502 13.5222 20.2778 13.5733C20.4077 13.6245 20.5555 13.56 20.6048 13.4311C20.6138 13.4133 20.6182 13.3911 20.6205 13.3733C20.6317 13.3889 20.6474 13.4045 20.663 13.4178C20.7705 13.5067 20.9295 13.4933 21.0214 13.3867C21.111 13.28 21.0975 13.1222 20.99 13.0356C20.9743 13.0222 20.9542 13.0111 20.9385 13.0045C20.9564 13 20.9766 12.9889 20.9945 12.9778C21.1132 12.9022 21.1468 12.7489 21.0751 12.6311C21.0236 12.5511 20.9363 12.5089 20.8467 12.5134C20.8064 12.5156 20.7661 12.5289 20.728 12.5511C20.7101 12.5622 20.6922 12.5756 20.6787 12.5889C20.6787 12.5667 20.6765 12.5489 20.6698 12.5267C20.6406 12.4089 20.5309 12.3311 20.4144 12.3378C20.3965 12.3378 20.3764 12.3422 20.3607 12.3445Z" fill="black"/>
<path d="M23.0442 13.0752C23.0711 13.3307 23.2816 13.5441 23.5391 13.6063C23.4966 13.5352 23.4674 13.4552 23.4562 13.3685C23.4249 13.0641 23.66 12.8196 23.9825 12.8196C24.034 12.8196 24.081 12.8241 24.1303 12.8374C24.0183 12.653 23.8034 12.5219 23.5682 12.5219C23.248 12.5219 23.0106 12.7707 23.0442 13.0752Z" fill="black"/>
<path d="M20.754 9.96515C20.754 10.4474 21.0138 10.734 21.3609 10.734C21.4281 10.734 21.4997 10.8229 21.5624 10.8229C21.6655 10.8229 21.7327 10.7118 21.7931 10.7118C21.8715 10.7118 21.9253 10.834 22.0619 10.834C22.1985 10.834 22.2522 10.7118 22.3306 10.7118C22.3933 10.7118 22.4605 10.8229 22.5613 10.8229C22.624 10.8229 22.6957 10.734 22.7629 10.734C23.11 10.734 23.3698 10.4496 23.3698 9.96515C23.3698 9.56959 23.0361 9.08959 23.0719 9.01404C23.0719 9.01404 23.7214 9.47848 23.7214 10.0229C23.7214 10.9029 22.8233 11.1185 22.8233 11.1185L23.0249 11.5696C23.0249 11.5696 22.745 11.6118 22.577 11.7474C22.3508 11.9296 22.3485 12.4185 22.3485 12.7496C22.3485 13.1385 22.362 13.3074 22.5053 13.4118C22.6554 13.5229 22.7696 13.5474 22.7696 13.6629C22.7696 13.7607 22.6531 13.8007 22.5008 13.8674C22.3284 13.9429 22.3105 14.0718 22.0619 14.0718C21.811 14.0718 21.7954 13.9407 21.6229 13.8674C21.4729 13.8007 21.3542 13.7607 21.3542 13.6629C21.3542 13.5474 21.4661 13.5251 21.6184 13.4118C21.7618 13.3051 21.7752 13.1407 21.7752 12.7496C21.7752 12.4185 21.773 11.9274 21.5468 11.7474C21.3766 11.6118 21.0989 11.5696 21.0989 11.5696L21.3004 11.1185C21.3004 11.1185 20.4023 10.9029 20.4023 10.0229C20.4023 9.47626 21.0518 9.01404 21.0518 9.01404C21.0877 9.09182 20.754 9.57181 20.754 9.96515ZM21.7215 13.5962C21.5445 13.5962 21.4303 13.634 21.4303 13.6874C21.4303 13.7407 21.5423 13.7762 21.7215 13.7762C21.7707 13.7762 21.82 13.7496 21.82 13.6874C21.8222 13.6251 21.7685 13.5962 21.7215 13.5962ZM22.4023 13.5962C22.353 13.5962 22.3038 13.6251 22.3038 13.6874C22.3038 13.7496 22.3575 13.7762 22.4023 13.7762C22.5792 13.7762 22.6934 13.7407 22.6934 13.6874C22.6912 13.6318 22.5792 13.5962 22.4023 13.5962Z" fill="#FFD200"/>
<path d="M22.0642 9.10449L22.1628 9.38227L22.4293 9.25338L22.3039 9.52005L22.5816 9.61782L22.3039 9.7156L22.4293 9.98005L22.1628 9.8556L22.0642 10.1312L21.9657 9.8556L21.6992 9.98005L21.8246 9.7156L21.5469 9.61782L21.8246 9.52005L21.6992 9.25338L21.9657 9.38227L22.0642 9.10449Z" fill="#FFD200"/>
<path d="M20.8211 11.2665L20.362 11.6043L20.3575 11.6131L20.3463 11.6043L19.8379 11.2887C19.8379 11.2887 20.1626 11.1776 20.353 10.9843C20.5366 11.1887 20.8211 11.2665 20.8211 11.2665Z" fill="#FFD200"/>
<path d="M24.2821 11.2882C24.2821 11.2882 23.9439 11.4571 23.7737 11.606L23.7625 11.6149L23.758 11.606C23.5967 11.4215 23.2988 11.2682 23.2988 11.2682C23.2988 11.2682 23.5855 11.1904 23.7669 10.986C23.9595 11.1749 24.2821 11.2882 24.2821 11.2882Z" fill="#FFD200"/>
<path d="M21.3405 11.9304L21.4502 12.0393L21.3405 12.1504L21.2285 12.0393L21.3405 11.9304Z" fill="#FFD200"/>
<path d="M22.7816 11.9304L22.8936 12.0393L22.7816 12.1504L22.6719 12.0393L22.7816 11.9304Z" fill="#FFD200"/>
<path d="M21.4898 12.4135C21.5682 12.5202 21.5548 12.6935 21.5548 12.9335C21.5548 13.1757 21.3711 13.2668 21.3711 13.2668C21.3711 12.6846 21.3129 12.5468 21.2793 12.3713L21.4898 12.4135Z" fill="#FFD200"/>
<path d="M22.8428 12.3713C22.8114 12.5468 22.7509 12.6868 22.7509 13.2668C22.7509 13.2668 22.5673 13.1735 22.5673 12.9335C22.5673 12.6935 22.5538 12.5202 22.6322 12.4135L22.8428 12.3713Z" fill="#FFD200"/>
<path d="M20.6251 12.5898C20.6296 12.612 20.6296 12.632 20.6296 12.6543C20.6273 12.672 20.6251 12.6854 20.6161 12.7032C20.587 12.692 20.5512 12.6876 20.5198 12.6876C20.4347 12.6876 20.3586 12.7254 20.3071 12.7832C20.2936 12.7698 20.2802 12.7565 20.2712 12.7432C20.26 12.7276 20.2488 12.7054 20.2444 12.6876C20.2175 12.5832 20.2824 12.4765 20.3877 12.4498C20.4011 12.4476 20.4146 12.4454 20.428 12.4454C20.5198 12.4409 20.6027 12.4987 20.6251 12.5898Z" fill="#FFD200"/>
<path d="M20.917 12.9564C20.899 12.9675 20.8766 12.9741 20.8587 12.9808C20.8431 12.983 20.8229 12.9853 20.8072 12.983C20.8072 12.9519 20.805 12.9186 20.7938 12.8875C20.7669 12.8075 20.7087 12.7453 20.6348 12.7164C20.6437 12.7008 20.6504 12.6853 20.6616 12.6719C20.6751 12.6564 20.6908 12.6408 20.7064 12.6297C20.7983 12.5742 20.9192 12.6008 20.9774 12.6919C20.9864 12.703 20.9909 12.7164 20.9953 12.7275C21.0312 12.8053 20.9976 12.9053 20.917 12.9564Z" fill="#FFD200"/>
<path d="M20.6598 13.3444C20.6441 13.3311 20.6307 13.3133 20.6195 13.2933C20.6105 13.2778 20.606 13.2644 20.6016 13.2444C20.6329 13.2356 20.6643 13.22 20.6911 13.2022C20.7606 13.1511 20.7986 13.08 20.8076 13C20.8255 13.0022 20.8434 13.0044 20.8614 13.0133C20.8793 13.0222 20.8994 13.0289 20.9173 13.0444C21.0002 13.1133 21.0114 13.2356 20.942 13.32C20.933 13.3311 20.9241 13.3378 20.9129 13.3467C20.8367 13.4022 20.7337 13.4044 20.6598 13.3444Z" fill="#FFD200"/>
<path d="M20.2101 13.2226C20.219 13.2003 20.2325 13.1848 20.2459 13.1692C20.2571 13.1559 20.2705 13.1448 20.2862 13.1381C20.3041 13.1648 20.3265 13.1892 20.3556 13.207C20.4251 13.2581 20.5079 13.2715 20.5841 13.2559C20.5863 13.2737 20.5886 13.2915 20.5886 13.3092C20.5886 13.3314 20.5841 13.3514 20.5751 13.3714C20.5348 13.4692 20.4183 13.5181 20.3198 13.4781C20.3064 13.4737 20.2952 13.467 20.284 13.4603C20.2056 13.4048 20.1742 13.307 20.2101 13.2226Z" fill="#FFD200"/>
<path d="M20.1875 12.7548C20.2099 12.757 20.23 12.7637 20.2502 12.7704C20.2659 12.7793 20.2793 12.7859 20.2927 12.797C20.2748 12.8215 20.2569 12.8526 20.2479 12.8859C20.2211 12.9659 20.2345 13.0481 20.2748 13.117C20.2591 13.1259 20.2435 13.1326 20.2233 13.1393C20.2031 13.1459 20.183 13.1481 20.1606 13.1481C20.0531 13.1393 19.9702 13.0459 19.9769 12.9393C19.9769 12.9259 19.9792 12.9126 19.9859 12.8993C20.0083 12.8081 20.0912 12.7459 20.1875 12.7548Z" fill="#FFD200"/>
<path d="M20.5204 13.1622C20.6256 13.1622 20.7108 13.0776 20.7108 12.9733C20.7108 12.869 20.6256 12.7844 20.5204 12.7844C20.4153 12.7844 20.3301 12.869 20.3301 12.9733C20.3301 13.0776 20.4153 13.1622 20.5204 13.1622Z" fill="#FFD200"/>
<path d="M23.8535 12.7172C23.54 12.7794 23.3115 13.0528 23.3451 13.375C23.2466 13.2928 23.1704 13.1794 23.157 13.0572C23.1301 12.8172 23.307 12.6328 23.5713 12.6328C23.6721 12.6372 23.7707 12.6661 23.8535 12.7172Z" fill="#FFD200"/>
</g>
<rect x="0.812109" y="0.15" width="42.7" height="23.7" stroke="#EFEFF8" stroke-width="0.3"/>
<defs>
<clipPath id="clip0_684_39289">
<rect x="0.662109" width="43" height="24" fill="white"/>
</clipPath>
</defs>
</svg>
