<svg width="44" height="24" viewBox="0 0 44 24" fill="none" xmlns="http://www.w3.org/2000/svg">
<g clip-path="url(#clip0_684_43768)">
<path d="M0.615234 0H43.7048V24H0.615234V0Z" fill="#DA2032"/>
<path d="M14.9785 0H29.341V24H14.9785V0Z" fill="#0066B3"/>
<path d="M3.84766 10.9311H5.6438V19.4822H3.84766V10.9311ZM9.95276 10.9311H11.7467V19.4822H9.95052V10.9311H9.95276ZM6.00213 18.4133L7.79828 19.4822L9.59442 18.4133H6.00213ZM6.00213 17.3444H9.59219V18.0578H6.00213V17.3444ZM6.00213 10.9311L7.79828 12L9.59442 10.9311H6.00213ZM6.00213 12.3556H9.59219V13.0689H6.00213V12.3556ZM8.65156 13.6422C8.7837 13.8245 8.85536 14.0422 8.85536 14.2622C8.85536 14.8422 8.38057 15.3133 7.79604 15.3133C7.33021 15.3133 6.95172 15.6867 6.95172 16.1511C6.95172 16.6156 7.32797 16.9889 7.79604 16.9889C8.78818 16.9889 9.59219 16.1911 9.59219 15.2067C9.59219 14.5511 9.22937 13.9533 8.65156 13.6422ZM7.79828 15.7956C7.99536 15.7956 8.15661 15.9556 8.15661 16.1511C8.15661 16.3467 7.99536 16.5067 7.79828 16.5067C7.6012 16.5067 7.43995 16.3467 7.43995 16.1511C7.43995 15.9556 7.59896 15.7956 7.79828 15.7956Z" fill="#FFD900"/>
<path d="M6.94682 16.771C6.81469 16.5887 6.74302 16.371 6.74302 16.151C6.74302 15.571 7.21781 15.0998 7.80234 15.0998C8.26818 15.0998 8.64667 14.7265 8.64667 14.2621C8.64667 13.7998 8.27042 13.4243 7.80234 13.4243C6.81021 13.4243 6.0062 14.2221 6.0062 15.2065C6.00172 15.8621 6.36453 16.4598 6.94682 16.771ZM7.79786 14.6176C7.60078 14.6176 7.43953 14.4576 7.43953 14.2621C7.43953 14.0665 7.60078 13.9065 7.79786 13.9065C7.99495 13.9065 8.1562 14.0665 8.1562 14.2621C8.1562 14.4576 7.99495 14.6176 7.79786 14.6176ZM5.82479 8.57541C5.82479 8.58874 5.82031 8.59985 5.82031 8.61541C5.82031 9.69763 6.70271 10.5754 7.79563 10.5754C8.88854 10.5754 9.77094 9.69985 9.77094 8.61541C9.77094 8.6043 9.77094 8.59096 9.77094 8.57985C9.43052 9.35985 8.65339 9.86207 7.79563 9.86207C6.94234 9.86207 6.16745 9.35541 5.82479 8.57541Z" fill="#FFD900"/>
<path d="M7.7969 9.50435C8.58974 9.50435 9.23247 8.8666 9.23247 8.0799C9.23247 7.2932 8.58974 6.65546 7.7969 6.65546C7.00406 6.65546 6.36133 7.2932 6.36133 8.0799C6.36133 8.8666 7.00406 9.50435 7.7969 9.50435Z" fill="#FFD900"/>
<path d="M7.94823 3.44891C7.76906 3.53114 7.70411 3.67336 7.69068 3.82002C7.67948 3.94225 7.73771 4.08003 7.73995 4.1978C7.73995 4.40003 7.52719 4.46891 7.52719 4.76003C7.52719 4.86003 7.62125 4.97114 7.62125 5.23114C7.60781 5.36669 7.52719 5.3978 7.44208 5.40892C7.3413 5.40892 7.26292 5.33114 7.26292 5.23114C7.26292 5.18447 7.28083 5.14225 7.31219 5.10891C7.31891 5.10225 7.32338 5.0978 7.3301 5.09114C7.37042 5.04892 7.42641 5.03336 7.42641 4.92669C7.42641 4.86891 7.39057 4.82003 7.35474 4.72447C7.32339 4.62891 7.34354 4.46891 7.42193 4.37558C7.29651 4.42225 7.21812 4.54225 7.17781 4.64891C7.13526 4.78003 7.17333 4.85558 7.11734 4.96669C7.08151 5.0378 7.0412 5.06669 7.00313 5.12669C6.95609 5.19114 6.90234 5.34003 6.90234 5.41114C6.90234 5.90225 7.30547 6.30225 7.80042 6.30225C8.29536 6.30225 8.69849 5.90225 8.69849 5.41114C8.69849 5.34003 8.64474 5.19114 8.59771 5.12669C8.5574 5.06669 8.51484 5.0378 8.48349 4.96669C8.42526 4.85558 8.46109 4.78225 8.42302 4.64891C8.38271 4.54225 8.30432 4.42003 8.17891 4.37558C8.25729 4.46891 8.27969 4.62891 8.24609 4.72447C8.21026 4.82447 8.17443 4.87336 8.17443 4.92669C8.17443 5.03336 8.23266 5.05114 8.27073 5.09114C8.27745 5.0978 8.28417 5.10225 8.28865 5.10891C8.32 5.14003 8.33792 5.18669 8.33792 5.23114C8.33792 5.33114 8.25953 5.40892 8.15875 5.40892C8.05797 5.3978 7.9863 5.35114 7.97958 5.23114C7.97958 4.88891 8.1274 4.86669 8.1274 4.61114C8.1274 4.24669 7.80042 4.07558 7.80042 3.81336C7.79818 3.72225 7.81833 3.57114 7.94823 3.44891Z" fill="#FFD900"/>
</g>
<rect x="0.810156" y="0.15" width="42.7" height="23.7" stroke="#EFEFF8" stroke-width="0.3"/>
<defs>
<clipPath id="clip0_684_43768">
<rect x="0.660156" width="43" height="24" fill="white"/>
</clipPath>
</defs>
</svg>
