<svg width="44" height="24" viewBox="0 0 44 24" fill="none" xmlns="http://www.w3.org/2000/svg">
<g clip-path="url(#clip0_684_43744)">
<path d="M43.6641 0H0.664062V24H43.6641V0Z" fill="#0F7562"/>
<path d="M22.6475 5.99984L23.4292 5.43984H22.4617L22.1638 4.52873L21.8659 5.43984H20.8984L21.68 5.99984L21.3822 6.91095L22.1638 6.34429L22.9454 6.91095L22.6475 5.99984Z" fill="#FFDE23"/>
<path d="M17.296 9.27138L17.876 8.95138L17.2153 8.87138L17.0854 8.21582L16.8033 8.81582L16.1426 8.73582L16.633 9.19138L16.3509 9.79138L16.9332 9.47138L17.4236 9.92026L17.296 9.27138Z" fill="#FFDE23"/>
<path d="M19.0837 7.15995L19.7533 7.16884L19.2113 6.76884L19.4308 6.14439L18.8821 6.51995L18.3491 6.11995L18.5439 6.75995L18.002 7.1355L18.6649 7.15106L18.8664 7.78439L19.0837 7.15995Z" fill="#FFDE23"/>
<path d="M17.4473 16.9912C17.5772 17.1023 17.7048 17.2068 17.8414 17.3023H22.1638H26.4862C26.6228 17.2068 26.7527 17.1023 26.8804 16.9912H22.1638H17.4473Z" fill="white"/>
<path d="M18.3027 17.6158C18.5357 17.7603 18.7775 17.8958 19.0284 18.0158H22.1638H25.2992C25.55 17.8958 25.7919 17.7603 26.0248 17.6158H22.1638H18.3027Z" fill="white"/>
<path d="M19.4883 18.2158C20.3192 18.5447 21.2217 18.7203 22.1646 18.7203C23.1074 18.7203 24.01 18.5447 24.8409 18.2158H22.1646H19.4883Z" fill="white"/>
<path d="M16.8125 16.3842C16.8774 16.4486 16.9424 16.5197 17.0051 16.5842H22.1651H27.3251C27.39 16.5197 27.455 16.4486 27.5177 16.3842H22.1651H16.8125Z" fill="white"/>
<path d="M23.8019 15.391C22.9957 15.151 22.4559 14.711 22.1648 14.4399C21.8736 14.711 21.3339 15.151 20.5276 15.391C20.1491 15.5021 19.7527 15.5666 19.3429 15.5666H16.1582C16.2545 15.7021 16.3508 15.8377 16.4561 15.9666H19.5288C20.5276 15.9666 21.4481 15.6066 22.1648 15.0155C22.8747 15.6066 23.7929 15.9666 24.8008 15.9666H27.8735C27.9787 15.8377 28.075 15.7021 28.1713 15.5666H24.9866C24.5746 15.5688 24.1804 15.511 23.8019 15.391Z" fill="white"/>
<path d="M24.8499 14.9202C24.599 14.9202 24.3572 14.8957 24.1242 14.8557C24.2362 14.8646 24.3504 14.8713 24.4624 14.8713C26.2115 14.8713 27.7031 13.7824 28.2832 12.2468C27.7098 12.0157 27.0895 11.8779 26.4377 11.8779C25.2687 11.8779 24.1959 12.2935 23.3583 12.9824C24.2295 12.0779 25.4635 11.5179 26.8162 11.5113C26.9058 11.3424 27.0178 11.1913 27.1544 11.0624C27.0827 11.0624 27.0088 11.0535 26.9372 11.0535C25.5665 11.0535 24.3325 11.6224 23.4613 12.5335C23.9608 11.8624 24.2586 11.029 24.2586 10.1246C24.2586 9.39571 24.066 8.71571 23.7256 8.13349C23.6539 8.38238 23.5151 8.59793 23.3471 8.78238C23.5979 9.31126 23.7413 9.89349 23.7413 10.5179C23.7413 11.4535 23.4188 12.309 22.8858 12.9979C23.3202 12.349 23.58 11.5735 23.58 10.7424C23.58 10.3424 23.524 9.95126 23.4098 9.58238C23.1187 8.60682 22.4916 7.96682 22.1601 7.67126C21.8287 7.96682 21.2083 8.60682 20.9104 9.58238C20.7985 9.95126 20.7402 10.3335 20.7402 10.7424C20.7402 11.5735 20.9978 12.3513 21.4345 12.9979C20.9015 12.309 20.579 11.4535 20.579 10.5179C20.579 9.89349 20.7156 9.30904 20.9732 8.78238C20.7962 8.59793 20.6663 8.38238 20.5947 8.13349C20.2565 8.7246 20.0616 9.4046 20.0616 10.1246C20.0616 11.029 20.3595 11.8602 20.8589 12.5335C19.981 11.6224 18.747 11.0535 17.3831 11.0535C17.3114 11.0535 17.2375 11.0535 17.1659 11.0624C17.3025 11.1913 17.4167 11.3424 17.504 11.5113C18.8657 11.5113 20.093 12.0802 20.962 12.9824C20.1311 12.2935 19.0516 11.8779 17.8825 11.8779C17.2286 11.8779 16.6015 12.0068 16.0371 12.2468C16.6172 13.7757 18.1177 14.8713 19.8578 14.8713C19.9698 14.8713 20.084 14.8624 20.196 14.8557C19.9631 14.8957 19.7212 14.9202 19.4704 14.9202C18.3663 14.9202 17.3652 14.489 16.6328 13.7846C16.4805 13.8402 16.3193 13.8802 16.1401 13.889C16.8904 14.729 17.9855 15.2579 19.2039 15.2579C20.364 15.2579 21.4054 14.7779 22.1557 14.009C22.897 14.7779 23.9451 15.2579 25.1074 15.2579C26.3258 15.2579 27.4209 14.729 28.1712 13.889C28.001 13.8802 27.833 13.8402 27.6785 13.7846C26.9528 14.489 25.954 14.9202 24.8499 14.9202Z" fill="white"/>
<path d="M27.6961 9.19138L28.1866 8.73582L27.5259 8.81582L27.2437 8.21582L27.1138 8.87138L26.4531 8.95138L27.0332 9.27138L26.9055 9.92026L27.396 9.47138L27.9783 9.79138L27.6961 9.19138Z" fill="#FFDE23"/>
<path d="M25.6627 7.15106L26.3256 7.1355L25.7836 6.75995L25.9784 6.11995L25.4454 6.51995L24.8967 6.14439L25.1162 6.76884L24.5742 7.16884L25.2439 7.15995L25.4611 7.78439L25.6627 7.15106Z" fill="#FFDE23"/>
</g>
<rect x="0.814063" y="0.15" width="42.7" height="23.7" stroke="#EFEFF8" stroke-width="0.3"/>
<defs>
<clipPath id="clip0_684_43744">
<rect x="0.664062" width="43" height="24" fill="white"/>
</clipPath>
</defs>
</svg>
