<svg width="44" height="24" viewBox="0 0 44 24" fill="none" xmlns="http://www.w3.org/2000/svg">
<g clip-path="url(#clip0_684_39225)">
<path d="M43.9961 0H22.4961V24H43.9961V0Z" fill="#CF142B"/>
<path d="M22.4953 0H0.970703V24H22.4953V0Z" fill="white"/>
<path d="M1.86523 3.31126V5.13126H3.69945C3.69945 5.4357 4.00628 5.74015 4.3131 5.74015V7.56015H6.14732V5.74015C6.45414 5.74015 6.76096 5.4357 6.76096 5.13126H8.59518V3.31126H6.76096C6.76096 3.00682 6.45414 2.70237 6.14732 2.70237V0.889038H4.30862V2.70904C4.0018 2.70904 3.69497 3.01348 3.69497 3.31793C3.69945 3.31126 1.86523 3.31126 1.86523 3.31126Z" fill="#E60D2E"/>
<path d="M1.99023 3.43616V5.01172H3.82445C3.82445 5.31616 4.13128 5.61616 4.4381 5.61616V7.43616H6.02596V5.61616C6.33279 5.61616 6.63961 5.31172 6.63961 5.00727H8.47383V3.43616H6.63961C6.63961 3.13172 6.33279 2.82727 6.02596 2.82727V1.01172H4.43362V2.83172C4.1268 2.83172 3.81997 3.13616 3.81997 3.44061C3.81997 3.43616 1.99023 3.43616 1.99023 3.43616Z" fill="#96877D"/>
<path d="M2.05078 3.49555V4.95111H3.885C3.885 5.25555 4.19182 5.56 4.49865 5.56V7.38H5.96557V5.56C6.2724 5.56 6.57922 5.25555 6.57922 4.95111H8.41344V3.49555H6.57922C6.57922 3.19111 6.2724 2.88666 5.96557 2.88666V1.07111H4.49417V2.89111C4.18734 2.89111 3.88052 3.19555 3.88052 3.5H2.05078V3.49555Z" fill="#CCCCCC"/>
<path d="M4.37746 2.86909C4.4872 2.97797 4.4536 3.17797 4.31251 3.3202C4.16693 3.46464 3.96537 3.49131 3.86011 3.38464C3.75037 3.27575 3.78396 3.07575 3.92506 2.93353C4.06615 2.78908 4.2722 2.7602 4.37746 2.86909Z" fill="#96877D"/>
<path d="M3.83594 3.18959L3.88073 3.14515L4.05318 3.22959L3.96807 3.05848L4.01287 3.01404L4.18532 3.35848L3.83594 3.18959Z" fill="#D0D0D0"/>
<path d="M4.09766 2.93116L4.14245 2.88672L4.4 3.14227L4.35521 3.18672L4.09766 2.93116Z" fill="#D0D0D0"/>
<path d="M6.59099 3.38032C6.48125 3.48921 6.27968 3.45587 6.13635 3.31587C5.99077 3.17143 5.9639 2.97143 6.0714 2.86699C6.18114 2.7581 6.38271 2.79143 6.5238 2.93143C6.67161 3.07143 6.69849 3.27588 6.59099 3.38032Z" fill="#96877D"/>
<path d="M6.26786 2.84467L6.31266 2.88911L6.22755 3.06022L6.4 2.97578L6.44479 3.02022L6.09766 3.19133L6.26786 2.84467Z" fill="#D0D0D0"/>
<path d="M6.52514 3.10455L6.56993 3.149L6.31237 3.40455L6.26758 3.36011L6.52514 3.10455Z" fill="#D0D0D0"/>
<path d="M6.073 5.57589C5.96326 5.467 5.99685 5.267 6.13795 5.12478C6.28352 4.98033 6.48508 4.95367 6.59034 5.06033C6.70009 5.16922 6.66649 5.36922 6.5254 5.51145C6.3843 5.65589 6.17826 5.68478 6.073 5.57589Z" fill="#96877D"/>
<path d="M6.615 5.25495L6.57021 5.29939L6.39776 5.21495L6.48286 5.38606L6.43807 5.4305L6.26562 5.08606L6.615 5.25495Z" fill="#D0D0D0"/>
<path d="M6.35313 5.51099L6.30833 5.55543L6.05078 5.29988L6.09557 5.25543L6.35313 5.51099Z" fill="#D0D0D0"/>
<path d="M3.86046 5.06376C3.9702 4.95487 4.17176 4.98821 4.3151 5.12821C4.46067 5.27266 4.48755 5.47266 4.38005 5.57711C4.27031 5.686 4.06874 5.65266 3.92541 5.51266C3.77984 5.37044 3.75296 5.16821 3.86046 5.06376Z" fill="#96877D"/>
<path d="M4.18279 5.59978L4.138 5.55533L4.2231 5.38422L4.05065 5.46867L4.00586 5.42422L4.353 5.25311L4.18279 5.59978Z" fill="#D0D0D0"/>
<path d="M3.92565 5.33998L3.88086 5.29553L4.13841 5.03998L4.1832 5.08442L3.92565 5.33998Z" fill="#D0D0D0"/>
<path d="M5.22612 5.50498C4.51169 5.50498 3.93164 4.92943 3.93164 4.22054C3.93164 3.51165 4.51169 2.9361 5.22612 2.9361C5.94055 2.9361 6.5206 3.51165 6.5206 4.22054C6.5206 4.92943 5.93607 5.50498 5.22612 5.50498ZM5.22612 2.96054C4.52065 2.96054 3.9518 3.52943 3.9518 4.22499C3.9518 4.92054 4.52513 5.48943 5.22612 5.48943C5.92711 5.48943 6.50044 4.92054 6.50044 4.22499C6.49596 3.52943 5.92935 2.96054 5.22612 2.96054Z" fill="#96877D"/>
<path d="M5.22594 5.20457C4.68172 5.20457 4.23828 4.76457 4.23828 4.22457C4.23828 3.68457 4.68172 3.24457 5.22594 3.24457C5.77015 3.24457 6.21359 3.68457 6.21359 4.22457C6.21359 4.76457 5.77015 5.20457 5.22594 5.20457ZM5.22594 3.26457C4.69292 3.26457 4.25844 3.69568 4.25844 4.22457C4.25844 4.75346 4.69292 5.18457 5.22594 5.18457C5.75896 5.18457 6.19344 4.75346 6.19344 4.22457C6.19344 3.69568 5.75896 3.26457 5.22594 3.26457Z" fill="#96877D"/>
<path d="M4.73663 5.31153C4.77024 5.31153 4.79748 5.28467 4.79748 5.25153C4.79748 5.21839 4.77024 5.19153 4.73663 5.19153C4.70302 5.19153 4.67578 5.21839 4.67578 5.25153C4.67578 5.28467 4.70302 5.31153 4.73663 5.31153Z" fill="black"/>
<path d="M5.71515 5.31153C5.74875 5.31153 5.776 5.28467 5.776 5.25153C5.776 5.21839 5.74875 5.19153 5.71515 5.19153C5.68154 5.19153 5.6543 5.21839 5.6543 5.25153C5.6543 5.28467 5.68154 5.31153 5.71515 5.31153Z" fill="black"/>
<path d="M5.18602 5.25126V5.3157H5.10539C5.02477 5.3157 5.02477 5.38015 5.10539 5.38015H5.18602V5.44459C5.18602 5.50904 5.25768 5.51571 5.26216 5.44904L5.26664 5.38015H5.34727C5.42789 5.38015 5.42789 5.3157 5.34727 5.3157H5.26664V5.25126C5.26664 5.18903 5.18378 5.18903 5.18602 5.25126Z" fill="black"/>
<path d="M4.03479 4.53556L4.1199 4.51556L4.11094 4.47556C4.10646 4.46667 4.10646 4.46001 4.09974 4.45556C4.09526 4.45112 4.08854 4.45112 4.0751 4.45112V4.44667L4.14677 4.43112V4.43556C4.13781 4.44001 4.13109 4.44001 4.13109 4.44445C4.12661 4.4489 4.12661 4.45334 4.12213 4.45556C4.12213 4.46001 4.12213 4.46445 4.12213 4.47112L4.13109 4.51112L4.20052 4.49556C4.21172 4.49112 4.2162 4.49112 4.22068 4.48667C4.22516 4.48667 4.22516 4.48223 4.22516 4.47779C4.22516 4.47334 4.22516 4.46667 4.22516 4.46223V4.45334H4.22963L4.24979 4.54445H4.24307V4.53556C4.23859 4.52667 4.23411 4.52001 4.23187 4.52001C4.22739 4.52001 4.22068 4.52001 4.20724 4.52001L4.07062 4.55112C4.05943 4.55556 4.05495 4.55556 4.05047 4.56001C4.04599 4.56001 4.04599 4.56445 4.04599 4.5689C4.04599 4.57334 4.04599 4.58001 4.04599 4.58445V4.59334H4.04151L4.00568 4.43779L4.05495 4.42667V4.43112C4.04599 4.43556 4.03927 4.44001 4.03479 4.44667C4.03031 4.45112 4.02583 4.45556 4.02583 4.46223C4.02583 4.46667 4.02583 4.47779 4.03031 4.48667L4.03479 4.53556ZM3.97656 4.16001C3.97656 4.13112 3.98776 4.10889 4.0124 4.08889C4.03703 4.06889 4.06167 4.06001 4.0975 4.06001C4.12885 4.06001 4.15797 4.07112 4.17812 4.09556C4.19828 4.12001 4.20948 4.14445 4.20724 4.17112C4.20724 4.20001 4.19604 4.22667 4.17141 4.24223C4.14677 4.26223 4.1199 4.27112 4.0863 4.26667C4.05047 4.26667 4.02135 4.25112 4.0012 4.22667C3.98552 4.21112 3.97656 4.1889 3.97656 4.16001ZM3.99 4.16445C3.99 4.18445 3.99448 4.20001 4.01016 4.21334C4.02583 4.2289 4.05495 4.23778 4.0863 4.24223C4.12213 4.24667 4.15125 4.23778 4.17141 4.22223C4.18708 4.21112 4.19604 4.19778 4.19604 4.17778C4.19604 4.15778 4.19156 4.14223 4.17588 4.12667C4.16021 4.11112 4.13557 4.10223 4.09974 4.10223C4.06391 4.09778 4.03479 4.10667 4.01464 4.11778C3.99672 4.12889 3.99 4.14445 3.99 4.16445ZM4.30802 3.76445L4.28786 3.82L4.16693 3.85112C4.16693 3.85556 4.16245 3.86 4.16245 3.86223V3.86667V3.87112L4.22292 3.89556C4.23411 3.9 4.24307 3.90445 4.24755 3.9C4.25203 3.89556 4.25875 3.89112 4.25875 3.88445L4.26323 3.87556L4.26771 3.88L4.23635 3.96889L4.23187 3.96445L4.23635 3.95556C4.24083 3.94667 4.24083 3.94001 4.23635 3.93556C4.23187 3.93112 4.22739 3.92667 4.2162 3.92445L4.0751 3.87556C4.06391 3.87112 4.05495 3.86667 4.05047 3.87112C4.04599 3.87556 4.03927 3.88 4.03927 3.88667L4.03479 3.89556L4.03031 3.89112L4.05943 3.81556C4.06839 3.79556 4.0751 3.78 4.08406 3.76667C4.09302 3.75778 4.09974 3.75112 4.11318 3.74667C4.12437 3.74223 4.13781 3.74223 4.14901 3.74667C4.16021 3.75112 4.16917 3.75778 4.17812 3.77112C4.18708 3.78223 4.18708 3.8 4.1826 3.81556L4.25875 3.79556C4.27443 3.79112 4.28786 3.78667 4.29458 3.78C4.30354 3.77556 4.30578 3.76889 4.31474 3.75556L4.30802 3.76445ZM4.14677 3.87112V3.86667V3.86223C4.15573 3.84223 4.15573 3.82667 4.15125 3.81334C4.14677 3.80223 4.14005 3.78889 4.12213 3.78445C4.11094 3.78 4.0975 3.78 4.0863 3.78445C4.0751 3.78889 4.06615 3.79556 4.06167 3.81334C4.05719 3.81778 4.05719 3.82889 4.05271 3.83778L4.14677 3.87112ZM4.61484 3.14889L4.65963 3.20445L4.65515 3.20889C4.63948 3.19778 4.62604 3.18889 4.61484 3.18889C4.59916 3.18445 4.57901 3.18889 4.56333 3.2C4.5387 3.21556 4.5275 3.23556 4.5275 3.26445C4.5275 3.28889 4.53646 3.30889 4.54765 3.32889C4.55885 3.34445 4.57229 3.36 4.58797 3.36889C4.60364 3.38 4.61932 3.38445 4.63724 3.38445C4.65291 3.38445 4.66635 3.38 4.67755 3.37334C4.68651 3.36889 4.68875 3.36445 4.69323 3.35778C4.69771 3.35334 4.70219 3.34667 4.70442 3.33778L4.67307 3.28222C4.66859 3.27333 4.66187 3.26667 4.66187 3.26667C4.65739 3.26667 4.65291 3.26222 4.65067 3.26222C4.64844 3.26222 4.64172 3.26667 4.635 3.27111L4.63052 3.26667L4.70219 3.22222L4.70666 3.22667L4.70219 3.23111C4.69323 3.23556 4.69099 3.24222 4.69323 3.24667C4.69323 3.25111 4.69771 3.25778 4.70442 3.26667L4.74026 3.32222C4.7313 3.33334 4.72458 3.34667 4.71562 3.35334C4.70666 3.36222 4.69547 3.36889 4.68427 3.37778C4.64844 3.40222 4.61484 3.40667 4.57901 3.39778C4.55437 3.38889 4.53422 3.37334 4.51854 3.35334C4.50734 3.33778 4.50286 3.31778 4.49838 3.30222C4.4939 3.27778 4.49838 3.25778 4.50958 3.23778C4.51854 3.22222 4.52974 3.20667 4.54989 3.19333C4.55885 3.18889 4.56109 3.18445 4.57005 3.18222C4.57901 3.17778 4.58573 3.17778 4.59916 3.17333C4.60812 3.17333 4.61036 3.16889 4.61036 3.16889L4.61484 3.16445C4.61484 3.16 4.61484 3.16 4.61036 3.15333L4.61484 3.14889ZM4.97317 3.17111L4.89255 3.19111L4.88807 3.22667C4.88807 3.23556 4.88807 3.24222 4.88807 3.24667C4.88807 3.25111 4.89255 3.25111 4.89703 3.25556C4.90151 3.26 4.90823 3.25556 4.91718 3.25556V3.26L4.84776 3.28V3.27556C4.85672 3.27111 4.85896 3.26667 4.86343 3.26445C4.86791 3.25556 4.87239 3.24445 4.87239 3.22889L4.90151 3.03778H4.90599L5.02692 3.19333C5.03588 3.20445 5.0426 3.21333 5.05156 3.21778C5.05604 3.22222 5.06276 3.22222 5.07172 3.21778V3.22222L4.98661 3.24667V3.24222C4.99557 3.23778 4.99781 3.23778 5.00229 3.23333C5.00677 3.22889 5.00677 3.22445 5.00677 3.22445C5.00677 3.22 5.00229 3.21333 4.99557 3.20445L4.97317 3.17111ZM4.96422 3.16445L4.90375 3.08889L4.88807 3.18445L4.96422 3.16445ZM5.35166 3.16H5.35614L5.33599 3.22L5.16578 3.21111V3.20667H5.17474C5.18369 3.20667 5.19041 3.20222 5.19489 3.19778C5.19937 3.19333 5.19937 3.18667 5.19937 3.17333L5.20385 3.03333C5.20385 3.02222 5.20385 3.00889 5.19937 3.00889C5.19489 3.00444 5.18817 3 5.17921 3H5.17026L5.27104 3.00444V3.00889C5.25984 3.00889 5.25088 3.00889 5.2464 3.01333C5.24192 3.01778 5.23744 3.01778 5.23744 3.02222C5.23744 3.02667 5.23296 3.03333 5.23296 3.04667L5.22849 3.18222C5.22849 3.19111 5.22849 3.19778 5.22849 3.20222C5.22849 3.20667 5.23296 3.20667 5.23296 3.20667C5.23744 3.20667 5.24416 3.21111 5.2576 3.21111H5.27328C5.28895 3.21111 5.30239 3.21111 5.30911 3.20667C5.31807 3.20222 5.32031 3.19778 5.32927 3.19556C5.34046 3.18445 5.34718 3.17556 5.35166 3.16ZM5.64729 3.24L5.65177 3.24445L5.61593 3.29556L5.45244 3.24445V3.24L5.4614 3.24445C5.47036 3.24889 5.47708 3.24889 5.48156 3.24C5.48604 3.23556 5.49052 3.23111 5.49276 3.22L5.53755 3.08889C5.54203 3.07778 5.54203 3.06889 5.54203 3.06444C5.53755 3.06 5.53307 3.05556 5.52635 3.05333L5.51739 3.04889V3.04444L5.60921 3.07556V3.08C5.59802 3.07556 5.58906 3.07556 5.58458 3.07556C5.5801 3.07556 5.57562 3.08 5.57338 3.08C5.5689 3.08445 5.56442 3.09111 5.56218 3.10444L5.51739 3.23556C5.51291 3.24445 5.51291 3.25111 5.51291 3.25556C5.51291 3.26 5.51291 3.26 5.51739 3.26445C5.52187 3.26445 5.52635 3.26889 5.54203 3.27333L5.5577 3.27778C5.57338 3.28222 5.58682 3.28667 5.59354 3.28667C5.60026 3.28667 5.60921 3.28222 5.61369 3.27778C5.62713 3.25556 5.63385 3.25111 5.64729 3.24ZM5.8802 3.36445L5.81078 3.31556L5.77942 3.33556C5.77046 3.34 5.76822 3.34445 5.76374 3.34667C5.76374 3.35111 5.75926 3.35556 5.76374 3.35556C5.76374 3.36 5.76822 3.36445 5.77494 3.37111L5.77046 3.37556L5.71447 3.33556L5.71895 3.33111C5.72791 3.33556 5.73463 3.33556 5.73911 3.33556C5.74807 3.33556 5.75927 3.32667 5.77046 3.32L5.94067 3.21556L5.94515 3.22L5.90036 3.41111C5.89588 3.42667 5.89588 3.44 5.89588 3.44222C5.89588 3.45111 5.90036 3.45334 5.90708 3.45778L5.9026 3.46222L5.83093 3.41334L5.83541 3.40889C5.84437 3.41334 5.84661 3.41778 5.85109 3.41778C5.85557 3.41778 5.86005 3.41778 5.86005 3.41334C5.86453 3.40889 5.86453 3.40222 5.869 3.39334L5.8802 3.36445ZM5.88468 3.35111L5.90484 3.26L5.82421 3.30889L5.88468 3.35111ZM6.14671 3.4L6.18255 3.44889L6.13103 3.65334L6.23182 3.57778C6.24301 3.56889 6.24749 3.56223 6.24749 3.55778C6.24749 3.55334 6.24749 3.54667 6.24301 3.53778L6.23853 3.52889L6.24301 3.52445L6.28781 3.58445L6.28333 3.58889L6.27885 3.58C6.27437 3.57111 6.26765 3.56889 6.25869 3.56889C6.25421 3.56889 6.24749 3.57334 6.23853 3.58L6.08848 3.68889L6.084 3.68445L6.13999 3.46445L6.03025 3.54445C6.01906 3.55334 6.01458 3.56 6.01458 3.56445C6.01458 3.56889 6.01458 3.57556 6.01906 3.58445L6.02354 3.59334L6.01906 3.59778L5.97426 3.53778L5.97874 3.53334L5.98322 3.54222C5.9877 3.55111 5.99442 3.55334 6.00338 3.55334C6.00786 3.55334 6.01458 3.54889 6.02354 3.54222L6.14447 3.45111C6.14895 3.44222 6.14895 3.43556 6.14895 3.43111C6.14895 3.42667 6.14895 3.42222 6.14447 3.41556C6.14447 3.41111 6.13999 3.40667 6.13551 3.40445L6.14671 3.4ZM6.41994 3.90445L6.37067 3.92445V3.92C6.37963 3.91556 6.38187 3.91112 6.38635 3.90889C6.39083 3.90445 6.3953 3.89778 6.3953 3.89334C6.3953 3.88445 6.3953 3.88223 6.39083 3.86889L6.37963 3.84L6.22286 3.89556C6.21166 3.9 6.2027 3.90445 6.19822 3.90667C6.19374 3.91112 6.19374 3.91778 6.19822 3.92667L6.2027 3.93556H6.19822L6.16687 3.84667H6.17135L6.17583 3.85556C6.18031 3.86445 6.18478 3.86667 6.1915 3.87112C6.19598 3.87112 6.2027 3.87112 6.21614 3.86667L6.37291 3.81112L6.36395 3.78667C6.35947 3.77778 6.35499 3.77112 6.35499 3.76667C6.35051 3.76223 6.34603 3.75778 6.33932 3.75778C6.33036 3.75778 6.32364 3.75778 6.31468 3.75778L6.3102 3.75334L6.35947 3.73778L6.41994 3.90445ZM6.24749 4.29112L6.24301 4.23112L6.33932 4.15112C6.33932 4.14667 6.33932 4.14223 6.33932 4.14001V4.13556V4.13112L6.27437 4.13556C6.26317 4.13556 6.24973 4.14001 6.24973 4.14001C6.24525 4.14445 6.24077 4.15112 6.24077 4.16001V4.1689H6.23629L6.23182 4.07778H6.23629V4.08667C6.23629 4.09556 6.24077 4.10223 6.24749 4.10667C6.25197 4.11112 6.25869 4.11112 6.27213 4.11112L6.41322 4.10223C6.42442 4.10223 6.43786 4.09778 6.43786 4.09778C6.44234 4.09334 6.44682 4.08667 6.44682 4.07778V4.06889H6.45129L6.45577 4.14889C6.45577 4.17334 6.45577 4.1889 6.45129 4.20001C6.44682 4.21112 6.44234 4.22001 6.43562 4.2289C6.4289 4.23778 6.41546 4.24001 6.40426 4.24001C6.39307 4.24001 6.37963 4.23556 6.36843 4.2289C6.35723 4.22001 6.35275 4.2089 6.34379 4.1889L6.28333 4.23778C6.27213 4.2489 6.25869 4.25778 6.25421 4.26667C6.25197 4.27112 6.24749 4.28001 6.24749 4.29112ZM6.35275 4.13112C6.35275 4.13556 6.35275 4.13556 6.35275 4.13556V4.14001C6.35275 4.16001 6.36171 4.17556 6.36843 4.1889C6.37739 4.20001 6.38859 4.20445 6.40426 4.20445C6.41546 4.20445 6.4289 4.20001 6.43562 4.1889C6.44458 4.18001 6.44682 4.1689 6.44682 4.15334C6.44682 4.14445 6.44682 4.13778 6.44234 4.12889L6.35275 4.13112ZM6.41322 4.58001L6.39307 4.65112H6.38859V4.64668C6.38859 4.64223 6.38859 4.63779 6.38859 4.63556C6.38859 4.63112 6.38411 4.62445 6.37963 4.62001C6.37515 4.61556 6.37067 4.6089 6.36395 4.60001L6.29452 4.5289L6.24301 4.51779C6.23182 4.51334 6.22286 4.51334 6.21838 4.51334C6.2139 4.51779 6.20942 4.52223 6.20718 4.5289V4.53779H6.2027L6.22734 4.4489H6.23182V4.45779C6.22734 4.46667 6.23182 4.47334 6.23629 4.47779C6.24077 4.48223 6.24525 4.48667 6.25645 4.48667L6.30572 4.49779L6.41098 4.46223C6.42218 4.45779 6.43114 4.45334 6.43562 4.45334C6.4401 4.45334 6.44458 4.4489 6.44682 4.44223C6.44682 4.44223 6.45129 4.43779 6.45129 4.43334H6.45577L6.43114 4.52445H6.42666V4.52001C6.42666 4.51556 6.42666 4.51112 6.42666 4.50445C6.42666 4.50001 6.42218 4.49556 6.4177 4.49556C6.41322 4.49556 6.4065 4.49556 6.39307 4.50001L6.31244 4.5289L6.36843 4.5889C6.37739 4.59779 6.38411 4.60001 6.38859 4.60445C6.39307 4.60445 6.39307 4.60445 6.39754 4.60445C6.40202 4.60445 6.40202 4.60001 6.4065 4.60001C6.41098 4.59556 6.41098 4.59112 6.41098 4.5889L6.41322 4.58001Z" fill="black"/>
<path d="M5.92188 4.40896C5.94216 4.40451 5.97822 4.40896 5.97822 4.40896C5.97822 4.40896 5.98272 4.42451 5.9692 4.42896C5.98047 4.4334 6.01878 4.4334 6.01878 4.4334C6.01878 4.4334 6.00301 4.44452 5.9985 4.44896C6.00977 4.44896 6.0278 4.46896 6.0278 4.46896C6.0278 4.46896 5.99625 4.47341 5.98272 4.46452C5.99174 4.48007 5.99174 4.49563 5.99174 4.49563C5.99174 4.49563 5.94216 4.48452 5.92188 4.45118" fill="#96877D"/>
<path d="M5.9985 4.49609H5.99399C5.98949 4.49609 5.94216 4.48498 5.92188 4.4472L5.93089 4.44276C5.94216 4.4672 5.98047 4.47832 5.99174 4.48276C5.99174 4.47832 5.99174 4.4672 5.98272 4.45831L5.97822 4.4472L5.98949 4.45609C5.9985 4.46054 6.01428 4.46054 6.02104 4.46054C6.01653 4.45609 6.00526 4.44943 6.00075 4.44943H5.99174L6.00301 4.44054C6.00751 4.44054 6.01202 4.43609 6.01428 4.43165C6.00301 4.43165 5.98498 4.43165 5.97822 4.4272L5.9692 4.42276L5.97822 4.41831C5.98272 4.41387 5.98272 4.40942 5.98272 4.4072C5.97371 4.4072 5.94667 4.40276 5.93089 4.4072V4.40053C5.95117 4.39609 5.98723 4.40053 5.98723 4.40053H5.99174V4.40498C5.99174 4.40498 5.99625 4.41609 5.98723 4.42498C5.9985 4.42942 6.01653 4.42942 6.0278 4.42498H6.03907L6.0278 4.43387C6.0278 4.43387 6.01878 4.43831 6.01202 4.44498C6.02329 4.44943 6.03681 4.46054 6.03681 4.46054L6.04132 4.46498H6.03231C6.03231 4.46498 6.00751 4.46943 5.99625 4.46498C6.00075 4.47609 6.00075 4.48943 6.00075 4.48943V4.49609H5.9985Z" fill="black"/>
<path d="M5.84165 4.37997C5.83038 4.40886 5.74023 4.35553 5.74023 4.35553C5.74023 4.35553 5.7808 4.41553 5.83714 4.42442" fill="#96877D"/>
<path d="M5.83579 4.42852C5.77494 4.41963 5.73438 4.35963 5.73438 4.35741L5.73888 4.35297C5.75917 4.36408 5.80875 4.39297 5.82903 4.38408C5.83354 4.38408 5.83354 4.37963 5.83354 4.37963L5.84255 4.38408C5.83804 4.38852 5.83804 4.39297 5.83128 4.39519C5.811 4.40408 5.77494 4.38408 5.75466 4.37074C5.77043 4.39074 5.79973 4.41963 5.8403 4.42186L5.83579 4.42852Z" fill="black"/>
<path d="M4.72755 4.94902H5.7712L5.85182 4.88458L5.71969 4.81347L5.51365 4.74458L5.43302 4.70013L5.28073 4.70902L5.15083 4.77791L4.97391 4.79791L4.93359 4.8468L4.8037 4.85791L4.59766 4.85347L4.94031 4.90458L4.65812 4.88902L4.72755 4.94902Z" fill="#96877D"/>
<path d="M5.77177 4.95153H4.72365L4.64302 4.88042L4.85578 4.89153L4.59375 4.85153V4.84486L4.79979 4.84931L4.92969 4.83819L4.97 4.78931L5.14245 4.76931L5.27234 4.70042L5.42464 4.69153L5.50526 4.73597L5.7113 4.80486L5.8524 4.88042L5.77177 4.95153ZM4.72813 4.94486H5.76729L5.84344 4.88486L5.71354 4.81597L5.5075 4.74708L5.42687 4.70264L5.27682 4.71153L5.14693 4.78042L4.97448 4.80042L4.93417 4.84931L4.80427 4.86042L4.6587 4.85597L4.94089 4.90042V4.90931L4.6699 4.89819L4.72813 4.94486Z" fill="black"/>
<path d="M5.28674 4.64867C5.15685 4.57978 5.11654 4.74867 5.06055 4.79312C5.13669 4.80423 5.19268 4.73756 5.25763 4.702C5.3069 4.83312 5.38752 4.74645 5.38752 4.74645C5.38752 4.74645 5.46815 4.87534 5.57789 4.81534C5.607 4.83978 5.63836 4.81978 5.63836 4.81978C5.63836 4.81978 5.67867 4.82867 5.68763 4.80867C5.70778 4.81756 5.73242 4.78867 5.73242 4.78867C5.73242 4.78867 5.77721 4.78867 5.78393 4.76423C5.85335 4.77534 5.93622 4.62867 5.93622 4.62867L5.96533 4.57756L6.00564 4.56867C6.00564 4.56867 6.01012 4.54423 5.98549 4.54423C5.98549 4.52867 5.97429 4.51978 5.95413 4.52423C5.95861 4.51534 5.94294 4.50867 5.94294 4.50867C5.9071 4.51756 5.90262 4.61311 5.90262 4.61311C5.90262 4.61311 5.83768 4.662 5.81304 4.67312C5.81304 4.622 5.72122 4.54867 5.74138 4.51311C5.76153 4.47756 5.81752 4.56423 5.87127 4.54867C5.92502 4.53311 5.94742 4.46867 5.94742 4.41756C5.93174 4.382 5.89815 4.32645 5.89815 4.32645L5.86679 4.322L5.83768 4.25311C5.83768 4.25311 5.77721 4.29311 5.77721 4.32422C5.77721 4.35978 5.84216 4.38867 5.84216 4.38867C5.84216 4.38867 5.80632 4.41311 5.77273 4.39978C5.76825 4.43534 5.81304 4.42867 5.82872 4.42867C5.83768 4.45311 5.86007 4.46867 5.86007 4.46867C5.86007 4.46867 5.87575 4.50867 5.83544 4.50423C5.79513 4.49978 5.74585 4.40867 5.68987 4.45311C5.6294 4.49756 5.71898 4.582 5.71898 4.582C5.71898 4.582 5.66747 4.61089 5.63388 4.682C5.50622 4.57089 5.43232 4.61978 5.28674 4.64867Z" fill="#96877D"/>
<path d="M5.52276 4.83536C5.45333 4.83536 5.40182 4.77092 5.39062 4.75092C5.38167 4.75981 5.35479 4.78203 5.32568 4.77536C5.30104 4.77092 5.27641 4.74647 5.26073 4.70425C5.24505 4.71314 5.2249 4.7287 5.20922 4.73981C5.16443 4.77092 5.11964 4.80425 5.06365 4.79536H5.05469L5.06365 4.79092C5.07932 4.77981 5.095 4.75536 5.10844 4.73092C5.14875 4.67092 5.19802 4.59536 5.28984 4.64647C5.31448 4.64203 5.33911 4.63536 5.36151 4.63092C5.45781 4.60647 5.53172 4.58647 5.63474 4.67536C5.66385 4.61981 5.69969 4.59092 5.71536 4.58425C5.70417 4.57314 5.66609 4.53314 5.67057 4.49536C5.67057 4.47981 5.67953 4.46647 5.69521 4.45536C5.73552 4.42647 5.76687 4.45536 5.79599 4.47981C5.81167 4.49092 5.82734 4.50869 5.84078 4.50869C5.85198 4.50869 5.85646 4.50869 5.86094 4.50425C5.86542 4.49536 5.86542 4.48869 5.86094 4.47981C5.85646 4.47536 5.8363 4.46425 5.82958 4.44425H5.8251C5.80943 4.44425 5.78927 4.44425 5.77583 4.43314C5.77135 4.42869 5.76687 4.42203 5.76687 4.40869V4.40425H5.77135C5.79599 4.41314 5.82062 4.3998 5.83182 4.39536C5.81614 4.38647 5.77583 4.36425 5.77135 4.33092C5.77135 4.29536 5.83182 4.25536 5.83182 4.25536L5.8363 4.25092L5.86542 4.32203L5.89677 4.32647C5.89677 4.33092 5.9326 4.38647 5.94604 4.41758C5.94156 4.47314 5.91693 4.53758 5.86542 4.55314C5.8363 4.56203 5.80943 4.54203 5.78479 4.52425C5.76911 4.51314 5.75568 4.50425 5.74448 4.50869C5.74448 4.50869 5.74 4.50869 5.73552 4.51314C5.72656 4.52869 5.74672 4.55758 5.76687 4.58425C5.78703 4.61314 5.80271 4.63981 5.80719 4.66425C5.83182 4.64869 5.87885 4.61536 5.88781 4.60869C5.88781 4.59314 5.89229 4.51314 5.92812 4.50425C5.9326 4.50869 5.93932 4.51314 5.93932 4.51981C5.94828 4.51981 5.955 4.51981 5.96396 4.52869C5.96844 4.53314 5.97292 4.53758 5.97292 4.54425C5.97739 4.54425 5.98187 4.54869 5.98411 4.54869C5.99307 4.55758 5.99307 4.57314 5.99307 4.57314V4.57758L5.95276 4.58647L5.92812 4.63536C5.92364 4.64425 5.84302 4.77536 5.77807 4.77536H5.77359C5.76239 4.79536 5.7288 4.79536 5.72208 4.79981C5.7176 4.80425 5.69745 4.82425 5.67729 4.81981C5.66609 4.83536 5.63698 4.83092 5.62802 4.8287C5.61906 4.83314 5.59219 4.84425 5.56307 4.8287C5.55859 4.83092 5.53844 4.83536 5.52276 4.83536ZM5.38839 4.73981L5.39286 4.74425C5.39734 4.7487 5.47349 4.8687 5.57875 4.81314H5.58323H5.58771C5.61682 4.83314 5.6437 4.81758 5.6437 4.81314C5.6549 4.81314 5.67953 4.81758 5.68849 4.80425V4.79981H5.69297C5.70864 4.8087 5.73328 4.78425 5.73328 4.78425C5.73328 4.78425 5.77359 4.78425 5.78255 4.76425V4.75981H5.78703C5.79151 4.75981 5.79151 4.75981 5.79599 4.75981C5.85646 4.75981 5.93708 4.62869 5.94156 4.62869L5.97068 4.57758L6.00651 4.56869C6.00651 4.56425 6.00651 4.55758 6.00203 4.55758C5.99755 4.55314 5.99755 4.55314 5.99307 4.55314H5.98859V4.54869C5.98859 4.54425 5.98411 4.53981 5.98411 4.53758C5.97963 4.53314 5.97292 4.53314 5.95948 4.53314H5.95052L5.955 4.52425C5.955 4.51981 5.95052 4.51536 5.94604 4.51314C5.91693 4.52203 5.91469 4.58425 5.91021 4.61314C5.90573 4.61758 5.84526 4.66203 5.82062 4.67314L5.81614 4.67758V4.6687C5.81614 4.64425 5.79599 4.61758 5.77583 4.58869C5.75568 4.55758 5.73104 4.52869 5.74448 4.50869C5.74896 4.50425 5.75344 4.49981 5.75568 4.49981C5.76687 4.49536 5.78479 4.50869 5.80047 4.51981C5.8251 4.53536 5.84974 4.55092 5.87213 4.54425C5.91693 4.52869 5.9438 4.46869 5.94828 4.41536C5.93708 4.38425 5.90797 4.33536 5.89901 4.32647L5.86766 4.32203L5.83854 4.25314C5.82734 4.26203 5.78255 4.29314 5.78703 4.32203C5.78703 4.35314 5.8475 4.38203 5.8475 4.38203L5.85646 4.38647L5.8475 4.39092C5.8475 4.39092 5.81167 4.41092 5.77807 4.40647C5.77807 4.41092 5.77807 4.41536 5.78255 4.41758C5.79151 4.42647 5.81167 4.42647 5.82286 4.42647C5.82734 4.42647 5.83182 4.42647 5.83182 4.42647H5.8363V4.43092C5.84526 4.45536 5.86766 4.46647 5.86766 4.46647C5.86766 4.46647 5.87661 4.48647 5.86766 4.49758C5.86318 4.50647 5.85198 4.50869 5.83854 4.50647C5.82286 4.50647 5.80719 4.49092 5.78927 4.47758C5.76016 4.45314 5.7288 4.42869 5.69745 4.45314C5.68625 4.46203 5.67729 4.47314 5.67729 4.48869C5.67281 4.52869 5.72208 4.57758 5.72656 4.57758L5.73104 4.58203L5.72656 4.58647C5.72656 4.58647 5.67505 4.61536 5.64146 4.68203L5.63698 4.68647L5.6325 4.68203C5.52724 4.59314 5.46229 4.61314 5.36151 4.63758C5.33687 4.64203 5.31224 4.64869 5.28984 4.65314C5.20026 4.60425 5.15771 4.67314 5.1174 4.73314C5.1062 4.75314 5.08828 4.77314 5.07708 4.7887C5.12635 4.79314 5.16667 4.76425 5.20698 4.73314C5.22714 4.72203 5.24281 4.70425 5.26297 4.69314L5.26745 4.68869V4.69314C5.28312 4.73758 5.30328 4.75758 5.32792 4.76425C5.36151 4.77092 5.38839 4.73981 5.38839 4.73981Z" fill="black"/>
<path d="M5.10283 4.4683C5.15434 4.51941 5.1185 4.59941 5.13866 4.61719C5.1633 4.63275 5.19017 4.6083 5.19017 4.6083C5.24616 4.62386 5.34694 4.59275 5.34694 4.59275C5.39173 4.61719 5.37606 4.58164 5.39845 4.58164C5.42309 4.64164 5.50371 4.63053 5.50371 4.63053C5.50371 4.63053 5.43205 4.55941 5.38726 4.53497C5.35142 4.55497 5.25064 4.55941 5.23496 4.55497C5.21481 4.55053 5.22601 4.52608 5.21929 4.51497C5.25512 4.47941 5.22824 4.39053 5.20809 4.35941C5.12298 4.30386 5.02444 4.39497 5.10283 4.4683Z" fill="#96877D"/>
<path d="M5.49276 4.63583C5.46813 4.63583 5.42109 4.63139 5.40094 4.58694C5.39198 4.58694 5.39198 4.59139 5.38974 4.59583C5.38078 4.60472 5.37854 4.61139 5.34943 4.60028C5.33823 4.60472 5.24865 4.62916 5.19266 4.61583C5.1837 4.62028 5.15682 4.64028 5.13667 4.62472C5.12771 4.61583 5.12771 4.60028 5.12771 4.58028C5.12771 4.54917 5.13219 4.50472 5.0986 4.47583C5.05828 4.44028 5.06724 4.40028 5.0874 4.37583C5.11203 4.34472 5.16354 4.32694 5.20833 4.36028C5.22849 4.39583 5.25761 4.48472 5.21953 4.52028C5.22401 4.52472 5.22401 4.53139 5.22401 4.54028C5.22401 4.55139 5.22401 4.55583 5.23297 4.55583C5.24865 4.56028 5.34943 4.55583 5.38302 4.53583C5.42781 4.55583 5.49948 4.62694 5.50396 4.63139L5.50844 4.63583H5.49724C5.5062 4.63583 5.50172 4.63583 5.49276 4.63583ZM5.40094 4.57583H5.40542V4.58028C5.42109 4.62472 5.47484 4.62916 5.495 4.62916C5.47484 4.61361 5.42333 4.56028 5.38526 4.54028C5.34943 4.56028 5.24865 4.56472 5.23297 4.56028C5.21729 4.55583 5.21729 4.54472 5.21729 4.53583C5.21729 4.52694 5.21729 4.52472 5.21281 4.52028V4.51583L5.21729 4.51139C5.25313 4.47583 5.22177 4.39139 5.2061 4.36028C5.1613 4.33139 5.11651 4.34917 5.09412 4.37139C5.07844 4.39139 5.06948 4.42694 5.10531 4.46028C5.14115 4.49139 5.13667 4.53583 5.13667 4.57139C5.13667 4.59139 5.13667 4.60694 5.14115 4.61139C5.1613 4.62694 5.19042 4.6025 5.19042 4.6025C5.24641 4.61805 5.34271 4.58694 5.34271 4.58694C5.36735 4.59805 5.36734 4.59583 5.37406 4.58694C5.38526 4.58472 5.3875 4.57583 5.40094 4.57583Z" fill="black"/>
<path d="M4.7433 4.31567C4.67387 4.33567 4.55741 4.22678 4.5059 4.26678C4.45439 4.30678 4.47679 4.40678 4.51486 4.45567C4.55069 4.50455 4.46335 4.52011 4.43872 4.55122C4.41408 4.58011 4.44767 4.60678 4.44767 4.60678L4.47231 4.62233L4.46783 4.65789L4.47903 4.70233C4.47903 4.70233 4.49023 4.71344 4.4947 4.69789C4.5059 4.709 4.4947 4.74233 4.52382 4.74677C4.51486 4.72677 4.53278 4.66677 4.53278 4.66677C4.53278 4.66677 4.58205 4.67122 4.59325 4.65122C4.60444 4.63122 4.58205 4.58233 4.58205 4.58233H4.59773C4.58205 4.57122 4.57757 4.53789 4.57757 4.53789C4.57757 4.53789 4.647 4.51789 4.647 4.46678C4.647 4.41567 4.53726 4.36233 4.57757 4.33567C4.62236 4.30678 4.69851 4.41122 4.76793 4.36456C4.83288 4.31567 4.79257 4.36456 4.79257 4.36456C4.79257 4.36456 4.81273 4.30011 4.7433 4.31567Z" fill="#96877D"/>
<path d="M4.52954 4.75562H4.52058C4.50043 4.75118 4.49595 4.73562 4.49595 4.72451C4.49595 4.72007 4.49595 4.71562 4.49147 4.7134L4.48699 4.71785C4.47803 4.71785 4.47579 4.7134 4.47131 4.7134L4.46012 4.66896L4.46459 4.63784L4.43996 4.62229C4.42876 4.61118 4.41084 4.58229 4.431 4.55784C4.43996 4.54896 4.45564 4.54229 4.46683 4.52896C4.48699 4.51784 4.50715 4.50451 4.51163 4.48896C4.51163 4.48007 4.51163 4.4734 4.50267 4.46451C4.46236 4.4134 4.4422 4.3134 4.49371 4.26895C4.52506 4.24451 4.57433 4.26895 4.6236 4.28895C4.66392 4.30451 4.70423 4.32451 4.73558 4.31784C4.75574 4.3134 4.77142 4.3134 4.78037 4.32229C4.78485 4.33118 4.78933 4.33784 4.78485 4.34673C4.78933 4.34673 4.78933 4.34673 4.78933 4.34673C4.78933 4.35118 4.79381 4.35118 4.77813 4.37118L4.76918 4.36673C4.76918 4.36673 4.76918 4.36229 4.77366 4.35784C4.76918 4.36229 4.76246 4.36673 4.7535 4.36896C4.71319 4.39784 4.67288 4.37784 4.63704 4.35784C4.60793 4.34229 4.58553 4.32895 4.56538 4.34229C4.5609 4.34673 4.55642 4.34673 4.55642 4.35118C4.55642 4.36229 4.57209 4.38007 4.58777 4.40007C4.60793 4.42451 4.63256 4.44896 4.63704 4.47118C4.63704 4.52007 4.58553 4.54007 4.56762 4.54673C4.56762 4.55562 4.57657 4.57784 4.58777 4.58673L4.59897 4.59562H4.57881C4.58777 4.60673 4.59897 4.64451 4.58777 4.66007C4.57657 4.68007 4.5385 4.68007 4.5273 4.68007C4.52282 4.69562 4.51611 4.73562 4.51834 4.75118L4.52954 4.75562ZM4.48923 4.69562L4.49371 4.70007C4.49819 4.70451 4.50267 4.71118 4.50267 4.72007C4.50715 4.73118 4.50715 4.74007 4.51387 4.74451C4.50939 4.72007 4.52282 4.6734 4.52282 4.6734V4.66896H4.5273C4.5385 4.66896 4.57657 4.66896 4.58329 4.6534C4.59001 4.63784 4.57881 4.60229 4.57209 4.58896L4.56762 4.58451H4.57881C4.56762 4.56896 4.56314 4.54451 4.56314 4.54451V4.54007H4.56762C4.56762 4.54007 4.63256 4.52007 4.63256 4.47118C4.63256 4.44673 4.60793 4.42229 4.58777 4.40229C4.56761 4.38229 4.55194 4.36673 4.55194 4.35118C4.55194 4.34229 4.55642 4.34007 4.56314 4.33562C4.58329 4.32007 4.61241 4.33562 4.64376 4.35118C4.67959 4.37118 4.71543 4.39118 4.7535 4.36229C4.7647 4.3534 4.77366 4.34673 4.78261 4.34229C4.78261 4.3334 4.78261 4.32673 4.77813 4.31784C4.76918 4.30895 4.7535 4.3134 4.74678 4.3134C4.71543 4.32229 4.67064 4.30451 4.63032 4.28451C4.58553 4.26451 4.5385 4.24451 4.50939 4.26451C4.45788 4.30007 4.48027 4.39562 4.51834 4.44896C4.5273 4.46007 4.52954 4.46896 4.5273 4.47784C4.52282 4.49784 4.49819 4.50896 4.47803 4.52229C4.46236 4.53118 4.44892 4.53784 4.4422 4.54673C4.42204 4.57118 4.45116 4.59784 4.45116 4.59784L4.48027 4.6134L4.47579 4.64896L4.48699 4.68896L4.49147 4.6934L4.49595 4.68896L4.48923 4.69562Z" fill="black"/>
<path d="M5.09494 3.59892C5.00536 3.56337 4.82172 3.55892 4.71646 3.50781C4.67166 3.51226 4.65151 3.54781 4.64703 3.55892C4.59776 3.55448 4.5664 3.63004 4.57536 3.64781C4.49026 3.61226 4.44995 3.74781 4.47906 3.7767C4.4074 3.78115 4.41411 3.87226 4.4074 3.8967C4.38276 3.95226 4.41187 3.97226 4.45891 3.95226C4.46786 3.9767 4.45443 3.99226 4.43427 3.9967C4.56417 4.14115 4.63135 3.90781 4.74557 3.90781C4.88666 3.86781 4.93817 3.79892 4.93817 3.79892L4.99416 3.80781L5.09494 3.59892Z" fill="#96877D"/>
<path d="M4.51534 4.04908C4.48399 4.04908 4.45935 4.03352 4.43024 4.00019L4.42576 3.99575H4.43472C4.44367 3.9913 4.45039 3.98686 4.45487 3.98464C4.45935 3.98019 4.45935 3.97352 4.45935 3.96464C4.43472 3.97352 4.41904 3.97352 4.40784 3.96464C4.39888 3.95575 4.39216 3.94019 4.40784 3.90464C4.40784 3.90019 4.40784 3.89352 4.41232 3.88464C4.4168 3.84908 4.42128 3.78908 4.47727 3.78019C4.46607 3.76019 4.47279 3.71575 4.49295 3.68464C4.5131 3.65352 4.54446 3.64019 4.57805 3.65352C4.57805 3.64241 4.58701 3.62241 4.59821 3.60464C4.60716 3.59352 4.62732 3.56908 4.6542 3.56908C4.65867 3.55353 4.67883 3.52019 4.72362 3.51797C4.77961 3.54686 4.86024 3.55797 4.93638 3.56908C5.00133 3.58019 5.0618 3.58908 5.10211 3.60464H5.10659V3.60908L5.00581 3.81797L4.94982 3.80908C4.94086 3.82019 4.88487 3.88019 4.75722 3.91797C4.7169 3.91797 4.68107 3.95352 4.64524 3.98686C4.59597 4.0113 4.56013 4.04908 4.51534 4.04908ZM4.44144 3.99575C4.46607 4.02464 4.49071 4.03575 4.5131 4.03575H4.51758C4.55789 4.03575 4.58925 4.00464 4.62732 3.9713C4.66315 3.93575 4.70347 3.90241 4.74826 3.90241C4.88487 3.86241 4.93862 3.79352 4.94086 3.79352L4.99237 3.80241L5.08867 3.60241C5.04836 3.58686 4.99237 3.57797 4.9319 3.56686C4.85576 3.55575 4.77513 3.54241 4.71914 3.51575C4.67435 3.52019 4.65867 3.5513 4.65867 3.56464V3.56908H4.6542C4.62956 3.56908 4.6094 3.58908 4.60269 3.60019C4.59149 3.62019 4.58253 3.64019 4.58701 3.64908L4.59149 3.65797L4.58253 3.65352C4.54222 3.63797 4.5131 3.66464 4.5019 3.68241C4.47727 3.71797 4.47279 3.76241 4.49071 3.77352L4.49966 3.78241H4.49071C4.43472 3.78686 4.43024 3.84241 4.42576 3.87797C4.42576 3.88686 4.42576 3.89352 4.42128 3.90241C4.41008 3.92686 4.41008 3.94686 4.42128 3.95352C4.43024 3.96241 4.44591 3.96241 4.47055 3.95352H4.47503V3.95797C4.47951 3.96908 4.47951 3.98241 4.47503 3.98908C4.45487 3.98908 4.45039 3.99575 4.44144 3.99575Z" fill="black"/>
<path d="M5.20635 3.62642C5.27933 3.62642 5.33849 3.56772 5.33849 3.49531C5.33849 3.4229 5.27933 3.3642 5.20635 3.3642C5.13338 3.3642 5.07422 3.4229 5.07422 3.49531C5.07422 3.56772 5.13338 3.62642 5.20635 3.62642Z" fill="#96877D"/>
<path d="M5.20693 3.63146C5.13078 3.63146 5.07031 3.57146 5.07031 3.49591C5.07031 3.42035 5.13078 3.36035 5.20693 3.36035C5.28308 3.36035 5.34354 3.42035 5.34354 3.49591C5.34578 3.57146 5.28531 3.63146 5.20693 3.63146ZM5.20693 3.36924C5.13526 3.36924 5.07703 3.4248 5.07703 3.49813C5.07703 3.56924 5.13302 3.62702 5.20693 3.62702C5.2786 3.62702 5.33683 3.57146 5.33683 3.49813C5.33683 3.4248 5.28084 3.36924 5.20693 3.36924Z" fill="black"/>
<path d="M4.97315 4.53516C4.89253 4.5196 4.75591 4.43516 4.74023 4.32405C4.81638 4.02405 5.21503 4.1796 5.24862 3.95516C5.23966 3.80627 5.2643 3.6596 5.3494 3.53516C5.38971 3.48627 5.43898 3.47516 5.43898 3.47516C5.43898 3.47516 5.44794 3.50627 5.43451 3.52627C5.49945 3.51738 5.59128 3.55516 5.65175 3.55738C5.66742 3.59294 5.66742 3.60627 5.66294 3.62849C5.65846 3.65071 5.63383 3.64405 5.63383 3.64405C5.61815 3.6596 5.598 3.67516 5.55768 3.66849C5.52633 3.69294 5.4569 3.6996 5.4569 3.6996C5.4569 3.6996 5.60247 3.85071 5.57784 3.89516C5.60695 3.90627 5.64951 3.97516 5.64951 3.97516C5.64951 3.97516 5.74581 3.92405 5.7794 3.87516C5.83539 3.87516 5.92945 3.93516 5.97649 3.9396C6.03248 3.98405 6.08846 4.03071 6.08846 4.03071C6.08846 4.03071 6.01904 4.07516 5.99216 4.01516C5.95633 4.0196 5.88018 3.93516 5.77492 3.9596C5.77044 4.05071 5.66518 4.1196 5.66518 4.1196C5.66518 4.1196 5.76149 4.10849 5.81524 4.1396C5.87122 4.18849 5.95185 4.24849 5.95185 4.24849L6.02352 4.37294C6.02352 4.37294 5.95857 4.38405 5.93169 4.30183C5.90706 4.37072 5.90706 4.25738 5.80628 4.20627C5.77716 4.21071 5.76149 4.21072 5.73685 4.19072C5.66518 4.21072 5.58456 4.25072 5.48378 4.2396C5.41211 4.26405 5.36284 4.3196 5.29117 4.35072C5.21951 4.38183 5.19935 4.36627 5.19935 4.36627L5.14336 4.37071C5.1344 4.40627 5.13888 4.4596 5.10753 4.46627C5.12768 4.48627 5.09185 4.57738 5.05826 4.59516C5.07393 4.65516 5.1232 4.67072 5.17471 4.70405C5.17471 4.70405 5.21951 4.68405 5.24638 4.71294C5.2755 4.74183 5.30685 4.81738 5.30685 4.81738C5.30685 4.81738 5.24638 4.82183 5.22622 4.81294C5.20607 4.80405 5.20607 4.78405 5.18143 4.78849C5.04034 4.66405 4.96867 4.71294 4.95523 4.68405C4.9418 4.6596 4.98883 4.58405 4.97315 4.53516Z" fill="#96877D"/>
<path d="M5.27607 4.82421C5.25591 4.82421 5.23576 4.82421 5.2268 4.81976C5.21784 4.81532 5.2156 4.81088 5.20664 4.80865C5.19768 4.79976 5.19544 4.79754 5.18201 4.79976H5.17753C5.0857 4.71976 5.02523 4.71088 4.98492 4.71088C4.96477 4.71088 4.95357 4.70643 4.94909 4.69976C4.94013 4.68421 4.94909 4.65976 4.95805 4.63088C4.96701 4.60199 4.97372 4.57088 4.96924 4.54643C4.87966 4.53088 4.74753 4.43754 4.73633 4.33088C4.77664 4.17088 4.91326 4.13976 5.02971 4.11088C5.13497 4.08643 5.2268 4.06643 5.24247 3.96199C5.23352 3.79754 5.26711 3.6531 5.34326 3.53754C5.38357 3.48865 5.43284 3.4731 5.43508 3.4731H5.43956V3.47754C5.43956 3.47754 5.44852 3.50643 5.43956 3.52643C5.47539 3.52199 5.52018 3.53532 5.56497 3.54199C5.59633 3.55087 5.62544 3.55754 5.65008 3.55754H5.65456V3.56199C5.67471 3.59754 5.67023 3.6131 5.66576 3.63754C5.66576 3.64643 5.66128 3.64865 5.65456 3.6531C5.64784 3.65754 5.63888 3.65754 5.6344 3.65754C5.61872 3.6731 5.59857 3.68643 5.55378 3.68199C5.52466 3.70199 5.48211 3.71088 5.46195 3.71088C5.49107 3.74199 5.59409 3.85532 5.57841 3.90199C5.60753 3.91754 5.63888 3.96643 5.64784 3.97754C5.66352 3.96865 5.74414 3.92199 5.77326 3.88199H5.77773C5.80909 3.88199 5.85836 3.90199 5.89867 3.91754C5.92779 3.92865 5.95466 3.94199 5.97482 3.94643C6.03081 3.99088 6.0868 4.03754 6.0868 4.03754L6.09128 4.04199L6.0868 4.04643C6.0868 4.04643 6.05096 4.07088 6.01737 4.06199C6.00169 4.05754 5.99273 4.05088 5.98602 4.0331C5.97482 4.0331 5.9569 4.02421 5.93675 4.0131C5.89643 3.9931 5.84044 3.96199 5.77549 3.97754C5.77102 4.0531 5.70607 4.10643 5.67919 4.12865C5.70831 4.12421 5.77549 4.12421 5.81581 4.14865C5.8718 4.1931 5.95242 4.25754 5.95242 4.25754L6.02857 4.38643H6.02409C6.02409 4.38643 5.95914 4.39532 5.93227 4.32199C5.92779 4.33088 5.92331 4.3331 5.92107 4.3331C5.91211 4.3331 5.90539 4.32421 5.89643 4.30865C5.88076 4.28421 5.85612 4.24421 5.80685 4.21754C5.77773 4.22199 5.76206 4.22199 5.73742 4.20199C5.72174 4.20643 5.70607 4.21088 5.68591 4.21754C5.62544 4.23754 5.56049 4.25754 5.48435 4.24865C5.44852 4.25976 5.41492 4.28421 5.37909 4.30865C5.34997 4.32865 5.3231 4.34865 5.28951 4.35976C5.22456 4.38865 5.19992 4.37976 5.1932 4.37532H5.14169C5.14169 4.38421 5.13721 4.39088 5.13721 4.40421C5.13273 4.4331 5.12826 4.45976 5.1081 4.4731C5.11258 4.48421 5.11258 4.50199 5.1081 4.5131C5.09914 4.54421 5.07898 4.58865 5.05659 4.60421C5.07227 4.6531 5.10586 4.66865 5.14617 4.6931C5.15513 4.69754 5.15737 4.70199 5.16633 4.70421C5.17529 4.69976 5.2156 4.68865 5.24247 4.7131C5.27159 4.74199 5.30294 4.8131 5.30294 4.81754L5.30742 4.82199H5.30294C5.30742 4.81976 5.29175 4.82421 5.27607 4.82421ZM5.19096 4.78421C5.20216 4.78421 5.20664 4.7931 5.2156 4.79532C5.22008 4.79976 5.22456 4.80421 5.23128 4.80643C5.24695 4.81532 5.28727 4.81088 5.30294 4.81088C5.29398 4.79532 5.27159 4.73532 5.24695 4.71532C5.21784 4.69088 5.17753 4.71088 5.17753 4.71088C5.16857 4.70643 5.16185 4.70199 5.15289 4.69976C5.11258 4.67532 5.07227 4.65532 5.05659 4.60421V4.59976H5.06107C5.08122 4.59088 5.10586 4.54865 5.11258 4.51088C5.11706 4.49532 5.11706 4.47976 5.1081 4.47532L5.10362 4.47088H5.11258C5.13273 4.46643 5.13721 4.43532 5.14169 4.40643C5.14169 4.39532 5.14617 4.38643 5.14617 4.37532V4.37088L5.20664 4.36643C5.20664 4.36643 5.2268 4.37754 5.29622 4.35088C5.32758 4.33532 5.35669 4.31976 5.38581 4.29976C5.42164 4.27532 5.45523 4.25088 5.49555 4.23976C5.57169 4.24865 5.63664 4.22865 5.69711 4.20865C5.71727 4.19976 5.73294 4.19754 5.74862 4.1931C5.77326 4.2131 5.78445 4.20865 5.81357 4.20421H5.81805C5.86732 4.2331 5.89419 4.2731 5.90987 4.29532C5.91883 4.30643 5.92107 4.31532 5.92555 4.31532C5.92555 4.31532 5.93003 4.31532 5.93675 4.29532L5.94122 4.28421L5.9457 4.29532C5.96586 4.35976 6.01065 4.36643 6.02633 4.36643L5.9569 4.25088C5.94794 4.24643 5.8718 4.18643 5.82029 4.14199C5.76878 4.11088 5.67471 4.12643 5.67023 4.12643L5.66576 4.11754C5.66576 4.11754 5.76654 4.04865 5.77102 3.96199V3.95754H5.77549C5.84716 3.94199 5.90539 3.96865 5.94794 3.9931C5.9681 4.00421 5.98378 4.0131 5.99721 4.0131H6.00169V4.01754C6.01065 4.0331 6.01737 4.04199 6.03081 4.04643C6.05096 4.05088 6.0756 4.04199 6.0868 4.03532C6.07112 4.02421 6.02633 3.98421 5.97706 3.94643C5.9569 3.94199 5.92779 3.93088 5.90091 3.91754C5.8606 3.90199 5.82029 3.88199 5.78893 3.88199C5.75758 3.93088 5.66352 3.97754 5.65904 3.97754H5.65456L5.65008 3.9731C5.65008 3.9731 5.60529 3.90865 5.57841 3.8931H5.57393V3.88865C5.59409 3.8531 5.49331 3.73754 5.45299 3.69754L5.44852 3.68865H5.45747C5.45747 3.68865 5.5269 3.67976 5.55826 3.65976C5.59857 3.66865 5.61425 3.65532 5.6344 3.63976H5.63888C5.63888 3.63976 5.65008 3.64421 5.65456 3.63532C5.65904 3.63088 5.65904 3.63088 5.66352 3.62421C5.66799 3.60421 5.66799 3.5931 5.65232 3.55532C5.62768 3.55532 5.60081 3.54643 5.56721 3.53976C5.52242 3.52865 5.47539 3.51976 5.43732 3.52421H5.42836L5.43284 3.51532C5.4418 3.49976 5.4418 3.47976 5.43732 3.46643C5.42612 3.47088 5.38581 3.48643 5.35669 3.52643C5.28055 3.63754 5.24695 3.78199 5.25591 3.94199C5.24023 4.05088 5.13945 4.0731 5.03867 4.09754C4.92221 4.12643 4.78784 4.1531 4.74753 4.30865C4.75872 4.4131 4.88862 4.49976 4.9782 4.51754V4.52199H4.98268L4.99164 4.53088H4.98268C4.98716 4.55532 4.9782 4.58643 4.97148 4.61532C4.96253 4.63976 4.95581 4.66421 4.96253 4.67532C4.96701 4.68421 4.97372 4.68421 4.99164 4.68421C5.02747 4.68865 5.09242 4.6931 5.18424 4.77532C5.18648 4.78421 5.18648 4.78421 5.19096 4.78421Z" fill="black"/>
<path d="M4.64011 3.98824C4.64907 3.97935 4.6961 3.99935 4.6961 3.99935L4.78792 4.05491L4.97829 4.17491L5.04772 4.27046L4.92678 4.23046L4.75657 4.08602L4.66698 4.03046C4.66698 4.03046 4.63115 3.99491 4.64011 3.98824Z" fill="#96877D"/>
<path d="M5.05863 4.28013L4.9265 4.23569L4.75629 4.09124L4.66671 4.03569C4.65103 4.02013 4.62639 3.99124 4.63759 3.98458C4.64655 3.97347 4.68686 3.98902 4.70254 3.99347L4.79436 4.05346L4.98473 4.17791L5.05863 4.28013ZM4.92874 4.23124L5.03848 4.2668L4.97801 4.17791L4.78764 4.05791L4.69582 4.00235C4.67119 3.99347 4.64655 3.9868 4.64431 3.99124C4.64431 3.99569 4.65551 4.01124 4.67343 4.03124L4.76301 4.0868L4.92874 4.23124Z" fill="black"/>
<path d="M5.7594 4.29611C5.69445 4.28055 5.5332 4.47611 5.5332 4.47611L5.65414 4.60722C5.65414 4.605 5.65862 4.38055 5.7594 4.29611Z" fill="#96877D"/>
<path d="M5.65948 4.61601L5.52734 4.47601L5.53182 4.47156C5.54078 4.46268 5.68188 4.29156 5.75354 4.29156C5.75802 4.29156 5.7625 4.29156 5.7625 4.29156H5.77146L5.76698 4.29601C5.6662 4.38045 5.66172 4.60045 5.66172 4.6049L5.65948 4.61601ZM5.53854 4.47156L5.65052 4.59157C5.65052 4.54712 5.6662 4.37601 5.7513 4.29601C5.69083 4.30045 5.5587 4.45156 5.53854 4.47156Z" fill="black"/>
<path d="M4.96297 3.7514C4.92714 3.79585 4.92266 3.88696 4.97193 3.92696C4.97641 3.98251 5.02344 4.09585 5.06151 4.10696C5.10182 4.11807 5.26755 4.15585 5.3325 4.14696C5.3213 4.2514 5.40193 4.3314 5.47807 4.38696C5.47807 4.39585 5.47807 4.40696 5.48703 4.41807C5.49599 4.42918 5.5363 4.42918 5.5363 4.42696C5.55198 4.4514 5.63708 4.46251 5.64604 4.4514C5.65052 4.44029 5.52063 4.3514 5.49375 4.32251C5.46911 4.27807 5.42208 4.17363 5.41313 4.09363C5.34818 4.01807 5.24068 4.01807 5.24068 4.01807L5.24516 3.86918L5.25411 3.70029L5.19365 3.66918C5.19365 3.66918 5.20484 3.66474 5.2138 3.65807C5.22948 3.66696 5.25411 3.63363 5.25859 3.62696C5.26979 3.6314 5.28771 3.6314 5.28771 3.62252C5.29219 3.61363 5.29219 3.58696 5.29667 3.5714C5.34146 3.5314 5.28771 3.44696 5.22052 3.44696C5.15109 3.44696 5.13542 3.52696 5.1399 3.53585C5.14885 3.56029 5.14438 3.57585 5.1399 3.58029C5.13542 3.58918 5.11078 3.60029 5.11078 3.60029C5.11078 3.60029 5.07495 3.58474 5.02568 3.60029C4.97641 3.61585 4.92937 3.64474 4.9249 3.6714C4.90474 3.67585 4.86891 3.70252 4.86443 3.72252C4.84427 3.71807 4.81964 3.73363 4.7838 3.79807C4.71214 3.82918 4.70766 3.98251 4.70766 3.98251C4.70766 3.98251 4.6875 4.0114 4.6875 4.02696C4.6875 4.04251 4.69646 4.05585 4.70318 4.0514C4.70318 4.06029 4.71437 4.0714 4.72333 4.06696C4.72781 4.07585 4.73901 4.08251 4.74797 4.07807C4.74797 4.08696 4.77708 4.08251 4.77932 4.07807C4.7838 4.06918 4.77484 4.03807 4.77932 4.03363C4.7838 4.02918 4.80396 4.04918 4.81068 4.04474C4.81964 4.04029 4.81068 4.02474 4.8062 4.02029C4.80172 4.01585 4.78156 4.00918 4.77708 3.98474C4.7726 3.96029 4.78828 3.92918 4.78828 3.92918C4.78828 3.92918 4.86443 3.86918 4.87339 3.81807C4.9137 3.82029 4.94505 3.7714 4.96297 3.7514Z" fill="#96877D"/>
<path d="M5.6237 4.45585C5.59458 4.45585 5.55203 4.44696 5.53187 4.42696H5.52739C5.5162 4.4314 5.48708 4.42696 5.47812 4.41585C5.46917 4.40474 5.46917 4.3914 5.46917 4.38474C5.36838 4.31363 5.31687 4.22918 5.32359 4.14918C5.25193 4.15807 5.0862 4.11807 5.05708 4.10918C5.01677 4.09807 4.9675 3.98474 4.96526 3.92918C4.92943 3.89807 4.92047 3.83363 4.94063 3.78474C4.92047 3.80474 4.89583 3.82474 4.86 3.82029C4.8488 3.86918 4.78385 3.92474 4.7749 3.9314C4.77042 3.93585 4.75922 3.96252 4.7637 3.98696C4.76818 4.00252 4.7749 4.0114 4.78385 4.01585C4.78833 4.02029 4.78833 4.02029 4.79281 4.02029C4.79729 4.02474 4.80401 4.04474 4.79729 4.0514C4.79281 4.05585 4.78161 4.05141 4.77266 4.04696C4.76818 4.04696 4.76818 4.04252 4.7637 4.04252C4.7637 4.04696 4.7637 4.05363 4.7637 4.05807C4.7637 4.06918 4.7637 4.07807 4.7637 4.08252C4.75922 4.0914 4.74354 4.09141 4.73458 4.09141C4.7301 4.09141 4.72563 4.08696 4.72563 4.08696C4.71667 4.08696 4.70547 4.08252 4.70099 4.07585C4.69651 4.07585 4.69651 4.07585 4.69203 4.0714C4.68755 4.06696 4.68083 4.06252 4.68083 4.06029C4.67635 4.06029 4.67635 4.06029 4.67188 4.05585C4.66292 4.0514 4.66068 4.04029 4.66292 4.02696C4.66292 4.0114 4.67859 3.98696 4.68307 3.98252C4.68307 3.96696 4.69203 3.8314 4.75922 3.79807C4.79057 3.74252 4.81969 3.71807 4.83984 3.72252C4.8488 3.69807 4.88016 3.67363 4.90031 3.6714C4.90479 3.64029 4.9563 3.61585 5.00557 3.60029C5.04589 3.58474 5.08172 3.59585 5.09068 3.60029C5.09963 3.59585 5.11531 3.58474 5.11531 3.58029C5.11979 3.57585 5.11979 3.56474 5.11531 3.54029C5.11531 3.53585 5.11979 3.50029 5.13995 3.47585C5.15562 3.45585 5.17578 3.44696 5.20042 3.44696C5.24521 3.44696 5.28104 3.47807 5.29224 3.51585C5.3012 3.54029 5.29672 3.56474 5.28104 3.58029C5.27656 3.58918 5.27656 3.60029 5.27208 3.6114C5.27208 3.62029 5.27208 3.62252 5.2676 3.62696C5.2676 3.6314 5.26312 3.6314 5.25864 3.63585C5.25417 3.64029 5.24297 3.64029 5.23401 3.63585C5.22953 3.64029 5.22281 3.64696 5.21833 3.65585C5.20937 3.66474 5.19818 3.66696 5.18922 3.66696C5.18474 3.6714 5.18026 3.6714 5.17802 3.67585L5.23401 3.70474L5.22505 3.87585L5.22057 4.02029C5.24073 4.02029 5.33703 4.02918 5.39302 4.09585C5.40422 4.17585 5.44901 4.27585 5.47364 4.32474C5.48484 4.33585 5.50948 4.35363 5.53859 4.37363C5.61922 4.43363 5.63489 4.44918 5.63041 4.45807C5.62594 4.46252 5.62146 4.46252 5.61474 4.46696C5.6237 4.45585 5.6237 4.45585 5.6237 4.45585ZM5.52963 4.4114L5.53411 4.42029C5.54531 4.43585 5.58338 4.44474 5.61026 4.44918C5.62594 4.44918 5.63042 4.44918 5.63489 4.44918C5.63042 4.43807 5.5789 4.40029 5.54531 4.37807C5.5162 4.35807 5.4938 4.33807 5.48036 4.32696C5.45573 4.27807 5.4087 4.17807 5.39526 4.09807C5.33031 4.02696 5.22505 4.02696 5.22505 4.02696H5.22057L5.22505 3.87585L5.23401 3.7114L5.16906 3.68029L5.17802 3.67585C5.17802 3.67585 5.18922 3.6714 5.1937 3.66474V3.66029H5.19818C5.20266 3.66029 5.20937 3.66029 5.22281 3.6514C5.23177 3.64252 5.23849 3.63585 5.23849 3.6314V3.62696H5.24297C5.25193 3.6314 5.25864 3.6314 5.26312 3.6314C5.26312 3.6314 5.26312 3.6314 5.26312 3.62696C5.26312 3.62252 5.26312 3.61807 5.2676 3.6114C5.2676 3.60029 5.27208 3.58696 5.27656 3.57585C5.29224 3.56474 5.29672 3.54029 5.28776 3.52029C5.27656 3.4914 5.24297 3.46029 5.20266 3.46029C5.1825 3.46029 5.16682 3.46918 5.15115 3.48029C5.13099 3.50474 5.12203 3.53585 5.12203 3.54029C5.13099 3.56474 5.12651 3.58029 5.12203 3.58918C5.11755 3.59807 5.09292 3.60918 5.09292 3.60918C5.09292 3.60918 5.05708 3.59363 5.01229 3.60918C4.97198 3.62474 4.91599 3.64918 4.91599 3.67807V3.68252H4.91151C4.89135 3.68696 4.86 3.7114 4.85104 3.73363V3.73807H4.8488C4.82865 3.73363 4.80401 3.75807 4.77266 3.80918C4.70323 3.83807 4.70099 3.98474 4.70099 3.98918C4.69651 3.99807 4.68083 4.01807 4.68083 4.02918C4.68083 4.03807 4.68531 4.04474 4.68979 4.04918C4.69427 4.04918 4.69427 4.04918 4.69427 4.04918H4.69875V4.05363C4.69875 4.05807 4.70323 4.06252 4.70771 4.06474C4.71219 4.06474 4.71219 4.06474 4.71219 4.06474L4.71667 4.06029V4.06474C4.71667 4.07363 4.72786 4.07585 4.73682 4.07585H4.7413V4.08029C4.7413 4.08029 4.74578 4.08029 4.75026 4.08029C4.75026 4.08029 4.75026 4.08029 4.75474 4.08029C4.7637 4.08029 4.76594 4.07585 4.76594 4.07585C4.76594 4.0714 4.76594 4.06474 4.76594 4.05585C4.76594 4.04029 4.76594 4.03585 4.76594 4.0314C4.77042 4.02696 4.7749 4.03141 4.78161 4.03585C4.78609 4.04029 4.79281 4.04474 4.79729 4.04474C4.79729 4.04474 4.79729 4.03363 4.79281 4.02474L4.78833 4.02029C4.77938 4.01585 4.76818 4.00918 4.7637 3.98918C4.75922 3.96474 4.7749 3.92918 4.7749 3.92918C4.7749 3.92918 4.85104 3.86918 4.86 3.82029V3.81585H4.86448C4.91375 3.82029 4.94062 3.78474 4.96078 3.76474C4.96526 3.76029 4.96526 3.75585 4.96974 3.75585L4.9787 3.76029C4.94286 3.80474 4.94286 3.8914 4.98766 3.92918C4.99214 3.98029 5.03917 4.09363 5.07276 4.10474C5.11307 4.11585 5.2788 4.15363 5.33927 4.14474H5.34375V4.14918C5.33479 4.22918 5.38406 4.30918 5.48484 4.38474V4.38918C5.48484 4.39807 5.48484 4.40918 5.4938 4.41807C5.50276 4.42696 5.52963 4.42918 5.53859 4.42696L5.52963 4.4114Z" fill="black"/>
<path d="M4.82812 3.5355C4.8438 3.49106 4.90875 3.4955 4.90875 3.4955C4.90875 3.4955 4.93339 3.4355 5.01849 3.47106C5.04985 3.44661 5.13495 3.48217 5.13495 3.48217C5.13495 3.48217 5.16631 3.43772 5.20662 3.44661C5.28277 3.4555 5.2962 3.52661 5.29172 3.53773C5.24693 3.54884 5.17526 3.50217 5.11927 3.51772C5.08792 3.53773 5.03417 3.55328 5.01401 3.58217C4.96474 3.58439 4.91323 3.53106 4.82812 3.5355Z" fill="#96877D"/>
<path d="M5.00901 3.58418C4.98885 3.58418 4.96422 3.57529 4.93958 3.56418C4.90823 3.55307 4.87463 3.53529 4.82984 3.53529H4.82536H4.81641L4.82089 3.53085C4.83656 3.49085 4.89031 3.49085 4.90599 3.49085C4.91047 3.48196 4.91719 3.47085 4.93734 3.46196C4.9575 3.45307 4.98661 3.45307 5.01797 3.4664C5.04932 3.4464 5.11875 3.47085 5.13443 3.47752C5.14338 3.46863 5.17026 3.43752 5.21057 3.44196C5.25536 3.4464 5.27552 3.47085 5.28672 3.49085C5.29791 3.51085 5.30239 3.53529 5.29791 3.54196H5.29344C5.27328 3.5464 5.24416 3.53752 5.21729 3.53085C5.18594 3.52196 5.15234 3.51529 5.12547 3.51974C5.11651 3.52418 5.10531 3.53085 5.09635 3.53529C5.06724 3.54641 5.03588 3.56418 5.02469 3.58418C5.01349 3.58418 5.01349 3.58418 5.00901 3.58418ZM4.83208 3.53085C4.87687 3.53085 4.90823 3.5464 4.94182 3.55974C4.97094 3.57085 4.99109 3.57974 5.01349 3.57974C5.02917 3.55974 5.06276 3.54418 5.08963 3.53085C5.10083 3.5264 5.10979 3.51974 5.12099 3.51529C5.15234 3.5064 5.18594 3.51974 5.21729 3.5264C5.2464 3.53529 5.2688 3.54196 5.28896 3.53752C5.28896 3.52863 5.28896 3.51307 5.27776 3.49752C5.26656 3.48196 5.2464 3.45752 5.20609 3.45307C5.16578 3.44863 5.13667 3.48863 5.13667 3.48863V3.49307H5.13219C5.13219 3.49307 5.04708 3.45752 5.02021 3.48196H5.01573C4.98661 3.47085 4.95974 3.4664 4.93958 3.47752C4.91943 3.4864 4.91047 3.5064 4.91047 3.5064V3.51085H4.90599C4.90823 3.49974 4.85224 3.49529 4.83208 3.53085Z" fill="black"/>
<path d="M4.98902 3.60865C5.00918 3.59754 5.05845 3.57754 5.0898 3.59976C5.12115 3.63532 5.1749 3.66865 5.1749 3.66865L5.23537 3.6931L5.26448 3.70865L5.24881 3.97754C5.19282 3.92199 5.14355 3.9131 5.10324 3.84643C5.08308 3.81754 5.09876 3.75088 5.06292 3.70643C5.02261 3.66421 4.9823 3.63088 4.98902 3.60865Z" fill="#96877D"/>
<path d="M5.2472 3.98864L5.23824 3.97975C5.21808 3.95531 5.19345 3.9442 5.17329 3.92864C5.14418 3.90864 5.1173 3.88864 5.09266 3.84864C5.08371 3.83753 5.08147 3.81753 5.07699 3.79309C5.07251 3.7642 5.06803 3.73309 5.04787 3.70865C5.03891 3.69754 5.02772 3.68865 5.01876 3.67754C4.99412 3.64865 4.96948 3.62643 4.97844 3.60643C4.9874 3.60198 5.04339 3.57087 5.08371 3.59754C5.11506 3.63309 5.16881 3.66642 5.16881 3.66642L5.2248 3.69087L5.25392 3.70642V3.71087L5.2472 3.98864ZM4.99412 3.60865C4.98964 3.6242 5.0098 3.64865 5.03443 3.67309C5.04339 3.68198 5.05459 3.69309 5.06355 3.7042C5.08371 3.73309 5.08818 3.7642 5.09266 3.79309C5.09714 3.81309 5.09714 3.83309 5.10386 3.8442C5.1285 3.8842 5.15537 3.89975 5.18449 3.91975C5.20465 3.93087 5.22032 3.94864 5.24048 3.9642L5.25616 3.70865L5.23152 3.69309L5.17553 3.66865C5.17553 3.66865 5.12402 3.63309 5.08595 3.59754C5.05459 3.57531 5.00308 3.6042 4.99412 3.60865Z" fill="black"/>
<path d="M5.13086 3.68417C5.13086 3.68417 5.16241 3.67972 5.17143 3.68417C5.18269 3.68861 5.19171 3.69305 5.19622 3.69972C5.20748 3.70416 5.2165 3.70861 5.2165 3.71972C5.22777 3.72416 5.23227 3.74416 5.23227 3.74416L5.22101 3.75972C5.22101 3.75972 5.20974 3.74861 5.20974 3.73527C5.20072 3.73083 5.18495 3.72638 5.18044 3.71527C5.16917 3.71527 5.16016 3.70639 5.15565 3.69528C5.14438 3.69972 5.13086 3.68417 5.13086 3.68417Z" fill="#96877D"/>
<path d="M5.22026 3.76378C5.21575 3.75934 5.20448 3.75267 5.20448 3.73934H5.19997C5.19096 3.7349 5.17969 3.73045 5.17518 3.72379C5.16391 3.72379 5.1549 3.7149 5.15039 3.70379C5.13912 3.70379 5.1256 3.68823 5.1256 3.68823L5.12109 3.67934H5.13011C5.13462 3.67934 5.16166 3.6749 5.17067 3.67934C5.17969 3.68379 5.19096 3.68823 5.19547 3.6949C5.20673 3.69934 5.21575 3.70601 5.21575 3.7149C5.22702 3.71934 5.23152 3.73934 5.23152 3.73934L5.22026 3.76378ZM5.15941 3.69045V3.6949C5.15941 3.70379 5.16842 3.71045 5.17969 3.71045H5.1842V3.7149C5.1887 3.72378 5.19547 3.72601 5.20448 3.72601C5.20899 3.72601 5.20899 3.72601 5.21349 3.73045V3.7349C5.21349 3.74378 5.218 3.74601 5.22251 3.75045L5.23152 3.74156C5.23152 3.73712 5.22702 3.72601 5.22026 3.72601H5.21575V3.71712C5.21575 3.70823 5.20673 3.70601 5.19997 3.70156H5.19547V3.69712C5.19096 3.68823 5.1842 3.68823 5.17518 3.68601H5.17067C5.16617 3.68157 5.1549 3.68157 5.14138 3.68601C5.14588 3.69045 5.15265 3.6949 5.15715 3.6949L5.15941 3.69045Z" fill="black"/>
<path d="M5.39287 3.50856C5.37719 3.48856 5.34359 3.50412 5.34359 3.50412L5.26297 3.64411L5.22714 3.673L5.22266 3.78411L5.25177 3.88856L5.24057 3.96856C5.24057 3.96856 5.28089 3.92856 5.28984 3.90856C5.29432 3.88856 5.27417 3.81967 5.27417 3.81967C5.27417 3.81967 5.24953 3.77522 5.27865 3.69967C5.30776 3.62411 5.37719 3.55523 5.39287 3.50856Z" fill="#96877D"/>
<path d="M5.23471 3.98012L5.24591 3.88901L5.2168 3.78456L5.22128 3.67345L5.25711 3.64234L5.34221 3.50234C5.34221 3.50234 5.37357 3.48678 5.39372 3.51123V3.51567C5.38476 3.54012 5.36909 3.56456 5.34445 3.59567C5.31982 3.62678 5.29294 3.66678 5.27503 3.70678C5.24591 3.78234 5.27055 3.82234 5.27055 3.82234C5.27055 3.82678 5.2907 3.89123 5.28622 3.91345C5.28174 3.93789 5.24143 3.97345 5.23695 3.97789L5.23471 3.98012ZM5.22576 3.78456L5.25487 3.88901L5.24591 3.95789C5.25711 3.94678 5.27727 3.92234 5.28174 3.90678C5.28622 3.89123 5.27279 3.83789 5.26607 3.81789C5.26607 3.81789 5.24143 3.77345 5.27055 3.69345C5.28622 3.64901 5.31534 3.61345 5.33997 3.57789C5.36013 3.54901 5.37581 3.52678 5.38476 3.50234C5.37357 3.49123 5.34893 3.49789 5.34445 3.49789L5.25935 3.63789L5.22352 3.66678L5.22576 3.78456Z" fill="black"/>
<path d="M5.59335 3.6358C5.59335 3.6358 5.46345 3.82025 5.25517 3.88469C5.19918 3.8958 5.21934 3.74914 5.21934 3.74914L5.20366 3.75358C5.20366 3.75358 5.17231 3.90247 5.24845 3.90247C5.46121 3.86247 5.62022 3.63803 5.62022 3.63803H5.59335V3.6358Z" fill="#96877D"/>
<path d="M5.25125 3.905C5.23557 3.905 5.22213 3.89611 5.21094 3.885C5.17958 3.845 5.19974 3.75389 5.19974 3.74944V3.745L5.22437 3.73611V3.745C5.22437 3.745 5.2087 3.84944 5.23557 3.87389C5.24005 3.87833 5.24677 3.87833 5.25573 3.87833C5.46177 3.81389 5.58943 3.63389 5.59391 3.62944H5.59839V3.625H5.60735H5.63198L5.6275 3.63389C5.62302 3.64056 5.46177 3.86056 5.25125 3.905ZM5.20646 3.75611C5.20198 3.77167 5.19078 3.84722 5.21541 3.88056C5.22437 3.88944 5.23557 3.89611 5.24677 3.89611C5.43714 3.86056 5.58047 3.67611 5.60958 3.64056H5.59391C5.57823 3.66056 5.45281 3.82944 5.25125 3.88944C5.24005 3.89389 5.23109 3.88944 5.22213 3.885C5.19526 3.86056 5.20422 3.78056 5.20646 3.75611Z" fill="black"/>
<path d="M5.68448 4.6881C5.68448 4.6881 5.66432 4.70365 5.63969 4.6881C5.62849 4.65699 5.59042 4.65699 5.59042 4.65699C5.59042 4.65699 5.56578 4.5881 5.52995 4.6081C5.52547 4.57254 5.48516 4.59254 5.48516 4.59254C5.48516 4.59254 5.48516 4.54366 5.43589 4.5481C5.45156 4.49255 5.37094 4.49699 5.37094 4.49699C5.37094 4.49699 5.36646 4.43255 5.25 4.44588C5.50307 4.33477 5.70239 4.62143 5.70239 4.62143" fill="#96877D"/>
<path d="M5.66375 4.69574C5.65479 4.69574 5.64807 4.69574 5.63911 4.68686C5.62792 4.65797 5.59432 4.65575 5.59432 4.65575H5.58984V4.6513C5.58984 4.6513 5.57865 4.6113 5.55401 4.60241C5.54505 4.59797 5.54281 4.60241 5.53385 4.60241L5.52937 4.60686V4.60241C5.52937 4.59352 5.5249 4.5913 5.52042 4.58686C5.50922 4.57797 5.4913 4.58686 5.48906 4.58686L5.48458 4.5913V4.58241C5.48458 4.58241 5.48458 4.56241 5.47339 4.5513C5.46443 4.54686 5.45771 4.54241 5.44427 4.54241H5.43531V4.53797C5.43979 4.52686 5.43979 4.51352 5.43083 4.50686C5.41516 4.48686 5.37484 4.4913 5.37484 4.4913H5.37036V4.48908C5.37036 4.48908 5.37036 4.47353 5.35469 4.46019C5.33453 4.44464 5.30318 4.43575 5.25839 4.44464L5.25391 4.43575C5.50698 4.32464 5.70854 4.6113 5.70854 4.6113L5.69958 4.61575C5.69958 4.6113 5.50922 4.34686 5.2763 4.4313C5.31214 4.4313 5.33677 4.44019 5.35693 4.4513C5.36812 4.46241 5.3726 4.47575 5.37708 4.48241C5.38828 4.48241 5.42188 4.48241 5.43755 4.50241C5.44651 4.5113 5.44651 4.52241 5.44651 4.53352C5.45771 4.53352 5.46667 4.53797 5.47563 4.54241C5.48682 4.5513 5.4913 4.56686 5.4913 4.57352C5.50026 4.56908 5.51146 4.56908 5.52266 4.57352C5.53161 4.57797 5.53385 4.58241 5.53385 4.58908C5.54281 4.58463 5.54953 4.58463 5.55401 4.58908C5.57417 4.59797 5.58984 4.62908 5.59432 4.63797C5.60328 4.63797 5.63016 4.64686 5.64359 4.66908C5.66823 4.68019 5.68391 4.66908 5.68391 4.66908L5.68839 4.67797C5.68839 4.6913 5.67495 4.69574 5.66375 4.69574Z" fill="black"/>
<path d="M5.80536 4.71106C5.80536 4.71106 5.86135 4.7755 5.89495 4.7755C5.9263 4.7755 5.9263 4.71106 5.9263 4.71106C5.9263 4.71106 5.93526 4.73995 5.95094 4.73106C5.95094 4.75106 5.97109 4.7555 5.97109 4.7555C5.97109 4.7555 5.91958 4.8755 5.76953 4.76439" fill="#96877D"/>
<path d="M5.88013 4.81634C5.8443 4.81634 5.80398 4.80078 5.76367 4.76522L5.76815 4.75634C5.81966 4.79634 5.86445 4.81189 5.90477 4.80522C5.9406 4.79634 5.95628 4.76967 5.96076 4.75634C5.9518 4.75189 5.94508 4.74523 5.94508 4.73634C5.9406 4.73634 5.9406 4.73634 5.93612 4.73634C5.93164 4.73634 5.92716 4.72745 5.92492 4.72523C5.92044 4.74523 5.91372 4.77634 5.88909 4.77634C5.85773 4.77634 5.79951 4.71189 5.79727 4.70745L5.80622 4.703C5.8219 4.71856 5.86669 4.76745 5.89133 4.76745C5.91149 4.76745 5.92044 4.723 5.92044 4.70745H5.9294C5.9294 4.71189 5.93836 4.723 5.9406 4.72745H5.94508L5.95404 4.723V4.73189C5.95404 4.74745 5.96971 4.75189 5.96971 4.75189H5.97419V4.75634C5.97419 4.75634 5.95404 4.80078 5.90925 4.81189C5.89581 4.81634 5.88909 4.81634 5.88013 4.81634Z" fill="black"/>
<path d="M5.34671 4.73528L5.32656 4.81973C5.32656 4.81973 5.29744 4.84417 5.3064 4.84862C5.31536 4.85306 5.35567 4.83973 5.35567 4.83973C5.35567 4.83973 5.42062 4.83084 5.44078 4.81084C5.45197 4.84195 5.48557 4.84195 5.48557 4.84195C5.48557 4.84195 5.49005 4.83084 5.48109 4.82195C5.49677 4.82639 5.5102 4.8175 5.5102 4.8175C5.5102 4.8175 5.51916 4.79306 5.49901 4.78639C5.50348 4.77084 5.5102 4.75528 5.47885 4.75528C5.45421 4.77973 5.39822 4.80639 5.38255 4.79973C5.36687 4.79084 5.43854 4.75973 5.41838 4.71973" fill="#96877D"/>
<path d="M5.31227 4.85084C5.30779 4.85084 5.30331 4.85084 5.30331 4.85084L5.29883 4.84639C5.29883 4.8375 5.3145 4.82195 5.31898 4.8175L5.33914 4.73306H5.3481L5.32794 4.8175C5.31674 4.82639 5.30779 4.8375 5.30779 4.84195C5.31227 4.84195 5.33242 4.8375 5.35258 4.83306C5.35258 4.83306 5.41752 4.82417 5.43768 4.80862L5.44216 4.80417L5.44664 4.80862C5.45559 4.82862 5.47575 4.8375 5.48247 4.8375C5.48247 4.83306 5.48247 4.82639 5.47799 4.82639L5.47351 4.8175H5.48247C5.49367 4.8175 5.50262 4.8175 5.5071 4.8175C5.5071 4.81306 5.51158 4.7975 5.49814 4.79306H5.49367V4.78862C5.49367 4.78417 5.49367 4.78417 5.49367 4.77973C5.49367 4.77084 5.49814 4.76862 5.49367 4.76417C5.49367 4.76417 5.48919 4.75973 5.47799 4.75973C5.45335 4.78417 5.39737 4.81528 5.37721 4.80417C5.37273 4.80417 5.37273 4.79973 5.37273 4.79973C5.37273 4.79528 5.37721 4.78862 5.38841 4.77973C5.40409 4.76417 5.42424 4.74417 5.41304 4.72417L5.422 4.71973C5.4332 4.74862 5.4108 4.77084 5.39289 4.78862C5.38841 4.79306 5.38169 4.79973 5.38169 4.80417C5.39289 4.81306 5.44664 4.78862 5.47127 4.75973C5.48247 4.75973 5.49143 4.75973 5.49591 4.76417C5.50038 4.76862 5.50038 4.77528 5.50038 4.78417V4.78862C5.51606 4.7975 5.51158 4.8175 5.50934 4.82417C5.50934 4.82417 5.49814 4.82862 5.48471 4.82862C5.48471 4.8375 5.48471 4.84417 5.48471 4.84417V4.84862H5.48023C5.48023 4.84862 5.45111 4.84417 5.43544 4.8175C5.4108 4.83306 5.35482 4.84195 5.35034 4.84195C5.3481 4.84862 5.32794 4.85084 5.31227 4.85084Z" fill="black"/>
</g>
<rect x="1.14609" y="0.15" width="42.7" height="23.7" stroke="#EFEFF8" stroke-width="0.3"/>
<defs>
<clipPath id="clip0_684_39225">
<rect x="0.996094" width="43" height="24" fill="white"/>
</clipPath>
</defs>
</svg>
