<svg width="44" height="24" viewBox="0 0 44 24" fill="none" xmlns="http://www.w3.org/2000/svg">
<g clip-path="url(#clip0_684_43763)">
<path d="M43.6621 0H0.662109V24H43.6621V0Z" fill="#D21034"/>
<path d="M36.4948 6H7.82812V18H36.4948V6Z" fill="#007E3A"/>
<path d="M23.6738 16C25.9002 16 27.7051 14.2091 27.7051 12C27.7051 9.79086 25.9002 8 23.6738 8C21.4474 8 19.6426 9.79086 19.6426 12C19.6426 14.2091 21.4474 16 23.6738 16Z" fill="white"/>
<path d="M25.1855 16C27.4119 16 29.2168 14.2091 29.2168 12C29.2168 9.79086 27.4119 8 25.1855 8C22.9591 8 21.1543 9.79086 21.1543 12C21.1543 14.2091 22.9591 16 25.1855 16Z" fill="#007E3A"/>
</g>
<rect x="0.812109" y="0.15" width="42.7" height="23.7" stroke="#EFEFF8" stroke-width="0.3"/>
<defs>
<clipPath id="clip0_684_43763">
<rect x="0.662109" width="43" height="24" fill="white"/>
</clipPath>
</defs>
</svg>
