<svg width="44" height="24" viewBox="0 0 44 24" fill="none" xmlns="http://www.w3.org/2000/svg">
<g clip-path="url(#clip0_684_43757)">
<path d="M-2.35742 0H46.0176V24H-2.35742V0Z" fill="white"/>
<path d="M46.0171 12H-0.628906V10.2844H46.0171V12ZM46.0171 8.57111H-0.628906V6.85556H46.0171V8.57111ZM46.0171 5.14444H-0.628906V3.42889H46.0171V5.14444ZM46.0171 1.71556H-0.628906V0H46.0171V1.71556Z" fill="#CC0000"/>
<path d="M-2.35742 0H21.8301V14.5711H-2.35742V0Z" fill="#000066"/>
<path d="M46.0176 22.2845H-2.35742V20.569H46.0176V22.2845ZM46.0176 18.8556H-2.35742V17.1401H46.0176V18.8556ZM46.0176 15.429H-2.35742V13.7112H46.0176V15.429Z" fill="#CC0000"/>
<path d="M12.7597 2.57119L13.1471 5.18674L14.6387 2.99785L13.8414 5.51785L16.1414 4.18896L14.3184 6.11785L16.9746 5.90674L14.4909 6.85785L16.9746 7.80896L14.3184 7.59785L16.1414 9.52674L13.8391 8.19563L14.6387 10.7112L13.1471 8.5223L12.7597 11.1401L12.3722 8.52452L10.8806 10.7112L11.6779 8.19119L9.37788 9.52452L11.2009 7.59563L8.54476 7.80674L11.0285 6.85563L8.54476 5.90452L11.2009 6.11563L9.37788 4.18896L11.6802 5.52008L10.8806 3.00008L12.3722 5.18896L12.7597 2.57119ZM10.5985 2.68008C8.27153 1.65563 5.55043 2.69563 4.52023 5.00452C3.49002 7.31341 4.5359 10.0134 6.86283 11.0356C8.05205 11.5601 9.41148 11.5601 10.6007 11.0356C8.27377 12.6912 5.03757 12.1645 3.36908 9.85563C1.70059 7.54674 2.23137 4.33563 4.5583 2.68008C6.36116 1.39119 8.79335 1.39119 10.5985 2.68008Z" fill="#FFCC00"/>
</g>
<rect x="0.480078" y="0.15" width="42.7" height="23.7" stroke="#EFEFF8" stroke-width="0.3"/>
<defs>
<clipPath id="clip0_684_43757">
<rect x="0.330078" width="43" height="24" fill="white"/>
</clipPath>
</defs>
</svg>
