<svg width="44" height="24" viewBox="0 0 44 24" fill="none" xmlns="http://www.w3.org/2000/svg">
<g clip-path="url(#clip0_684_45556)">
<path d="M0.876953 24.0333V-0.0333862H44.0897L0.876953 24.0333Z" fill="#003580"/>
<path d="M44.0897 -0.0333862V24.0333H0.876953L44.0897 -0.0333862Z" fill="#009543"/>
<path d="M-1.7832 20.6957L41.4273 -3.37317L46.7553 3.30239L3.54253 27.3713L-1.7832 20.6957Z" fill="white"/>
<path d="M-1.11914 21.5309L42.0981 -2.53796L46.0913 2.4687L2.87628 26.5376L-1.11914 21.5309Z" fill="#D21034"/>
<path d="M7.52711 2.51117L8.15419 4.19561L9.54945 3.04895L9.24263 4.82228L11.0298 4.51784L9.87419 5.90228L11.5718 6.5245L9.87419 7.14672L11.0298 8.53117L9.24263 8.22228L9.54945 9.99561L8.15419 8.84895L7.52711 10.5334L6.90003 8.84895L5.50477 9.99561L5.81159 8.22228L4.0244 8.52672L5.18003 7.14228L3.48242 6.52006L5.18003 5.89784L4.0244 4.51339L5.81159 4.81784L5.50477 3.0445L6.90003 4.19117L7.52711 2.51117Z" fill="#FFCE00"/>
<path d="M7.52664 8.72913C8.75487 8.72913 9.75054 7.74117 9.75054 6.52246C9.75054 5.30375 8.75487 4.3158 7.52664 4.3158C6.29841 4.3158 5.30273 5.30375 5.30273 6.52246C5.30273 7.74117 6.29841 8.72913 7.52664 8.72913Z" fill="#FFCE00"/>
<path d="M7.52703 8.92912C6.19 8.92912 5.10156 7.84912 5.10156 6.52245C5.10156 5.19578 6.19 4.11578 7.52703 4.11578C8.86406 4.11578 9.9525 5.19578 9.9525 6.52245C9.9525 7.84912 8.8663 8.92912 7.52703 8.92912ZM7.52703 4.51578C6.41172 4.51578 5.50469 5.41356 5.50469 6.52245C5.50469 7.63134 6.40948 8.52912 7.52703 8.52912C8.64458 8.52912 9.54937 7.63134 9.54937 6.52245C9.54937 5.41356 8.64234 4.51578 7.52703 4.51578Z" fill="#003580"/>
</g>
<rect x="1.13438" y="0.15" width="42.7" height="23.7" stroke="#EFEFF8" stroke-width="0.3"/>
<defs>
<clipPath id="clip0_684_45556">
<rect x="0.984375" width="43" height="24" fill="white"/>
</clipPath>
</defs>
</svg>
