<svg width="44" height="24" viewBox="0 0 44 24" fill="none" xmlns="http://www.w3.org/2000/svg">
<g clip-path="url(#clip0_684_43784)">
<path d="M43.9908 0H1.1543V24H43.9908V0Z" fill="white"/>
<path d="M1.85156 11.6866H15.4817L1.85156 3.21773V21.2511H15.4817L1.85156 7.72662V11.6866Z" fill="#DC143C"/>
<path d="M16.8979 21.8333H1.26562V2.16664L17.525 12.2689H7.25875L16.8979 21.8333ZM2.43917 20.6689H14.0671L5.60146 12.2689H2.43917V20.6689ZM6.08521 11.1044H13.44L2.43917 4.26886V7.48442L6.08521 11.1044ZM2.43917 11.1044H4.42792L2.43917 9.13331V11.1044Z" fill="#003893"/>
<path d="M1.85156 11.6866H15.4817L1.85156 3.21773V21.2511H15.4817L1.85156 7.72662V11.6866Z" fill="#DC143C"/>
<path d="M5.25872 11.2045C6.75701 11.2045 7.9731 9.99787 7.9731 8.5112C7.73346 9.11342 7.30346 9.6112 6.75253 9.93565L6.52185 9.76453L6.97649 9.42676L6.42779 9.28676L6.71893 8.79787L6.15008 8.88009L6.23518 8.32009L5.74247 8.61342L5.60138 8.06009L5.26096 8.5112L4.92055 8.06009L4.77721 8.6112L4.28675 8.32231L4.37185 8.88676L3.80299 8.80231L4.09862 9.2912L3.5432 9.4312L3.99784 9.76898L3.77164 9.94231C3.23414 9.62676 2.79518 9.14009 2.54883 8.51787C2.54883 10.0045 3.76492 11.2112 5.2632 11.2112L5.25872 11.2045Z" fill="white"/>
<path d="M3.94982 15.1712L2.73148 15.0224L3.47055 15.9912L2.3418 16.469L3.47055 16.9446L2.73148 17.9135L3.94982 17.7646L3.79977 18.9757L4.77622 18.2424L5.25773 19.3646L5.73477 18.2424L6.7157 18.9779L6.56565 17.769L7.78398 17.9201L7.04492 16.9512L8.17367 16.4779L7.04492 16.0001L7.78398 15.0312L6.56565 15.1779L6.7157 13.969L5.73924 14.7024L5.25773 13.5779L4.7807 14.6957L3.79977 13.9624L3.94982 15.1712Z" fill="white"/>
</g>
<rect x="1.14219" y="0.15" width="42.7" height="23.7" stroke="#EFEFF8" stroke-width="0.3"/>
<defs>
<clipPath id="clip0_684_43784">
<rect x="0.992188" width="43" height="24" fill="white"/>
</clipPath>
</defs>
</svg>
