<svg width="44" height="24" viewBox="0 0 44 24" fill="none" xmlns="http://www.w3.org/2000/svg">
<g clip-path="url(#clip0_684_42652)">
<path d="M49.2579 -0.304398H0.271484V24H49.2579V-0.304398Z" fill="#0038A8"/>
<path d="M49.2579 11.8489H0.271484V24.0001H49.2579V11.8489Z" fill="#CE1126"/>
<path d="M21.4848 11.8489L0.271484 24V-0.304398" fill="white"/>
<path d="M1.49714 1.8L2.23396 2.43111L3.08724 1.96445L2.70875 2.85556L3.4187 3.51778L2.44672 3.43556L2.03464 4.31334L1.81292 3.37111L0.847656 3.25111L1.68078 2.75111L1.49714 1.8Z" fill="#FCD116"/>
<path d="M18.0949 10.5645L18.1151 11.5312L19.0355 11.8489L18.1151 12.1667L18.0949 13.1334L17.5059 12.3623L16.5742 12.6423L17.1319 11.8489L16.5742 11.0556L17.5059 11.3356L18.0949 10.5645Z" fill="#FCD116"/>
<path d="M2.03464 19.3822L2.44896 20.2578L3.42094 20.1755L2.71099 20.8378L3.08948 21.7289L2.2362 21.2622L1.49714 21.8955L1.68078 20.9466L0.847656 20.4444L1.81516 20.3244L2.03464 19.3822Z" fill="#FCD116"/>
<path d="M7.8919 6.71779L7.57388 7.03334L7.73065 9.42223C7.6769 9.42668 7.62315 9.43112 7.57164 9.43779L7.28274 7.25779L7.02294 7.51557L7.41263 9.46446C7.09013 9.52668 6.79227 9.65335 6.53024 9.82668L5.41716 8.17334H5.04987L6.40034 9.91779C6.35779 9.95112 6.31747 9.98446 6.27716 10.0178L4.68482 8.21557H4.23466V8.66668L6.05096 10.2467C6.01513 10.2867 5.98154 10.3267 5.95018 10.3689L4.19211 9.0289V9.39335L5.85836 10.4978C5.68143 10.7578 5.55602 11.0556 5.49331 11.3733L3.52919 10.9867L3.26492 11.2445L5.46195 11.5311C5.45524 11.5845 5.45076 11.6356 5.44628 11.6889L3.03872 11.5333L2.7207 11.8489L3.03872 12.1645L5.44628 12.0089C5.45076 12.0622 5.45524 12.1156 5.46195 12.1667L3.26492 12.4533L3.52471 12.7111L5.48883 12.3245C5.55154 12.6445 5.67919 12.94 5.85388 13.2L4.18763 14.3045V14.6667L5.9457 13.3267C5.9793 13.3689 6.01289 13.4089 6.04649 13.4489L4.23018 15.0289V15.4756H4.68034L6.27268 13.6733C6.313 13.7089 6.35331 13.7422 6.39586 13.7733L5.04539 15.5178H5.41268L6.52576 13.8645C6.78779 14.04 7.08789 14.1645 7.40815 14.2289L7.01846 16.1778L7.27826 16.4356L7.56716 14.2556C7.61867 14.2622 7.67242 14.2667 7.72617 14.2711L7.5694 16.66L7.88742 16.9756L8.20544 16.66L8.04867 14.2711C8.10242 14.2667 8.15617 14.2622 8.20768 14.2556L8.49659 16.4356L8.75638 16.1778L8.36669 14.2289C8.68919 14.1667 8.98706 14.04 9.24909 13.8667L10.3622 15.52H10.7295L9.37899 13.7756C9.42154 13.7422 9.46185 13.7089 9.50216 13.6756L11.0945 15.4778H11.5447V15.0311L9.72836 13.4511C9.76419 13.4111 9.79779 13.3711 9.82914 13.3289L11.5872 14.6689V14.3045L9.92097 13.2C10.0979 12.94 10.2233 12.6422 10.286 12.3245L12.2501 12.7111L12.5099 12.4533L10.3196 12.1645C10.3263 12.1111 10.3308 12.06 10.3353 12.0067L12.7428 12.1622L13.0609 11.8467L12.7451 11.5333L10.3375 11.6889C10.333 11.6356 10.3286 11.5822 10.3219 11.5311L12.5189 11.2445L12.2591 10.9867L10.295 11.3733C10.2323 11.0533 10.1046 10.7578 9.92992 10.4978L11.5962 9.39335V9.0289L9.8381 10.3689C9.80451 10.3267 9.77091 10.2867 9.73732 10.2467L11.5536 8.66668V8.22001H11.1035L9.50664 10.0222C9.46633 9.98668 9.42602 9.95334 9.38346 9.92223L10.7339 8.17779H10.3644L9.25133 9.83112C8.9893 9.65557 8.68919 9.53112 8.36893 9.4689L8.75862 7.52001L8.49883 7.26223L8.20992 9.44223C8.15617 9.43557 8.10466 9.43112 8.05091 9.42668L8.20768 7.03779L7.8919 6.71779Z" fill="#FCD116"/>
</g>
<rect x="0.482031" y="0.15" width="42.7" height="23.7" stroke="#EFEFF8" stroke-width="0.3"/>
<defs>
<clipPath id="clip0_684_42652">
<rect x="0.332031" width="43" height="24" fill="white"/>
</clipPath>
</defs>
</svg>
