<svg width="44" height="24" viewBox="0 0 44 24" fill="none" xmlns="http://www.w3.org/2000/svg">
<g clip-path="url(#clip0_684_43960)">
<path d="M43.3203 0H0.320312V24H43.3203V0Z" fill="white"/>
<path d="M43.3203 0H11.0703V24H43.3203V0Z" fill="#01411C"/>
<path d="M26.3559 19.2C30.3634 19.2 33.6121 15.9765 33.6121 12C33.6121 8.02355 30.3634 4.8 26.3559 4.8C22.3483 4.8 19.0996 8.02355 19.0996 12C19.0996 15.9765 22.3483 19.2 26.3559 19.2Z" fill="white"/>
<path d="M28.2102 16.9645C31.8837 16.9645 34.8617 14.0096 34.8617 10.3645C34.8617 6.71942 31.8837 3.7645 28.2102 3.7645C24.5366 3.7645 21.5586 6.71942 21.5586 10.3645C21.5586 14.0096 24.5366 16.9645 28.2102 16.9645Z" fill="#01411C"/>
<path d="M29 6.61342L32.0571 10.0245L27.5645 9.04675L31.7794 7.21564L29.4524 11.1556L29 6.61342Z" fill="white"/>
</g>
<rect x="0.470313" y="0.15" width="42.7" height="23.7" stroke="#EFEFF8" stroke-width="0.3"/>
<defs>
<clipPath id="clip0_684_43960">
<rect x="0.320312" width="43" height="24" fill="white"/>
</clipPath>
</defs>
</svg>
