<svg width="44" height="24" viewBox="0 0 44 24" fill="none" xmlns="http://www.w3.org/2000/svg">
<g clip-path="url(#clip0_684_43974)">
<path d="M44.4351 24.229V-0.228745H0.552734V24.2313H44.4351V24.229Z" fill="#006C35"/>
<path d="M30.1741 6.31769C30.3846 6.17103 30.5772 6.00436 30.8102 5.88658C30.7452 6.15103 30.5436 6.35547 30.3376 6.52214C30.2346 6.60436 30.2794 6.75103 30.2682 6.86436C30.21 6.85103 30.1562 6.83547 30.1002 6.81991C30.154 7.49325 30.2279 8.16214 30.2615 8.83769C30.2659 8.91547 30.2704 8.99769 30.3398 9.04658C30.6512 9.32436 30.9759 9.59991 31.2066 9.95547C31.2962 10.0932 31.3454 10.2532 31.3925 10.4088C31.4507 10.1488 31.4462 9.87991 31.4171 9.61325C31.3029 8.59103 31.1998 7.56214 31.108 6.53103C31.0991 6.40436 31.0789 6.27325 31.0946 6.1488C31.1035 6.03103 31.2222 5.93325 31.3409 5.93991C31.4104 5.99769 31.4529 6.07769 31.4888 6.15992C31.5828 6.37103 31.6702 6.59992 31.6455 6.83769C31.5873 6.82214 31.5313 6.79769 31.4686 6.77547C31.5559 7.47325 31.641 8.1688 31.6903 8.86658C31.715 9.33991 31.7844 9.81325 31.6858 10.2821C31.5985 10.7132 31.3857 11.151 31.0028 11.3955C30.6825 11.6044 30.313 11.7177 29.9434 11.7955C29.7912 11.8288 29.6344 11.8399 29.4866 11.7999C29.6433 11.7132 29.8203 11.6532 29.9882 11.5799C30.2301 11.4777 30.4653 11.3644 30.6825 11.2221C30.8885 11.0866 31.1013 10.9532 31.2536 10.7532C31.0655 10.251 30.7475 9.77991 30.2995 9.4688C30.313 9.96214 30.3376 10.4666 30.2615 10.9577C30.248 11.0755 30.1965 11.1777 30.1137 11.2599C30.0599 11.051 30.0554 10.8355 30.0308 10.6288C29.9905 10.1732 29.9479 9.70658 29.9166 9.25102C29.9166 9.15769 29.8539 9.08436 29.7844 9.03103C29.5045 8.79769 29.2425 8.53769 28.9715 8.29325C28.9804 8.57547 29.0252 8.85547 29.0409 9.13325C29.0745 9.51325 29.079 9.88658 29.1193 10.2666C29.1439 10.531 29.1484 10.8088 29.0498 11.0621C28.9513 11.2977 28.7251 11.5021 28.4586 11.5177C28.3153 11.531 28.1742 11.5177 28.0353 11.4932C27.8875 11.4688 27.7733 11.3577 27.7061 11.2332C27.6232 11.0821 27.5829 10.911 27.518 10.7532C27.3948 10.7821 27.2671 10.8066 27.1776 10.8999C26.9894 11.0799 26.9312 11.3532 26.8416 11.5888C26.7879 11.7266 26.7274 11.8821 26.5908 11.9555C26.4475 12.0377 26.2705 12.0044 26.1339 11.9266C25.9234 11.8132 25.798 11.5999 25.7353 11.3799C25.6726 11.2088 25.7599 11.0132 25.6524 10.851C25.574 10.7044 25.6188 10.5288 25.6569 10.3732C25.7397 10.0999 25.9077 9.8688 26.1138 9.6688C25.8428 9.43547 25.5718 9.19991 25.3008 8.96658C25.3254 9.61547 25.3792 10.2599 25.2918 10.9021C25.2784 11.0332 25.2291 11.1555 25.1351 11.2488C25.1059 11.1266 25.0858 10.9999 25.0768 10.8777C25.0119 10.1688 24.9537 9.45991 24.9044 8.7488C24.8999 8.66658 24.8842 8.57769 24.817 8.52436C24.5416 8.26436 24.2751 7.98658 24.0287 7.69325C23.8854 7.51325 23.7376 7.33103 23.6637 7.11547C23.6345 7.02658 23.6099 6.89991 23.6973 6.83325C23.7958 6.84214 23.8854 6.88658 23.9727 6.93103C24.1295 7.01991 24.2773 7.13991 24.405 7.27325C24.4632 7.33103 24.4923 7.4088 24.5169 7.48436C24.4341 7.48436 24.3602 7.47991 24.2795 7.47991C24.4408 7.7088 24.6334 7.91991 24.8506 8.09991C24.8305 7.49769 24.7633 6.89325 24.7364 6.29103C24.7364 6.2088 24.7364 6.11991 24.7946 6.05547C24.8484 5.99769 24.9268 5.97325 25.0007 5.9488C25.1328 6.13992 25.2314 6.35547 25.2851 6.58436C25.3098 6.67325 25.3053 6.7688 25.2986 6.86214C25.2403 6.8488 25.1843 6.8288 25.1306 6.81325C25.1687 7.30214 25.2202 7.78658 25.2538 8.27769C25.2582 8.34658 25.2627 8.41547 25.2829 8.48658C25.312 8.53547 25.3523 8.5688 25.3949 8.60436C25.7308 8.88658 26.069 9.17103 26.4139 9.44436C26.6199 9.2688 26.817 9.0888 27.0208 8.91769C27.0701 8.87769 27.1149 8.83991 27.1529 8.79547C27.191 8.75547 27.1776 8.69769 27.1776 8.6488C27.1126 8.06214 27.0633 7.47103 27.0096 6.88436C26.9962 6.6688 26.9603 6.45547 26.9603 6.2488C26.9558 6.12214 27.0544 5.99547 27.182 5.99103C27.2403 5.98658 27.2649 6.0488 27.294 6.08436C27.3881 6.25103 27.462 6.43103 27.5045 6.61769C27.5292 6.70658 27.518 6.80214 27.5001 6.89547C27.4463 6.87103 27.3881 6.84658 27.3388 6.82214C27.4082 7.37547 27.4665 7.92658 27.5202 8.48214C27.668 8.37547 27.8002 8.2488 27.939 8.13103C28.0913 7.99991 28.2503 7.87325 28.3981 7.73547C28.2212 7.5488 28.0376 7.37325 27.8562 7.1888C27.7419 7.07103 27.6053 6.95991 27.5561 6.79325C27.518 6.67547 27.5426 6.55325 27.565 6.43769C27.7778 6.47547 27.9637 6.59992 28.1361 6.72658C28.2548 6.81547 28.3578 6.91769 28.4653 7.02436C28.4564 6.79103 28.4272 6.55547 28.4071 6.32214C28.4071 6.23325 28.3981 6.13547 28.4608 6.06214C28.5146 6.00436 28.593 5.97992 28.6624 5.9488C28.8013 6.1288 28.8841 6.34436 28.9424 6.55992C28.9715 6.65769 28.9715 6.75547 28.967 6.85769C28.9088 6.84436 28.8483 6.8288 28.7901 6.81769C28.8102 6.99769 28.8281 7.17325 28.8528 7.35103C29.0745 7.18436 29.2805 6.99547 29.5067 6.8288C29.5851 6.75547 29.7195 6.70214 29.7195 6.57547C29.724 6.43991 29.6949 6.30214 29.715 6.1688C29.7284 6.05103 29.8427 5.95769 29.9614 5.96436C30.0711 6.06436 30.1114 6.19991 30.1741 6.31769ZM29.014 7.61325C28.9759 7.65325 28.902 7.69103 28.911 7.75547C28.9401 7.81325 28.9983 7.85769 29.0431 7.90658C29.3186 8.15547 29.5806 8.41103 29.874 8.63991C29.8651 8.37547 29.8359 8.11325 29.8203 7.8488C29.7956 7.57103 29.7867 7.29103 29.7576 7.01325C29.5 7.20214 29.2649 7.41769 29.014 7.61325ZM28.313 7.12436C28.3757 7.19325 28.4317 7.25991 28.4944 7.3288C28.4944 7.25991 28.49 7.19325 28.49 7.12436C28.4317 7.12436 28.369 7.12436 28.313 7.12436ZM27.6456 8.76214C27.5964 8.80214 27.5426 8.8488 27.5471 8.91325C27.5426 9.25547 27.5807 9.60658 27.4933 9.93547C27.4732 10.0221 27.4105 10.0777 27.35 10.131C27.2716 9.80436 27.2671 9.46658 27.2112 9.13325C27.0051 9.29547 26.8125 9.47103 26.6199 9.64658C26.7319 9.7688 26.8371 9.89991 26.8797 10.0621C26.9424 10.291 26.8707 10.5555 26.6781 10.711C26.443 10.9021 26.1317 10.9355 25.8405 10.971C25.8808 11.1577 25.9234 11.3577 26.0331 11.5177C26.1026 11.611 26.219 11.7021 26.3422 11.6644C26.4743 11.6266 26.555 11.5021 26.6042 11.3866C26.6983 11.151 26.8058 10.9132 26.9446 10.6977C27.0589 10.5177 27.2447 10.371 27.462 10.3644C27.5314 10.3688 27.63 10.3488 27.6725 10.4221C27.7666 10.5821 27.8002 10.7688 27.9189 10.9155C28.1204 11.1755 28.5437 11.1799 28.7811 10.9644C28.864 10.891 28.864 10.7777 28.8505 10.6755C28.7386 9.78214 28.6624 8.87769 28.5661 7.98436C28.2548 8.24436 27.9547 8.50658 27.6456 8.76214ZM25.9659 10.291C25.9122 10.3599 25.8831 10.4421 25.8629 10.5266C26.0757 10.551 26.2952 10.5021 26.4833 10.3955C26.5415 10.3577 26.6065 10.3021 26.5953 10.2244C26.5818 10.0732 26.4519 9.96436 26.3355 9.87325C26.2056 10.0021 26.0779 10.1399 25.9659 10.291Z" fill="white"/>
<path d="M17.0294 5.93359C17.0876 5.89582 17.1414 5.96248 17.1772 6.00248C17.2914 6.14026 17.4146 6.28026 17.4818 6.45137C17.4236 6.46026 17.3631 6.46693 17.3049 6.48026C17.3183 6.74915 17.5467 6.93359 17.6139 7.18915C17.6632 7.34915 17.6677 7.51582 17.6341 7.67359C17.5848 7.88915 17.4034 8.07804 17.1817 8.1136C16.9197 8.15804 16.624 8.09804 16.4292 7.90248C16.3015 7.77582 16.2523 7.59582 16.194 7.43359C16.1313 7.65359 16.0418 7.86471 15.885 8.03582C15.7954 8.13804 15.6745 8.21137 15.5558 8.27137C15.5894 8.8736 15.6498 9.47359 15.5961 10.0736C15.5759 10.2447 15.567 10.4447 15.4102 10.558C15.352 10.3225 15.3452 10.0736 15.3161 9.82471C15.2624 9.32693 15.2265 8.82693 15.1728 8.32915C15.025 8.29137 14.8637 8.26026 14.7495 8.15359C14.5614 7.98248 14.4987 7.71804 14.5121 7.47582C14.5166 7.28915 14.5771 7.10471 14.6241 6.91804C14.5547 6.99137 14.4964 7.07804 14.4628 7.17137C14.3643 7.4736 14.2949 7.78693 14.1583 8.07137C14.1045 8.18471 14.006 8.28026 13.8828 8.30471C13.7305 8.33804 13.5491 8.32915 13.4304 8.21137C13.3027 8.08471 13.2736 7.89804 13.2535 7.72693C13.2445 7.55137 13.2288 7.36471 13.3117 7.20026C13.361 7.10248 13.4595 7.04915 13.5469 6.99582C13.4886 7.08915 13.4237 7.18248 13.408 7.2936C13.3878 7.44471 13.417 7.60248 13.4461 7.74915C13.4662 7.83804 13.4841 7.93582 13.5581 8.00248C13.67 8.10026 13.8537 8.09137 13.9567 7.9936C14.0149 7.93137 14.044 7.85137 14.0709 7.77359C14.165 7.48471 14.2434 7.19137 14.3621 6.90915C14.4651 6.67582 14.6532 6.44915 14.9197 6.39582C14.8906 6.71359 14.7428 7.01137 14.7338 7.33359C14.7294 7.47582 14.7428 7.63582 14.8369 7.74471C14.9063 7.83804 15.025 7.87137 15.137 7.90471C15.1078 7.46915 15.0675 7.03137 15.0384 6.59137C15.0295 6.42915 15.0003 6.26471 15.0295 6.10248C15.0541 5.98915 15.1773 5.95137 15.2713 5.91582C15.4527 6.18026 15.5826 6.4936 15.5804 6.81582C15.5177 6.80248 15.4617 6.78693 15.399 6.77582C15.4371 7.14693 15.4774 7.52693 15.5177 7.89582C15.6745 7.84693 15.8178 7.7536 15.9074 7.6136C16.0933 7.34915 16.1201 7.00248 16.0306 6.69582C15.9925 6.56471 15.932 6.44248 15.9029 6.30915C15.8738 6.18248 15.9656 6.05137 16.0798 6.01137C16.1336 5.98693 16.1582 6.05137 16.1784 6.08915C16.2478 6.24026 16.2724 6.41137 16.306 6.57804C16.3463 6.79804 16.306 7.02693 16.3889 7.23804C16.4538 7.41804 16.5748 7.58471 16.7472 7.67804C16.8861 7.75582 17.0473 7.77137 17.2041 7.74693C17.2825 7.7336 17.3429 7.66915 17.3609 7.59582C17.3989 7.45359 17.3474 7.30248 17.2825 7.17137C17.1391 6.8736 16.9622 6.5936 16.8973 6.27137C16.8726 6.16693 16.9062 6.00693 17.0294 5.93359Z" fill="white"/>
<path d="M23.5618 6.28003C23.6514 6.12892 23.797 6.01114 23.956 5.93336C23.9157 6.0467 23.844 6.14225 23.7835 6.24003C23.7343 6.31336 23.7343 6.40225 23.7298 6.48003C23.8418 6.47559 23.947 6.45559 24.0545 6.43114C24.0254 6.51781 23.9963 6.6067 23.9157 6.66003C23.8261 6.72225 23.694 6.76225 23.5954 6.68892C23.4991 6.5867 23.4879 6.4067 23.5618 6.28003Z" fill="white"/>
<path d="M17.6636 6.08002C17.7129 6.00669 17.8025 5.98225 17.8741 5.94891C18.022 6.13558 18.1115 6.36447 18.1698 6.5978C18.1944 6.68669 18.1832 6.7778 18.1743 6.86669C18.1205 6.85114 18.0623 6.82891 18.013 6.81336C18.0757 7.24891 18.1519 7.68225 18.2011 8.11336C18.452 7.99114 18.6849 7.84447 18.9491 7.73336C19.032 7.69558 19.1171 7.68002 19.2089 7.67114C19.1753 7.74447 19.1395 7.81336 19.0611 7.84669C18.7857 7.98447 18.5035 8.10669 18.2302 8.2578C18.2549 8.47336 18.2795 8.69336 18.3086 8.91114C18.4318 8.75114 18.5438 8.55558 18.7565 8.50669C18.7655 8.62447 18.7274 8.76447 18.8148 8.8578C18.9469 8.96002 19.1261 8.8978 19.2537 8.80447C19.2448 8.63336 19.2918 8.46669 19.3232 8.30225C19.3769 8.32669 19.4419 8.33558 19.462 8.39558C19.5202 8.55558 19.5023 8.72891 19.462 8.88447C19.4217 9.06447 19.2739 9.1978 19.1082 9.28003C19.0096 9.32891 18.8864 9.3578 18.7745 9.31336C18.6602 9.26891 18.5886 9.16225 18.5124 9.06447C18.4475 9.22669 18.3355 9.37336 18.331 9.5578C18.3109 9.94447 18.1586 10.3111 17.9279 10.6178C17.5248 11.1445 16.9044 11.4578 16.2773 11.64C15.9167 11.7378 15.5383 11.8267 15.1598 11.8111C14.9537 11.8067 14.7454 11.7622 14.5685 11.6511C14.4901 11.6022 14.4252 11.5334 14.3513 11.4889C14.2572 11.4734 14.1587 11.4978 14.0557 11.4978C13.8183 11.5067 13.5786 11.5134 13.3457 11.4734C13.6301 11.38 13.9213 11.3067 14.2012 11.2045C14.1228 10.7 14.2259 10.1734 14.4857 9.73336C14.5551 9.61558 14.6469 9.51336 14.7454 9.42447C14.6626 9.58669 14.564 9.74225 14.5237 9.92225C14.4252 10.3022 14.4297 10.7045 14.5439 11.0711C14.7365 11.0089 14.9291 10.9245 15.115 10.8422C15.5472 10.6556 15.9705 10.4511 16.3691 10.1889C16.517 10.0867 16.6692 9.9778 16.7678 9.82225C16.8171 9.74447 16.8059 9.65558 16.8059 9.56891C16.5998 9.60891 16.4027 9.70447 16.1855 9.70002C16.0534 9.69114 15.91 9.66225 15.816 9.56225C15.7219 9.46002 15.7174 9.30891 15.7331 9.18002C15.7622 9.00891 15.8361 8.8378 15.975 8.72669C16.1317 8.59558 16.3647 8.60002 16.5461 8.68225C16.723 8.76447 16.8215 8.93558 16.9066 9.09336C17.1732 8.99558 17.3546 8.76003 17.6166 8.64891C17.6256 8.78447 17.6121 8.94225 17.7151 9.04891C17.7778 9.12669 17.8831 9.12225 17.966 9.13114C17.9525 8.91558 17.9167 8.70225 17.8876 8.49558C17.798 7.79114 17.7062 7.08002 17.6278 6.37114C17.6256 6.27558 17.6144 6.16669 17.6636 6.08002ZM16.0354 9.15114C16.0108 9.20002 16.069 9.23336 16.1049 9.24891C16.2482 9.2978 16.405 9.26447 16.5528 9.24002C16.4744 9.1578 16.3848 9.06891 16.2616 9.06447C16.1833 9.06002 16.069 9.06447 16.0354 9.15114ZM17.0746 9.44447C17.0836 9.58669 17.0881 9.73336 17.041 9.86891C16.9626 10.0978 16.7902 10.28 16.6088 10.4356C16.2594 10.7178 15.8518 10.9045 15.4576 11.1089C15.2807 11.2111 15.0926 11.2934 14.9 11.3734C15.1419 11.3889 15.3837 11.3489 15.6234 11.3334C15.9884 11.3089 16.3423 11.2067 16.6782 11.0734C17.0321 10.9311 17.3725 10.7467 17.6479 10.4734C17.8159 10.3111 17.9481 10.1111 18.0063 9.88225C18.0354 9.76891 18.0354 9.65336 18.0399 9.53558C17.8965 9.53114 17.7443 9.53558 17.6166 9.46225C17.5136 9.40447 17.4553 9.29114 17.3949 9.19336C17.2941 9.28447 17.1821 9.37114 17.0746 9.44447Z" fill="white"/>
<path d="M20.9427 6.06902C20.9965 6.01124 21.0905 6.02013 21.1532 6.06013C21.2921 6.14902 21.3705 6.31791 21.3638 6.47568C21.3593 6.55346 21.3257 6.6179 21.3011 6.68679C21.2809 6.58457 21.2876 6.47568 21.2383 6.38013C21.1689 6.28235 21.0323 6.26235 20.9472 6.18457C20.9136 6.15791 20.9002 6.09791 20.9427 6.06902Z" fill="white"/>
<path d="M22.893 6.12233C22.902 6.0601 22.9624 5.99122 23.0319 6.02899C23.2177 6.11788 23.3521 6.28899 23.435 6.47344C23.37 6.47344 23.3028 6.46899 23.2424 6.46455C23.276 6.59122 23.3073 6.71344 23.3611 6.83122C23.4305 7.00233 23.5335 7.16455 23.5626 7.35344C23.5962 7.56233 23.5582 7.79344 23.4103 7.95344C23.1349 8.2601 22.5795 8.20677 22.3465 7.87566C22.257 7.75788 22.2077 7.62233 22.1607 7.48455C22.0823 7.78233 21.9233 8.06677 21.6523 8.22233C21.3768 8.38899 21.0117 8.36455 20.7475 8.18899C20.5862 8.08677 20.4765 7.90677 20.4765 7.71566C20.4563 7.43788 20.5661 7.17788 20.6041 6.90899C20.5392 6.97788 20.4765 7.05122 20.4474 7.14455C20.3332 7.44677 20.2861 7.76899 20.1226 8.05344C20.0442 8.18899 19.9166 8.31121 19.7576 8.32233C19.6008 8.33121 19.4284 8.27344 19.3388 8.13788C19.2559 8.01121 19.2402 7.8601 19.2402 7.70899C19.2447 7.48455 19.2985 7.25566 19.4015 7.05566C19.4015 7.33788 19.3141 7.64677 19.4597 7.91121C19.5291 8.05788 19.7217 8.14455 19.8696 8.06233C20.0017 7.9801 20.0622 7.82899 20.1114 7.69121C20.21 7.39344 20.3175 7.09122 20.4653 6.81566C20.528 6.70233 20.5929 6.58677 20.7004 6.50677C20.7542 6.46233 20.8281 6.46233 20.893 6.44899C20.9065 6.70233 20.7654 6.92233 20.7161 7.16233C20.6668 7.37344 20.6534 7.62233 20.8057 7.79788C20.9782 7.98233 21.2626 8.02677 21.5 7.96455C21.8292 7.86233 22.0666 7.53344 22.08 7.19344C22.089 6.98899 22.1002 6.76899 21.9904 6.59122C21.9412 6.49788 21.8516 6.4001 21.8919 6.28233C21.9165 6.16455 22.0039 6.07344 22.1024 6.02233C22.1719 6.13566 22.2346 6.25566 22.2502 6.38899C22.2883 6.69788 22.2905 7.01788 22.4025 7.31344C22.4675 7.48455 22.5705 7.6601 22.7429 7.74233C22.9042 7.8201 23.1035 7.83566 23.2603 7.75566C23.3588 7.70677 23.3835 7.58455 23.3588 7.48677C23.2939 7.16455 23.0677 6.90899 22.9647 6.59788C22.902 6.44677 22.8594 6.28455 22.893 6.12233Z" fill="white"/>
<path d="M26.0882 6.05531C26.1867 6.01087 26.3301 6.04643 26.3793 6.14865C26.3995 6.19754 26.3659 6.24198 26.3256 6.27087C26.2562 6.25754 26.1934 6.22198 26.133 6.19309C26.0501 6.3442 26.0098 6.51531 25.9605 6.68643C25.9269 6.6042 25.8978 6.51976 25.8463 6.45087C25.7814 6.36198 25.6739 6.31531 25.6 6.23531C25.5753 6.16198 25.6627 6.0842 25.7321 6.1042C25.8351 6.13754 25.9001 6.23087 25.9628 6.31531C25.9896 6.2242 26.0053 6.10865 26.0882 6.05531Z" fill="white"/>
<path d="M13.292 6.43109C13.3748 6.25997 13.5294 6.13331 13.7018 6.05109C13.6615 6.16442 13.5876 6.25998 13.5294 6.35997C13.4801 6.43331 13.4891 6.5222 13.4801 6.59997C13.5921 6.59109 13.6973 6.56664 13.8093 6.53109C13.7757 6.61775 13.7444 6.71108 13.6615 6.76664C13.5742 6.82886 13.4488 6.86442 13.3569 6.80442C13.2539 6.72442 13.2338 6.55775 13.292 6.43109Z" fill="white"/>
<path d="M19.3768 6.20228C19.406 6.05562 19.6277 6.06006 19.7016 6.16895C19.7509 6.25117 19.771 6.33562 19.8203 6.41784C19.8606 6.50006 19.9143 6.58451 19.8852 6.67784C19.8449 6.82451 19.7329 6.94228 19.7173 7.10228C19.771 7.07784 19.8203 7.05339 19.874 7.02451C19.8606 7.10673 19.874 7.21117 19.7867 7.25784C19.6837 7.30673 19.5515 7.20895 19.565 7.09562C19.5784 6.89117 19.7777 6.73784 19.7173 6.52006C19.5157 6.78451 19.2402 7.02228 18.9043 7.07339C19.0521 6.95562 19.2156 6.87784 19.3522 6.74006C19.4396 6.65784 19.4955 6.55562 19.5538 6.45784C19.4821 6.38673 19.3589 6.32228 19.3768 6.20228ZM19.5157 6.19117C19.5493 6.24006 19.5941 6.28006 19.6389 6.30895C19.6187 6.24895 19.5739 6.20673 19.5157 6.19117Z" fill="white"/>
<path d="M18.3203 6.2979C18.3897 6.28234 18.4771 6.25345 18.5331 6.31345C18.7055 6.47345 18.7839 6.72012 18.7257 6.94456C18.6876 6.8579 18.6607 6.76901 18.6137 6.68679C18.551 6.54234 18.3897 6.45123 18.3203 6.2979Z" fill="white"/>
<path d="M16.7873 6.39122C16.8567 6.469 16.8903 6.56233 16.8769 6.66456C16.7626 6.68011 16.6462 6.71344 16.5364 6.74233C16.4737 6.75789 16.4088 6.71344 16.3931 6.65344C16.3886 6.58455 16.4133 6.52233 16.4267 6.45789C16.4513 6.52678 16.476 6.59344 16.4961 6.66678C16.5253 6.65344 16.5588 6.64233 16.5857 6.629C16.5857 6.56678 16.5857 6.50233 16.5857 6.44455C16.6104 6.44455 16.635 6.44455 16.6507 6.44455C16.6596 6.49789 16.6708 6.55789 16.6798 6.61122C16.7179 6.60678 16.7492 6.60233 16.7918 6.59789C16.7873 6.529 16.7873 6.46011 16.7873 6.39122Z" fill="white"/>
<path d="M26.4504 6.54242C26.54 6.51353 26.6386 6.50464 26.7349 6.50464C26.6856 6.55797 26.6363 6.60686 26.5669 6.63575C26.2377 6.76686 25.9017 6.86019 25.586 7.02686C25.6151 7.08464 25.6442 7.14019 25.6733 7.19797C25.5949 7.18464 25.5053 7.18464 25.4516 7.12019C25.3978 7.0713 25.3934 6.97797 25.4561 6.93353C25.5098 6.89353 25.568 6.8713 25.6285 6.84464C25.8995 6.74242 26.1705 6.6313 26.4504 6.54242Z" fill="white"/>
<path d="M21.4801 6.77314C21.5182 6.7398 21.563 6.7198 21.5988 6.69536C21.5944 6.81758 21.6369 6.92425 21.6884 7.03314C21.7422 7.13981 21.6974 7.29314 21.5697 7.32203C21.4577 7.35981 21.3592 7.2887 21.2853 7.2287C21.2226 7.28203 21.1576 7.35536 21.0681 7.34203C20.9001 7.33314 20.8217 7.13758 20.8553 6.99536C20.8687 6.90203 20.9449 6.84425 21.0121 6.78425C21.0031 6.88203 20.9628 6.97981 20.9874 7.08203C21.0076 7.15092 21.086 7.15092 21.1442 7.17092C21.1644 7.06425 21.1688 6.95092 21.1979 6.83758C21.2069 6.7798 21.2808 6.77536 21.3166 6.74869C21.3256 6.84203 21.3211 6.93536 21.3502 7.02647C21.3749 7.09536 21.4533 7.11536 21.5115 7.1487C21.5384 7.01758 21.4801 6.89536 21.4801 6.77314Z" fill="white"/>
<path d="M16.541 6.94457C16.6104 6.94457 16.6978 6.93123 16.7538 6.98901C16.915 7.14901 16.9957 7.39345 16.9352 7.61345C16.877 7.46679 16.8322 7.30457 16.7045 7.18901C16.6306 7.12457 16.5522 7.04679 16.541 6.94457Z" fill="white"/>
<path d="M26.3893 7.5112C26.4229 7.4712 26.4676 7.44231 26.508 7.41342C26.508 7.52675 26.546 7.62898 26.5953 7.72675C26.6446 7.82453 26.6446 7.98453 26.5259 8.02898C26.4139 8.07787 26.3042 8.02009 26.2146 7.95564C26.1451 8.00898 26.0578 8.07787 25.9548 8.04898C25.807 8.01564 25.7443 7.84453 25.7689 7.7112C25.7778 7.61342 25.863 7.54898 25.9301 7.48675C25.9167 7.58898 25.8719 7.69564 25.901 7.79564C25.9257 7.86453 26.004 7.84898 26.0623 7.86453C26.0824 7.74675 26.0712 7.62898 26.1205 7.51787C26.1541 7.48898 26.1989 7.47342 26.2392 7.45564C26.2437 7.55787 26.2258 7.6712 26.2773 7.76453C26.3109 7.82231 26.3803 7.82675 26.4385 7.84675C26.434 7.73564 26.4027 7.62231 26.3893 7.5112Z" fill="white"/>
<path d="M30.3455 7.67096C30.3164 7.59762 30.3747 7.52873 30.4486 7.52873C30.5673 7.52873 30.6591 7.62651 30.7151 7.71984C30.8136 7.91095 30.8629 8.14873 30.78 8.35095C30.7397 8.16651 30.7419 7.9354 30.5695 7.81318C30.4956 7.77318 30.406 7.74429 30.3455 7.67096Z" fill="white"/>
<path d="M23.773 8.07793C23.8268 8.02015 23.9119 8.00015 23.9858 8.02015C24.0799 8.10904 24.0642 8.27349 23.9858 8.36682C23.8469 8.54682 23.6207 8.63126 23.3945 8.63126C23.5334 8.54904 23.6902 8.5046 23.8134 8.40238C23.8716 8.36238 23.8626 8.2846 23.8716 8.22238C23.8066 8.23127 23.7394 8.24682 23.679 8.25571C23.7058 8.19349 23.7305 8.13127 23.773 8.07793Z" fill="white"/>
<path d="M26.9743 8.21778C27.0146 8.20889 27.0729 8.18 27.102 8.22667C27.0684 8.33334 26.9542 8.37778 26.8646 8.42223C26.5242 8.58223 26.1905 8.75556 25.8501 8.92445C25.8366 8.89112 25.8165 8.86667 25.8008 8.83556C25.9889 8.69778 26.1994 8.59556 26.4055 8.48C26.5958 8.38889 26.775 8.28223 26.9743 8.21778Z" fill="white"/>
<path d="M20.5219 8.48248C20.5308 8.41359 20.5801 8.3647 20.6159 8.31581C20.8779 8.59803 21.0997 8.92692 21.2206 9.29803C21.3348 9.65359 21.3639 10.0247 21.4334 10.3914C21.4714 10.5758 21.5028 10.7714 21.626 10.918C21.7088 11.0203 21.8275 11.0847 21.9373 11.1469C21.9619 11.0291 21.991 10.9069 22.0985 10.838C22.4322 10.618 22.8174 10.4825 23.2004 10.3603C22.8913 10.3514 22.5756 10.3603 22.2687 10.3558C22.0179 10.3514 21.7626 10.3714 21.5162 10.3269C21.5252 10.2336 21.5252 10.1358 21.5812 10.0491C21.6954 9.86248 21.8925 9.75136 22.0873 9.65359C22.3785 9.50692 22.6696 9.37581 22.9876 9.29137C22.9048 9.2047 22.7816 9.11137 22.8152 8.97359C22.8734 8.81137 23.0168 8.65137 23.1982 8.65581C23.3997 8.65581 23.5923 8.73803 23.7648 8.83581C23.8678 8.9047 23.9999 8.97359 24.0358 9.10025C24.0313 9.18914 23.982 9.27136 23.9327 9.34025C23.8208 9.47581 23.6282 9.46692 23.4647 9.48248C23.4557 9.58914 23.44 9.71803 23.3325 9.77136C23.2989 9.6847 23.2676 9.6047 23.2295 9.51803C22.8353 9.59136 22.4815 9.79136 22.1747 10.0358C23.0503 10.0403 23.9215 10.0203 24.795 10.0225C24.8532 10.0269 24.9092 10.0314 24.9674 10.038C24.9294 10.2669 24.6964 10.3803 24.4904 10.4291C24.0761 10.518 23.6595 10.6003 23.2497 10.6825C22.9406 10.7447 22.6248 10.818 22.3449 10.9558C22.2419 11.0047 22.1567 11.0914 22.0828 11.1847C22.2889 11.2625 22.5016 11.3069 22.7166 11.3469C22.7861 11.3625 22.8891 11.3803 22.9048 11.4647C22.9339 11.578 22.9384 11.7336 22.8264 11.8069C22.6875 11.8403 22.5464 11.8069 22.4076 11.7825C22.0246 11.7247 21.6596 11.5247 21.4423 11.2047C21.2744 10.9714 21.2296 10.678 21.1825 10.4025C21.0706 10.5536 20.9608 10.7091 20.822 10.8336C20.4524 11.1803 20.0045 11.4336 19.5364 11.6336C19.3752 11.7069 19.1714 11.7269 19.0057 11.6291C18.8914 11.5603 18.8489 11.4203 18.7996 11.3069C18.3674 11.5269 17.9239 11.738 17.4447 11.8291C17.149 11.8825 16.8489 11.9225 16.5488 11.918C16.7056 11.8403 16.8691 11.7825 17.0259 11.7225C17.5477 11.5069 18.0605 11.2669 18.5667 11.0047C18.6294 10.9669 18.7055 10.9358 18.7481 10.878C18.7974 10.7469 18.8019 10.6091 18.8713 10.4825C18.9407 10.3314 19.0728 10.2136 19.2072 10.1247C19.1176 10.3203 19.0213 10.5247 18.9945 10.7403C19.299 10.5558 19.5902 10.3491 19.8455 10.0958C19.9104 10.0225 20.0067 9.93359 19.9687 9.82692C19.9194 9.67581 19.841 9.53803 19.7828 9.39137C19.6954 9.17581 19.5947 8.95137 19.6148 8.71359C19.6193 8.63581 19.6775 8.57803 19.7134 8.52248C19.9239 8.65803 20.0538 8.87803 20.1725 9.08914C20.1322 9.09803 20.0829 9.1047 20.0403 9.11803C20.1232 9.33803 20.2531 9.53359 20.2912 9.77136C20.3203 9.95136 20.2777 10.1514 20.1478 10.2847C19.8231 10.6314 19.4245 10.8914 19.046 11.1736C19.1109 11.2114 19.1848 11.2603 19.2632 11.2558C19.42 11.2514 19.5723 11.198 19.7156 11.138C20.2374 10.9091 20.6697 10.5269 21.1086 10.1714C20.9966 9.74692 20.804 9.35137 20.6002 8.96914C20.551 8.81581 20.5017 8.64914 20.5219 8.48248ZM23.0503 9.03581C23.1041 9.10914 23.1735 9.16692 23.2609 9.19803C23.3885 9.22692 23.5117 9.14914 23.6102 9.06692C23.4915 8.97803 23.3504 8.9047 23.2004 8.9047C23.1287 8.90692 23.0503 8.96692 23.0503 9.03581Z" fill="white"/>
<path d="M13.977 8.48231C13.9814 8.42898 14.0262 8.36898 14.0889 8.37564C14.2502 8.36009 14.3644 8.48898 14.4629 8.5912C14.5167 8.64453 14.557 8.71786 14.5256 8.79564C14.5055 8.88231 14.407 8.87786 14.3398 8.89342C14.1964 8.90231 14.1382 9.05564 14.0307 9.12231C13.8135 9.26897 13.5425 9.38675 13.2715 9.35119C13.3364 9.25786 13.4484 9.21564 13.5514 9.18453C13.744 9.12231 13.9053 8.98009 14.0441 8.83786C14.0061 8.71786 13.9568 8.60453 13.977 8.48231ZM14.0688 8.49787C14.0777 8.57564 14.0979 8.65786 14.1382 8.72231C14.1673 8.66009 14.1964 8.5912 14.2211 8.5312C14.1696 8.51787 14.118 8.50675 14.0688 8.49787ZM14.2815 8.7912C14.3353 8.78675 14.3846 8.77786 14.4383 8.77564C14.4293 8.70675 14.4137 8.64009 14.3846 8.58009C14.3174 8.62453 14.3106 8.71342 14.2815 8.7912Z" fill="white"/>
<path d="M22.0553 8.51772C22.0844 8.47994 22.1336 8.45995 22.1695 8.4355C22.1695 8.5955 22.2837 8.71328 22.2971 8.86661C22.3106 9.02661 22.109 9.10216 21.9858 9.03327C21.9478 9.00439 21.9164 8.9755 21.8828 8.94661C21.8179 9.00439 21.744 9.08883 21.6454 9.06883C21.4931 9.03994 21.4103 8.86439 21.4394 8.72217C21.4528 8.62439 21.5334 8.55994 21.6073 8.50217C21.5939 8.5955 21.5581 8.68661 21.5693 8.78439C21.5782 8.85772 21.6588 8.87772 21.7171 8.91105C21.7551 8.80439 21.7663 8.68661 21.782 8.56883C21.791 8.50661 21.8694 8.4955 21.9097 8.46661C21.9142 8.55994 21.9097 8.65772 21.9388 8.74883C21.9679 8.81105 22.0329 8.84216 22.0866 8.87994C22.1404 8.75994 22.0597 8.63772 22.0553 8.51772Z" fill="white"/>
<path d="M14.4628 9.09326C14.5457 9.05548 14.6308 9.01103 14.7226 9.00437C14.81 8.99992 14.8503 9.13103 14.7853 9.18437C14.6868 9.26214 14.5681 9.29103 14.4516 9.34437C14.1851 9.47103 13.9186 9.59325 13.6588 9.73103C13.6006 9.76881 13.5312 9.75992 13.4707 9.74659C13.5088 9.66881 13.5603 9.59992 13.6387 9.55548C13.9029 9.38214 14.1829 9.23103 14.4628 9.09326Z" fill="white"/>
<path d="M24.4677 9.23112C24.4879 9.14223 24.5909 9.1289 24.6693 9.10001C24.6894 9.23112 24.7029 9.36445 24.7835 9.47112C24.7432 9.47556 24.6961 9.48001 24.6603 9.48445C24.6021 9.57112 24.5416 9.66445 24.4476 9.7089C24.2908 9.78667 24.1139 9.78667 23.9414 9.77779C24.1228 9.7289 24.3445 9.71556 24.4632 9.55334C24.5439 9.46001 24.4587 9.33778 24.4677 9.23112Z" fill="white"/>
<path d="M28.0613 9.36207C28.0859 9.28874 28.1733 9.28874 28.2337 9.29985C28.3659 9.32429 28.4644 9.4354 28.545 9.52874C28.6077 9.58651 28.6279 9.69096 28.5697 9.76207C28.4823 9.83096 28.348 9.79096 28.2696 9.87985C28.0389 10.1398 27.6895 10.3087 27.3379 10.271C27.4028 10.1776 27.5148 10.1354 27.6223 10.1043C27.8149 10.0421 27.9717 9.8954 28.1106 9.75763C28.0725 9.63096 28.0143 9.49763 28.0613 9.36207ZM28.1509 9.4154C28.1598 9.49763 28.18 9.57763 28.2091 9.65096C28.2427 9.58874 28.274 9.52429 28.2964 9.45985C28.2449 9.44429 28.1912 9.42652 28.1509 9.4154ZM28.4263 9.51318C28.3972 9.5754 28.3771 9.64429 28.3614 9.70874C28.4151 9.70429 28.4644 9.6954 28.5182 9.69318C28.5047 9.63096 28.4935 9.56651 28.4644 9.50874C28.4555 9.50874 28.4353 9.51318 28.4263 9.51318Z" fill="white"/>
<path d="M19.0581 9.49998C19.1477 9.41332 19.309 9.45998 19.3672 9.56221C19.3963 9.61998 19.3336 9.66443 19.309 9.70887C19.2597 9.67998 19.2149 9.64665 19.1611 9.63109C19.1119 9.61776 19.0984 9.6711 19.0828 9.70443C19.0245 9.83998 18.9954 9.98221 18.9551 10.12C18.9215 10.0333 18.8969 9.94887 18.8431 9.8711C18.7849 9.78887 18.6908 9.74443 18.6214 9.67998C18.5565 9.62665 18.6259 9.50887 18.7043 9.51998C18.8163 9.53332 18.8812 9.63332 18.9551 9.70443C18.9842 9.63998 19.0066 9.55776 19.0581 9.49998Z" fill="white"/>
<path d="M13.3411 10.2847C13.4307 10.1336 13.5763 10.0158 13.7353 9.938C13.6949 10.0513 13.6233 10.1491 13.5628 10.2469C13.5135 10.3202 13.5135 10.4069 13.5091 10.4824C13.621 10.478 13.7263 10.458 13.8383 10.438C13.8092 10.5247 13.7756 10.618 13.6949 10.6669C13.6054 10.7247 13.4777 10.7691 13.3836 10.6958C13.2761 10.5824 13.2672 10.4069 13.3411 10.2847Z" fill="white"/>
<path d="M20.9322 10.9734C21.015 10.96 21.1091 10.9245 21.1785 10.9823C21.2479 11.0267 21.2726 11.1445 21.2076 11.2067C21.1091 11.2601 20.9769 11.2312 20.8963 11.3045C20.9098 11.4223 20.9993 11.5156 21.0195 11.6267C21.024 11.7001 20.9658 11.7578 20.9322 11.8134C20.9075 11.7001 20.8918 11.5801 20.8291 11.4801C20.7911 11.4067 20.7351 11.3378 20.7508 11.2512C20.7709 11.1578 20.8694 11.1134 20.9389 11.0667C20.9366 11.0467 20.9322 11.0089 20.9322 10.9734Z" fill="white"/>
<path d="M24.5817 11.1113C24.6198 11.0179 24.7094 10.9735 24.7923 10.9246C24.7587 11.0024 24.7027 11.0757 24.6937 11.1601C24.7318 11.229 24.7923 11.2779 24.8259 11.3468C24.8348 11.4646 24.6646 11.4824 24.6041 11.409C24.5325 11.3313 24.5414 11.2046 24.5817 11.1113Z" fill="white"/>
<path d="M23.7004 10.98C23.8325 10.9355 23.9759 10.98 24.0946 11.0488C24.0072 11.2244 23.8101 11.2688 23.6623 11.3755C23.6668 11.3911 23.6713 11.4288 23.6713 11.4488C23.7743 11.4533 23.884 11.4644 23.9759 11.4111C24.0946 11.3488 24.2178 11.2888 24.3499 11.2644C24.2469 11.3533 24.1438 11.4444 24.0408 11.5288C23.9176 11.6266 23.7452 11.6266 23.5974 11.5866C23.5279 11.5622 23.4361 11.5 23.4585 11.4111C23.4966 11.2977 23.6108 11.24 23.7004 11.1755C23.6354 11.1711 23.5727 11.1666 23.5078 11.1622C23.5615 11.0911 23.6108 11.0022 23.7004 10.98Z" fill="white"/>
<path d="M27.1517 11.3021C27.1025 11.2488 27.1473 11.1599 27.2145 11.151C27.3421 11.1266 27.4519 11.2332 27.5101 11.3355C27.5974 11.4777 27.593 11.6577 27.519 11.8088C27.4944 11.7066 27.4944 11.5977 27.4407 11.5021C27.369 11.4043 27.2391 11.3888 27.1517 11.3021Z" fill="white"/>
<path d="M29.3061 11.3686C29.483 11.3064 29.6599 11.2264 29.848 11.242C29.8077 11.3109 29.754 11.3731 29.6711 11.402C29.3755 11.5086 29.0754 11.6109 28.7887 11.7286C28.6991 11.7686 28.6028 11.802 28.5043 11.822C28.4953 11.7931 28.4797 11.7686 28.4707 11.7398C28.735 11.5886 29.0216 11.482 29.3061 11.3686Z" fill="white"/>
<path d="M28.731 17.1356H27.264V16.9978C27.329 16.9401 27.4208 16.8623 27.4208 16.8178C27.4208 16.7401 27.2349 16.5823 27.1946 16.5823C27.1453 16.5823 26.9684 16.7445 26.9684 16.8178C26.9684 16.8667 27.0513 16.9356 27.1162 16.9934L27.1207 16.9978V17.1401H15.5645C15.9743 17.5445 16.5879 17.5401 17.8108 17.5512C18.9037 17.5667 18.8992 17.5667 27.1207 17.5512V17.6978C27.0558 17.7556 26.9729 17.8334 26.9729 17.8778C26.9729 17.9556 27.1498 18.1134 27.1991 18.1134C27.2327 18.1134 27.3424 18.0245 27.3962 17.9467H27.9023C27.9359 18.0045 28.0098 18.0356 28.0994 18.0356C28.189 18.0356 28.2629 17.9978 28.2965 17.9467H28.9034C28.9773 18.0334 29.0848 18.0356 29.1453 18.0356C29.376 18.0267 29.4297 17.9089 29.4297 17.5067C29.4208 17.1645 29.1901 17.1289 28.731 17.1356ZM28.8362 17.8223H28.2987C28.2651 17.7645 28.1912 17.7289 28.1016 17.7289C28.0121 17.7289 27.9382 17.7667 27.9046 17.8223H27.4074C27.3783 17.7823 27.32 17.7289 27.2752 17.6956V17.5489H28.8205H28.8452C28.8116 17.6578 28.8094 17.7489 28.8362 17.8223Z" fill="white"/>
</g>
<rect x="1.14414" y="0.15" width="42.7" height="23.7" stroke="#EFEFF8" stroke-width="0.3"/>
<defs>
<clipPath id="clip0_684_43974">
<rect x="0.994141" width="43" height="24" fill="white"/>
</clipPath>
</defs>
</svg>
