<svg width="44" height="24" viewBox="0 0 44 24" fill="none" xmlns="http://www.w3.org/2000/svg">
<g clip-path="url(#clip0_684_44008)">
<path d="M43.3262 0H0.326172V24H43.3262V0Z" fill="#ED2939"/>
<path d="M43.3262 12H0.326172V24H43.3262V12Z" fill="white"/>
<path d="M12.7688 5.99992C12.7688 8.49326 10.733 10.5133 8.22018 10.5133C5.70737 10.5133 3.67383 8.49326 3.67383 5.99992C3.67383 3.50659 5.70961 1.48659 8.22242 1.48659C10.7352 1.48659 12.7688 3.50659 12.7688 5.99992Z" fill="white"/>
<path d="M14.1988 5.99995C14.1988 8.3555 12.2749 10.2644 9.90099 10.2644C7.52703 10.2644 5.60547 8.3555 5.60547 5.99995C5.60547 3.64439 7.52927 1.7355 9.90099 1.7355C12.2727 1.7355 14.1988 3.64439 14.1988 5.99995Z" fill="#ED2939"/>
<path d="M8.78524 6.10904L8.16711 5.64015L7.54898 6.11126L7.78638 5.35348L7.16602 4.88459L7.93195 4.88682L8.16711 4.12682L8.40227 4.88682L9.1682 4.88459L8.54784 5.35126L8.78524 6.10904Z" fill="white"/>
<path d="M13.6329 6.10904L13.0148 5.64015L12.3966 6.10904L12.634 5.35126L12.0137 4.8846L12.7796 4.88682L13.0148 4.12682L13.2499 4.88682L14.0159 4.8846L13.3955 5.35126L13.6329 6.10904Z" fill="white"/>
<path d="M11.211 4.32454L10.5929 3.85565L9.97477 4.32677L10.2122 3.56899L9.5918 3.10232L10.3577 3.10454L10.5929 2.34454L10.828 3.10454L11.594 3.10232L10.9736 3.56899L11.211 4.32454Z" fill="white"/>
<path d="M9.69344 8.96418L9.07531 8.49307L8.45719 8.9664L8.69458 8.20862L8.07422 7.74195L8.84016 7.74418L9.07531 6.98418L9.31047 7.74418L10.0764 7.74195L9.45604 8.20862L9.69344 8.96418Z" fill="white"/>
<path d="M12.7266 8.96451L12.1085 8.4934L11.4904 8.96451L11.7278 8.20673L11.1074 7.74006L11.8734 7.74228L12.1085 6.98228L12.3437 7.74228L13.1096 7.74006L12.4892 8.20673L12.7266 8.96451Z" fill="white"/>
</g>
<rect x="0.476172" y="0.15" width="42.7" height="23.7" stroke="#EFEFF8" stroke-width="0.3"/>
<defs>
<clipPath id="clip0_684_44008">
<rect x="0.326172" width="43" height="24" fill="white"/>
</clipPath>
</defs>
</svg>
