<svg width="44" height="24" viewBox="0 0 44 24" fill="none" xmlns="http://www.w3.org/2000/svg">
<g clip-path="url(#clip0_684_37430)">
<path d="M-2.35938 0H46.0156V24H-2.35938V0Z" fill="#FF0000"/>
<path d="M-2.35938 0H46.0156V16H-2.35938V0Z" fill="#005CE5"/>
<path d="M-2.35938 0H46.0156V8H-2.35938V0Z" fill="white"/>
<path fill-rule="evenodd" clip-rule="evenodd" d="M9.73418 4.2086C9.68005 4.2087 9.62605 4.20977 9.5722 4.21136C8.52505 4.23828 7.5419 4.50662 6.84188 4.83385L6.84198 4.83478C6.76541 4.86651 6.69044 4.89834 6.61914 4.93017L6.85975 8.66978C7.02648 10.624 8.30997 11.7618 9.73606 12.2086C11.1622 11.7618 12.4455 10.624 12.6123 8.66978L12.8516 4.94202C12.7801 4.90534 12.7052 4.86978 12.6287 4.83473L12.6288 4.8338C11.8931 4.48987 10.8447 4.21047 9.7378 4.20865C9.737 4.20865 9.73616 4.20856 9.73536 4.20856C9.73493 4.2086 9.73456 4.2086 9.73418 4.2086Z" fill="#005CE5"/>
<g clip-path="url(#clip1_684_37430)">
<path fill-rule="evenodd" clip-rule="evenodd" d="M9.0748 5.07155H9.24479L9.16153 4.92697L9.24479 4.78575H9.0748L8.99154 4.64453L8.90827 4.78575H8.73828L8.82154 4.92697L8.73828 5.07155H8.90827L8.99154 5.21276L9.0748 5.07155Z" fill="#FFE500"/>
<path fill-rule="evenodd" clip-rule="evenodd" d="M10.4982 5.07161H10.6647L10.5814 4.92703L10.6647 4.78581H10.4982L10.4115 4.64459L10.3282 4.78581H10.1582L10.2415 4.92703L10.1582 5.07161H10.3282L10.4115 5.21282L10.4982 5.07161Z" fill="#FFE500"/>
<path fill-rule="evenodd" clip-rule="evenodd" d="M9.83066 6.25874H10.0006L9.91392 6.11752L10.0006 5.97631H9.83066L9.74739 5.83173L9.66066 5.97631H9.49414L9.5774 6.11752L9.49414 6.25874H9.66066L9.74739 6.39996L9.83066 6.25874Z" fill="#FFE500"/>
</g>
<path fill-rule="evenodd" clip-rule="evenodd" d="M9.73667 6.79602L9.0328 8.15986L8.57777 7.5733L7.38867 9.13254C7.41017 9.22933 7.43542 9.32275 7.46293 9.41399C7.59575 9.63636 7.85094 9.89027 8.17824 9.89027C8.43799 9.89027 8.6977 9.6841 8.95745 9.6841C9.21721 9.6841 9.47691 9.89027 9.73667 9.89027C9.99642 9.89027 10.2561 9.6841 10.5159 9.6841C10.7756 9.6841 11.0353 9.89027 11.2951 9.89027C11.6194 9.89027 11.8729 9.64112 12.0068 9.42019C12.0353 9.32653 12.061 9.23007 12.0832 9.13053L10.8957 7.5734L10.4406 8.15995L9.73667 6.79602ZM8.95745 9.89022C8.6977 9.89022 8.43799 10.0964 8.17824 10.0964C7.97266 10.0964 7.79611 10.0242 7.65929 9.92168C7.70759 10.0234 7.75871 10.1223 7.81459 10.216C7.92173 10.2821 8.04354 10.3268 8.17824 10.3268C8.43799 10.3268 8.6977 10.1207 8.95745 10.1207C9.21721 10.1207 9.47691 10.3268 9.73667 10.3268C9.99642 10.3268 10.2561 10.1207 10.5159 10.1207C10.7756 10.1207 11.0353 10.3268 11.2951 10.3268C11.4279 10.3268 11.548 10.2831 11.654 10.2186C11.7099 10.1253 11.761 10.0267 11.8093 9.92532C11.6732 10.0259 11.4982 10.0964 11.2951 10.0964C11.0353 10.0964 10.7756 9.89027 10.5158 9.89027C10.2561 9.89027 9.99638 10.0964 9.73662 10.0964C9.47696 10.0964 9.21721 9.89022 8.95745 9.89022ZM8.95745 10.3268C8.6977 10.3268 8.43799 10.533 8.17824 10.533C8.1218 10.533 8.06813 10.5264 8.01617 10.5165C8.4655 11.1122 9.07856 11.5109 9.7361 11.7401C10.3923 11.5112 11.0044 11.1122 11.4535 10.5175C11.4026 10.527 11.3501 10.533 11.295 10.533C11.0353 10.533 10.7755 10.3268 10.5158 10.3268C10.256 10.3268 9.99633 10.533 9.73657 10.533C9.47696 10.533 9.21721 10.3268 8.95745 10.3268Z" fill="white"/>
<path fill-rule="evenodd" clip-rule="evenodd" d="M9.73439 4.20844C9.6784 4.20844 9.62241 4.21066 9.56642 4.21066C9.62241 4.20844 9.6784 4.20844 9.73439 4.20844ZM6.84086 4.8351C6.76471 4.86621 6.68857 4.89955 6.61914 4.93066L6.85878 8.67067C7.0245 10.624 8.31002 11.7618 9.73439 12.2085C11.161 11.7618 12.4443 10.624 12.61 8.67067L12.8496 4.94177C12.778 4.90399 12.7041 4.86844 12.6279 4.8351L12.404 8.54622C12.2494 10.4462 11.058 11.5529 9.73439 11.9862C8.4108 11.5529 7.21935 10.4462 7.06482 8.54622L6.84086 4.8351Z" fill="#FF0000"/>
</g>
<rect x="0.478125" y="0.15" width="42.7" height="23.7" stroke="#EFEFF8" stroke-width="0.3"/>
<defs>
<clipPath id="clip0_684_37430">
<rect x="0.328125" width="43" height="24" fill="white"/>
</clipPath>
<clipPath id="clip1_684_37430">
<rect width="2.41875" height="2.32" fill="white" transform="translate(8.73828 4.08002)"/>
</clipPath>
</defs>
</svg>
