<svg width="44" height="24" viewBox="0 0 44 24" fill="none" xmlns="http://www.w3.org/2000/svg">
<g clip-path="url(#clip0_684_41022)">
<path d="M43.362 -2.24457H0.294922V26.2443H43.362V-2.24457Z" fill="#EE1C25"/>
<path d="M43.362 -2.24457H0.294922V16.7488H43.362V-2.24457Z" fill="#0B4EA2"/>
<path d="M43.362 -2.24457H0.294922V7.25099H43.362V-2.24457Z" fill="white"/>
<path d="M19.1249 4.45074H18.7375H13.2102H7.6874H7.29995L7.26188 4.83519C7.25292 4.91963 7.04688 6.92408 7.04688 11.3263C7.04688 13.3974 7.7501 15.2196 9.14313 16.7485C10.1151 17.8219 11.3872 18.7241 13.0288 19.5063L13.2147 19.5974L13.4006 19.5063C15.0422 18.7241 16.3165 17.8219 17.2863 16.7485C18.6748 15.2196 19.3825 13.3907 19.3825 11.3263C19.3825 6.92408 19.1765 4.92186 19.1675 4.83519L19.1249 4.45074Z" fill="white"/>
<path d="M13.2105 19.1218C10.8499 17.9907 7.47266 15.7552 7.47266 11.3196C7.47266 6.88405 7.68766 4.87738 7.68766 4.87738H13.2149H18.7422C18.7422 4.87738 18.9572 6.89071 18.9572 11.3196C18.9483 15.7552 15.5732 17.9907 13.2105 19.1218Z" fill="#EE1C25"/>
<path d="M13.7156 10.1625C14.3561 10.1713 15.6013 10.1958 16.7121 9.82913C16.7121 9.82913 16.683 10.2225 16.683 10.6847C16.683 11.1447 16.7121 11.5402 16.7121 11.5402C15.6931 11.2025 14.4345 11.1936 13.7156 11.2025V13.6469H12.7055V11.2025C11.9822 11.1936 10.7302 11.2025 9.70898 11.5402C9.70898 11.5402 9.7381 11.1469 9.7381 10.6847C9.7381 10.2247 9.70898 9.82913 9.70898 9.82913C10.8198 10.2002 12.0673 10.1713 12.7055 10.1625V8.62468C12.121 8.62024 11.2834 8.64913 10.3316 8.96246C10.3316 8.96246 10.3607 8.56913 10.3607 8.10691C10.3607 7.64469 10.3316 7.25135 10.3316 7.25135C11.2789 7.56469 12.1165 7.59357 12.7011 7.58913C12.6719 6.6158 12.3853 5.39136 12.3853 5.39136C12.3853 5.39136 12.9743 5.43802 13.2094 5.43802C13.4446 5.43802 14.0336 5.39136 14.0336 5.39136C14.0336 5.39136 13.7469 6.6158 13.7178 7.58913C14.3024 7.59357 15.14 7.56469 16.0873 7.25135C16.0873 7.25135 16.0582 7.64469 16.0582 8.10691C16.0582 8.56913 16.0873 8.96246 16.0873 8.96246C15.14 8.64913 14.2979 8.62024 13.7134 8.62468V10.1625H13.7156Z" fill="white"/>
<path d="M13.2098 13.3828C12.0183 13.3828 11.3823 15.0206 11.3823 15.0206C11.3823 15.0206 11.0284 14.2473 10.0564 14.2473C9.40023 14.2473 8.91648 14.8273 8.60742 15.3628C9.80336 17.2473 11.7092 18.4117 13.2053 19.1273C14.7036 18.4095 16.6117 17.2473 17.8031 15.3628C17.4963 14.8273 17.0126 14.2473 16.3541 14.2473C15.3822 14.2473 15.0283 15.0206 15.0283 15.0206C15.0283 15.0206 14.4012 13.3828 13.2098 13.3828Z" fill="#0B4EA2"/>
</g>
<rect x="0.478125" y="0.15" width="42.7" height="23.7" stroke="#EFEFF8" stroke-width="0.3"/>
<defs>
<clipPath id="clip0_684_41022">
<rect x="0.328125" width="43" height="24" fill="white"/>
</clipPath>
</defs>
</svg>
