<svg width="44" height="24" viewBox="0 0 44 24" fill="none" xmlns="http://www.w3.org/2000/svg">
<g clip-path="url(#clip0_684_45607)">
<path d="M44.1116 -2.30463H0.865234V26.3021H44.1116V-2.30463Z" fill="#00853F"/>
<path d="M44.1114 -2.30463H15.2812V26.3021H44.1114V-2.30463Z" fill="#FDEF42"/>
<path d="M44.1115 -2.30463H29.6953V26.3021H44.1115V-2.30463Z" fill="#E31B23"/>
<path d="M22.4887 7.23114L21.0039 11.7645L23.2905 12.5045L22.4887 7.23114Z" fill="#00853F"/>
<path d="M22.4893 7.23114L23.9741 11.7645L21.6875 12.5045L22.4893 7.23114Z" fill="#00853F"/>
<path d="M27.0578 10.5267H22.2539V12.9112L27.0578 10.5267Z" fill="#00853F"/>
<path d="M27.0567 10.5267L23.171 13.3312L21.7578 11.4001L27.0567 10.5267Z" fill="#00853F"/>
<path d="M25.3144 15.8579L23.8296 11.3246L21.543 12.0646L25.3144 15.8579Z" fill="#00853F"/>
<path d="M25.3137 15.8576L21.4258 13.0532L22.839 11.1221L25.3137 15.8576Z" fill="#00853F"/>
<path d="M19.6621 15.8576L23.55 13.0532L22.1368 11.1221L19.6621 15.8576Z" fill="#00853F"/>
<path d="M19.6621 15.8579L21.147 11.3246L23.4336 12.0646L19.6621 15.8579Z" fill="#00853F"/>
<path d="M17.9199 10.5267L21.8078 13.3312L23.221 11.4001L17.9199 10.5267Z" fill="#00853F"/>
<path d="M17.9199 10.5267H22.7261V12.9112L17.9199 10.5267Z" fill="#00853F"/>
</g>
<rect x="1.13828" y="0.15" width="42.7" height="23.7" stroke="#EFEFF8" stroke-width="0.3"/>
<defs>
<clipPath id="clip0_684_45607">
<rect x="0.988281" width="43" height="24" fill="white"/>
</clipPath>
</defs>
</svg>
