<svg width="44" height="24" viewBox="0 0 44 24" fill="none" xmlns="http://www.w3.org/2000/svg">
<g clip-path="url(#clip0_684_45350)">
<path d="M0.660156 0H43.6602V24H0.660156V0Z" fill="#3E5EB9"/>
<path d="M0.660156 4.5H43.6602V19.5H0.660156V4.5Z" fill="#FFD900"/>
<path d="M0.660156 6H43.6602V18H0.660156V6Z" fill="#B10C0C"/>
<path d="M33.8204 9.25543L32.3535 9.77099L33.8204 10.2865L35.2874 9.77099L33.8204 9.25543Z" fill="white"/>
<path d="M33.8208 10.3155L32.2598 9.7666L33.8208 9.21771L35.3817 9.7666L33.8208 10.3155ZM32.4434 9.77105L33.823 10.2555L35.2026 9.77105L33.823 9.2866L32.4434 9.77105Z" fill="black"/>
<path d="M11.6337 9.59998H32.8538C32.959 9.59998 33.0441 9.67553 33.0441 9.77109C33.0441 9.86664 32.959 9.9422 32.8538 9.9422H11.6337C11.5285 9.9422 11.4434 9.86664 11.4434 9.77109C11.4478 9.67553 11.5329 9.59998 11.6337 9.59998Z" fill="#FFD900"/>
<path d="M32.8533 9.97129H11.6333C11.5123 9.97129 11.416 9.88018 11.416 9.77129C11.416 9.6624 11.5123 9.57129 11.6333 9.57129H32.8533C32.9742 9.57129 33.0705 9.6624 33.0705 9.77129C33.0728 9.88018 32.9742 9.97129 32.8533 9.97129ZM11.6333 9.63129C11.5437 9.63129 11.4765 9.69573 11.4765 9.77129C11.4765 9.84684 11.5482 9.91129 11.6333 9.91129H32.8533C32.9429 9.91129 33.0101 9.84684 33.0101 9.77129C33.0101 9.69573 32.9384 9.63129 32.8533 9.63129H11.6333Z" fill="black"/>
<path d="M32.5307 9.94446C32.6158 9.94446 32.7032 9.86001 32.7032 9.77334C32.7032 9.6889 32.6181 9.60223 32.5307 9.60223V9.94446ZM32.356 9.94446C32.4411 9.94446 32.5285 9.86001 32.5285 9.77334C32.5285 9.6889 32.4434 9.60223 32.356 9.60223V9.94446ZM32.1836 9.94446C32.2687 9.94446 32.356 9.86001 32.356 9.77334C32.356 9.6889 32.2709 9.60223 32.1836 9.60223" fill="#FFD900"/>
<path d="M32.5307 9.97129V9.91129C32.6002 9.91129 32.6718 9.84018 32.6718 9.77129C32.6718 9.7024 32.6002 9.63129 32.5307 9.63129V9.57129C32.6315 9.57129 32.7323 9.67129 32.7323 9.77129C32.7323 9.87129 32.6315 9.97129 32.5307 9.97129ZM32.356 9.97129V9.91129C32.4255 9.91129 32.4971 9.84018 32.4971 9.77129C32.4971 9.7024 32.4255 9.63129 32.356 9.63129V9.57129C32.4568 9.57129 32.5576 9.67129 32.5576 9.77129C32.5576 9.87129 32.4568 9.97129 32.356 9.97129ZM32.1836 9.97129V9.91129C32.253 9.91129 32.3247 9.84018 32.3247 9.77129C32.3247 9.7024 32.253 9.63129 32.1836 9.63129V9.57129C32.2844 9.57129 32.3852 9.67129 32.3852 9.77129C32.3852 9.87129 32.2844 9.97129 32.1836 9.97129Z" fill="black"/>
<path d="M32.4148 10.2842L30.9434 10.7997L32.4103 11.3153L33.8772 10.7997L32.4148 10.2842Z" fill="white"/>
<path d="M32.4145 11.3489L30.8535 10.8L32.4145 10.2511L33.9755 10.8L32.4145 11.3489ZM31.0372 10.8L32.4167 11.2844L33.7963 10.8L32.4167 10.3155L31.0372 10.8Z" fill="black"/>
<path d="M10.2275 10.6287H31.4475C31.5528 10.6287 31.6379 10.7043 31.6379 10.7998C31.6379 10.8954 31.5528 10.9709 31.4475 10.9709H10.2275C10.1222 10.9709 10.0371 10.8954 10.0371 10.7998C10.0416 10.7043 10.1267 10.6287 10.2275 10.6287Z" fill="#FFD900"/>
<path d="M31.449 11.0046H10.229C10.108 11.0046 10.0117 10.9135 10.0117 10.8046C10.0117 10.6957 10.108 10.6046 10.229 10.6046H31.449C31.57 10.6046 31.6663 10.6957 31.6663 10.8046C31.6663 10.9113 31.57 11.0046 31.449 11.0046ZM10.229 10.6602C10.1394 10.6602 10.0722 10.7246 10.0722 10.8002C10.0722 10.8757 10.1439 10.9402 10.229 10.9402H31.449C31.5386 10.9402 31.6058 10.8757 31.6058 10.8002C31.6058 10.7246 31.5341 10.6602 31.449 10.6602H10.229Z" fill="black"/>
<path d="M31.1203 10.9709C31.2054 10.9709 31.2927 10.8865 31.2927 10.7998C31.2927 10.7132 31.2076 10.6287 31.1203 10.6287V10.9709ZM30.9478 10.9709C31.0329 10.9709 31.1203 10.8865 31.1203 10.7998C31.1203 10.7132 31.0352 10.6287 30.9478 10.6287V10.9709ZM30.7754 10.9709C30.8605 10.9709 30.9478 10.8865 30.9478 10.7998C30.9478 10.7132 30.8627 10.6287 30.7754 10.6287" fill="#FFD900"/>
<path d="M31.1203 11V10.94C31.1897 10.94 31.2614 10.8689 31.2614 10.8C31.2614 10.7311 31.1897 10.66 31.1203 10.66V10.6C31.2211 10.6 31.3218 10.7 31.3218 10.8C31.3218 10.9 31.2211 11 31.1203 11ZM30.9478 11V10.94C31.0173 10.94 31.0889 10.8689 31.0889 10.8C31.0889 10.7311 31.0173 10.66 30.9478 10.66V10.6C31.0486 10.6 31.1494 10.7 31.1494 10.8C31.1494 10.9 31.0486 11 30.9478 11ZM30.7754 11V10.94C30.8448 10.94 30.9165 10.8689 30.9165 10.8C30.9165 10.7311 30.8448 10.66 30.7754 10.66V10.6C30.8762 10.6 30.977 10.7 30.977 10.8C30.977 10.9 30.8762 11 30.7754 11Z" fill="black"/>
<path d="M7.89382 11.7446H36.7531C36.8942 11.7446 37.0062 11.8601 37.0062 12.0001C37.0062 12.1446 36.8942 12.2557 36.7531 12.2557H7.89382C7.75273 12.2557 7.64075 12.1401 7.64075 12.0001C7.63627 11.8601 7.75273 11.7446 7.89382 11.7446Z" fill="#FFD900"/>
<path d="M36.7489 12.289H7.89409C7.73732 12.289 7.60742 12.1601 7.60742 12.0001C7.60742 11.8401 7.73732 11.7112 7.89409 11.7112H36.7534C36.9101 11.7112 37.04 11.8401 37.04 12.0001C37.04 12.1601 36.9101 12.289 36.7489 12.289ZM7.89409 11.7756C7.77315 11.7756 7.67237 11.8756 7.67237 12.0001C7.67237 12.1245 7.77315 12.2245 7.89409 12.2245H36.7534C36.8743 12.2245 36.9751 12.1245 36.9751 12.0001C36.9751 11.8756 36.8743 11.7756 36.7534 11.7756H7.89409Z" fill="black"/>
<path d="M30.7976 11.9999C29.0687 13.7155 26.7664 17.1444 22.1596 17.1444C18.1283 17.1444 15.2504 13.7155 13.5215 11.9999C15.2504 10.2844 18.1283 6.85547 22.1596 6.85547C26.7664 6.85547 29.0687 10.2844 30.7976 11.9999Z" fill="white"/>
<path d="M22.1589 17.1712C18.5352 17.1712 15.8499 14.4224 14.0762 12.6024C13.8702 12.3935 13.6776 12.1935 13.5006 12.0179L13.4805 11.9979L13.5006 11.9779C13.6776 11.8024 13.8724 11.6024 14.0762 11.3935C15.8499 9.57347 18.5352 6.82458 22.1633 6.82458C26.0692 6.82458 28.3267 9.28014 29.975 11.0757C30.2729 11.4046 30.5551 11.7112 30.826 11.9757L30.8462 11.9957L30.826 12.0157C30.5595 12.2801 30.2773 12.5868 29.975 12.9157C28.3222 14.7157 26.0647 17.1712 22.1589 17.1712ZM13.5633 12.0001C13.7358 12.1712 13.9217 12.3646 14.1188 12.5646C15.8903 14.3757 18.5621 17.1112 22.1589 17.1112C26.0401 17.1112 28.2864 14.6624 29.928 12.8801C30.2191 12.5646 30.4968 12.2601 30.7589 12.0001C30.4968 11.7401 30.2236 11.4401 29.928 11.1201C28.2864 9.33125 26.0378 6.88903 22.1589 6.88903C18.5598 6.88903 15.8858 9.62458 14.1165 11.4379C13.9239 11.6357 13.738 11.829 13.5633 12.0001Z" fill="black"/>
<path d="M21.5562 8.64436C22.0154 9.15547 21.6324 9.36436 22.1206 9.39547C22.6335 9.43102 22.3423 9.93991 22.7746 9.95547C23.0769 9.96658 22.7455 11.1644 23.0366 11.5599C23.33 11.971 23.5808 11.6799 23.5853 11.9755C23.5898 12.2844 22.7791 12.251 22.7679 13.1999C22.7432 13.7444 22.0826 13.7799 22.0534 14.131C22.0131 14.4621 23.3546 14.6466 23.3345 14.9421C23.3143 15.2377 21.8877 15.191 21.8272 15.5266C21.7959 15.8266 23.7914 16.0755 23.9481 16.951C23.6503 17.0466 22.8037 17.1399 22.1654 17.1399C18.1342 17.1444 15.2563 13.711 13.5273 11.9955C15.2518 10.2844 18.1319 6.85547 22.1632 6.85547C22.1609 6.85547 20.9628 7.93991 21.5562 8.64436Z" fill="black"/>
<path d="M16.9551 11.5446V10.1735V11.5446ZM17.7949 10.1713V11.5424V10.1713ZM18.6325 10.1713V11.5424V10.1713Z" fill="black"/>
<path d="M18.8423 11.5444H18.4235V10.1733H18.8423V11.5444ZM18.0025 11.5444H17.5837V10.1733H18.0025V11.5444ZM17.1649 11.5444H16.7461V10.1733H17.1649V11.5444Z" fill="white"/>
<path d="M16.9551 13.8288V12.4577V13.8288ZM17.7949 12.4554V13.8266V12.4554ZM18.6325 12.4554V13.8266V12.4554Z" fill="black"/>
<path d="M18.8423 13.8291H18.4235V12.4579H18.8423V13.8291ZM18.0025 13.8291H17.5837V12.4579H18.0025V13.8291ZM17.1649 13.8291H16.7461V12.4579H17.1649V13.8291Z" fill="white"/>
<path d="M19.4688 11.5446V10.1735V11.5446ZM20.3064 10.1713V11.5424V10.1713ZM21.144 10.1713V11.5424V10.1713Z" fill="black"/>
<path d="M21.3541 11.5444H20.9353V10.1733H21.3541V11.5444ZM20.5165 11.5444H20.0977V10.1733H20.5165V11.5444ZM19.6766 11.5444H19.2578V10.1733H19.6766V11.5444Z" fill="white"/>
<path d="M19.4688 13.8288V12.4577V13.8288ZM20.3064 12.4554V13.8266V12.4554ZM21.144 12.4554V13.8266V12.4554Z" fill="black"/>
<path d="M21.3541 13.8291H20.9353V12.4579H21.3541V13.8291ZM20.5165 13.8291H20.0977V12.4579H20.5165V13.8291ZM19.6766 13.8291H19.2578V12.4579H19.6766V13.8291Z" fill="white"/>
<path d="M23.2891 11.5446V10.1735V11.5446ZM24.1267 10.1713V11.5424V10.1713ZM24.9665 10.1713V11.5424V10.1713Z" fill="black"/>
<path d="M25.1744 11.5444H24.7556V10.1733H25.1744V11.5444ZM24.3368 11.5444H23.918V10.1733H24.3368V11.5444ZM23.4992 11.5444H23.0781V10.1733H23.4969V11.5444H23.4992Z" fill="black"/>
<path d="M23.2891 13.8288V12.4577V13.8288ZM24.1267 12.4554V13.8266V12.4554ZM24.9665 12.4554V13.8266V12.4554Z" fill="black"/>
<path d="M25.1744 13.8291H24.7556V12.4579H25.1744V13.8291ZM24.3368 13.8291H23.918V12.4579H24.3368V13.8291ZM23.4992 13.8291H23.0781V12.4579H23.4969V13.8291H23.4992Z" fill="black"/>
<path d="M25.8027 11.5446V10.1735V11.5446ZM26.6426 10.1713V11.5424V10.1713ZM27.4757 10.1713V11.5424V10.1713Z" fill="black"/>
<path d="M27.6875 11.5444H27.2687V10.1733H27.6875V11.5444ZM26.8476 11.5444H26.4333V10.1733H26.8521V11.5444H26.8476ZM26.0145 11.5444H25.5957V10.1733H26.0145V11.5444Z" fill="black"/>
<path d="M25.8027 13.8288V12.4577V13.8288ZM26.6426 12.4554V13.8266V12.4554ZM27.4757 12.4554V13.8266V12.4554Z" fill="black"/>
<path d="M27.6875 13.8291H27.2687V12.4579H27.6875V13.8291ZM26.8476 13.8291H26.4333V12.4579H26.8521V13.8291H26.8476ZM26.0145 13.8291H25.5957V12.4579H26.0145V13.8291Z" fill="black"/>
<path d="M34.9389 11.7953C34.6768 12.2442 35.1404 11.6465 36.2692 12.3998C36.4797 12.5398 36.6611 12.9087 36.6611 13.1642C36.6096 13.1287 36.5693 13.0531 36.511 12.9998C36.4304 13.0798 36.5872 13.4554 36.6118 13.6309C36.4349 13.5354 36.4506 13.4865 36.3946 13.3665C36.4058 13.5109 36.3632 13.9154 36.4349 14.0665C36.2938 14.0265 36.305 13.9154 36.2333 13.8954C36.2826 14.0709 36.1885 14.2598 36.2132 14.4554C36.1325 14.3754 36.043 14.3109 36.0071 14.2798C35.9982 14.3709 35.8504 14.6198 35.8459 14.7087C35.7765 14.6687 35.7563 14.6042 35.7451 14.5598C35.66 14.6687 35.3532 15.0598 35.333 15.1798C35.1001 14.9754 34.4977 14.4709 34.417 14.2087C34.3476 14.3598 34.2468 14.4087 34.0497 14.5198C33.9736 14.0998 33.678 13.6242 33.837 13.2642C33.725 13.3287 33.6354 13.3954 33.5234 13.4754C33.6377 12.8642 34.1684 12.1509 34.9389 11.7953Z" fill="#3D5DA7"/>
<path d="M35.3583 15.2311L35.3225 15.2C35.3023 15.18 35.2732 15.16 35.2464 15.1355C34.9955 14.9155 34.5409 14.5244 34.4199 14.2711C34.3505 14.3866 34.2542 14.44 34.093 14.5311L34.037 14.5622L34.028 14.5266C34.0034 14.3911 33.9564 14.2511 33.9071 14.1111C33.8175 13.8422 33.7212 13.5622 33.7906 13.3266C33.71 13.3777 33.6339 13.4311 33.5398 13.4977L33.4883 13.5333L33.4995 13.4689C33.6115 12.8044 34.196 12.1089 34.9194 11.7733L34.9239 11.7689H34.9395L34.9485 11.7977L34.9642 11.8066C34.944 11.8422 34.8925 11.9355 34.8947 11.9511C34.9037 11.96 34.9552 11.96 35 11.9555C35.206 11.9511 35.6338 11.94 36.2855 12.3755C36.496 12.5155 36.6886 12.8911 36.6886 13.1644V13.2133L36.6483 13.1844C36.617 13.1644 36.5923 13.1289 36.5632 13.0955C36.5475 13.0755 36.5341 13.06 36.5184 13.04C36.5028 13.1089 36.5476 13.2711 36.5834 13.3955C36.608 13.4844 36.6327 13.5644 36.6394 13.6244L36.6483 13.6755L36.6035 13.6511C36.4916 13.5866 36.4512 13.5422 36.4266 13.4911C36.4266 13.5111 36.4266 13.5355 36.4266 13.56C36.4221 13.7289 36.4177 13.9555 36.4624 14.0555L36.4871 14.1066L36.4356 14.0911C36.346 14.0666 36.3102 14.0111 36.2833 13.9711C36.2833 13.9666 36.2788 13.9666 36.2788 13.9622C36.2878 14.0377 36.2743 14.1177 36.2631 14.1933C36.2519 14.2777 36.2385 14.3644 36.2474 14.4533L36.2564 14.5244L36.2049 14.4733C36.1489 14.4177 36.0884 14.3689 36.0436 14.3333C36.0392 14.3289 36.0392 14.3289 36.0347 14.3244C36.019 14.3733 35.9899 14.4355 35.963 14.5044C35.9272 14.58 35.8869 14.6689 35.8869 14.7089V14.7533L35.851 14.7289C35.7995 14.6977 35.7704 14.6489 35.7547 14.6133C35.6047 14.8022 35.3964 15.0933 35.3807 15.1844L35.3583 15.2311ZM34.4311 14.1355L34.4513 14.2044C34.5207 14.4355 35.0157 14.8689 35.2822 15.1C35.2979 15.1111 35.3135 15.1289 35.327 15.14C35.3964 14.9644 35.7144 14.5689 35.7301 14.5489L35.7615 14.5089L35.7727 14.5577C35.7816 14.5866 35.7928 14.6333 35.8286 14.6689C35.8398 14.62 35.8734 14.5577 35.9003 14.4889C35.9361 14.4089 35.9765 14.3244 35.9765 14.2844L35.9809 14.2333L36.0212 14.2644C36.0324 14.2733 36.0459 14.2844 36.0616 14.2955C36.0929 14.32 36.1332 14.3555 36.178 14.3911C36.178 14.32 36.187 14.2511 36.1982 14.1866C36.2139 14.0866 36.2273 13.9911 36.2027 13.9022L36.1915 13.8577L36.2362 13.8689C36.2766 13.88 36.2967 13.9133 36.3169 13.94C36.337 13.9666 36.3527 13.9955 36.3885 14.02C36.3572 13.9 36.3594 13.7111 36.3639 13.56C36.3639 13.48 36.3684 13.4111 36.3639 13.3689L36.4132 13.3577C36.4244 13.3822 36.4333 13.4066 36.4423 13.4266C36.4669 13.4911 36.4826 13.5266 36.5722 13.5822C36.561 13.5333 36.5431 13.4733 36.5274 13.4133C36.4759 13.2244 36.4221 13.0489 36.4871 12.9844L36.5028 12.9689L36.5229 12.9844C36.552 13.0089 36.5744 13.04 36.5991 13.0689C36.608 13.08 36.6192 13.0933 36.6282 13.1044C36.5991 12.86 36.4311 12.5444 36.2497 12.4244C35.6136 12 35.1971 12.0089 34.9955 12.0155C34.9104 12.02 34.8656 12.02 34.8455 11.9844C34.8298 11.9555 34.8365 11.9244 34.8746 11.86C34.2206 12.1889 33.6966 12.8111 33.5644 13.4244C33.6562 13.36 33.7346 13.3044 33.8265 13.2533L33.8959 13.2133L33.8645 13.2844C33.7637 13.52 33.86 13.8155 33.9564 14.1C34.0011 14.2289 34.0459 14.36 34.0683 14.4889C34.2408 14.3933 34.3304 14.34 34.3953 14.2044L34.4311 14.1355Z" fill="black"/>
<path d="M33.9629 14.0243C34.0726 13.8088 34.1734 13.7399 34.2406 13.5999C34.366 13.3555 34.3817 13.1643 34.4914 13.191C34.6012 13.2199 34.6012 13.3199 34.4601 13.5599C34.3235 13.7999 34.254 13.851 33.9629 14.0243ZM34.6975 14.5355C34.6863 14.371 34.7288 14.3044 34.7221 14.1955C34.7064 14.011 34.6303 13.8843 34.7311 13.871C34.8318 13.8621 34.8766 13.9266 34.8766 14.111C34.8789 14.3044 34.8498 14.3555 34.6975 14.5355ZM35.2574 14.8599C35.2126 14.631 35.2462 14.5288 35.2171 14.3799C35.1678 14.1199 35.0715 13.9488 35.1655 13.9243C35.2596 13.8999 35.3156 13.9843 35.347 14.2488C35.3828 14.511 35.3671 14.5844 35.2574 14.8599ZM35.8374 13.251C35.7008 13.1466 35.6247 13.1421 35.5351 13.0755C35.3828 12.9599 35.3022 12.8355 35.2529 12.8999C35.2036 12.9599 35.2372 13.0288 35.4029 13.1355C35.5597 13.2443 35.6157 13.251 35.8374 13.251ZM35.7411 14.011C35.6694 13.8621 35.5911 13.8266 35.5485 13.731C35.4679 13.5621 35.4679 13.4199 35.3783 13.4555C35.2887 13.491 35.282 13.5666 35.3783 13.731C35.4724 13.8955 35.5194 13.9243 35.7411 14.011Z" fill="#A70000"/>
<path d="M8.90654 12.2289C8.89086 12.0978 8.91773 12.08 8.83711 11.9844C8.95357 12.0333 8.95805 12.1644 9.10362 12.0733C9.15513 12.0444 9.17976 12.0444 9.11482 11.9022C9.26487 11.9111 9.75534 12.0733 9.83148 12.0778C10.0375 12.0867 10.416 11.8622 10.678 12.1378C10.9289 12.3889 10.8438 12.6489 10.8438 12.9978C10.743 12.9489 10.7923 12.9267 10.6825 12.8022C10.7631 13.1067 10.678 13.6578 10.678 13.9778C10.6377 13.9022 10.6422 13.9333 10.6019 13.8533C10.4922 14.1489 10.369 14.2089 10.369 14.5578C10.3287 14.4222 10.369 14.4489 10.3242 14.3778C10.2189 14.6022 9.52242 14.7933 9.79117 15.0178C9.5493 14.8778 9.43956 14.8889 9.33206 14.7667C9.28279 14.7978 9.24695 14.8556 9.20216 14.9356C8.7744 14.74 8.92893 14.32 8.59299 14.04C8.53701 14.1556 8.56164 14.14 8.50117 14.3311C8.43174 14.0622 8.41607 13.8956 8.33992 13.7C8.27497 13.8089 8.27945 13.7689 8.16299 13.9311C8.11372 13.6067 8.0331 13.5311 8.06669 13.3156C7.94128 13.4044 8.0219 13.3667 7.89648 13.4756C8.01518 12.6489 8.53029 12.0311 8.90654 12.2289Z" fill="#3D5DA7"/>
<path d="M9.78013 15.0489C9.67935 14.9933 9.6032 14.96 9.54273 14.9333C9.45763 14.8977 9.39716 14.8733 9.33221 14.8089C9.30086 14.8377 9.27174 14.8844 9.23591 14.9489L9.22023 14.9733L9.19112 14.9622C8.94477 14.8511 8.87982 14.6577 8.81711 14.4777C8.77232 14.3466 8.72529 14.2066 8.60659 14.0889C8.59091 14.1244 8.58643 14.1444 8.57747 14.1777C8.56852 14.2089 8.55732 14.2533 8.53268 14.3377L8.49685 14.4422L8.46773 14.3333C8.4431 14.2377 8.42742 14.1577 8.41174 14.0822C8.38711 13.9711 8.36695 13.8711 8.33112 13.7666C8.31992 13.7866 8.30648 13.7977 8.29081 13.8155C8.27065 13.84 8.24154 13.8666 8.18555 13.9466L8.14076 14.0111L8.12956 13.9355C8.1094 13.8066 8.08477 13.72 8.06461 13.6466C8.03997 13.5555 8.01982 13.4822 8.0243 13.3866C8.0131 13.3977 8.00862 13.4022 8.00414 13.4111C7.99294 13.4266 7.97951 13.4466 7.91456 13.5022L7.84961 13.5577L7.86081 13.4733C7.94591 12.8933 8.23258 12.3777 8.55732 12.2133C8.66706 12.1577 8.77008 12.1489 8.86862 12.1822C8.86862 12.1711 8.86862 12.1577 8.86862 12.1511C8.86862 12.0911 8.86414 12.0755 8.81263 12.0111L8.84846 11.9622C8.89773 11.9822 8.92461 12.0133 8.95372 12.0377C8.99851 12.0822 9.01419 12.0977 9.08586 12.0533L9.09706 12.0444C9.12841 12.0289 9.13289 12.0244 9.08586 11.9155L9.0657 11.8666L9.11721 11.8711C9.20904 11.8755 9.40836 11.9311 9.58529 11.9822C9.69503 12.0133 9.81148 12.0466 9.83836 12.0466C9.89435 12.0511 9.96825 12.0311 10.0489 12.0155C10.2549 11.9666 10.508 11.9111 10.7051 12.12C10.9156 12.3289 10.9022 12.5444 10.8865 12.7955C10.882 12.8644 10.8775 12.9311 10.8775 13.0044V13.0555L10.8327 13.0355C10.7812 13.0111 10.7611 12.9911 10.7432 12.96C10.7633 13.16 10.7476 13.4044 10.732 13.6289C10.723 13.76 10.7163 13.8889 10.7163 13.9889L10.6558 14.0044C10.6356 13.9689 10.6267 13.96 10.6245 13.9489C10.62 13.9444 10.62 13.94 10.6155 13.94C10.5864 14.0111 10.555 14.0689 10.5259 14.12C10.4565 14.2489 10.405 14.3489 10.405 14.5689L10.34 14.5777C10.3199 14.5089 10.3199 14.4822 10.3199 14.4622C10.2594 14.5333 10.1497 14.6022 10.0489 14.6666C9.91227 14.7511 9.77117 14.8422 9.76669 14.9222C9.76669 14.9511 9.78237 14.9777 9.81596 15.0066L9.78013 15.0489ZM9.34117 14.7244L9.36133 14.7444C9.4218 14.8133 9.47779 14.8355 9.56737 14.8733C9.60768 14.8889 9.65247 14.9089 9.70398 14.9333C9.70398 14.9244 9.70398 14.9133 9.70398 14.9044C9.71294 14.7933 9.85628 14.7 10.0153 14.6C10.1362 14.5244 10.2661 14.4444 10.302 14.3644L10.3266 14.3089L10.3579 14.36C10.3826 14.2444 10.4229 14.1644 10.4699 14.0755C10.5058 14.0111 10.5416 13.9355 10.5797 13.84L10.6043 13.7689L10.6356 13.8377C10.6446 13.8489 10.6468 13.8622 10.6513 13.8689C10.6558 13.7889 10.6603 13.7 10.667 13.6133C10.6872 13.3289 10.7073 13.0089 10.6558 12.8089L10.7118 12.78C10.7611 12.8355 10.7812 12.8755 10.7924 12.9044C10.8014 12.92 10.8036 12.9333 10.8126 12.94C10.8126 12.8889 10.8171 12.8355 10.8215 12.7889C10.8327 12.54 10.8462 12.3489 10.6558 12.16C10.4834 11.9755 10.2572 12.0289 10.0601 12.0755C9.97497 12.0955 9.89883 12.1111 9.83388 12.1066C9.79805 12.1066 9.70846 12.0777 9.56737 12.0377C9.43075 11.9977 9.2695 11.9489 9.16872 11.9333C9.20456 12.0289 9.19336 12.0622 9.12841 12.0933L9.11945 12.0977C9.02315 12.1577 8.9694 12.1289 8.92909 12.0933C8.92909 12.1089 8.93357 12.1244 8.93357 12.1422C8.93357 12.1622 8.93357 12.1822 8.93805 12.2066L8.9694 12.2222L8.87982 12.2822L8.87534 12.2466C8.78575 12.2066 8.69393 12.2155 8.58867 12.2666C8.29753 12.4155 8.03997 12.8622 7.94367 13.3822C7.94815 13.3777 7.95263 13.3733 7.95263 13.3711C7.96831 13.3511 7.98174 13.3355 8.04893 13.2866L8.1094 13.2422L8.0982 13.3133C8.07805 13.4377 8.10268 13.5089 8.12956 13.6222C8.14523 13.6822 8.16539 13.7511 8.18107 13.8466C8.21242 13.8066 8.23034 13.7866 8.24602 13.7711C8.26617 13.7466 8.28185 13.7311 8.31544 13.68L8.3468 13.6244L8.37143 13.6844C8.4207 13.8133 8.44758 13.9333 8.47669 14.0689C8.48565 14.1089 8.49685 14.1533 8.50581 14.2C8.51029 14.1844 8.51477 14.1689 8.517 14.16C8.5282 14.1155 8.53268 14.0889 8.56852 14.02L8.58867 13.9844L8.62003 14.0133C8.7768 14.1444 8.83055 14.3044 8.88206 14.4577C8.93805 14.6289 8.99404 14.7889 9.19336 14.8933C9.23367 14.8222 9.2695 14.7733 9.31878 14.7422L9.34117 14.7244Z" fill="black"/>
<path d="M8.38281 13.5846C8.49255 13.3157 8.59333 13.2335 8.66052 13.0602C8.78594 12.7557 8.80609 12.5157 8.91135 12.5513C9.01661 12.5868 9.01661 12.7113 8.87552 13.0113C8.73219 13.3091 8.66724 13.3713 8.38281 13.5846ZM8.79714 14.2513C8.84193 14.0113 8.90912 13.9224 8.93823 13.7713C8.98974 13.5002 8.96286 13.3002 9.05917 13.3068C9.15547 13.318 9.1801 13.418 9.11516 13.6913C9.04797 13.9646 9.00318 14.0291 8.79714 14.2513ZM9.29208 14.7202C9.30328 14.4891 9.36151 14.3957 9.36823 14.2491C9.38391 13.9846 9.3324 13.798 9.42422 13.798C9.51604 13.798 9.54964 13.8891 9.52052 14.1535C9.49365 14.4113 9.46229 14.4802 9.29208 14.7202ZM10.3648 13.2002C10.1588 12.9957 10.0379 12.9602 9.90573 12.8313C9.67281 12.6024 9.56307 12.3868 9.47797 12.4624C9.39287 12.538 9.44662 12.6513 9.69073 12.8713C9.93484 13.0891 10.0177 13.1202 10.3648 13.2002ZM10.2394 13.9802C10.1073 13.7757 10.0088 13.7246 9.92141 13.5913C9.76912 13.3624 9.71537 13.1624 9.63026 13.2157C9.54516 13.2646 9.56083 13.3668 9.72656 13.5913C9.89453 13.8113 9.95724 13.8513 10.2394 13.9802Z" fill="#A70000"/>
<path d="M19.3681 7.7713C19.1307 8.2313 19.7869 7.62019 20.8194 8.38686C21.0097 8.5313 21.283 9.09575 21.283 9.35575C21.0613 9.30686 20.6738 9.09575 20.6738 9.09575C20.6738 9.09575 21.1284 9.54686 21.1284 10.0713C20.9672 9.9713 20.8866 9.98686 20.8351 9.86241C20.8351 10.0313 20.9806 10.138 20.9806 10.4024C20.8843 10.3224 20.7791 10.2535 20.6671 10.1935C20.8194 10.4535 20.3894 10.9624 20.6066 11.1335C20.2326 11.0824 19.8452 10.8424 19.6951 10.5824C19.6145 10.6335 19.6055 10.7224 19.6033 10.8113C19.6145 10.8202 19.0299 10.3802 19.0837 10.2113C19.0076 10.3202 18.9941 10.3802 18.974 10.5024C18.7612 10.2913 18.5619 10.0824 18.4902 9.8113C18.3939 9.93575 18.3894 9.93575 18.2931 10.0557C18.2215 9.62464 18.2215 9.64019 18.3648 9.2713C18.264 9.34019 18.1789 9.40241 18.0781 9.48686C18.1744 8.86463 18.6627 8.1313 19.3681 7.7713Z" fill="#3D5DA7"/>
<path d="M20.6896 11.169L20.5978 11.1579C20.226 11.1068 19.8475 10.8779 19.6818 10.6179C19.6325 10.6623 19.6258 10.7268 19.6213 10.7979L19.6303 10.8068L19.6056 10.8423L19.5855 10.8334C19.5855 10.8334 19.581 10.8334 19.581 10.829L19.5765 10.8245C19.5071 10.7757 19.1241 10.4757 19.0614 10.2845C19.0211 10.3557 19.0121 10.409 18.9965 10.5045L18.9875 10.5534L18.9517 10.5179C18.7456 10.3179 18.5575 10.1179 18.4769 9.86232C18.4478 9.89788 18.4276 9.92233 18.4074 9.94677C18.3828 9.97788 18.3559 10.0068 18.3111 10.0712L18.2753 10.1157L18.2641 10.0445C18.1992 9.65566 18.1947 9.63344 18.3134 9.33566C18.2417 9.38677 18.1768 9.4401 18.0961 9.50455L18.0469 9.54455L18.0558 9.4801C18.1611 8.8001 18.6919 8.09122 19.3503 7.749L19.3705 7.71344L19.4018 7.77788L19.3861 7.78677C19.3503 7.85788 19.3369 7.90233 19.3458 7.91788C19.357 7.93788 19.4309 7.93788 19.516 7.93344C19.7691 7.92899 20.2372 7.91788 20.8352 8.36233C21.0367 8.51122 21.3099 9.08677 21.3099 9.35121V9.38233L21.2808 9.37344C21.1353 9.34233 20.9225 9.24233 20.7881 9.17344C20.9247 9.33788 21.1599 9.68233 21.1599 10.0645V10.109L21.1241 10.0845C21.0726 10.0534 21.0278 10.0334 20.9874 10.0134C20.9471 9.99344 20.9158 9.98233 20.8822 9.95788C20.8934 9.98899 20.9068 10.0223 20.9225 10.0579C20.9628 10.1468 21.0076 10.2468 21.0076 10.3979V10.449L20.9673 10.4179C20.8911 10.3534 20.806 10.2979 20.7165 10.2468C20.7478 10.3757 20.6918 10.5312 20.6448 10.6868C20.5843 10.8668 20.5283 11.0357 20.6246 11.1112L20.6896 11.169ZM19.6974 10.5445L19.7086 10.569C19.8497 10.809 20.1969 11.029 20.5395 11.1001C20.4835 10.9957 20.5351 10.8401 20.591 10.6757C20.6515 10.5045 20.712 10.3268 20.6426 10.2068L20.5978 10.1312L20.6739 10.1757C20.7702 10.2268 20.8643 10.2868 20.9471 10.3512C20.9382 10.2401 20.9023 10.1601 20.8665 10.0823C20.8352 10.0112 20.806 9.94232 20.806 9.86232L20.8553 9.85344C20.8867 9.92455 20.927 9.94233 21.0009 9.97788C21.03 9.98899 21.0658 10.0068 21.1061 10.029C21.0815 9.5401 20.6627 9.11788 20.6582 9.11344L20.6873 9.07344C20.6918 9.07788 21.0412 9.26899 21.2607 9.32455C21.2405 9.0601 20.9874 8.5401 20.806 8.40899C20.226 7.97788 19.7669 7.98455 19.5205 7.98899C19.4041 7.99344 19.3346 7.99344 19.3078 7.949C19.2921 7.92011 19.2921 7.88899 19.3167 7.82899C18.721 8.16455 18.2395 8.80455 18.1185 9.42455C18.1992 9.3601 18.2708 9.30455 18.3559 9.24899L18.4209 9.20455L18.3806 9.30455C18.2552 9.62455 18.2507 9.63566 18.3111 9.99344C18.3403 9.96233 18.3559 9.93788 18.3761 9.91344C18.4007 9.88233 18.4276 9.85344 18.4724 9.78899L18.5038 9.74899L18.5149 9.79788C18.5799 10.049 18.7613 10.249 18.9539 10.4423C18.9696 10.3468 18.9897 10.2868 19.0592 10.1868L19.104 10.2068C19.0681 10.3223 19.4265 10.6357 19.5765 10.7512C19.5855 10.6712 19.6011 10.6001 19.6773 10.5512L19.6974 10.5445Z" fill="black"/>
<path d="M18.7793 10.0154C18.8196 9.69984 18.9002 9.57984 18.9249 9.3754C18.9697 9.0154 18.9159 8.7554 19.0458 8.76429C19.1757 8.77318 19.2115 8.90429 19.1466 9.25984C19.0816 9.6154 19.0279 9.69984 18.7793 10.0154ZM19.4445 10.5909C19.4198 10.3221 19.4691 10.2109 19.4534 10.0398C19.4243 9.7354 19.3325 9.53095 19.4422 9.51095C19.5542 9.49095 19.6124 9.5954 19.6236 9.89984C19.6326 10.2087 19.6057 10.2887 19.4445 10.5909ZM20.4881 11.0687C20.3761 10.8376 20.2776 10.7687 20.2059 10.6198C20.076 10.3598 20.0491 10.1443 19.9484 10.1843C19.8476 10.2243 19.8565 10.3332 19.9976 10.5887C20.141 10.8443 20.2059 10.8954 20.4881 11.0687ZM20.8509 8.9954C20.5598 8.84429 20.4164 8.84429 20.2261 8.74651C19.8991 8.5754 19.7065 8.38207 19.6415 8.49095C19.5721 8.5954 19.6662 8.70207 19.9999 8.8554C20.3358 9.00873 20.4433 9.01984 20.8509 8.9954ZM20.9562 9.85984C20.7457 9.68873 20.6225 9.65984 20.4836 9.54873C20.2462 9.35317 20.1253 9.15984 20.0447 9.23762C19.964 9.31762 20.0155 9.41762 20.2709 9.60206C20.5195 9.79095 20.609 9.81095 20.9562 9.85984Z" fill="#A70000"/>
</g>
<rect x="0.810156" y="0.15" width="42.7" height="23.7" stroke="#EFEFF8" stroke-width="0.3"/>
<defs>
<clipPath id="clip0_684_45350">
<rect x="0.660156" width="43" height="24" fill="white"/>
</clipPath>
</defs>
</svg>
