<svg width="44" height="24" viewBox="0 0 44 24" fill="none" xmlns="http://www.w3.org/2000/svg">
<g clip-path="url(#clip0_684_42670)">
<path d="M43.9922 -0.244537H0.992188V24.0732H43.9922V-0.244537Z" fill="#00843D"/>
<path d="M19.088 2.69321C20.163 3.15098 20.9133 4.21098 20.9133 5.4421C20.9133 7.09321 19.5651 8.43543 17.8966 8.43543C17.1485 8.43543 16.4699 8.16654 15.9414 7.7221C16.2684 7.8621 16.6245 7.9421 16.9985 7.9621C18.6625 8.03321 20.069 6.75543 20.1406 5.10432C20.1899 4.14432 19.7689 3.27321 19.088 2.69321Z" fill="white"/>
<path d="M16.213 4.8933L16.5557 3.85107L15.6621 4.49552H16.7685L15.8749 3.85107L16.213 4.8933Z" fill="white"/>
<path d="M16.213 3.35339L16.5557 2.31117L15.6621 2.95562H16.7685L15.8726 2.31117L16.213 3.35339Z" fill="white"/>
<path d="M17.7463 4.14446L18.0889 3.10223L17.1953 3.74668H18.3039L17.4103 3.10223L17.7463 4.14446Z" fill="white"/>
<path d="M14.6801 5.64223L15.0228 4.60001L14.127 5.24445H15.2333L14.3397 4.60001L14.6801 5.64223Z" fill="white"/>
<path d="M16.213 6.43106L16.5557 5.38884L15.6621 6.03328H16.7685L15.8749 5.38884L16.213 6.43106Z" fill="white"/>
<path d="M11.9484 0.0289764H5.4043V24.0756H11.9484V0.0289764Z" fill="#D22630"/>
<path d="M5.4043 -1.55984V-1.32429L5.77159 -0.984289L5.64617 -0.868734L5.9082 -0.628734L5.79174 -0.524289V-0.677623H5.56555V-0.497623L6.07393 -0.0242893H6.33148L6.3606 -0.188734H6.21055L6.3718 -0.337623L6.77492 0.0223774L6.3718 0.386822L6.21055 0.2446H6.3606L6.33148 0.0757108H6.07393L5.57003 0.549044V0.729044H5.79622V0.577933L5.91268 0.682377L5.65065 0.922377L5.77607 1.03793L5.40878 1.37793V1.61349L6.03138 1.03571L5.90596 0.920155L6.168 0.680155L5.9418 0.473489L6.09185 0.337933L6.37628 0.600155L7.00336 0.0268217L6.37404 -0.546512L6.08737 -0.282067L5.93732 -0.417623L6.16352 -0.626512L5.90148 -0.866512L6.0269 -0.982067L5.4043 -1.55984ZM5.4043 -0.417623V0.469044L5.54987 0.320155V0.151266H5.7044L5.82982 0.0268217L5.7044 -0.0976226H5.54987V-0.270956L5.4043 -0.417623ZM6.46586 -0.0998449L6.4457 0.0201552L6.46586 0.1446L6.60023 0.0201552L6.46586 -0.0998449Z" fill="#383739"/>
<path d="M5.4043 -1.53551V-1.34662L5.79622 -0.982174L5.67081 -0.866618L5.93284 -0.626618L5.77607 -0.47773V-0.653285H5.5857V-0.49773L6.08289 -0.0377295H6.31357L6.3382 -0.171063H6.17247L6.37851 -0.364396L6.8018 0.0244926L6.37404 0.413381L6.17247 0.224493H6.34268L6.31805 0.0911593H6.08737L5.59018 0.551159V0.706715H5.78055V0.531159L5.93732 0.680048L5.67529 0.920048L5.8007 1.0356L5.40878 1.40005V1.58449L6.00674 1.0356L5.88133 0.920048L6.14336 0.684493L5.91716 0.475604L6.09185 0.315604L6.37851 0.580048L6.97648 0.0267148L6.37404 -0.522174L6.08737 -0.25773L5.91268 -0.417729L6.13888 -0.626618L5.87685 -0.866618L6.00226 -0.982174L5.4043 -1.53551ZM5.4043 -0.388841V0.448937L5.53419 0.320048V0.131159H5.69992L5.80518 0.0267148L5.69992 -0.0777296H5.53419V-0.262174C5.53195 -0.264396 5.4043 -0.388841 5.4043 -0.388841ZM6.47706 -0.0688406L6.46138 0.0200483L6.47706 0.108937L6.56888 0.0200483L6.47706 -0.0688406Z" fill="#FFC72C"/>
<path d="M5.4043 2.81779V3.05335L5.77159 3.39335L5.64617 3.50891L5.9082 3.74891L5.79174 3.85335V3.70002H5.56555V3.88002L6.07393 4.35335H6.33148L6.3606 4.18891H6.21055L6.3718 4.04002L6.77492 4.40446L6.3718 4.76891L6.21055 4.62002H6.3606L6.33148 4.45113H6.07393L5.56555 4.92446V5.10446H5.79174V4.95113L5.9082 5.05557L5.64617 5.29558L5.77159 5.41113L5.4043 5.7578V5.99335L6.0269 5.41558L5.90148 5.30002L6.16352 5.06002L5.93732 4.85113L6.08737 4.71557L6.37404 4.98002L7.00336 4.40669L6.37404 3.82891L6.08737 4.09335L5.93732 3.9578L6.16352 3.74891L5.90148 3.51113L6.0269 3.39557L5.4043 2.81779ZM5.4043 3.96002V4.84446L5.54987 4.69557V4.52224H5.7044L5.82982 4.3978L5.7044 4.27335H5.54987V4.10002L5.4043 3.96002ZM6.46586 4.27557L6.4457 4.39557L6.46586 4.52002L6.60023 4.39557L6.46586 4.27557Z" fill="#383739"/>
<path d="M5.4043 2.84206V3.03094L5.79622 3.39539L5.67081 3.51094L5.93284 3.75094L5.77607 3.89983V3.72428H5.5857V3.87983L6.08289 4.33983H6.31357L6.3382 4.2065H6.17247L6.37852 4.01317L6.80628 4.40206L6.37852 4.79094L6.17247 4.60206H6.34268L6.31805 4.46872H6.08737L5.59018 4.93317V5.08872H5.78055V4.91317L5.93732 5.06206L5.67529 5.30206L5.8007 5.41761L5.40878 5.78206V5.97094L6.00674 5.42206L5.88133 5.3065L6.14336 5.0665L5.91716 4.85761L6.09185 4.69761L6.37852 4.96206L6.98096 4.41317L6.37404 3.85539L6.08737 4.11983L5.91268 3.95983L6.13888 3.75094L5.87685 3.51094L6.00227 3.39539L5.4043 2.84206ZM5.4043 3.9865V4.82428L5.53419 4.69539V4.51094H5.69992L5.80518 4.4065L5.69992 4.30206H5.53419V4.11317L5.4043 3.9865ZM6.47706 4.30872L6.46138 4.39761L6.47706 4.4865L6.56888 4.39761L6.47706 4.30872Z" fill="#FFC72C"/>
<path d="M5.4043 7.33766V7.57322L5.77159 7.91322L5.64617 8.02877L5.9082 8.26877L5.79175 8.37322V8.21988H5.56555V8.39988L6.07393 8.87322H6.33148L6.3606 8.70877H6.21055L6.3718 8.55988L6.77492 8.92433L6.3718 9.28877L6.21055 9.13988H6.3606L6.33148 8.971H6.07393L5.57003 9.43988V9.61988H5.79622V9.46655L5.91268 9.571L5.65065 9.81766L5.77607 9.93322L5.40878 10.2732V10.511L6.03138 9.93322L5.90596 9.81766L6.168 9.57766L5.9418 9.36877L6.09185 9.23322L6.37852 9.49766L7.00784 8.92433L6.37404 8.35099L6.08737 8.61544L5.93732 8.47988L6.16352 8.271L5.90148 8.03099L6.0269 7.91544L5.4043 7.33766ZM5.4043 8.47988V9.36655L5.54987 9.21766V9.04433H5.7044L5.82982 8.91988L5.7044 8.79544H5.54987V8.62211L5.4043 8.47988ZM6.46586 8.79544L6.4457 8.91544L6.46586 9.03988L6.60024 8.91544L6.46586 8.79544Z" fill="#383739"/>
<path d="M5.4043 7.36234V7.55122L5.79622 7.91567L5.67081 8.03122L5.93284 8.27122L5.77607 8.42011V8.24456H5.5857V8.40011L6.08289 8.86011H6.31357L6.3382 8.72678H6.17247L6.37852 8.53345L6.80628 8.92233L6.37852 9.31122L6.17247 9.12233H6.34268L6.31805 8.989H6.08737L5.59018 9.449V9.60456H5.78055V9.429L5.93732 9.57789L5.67529 9.82233L5.8007 9.93789L5.40878 10.3023V10.4912L6.00674 9.94233L5.88133 9.82678L6.14336 9.58678L5.91716 9.37789L6.09185 9.21789L6.37852 9.48233L6.98096 8.93345L6.37404 8.37567L6.08737 8.64011L5.91268 8.48011L6.13888 8.27122L5.87685 8.03122L6.00227 7.91567L5.4043 7.36234ZM5.4043 8.509V9.34678L5.53419 9.21789V9.03345H5.69992L5.80518 8.929L5.69992 8.82456H5.53419V8.64011C5.53195 8.63345 5.4043 8.509 5.4043 8.509ZM6.47706 8.829L6.46138 8.91789L6.47706 9.00678L6.56888 8.91789L6.47706 8.829Z" fill="#FFC72C"/>
<path d="M5.4043 11.8579V12.0935L5.77159 12.4335L5.64617 12.549L5.9082 12.789L5.79174 12.8935V12.7401H5.56555V12.9201L6.07393 13.3935H6.33148L6.3606 13.229H6.21055L6.3718 13.0801L6.77492 13.4446L6.3718 13.809L6.21055 13.6668H6.3606L6.33148 13.4935H6.07393L5.56555 13.9668V14.1468H5.79174V13.9935L5.9082 14.0979L5.64617 14.3379L5.77159 14.4535L5.4043 14.7957V15.0313L6.0269 14.4535L5.90148 14.3379L6.16352 14.0979L5.93732 13.889L6.08737 13.7535L6.37404 14.0179L7.00336 13.4446L6.37404 12.8713L6.08737 13.1357L5.93732 13.0001L6.16352 12.7913L5.90148 12.5513L6.0269 12.4357L5.4043 11.8579ZM5.4043 13.0001V13.8868L5.54987 13.7379V13.5646H5.7044L5.82982 13.4401L5.7044 13.3157H5.54987V13.1424L5.4043 13.0001ZM6.46586 13.3179L6.4457 13.4379L6.46586 13.5624L6.60023 13.4379L6.46586 13.3179Z" fill="#383739"/>
<path d="M5.4043 11.8822V12.0711L5.79622 12.4355L5.67081 12.5511L5.93284 12.7911L5.77607 12.94V12.7644H5.5857V12.92L6.08289 13.38H6.31357L6.3382 13.2467H6.17247L6.37852 13.0533L6.80628 13.4422L6.37852 13.8311L6.17247 13.6422H6.34268L6.31805 13.5089H6.08737L5.59018 13.9689V14.1244H5.78055V13.9489L5.93732 14.0978L5.67529 14.3378L5.8007 14.4533L5.40878 14.8178V15.0067L6.00674 14.4578L5.88133 14.3422L6.14336 14.1022L5.91716 13.8933L6.09185 13.7333L6.37852 13.9978L6.98096 13.4489L6.37404 12.8911L6.08737 13.1555L5.91268 12.9955L6.13888 12.7867L5.87685 12.5467L6.00227 12.4311L5.4043 11.8822ZM5.4043 13.0289V13.8667L5.53419 13.7378V13.5533H5.69992L5.80518 13.4489L5.69992 13.3444H5.53419V13.16C5.53195 13.1533 5.4043 13.0289 5.4043 13.0289ZM6.47706 13.3489L6.46138 13.4378L6.47706 13.5267L6.56888 13.4378L6.47706 13.3489Z" fill="#FFC72C"/>
<path d="M5.4043 16.38V16.6156L5.77159 16.9556L5.64617 17.0711L5.9082 17.3111L5.79174 17.4156V17.2622H5.56555V17.4422L6.07393 17.9156H6.33148L6.3606 17.7511H6.21055L6.3718 17.6022L6.77492 17.9667L6.3718 18.3311L6.21055 18.1822H6.3606L6.33148 18.0134H6.07393L5.56555 18.4867V18.6667H5.79174V18.5134L5.9082 18.6178L5.64617 18.8578L5.77159 18.9734L5.4043 19.32V19.5556L6.0269 18.9778L5.90148 18.8622L6.16352 18.6222L5.93732 18.4134L6.08737 18.2778L6.37404 18.5422L7.00336 17.9689L6.37404 17.3911L6.08737 17.6556L5.93732 17.52L6.16352 17.3111L5.90148 17.0711L6.0269 16.9556L5.4043 16.38ZM5.4043 17.5222V18.4089L5.54987 18.26V18.0867H5.7044L5.82982 17.9622L5.7044 17.8378H5.54987V17.6645L5.4043 17.5222ZM6.46586 17.8378L6.4457 17.9578L6.46586 18.0822L6.60023 17.9578L6.46586 17.8378Z" fill="#383739"/>
<path d="M5.4043 16.4022V16.5911L5.79622 16.9555L5.67081 17.0711L5.93284 17.3111L5.77607 17.46V17.2844H5.5857V17.44L6.08289 17.9H6.31357L6.3382 17.7667H6.17247L6.37852 17.5733L6.80628 17.9622L6.37628 18.3555L6.17023 18.1667H6.34044L6.31581 18.0333H6.08513L5.58794 18.4933V18.6489H5.77831V18.4733L5.93508 18.6222L5.67305 18.8622L5.79846 18.9778L5.40654 19.3422V19.5311L6.00451 18.9822L5.87909 18.8667L6.14112 18.6267L5.91492 18.4178L6.08961 18.2578L6.37628 18.5222L6.97872 17.9733L6.3718 17.4155L6.08513 17.68L5.91044 17.52L6.13664 17.3111L5.87461 17.0711L6.00003 16.9555L5.4043 16.4022ZM5.4043 17.5489V18.3822L5.53419 18.2533V18.0689H5.69992L5.80518 17.9644L5.69992 17.86H5.53419V17.6755C5.53195 17.6733 5.4043 17.5489 5.4043 17.5489ZM6.47706 17.8689L6.46138 17.9578L6.47706 18.0467L6.56888 17.9578L6.47706 17.8689Z" fill="#FFC72C"/>
<path d="M11.9467 -1.55984V-1.32429L11.5794 -0.984289L11.7048 -0.868734L11.4428 -0.628734L11.5593 -0.524289V-0.677623H11.7855V-0.497623L11.2726 -0.0198449H11.0173L10.9882 -0.184289H11.1382L10.977 -0.333178L10.5739 0.0268217L10.977 0.391266L11.1382 0.242377H10.9882L11.0173 0.0734886H11.2748L11.7788 0.546822V0.726822H11.5526V0.577933L11.4361 0.682377L11.6981 0.922377L11.5727 1.03793L11.9422 1.37793V1.61349L11.3196 1.03571L11.4451 0.920155L11.183 0.682377L11.4092 0.473489L11.2592 0.337933L10.9747 0.600155L10.3477 0.0268217L10.977 -0.546512L11.2636 -0.282067L11.4137 -0.417623L11.1875 -0.626512L11.4495 -0.866512L11.3241 -0.982067L11.9467 -1.55984ZM11.9467 -0.417623V0.469044L11.8011 0.320155V0.151266H11.6466L11.5212 0.0268217L11.6466 -0.0976226H11.8011V-0.270956L11.9467 -0.417623ZM10.8852 -0.0998449L10.9053 0.0201552L10.8852 0.1446L10.7508 0.0201552L10.8852 -0.0998449Z" fill="#383739"/>
<path d="M11.9469 -1.53551V-1.34662L11.555 -0.982174L11.6804 -0.866618L11.4184 -0.626618L11.5751 -0.477729V-0.653285H11.7655V-0.497729L11.2638 -0.0355072H11.0332L11.0085 -0.168841H11.1787L10.9772 -0.362174L10.5494 0.0289373L10.9772 0.417826L11.1787 0.228937H11.0085L11.0332 0.0956039H11.2638L11.761 0.555604V0.711159H11.5707V0.535604L11.4139 0.684493L11.6759 0.926715L11.5505 1.04227L11.9424 1.40671V1.59116L11.3445 1.04227L11.4699 0.926715L11.2078 0.686715L11.434 0.477826L11.2593 0.317826L10.9727 0.582271L10.377 0.0289373L10.9794 -0.519952L11.2661 -0.255507L11.4408 -0.415507L11.2146 -0.624396L11.4743 -0.866618L11.3489 -0.982174L11.9469 -1.53551ZM11.9469 -0.388841V0.448937L11.817 0.320048V0.13116H11.6535L11.5483 0.0267149L11.6535 -0.0777295H11.8192V-0.262174C11.8192 -0.264396 11.9469 -0.388841 11.9469 -0.388841ZM10.8741 -0.0688405L10.8898 0.0200484L10.8741 0.108937L10.7823 0.0200484L10.8741 -0.0688405Z" fill="#FFC72C"/>
<path d="M11.9451 2.81779V3.05335L11.5778 3.39335L11.7032 3.50891L11.4411 3.74891L11.5576 3.85335V3.70002H11.7838V3.88002L11.2709 4.35557H11.0156L10.9865 4.19113H11.1366L10.9753 4.04224L10.5722 4.40668L10.9753 4.77113L11.1366 4.62224H10.9865L11.0156 4.45335H11.2732L11.7816 4.92668V5.10668H11.5554V4.95335L11.4389 5.05779L11.7009 5.29779L11.5755 5.41335L11.9428 5.75335V5.9889L11.3202 5.41113L11.4456 5.29557L11.1836 5.05557L11.4098 4.84668L11.2597 4.71113L10.9731 4.97557L10.3438 4.40224L10.9731 3.82446L11.2597 4.0889L11.4098 3.95335L11.1836 3.74446L11.4456 3.50446L11.3202 3.38891L11.9451 2.81779ZM11.9451 3.96002V4.84446L11.7995 4.69557V4.52224H11.6449L11.5195 4.39779L11.6449 4.27335H11.7995V4.10002L11.9451 3.96002ZM10.8835 4.27557L10.9036 4.39557L10.8835 4.52002L10.7491 4.39557L10.8835 4.27557Z" fill="#383739"/>
<path d="M11.9469 2.84206V3.03094L11.555 3.39539L11.6804 3.51094L11.4184 3.75094L11.5751 3.89983V3.72428H11.7655V3.87983L11.2683 4.33983H11.0376L11.013 4.2065H11.1832L10.9772 4.01317L10.5494 4.40206L10.9772 4.79094L11.1832 4.60206H11.013L11.0376 4.46872H11.2683L11.7655 4.93317V5.08872H11.5751V4.91317L11.4184 5.06206L11.6804 5.30206L11.555 5.41761L11.9469 5.78206V5.97094L11.3489 5.42206L11.4743 5.3065L11.2123 5.0665L11.4385 4.85761L11.2638 4.69761L10.9772 4.96206L10.377 4.41317L10.9794 3.85539L11.2661 4.11983L11.4408 3.95983L11.2146 3.75094L11.4743 3.51094L11.3489 3.39539L11.9469 2.84206ZM11.9469 3.9865V4.82428L11.817 4.69539V4.51094H11.6535L11.5483 4.4065L11.6535 4.30206H11.8192V4.11317L11.9469 3.9865ZM10.8741 4.30872L10.8898 4.39761L10.8741 4.4865L10.7823 4.39761L10.8741 4.30872Z" fill="#FFC72C"/>
<path d="M11.9467 7.33766V7.57322L11.5794 7.91322L11.7048 8.02877L11.4428 8.26877L11.5593 8.37322V8.21988H11.7855V8.39988L11.2771 8.87322H11.0195L10.9904 8.70877H11.1405L10.9792 8.55988L10.5761 8.92433L10.9792 9.28877L11.1405 9.13988H10.9904L11.0195 8.971H11.2771L11.7855 9.44433V9.62433H11.5593V9.471L11.4428 9.57544L11.7048 9.81544L11.5794 9.931L11.9467 10.271V10.5066L11.3241 9.92877L11.4495 9.81322L11.1875 9.57322L11.4137 9.36433L11.2636 9.22877L10.977 9.49322L10.3477 8.91544L10.977 8.34211L11.2636 8.60655L11.4137 8.471L11.1875 8.26211L11.4495 8.02211L11.3241 7.90655L11.9467 7.33766ZM11.9467 8.47988V9.36655L11.8011 9.21766V9.04433H11.6466L11.5212 8.91988L11.6466 8.79544H11.8011V8.62211L11.9467 8.47988ZM10.8852 8.79544L10.9053 8.91544L10.8852 9.03988L10.7508 8.91544L10.8852 8.79544Z" fill="#383739"/>
<path d="M11.9469 7.36234V7.55122L11.555 7.91567L11.6804 8.03122L11.4184 8.27122L11.5751 8.42011V8.24456H11.7655V8.40011L11.2683 8.86011H11.0376L11.013 8.72678H11.1832L10.9772 8.53345L10.5494 8.92234L10.9772 9.31122L11.1832 9.12234H11.013L11.0376 8.989H11.2683L11.7655 9.449V9.60456H11.5751V9.429L11.4184 9.57789L11.6804 9.81789L11.555 9.93345L11.9469 10.2979V10.4868L11.3489 9.93789L11.4743 9.82234L11.2123 9.58234L11.4385 9.37345L11.2638 9.21345L10.9772 9.47789L10.377 8.92456L10.9794 8.37567L11.2661 8.64011L11.4408 8.48011L11.2146 8.27122L11.4766 8.03122L11.3512 7.91567L11.9469 7.36234ZM11.9469 8.509V9.34678L11.817 9.21789V9.03345H11.6535L11.5483 8.929L11.6535 8.82456H11.8192V8.64011C11.8192 8.63345 11.9469 8.509 11.9469 8.509ZM10.8741 8.829L10.8898 8.91789L10.8741 9.00678L10.7823 8.91789L10.8741 8.829Z" fill="#FFC72C"/>
<path d="M11.9467 11.8579V12.0935L11.5794 12.4335L11.7048 12.549L11.4428 12.789L11.5593 12.8935V12.7401H11.7855V12.9201L11.2771 13.3935H11.0195L10.9904 13.229H11.1405L10.9792 13.0801L10.5761 13.4446L10.9792 13.809L11.1405 13.6601H10.9904L11.0195 13.4913H11.2771L11.7855 13.9646V14.1446H11.5593V13.9913L11.4428 14.0957L11.7048 14.3357L11.5794 14.4513L11.9467 14.7913V15.0268L11.3241 14.449L11.4495 14.3335L11.1875 14.0935L11.4137 13.8846L11.2636 13.749L10.977 14.0224L10.3477 13.449L10.977 12.8757L11.2636 13.1401L11.4137 13.0046L11.1875 12.7957L11.4495 12.5557L11.3241 12.4401L11.9467 11.8579ZM11.9467 13.0001V13.8868L11.8011 13.7379V13.5646H11.6466L11.5212 13.4401L11.6466 13.3157H11.8011V13.1424L11.9467 13.0001ZM10.8852 13.3179L10.9053 13.4379L10.8852 13.5624L10.7508 13.4379L10.8852 13.3179Z" fill="#383739"/>
<path d="M11.9469 11.8822V12.0711L11.555 12.4355L11.6804 12.5511L11.4184 12.7911L11.5751 12.94V12.7644H11.7655V12.92L11.2683 13.38H11.0376L11.013 13.2467H11.1832L10.9772 13.0533L10.5494 13.4444L10.9772 13.8333L11.1832 13.6444H11.013L11.0376 13.5111H11.2683L11.7655 13.9711V14.1267H11.5751V13.9511L11.4184 14.1L11.6804 14.34L11.555 14.4556L11.9469 14.82V15.0089L11.3489 14.46L11.4743 14.3444L11.2123 14.1044L11.4385 13.8956L11.2638 13.7355L10.9772 14L10.377 13.4533L10.9794 12.9044L11.2661 13.1689L11.4408 13.0089L11.2146 12.8L11.4766 12.56L11.3512 12.4444L11.9469 11.8822ZM11.9469 13.0289V13.8667L11.817 13.7378V13.5533H11.6535L11.5483 13.4489L11.6535 13.3444H11.8192V13.16C11.8192 13.1533 11.9469 13.0289 11.9469 13.0289ZM10.8741 13.3489L10.8898 13.4378L10.8741 13.5267L10.7823 13.4378L10.8741 13.3489Z" fill="#FFC72C"/>
<path d="M11.9467 16.38V16.6156L11.5794 16.9556L11.7048 17.0711L11.4428 17.3111L11.5593 17.4156V17.2622H11.7855V17.4422L11.2771 17.9156H11.0195L10.9904 17.7511H11.1405L10.9792 17.6022L10.5761 17.9667L10.9792 18.3311L11.1405 18.1822H10.9904L11.0195 18.0134H11.2771L11.7855 18.4867V18.6667H11.5593V18.5134L11.4428 18.6178L11.7048 18.8578L11.5794 18.9734L11.9467 19.3134V19.5489L11.3241 18.9711L11.4495 18.8556L11.1875 18.6222L11.4137 18.4134L11.2636 18.2778L10.977 18.5422L10.3477 17.9689L10.977 17.3956L11.2636 17.66L11.4137 17.5245L11.1875 17.3156L11.4495 17.0756L11.3241 16.96L11.9467 16.38ZM11.9467 17.5222V18.4089L11.8011 18.26V18.0867H11.6466L11.5212 17.9622L11.6466 17.8378H11.8011V17.6645L11.9467 17.5222ZM10.8852 17.8378L10.9053 17.9578L10.8852 18.0822L10.7508 17.9578L10.8852 17.8378Z" fill="#383739"/>
<path d="M11.9458 16.4022V16.5911L11.5539 16.9555L11.6793 17.0711L11.4173 17.3111L11.574 17.46V17.2844H11.7644V17.44L11.2627 17.9H11.0321L11.0074 17.7667H11.1776L10.9716 17.5733L10.5438 17.9622L10.9716 18.3511L11.1776 18.1622H11.0074L11.0321 18.0289H11.2627L11.7599 18.4889V18.6444H11.5696V18.4689L11.4128 18.6178L11.6748 18.8578L11.5494 18.9733L11.9413 19.3378V19.5267L11.3434 18.9778L11.4688 18.8622L11.2067 18.6222L11.4329 18.4133L11.2583 18.2533L10.9716 18.5178L10.3691 17.9689L10.9716 17.42L11.2583 17.6844L11.4329 17.5244L11.2067 17.3155L11.4688 17.0755L11.3434 16.96L11.9458 16.4022ZM11.9458 17.5489V18.3822L11.8159 18.2533V18.0689H11.6524L11.5472 17.9644L11.6524 17.86H11.8182V17.6755C11.8182 17.6733 11.9458 17.5489 11.9458 17.5489ZM10.873 17.8689L10.8887 17.9578L10.873 18.0467L10.7812 17.9578L10.873 17.8689Z" fill="#FFC72C"/>
<path d="M5.93268 21.3C5.96404 21.4356 6.07378 21.54 6.10289 21.68C6.1544 21.5312 6.20367 21.4067 6.16784 21.2467C6.1432 21.1312 6.04242 21.0512 6.03346 20.9312C5.92372 21.0289 5.90133 21.1645 5.93268 21.3ZM5.90805 21.8734C5.99763 21.9978 6.12529 22.0889 6.26414 22.1534C6.23503 22.0445 6.28878 21.9645 6.34477 21.8778C6.41419 21.7734 6.44555 21.6734 6.38956 21.5534C6.36492 21.6134 6.32909 21.6645 6.28878 21.7178C6.22831 21.8023 6.18799 21.8734 6.17904 21.9778C6.10961 21.9267 6.07825 21.8489 6.04242 21.7734C5.98643 21.6645 5.89237 21.5778 5.78711 21.5178C5.81174 21.6445 5.8319 21.7734 5.90805 21.8734ZM6.41419 22.2423C6.39404 22.3112 6.37836 22.3778 6.38284 22.4512C6.32237 22.3867 6.24622 22.34 6.17232 22.2867C6.07602 22.2112 5.9618 22.1534 5.88565 22.0534C5.89685 22.1978 5.95732 22.3178 6.08049 22.4067C6.20591 22.4978 6.3582 22.5512 6.48138 22.6467C6.46122 22.5134 6.51273 22.4112 6.55305 22.2867C6.58888 22.1712 6.55305 22.0534 6.4769 21.9667C6.47466 22.0667 6.44107 22.1489 6.41419 22.2423ZM6.69638 22.6867C6.72102 22.7867 6.79268 22.8667 6.84643 22.96C6.71206 22.92 6.5956 22.8489 6.47466 22.78C6.32909 22.7045 6.1768 22.6512 6.0469 22.5512C6.11185 22.7867 6.2731 22.9289 6.50825 22.9956C6.6695 23.0445 6.80388 23.02 6.99648 23.0956C6.97185 22.9623 6.93602 22.8223 6.87107 22.7067C6.8218 22.6223 6.77029 22.5378 6.73669 22.4423C6.69638 22.5223 6.67622 22.5978 6.69638 22.6867ZM7.18909 23.0512C7.23388 23.1267 7.29435 23.1956 7.37049 23.2467C7.18013 23.2578 7.02784 23.1378 6.84643 23.1356C6.73445 23.1312 6.62471 23.1667 6.50825 23.1556C6.64487 23.2467 6.79044 23.3289 6.95617 23.3512C7.17341 23.38 7.37721 23.3223 7.61461 23.3467C7.50263 23.2667 7.4444 23.1623 7.37721 23.0512C7.28539 22.9112 7.20029 22.8112 7.02112 22.7867C7.09279 22.86 7.1331 22.96 7.18909 23.0512ZM7.85872 23.36C7.52279 23.4156 7.20477 23.4889 6.86435 23.4934C7.24508 23.6267 7.60341 23.6489 7.98414 23.5134C8.19018 23.4423 8.34471 23.4023 8.497 23.4134C8.7232 23.4289 8.99867 23.5178 9.30101 23.8334L9.41747 23.7378C8.98523 23.3556 8.41638 23.2689 7.85872 23.36Z" fill="#FFC72C"/>
<path d="M6.22328 2.84441L5.69922 2.52441V1.75996L6.22328 1.43996V1.03996L6.72047 0.744406H7.11688L7.86714 0.319962H9.48188L10.2321 0.739962H10.6285L11.1257 1.03552V1.43996L11.652 1.76218V2.52663L11.128 2.84663V3.25107L10.6308 3.54663H10.2344L9.48412 3.96441H7.86714L7.11688 3.54441H6.72047L6.22328 3.24885V2.84441Z" fill="#383739"/>
<path d="M7.87128 0.335495L7.12102 0.755495H6.72909L6.24534 1.04438V1.44883L5.7168 1.76661V2.51105L6.24086 2.82661V3.23549L6.72237 3.52438H7.11878L7.86904 3.94438H9.47706L10.2273 3.52438H10.6237L11.1075 3.23549V2.83549L11.6315 2.51994V1.77105L11.1075 1.45549V1.04661L10.6237 0.757717H10.2273L9.47706 0.337717H7.87128V0.335495ZM7.91383 0.493273H9.43675L10.187 0.913273H10.5789L10.9462 1.13327V1.53772L11.4725 1.85549V2.43327L10.9485 2.74883V3.15327L10.5812 3.37327H10.1892L9.43451 3.79549H7.91159L7.16133 3.37549H6.7694L6.40211 3.15549V2.75549L5.87805 2.43994V1.85549L6.40211 1.53994V1.13105L6.7694 0.91105H7.16133L7.91383 0.493273Z" fill="#00843D"/>
<path d="M8.66685 2.151V0.508774H7.91883L7.16857 0.928774H6.77664L6.42055 1.14211V1.54655L5.89648 1.86655V2.13544H8.687V3.77766H9.43502L10.1853 3.35766H10.5772L10.9333 3.14433V2.73988L11.4574 2.41988V2.151H8.66685Z" fill="#FFC72C"/>
<path d="M5.89258 2.151V2.41988L6.41664 2.73988V3.14433L6.77273 3.35766H7.16466L7.91492 3.77766H8.66294V2.13544H11.4535V1.86655L10.9294 1.54655V1.14211L10.5733 0.928774H10.1814L9.43112 0.508774H8.6831V2.151H5.89258Z" fill="white"/>
<path d="M7.03391 1.08225L6.90401 0.96225L6.77411 1.04225L6.90401 1.16225L6.73828 1.26225H7.10109L7.41463 1.55558L7.51542 1.45114L7.21307 1.16669V0.973361L7.03391 1.08225Z" fill="#383739"/>
<path d="M7.64914 1.02878L7.51924 0.908783L7.38935 0.988783L7.51924 1.10878L7.35352 1.20878H7.71633L8.02763 1.50212L8.12841 1.39767L7.82607 1.11323V0.919894L7.64914 1.02878Z" fill="#383739"/>
<path d="M6.98898 1.42223L6.85909 1.30223L6.72919 1.38223L6.85909 1.50223L6.69336 1.60223H7.05617L7.36747 1.89556L7.46825 1.79112L7.16591 1.50668V1.31334L6.98898 1.42223Z" fill="#383739"/>
<path d="M8.67323 0.49321H8.34625L8.17604 0.657654H7.8401L7.59375 0.786543L7.64974 0.926543L7.86698 0.810988H7.96328L8.29922 1.19543L8.66651 0.975432L8.67323 0.49321Z" fill="#383739"/>
<path d="M6.90742 0.982208L7.02388 1.0911L6.92758 1.1511L6.81112 1.04221L6.90742 0.982208ZM7.19633 1.00221V1.1711L7.49195 1.44665L7.41581 1.52665L7.11346 1.24221H6.80664L7.19633 1.00221Z" fill="#D22630"/>
<path d="M7.51651 0.92897L7.63297 1.03786L7.53667 1.09786L7.42021 0.98897L7.51651 0.92897ZM7.80766 0.94897V1.11786L8.10328 1.39341L8.02714 1.47341L7.72479 1.18897H7.41797L7.80766 0.94897Z" fill="#D22630"/>
<path d="M6.86221 1.32674L6.97867 1.43563L6.88237 1.49563L6.76591 1.38674L6.86221 1.32674ZM7.15336 1.34674V1.51563L7.44898 1.79118L7.37284 1.87118L7.07049 1.58674H6.76367L7.15336 1.34674Z" fill="#D22630"/>
<path d="M8.66698 0.508774H8.35568L8.18547 0.673218H7.84953L7.62109 0.788774L7.66589 0.897662L7.87193 0.788774H7.98167L8.31312 1.16877L8.66922 0.953218L8.66698 0.508774Z" fill="#D22630"/>
<path d="M7.03391 3.2067L6.90401 3.3267L6.77411 3.2467L6.90401 3.1267L6.73828 3.0267H7.10109L7.41239 2.73337L7.51318 2.83781L7.21083 3.12226V3.31559L7.03391 3.2067Z" fill="#383739"/>
<path d="M7.64914 3.26215L7.51924 3.38215L7.38935 3.30215L7.51924 3.18215L7.35352 3.08215H7.71633L8.02763 2.78882L8.12841 2.89326L7.82831 3.17771V3.37104L7.64914 3.26215Z" fill="#383739"/>
<path d="M6.98898 2.86455L6.85909 2.98455L6.72919 2.90455L6.85909 2.78455L6.69336 2.68455H7.05617L7.36747 2.39122L7.46825 2.49566L7.16591 2.78011V2.97344L6.98898 2.86455Z" fill="#383739"/>
<path d="M8.67323 3.79544H8.34625L8.17604 3.63099H7.8401L7.59375 3.50211L7.64974 3.36211L7.86698 3.47766H7.96328L8.29922 3.09322L8.66651 3.31322L8.67323 3.79544Z" fill="#383739"/>
<path d="M6.90742 3.3067L7.02388 3.19781L6.92758 3.13781L6.81112 3.2467L6.90742 3.3067ZM7.19633 3.2867V3.11781L7.49195 2.84225L7.41581 2.76225L7.11346 3.0467H6.80664L7.19633 3.2867Z" fill="#D22630"/>
<path d="M7.51651 3.35786L7.63297 3.24897L7.53667 3.18897L7.42021 3.29786L7.51651 3.35786ZM7.80766 3.33786V3.16897L8.10328 2.89342L8.02714 2.81342L7.72479 3.09786H7.41797L7.80766 3.33786Z" fill="#D22630"/>
<path d="M6.86221 2.96225L6.97867 2.85336L6.88237 2.79336L6.76591 2.90225L6.86221 2.96225ZM7.15336 2.94225V2.77336L7.44898 2.4978L7.37284 2.4178L7.07049 2.70225H6.76367L7.15336 2.94225Z" fill="#D22630"/>
<path d="M8.66727 3.77995H8.35596L8.18576 3.6155H7.84982L7.61914 3.49995L7.66393 3.39106L7.86997 3.49995H7.97971L8.31117 3.11995L8.66727 3.33551V3.77995Z" fill="#D22630"/>
<path d="M6.82203 1.62005L6.66526 1.5645L6.66078 1.56894L6.45922 1.70894V1.7445L6.13672 2.14894L6.45922 2.55339V2.58894L6.66526 2.72894L6.82203 2.67339L6.72573 2.60894V2.48894L6.76156 2.4445H6.93177V1.84672H6.76156L6.72573 1.80228V1.68228L6.82203 1.62005Z" fill="#383739"/>
<path d="M6.47427 1.71124L6.66464 1.57791L6.78109 1.62236L6.70943 1.67124V1.8068L6.7587 1.86236H6.91995V2.4268H6.7587L6.70943 2.48236V2.61791L6.78109 2.6668L6.66464 2.71125L6.47427 2.57791V2.54236L6.15625 2.14458L6.47427 1.7468V1.71124Z" fill="#D22630"/>
<path d="M10.3116 1.08225L10.4415 0.96225L10.5714 1.04225L10.4415 1.16225L10.6072 1.26225H10.2422L9.93086 1.55558L9.83008 1.45114L10.1324 1.16669V0.973361L10.3116 1.08225Z" fill="#383739"/>
<path d="M9.70193 1.02878L9.83182 0.908783L9.96172 0.988783L9.83182 1.10878L9.99755 1.20878H9.63474L9.32344 1.50212L9.22266 1.39767L9.525 1.11323V0.919894L9.70193 1.02878Z" fill="#383739"/>
<path d="M10.3601 1.42223L10.49 1.30223L10.6199 1.38223L10.49 1.50223L10.6558 1.60223H10.2929L9.98164 1.89556L9.88086 1.79112L10.1832 1.50668V1.31334L10.3601 1.42223Z" fill="#383739"/>
<path d="M8.67383 0.49321H9.00081L9.17102 0.657654H9.50695L9.75331 0.786543L9.69732 0.926543L9.48008 0.810988H9.38378L9.04784 1.19543L8.68055 0.975432L8.67383 0.49321Z" fill="#383739"/>
<path d="M10.4439 0.982208L10.3274 1.0911L10.4238 1.1511L10.5402 1.04221L10.4439 0.982208ZM10.155 1.00221V1.1711L9.85938 1.44665L9.93552 1.52665L10.2379 1.24221H10.5447L10.155 1.00221Z" fill="#D22630"/>
<path d="M9.83482 0.92897L9.71836 1.03786L9.81466 1.09786L9.93112 0.98897L9.83482 0.92897ZM9.54367 0.94897V1.11786L9.24805 1.39341L9.32419 1.47341L9.62654 1.18897H9.93336L9.54367 0.94897Z" fill="#D22630"/>
<path d="M10.4872 1.32674L10.3707 1.43563L10.467 1.49563L10.5835 1.38674L10.4872 1.32674ZM10.196 1.34674V1.51563L9.90039 1.79118L9.97654 1.87118L10.2789 1.58674H10.5857L10.196 1.34674Z" fill="#D22630"/>
<path d="M8.68164 0.508774H8.99294L9.16315 0.673218H9.49909L9.72977 0.788774L9.68497 0.897662L9.47893 0.788774H9.36919L9.03773 1.16877L8.68164 0.953218V0.508774Z" fill="#D22630"/>
<path d="M10.3116 3.2067L10.4415 3.3267L10.5714 3.2467L10.4415 3.1267L10.6072 3.0267H10.2422L9.93086 2.73337L9.83008 2.83781L10.1324 3.12226V3.31559L10.3116 3.2067Z" fill="#383739"/>
<path d="M9.70193 3.26215L9.83182 3.38215L9.96172 3.30215L9.83182 3.18215L9.99755 3.08215H9.63474L9.32344 2.78882L9.22266 2.89326L9.525 3.17771V3.37104L9.70193 3.26215Z" fill="#383739"/>
<path d="M10.3601 2.86455L10.49 2.98455L10.6199 2.90455L10.49 2.78455L10.6558 2.68455H10.2929L9.98164 2.39122L9.88086 2.49566L10.1832 2.78011V2.97344L10.3601 2.86455Z" fill="#383739"/>
<path d="M8.67383 3.79544H9.00081L9.17102 3.63099H9.50695L9.75331 3.50211L9.69732 3.36211L9.48008 3.47766H9.38378L9.04784 3.09322L8.68055 3.31322L8.67383 3.79544Z" fill="#383739"/>
<path d="M10.4439 3.3067L10.3274 3.19781L10.4238 3.13781L10.5402 3.2467L10.4439 3.3067ZM10.155 3.2867V3.11781L9.85938 2.84225L9.93552 2.76225L10.2379 3.0467H10.5447L10.155 3.2867Z" fill="#D22630"/>
<path d="M9.83482 3.35786L9.71836 3.24897L9.81466 3.18897L9.93112 3.29786L9.83482 3.35786ZM9.54367 3.33786V3.16897L9.24805 2.89342L9.32419 2.81342L9.62654 3.09786H9.93336L9.54367 3.33786Z" fill="#D22630"/>
<path d="M10.4872 2.96225L10.3707 2.85336L10.467 2.79336L10.5835 2.90225L10.4872 2.96225ZM10.196 2.94225V2.77336L9.90039 2.4978L9.97654 2.4178L10.2789 2.70225H10.5857L10.196 2.94225Z" fill="#D22630"/>
<path d="M8.68164 3.77995H8.99294L9.16315 3.6155H9.49909L9.72977 3.49995L9.68497 3.39106L9.47893 3.49995H9.36919L9.03773 3.11995L8.68164 3.33551V3.77995Z" fill="#D22630"/>
<path d="M10.5274 1.62005L10.6842 1.5645L10.6887 1.56894L10.8902 1.70894V1.7445L11.2127 2.14894L10.8902 2.55339V2.58894L10.6842 2.72894L10.5274 2.67339L10.6237 2.60894V2.48894L10.5879 2.4445H10.4199V1.84672H10.5901L10.626 1.80228V1.68228L10.5274 1.62005Z" fill="#383739"/>
<path d="M10.8734 1.71124L10.683 1.57791L10.5666 1.62236L10.6383 1.67124V1.8068L10.589 1.86236H10.4277V2.4268H10.589L10.6383 2.48236V2.61791L10.5666 2.6668L10.683 2.71125L10.8734 2.57791V2.54236L11.1914 2.14458L10.8734 1.7468V1.71124Z" fill="#D22630"/>
<path d="M6.54167 2.48439L6.45208 2.40883V2.37327L6.26172 2.14439L6.45208 1.9155V1.87994L6.54167 1.80439L6.69844 1.93327H6.60661L6.74099 2.06883H7.04781L7.28969 1.87994V1.38661H7.89661L8.59984 0.957719V0.846608L8.4901 0.775497H8.45875L8.34229 0.851053L8.32661 0.906608L8.23479 0.782164L8.41172 0.633275H8.44083L8.64239 0.488831H8.71854L8.9201 0.633275H8.94922L9.12614 0.782164L9.03432 0.906608L9.01864 0.851053L8.90218 0.775497H8.87083L8.76109 0.846608V0.957719L9.4576 1.38661H10.0645V1.87994L10.3064 2.06883H10.6132L10.7476 1.93327H10.6558L10.8125 1.80439L10.9021 1.87994V1.9155L11.0925 2.14439L10.9021 2.37327V2.40883L10.8125 2.48439L10.6558 2.3555H10.7476L10.6132 2.21994H10.3064L10.0645 2.40883V2.90216H9.4576L8.75437 3.33105V3.44216L8.86411 3.51327H8.89547L9.01192 3.43772L9.0276 3.38216L9.11942 3.50661L8.9425 3.6555H8.91338L8.71182 3.79994H8.63567L8.43411 3.6555H8.405L8.22807 3.50661L8.31989 3.38216L8.33557 3.43772L8.45203 3.51327H8.48338L8.59312 3.44216V3.33105L7.88989 2.90216H7.28297V2.40883L7.04109 2.21994H6.73427L6.5999 2.3555H6.69172L6.54167 2.48439Z" fill="#383739"/>
<path d="M8.68261 3.52674L8.75875 3.58674L8.68261 3.64675V3.52674ZM8.44073 3.63563L8.64229 3.78008H8.66693V3.66897L8.56167 3.58897L8.66693 3.50897V3.29563L7.91667 2.83563H7.36349V2.37786L7.07458 2.15563H6.64234L6.5326 2.27563L6.42286 2.15563H6.29297L6.4699 2.36897V2.40452L6.53932 2.46452L6.6513 2.37563H6.59083V2.35119L6.73641 2.2023H7.05891L7.31422 2.39786V2.8823H7.90771L8.62214 3.31563V3.44897L8.5012 3.52897H8.45641L8.33099 3.44452L8.32203 3.41341L8.26156 3.49786L8.42281 3.63119H8.43849V3.63563H8.44073ZM6.53484 2.04008L6.61995 2.13563H6.44974L6.53484 2.04008ZM8.66693 0.644524L8.59078 0.704524L8.66693 0.764524V0.644524ZM10.7296 2.15119L10.8147 2.24675L10.8998 2.15119H10.7296ZM8.9088 0.657857L8.70724 0.513412H8.68261V0.624524L8.78787 0.704524L8.68261 0.784523V0.997857L9.43511 1.45563H9.98828V1.91119L10.275 2.13119H10.7072L10.8169 2.01119L10.9267 2.13119H11.0566L10.8796 1.91786V1.8823L10.8102 1.8223L10.6982 1.91119H10.7632V1.93119L10.6176 2.08008H10.2951L10.0398 1.88452V1.4023H9.4463L8.73188 0.968968V0.835635L8.85281 0.755635H8.89761L9.02302 0.840079L9.03198 0.87119L9.09245 0.786746L8.9312 0.653412H8.9088V0.657857Z" fill="#FFC72C"/>
<path d="M8.66664 3.6423L8.59049 3.5823L8.66664 3.5223V3.6423ZM6.61966 2.15119L6.53456 2.24675L6.44945 2.15119H6.61966ZM8.90851 3.63563L8.70695 3.78008H8.68232V3.75119V3.66674L8.78758 3.58674L8.68232 3.50675V3.29341L9.43258 2.83341H9.98575V2.37563L10.2724 2.15563H10.7047L10.8144 2.27563L10.9241 2.15563H11.054L10.8771 2.36897V2.40452L10.8077 2.46452L10.6957 2.37563H10.7606V2.35119L10.6151 2.2023H10.2926L10.0373 2.39786V2.8823H9.44377L8.72935 3.31563V3.44897L8.85028 3.52897H8.89508L9.02049 3.44452L9.02945 3.41341L9.08992 3.49786L8.92867 3.63119H8.91299V3.63563H8.90851ZM10.8144 2.04008L10.7293 2.13563H10.8995L10.8144 2.04008ZM8.44044 0.657857L8.642 0.513412H8.66664V0.624524L8.56138 0.704524L8.66664 0.784523V0.997857L7.91638 1.45563H7.3632V1.91119L7.07654 2.13119H6.6443L6.53456 2.01119L6.42482 2.13119H6.29492L6.47185 1.91786V1.8823L6.54128 1.8223L6.65325 1.91119H6.59055V1.93119L6.73612 2.08008H7.05862L7.31393 1.88452V1.4023H7.90742L8.62185 0.968968V0.835635L8.50091 0.755635H8.45612L8.3307 0.840079L8.32174 0.87119L8.26127 0.786746L8.42252 0.653412C8.41581 0.657857 8.44044 0.657857 8.44044 0.657857ZM8.68232 0.762301L8.75846 0.702301L8.68232 0.642301V0.762301Z" fill="white"/>
<path d="M8.66703 2.15113V1.01779L7.91901 1.47113H7.37703V1.92001L7.10156 2.13335H8.68495V3.26668L9.43297 2.81335H9.97495V2.3689L10.2504 2.15557L8.66703 2.15113Z" fill="#00843D"/>
<path d="M7.10352 2.15113L7.37898 2.36446V2.81335H7.92096L8.66899 3.26668V2.13557H10.2524L9.9769 1.92224V1.47113H9.43492L8.6869 1.01779V2.15113H7.10352Z" fill="#D22630"/>
<path d="M7.8718 1.59542L7.7419 1.47542L7.61201 1.55542L7.7419 1.67542L7.57617 1.77542H7.93898L8.25029 2.06875L8.35107 1.96431L8.04872 1.67986V1.48653L7.8718 1.59542Z" fill="#383739"/>
<path d="M9.47732 2.69791L9.60721 2.81791L9.73711 2.73791L9.60721 2.61791L9.77294 2.51791H9.41013L9.09883 2.22458L8.99805 2.32902L9.30039 2.61347V2.8068L9.47732 2.69791Z" fill="#383739"/>
<path d="M7.8718 2.69791L7.7419 2.81791L7.61201 2.73791L7.7419 2.61791L7.57617 2.51791H7.93898L8.25029 2.22458L8.35107 2.32902L8.04872 2.61347V2.8068L7.8718 2.69791Z" fill="#383739"/>
<path d="M9.47732 1.59542L9.60721 1.47542L9.73711 1.55542L9.60721 1.67542L9.77294 1.77542H9.41013L9.09883 2.06875L8.99805 1.96431L9.30039 1.67986V1.48653L9.47732 1.59542Z" fill="#383739"/>
<path d="M9.60698 2.79338L9.49052 2.68449L9.58682 2.62449L9.70328 2.73338L9.60698 2.79338ZM9.31583 2.77338V2.60449L9.02021 2.32894L9.09635 2.24894L9.3987 2.53338H9.70552L9.31583 2.77338ZM7.74141 1.49561L7.85786 1.60449L7.76156 1.66449L7.6451 1.55561L7.74141 1.49561ZM8.03255 1.51561V1.68449L8.32818 1.96005L8.25203 2.04005L7.94745 1.75561H7.64062L8.03255 1.51561Z" fill="#D22630"/>
<path d="M9.60698 1.49561L9.49052 1.60449L9.58682 1.66449L9.70328 1.55561L9.60698 1.49561ZM9.31583 1.51561V1.68449L9.02021 1.96005L9.09635 2.04005L9.40094 1.75561H9.70776L9.31583 1.51561ZM7.74141 2.79338L7.85786 2.68449L7.76156 2.62449L7.6451 2.73338L7.74141 2.79338ZM8.03255 2.77338V2.60449L8.32818 2.32894L8.25203 2.24894L7.94745 2.53338H7.64062L8.03255 2.77338Z" fill="#00843D"/>
<path d="M9.47716 2.14446L8.67315 2.67335L7.86914 2.14446L8.67315 1.61557L9.47716 2.14446Z" fill="#383739"/>
<path d="M8.66823 1.64015L7.91797 2.13793H9.43193L8.68167 1.64015V2.64904L9.43641 2.15126H7.92245L8.67271 2.64904V1.64015H8.66823Z" fill="white"/>
<path d="M8.88935 2.32885V2.47329H8.46159V2.32885H8.18164V1.96441H8.45935V1.81996H8.88711V1.96441H9.16706V2.32885H8.88935Z" fill="#383739"/>
<path d="M8.47693 1.83113V1.97558H8.19922V2.13113H8.66281V1.83113H8.47693ZM8.68297 2.13558H9.14656V1.98002H8.86886V1.83113H8.67849L8.68297 2.13558ZM8.19922 2.15113V2.30669H8.47693V2.45113H8.66729V2.15113H8.19922ZM8.68297 2.45558H8.87333V2.31113H9.15104V2.15113H8.68745V2.45558H8.68297Z" fill="#D22630"/>
<path d="M10.0458 8.18673V7.95562H10.6908V7.72229H11.338V5.61118H10.6908V5.37785H10.0435V5.14451H9.3963V4.91118H7.94953V5.14451H7.30229V5.37785H6.65505V5.61118H6.00781V7.72229H6.65505V7.95562H7.30229V8.18896H7.94953V8.42229H9.3963V8.18896H10.0458V8.18673Z" fill="#383739"/>
<path d="M7.97268 4.92431V5.15764H7.32544V5.39098H6.68044V5.62209H6.0332V7.70209H6.68044V7.93542H7.32768V8.16876H7.97492V8.39987H9.38362V8.16653H10.0309V7.9332H10.6781V7.69987H11.3253V5.62209H10.6781V5.38876H10.0309V5.15542H9.38362V4.92209H7.97268V4.92431ZM8.14065 5.0932H9.20669V5.32653H9.85393V5.55987H10.5012V5.7932H11.1484V7.5332H10.5012V7.76653H9.85393V7.99987H9.20669V8.2332H8.14065V7.99987H7.49341V7.76653H6.84617V7.5332H6.19893V5.7932H6.84617V5.55987H7.49341V5.32653H8.14065V5.0932Z" fill="#FFC72C"/>
<path d="M7.51128 7.98231V7.74898H6.86404V7.51564H6.2168V5.81342H6.86404V5.58009H7.51128V5.34675H8.15851V5.11342H9.1932V5.34675H9.8382V5.58009H10.4854V5.81342H11.1327V7.51564H10.4854V7.74898H9.8382V7.98231H9.19096V8.21564H8.15851V7.98231H7.51128Z" fill="#D22630"/>
<path d="M7.66229 5.5178L7.49656 5.39335V5.63335L7.33531 5.73335V5.58002L7.18078 5.71558L7.02625 5.58002V5.73335L6.84932 5.62224V5.84669L6.70375 5.95113V5.81558L6.53354 5.94002L6.36333 5.81558V5.95113L6.20208 5.83558V6.51335H6.01172V6.82224H6.20208V7.50002L6.36333 7.38447V7.52002L6.53354 7.39558L6.70375 7.52002V7.38447L6.84932 7.48891V7.71113L7.02625 7.60002V7.75336L7.18078 7.6178L7.33531 7.75336V7.60002L7.49656 7.70002V7.94002L7.66229 7.81558V7.98447L7.82802 7.84002L7.99375 7.98447V7.81558L8.1438 7.92669V8.18224L8.37 7.9778V8.21336L8.6813 8.0178L8.9926 8.21336V7.9778L9.2188 8.18224V7.92224L9.36885 7.81113V7.98002L9.53458 7.83558L9.70031 7.98002V7.81113L9.86604 7.93558V7.69558L10.0273 7.59558V7.74891L10.1818 7.61336L10.3364 7.74891V7.59558L10.5133 7.70669V7.48224L10.6589 7.3778V7.51336L10.8291 7.38891L10.9993 7.51336V7.3778L11.1605 7.49336V6.81558H11.3509V6.50669H11.1605V5.82891L10.9993 5.94447V5.80891L10.8291 5.93335L10.6589 5.80891V5.94447L10.5133 5.84002V5.61558L10.3364 5.72669V5.5778L10.1818 5.71335L10.0273 5.5778V5.73113L9.86604 5.63113V5.39113L9.70031 5.51558V5.34669L9.53458 5.49113L9.36885 5.34669V5.51558L9.2188 5.40446V5.14891L8.9926 5.35335V5.1178L8.6813 5.31335L8.37 5.1178V5.35335L8.1438 5.14891V5.40446L7.99375 5.51558V5.34669L7.82802 5.49113L7.66229 5.34669V5.5178Z" fill="#383739"/>
<path d="M6.38091 5.98204V5.84649L6.53544 5.95537L6.53992 5.95093L6.68998 5.84204V5.9776L6.85123 5.86204V7.4576L6.68998 7.34204V7.4776L6.53544 7.36871L6.38091 7.4776V7.34204L6.21966 7.4576V6.79982H6.0293V6.52649H6.21966V5.86649L6.38091 5.98204Z" fill="#00843D"/>
<path d="M7.68135 5.39122L7.82693 5.52011L7.9725 5.39122V5.55566L8.13823 5.43122V7.90455L7.9725 7.78011V7.94455L7.82693 7.81567L7.68135 7.94455V7.77789L7.51562 7.90233V5.43122L7.68135 5.55566V5.39122Z" fill="#00843D"/>
<path d="M9.66781 5.39122L9.52224 5.52011L9.37667 5.39122V5.55566L9.21094 5.43122V7.90455L9.37667 7.78011V7.94455L9.52224 7.81567L9.66781 7.94455V7.77789L9.83354 7.90233V5.43122L9.66781 5.55566V5.39122Z" fill="#00843D"/>
<path d="M10.9703 5.98204V5.84649L10.8158 5.95537L10.8113 5.95093L10.6613 5.84204V5.9776L10.5 5.86204V7.4576L10.6613 7.34204V7.4776L10.8158 7.36871L10.9703 7.4776V7.34204L11.1316 7.4576V6.79982H11.3219V6.52649H11.1316V5.86649L10.9703 5.98204Z" fill="#00843D"/>
<path d="M7.04412 5.62209L7.18073 5.74209L7.31734 5.62209V5.76653L7.49427 5.65542V7.67542L7.31734 7.56431V7.70875L7.18073 7.58875L7.04412 7.70875V7.56431L6.86719 7.67542V5.65542L7.04412 5.76653V5.62209Z" fill="#FFC72C"/>
<path d="M8.3805 5.39113L8.1543 5.18668V8.14002L8.3805 7.93557V8.18002L8.67164 7.99113L8.96279 8.18002V7.93557L9.18899 8.14002V5.18668L8.96279 5.39113V5.14668L8.67164 5.33557L8.3805 5.14668V5.39113Z" fill="#FFC72C"/>
<path d="M10.3076 5.62209L10.171 5.74209L10.0343 5.62209V5.76653L9.85742 5.65542V7.67542L10.0343 7.56431V7.70875L10.171 7.58875L10.3076 7.70875V7.56431L10.4845 7.67542V5.65542L10.3076 5.76653V5.62209Z" fill="#FFC72C"/>
<path d="M6.46534 6.37542C6.48549 6.39542 6.51013 6.40431 6.53477 6.40431C6.56388 6.40431 6.58404 6.39542 6.60419 6.37542C6.66466 6.31542 6.66914 6.20209 6.66914 6.12209C6.66914 6.12209 6.59747 6.19764 6.58404 6.21097C6.57508 6.19542 6.53477 6.12653 6.53477 6.12653C6.53477 6.12653 6.49445 6.19542 6.48549 6.21097C6.4743 6.19986 6.40039 6.12209 6.40039 6.12209C6.40039 6.20431 6.40487 6.31097 6.46534 6.37542Z" fill="#383739"/>
<path d="M7.14063 6.2044L7.08912 6.15329V6.05329L6.97266 6.16218L7.18766 6.37551L7.40266 6.16218L7.2862 6.05329V6.15329L7.23469 6.2044V6.02218L7.32651 5.94662L7.19214 5.83551L7.05776 5.94662L7.14958 6.02218L7.14063 6.2044Z" fill="#383739"/>
<path d="M7.78711 6.00003L7.7356 5.94892V5.84892L7.61914 5.95781L7.83414 6.17114L8.04914 5.95781L7.93268 5.84892V5.94892L7.86774 6.00003V5.82003L7.95956 5.74447L7.82518 5.63336L7.69081 5.74447L7.78263 5.82003V6.00003H7.78711Z" fill="#383739"/>
<path d="M6.53552 6.15985C6.54672 6.17985 6.58031 6.23541 6.58031 6.23541C6.58031 6.23541 6.62959 6.1843 6.64974 6.1643C6.64526 6.25318 6.62511 6.3243 6.59375 6.35985C6.57807 6.37541 6.55792 6.3843 6.53776 6.3843C6.51761 6.3843 6.49745 6.37541 6.48177 6.35985C6.44594 6.3243 6.42578 6.25541 6.42578 6.1643C6.44594 6.1843 6.49521 6.23541 6.49521 6.23541C6.50641 6.21096 6.51761 6.18652 6.53552 6.15985Z" fill="white"/>
<path d="M7.85114 5.81108V6.03996L7.93625 5.95552V5.88663L8.01239 5.95774L7.82651 6.14218L7.64062 5.95774L7.71677 5.88663V5.95552L7.80187 6.03996V5.81108L7.72125 5.74219L7.82651 5.65108L7.93177 5.74219L7.85114 5.81108Z" fill="white"/>
<path d="M7.20466 6.01545V6.24434L7.28977 6.1599V6.09101L7.36591 6.16212L7.18003 6.34656L6.99414 6.16212L7.07029 6.09101V6.1599L7.15539 6.24434V6.01545L7.07477 5.94656L7.18003 5.85545L7.28529 5.94656L7.20466 6.01545Z" fill="#D22630"/>
<path d="M10.8835 6.37542C10.8633 6.39542 10.8387 6.40431 10.8141 6.40431C10.7849 6.40431 10.7648 6.39542 10.7446 6.37542C10.6842 6.31542 10.6797 6.20209 10.6797 6.12209C10.6797 6.12209 10.7514 6.19764 10.7648 6.21097C10.7737 6.19542 10.8141 6.12653 10.8141 6.12653C10.8141 6.12653 10.8544 6.19542 10.8633 6.21097C10.8745 6.19986 10.9484 6.12209 10.9484 6.12209C10.9484 6.20431 10.944 6.31097 10.8835 6.37542Z" fill="#383739"/>
<path d="M10.2113 6.2044L10.2628 6.15329V6.05329L10.3792 6.16218L10.1642 6.37551L9.94922 6.16218L10.0657 6.05329V6.15329L10.1172 6.2044V6.02218L10.0254 5.94662L10.1597 5.83551L10.2941 5.94662L10.2023 6.02218L10.2113 6.2044Z" fill="#383739"/>
<path d="M9.56281 6.00003L9.61432 5.94892V5.84892L9.73078 5.95781L9.51578 6.17114L9.30078 5.95781L9.41724 5.84892V5.94892L9.46875 6.00003V5.82003L9.37693 5.74447L9.5113 5.63336L9.64568 5.74447L9.55385 5.82003V6.00003H9.56281Z" fill="#383739"/>
<path d="M10.8154 6.15985C10.8042 6.17985 10.7706 6.23541 10.7706 6.23541C10.7706 6.23541 10.7213 6.1843 10.7012 6.1643C10.7057 6.25318 10.7258 6.3243 10.7572 6.35985C10.7728 6.37541 10.793 6.3843 10.8132 6.3843C10.8333 6.3843 10.8535 6.37541 10.8691 6.35985C10.905 6.3243 10.9251 6.25541 10.9251 6.1643C10.905 6.1843 10.8557 6.23541 10.8557 6.23541C10.8445 6.21096 10.8333 6.18652 10.8154 6.15985Z" fill="white"/>
<path d="M9.49719 5.81108V6.03996L9.41208 5.95552V5.88663L9.33594 5.95774L9.52182 6.14218L9.70771 5.95774L9.63156 5.88663V5.95552L9.54646 6.03996V5.81108L9.62708 5.74219L9.52182 5.65108L9.41656 5.74219L9.49719 5.81108Z" fill="white"/>
<path d="M10.1456 6.01545V6.24434L10.0605 6.1599V6.09101L9.98438 6.16212L10.1703 6.34656L10.3561 6.16212L10.28 6.09101V6.1599L10.1949 6.24434V6.01545L10.2755 5.94656L10.1703 5.85545L10.065 5.94656L10.1456 6.01545Z" fill="#D22630"/>
<path d="M8.93005 6.07553L8.86062 5.97998L9.03755 5.81553L8.87182 5.67998V5.77553L8.8024 5.83553V5.6622L8.95917 5.54664L8.67698 5.33775L8.39479 5.54664L8.55156 5.6622V5.83553L8.48214 5.77553V5.67998L8.31641 5.81553L8.49333 5.97998L8.42391 6.07553H8.93005Z" fill="#383739"/>
<path d="M8.45602 6.05998L8.51648 5.97998L8.3418 5.81998L8.46273 5.71998V5.78887L8.56799 5.87776V5.65776L8.42242 5.55331L8.67773 5.36887L8.93305 5.55331L8.78747 5.65776V5.87776L8.89273 5.78887V5.71998L9.01367 5.81998L8.83898 5.97998L8.89945 6.05998H8.45602Z" fill="#D22630"/>
<path d="M8.54688 5.55102L8.67677 5.64657L8.80667 5.55102L8.67677 5.45546L8.67229 5.4599L8.54688 5.55102Z" fill="#383739"/>
<path d="M8.67305 5.47327C8.682 5.48216 8.75815 5.53771 8.77383 5.54438C8.75815 5.55549 8.682 5.61327 8.67305 5.61549C8.66409 5.6066 8.58794 5.55104 8.57227 5.54438C8.59018 5.53771 8.66633 5.48216 8.67305 5.47327Z" fill="#00843D"/>
<path d="M6.46534 6.95786C6.48549 6.93786 6.51013 6.92897 6.53477 6.92897C6.56388 6.92897 6.58404 6.93786 6.60419 6.95786C6.66466 7.01786 6.66914 7.13119 6.66914 7.21119C6.66914 7.21119 6.59747 7.13564 6.58404 7.1223C6.57508 7.13786 6.53477 7.20675 6.53477 7.20675C6.53477 7.20675 6.49445 7.13786 6.48549 7.1223C6.4743 7.13341 6.40039 7.21119 6.40039 7.21119C6.40039 7.12453 6.40487 7.01786 6.46534 6.95786Z" fill="#383739"/>
<path d="M7.14063 7.12424L7.08912 7.17535V7.27535L6.97266 7.16646L7.18766 6.95312L7.40266 7.16646L7.2862 7.27535V7.17757L7.23469 7.12646V7.30646L7.32651 7.38201L7.19214 7.49312L7.05776 7.38201L7.14958 7.30646L7.14063 7.12424Z" fill="#383739"/>
<path d="M7.78711 7.32904L7.7356 7.38015V7.48015L7.61914 7.37126L7.83414 7.15793L8.04914 7.37126L7.93268 7.48015V7.38015L7.88117 7.32904V7.50904L7.973 7.5846L7.83862 7.69571L7.70425 7.5846L7.79607 7.50904V7.32904H7.78711Z" fill="#383739"/>
<path d="M6.53552 7.16898C6.54672 7.14898 6.58031 7.09342 6.58031 7.09342C6.58031 7.09342 6.62959 7.14453 6.64974 7.16453C6.64526 7.07564 6.62511 7.00453 6.59375 6.96898C6.57807 6.95342 6.55792 6.94453 6.53776 6.94453C6.51761 6.94453 6.49745 6.95342 6.48177 6.96898C6.44594 7.00453 6.42578 7.07342 6.42578 7.16453C6.44594 7.14453 6.49521 7.09342 6.49521 7.09342C6.50641 7.11787 6.51761 7.14231 6.53552 7.16898Z" fill="white"/>
<path d="M7.85114 7.5177V7.28881L7.93625 7.37325V7.44214L8.01239 7.37103L7.82651 7.18658L7.64062 7.37103L7.71677 7.44214V7.37325L7.80187 7.28881V7.5177L7.72125 7.58658L7.82651 7.6777L7.93177 7.58658L7.85114 7.5177Z" fill="white"/>
<path d="M7.20466 7.31332V7.08443L7.28977 7.16888V7.23776L7.36591 7.16665L7.18003 6.98221L6.99414 7.16665L7.07029 7.23776V7.16888L7.15539 7.08443V7.31332L7.07477 7.38221L7.18003 7.47332L7.28529 7.38221L7.20466 7.31332Z" fill="#D22630"/>
<path d="M10.8835 6.95786C10.8633 6.93786 10.8387 6.92897 10.8141 6.92897C10.7849 6.92897 10.7648 6.93786 10.7446 6.95786C10.6842 7.01786 10.6797 7.13119 10.6797 7.21119C10.6797 7.21119 10.7514 7.13564 10.7648 7.1223C10.7737 7.13786 10.8141 7.20675 10.8141 7.20675C10.8141 7.20675 10.8544 7.13786 10.8633 7.1223C10.8745 7.13341 10.9484 7.21119 10.9484 7.21119C10.9484 7.12453 10.944 7.01786 10.8835 6.95786Z" fill="#383739"/>
<path d="M10.2107 7.12463L10.2622 7.17574V7.27574L10.3786 7.16685L10.1681 6.95796L9.95312 7.17129L10.0696 7.28018V7.18018L10.1211 7.12907V7.30907L10.0293 7.38462L10.1636 7.49573L10.298 7.38462L10.2062 7.30907L10.2107 7.12463Z" fill="#383739"/>
<path d="M9.56224 7.32904L9.61375 7.38015V7.48015L9.73021 7.37126L9.51969 7.15793L9.30469 7.37126L9.42115 7.48015V7.38015L9.47266 7.32904V7.50904L9.38083 7.5846L9.51521 7.69571L9.64958 7.5846L9.55776 7.50904V7.32904H9.56224Z" fill="#383739"/>
<path d="M10.8154 7.16898C10.8042 7.14898 10.7706 7.09342 10.7706 7.09342C10.7706 7.09342 10.7213 7.14453 10.7012 7.16453C10.7057 7.07564 10.7258 7.00453 10.7572 6.96898C10.7728 6.95342 10.793 6.94453 10.8132 6.94453C10.8333 6.94453 10.8535 6.95342 10.8691 6.96898C10.905 7.00453 10.9251 7.07342 10.9251 7.16453C10.905 7.14453 10.8557 7.09342 10.8557 7.09342C10.8445 7.11787 10.8333 7.14231 10.8154 7.16898Z" fill="white"/>
<path d="M9.49719 7.5177V7.28881L9.41208 7.37325V7.44214L9.33594 7.37103L9.52182 7.18658L9.70771 7.37103L9.63156 7.44214V7.37325L9.54646 7.28881V7.5177L9.62708 7.58658L9.52182 7.6777L9.41656 7.58658L9.49719 7.5177Z" fill="white"/>
<path d="M10.1456 7.31332V7.08443L10.0605 7.16888V7.23776L9.98438 7.16665L10.1703 6.98221L10.3561 7.16665L10.28 7.23776V7.16888L10.1949 7.08443V7.31332L10.2755 7.38221L10.1703 7.47332L10.065 7.38221L10.1456 7.31332Z" fill="#D22630"/>
<path d="M8.93005 7.25331L8.86062 7.34887L9.03755 7.51331L8.87182 7.64887V7.55331L8.8024 7.49331V7.66665L8.95917 7.7822L8.67698 7.99109L8.39479 7.7822L8.55156 7.66665V7.49331L8.48214 7.55331V7.64887L8.31641 7.51331L8.49333 7.34887L8.42391 7.25331H8.93005Z" fill="#383739"/>
<path d="M8.45602 7.26888L8.51648 7.34888L8.3418 7.50887L8.46273 7.60887V7.53999L8.56799 7.4511V7.6711L8.42242 7.77554L8.67773 7.95999L8.93305 7.77554L8.78747 7.6711V7.4511L8.89273 7.53999V7.60887L9.01367 7.50887L8.83898 7.34888L8.89945 7.26888H8.45602Z" fill="#D22630"/>
<path d="M8.54688 7.77776L8.67677 7.68221L8.80667 7.77776L8.67677 7.87332L8.67229 7.86887L8.54688 7.77776Z" fill="#383739"/>
<path d="M8.67305 7.85566C8.682 7.84677 8.75815 7.79121 8.77383 7.78455C8.75815 7.77344 8.682 7.71566 8.67305 7.71344C8.66409 7.72233 8.58794 7.77788 8.57227 7.78455C8.59018 7.79121 8.66633 7.84677 8.67305 7.85566Z" fill="#00843D"/>
<path d="M10.9731 6.5643H10.6887V6.45319H9.81976L9.21284 6.05986H9.2106H8.13112L7.52419 6.45319H6.65523V6.5643H6.37305V6.75986H6.65523V6.87097H7.52419L8.13112 7.2643H9.21284L9.81976 6.87097H10.6887V6.75986H10.9709V6.5643H10.9731Z" fill="#383739"/>
<path d="M8.13917 6.08013L7.53224 6.47125H6.67672V6.58236H6.39453V6.7468H6.67672V6.85791H7.53224L8.13917 7.25569H9.20969L9.81214 6.85791H10.6677V6.7468H10.9498V6.58236H10.6677V6.47125H9.81214L9.20969 6.07791H8.13917V6.08013ZM8.15484 6.13569H9.19625L9.74943 6.49569V6.55124H10.3676V6.78013H9.74943V6.83569L9.19625 7.19569H8.15484L7.60167 6.83569V6.78013H6.97906V6.55124H7.60167V6.49569L8.15484 6.13569Z" fill="#D22630"/>
<path d="M9.1906 6.15113L9.73258 6.50446V6.5689H10.3507V6.76446H9.73258V6.8289L9.1906 7.18223H8.15815L7.61617 6.8289V6.76001H6.99805V6.56446H7.61617V6.50001L8.15815 6.14668H9.19284V6.15113H9.1906Z" fill="#D22630"/>
<path d="M7.89286 6.86441L8.12802 7.03774L8.28255 6.92218L8.19297 6.8533L8.12802 6.90218L8.07203 6.86218L8.95219 6.20441H8.77526L7.89286 6.86441ZM8.40125 7.12218H8.57818L9.45833 6.46441L9.22318 6.29107L9.06865 6.40663L9.15823 6.47552L9.22318 6.42663L9.27917 6.46663L8.40125 7.12218ZM8.77302 7.12218H8.94995L8.06979 6.46441L8.12578 6.42441L8.19073 6.4733L8.28031 6.40441L8.12578 6.28885L7.89062 6.46218L8.77302 7.12218ZM9.28141 6.86441L9.22542 6.90441L9.16047 6.85552L9.07089 6.92441L9.22542 7.03996L9.46057 6.86663L8.58042 6.20885H8.40349L9.28141 6.86441Z" fill="#383739"/>
<path d="M7.71289 6.6643L7.86966 6.76875L8.02643 6.6643L7.86966 6.55986L7.71289 6.6643Z" fill="#383739"/>
<path d="M8.51758 6.6643L8.67435 6.76875L8.83112 6.6643L8.67435 6.55986L8.51758 6.6643Z" fill="#383739"/>
<path d="M9.63776 6.6643L9.48099 6.76875L9.32422 6.6643L9.48099 6.55986L9.63776 6.6643Z" fill="#383739"/>
<path d="M9.43135 6.86459L9.22531 7.01793L9.0999 6.92682L9.16036 6.88237L9.22531 6.93126L9.31042 6.86682L8.4549 6.22904H8.57583L9.43135 6.86459ZM8.89833 7.1046H8.7774L7.92188 6.46682L8.12792 6.31348L8.25333 6.40459L8.19286 6.44904L8.12792 6.40015L8.04281 6.46459L8.89833 7.1046ZM8.57359 7.1046H8.45266L9.30818 6.46682L9.22307 6.40237L9.15813 6.45126L9.09766 6.40682L9.22307 6.31571L9.42911 6.46904L8.57359 7.1046ZM8.7774 6.22459H8.89833L8.04281 6.86237L8.12792 6.92682L8.19286 6.87793L8.25333 6.92237L8.12792 7.01348L7.92188 6.86015L8.7774 6.22459Z" fill="#FFC72C"/>
<path d="M7.87151 6.58005L7.99693 6.66449L7.87151 6.74894L7.74609 6.66449L7.87151 6.58005Z" fill="#00843D"/>
<path d="M8.67425 6.58005L8.79966 6.66449L8.67425 6.74894L8.54883 6.66449L8.67425 6.58005Z" fill="#00843D"/>
<path d="M9.47893 6.58005L9.35352 6.66449L9.47893 6.74894L9.60435 6.66449L9.47893 6.58005Z" fill="#00843D"/>
<path d="M5.90813 11.0178L5.84766 11.1067L5.9574 11.1911L5.84766 11.2756L5.90813 11.3645L6.03802 11.38L6.16344 11.2845L6.47474 11.48V11.3156L6.2799 11.1911L6.47474 11.0667V10.9022L6.16344 11.0978L6.03802 11.0022L5.90813 11.0178Z" fill="#383739"/>
<path d="M5.90813 10.4511L5.84766 10.54L5.9574 10.6244L5.84766 10.7088L5.90813 10.7977L6.03802 10.8133L6.16344 10.7177L6.47474 10.9133V10.7488L6.2799 10.6244L6.47474 10.5V10.3355L6.16344 10.5311L6.03802 10.4355L5.90813 10.4511Z" fill="#383739"/>
<path d="M5.90813 11.9177L5.84766 11.8288L5.9574 11.7443L5.84766 11.6599L5.90813 11.571L6.03802 11.5555L6.16344 11.651L6.47474 11.4555V11.6199L6.2799 11.7443L6.47474 11.8688V12.0332L6.16344 11.8377L6.03802 11.9332L5.90813 11.9177Z" fill="#383739"/>
<path d="M11.4416 11.0178L11.5021 11.1067L11.3923 11.1911L11.5021 11.2756L11.4416 11.3645L11.3117 11.38L11.1863 11.2845L10.875 11.48V11.3156L11.0698 11.1911L10.875 11.0667V10.9022L11.1863 11.0978L11.3117 11.0022L11.4416 11.0178Z" fill="#383739"/>
<path d="M11.4416 10.4511L11.5021 10.54L11.3923 10.6244L11.5021 10.7088L11.4416 10.7977L11.3117 10.8133L11.1863 10.7177L10.875 10.9133V10.7488L11.0698 10.6244L10.875 10.5V10.3355L11.1863 10.5311L11.3117 10.4355L11.4416 10.4511Z" fill="#383739"/>
<path d="M11.4416 11.9177L11.5021 11.8288L11.3923 11.7443L11.5021 11.6599L11.4416 11.571L11.3117 11.5555L11.1863 11.651L10.875 11.4555V11.6199L11.0698 11.7443L10.875 11.8688V12.0332L11.1863 11.8377L11.3117 11.9332L11.4416 11.9177Z" fill="#383739"/>
<path d="M10.1973 9.47325V9.71103H10.372V9.81547H10.5422V9.62659H10.3921V9.4777H10.1973V9.47325Z" fill="#383739"/>
<path d="M10.707 9.84677V10.0823H10.8817V10.1868H11.0519V9.99788H10.8974V9.84454H10.707V9.84677Z" fill="#383739"/>
<path d="M7.15349 9.47325V9.71103H6.9788V9.81547H6.80859V9.62659H6.95865V9.4777H7.15349V9.47325Z" fill="#383739"/>
<path d="M10.1973 12.8955V12.6599H10.372V12.5555H10.5422V12.7444H10.3921V12.8933H10.1973V12.8955Z" fill="#383739"/>
<path d="M7.15349 12.8955V12.6599H6.9788V12.5555H6.80859V12.7444H6.95865V12.8933H7.15349V12.8955Z" fill="#383739"/>
<path d="M10.707 12.5244V12.2911H10.8817V12.1866H11.0519V12.3755H10.8974V12.5244H10.707Z" fill="#383739"/>
<path d="M6.64344 9.84677V10.0823H6.46875V10.1868H6.30078V9.99788H6.45083V9.84454H6.64344V9.84677Z" fill="#383739"/>
<path d="M6.64344 12.5244V12.2911H6.46875V12.1866H6.30078V12.3755H6.45083V12.5244H6.64344Z" fill="#383739"/>
<path d="M9.31154 9.46904C9.30034 9.45793 9.17716 9.34015 9.17716 9.34015L9.04727 9.46015C9.04727 9.46015 9.14805 9.55571 9.15924 9.56904L9.01367 9.70904H9.22867L9.30482 9.63348L9.38096 9.70904H9.59596L9.45039 9.56904C9.46159 9.55793 9.56237 9.46015 9.56237 9.46015L9.43247 9.34015C9.39664 9.38682 9.35185 9.42682 9.31154 9.46904Z" fill="#383739"/>
<path d="M8.67482 9.46904C8.66362 9.45793 8.54044 9.34015 8.54044 9.34015L8.41055 9.46015C8.41055 9.46015 8.51133 9.55571 8.52253 9.56904L8.37695 9.70904H8.59195L8.6681 9.63348L8.74424 9.70904H8.95924L8.81367 9.56904C8.82487 9.55793 8.92565 9.46015 8.92565 9.46015L8.79575 9.34015C8.7644 9.38682 8.71961 9.42682 8.67482 9.46904Z" fill="#383739"/>
<path d="M8.03862 9.46904C8.04982 9.45793 8.173 9.34015 8.173 9.34015L8.30289 9.46015C8.30289 9.46015 8.20211 9.55571 8.19091 9.56904L8.33648 9.70904H8.12148L8.04534 9.63348L7.96919 9.70904H7.75195L7.89753 9.56904C7.88633 9.55793 7.78555 9.46015 7.78555 9.46015L7.91544 9.34015C7.95352 9.38682 7.99831 9.42682 8.03862 9.46904Z" fill="#383739"/>
<path d="M9.31154 12.8999C9.30034 12.911 9.17716 13.0287 9.17716 13.0287L9.04727 12.9087C9.04727 12.9087 9.14805 12.8132 9.15924 12.7999L9.01367 12.6599H9.22867L9.30482 12.7354L9.38096 12.6599H9.59596L9.45039 12.7999C9.46159 12.811 9.56237 12.9087 9.56237 12.9087L9.43247 13.0287C9.39664 12.9843 9.35185 12.9443 9.31154 12.8999Z" fill="#383739"/>
<path d="M8.67482 12.8999C8.66362 12.911 8.54044 13.0287 8.54044 13.0287L8.41055 12.9087C8.41055 12.9087 8.51133 12.8132 8.52253 12.7999L8.37695 12.6599H8.59195L8.6681 12.7354L8.74424 12.6599H8.95924L8.81367 12.7999C8.82487 12.811 8.92565 12.9087 8.92565 12.9087L8.79575 13.0287C8.7644 12.9843 8.71961 12.9443 8.67482 12.8999Z" fill="#383739"/>
<path d="M8.03862 12.8999C8.04982 12.911 8.173 13.0287 8.173 13.0287L8.30289 12.9087C8.30289 12.9087 8.20211 12.8132 8.19091 12.7999L8.33648 12.6599H8.12148L8.04534 12.7354L7.96919 12.6599H7.75195L7.89753 12.7999C7.88633 12.811 7.78555 12.9087 7.78555 12.9087L7.91544 13.0287C7.95352 12.9843 7.99831 12.9443 8.03862 12.8999Z" fill="#383739"/>
<path d="M6.45396 11.3178V11.4378L6.15833 11.2533L6.02844 11.3533L5.91646 11.3422L5.86719 11.2733L5.98365 11.1845L5.86719 11.0956L5.91646 11.0267L6.02844 11.0156L6.15833 11.1156L6.45396 10.9311V11.0511L6.24344 11.1845L6.45396 11.3178Z" fill="#00843D"/>
<path d="M6.45396 10.7533V10.8733L6.15833 10.6889L6.02844 10.7889L5.91646 10.7778L5.86719 10.7089L5.98365 10.62L5.86719 10.5311L5.91646 10.4622L6.02844 10.4511L6.15833 10.5511L6.45396 10.3667V10.4867L6.24344 10.62L6.45396 10.7533Z" fill="#00843D"/>
<path d="M6.45396 11.6178V11.4978L6.15833 11.6822L6.02844 11.5822L5.91646 11.5933L5.86719 11.6622L5.98365 11.7511L5.86719 11.84L5.91646 11.9089L6.02844 11.92L6.15833 11.82L6.45396 12.0045V11.8845L6.24344 11.7511L6.45396 11.6178Z" fill="#00843D"/>
<path d="M10.8965 11.3178V11.4378L11.1921 11.2533L11.322 11.3533L11.434 11.3422L11.4833 11.2733L11.3668 11.1845L11.4833 11.0956L11.434 11.0267L11.322 11.0156L11.1921 11.1156L10.8965 10.9311V11.0511L11.107 11.1845L10.8965 11.3178Z" fill="#00843D"/>
<path d="M10.8965 10.7533V10.8733L11.1921 10.6889L11.322 10.7889L11.434 10.7778L11.4833 10.7089L11.3668 10.62L11.4833 10.5311L11.434 10.4622L11.322 10.4511L11.1921 10.5511L10.8965 10.3667V10.4867L11.107 10.62L10.8965 10.7533Z" fill="#00843D"/>
<path d="M10.8965 11.6178V11.4978L11.1921 11.6822L11.322 11.5822L11.434 11.5933L11.4833 11.6622L11.3668 11.7511L11.4833 11.84L11.434 11.9089L11.322 11.92L11.1921 11.82L10.8965 12.0045V11.8845L11.107 11.7511L10.8965 11.6178Z" fill="#00843D"/>
<path d="M10.3719 9.49323V9.64211H10.522V9.79767H10.3876V9.69323H10.2129V9.49323H10.3719Z" fill="#00843D"/>
<path d="M10.8797 9.86234V10.0112H11.0298V10.1668H10.8954V10.0623H10.7207V9.86234H10.8797Z" fill="#00843D"/>
<path d="M6.97818 9.49323V9.64211H6.82812V9.79767H6.9625V9.69323H7.13719V9.49323H6.97818Z" fill="#00843D"/>
<path d="M10.3719 12.8799V12.731H10.522V12.5754H10.3876V12.6799H10.2129V12.8799H10.3719Z" fill="#00843D"/>
<path d="M6.97818 12.8799V12.731H6.82812V12.5754H6.9625V12.6799H7.13719V12.8799H6.97818Z" fill="#00843D"/>
<path d="M10.8797 12.5066V12.3577H11.0298V12.2022H10.8954V12.3066H10.7207V12.5066H10.8797Z" fill="#00843D"/>
<path d="M6.47037 9.86234V10.0112H6.32031V10.1668H6.45469V10.0623H6.62938V9.86234H6.47037Z" fill="#00843D"/>
<path d="M6.47037 12.5066V12.3577H6.32031V12.2022H6.45469V12.3066H6.62938V12.5066H6.47037Z" fill="#00843D"/>
<path d="M9.18005 9.36664C9.19125 9.37775 9.31443 9.49553 9.31443 9.49553C9.31443 9.49553 9.43536 9.37997 9.4488 9.36664C9.46 9.37553 9.54062 9.45108 9.55406 9.46219C9.54286 9.4733 9.44208 9.57108 9.44208 9.57108L9.57198 9.69553H9.40625L9.32115 9.61553L9.23604 9.69553H9.07031L9.20021 9.57108C9.20021 9.57108 9.09943 9.47553 9.08823 9.46219C9.08599 9.44886 9.16661 9.37775 9.18005 9.36664Z" fill="#00843D"/>
<path d="M8.54195 9.36664C8.55315 9.37775 8.67633 9.49553 8.67633 9.49553C8.67633 9.49553 8.79727 9.37997 8.8107 9.36664C8.8219 9.37553 8.90253 9.45108 8.91596 9.46219C8.90477 9.4733 8.80398 9.57108 8.80398 9.57108L8.93388 9.69553H8.76367L8.67857 9.61553L8.59346 9.69553H8.42773L8.55763 9.57108C8.55763 9.57108 8.45685 9.47553 8.44565 9.46219C8.45237 9.44886 8.53299 9.37775 8.54195 9.36664Z" fill="#00843D"/>
<path d="M8.16927 9.36664C8.15807 9.37775 8.0349 9.49553 8.0349 9.49553C8.0349 9.49553 7.91396 9.37997 7.90052 9.36664C7.88932 9.37553 7.8087 9.45108 7.79526 9.46219C7.80646 9.4733 7.90724 9.57108 7.90724 9.57108L7.77734 9.69553H7.94307L8.02818 9.61553L8.11328 9.69553H8.27901L8.14911 9.57108C8.14911 9.57108 8.2499 9.47553 8.26109 9.46219C8.26333 9.44886 8.18047 9.37775 8.16927 9.36664Z" fill="#00843D"/>
<path d="M9.18005 13.0043C9.19125 12.9932 9.31443 12.8754 9.31443 12.8754C9.31443 12.8754 9.43536 12.991 9.4488 13.0043C9.46 12.9954 9.54062 12.9199 9.55406 12.9088C9.54286 12.8977 9.44208 12.7999 9.44208 12.7999L9.57198 12.6754H9.40625L9.32115 12.7554L9.23604 12.6754H9.07031L9.20021 12.7999C9.20021 12.7999 9.09943 12.8954 9.08823 12.9088C9.08599 12.9199 9.16661 12.9954 9.18005 13.0043Z" fill="#00843D"/>
<path d="M8.54195 13.0043C8.55315 12.9932 8.67633 12.8754 8.67633 12.8754C8.67633 12.8754 8.79727 12.991 8.8107 13.0043C8.8219 12.9954 8.90253 12.9199 8.91596 12.9088C8.90477 12.8977 8.80398 12.7999 8.80398 12.7999L8.93388 12.6754H8.76367L8.67857 12.7554L8.59346 12.6754H8.42773L8.55763 12.7999C8.55763 12.7999 8.45685 12.8954 8.44565 12.9088C8.45237 12.9199 8.53299 12.9954 8.54195 13.0043Z" fill="#00843D"/>
<path d="M8.16927 13.0043C8.15807 12.9932 8.0349 12.8754 8.0349 12.8754C8.0349 12.8754 7.91396 12.991 7.90052 13.0043C7.88932 12.9954 7.8087 12.9199 7.79526 12.9088C7.80646 12.8977 7.90724 12.7999 7.90724 12.7999L7.77734 12.6754H7.94307L8.02818 12.7554L8.11328 12.6754H8.27901L8.14911 12.7999C8.14911 12.7999 8.2499 12.8954 8.26109 12.9088C8.26333 12.9199 8.18047 12.9954 8.16927 13.0043Z" fill="#00843D"/>
<path d="M6.96346 12.3066V12.6754H10.3878V12.3066H10.8962V10.0621H10.3878V9.69322H6.96346V10.0621H6.45508V12.3066H6.96346Z" fill="#383739"/>
<path d="M6.97909 9.71118V10.0801H6.4707V12.2912H6.97909V12.6601H10.3721V12.2912H10.8804V10.0801H10.3721V9.71118H6.97909ZM7.19633 9.85118H10.1481V10.209L10.269 10.2978H10.7349V12.0734H10.2735L10.1526 12.1623V12.5223H7.20081V12.1645L7.07987 12.0756H6.61628V10.3001H7.07763L7.20305 10.2112L7.19633 9.85118Z" fill="#FFC72C"/>
<path d="M7.21677 9.87103V10.1999L7.66021 9.87103H7.21677ZM9.68927 9.87103L10.1327 10.1999V9.87103H9.68927ZM6.63672 10.3155V10.6199L7.05776 10.3155H6.63672ZM10.2962 10.3155L10.7172 10.6244V10.3155H10.2962ZM10.7195 11.7466L10.2984 12.0555H10.7195V11.7466ZM6.63672 11.751V12.0599H7.05776L6.63672 11.751ZM7.21677 12.1755V12.4999H7.66021L7.21677 12.1755ZM10.1349 12.1755L9.69151 12.4999H10.1349V12.1755Z" fill="#D22630"/>
<path d="M9.66073 9.87103C9.66521 9.87548 10.7111 10.6399 10.7178 10.6444V11.7266C10.7089 11.731 9.66297 12.4999 9.66073 12.4999H7.6899C7.68542 12.4955 6.63953 11.731 6.63281 11.7266V10.6444C6.64177 10.6399 7.68766 9.87103 7.6899 9.87103H9.66073Z" fill="#00843D"/>
<path d="M6.88656 11.8511L6.76562 11.7111L6.8776 11.5777L6.76562 11.4444L6.8776 11.3111L6.76562 11.1777L6.8776 11.0444L6.76562 10.9111L6.8776 10.7777L6.76562 10.6444L6.88656 10.5044H10.4699L10.5908 10.6444L10.4789 10.7777L10.5908 10.9111L10.4789 11.0444L10.5908 11.1777L10.4789 11.3111L10.5908 11.4444L10.4789 11.5777L10.5908 11.7111L10.4699 11.8511H6.88656ZM9.34563 10.04L9.20453 9.91995L9.07016 10.0311L8.93578 9.91995L8.80141 10.0311L8.66703 9.91995L8.53266 10.0311L8.39828 9.91995L8.26391 10.0311L8.12953 9.91995L7.98844 10.04V12.3333L8.12953 12.4533L8.26391 12.3422L8.39828 12.4533L8.53266 12.3422L8.66703 12.4533L8.80141 12.3422L8.93578 12.4533L9.07016 12.3422L9.20453 12.4533L9.34563 12.3333V10.04Z" fill="#383739"/>
<path d="M9.06333 10.0465L8.93792 9.94205L8.8125 10.0465V12.322L8.93792 12.4265L9.06333 12.322V10.0465Z" fill="#FFC72C"/>
<path d="M8.53208 10.0465L8.40667 9.94205L8.28125 10.0465V12.322L8.40667 12.4265L8.53208 12.322V10.0465Z" fill="#FFC72C"/>
<path d="M6.89432 11.8333L6.78906 11.7089L6.89432 11.5844H10.4597L10.565 11.7089L10.4597 11.8333H6.89432Z" fill="#FFC72C"/>
<path d="M10.4561 11.0599L10.5614 11.1843L10.4561 11.3087H6.88846L6.7832 11.1843L6.88846 11.0599H10.4561Z" fill="#FFC72C"/>
<path d="M10.4561 10.7844L10.5614 10.66L10.4561 10.5355H6.88846L6.7832 10.66L6.88846 10.7844H10.4561Z" fill="#FFC72C"/>
<path d="M9.32896 10.0465L9.20354 9.94205L9.07812 10.0465V12.322L9.20354 12.4265L9.32896 12.322V10.0465Z" fill="#D22630"/>
<path d="M8.26646 10.0465L8.14104 9.94205L8.01562 10.0465V12.322L8.14104 12.4265L8.26646 12.322V10.0465Z" fill="#D22630"/>
<path d="M6.89432 11.5688L6.78906 11.4444L6.89432 11.3199H10.4597L10.565 11.4444L10.4597 11.5688H6.89432Z" fill="#D22630"/>
<path d="M6.89432 11.0445L6.78906 10.92L6.89432 10.7956H10.4597L10.565 10.92L10.4597 11.0445H6.89432Z" fill="#D22630"/>
<path d="M8.79966 12.322L8.67425 12.4265L8.54883 12.322V10.0465L8.67425 9.94205L8.79966 10.0465V12.322Z" fill="#D22630"/>
<path d="M9.87005 10.0912H7.46698V10.2801H7.16016V12.0912H7.46698V12.2801H9.87901V12.0912H10.1858V10.2801H9.87901V10.0912H9.87005Z" fill="#383739"/>
<path d="M7.48651 10.1068V10.2957H7.17969V12.0712H7.48651V12.2601H7.74182L7.24016 11.8423V10.5268L7.74182 10.109L7.48651 10.1068ZM9.61188 10.1068L10.1135 10.5246V11.8423L9.61188 12.2601H9.86271V12.0712H10.1695V10.2957H9.86271V10.1068H9.61188Z" fill="#D22630"/>
<path d="M7.76677 10.1068C7.76229 10.1112 7.25839 10.5268 7.25391 10.5312V11.8334C7.26286 11.8379 7.76229 12.2534 7.76677 12.2579H9.58531C9.58979 12.2534 10.0892 11.8379 10.0982 11.8334V10.5312C10.0892 10.5268 9.59427 10.1112 9.58531 10.1068H7.76677ZM7.79365 10.1801H9.55396L10.0176 10.569V11.8023L9.55396 12.1868H7.79365L7.33005 11.8023V10.569L7.79365 10.1801Z" fill="#00843D"/>
<path d="M8.25948 11.8221L8.3401 11.8532L8.35578 11.9443L8.255 12.0332L8.40057 12.1732H8.26396L8.16318 12.0777L8.0624 12.1732H7.92578L8.07135 12.0332L7.97057 11.9443L7.98625 11.8532L8.06687 11.8221L8.16766 11.9021L8.17214 11.8977L8.25948 11.8221Z" fill="#00843D"/>
<path d="M8.77706 11.8221L8.85768 11.8532L8.87336 11.9443L8.77258 12.0332L8.91815 12.1732H8.78154L8.68075 12.0777L8.57997 12.1732H8.44336L8.58893 12.0332L8.48815 11.9443L8.50383 11.8532L8.58445 11.8221L8.68523 11.9021L8.68971 11.8977L8.77706 11.8221Z" fill="#00843D"/>
<path d="M9.09031 11.8221L9.00969 11.8532L8.99401 11.9443L9.09479 12.0332L8.94922 12.1732H9.08583L9.18662 12.0777L9.2874 12.1732H9.42401L9.27844 12.0332L9.37922 11.9443L9.36354 11.8532L9.28292 11.8221L9.18214 11.9021L9.17766 11.8977L9.09031 11.8221Z" fill="#00843D"/>
<path d="M8.25948 10.5489L8.3401 10.5178L8.35578 10.4267L8.255 10.3378L8.40057 10.1978H8.26396L8.16318 10.2933L8.0624 10.1978H7.92578L8.07135 10.3378L7.97057 10.4267L7.98625 10.5178L8.06687 10.5489L8.16766 10.4689L8.17214 10.4733L8.25948 10.5489Z" fill="#00843D"/>
<path d="M8.77706 10.5489L8.85768 10.5178L8.87336 10.4267L8.77258 10.3378L8.91815 10.1978H8.78154L8.68075 10.2933L8.57997 10.1978H8.44336L8.58893 10.3378L8.48815 10.4267L8.50383 10.5178L8.58445 10.5489L8.68523 10.4689L8.68971 10.4733L8.77706 10.5489Z" fill="#00843D"/>
<path d="M9.09031 10.5489L9.00969 10.5178L8.99401 10.4267L9.09479 10.3378L8.94922 10.1978H9.08583L9.18662 10.2933L9.2874 10.1978H9.42401L9.27844 10.3378L9.37922 10.4267L9.36354 10.5178L9.28292 10.5489L9.18214 10.4689L9.17766 10.4733L9.09031 10.5489Z" fill="#00843D"/>
<path d="M10.0056 10.6957L9.92943 10.7601L10.0056 10.8246V10.9334L9.88464 10.8334C9.88464 10.8334 9.80401 10.9046 9.79505 10.9134C9.78609 10.9134 9.70995 10.9023 9.70323 10.9023C9.69875 10.8934 9.67411 10.8512 9.67188 10.8423C9.68083 10.8334 9.7525 10.7623 9.7525 10.7623C9.7525 10.7623 9.68083 10.6912 9.67188 10.6823C9.67635 10.6734 9.70099 10.6312 9.70323 10.6223C9.71219 10.6223 9.78833 10.6112 9.79505 10.6112C9.79953 10.6157 9.88464 10.6912 9.88464 10.6912L10.0056 10.5912V10.6957Z" fill="#00843D"/>
<path d="M10.0056 11.1201L9.92943 11.1845L10.0056 11.2489V11.3578L9.88464 11.2578C9.88464 11.2578 9.80401 11.3289 9.79505 11.3334C9.78609 11.3334 9.70995 11.3223 9.70323 11.3223C9.69875 11.3134 9.67411 11.2712 9.67188 11.2623C9.68083 11.2534 9.7525 11.1823 9.7525 11.1823C9.7525 11.1823 9.68083 11.1112 9.67188 11.1023C9.67635 11.0934 9.70099 11.0512 9.70323 11.0423C9.71219 11.0423 9.78833 11.0312 9.79505 11.0312C9.79953 11.0356 9.88464 11.1112 9.88464 11.1112L10.0056 11.0112V11.1201Z" fill="#00843D"/>
<path d="M10.0056 11.6733L9.92943 11.6088L10.0056 11.5444V11.4355L9.88464 11.5355C9.88464 11.5355 9.80401 11.4644 9.79505 11.4555C9.78609 11.4555 9.70995 11.4666 9.70323 11.4666C9.69875 11.4755 9.67411 11.5177 9.67188 11.5266C9.68083 11.5355 9.7525 11.6066 9.7525 11.6066C9.7525 11.6066 9.68083 11.6777 9.67188 11.6866C9.67635 11.6955 9.70099 11.7377 9.70323 11.7466C9.71219 11.7466 9.78833 11.7577 9.79505 11.7577C9.79953 11.7533 9.88464 11.6822 9.88464 11.6822L10.0056 11.7822V11.6733Z" fill="#00843D"/>
<path d="M7.3457 10.6957L7.42185 10.7601L7.3457 10.8246V10.9334L7.46664 10.8334C7.46664 10.8334 7.54727 10.9046 7.55622 10.9134C7.56518 10.9134 7.64133 10.9023 7.64805 10.9023C7.65253 10.8934 7.67716 10.8512 7.6794 10.8423C7.67044 10.8334 7.59878 10.7623 7.59878 10.7623C7.59878 10.7623 7.67044 10.6912 7.6794 10.6823C7.67492 10.6734 7.65029 10.6312 7.64805 10.6223C7.63909 10.6223 7.56294 10.6112 7.55622 10.6112C7.55174 10.6157 7.46664 10.6912 7.46664 10.6912L7.3457 10.5912V10.6957Z" fill="#00843D"/>
<path d="M7.3457 11.1201L7.42185 11.1845L7.3457 11.2489V11.3578L7.46664 11.2578C7.46664 11.2578 7.54727 11.3289 7.55622 11.3334C7.56518 11.3334 7.64133 11.3223 7.64805 11.3223C7.65253 11.3134 7.67716 11.2712 7.6794 11.2623C7.67044 11.2534 7.59878 11.1823 7.59878 11.1823C7.59878 11.1823 7.67044 11.1112 7.6794 11.1023C7.67492 11.0934 7.65029 11.0512 7.64805 11.0423C7.63909 11.0423 7.56294 11.0312 7.55622 11.0312C7.55174 11.0356 7.46664 11.1112 7.46664 11.1112L7.3457 11.0112V11.1201Z" fill="#00843D"/>
<path d="M7.3457 11.6733L7.42185 11.6088L7.3457 11.5444V11.4355L7.46664 11.5355C7.46664 11.5355 7.54727 11.4644 7.55622 11.4555C7.56518 11.4555 7.64133 11.4666 7.64805 11.4666C7.65253 11.4755 7.67716 11.5177 7.6794 11.5266C7.67044 11.5355 7.59878 11.6066 7.59878 11.6066C7.59878 11.6066 7.67044 11.6777 7.6794 11.6866C7.67492 11.6955 7.65029 11.7377 7.64805 11.7466C7.63909 11.7466 7.56294 11.7577 7.55622 11.7577C7.55174 11.7533 7.46664 11.6822 7.46664 11.6822L7.3457 11.7822V11.6733Z" fill="#00843D"/>
<path d="M7.79867 10.2C7.79419 10.2044 7.37091 10.5578 7.35076 10.5733C7.38659 10.6044 7.4269 10.6378 7.46273 10.6689C7.47169 10.66 7.54784 10.5933 7.54784 10.5933L7.65758 10.6089L7.70237 10.6889C7.70237 10.6889 7.63742 10.7533 7.62622 10.7644C7.63742 10.7755 7.70237 10.84 7.70237 10.84L7.65758 10.92L7.54784 10.9311C7.54784 10.9311 7.47617 10.8667 7.46273 10.86L7.3418 10.96V10.9911C7.38211 11.0222 7.42242 11.06 7.46273 11.0911C7.47169 11.0822 7.54784 11.02 7.54784 11.02L7.65758 11.0311L7.70237 11.1111C7.70237 11.1111 7.63742 11.1755 7.62622 11.1867C7.63742 11.1978 7.70237 11.2622 7.70237 11.2622L7.65758 11.3422L7.54784 11.3533C7.54784 11.3533 7.47617 11.2889 7.46273 11.2778L7.3418 11.3778V11.4133L7.46273 11.5133C7.47169 11.5044 7.54784 11.4378 7.54784 11.4378L7.65758 11.4533L7.70237 11.5333C7.70237 11.5333 7.63742 11.5978 7.62622 11.6089C7.63742 11.62 7.70237 11.6844 7.70237 11.6844L7.65758 11.7644L7.54784 11.78C7.54784 11.78 7.47617 11.7155 7.46273 11.7044C7.4269 11.7355 7.38659 11.7689 7.35076 11.7955C7.37091 11.8111 7.79419 12.1644 7.79867 12.1689H7.89497L8.03607 12.0333L7.94424 11.9533L7.95992 11.8422L8.05622 11.8022L8.15253 11.8778L8.24883 11.8022L8.34513 11.8422L8.36529 11.9533L8.27346 12.0333L8.41008 12.1667L8.54669 12.0333L8.45487 11.9533L8.47055 11.8422L8.56685 11.8022L8.66315 11.8778L8.75945 11.8022L8.85576 11.8422L8.87143 11.9533L8.77961 12.0333L8.91622 12.1667L9.05284 12.0333L8.96101 11.9533L8.97669 11.8422L9.07299 11.8022L9.1693 11.8778L9.2656 11.8022L9.3619 11.8422L9.37758 11.9533L9.28575 12.0333L9.42685 12.1689H9.52315C9.52763 12.1644 9.95091 11.8111 9.97107 11.7955C9.93523 11.7644 9.89492 11.7311 9.85909 11.7044C9.85013 11.7133 9.77846 11.78 9.77846 11.78L9.66872 11.7644L9.62393 11.6844C9.62393 11.6844 9.68888 11.62 9.70008 11.6089C9.68888 11.5978 9.62393 11.5333 9.62393 11.5333L9.66872 11.4533L9.77846 11.4378C9.77846 11.4378 9.85013 11.5022 9.85909 11.5133L9.98003 11.4133V11.3778L9.85909 11.2778C9.85013 11.2867 9.77846 11.3533 9.77846 11.3533L9.66872 11.3422L9.62393 11.2622C9.62393 11.2622 9.68888 11.1978 9.70008 11.1867C9.68888 11.1755 9.62393 11.1111 9.62393 11.1111L9.66872 11.0311L9.77846 11.02C9.77846 11.02 9.85013 11.0844 9.85909 11.0911C9.8994 11.06 9.93971 11.0267 9.98003 10.9955V10.9555L9.85909 10.86C9.85013 10.8689 9.77846 10.9311 9.77846 10.9311L9.66872 10.92L9.62393 10.84C9.62393 10.84 9.68888 10.7755 9.70008 10.7644C9.68888 10.7533 9.62393 10.6889 9.62393 10.6889L9.66872 10.6089L9.77846 10.5933C9.77846 10.5933 9.85013 10.6578 9.85909 10.6689C9.89492 10.6378 9.93523 10.6089 9.97555 10.5778C9.95987 10.5667 9.53211 10.2089 9.52763 10.2044H9.43133L9.29023 10.34L9.38206 10.42L9.36638 10.5311L9.27008 10.5756L9.17378 10.5L9.07747 10.5756L8.98117 10.5311L8.96549 10.42L9.05732 10.34L8.9207 10.2067L8.78409 10.34L8.87591 10.42L8.86023 10.5311L8.76393 10.5756L8.66763 10.5L8.57133 10.5756L8.47503 10.5311L8.45935 10.42L8.55117 10.34L8.41456 10.2067L8.27794 10.34L8.36977 10.42L8.34961 10.5289L8.25331 10.5733L8.157 10.4978L8.0607 10.5733L7.9644 10.5289L7.94872 10.4178L8.04055 10.3378L7.89497 10.2022L7.79867 10.2ZM7.34628 11.14V11.2289L7.39779 11.1844L7.34628 11.14Z" fill="#D22630"/>
<path d="M8.16208 12.1022L8.08594 12.1711H8.23599L8.16208 12.1022Z" fill="white"/>
<path d="M8.67323 12.1022L8.60156 12.1711H8.75161L8.67323 12.1022Z" fill="white"/>
<path d="M9.18943 12.1022L9.11328 12.1711H9.26333L9.18943 12.1022Z" fill="white"/>
<path d="M8.08594 10.2L8.16208 10.2711L8.23823 10.2H8.08594Z" fill="white"/>
<path d="M8.59766 10.2L8.6738 10.2711L8.74995 10.2H8.59766Z" fill="white"/>
<path d="M9.11523 10.2L9.19138 10.2711L9.26753 10.2H9.11523Z" fill="white"/>
<path d="M10.005 10.7156L9.95312 10.76L10.005 10.8V10.7156Z" fill="white"/>
<path d="M10.005 11.1401L9.95312 11.1846L10.005 11.229V11.1401Z" fill="white"/>
<path d="M10.005 11.5688L9.95312 11.6133L10.005 11.6577V11.5688Z" fill="white"/>
<path d="M7.3457 10.7156V10.8045L7.39754 10.76L7.3457 10.7156Z" fill="white"/>
<path d="M7.3457 11.1401V11.229L7.39754 11.1846L7.3457 11.1401Z" fill="white"/>
<path d="M7.3457 11.5666V11.6555L7.39754 11.6111L7.3457 11.5666Z" fill="white"/>
<path d="M9.11607 11.0443V10.891H8.96154V10.7221H8.39268V10.891H8.23815V11.0443H8.02539V11.3288H8.24039V11.4821H8.39492V11.651H8.96378V11.4821H9.11831V11.3288H9.33331V11.0443H9.11607Z" fill="#383739"/>
<path d="M8.66643 10.7401V10.9135L8.42008 11.0535V11.1779H8.03711V11.0624H8.25211V10.909H8.40664V10.7401H8.66643Z" fill="#FFC72C"/>
<path d="M8.68164 11.629V11.4557L8.92799 11.3157V11.1912H9.31096V11.3068H9.0982V11.4601H8.94367V11.629H8.68164Z" fill="#FFC72C"/>
<path d="M8.92799 11.1779V11.0535L8.68164 10.9135V10.7401H8.94143V10.909H9.09596V11.0624H9.31096V11.1779H8.92799Z" fill="white"/>
<path d="M8.03711 11.1932H8.42008V11.3177L8.66643 11.4577V11.631H8.40888V11.4621H8.25435V11.3088H8.03935L8.03711 11.1932Z" fill="white"/>
<path d="M8.4375 11.1932V11.3088L8.6637 11.4377V11.1932H8.4375Z" fill="#D22630"/>
<path d="M8.6676 10.9334L8.44141 11.0623V11.1778H8.6676V10.9334Z" fill="#00843D"/>
<path d="M8.9137 11.1778V11.0623L8.6875 10.9334V11.1778H8.9137Z" fill="#D22630"/>
<path d="M8.68164 11.4377L8.90784 11.3088V11.1932H8.68164V11.4377Z" fill="#00843D"/>
<path d="M6.60068 14.2022V14.6711H6.14828V15.0956H5.69141V16.3111H6.14828V16.74H6.60068V17.2089H8.24005L8.52672 17.3822L8.39234 17.4622H7.80781L7.75854 17.4067H8.28708L8.13703 17.2578H7.37781L7.72047 17.6156H8.43042L8.67229 17.4711L8.91417 17.6156H9.62412L9.96677 17.2578H9.21203L9.06198 17.4067H9.59276L9.54349 17.4622H8.95896L8.82234 17.3778L9.10901 17.2045H10.7484V16.74H11.2008V16.3156H11.6577V15.1022H11.2008V14.6778H10.7484V14.2089H9.10901L8.82234 14.0356L8.95896 13.9511H9.54349L9.59276 14.0067H9.06422L9.21427 14.1556H9.97349L9.63083 13.7978H8.92089L8.67901 13.9422L8.43714 13.7978H7.72719L7.38005 14.1556H8.13927L8.28932 14.0067H7.76078L7.81005 13.9511H8.39458L8.5312 14.0356L8.24453 14.2089H6.60068V14.2022Z" fill="#D22630"/>
<path d="M9.10362 17.1889H10.7318V16.72H11.1797V16.2956H11.6366V15.1178H11.1797V14.6934H10.7318V14.2222H9.10362L8.42727 13.8178H7.72852L7.41945 14.1378H8.1294L8.24586 14.0222H7.71732L7.79794 13.9311H8.39591L9.16409 14.3889H10.5616V14.8578H11.014V15.2822H11.4709V16.1245H11.014V16.5489H10.5616V17.0222H9.16409L8.39591 17.48H7.79794L7.71732 17.3911H8.24586L8.1294 17.2756H7.41945L7.73076 17.5956H8.42727L9.10362 17.1889ZM8.18539 17.02H6.78789V16.5511H6.33997V16.1267H5.8831V15.2845H6.33997V14.86H6.78789V14.3911H8.18539L8.95357 13.9334H9.55154L9.63216 14.0245H9.1081L9.22456 14.14H9.9345L9.6232 13.8222H8.92445L8.25034 14.2267H6.62216V14.6956H6.16977V15.12H5.71289V16.2978H6.16977V16.7222H6.62216V17.1911H8.25034L8.92445 17.5956H9.6232L9.9345 17.2756H9.22456L9.1081 17.3911H9.63216L9.55154 17.48H8.95357L8.18539 17.02Z" fill="#FFC72C"/>
<path d="M10.4228 16.4199V16.8888H9.12164L8.67372 17.1555L8.22581 16.8888H6.92685V16.4199H6.47445V15.9955H6.01758V15.4266H6.47445V14.9999H6.92685V14.531H8.22357H8.22805L8.67596 14.2555L9.12388 14.5244H10.4251V14.9932H10.8775V15.4177H11.3344V15.9866H10.8775V16.4199H10.4228Z" fill="#00843D"/>
<path d="M7.0957 16.251V16.7044H7.81013L7.0957 16.2355V16.251Z" fill="#383739"/>
<path d="M7.0957 15.1601V14.7068H7.81013L7.0957 15.1779V15.1601Z" fill="#383739"/>
<path d="M10.2554 16.251V16.7044H9.54102L10.2554 16.2355V16.251Z" fill="#383739"/>
<path d="M10.2554 15.1601V14.7068H9.54102L10.2554 15.1757V15.1601Z" fill="#383739"/>
<path d="M7.11328 16.2666L7.75156 16.6866H7.11328V16.2666Z" fill="#D22630"/>
<path d="M7.11328 15.1446C7.13792 15.129 7.71125 14.7512 7.75156 14.7246H7.11328V15.1446Z" fill="#D22630"/>
<path d="M10.2379 16.2666C10.2133 16.2822 9.63992 16.66 9.59961 16.6866H10.2379V16.2666Z" fill="#D22630"/>
<path d="M10.2379 15.1446C10.2133 15.129 9.63992 14.7512 9.59961 14.7246H10.2379V15.1446Z" fill="#D22630"/>
<path d="M8.00536 15.5823V15.349H7.92474L7.54177 15.1134L7.53729 15.1178L7.15656 15.3534H7.07594V15.5867H6.89453V15.8356H7.07594V16.0667H7.15656L7.53953 16.3023L7.9225 16.0667H8.00312V15.8334H8.27859V15.5845L8.00536 15.5823Z" fill="#383739"/>
<path d="M7.54526 15.1334L7.89688 15.3489H7.19589L7.54526 15.1334ZM7.89464 16.0623L7.54302 16.2778L7.19141 16.0623H7.89464Z" fill="#D22630"/>
<path d="M7.81172 15.5978V15.8133H7.375V15.5978H7.81172Z" fill="#D22630"/>
<path d="M7.98945 15.829V16.0445H7.55273V15.829H7.98945Z" fill="#FFC72C"/>
<path d="M7.53633 15.829V16.0445H7.09961V15.829H7.53633Z" fill="#FFC72C"/>
<path d="M8.26484 15.5978V15.8133H7.82812V15.5978H8.26484Z" fill="#FFC72C"/>
<path d="M7.35469 15.5978V15.8133H6.91797V15.5978H7.35469Z" fill="#FFC72C"/>
<path d="M7.98945 15.3645V15.5801H7.55273V15.3645H7.98945Z" fill="#FFC72C"/>
<path d="M7.53633 15.3645V15.5801H7.09961V15.3645H7.53633Z" fill="#FFC72C"/>
<path d="M7.23419 15.6467V15.7667H7.03711V15.6467H7.23419Z" fill="#383739"/>
<path d="M7.41583 15.4134V15.5334H7.21875V15.4134H7.41583Z" fill="#383739"/>
<path d="M7.867 15.4134V15.5334H7.66992V15.4134H7.867Z" fill="#383739"/>
<path d="M7.68927 15.6467V15.7667H7.49219V15.6467H7.68927Z" fill="#383739"/>
<path d="M8.14016 15.6467V15.7667H7.94531V15.6467H8.14016Z" fill="#383739"/>
<path d="M7.867 15.8779V15.9979H7.66992V15.8779H7.867Z" fill="#383739"/>
<path d="M7.41583 15.8779V15.9979H7.21875V15.8779H7.41583Z" fill="#383739"/>
<path d="M7.21536 15.6666H7.05859V15.7511H7.21536V15.6666Z" fill="white"/>
<path d="M7.39505 15.4334H7.23828V15.5178H7.39505V15.4334Z" fill="white"/>
<path d="M7.85208 15.4334H7.69531V15.5178H7.85208V15.4334Z" fill="white"/>
<path d="M7.66849 15.6666H7.51172V15.7511H7.66849V15.6666Z" fill="white"/>
<path d="M8.12552 15.6666H7.96875V15.7511H8.12552V15.6666Z" fill="white"/>
<path d="M7.85208 15.8978H7.69531V15.9822H7.85208V15.8978Z" fill="white"/>
<path d="M7.39505 15.8978H7.23828V15.9822H7.39505V15.8978Z" fill="white"/>
<path d="M9.34607 15.5823V15.349H9.42669L9.80966 15.1134L9.81414 15.1178L10.1949 15.3534H10.2755V15.5867H10.4569V15.8356H10.2755V16.0667H10.1949L9.80742 16.3001L9.42445 16.0645H9.34383V15.8312H9.06836V15.5823H9.34607Z" fill="#383739"/>
<path d="M9.80474 15.1334L9.45312 15.3489H10.1519L9.80474 15.1334ZM9.45536 16.0623L9.80698 16.2778L10.1586 16.0623H9.45536Z" fill="#D22630"/>
<path d="M9.53711 15.5978V15.8133H9.97383V15.5978H9.53711Z" fill="#D22630"/>
<path d="M9.36133 15.829V16.0445H9.79805V15.829H9.36133Z" fill="#FFC72C"/>
<path d="M9.81445 15.829V16.0445H10.2512V15.829H9.81445Z" fill="#FFC72C"/>
<path d="M9.08594 15.5978V15.8133H9.52266V15.5978H9.08594Z" fill="#FFC72C"/>
<path d="M9.99609 15.5978V15.8133H10.4328V15.5978H9.99609Z" fill="#FFC72C"/>
<path d="M9.36133 15.3645V15.5801H9.79805V15.3645H9.36133Z" fill="#FFC72C"/>
<path d="M9.81445 15.3645V15.5801H10.2512V15.3645H9.81445Z" fill="#FFC72C"/>
<path d="M10.1113 15.6467V15.7667H10.3084V15.6467H10.1113Z" fill="#383739"/>
<path d="M9.93555 15.4134V15.5334H10.1326V15.4134H9.93555Z" fill="#383739"/>
<path d="M9.48242 15.4134V15.5334H9.6795V15.4134H9.48242Z" fill="#383739"/>
<path d="M9.66211 15.6467V15.7667H9.85919V15.6467H9.66211Z" fill="#383739"/>
<path d="M9.20898 15.6467V15.7667H9.40607V15.6467H9.20898Z" fill="#383739"/>
<path d="M9.48242 15.8779V15.9979H9.6795V15.8779H9.48242Z" fill="#383739"/>
<path d="M9.93555 15.8779V15.9979H10.1326V15.8779H9.93555Z" fill="#383739"/>
<path d="M10.1348 15.6666H10.2915V15.7511H10.1348V15.6666Z" fill="white"/>
<path d="M9.94922 15.4334H10.106V15.5178H9.94922V15.4334Z" fill="white"/>
<path d="M9.49805 15.4334H9.65482V15.5178H9.49805V15.4334Z" fill="white"/>
<path d="M9.68164 15.6666H9.83841V15.7511H9.68164V15.6666Z" fill="white"/>
<path d="M9.22461 15.6666H9.38138V15.7511H9.22461V15.6666Z" fill="white"/>
<path d="M9.49805 15.8978H9.65482V15.9822H9.49805V15.8978Z" fill="white"/>
<path d="M9.94922 15.8978H10.106V15.9822H9.94922V15.8978Z" fill="white"/>
<path d="M9.1361 15.1933V15.4266H9.05547L8.6725 15.6622L8.66802 15.6577L8.28729 15.4222H8.20667V15.1888H7.98047V14.9399H8.20667V14.7066H8.28729L8.67026 14.471L9.05323 14.7066H9.13386V14.9399H9.36005V15.1888H9.13386V15.1933H9.1361Z" fill="#383739"/>
<path d="M8.67388 15.6423L9.0255 15.4267H8.32675L8.67388 15.6423ZM9.0255 14.7112L8.67388 14.4956L8.32227 14.7112H9.0255Z" fill="#FFC72C"/>
<path d="M9.11836 14.9445V14.729H8.68164V14.9445H9.11836Z" fill="#D22630"/>
<path d="M8.66719 14.9445V14.729H8.23047V14.9445H8.66719Z" fill="#D22630"/>
<path d="M9.34492 15.1779V14.9623H8.9082V15.1779H9.34492Z" fill="#D22630"/>
<path d="M8.89375 15.1779V14.9623H8.45703V15.1779H8.89375Z" fill="#D22630"/>
<path d="M8.44063 15.1779V14.9623H8.00391V15.1779H8.44063Z" fill="#D22630"/>
<path d="M9.11836 15.4088V15.1932H8.68164V15.4088H9.11836Z" fill="#D22630"/>
<path d="M8.66719 15.4088V15.1932H8.23047V15.4088H8.66719Z" fill="#D22630"/>
<path d="M8.54641 14.7754V14.8954H8.35156V14.7754H8.54641Z" fill="#383739"/>
<path d="M8.99786 14.7754V14.8954H8.80078V14.7754H8.99786Z" fill="#383739"/>
<path d="M8.32013 15.0088V15.1288H8.12305V15.0088H8.32013Z" fill="#383739"/>
<path d="M8.7713 15.0088V15.1288H8.57422V15.0088H8.7713Z" fill="#383739"/>
<path d="M9.23029 15.0088V15.1288H9.0332V15.0088H9.23029Z" fill="#383739"/>
<path d="M8.54641 15.2401V15.3601H8.35156V15.2401H8.54641Z" fill="#383739"/>
<path d="M8.99786 15.2401V15.3601H8.80078V15.2401H8.99786Z" fill="#383739"/>
<path d="M8.52982 14.7956H8.37305V14.88H8.52982V14.7956Z" fill="white"/>
<path d="M8.98294 14.7956H8.82617V14.88H8.98294V14.7956Z" fill="white"/>
<path d="M8.3013 15.029H8.14453V15.1134H8.3013V15.029Z" fill="white"/>
<path d="M8.75695 15.029H8.5957V15.1134H8.75247V15.029H8.75695Z" fill="white"/>
<path d="M9.20951 15.029H9.05273V15.1134H9.20951V15.029Z" fill="white"/>
<path d="M8.52982 15.2599H8.37305V15.3443H8.52982V15.2599Z" fill="white"/>
<path d="M8.98294 15.2599H8.82617V15.3443H8.98294V15.2599Z" fill="white"/>
<path d="M9.1361 16.4667V16.7H9.05547L8.6725 16.9356L8.66802 16.9312L8.28729 16.6956H8.20667V16.4623H7.98047V16.2178H8.20667V15.9845H8.28729L8.67026 15.7489L9.05323 15.9845H9.13386V16.2178H9.36005V16.4667H9.1361Z" fill="#383739"/>
<path d="M8.67388 16.9155L9.0255 16.6999H8.32675L8.67388 16.9155ZM9.0255 15.9866L8.67388 15.771L8.32227 15.9866H9.0255Z" fill="#FFC72C"/>
<path d="M9.11836 16.2178V16.0022H8.68164V16.2178H9.11836Z" fill="#D22630"/>
<path d="M8.66719 16.2178V16.0022H8.23047V16.2178H8.66719Z" fill="#D22630"/>
<path d="M9.34492 16.451V16.2355H8.9082V16.451H9.34492Z" fill="#D22630"/>
<path d="M8.89375 16.451V16.2355H8.45703V16.451H8.89375Z" fill="#D22630"/>
<path d="M8.44063 16.451V16.2355H8.00391V16.451H8.44063Z" fill="#D22630"/>
<path d="M9.11836 16.6844V16.4666H8.68164V16.6822H9.11836V16.6844Z" fill="#D22630"/>
<path d="M8.66719 16.6844V16.4666H8.23047V16.6822H8.66719V16.6844Z" fill="#D22630"/>
<path d="M8.54641 16.0511V16.1711H8.35156V16.0511H8.54641Z" fill="#383739"/>
<path d="M8.99786 16.0511V16.1711H8.80078V16.0511H8.99786Z" fill="#383739"/>
<path d="M8.32013 16.2822V16.4022H8.12305V16.2822H8.32013Z" fill="#383739"/>
<path d="M8.7713 16.2822V16.4022H8.57422V16.2822H8.7713Z" fill="#383739"/>
<path d="M9.23029 16.2822V16.4022H9.0332V16.2822H9.23029Z" fill="#383739"/>
<path d="M8.54641 16.5156V16.6356H8.35156V16.5156H8.54641Z" fill="#383739"/>
<path d="M8.99786 16.5156V16.6356H8.80078V16.5156H8.99786Z" fill="#383739"/>
<path d="M8.52982 16.071H8.37305V16.1555H8.52982V16.071Z" fill="white"/>
<path d="M8.98294 16.071H8.82617V16.1555H8.98294V16.071Z" fill="white"/>
<path d="M8.3013 16.3022H8.14453V16.3867H8.3013V16.3022Z" fill="white"/>
<path d="M8.75695 16.3022H8.5957V16.3867H8.75247V16.3022H8.75695Z" fill="white"/>
<path d="M9.20951 16.3022H9.05273V16.3867H9.20951V16.3022Z" fill="white"/>
<path d="M8.52982 16.5355H8.37305V16.6199H8.52982V16.5355Z" fill="white"/>
<path d="M8.98294 16.5355H8.82617V16.6199H8.98294V16.5355Z" fill="white"/>
<path d="M6.19922 19.24L7.89906 18.3334H7.90354H9.45781L11.1577 19.24V20.7356L9.45781 21.64H7.90354L6.2037 20.7334V19.2378H6.19922V19.24Z" fill="#383739"/>
<path d="M7.90292 18.3511L6.21875 19.2533V20.7288L7.90292 21.6311H9.45047L11.1346 20.7288V19.2533L9.45047 18.3511H7.90292ZM7.93203 18.4711H9.41911L11.0137 19.3199V20.6511L9.41911 21.4999H7.93203L6.33745 20.6511V19.3199L7.93203 18.4711Z" fill="#00843D"/>
<path d="M8.68268 19.9777V21.4844H9.41279L10.9962 20.6377V19.9933H8.66701V18.4866H7.93466L6.35352 19.3333V19.9777H8.68268Z" fill="#FFC72C"/>
<path d="M8.66729 19.9777V21.4844H7.93495L6.35156 20.6377V19.9933H8.68297V18.4866H9.41307L10.9965 19.3333V19.9777H8.66729Z" fill="white"/>
<path d="M8.8176 21.3999V20.9621L8.67651 21.051L8.53542 20.9621V21.3999H8.09422L8.39208 21.1843V20.8754L7.93521 20.591H7.61719V19.3843H7.93521L8.39208 19.0999V18.791L8.09422 18.5754H8.12333H8.5399V19.0132L8.68099 18.9243L8.82208 19.0132V18.5754H9.26328L8.96542 18.791V19.0999L9.42229 19.3843H9.74031V20.5865H9.42229L8.96542 20.871V21.1799L9.26328 21.3954H8.81984V21.3999H8.8176Z" fill="#383739"/>
<path d="M8.83771 18.5866V19.0355L8.68318 18.94V19.0689L9.37745 19.5089H9.60812V19.9778H9.71786V19.4H9.41104L8.94745 19.1066V18.7778L9.20948 18.5844L8.83771 18.5866ZM7.63281 19.9933V20.5711H7.93516L8.40547 20.8666V21.1955L8.14344 21.3889H8.51521V20.94L8.66526 21.0355V20.9022L7.97099 20.4644H7.74479V19.9955L7.63281 19.9933Z" fill="#FFC72C"/>
<path d="M8.1412 18.5866L8.40323 18.7799V19.1088L7.93516 19.3999H7.63281V19.9777H7.74255V19.5088H7.96875L8.66302 19.0711V18.9422L8.51297 19.0377V18.5888L8.1412 18.5866ZM9.60812 19.9933V20.4622H9.37745L8.68318 20.8999V21.0333L8.83771 20.9377V21.3866H9.20948L8.94745 21.1933V20.8666L9.41104 20.5711H9.71786V19.9933H9.60812Z" fill="white"/>
<path d="M7.76229 20.4466H7.97729L8.67604 20.8866L9.37479 20.4466H9.58979V19.5288H9.37479H9.37031L8.67156 19.0888L7.97281 19.5288H7.75781L7.76229 20.4466Z" fill="#D22630"/>
<path d="M9.16122 20.2021H9.31128V20.1332H9.1993V20.0043H9.43669V20.3288H9.20602V20.5488H8.73346V20.2332H8.94398V20.3621H8.86336V20.4265H9.0806V20.3065L8.19148 19.7688H8.04143V19.8376H8.15341V19.9665H7.91602V19.6421H8.14669V19.4221H8.15565H8.61924V19.7376H8.40872V19.6088H8.48935V19.5443H8.27211V19.6643L9.16122 20.2021ZM9.0806 19.6688V19.5488H8.86336V19.6132H8.94398V19.7421H8.73346V19.4265H9.20602V19.6465H9.43669V19.971H9.1993V19.8421H9.31128V19.7732H9.16122L8.27211 20.311V20.431H8.48935V20.3665H8.40872V20.2376H8.61924V20.5554H8.14669V20.3354H7.91602V20.011H8.15341V20.1399H8.04143V20.2088H8.19148L9.0806 19.6688Z" fill="#383739"/>
<path d="M9.09622 20.2933V20.4422H8.84091V20.3466H8.92154V20.2555H8.74685V20.5399H9.19029V20.3199H9.42096V20.031H9.21268V20.1222H9.32466V20.2266H9.15445L8.25414 19.6822V19.5333H8.50945V19.6288H8.42883V19.7199H8.60352V19.4355H8.16232V19.6555H7.93164V19.9444H8.13768V19.8533H8.0257V19.7488H8.19591L9.09622 20.2933ZM9.15669 19.7488H9.3269V19.8533H9.21492V19.9444H9.42096V19.6555H9.19029V19.4355H8.74909V19.7199H8.92378V19.6244H8.84315V19.5288H9.09846V19.6777L8.19591 20.2222H8.0257V20.1177H8.13768V20.0266H7.93164V20.3155H8.16232V20.5355H8.60352V20.251H8.42883V20.3422H8.50945V20.4377H8.25414V20.2888L9.15669 19.7488Z" fill="white"/>
<path d="M10.6535 20.0623V20.5357H10.452V20.3668H10.2504V20.5357H10.0488V20.0623H10.2504V20.2312H10.452V20.0623H10.6535Z" fill="#383739"/>
<path d="M9.93086 20.6866V21.1599H9.7293V20.9911H9.52773V21.1599H9.32617V20.6866H9.52773V20.8555H9.7293V20.6866H9.93086Z" fill="#383739"/>
<path d="M10.6535 19.9088V19.4355H10.452V19.6044H10.2504V19.4355H10.0488V19.9088H10.2504V19.7444H10.452V19.9133H10.6535V19.9088Z" fill="#383739"/>
<path d="M6.69727 20.0623V20.5357H6.89883V20.3668H7.10039V20.5357H7.30196V20.0623H7.10039V20.2312H6.89883V20.0623H6.69727Z" fill="#383739"/>
<path d="M6.69727 19.9088V19.4355H6.89883V19.6044H7.10039V19.4355H7.30196V19.9088H7.10039V19.7444H6.89883V19.9133H6.69727V19.9088Z" fill="#383739"/>
<path d="M9.93086 19.2845V18.8112H9.7293V18.9801H9.52773V18.8112H9.32617V19.2845H9.52773V19.1156H9.7293V19.2845H9.93086Z" fill="#383739"/>
<path d="M7.41992 20.6866V21.1599H7.62148V20.9911H7.82305V21.1599H8.02461V20.6866H7.82305V20.8555H7.62148V20.6866H7.41992Z" fill="#383739"/>
<path d="M7.41992 19.2845V18.8112H7.62148V18.9801H7.82305V18.8112H8.02461V19.2845H7.82305V19.1156H7.62148V19.2845H7.41992Z" fill="#383739"/>
<path d="M10.0508 18.9555V19.3132H10.7204L10.0508 18.9555Z" fill="#383739"/>
<path d="M7.29854 21.0157V20.6579H6.62891L7.29854 21.0157Z" fill="#383739"/>
<path d="M7.29854 18.9555V19.3132H6.62891L7.29854 18.9555Z" fill="#383739"/>
<path d="M10.0508 21.0157V20.6579H10.7204L10.0508 21.0157Z" fill="#383739"/>
<path d="M10.4715 20.3511V20.52H10.6372V20.0822H10.4715V20.2511H10.2341V20.0822H10.0684V20.52H10.2341V20.3511H10.4715Z" fill="#D22630"/>
<path d="M9.74883 20.9757V21.1445H9.91456V20.7068H9.74883V20.8757H9.51143V20.7068H9.3457V21.1445H9.51143V20.9757H9.74883Z" fill="#D22630"/>
<path d="M10.4715 19.6222V19.4533H10.6372V19.8888H10.4715V19.7199H10.2341V19.8888H10.0684V19.451H10.2341V19.6199H10.4715V19.6222Z" fill="#D22630"/>
<path d="M6.87862 20.3511V20.52H6.71289V20.0822H6.87862V20.2511H7.11602V20.0822H7.28175V20.52H7.11602V20.3511H6.87862Z" fill="#D22630"/>
<path d="M6.87862 19.6222V19.4533H6.71289V19.8888H6.87862V19.7199H7.11602V19.8888H7.28175V19.451H7.11602V19.6199H6.87862V19.6222Z" fill="#D22630"/>
<path d="M9.74883 18.9956V18.8268H9.91456V19.2645H9.74883V19.0956H9.51143V19.2645H9.3457V18.8268H9.51143V18.9956H9.74883Z" fill="#D22630"/>
<path d="M7.60128 20.9757V21.1445H7.43555V20.7068H7.60128V20.8757H7.83867V20.7068H8.0044V21.1445H7.83867V20.9757H7.60128Z" fill="#D22630"/>
<path d="M7.60128 18.9956V18.8268H7.43555V19.2645H7.60128V19.0956H7.83867V19.2645H8.0044V18.8268H7.83867V18.9956H7.60128Z" fill="#D22630"/>
<path d="M10.0723 18.9844V19.2977H10.6546L10.0723 18.9844ZM6.69727 20.6799L7.2818 20.9933V20.6799H6.69727Z" fill="#FFC72C"/>
<path d="M7.27594 18.9844L6.69141 19.2977H7.27594V18.9844ZM10.0709 20.6799V20.9933L10.6555 20.6799H10.0709Z" fill="white"/>
<path d="M11.4184 21.3C11.387 21.4356 11.2773 21.54 11.2482 21.68C11.1967 21.5312 11.1474 21.4067 11.1832 21.2467C11.2079 21.1312 11.3086 21.0512 11.3176 20.9312C11.4273 21.0289 11.4497 21.1645 11.4184 21.3ZM11.4475 21.8734C11.3579 21.9978 11.2303 22.0889 11.0914 22.1534C11.1205 22.0445 11.0668 21.9645 11.0108 21.8778C10.9414 21.7734 10.91 21.6734 10.966 21.5534C10.9906 21.6134 11.0265 21.6645 11.0668 21.7178C11.1272 21.8023 11.1676 21.8734 11.1765 21.9778C11.2459 21.9267 11.2773 21.8489 11.3131 21.7734C11.3691 21.6645 11.4632 21.5778 11.5684 21.5178C11.5438 21.6445 11.5192 21.7734 11.4475 21.8734ZM10.9369 22.2423C10.957 22.3112 10.9727 22.3778 10.9682 22.4512C11.0287 22.3867 11.1048 22.34 11.1788 22.2867C11.2751 22.2112 11.3893 22.1534 11.4654 22.0534C11.4542 22.1978 11.3938 22.3178 11.2706 22.4067C11.1452 22.4978 10.9929 22.5512 10.8697 22.6467C10.8898 22.5134 10.8383 22.4112 10.798 22.2867C10.7622 22.1712 10.798 22.0534 10.8742 21.9667C10.8764 22.0667 10.91 22.1489 10.9369 22.2423ZM10.6547 22.6867C10.6301 22.7867 10.5584 22.8667 10.5046 22.96C10.639 22.92 10.7555 22.8489 10.8764 22.78C11.022 22.7045 11.1743 22.6512 11.3042 22.5512C11.2392 22.7867 11.078 22.9289 10.8428 22.9956C10.6816 23.0445 10.5472 23.02 10.3546 23.0956C10.3792 22.9623 10.4151 22.8223 10.48 22.7067C10.5293 22.6223 10.5808 22.5378 10.6144 22.4423C10.6592 22.5223 10.6793 22.5978 10.6547 22.6867ZM10.1665 23.0512C10.1217 23.1267 10.0612 23.1956 9.98505 23.2467C10.1754 23.2578 10.3277 23.1378 10.5091 23.1356C10.6211 23.1312 10.7308 23.1667 10.8473 23.1556C10.7107 23.2467 10.5651 23.3289 10.3994 23.3512C10.1821 23.38 9.97833 23.3223 9.74094 23.3467C9.85292 23.2667 9.91115 23.1623 9.97833 23.0512C10.0702 22.9112 10.1553 22.8112 10.3344 22.7867C10.2583 22.86 10.218 22.96 10.1665 23.0512ZM9.49234 23.36C9.82828 23.4156 10.1463 23.4889 10.4867 23.4934C10.106 23.6267 9.74766 23.6489 9.36693 23.5134C9.16089 23.4423 9.00635 23.4023 8.85406 23.4134C8.62786 23.4289 8.3524 23.5178 8.05005 23.8334L7.93359 23.7378C8.36583 23.3556 8.93469 23.2689 9.49234 23.36Z" fill="#FFC72C"/>
</g>
<rect x="1.14219" y="0.15" width="42.7" height="23.7" stroke="#EFEFF8" stroke-width="0.3"/>
<defs>
<clipPath id="clip0_684_42670">
<rect x="0.992188" width="43" height="24" fill="white"/>
</clipPath>
</defs>
</svg>
