<svg width="44" height="24" viewBox="0 0 44 24" fill="none" xmlns="http://www.w3.org/2000/svg">
<g clip-path="url(#clip0_684_44925)">
<path d="M0.992188 0H43.9922V24H0.992188V0Z" fill="#E70013"/>
<path d="M22.4922 18C25.8318 18 28.5391 15.3137 28.5391 12C28.5391 8.68629 25.8318 6 22.4922 6C19.1526 6 16.4453 8.68629 16.4453 12C16.4453 15.3137 19.1526 18 22.4922 18Z" fill="white"/>
<path d="M22.4922 7.5C19.9883 7.5 17.957 9.51556 17.957 12C17.957 14.4844 19.9883 16.5 22.4922 16.5C23.9412 16.4978 25.2984 15.8111 26.1494 14.6511C25.482 15.26 24.6086 15.6 23.7016 15.6C21.6971 15.6 20.0734 13.9889 20.0734 12C20.0734 10.0111 21.6971 8.4 23.7016 8.4C24.6086 8.40222 25.482 8.74222 26.1494 9.35111C25.2984 8.18889 23.9412 7.50222 22.4922 7.5Z" fill="#E70013"/>
<path d="M20.9805 12L25.9031 10.4134L22.8617 14.5689V9.43115L25.9031 13.5867L20.9805 12Z" fill="#E70013"/>
</g>
<rect x="1.14219" y="0.15" width="42.7" height="23.7" stroke="#EFEFF8" stroke-width="0.3"/>
<defs>
<clipPath id="clip0_684_44925">
<rect x="0.992188" width="43" height="24" fill="white"/>
</clipPath>
</defs>
</svg>
