<svg width="44" height="24" viewBox="0 0 44 24" fill="none" xmlns="http://www.w3.org/2000/svg">
<g clip-path="url(#clip0_684_38601)">
<path d="M43.8728 -2.36237H0.447266V26.3643H43.8728V-2.36237Z" fill="#E30A17"/>
<path d="M15.8262 19.1823C19.8238 19.1823 23.0646 15.9667 23.0646 12.0001C23.0646 8.03346 19.8238 4.81787 15.8262 4.81787C11.8286 4.81787 8.58789 8.03346 8.58789 12.0001C8.58789 15.9667 11.8286 19.1823 15.8262 19.1823Z" fill="white"/>
<path d="M17.637 17.7443C20.8343 17.7443 23.4263 15.1725 23.4263 11.9999C23.4263 8.82731 20.8343 6.25543 17.637 6.25543C14.4396 6.25543 11.8477 8.82731 11.8477 11.9999C11.8477 15.1725 14.4396 17.7443 17.637 17.7443Z" fill="#E30A17"/>
<path d="M21.5586 12.0002L28.1049 14.1113L24.058 8.58459V15.4157L28.1049 9.88904L21.5586 12.0002Z" fill="white"/>
</g>
<rect x="0.810156" y="0.15" width="42.7" height="23.7" stroke="#EFEFF8" stroke-width="0.3"/>
<defs>
<clipPath id="clip0_684_38601">
<rect x="0.660156" width="43" height="24" fill="white"/>
</clipPath>
</defs>
</svg>
