<svg width="44" height="24" viewBox="0 0 44 24" fill="none" xmlns="http://www.w3.org/2000/svg">
<g clip-path="url(#clip0_684_44930)">
<path d="M43.3242 0H0.324219V24H43.3242V0Z" fill="black"/>
<path d="M43.3242 4H0.324219V12H43.3242V4Z" fill="#FCDC04"/>
<path d="M43.3242 8H0.324219V12H43.3242V8Z" fill="#D90000"/>
<path d="M43.3242 16H0.324219V24H43.3242V16Z" fill="#FCDC04"/>
<path d="M43.3242 20H0.324219V24H43.3242V20Z" fill="#D90000"/>
<path d="M21.8239 15.7401C23.9056 15.7401 25.5931 14.0656 25.5931 12.0001C25.5931 9.93453 23.9056 8.26007 21.8239 8.26007C19.7422 8.26007 18.0547 9.93453 18.0547 12.0001C18.0547 14.0656 19.7422 15.7401 21.8239 15.7401Z" fill="white"/>
<path d="M21.1585 9.13543L20.9121 8.68654C21.0039 8.59543 21.1652 8.52209 21.4205 8.52209C21.4205 8.53765 21.3959 9.01098 21.3959 9.01098L21.1585 9.13543Z" fill="#D90000"/>
<path d="M21.1488 9.16431L20.8867 8.68875L20.8979 8.67764C21.0099 8.56653 21.1913 8.50653 21.4175 8.50653H21.4377V8.52653C21.4377 8.54209 21.413 8.97098 21.413 9.01764V9.02875L21.1488 9.16431ZM20.9405 8.69098L21.1667 9.10653L21.3772 8.99764C21.3861 8.8332 21.3973 8.60875 21.4018 8.54209C21.198 8.54875 21.0412 8.59542 20.9405 8.69098Z" fill="black"/>
<path d="M21.3965 9.01545L21.4323 8.52434C21.4323 8.52434 21.9407 8.49545 22.2139 8.81989C22.2184 8.81545 21.9429 9.20434 21.9429 9.20434L21.3965 9.01545Z" fill="#FCDC04"/>
<path d="M21.9483 9.2288L21.375 9.03324L21.4108 8.50435H21.4265C21.4467 8.50435 21.9461 8.47546 22.2238 8.8088C22.235 8.81769 22.235 8.81769 22.0917 9.02435L21.9483 9.2288ZM21.4153 9.00435L21.9304 9.17991C22.0222 9.0488 22.1477 8.8688 22.1835 8.82435C21.9461 8.55324 21.5385 8.54435 21.4467 8.54435L21.4153 9.00435Z" fill="black"/>
<path d="M21.9492 9.20024L22.2001 8.8158C22.3658 8.99135 22.4375 9.11135 22.4621 9.30024C22.4666 9.30468 22.0679 9.39579 22.0679 9.39135C22.0657 9.39135 21.9537 9.20468 21.9492 9.20024Z" fill="#D90000"/>
<path d="M22.0568 9.41529L22.0411 9.41085V9.39974C22.0299 9.37529 21.9359 9.21974 21.9292 9.21085L21.918 9.19974L21.9292 9.18862L22.1912 8.78418L22.2069 8.80418C22.3793 8.98418 22.4443 9.10862 22.4734 9.29307L22.4823 9.30196L22.4734 9.31085C22.4644 9.33529 22.0658 9.41529 22.0568 9.41529ZM21.974 9.19974C21.9986 9.23529 22.0546 9.33085 22.0792 9.37085C22.1352 9.35974 22.3771 9.30196 22.442 9.2864C22.4174 9.12196 22.3524 9.0064 22.2046 8.8464L21.974 9.19974Z" fill="black"/>
<path d="M21.2841 15.5244C21.2841 15.5244 21.7521 14.9933 22.6592 15.1089C22.5226 14.8889 22.0791 14.9133 22.0791 14.9133C22.0791 14.9133 21.9425 13.8778 22.05 13.8289C22.1598 13.7778 22.6099 13.8333 22.6099 13.8333C22.6704 13.8333 22.7712 13.6733 22.6905 13.5689C22.6099 13.4644 22.368 13.0778 22.4688 12.9978C22.5651 12.9222 23.1026 13.0422 23.1026 13.0422L21.5864 11.1178C21.5864 11.1178 21.4341 10.3933 21.7387 10.0466C22.1127 9.73776 22.0724 9.40664 22.0612 9.41109C22.0097 9.07553 21.4968 8.83109 21.1452 9.1422C20.9392 9.39109 21.0758 9.57776 21.0758 9.57776C21.0758 9.57776 20.5361 9.7222 20.5159 9.81775C20.4957 9.90887 21.1251 9.8022 21.1251 9.8022L21.0646 10.2311C21.0646 10.2311 19.8395 11.34 20.7779 12.2955C20.7869 12.2911 20.807 12.2511 20.807 12.2511C20.807 12.2511 21.1385 12.6555 21.4834 12.7422C21.8104 13.0733 21.7768 13.0222 21.7768 13.0222C21.7768 13.0222 21.8417 13.5466 21.7813 13.6466C21.7006 13.6222 20.8653 13.5911 20.7443 13.6378C20.6324 13.6733 20.2046 13.6489 20.3121 14.3466C20.3927 14.1578 20.4644 13.9955 20.4644 13.9955C20.4644 13.9955 20.4532 14.2466 20.554 14.3355C20.5383 14.0711 20.6503 13.8911 20.6503 13.8911C20.6503 13.8911 20.6704 14.18 20.7354 14.2222C20.8003 14.2644 20.8003 13.7533 21.1542 13.7978C21.508 13.8422 21.7678 13.8266 21.7678 13.8266C21.7678 13.8266 21.8888 14.8266 21.8485 14.9178C21.5909 14.8578 20.9773 14.9422 20.9369 15.0978C21.2953 15.0778 21.4655 15.1178 21.4655 15.1178C21.4655 15.1178 21.1945 15.3711 21.2841 15.5244Z" fill="black"/>
<path d="M21.2804 15.5554L21.2648 15.5309C21.1841 15.3998 21.3655 15.1998 21.4417 15.1265C21.3723 15.1153 21.2155 15.0976 20.9579 15.1153H20.9288L20.9378 15.0865C20.9826 14.9109 21.594 14.842 21.8538 14.8909C21.8694 14.7753 21.8134 14.2198 21.7687 13.842C21.7037 13.842 21.4708 13.8465 21.1729 13.8109C20.9467 13.782 20.8751 14.002 20.8303 14.1309C20.8101 14.1953 20.7989 14.2265 20.7743 14.2353C20.7653 14.2398 20.7541 14.2353 20.7452 14.2309C20.6937 14.1953 20.669 14.0465 20.6556 13.9509C20.6242 14.022 20.5794 14.1553 20.5906 14.322L20.5951 14.3709L20.5593 14.3398C20.4899 14.2798 20.4697 14.1598 20.463 14.0753C20.4339 14.1442 20.3913 14.2398 20.3465 14.3442L20.3174 14.4087L20.3062 14.3398C20.2099 13.7109 20.5436 13.6509 20.7004 13.6242C20.7205 13.6198 20.7407 13.6153 20.7519 13.6131C20.8773 13.5642 21.6388 13.5931 21.7843 13.6176C21.8202 13.5176 21.7888 13.1731 21.7731 13.0287C21.7418 13.0087 21.6679 12.9376 21.4865 12.7531C21.1796 12.6731 20.8975 12.362 20.8213 12.2776C20.8101 12.2976 20.8012 12.302 20.7967 12.3065L20.7855 12.3153L20.7743 12.3042C20.5234 12.0531 20.407 11.7642 20.4159 11.4531C20.4361 10.8176 20.996 10.2731 21.0565 10.2176L21.1125 9.82201C20.9602 9.8509 20.5772 9.90646 20.5167 9.84646C20.5078 9.83757 20.5055 9.82201 20.5078 9.8109C20.5279 9.71979 20.9266 9.59979 21.0609 9.56201C21.0296 9.50201 20.9714 9.3309 21.1461 9.12645C21.3073 8.97757 21.529 8.93757 21.7351 9.0109C21.9254 9.07979 22.0665 9.2309 22.0934 9.39979C22.1091 9.42868 22.1382 9.7509 21.7664 10.0553C21.4842 10.3753 21.6052 11.0442 21.6164 11.1042L23.1594 13.0687L23.1034 13.0576C22.8907 13.0087 22.5503 12.9576 22.4876 13.0087C22.4786 13.0176 22.4764 13.0242 22.4719 13.0398C22.4607 13.1553 22.6376 13.4553 22.7138 13.5509C22.7541 13.602 22.7586 13.6798 22.725 13.7509C22.7003 13.7998 22.66 13.8465 22.6152 13.8465C22.4853 13.8309 22.1471 13.7976 22.062 13.8376C22.0061 13.8665 22.0374 14.3976 22.1024 14.8865C22.1919 14.882 22.5547 14.8865 22.6824 15.0909L22.7026 15.1265L22.6622 15.122C21.7754 15.0109 21.3073 15.5265 21.3028 15.5331L21.2804 15.5554ZM21.1505 15.0709C21.3767 15.0709 21.482 15.0998 21.4887 15.0998L21.5245 15.1087L21.4954 15.1331C21.4238 15.1976 21.258 15.3731 21.2849 15.4842C21.3857 15.3842 21.8381 14.9953 22.6107 15.0754C22.4584 14.9042 22.0822 14.9242 22.0777 14.9242H22.0576L22.0531 14.9042C22.0217 14.6598 21.9232 13.8531 22.0329 13.7998C22.1449 13.7487 22.5861 13.7998 22.6063 13.8042C22.6219 13.8042 22.6555 13.7753 22.6757 13.7331C22.6869 13.7087 22.716 13.6331 22.6712 13.5731C22.6152 13.5042 22.4047 13.1776 22.4204 13.0331C22.4249 13.0087 22.4316 12.9887 22.4495 12.9731C22.5391 12.9042 22.9019 12.9687 23.0452 13.002L21.5626 11.1176V11.1109C21.5537 11.082 21.4103 10.3753 21.7194 10.022C22.0307 9.76646 22.0508 9.49757 22.0419 9.42646H22.0374L22.0329 9.40201C22.0083 9.24645 21.8806 9.10645 21.6992 9.04201C21.5066 8.97312 21.3051 9.0109 21.155 9.14645C20.9624 9.37757 21.0856 9.5509 21.0901 9.55534L21.1057 9.57979L21.0766 9.58868C20.8191 9.65757 20.5414 9.75979 20.5279 9.81312C20.5526 9.84423 20.8504 9.81757 21.1125 9.77312L21.1416 9.76868L21.0766 10.2331L21.0721 10.2376C21.0632 10.242 20.4585 10.7976 20.4383 11.4487C20.4294 11.7442 20.5391 12.0131 20.7698 12.2531C20.7743 12.2442 20.7788 12.2376 20.781 12.2287L20.7967 12.2042L20.8168 12.2287C20.8213 12.2331 21.1483 12.6287 21.482 12.7176H21.4865L21.4909 12.722C21.7283 12.9665 21.7731 12.9976 21.7821 13.002L21.7731 13.0131L21.7888 13.0087L21.7978 13.0242L21.7933 13.0287C21.8045 13.1198 21.8538 13.5576 21.7933 13.6531L21.7843 13.6642L21.7687 13.6598C21.688 13.6353 20.8616 13.6087 20.7452 13.6509C20.7295 13.6553 20.7093 13.6598 20.6892 13.662C20.5369 13.6909 20.2569 13.742 20.3174 14.262C20.3868 14.102 20.4428 13.9731 20.4428 13.9731L20.4831 13.982C20.4831 13.9865 20.4742 14.1576 20.5324 14.262C20.5324 14.0309 20.6332 13.8731 20.6377 13.8709L20.669 13.8198L20.6735 13.8798C20.6825 13.9909 20.7093 14.1553 20.7452 14.1909C20.7541 14.1798 20.7653 14.142 20.7743 14.1153C20.8191 13.9842 20.8997 13.7353 21.1617 13.7665C21.5133 13.8065 21.7709 13.7953 21.7709 13.7953H21.7911L21.7955 13.8153C21.8067 13.9198 21.9165 14.8242 21.8762 14.9198L21.8672 14.9353L21.8515 14.9309C21.6096 14.8753 21.0766 14.9509 20.9803 15.0665C21.0498 15.0709 21.108 15.0709 21.1505 15.0709Z" fill="black"/>
<path d="M21.4301 10.0688C21.4301 10.0688 20.5388 11.0444 20.9218 11.7933C20.9419 11.6889 20.933 11.6244 20.9464 11.6289C20.9262 11.6177 21.0561 11.7177 21.0472 11.6977C21.0517 11.6466 21.0069 11.5289 21.0069 11.5289C21.0472 11.5377 21.0875 11.5489 21.1278 11.5577C21.1032 11.5133 21.0785 11.4689 21.0584 11.4289C21.1144 11.4377 21.1704 11.44 21.2286 11.4489C21.2286 11.4489 21.1681 11.2889 21.1883 11.2889C21.2084 11.2889 21.3294 11.2977 21.3294 11.2977C21.0741 10.8444 21.3115 10.4688 21.4301 10.0688Z" fill="#9CA69C"/>
<path d="M20.9278 11.851L20.8987 11.7999C20.5112 11.0488 21.3981 10.0644 21.4115 10.0555L21.4474 10.0755C21.4227 10.1599 21.3959 10.2399 21.3667 10.3199C21.2548 10.6355 21.1495 10.9355 21.3466 11.2888L21.3667 11.3199L21.3309 11.3155C21.3018 11.311 21.2413 11.3066 21.21 11.3066C21.2144 11.3355 21.2346 11.391 21.2503 11.4377L21.2615 11.4688L21.0958 11.4488L21.1674 11.5844L21.0375 11.5533C21.0487 11.5933 21.0666 11.6533 21.0666 11.6888L21.0711 11.6999L21.0554 11.711C21.0353 11.7221 20.986 11.6866 20.9547 11.6599V11.6644C20.9547 11.6933 20.9502 11.7355 20.939 11.7933L20.9278 11.851ZM21.3802 10.1555C21.1898 10.3866 20.6635 11.1244 20.9121 11.7199C20.9166 11.6955 20.9166 11.6799 20.9166 11.6644C20.9166 11.6488 20.9166 11.6355 20.9211 11.6288L20.9166 11.6244L20.9367 11.5955L20.9524 11.6066L20.9479 11.6155L20.9569 11.611C20.9614 11.6155 20.9972 11.6421 21.0218 11.6599C21.0129 11.6155 20.9927 11.5555 20.986 11.531L20.9748 11.4955L21.0868 11.5244L21.0174 11.3999L21.1943 11.4199C21.1495 11.2955 21.1585 11.2799 21.1652 11.271L21.1697 11.2621H21.1809C21.1921 11.2621 21.2503 11.2666 21.2861 11.271C21.1047 10.9155 21.2144 10.6021 21.3219 10.3021C21.3443 10.2555 21.3645 10.2044 21.3802 10.1555Z" fill="#9CA69C"/>
<path d="M21.7387 9.2287C21.7387 9.2287 21.7879 9.56425 21.602 9.66425C21.5729 9.68425 21.4565 9.72426 21.4721 9.79314C21.4923 9.88426 21.5438 9.8687 21.6177 9.85314C21.8126 9.81537 22.0343 9.4087 21.7387 9.2287Z" fill="#9CA69C"/>
<path d="M21.5409 9.88426C21.5252 9.88426 21.5095 9.87982 21.4961 9.87315C21.4759 9.86204 21.4603 9.8376 21.4513 9.7976C21.4356 9.72871 21.5118 9.68871 21.561 9.66648C21.5722 9.66204 21.5812 9.65537 21.5902 9.65093C21.7626 9.55982 21.7201 9.23982 21.7201 9.23537L21.7156 9.19537L21.7514 9.21537C21.8723 9.28649 21.9239 9.40648 21.897 9.54648C21.8679 9.70204 21.7447 9.85093 21.6238 9.87093L21.6148 9.87537C21.5857 9.87982 21.5655 9.88426 21.5409 9.88426ZM21.7626 9.27093C21.7716 9.36649 21.7671 9.59982 21.6103 9.68204C21.6058 9.68648 21.5946 9.69093 21.5812 9.6976C21.5319 9.72204 21.4849 9.74871 21.4916 9.78648C21.5006 9.81537 21.5073 9.83093 21.5207 9.8376C21.5364 9.84871 21.57 9.84204 21.6058 9.83315L21.617 9.82871C21.7223 9.80871 21.8343 9.67315 21.8589 9.5376C21.8679 9.47093 21.8723 9.35537 21.7626 9.27093Z" fill="#9CA69C"/>
<path d="M21.3412 9.59114C21.3808 9.59114 21.4129 9.5593 21.4129 9.52002C21.4129 9.48075 21.3808 9.44891 21.3412 9.44891C21.3016 9.44891 21.2695 9.48075 21.2695 9.52002C21.2695 9.5593 21.3016 9.59114 21.3412 9.59114Z" fill="white"/>
<path d="M21.1235 9.79999C21.0742 9.83999 20.8301 10.0911 21.072 10.1889C21.3251 10.12 21.2579 10.0733 21.3139 10.0178C21.3116 9.89999 21.184 9.8711 21.1235 9.79999Z" fill="#D90000"/>
<path d="M21.0707 10.2089L21.0617 10.2044C20.9923 10.1755 20.952 10.1355 20.9453 10.08C20.9251 9.95997 21.0707 9.81108 21.1065 9.77997L21.1222 9.76886L21.1334 9.78442C21.1535 9.80886 21.1782 9.82442 21.2051 9.84442C21.261 9.88442 21.326 9.92886 21.326 10.0155V10.0244L21.3215 10.0289C21.3103 10.04 21.3058 10.0533 21.2969 10.0689C21.2767 10.12 21.2476 10.1577 21.0707 10.2044V10.2089ZM21.12 9.82886C21.0684 9.87775 20.9699 9.9933 20.9878 10.0777C20.9968 10.1177 21.0237 10.1466 21.0729 10.1666C21.2387 10.1222 21.2543 10.0866 21.2655 10.0555C21.27 10.0444 21.2767 10.0266 21.2902 10.0111C21.2857 9.95108 21.2409 9.91997 21.1894 9.88219C21.1647 9.86442 21.1401 9.84886 21.12 9.82886Z" fill="black"/>
<path d="M21.6622 12.2112C21.651 12.2667 21.5927 12.4712 21.6711 12.6267C21.8839 12.5378 21.9847 12.5623 22.0586 12.6112C21.8794 12.4712 21.8122 12.4112 21.6622 12.2112Z" fill="#9CA69C"/>
<path d="M21.6584 12.6555L21.6495 12.6399C21.5733 12.4844 21.6204 12.291 21.6383 12.2199L21.6495 12.1688L21.6741 12.2044C21.8242 12.4044 21.8913 12.4599 22.066 12.5999L22.0414 12.631C21.9764 12.5866 21.8846 12.5622 21.6741 12.651L21.6584 12.6555ZM21.6719 12.2599C21.6562 12.3399 21.6315 12.4844 21.6808 12.6044C21.8018 12.5555 21.8869 12.5444 21.9518 12.5533C21.8443 12.4644 21.7794 12.3999 21.6719 12.2599Z" fill="#9CA69C"/>
<path d="M22.0312 13.1801L22.0424 13.6556C22.0424 13.6556 22.2082 13.6845 22.2888 13.6556C22.365 13.6245 22.2843 13.3245 22.0312 13.1801Z" fill="white"/>
<path d="M22.1912 13.689C22.1195 13.689 22.0456 13.6779 22.0411 13.6779L22.0254 13.6734L22.0098 13.1445L22.0411 13.1601C22.2427 13.2756 22.3435 13.4956 22.3345 13.6045C22.33 13.6534 22.3054 13.669 22.2942 13.6734C22.2673 13.6845 22.227 13.689 22.1912 13.689ZM22.0613 13.6356C22.1061 13.6445 22.2225 13.6556 22.2785 13.6356C22.2875 13.6312 22.2897 13.6201 22.2942 13.6001C22.3031 13.509 22.218 13.3245 22.0523 13.2112L22.0613 13.6356Z" fill="white"/>
<path d="M23.2443 13.2357C23.2443 13.2357 22.933 12.4957 22.1469 12.3068C21.3563 12.1179 21.4616 11.2868 21.5266 11.2357C21.5624 11.1646 21.587 11.0512 21.8132 11.1601C22.0394 11.269 23.0876 11.789 23.2354 11.8157C23.3854 11.8446 23.2555 13.2557 23.2443 13.2357Z" fill="#9CA69C"/>
<path d="M23.2382 13.2645L23.227 13.249C23.2225 13.2401 22.9135 12.5179 22.143 12.3334C21.6951 12.229 21.5384 11.9245 21.4868 11.689C21.4376 11.4801 21.4667 11.2734 21.507 11.229C21.5115 11.2245 21.5115 11.2201 21.516 11.2134C21.5316 11.1734 21.5563 11.1245 21.6078 11.1045C21.6593 11.0845 21.7287 11.0957 21.8205 11.1401C21.8721 11.1645 21.9706 11.2112 22.0871 11.269C22.4745 11.4579 23.1262 11.7734 23.2404 11.7934C23.2808 11.8023 23.3054 11.8623 23.3166 11.9845C23.3457 12.2757 23.2964 13.2334 23.2516 13.2534L23.2382 13.2645ZM21.6526 11.1357C21.6414 11.1357 21.6235 11.1357 21.6167 11.1401C21.5809 11.1512 21.5652 11.189 21.5473 11.2245C21.5428 11.2334 21.5428 11.2357 21.5384 11.2445V11.249L21.5339 11.2534C21.5137 11.2734 21.4689 11.4734 21.5294 11.7045C21.5854 11.9157 21.7354 12.1934 22.1498 12.2934C22.8104 12.449 23.1419 12.9934 23.2337 13.1734C23.2628 12.9245 23.33 11.9934 23.2427 11.849C23.2382 11.8401 23.2315 11.8379 23.2315 11.8379C23.115 11.8179 22.4857 11.5134 22.0714 11.309C21.9549 11.2534 21.8586 11.2045 21.8049 11.1801C21.7422 11.1512 21.6929 11.1357 21.6526 11.1357Z" fill="black"/>
<path d="M22.4942 12.3043C22.483 12.3132 23.5513 12.9288 23.2288 13.4599C23.5356 13.2599 23.4349 12.911 23.4349 12.911C23.4349 12.911 23.6857 13.5555 23.081 13.8666C23.1459 13.9221 23.1907 13.911 23.1907 13.911L23.0855 14.0155C23.0855 14.0155 23.0362 14.091 23.4438 13.8955C23.3318 13.9844 23.3229 14.0466 23.3229 14.0466C23.3229 14.0466 23.352 14.131 23.6163 13.9021C23.4035 14.131 23.3542 14.251 23.3542 14.2466C23.9343 14.1955 25.1929 12.3266 22.9556 11.7755C23.0765 11.8999 23.0608 11.8843 23.0608 11.8843L22.4942 12.3043Z" fill="#D90000"/>
<path d="M23.3558 14.2713H23.3513L23.3357 14.2669V14.2313H23.3446C23.376 14.1758 23.4208 14.1113 23.4768 14.0402C23.4163 14.0802 23.367 14.0913 23.3357 14.0846C23.311 14.0758 23.3043 14.0602 23.3043 14.0558V14.0513V14.0469C23.3043 14.0424 23.3133 14.0113 23.3491 13.9624C23.1027 14.0735 23.0826 14.0513 23.0714 14.038C23.0624 14.0269 23.0624 14.0135 23.0669 14.0024L23.0714 13.998L23.1431 13.9269C23.1229 13.918 23.0983 13.9069 23.0669 13.8824L23.0423 13.8624L23.0669 13.8513C23.4387 13.6602 23.4812 13.3424 23.4611 13.1313C23.4454 13.2424 23.3894 13.3802 23.2394 13.4758L23.2102 13.4469C23.3357 13.2424 23.3155 12.8869 22.5294 12.3513C22.4779 12.3158 22.4734 12.3158 22.4779 12.3024V12.2913L22.4868 12.2869L23.0355 11.878C23.0244 11.8624 22.9952 11.838 22.946 11.7891L22.8967 11.738L22.9661 11.7535C24.1554 12.0446 24.2852 12.698 24.2561 13.058C24.2069 13.6735 23.6761 14.2335 23.3648 14.2669C23.3603 14.2713 23.3558 14.2713 23.3558 14.2713ZM23.6066 13.8913L23.6358 13.9202C23.5305 14.0313 23.4454 14.1402 23.3984 14.2246C23.7007 14.1558 24.1733 13.6335 24.2158 13.0602C24.2606 12.4758 23.8418 12.0358 23.0221 11.8158C23.0378 11.8358 23.0535 11.8469 23.0624 11.8602L23.0736 11.8713C23.0848 11.8869 23.0826 11.8913 23.0781 11.9002L23.0624 11.9113L23.0579 11.9069L22.5249 12.3024C22.5339 12.3069 22.5406 12.3135 22.5496 12.318C23.2707 12.8135 23.3648 13.1669 23.2797 13.3891C23.4902 13.198 23.4163 12.9246 23.4118 12.9135L23.4476 12.9024C23.4521 12.9113 23.6895 13.5469 23.1095 13.8713C23.1498 13.8958 23.1744 13.8913 23.1744 13.8913L23.2438 13.8758L23.1139 14.0069C23.1498 13.998 23.2349 13.9713 23.4275 13.878L23.4476 13.9091C23.367 13.9735 23.3424 14.0202 23.3379 14.0402H23.3424C23.367 14.0491 23.432 14.0402 23.6066 13.8913Z" fill="black"/>
<path d="M22.5402 12.1246C22.6857 12.229 22.7372 12.2602 22.7529 12.3135C22.6208 12.2846 22.4998 12.2935 22.4998 12.2935C22.4998 12.2935 22.2132 12.0224 22.1617 12.0024C22.1214 12.0024 21.8996 11.8624 21.8996 11.8624C21.7877 11.8068 21.6869 11.4224 22.0967 11.5335C22.52 11.7335 22.5805 11.749 22.5805 11.749C22.7507 11.8001 22.9186 11.8535 23.0889 11.9046C23.1852 12.0135 23.2815 12.1201 23.38 12.229C23.38 12.229 22.8604 11.9735 22.7955 11.969C22.9366 12.0846 23.0172 12.2402 23.0172 12.2402C22.8559 12.1913 22.7148 12.149 22.5402 12.1246Z" fill="white"/>
<path d="M22.7822 12.3356L22.7463 12.3267C22.6164 12.2978 22.5 12.3067 22.5 12.3067H22.491L22.4821 12.2978C22.3723 12.1934 22.1909 12.0289 22.1506 12.0089C22.1013 12 21.9378 11.8978 21.8841 11.8645C21.8124 11.8289 21.7475 11.68 21.7878 11.58C21.8079 11.5245 21.8774 11.4445 22.0991 11.5001C22.5134 11.6956 22.5828 11.7156 22.5828 11.7156L23.0957 11.8756L23.3891 12.2045L23.3645 12.2356C23.2144 12.1645 22.9972 12.06 22.8717 12.0067C22.9725 12.1112 23.024 12.2156 23.0285 12.2178L23.0487 12.2578L22.9725 12.2334C22.8471 12.1978 22.7396 12.1645 22.6142 12.1423C22.7105 12.2112 22.7463 12.2423 22.7642 12.2912L22.7822 12.3356ZM22.5448 12.2689C22.5851 12.2689 22.6455 12.2734 22.715 12.2845C22.6903 12.2534 22.6388 12.22 22.5492 12.1556L22.5291 12.14L22.5448 12.1045C22.7015 12.1289 22.8314 12.1645 22.9792 12.2045C22.9479 12.1534 22.8785 12.0556 22.7866 11.98L22.7374 11.94L22.8023 11.9445C22.8538 11.9489 23.145 12.0845 23.2973 12.16L23.08 11.9156L22.5806 11.76C22.5761 11.76 22.5156 11.74 22.0924 11.5401C21.9513 11.5045 21.8617 11.5201 21.8348 11.5956C21.8035 11.68 21.8639 11.8067 21.9154 11.8312C22.0207 11.9 22.1461 11.9667 22.1685 11.9712H22.1775C22.229 11.9912 22.4686 12.2156 22.5156 12.2623C22.5179 12.2689 22.5291 12.2689 22.5448 12.2689Z" fill="black"/>
<path d="M20.5234 9.83539C20.5234 9.83539 21.0184 9.71539 21.0789 9.73094L20.5234 9.83539Z" fill="black"/>
<path d="M20.5265 9.8554L20.5176 9.8154C20.6027 9.7954 21.0215 9.6954 21.0864 9.7154L21.0752 9.7554C21.0394 9.74429 20.7662 9.79984 20.5265 9.8554Z" fill="white"/>
</g>
<rect x="0.474219" y="0.15" width="42.7" height="23.7" stroke="#EFEFF8" stroke-width="0.3"/>
<defs>
<clipPath id="clip0_684_44930">
<rect x="0.324219" width="43" height="24" fill="white"/>
</clipPath>
</defs>
</svg>
