<svg width="44" height="24" viewBox="0 0 44 24" fill="none" xmlns="http://www.w3.org/2000/svg">
<g clip-path="url(#clip0_684_43038)">
<path d="M0.658203 0H49.0332V24H0.658203V0Z" fill="#1EB53A"/>
<path d="M0.658203 0H49.0332V12H0.658203V0Z" fill="#0099B5"/>
<path d="M0.658203 7.68005H49.0332V16.3201H0.658203V7.68005Z" fill="#CE1126"/>
<path d="M0.658203 8.15985H49.0332V15.8399H0.658203V8.15985Z" fill="white"/>
<path d="M7.42984 6.71985C9.03285 6.71985 10.3323 5.43043 10.3323 3.83985C10.3323 2.24927 9.03285 0.959854 7.42984 0.959854C5.82684 0.959854 4.52734 2.24927 4.52734 3.83985C4.52734 5.43043 5.82684 6.71985 7.42984 6.71985Z" fill="white"/>
<path d="M8.39859 6.71985C10.0016 6.71985 11.3011 5.43043 11.3011 3.83985C11.3011 2.24927 10.0016 0.959854 8.39859 0.959854C6.79559 0.959854 5.49609 2.24927 5.49609 3.83985C5.49609 5.43043 6.79559 6.71985 8.39859 6.71985Z" fill="#0099B5"/>
<path d="M13.8159 5.56888L13.6367 6.11554L13.9122 6.20665" fill="white"/>
<path d="M13.8151 5.56888L13.9942 6.11554L13.7188 6.20665" fill="white"/>
<path d="M14.3672 5.96663H13.7871V6.25552" fill="white"/>
<path d="M14.3671 5.96663L13.8968 6.30663L13.7266 6.07107" fill="white"/>
<path d="M13.2656 5.96663L13.7359 6.30663L13.9061 6.07107" fill="white"/>
<path d="M13.2656 5.96663H13.8457V6.25552" fill="white"/>
<path d="M14.1597 6.609L13.9805 6.06233L13.7051 6.15344" fill="white"/>
<path d="M14.1598 6.60892L13.6895 6.26893L13.8597 6.03337" fill="white"/>
<path d="M13.4727 6.60892L13.943 6.26893L13.7728 6.03337" fill="white"/>
<path d="M13.4727 6.609L13.6518 6.06233L13.9273 6.15344" fill="white"/>
<path d="M13.8159 3.2645L13.6367 3.81116L13.9122 3.90227" fill="white"/>
<path d="M13.8151 3.2645L13.9942 3.81116L13.7188 3.90227" fill="white"/>
<path d="M14.3672 3.66225H13.7871V3.95114" fill="white"/>
<path d="M14.3671 3.66225L13.8968 4.00224L13.7266 3.76669" fill="white"/>
<path d="M13.2656 3.66225L13.7359 4.00224L13.9061 3.76669" fill="white"/>
<path d="M13.2656 3.66225H13.8457V3.95114" fill="white"/>
<path d="M14.1597 4.30651L13.9805 3.75984L13.7051 3.85095" fill="white"/>
<path d="M14.1598 4.30668L13.6895 3.96668L13.8597 3.73112" fill="white"/>
<path d="M13.4727 4.30668L13.943 3.96668L13.7728 3.73112" fill="white"/>
<path d="M13.8159 0.959854L13.6367 1.50652L13.9122 1.59763" fill="white"/>
<path d="M13.8151 0.959854L13.9942 1.50652L13.7188 1.59763" fill="white"/>
<path d="M14.3672 1.35796H13.7871V1.64684" fill="white"/>
<path d="M14.3671 1.35796L13.8968 1.69796L13.7266 1.4624" fill="white"/>
<path d="M13.2656 1.35796L13.7359 1.69796L13.9061 1.4624" fill="white"/>
<path d="M13.2656 1.35796H13.8457V1.64684" fill="white"/>
<path d="M14.1597 2.00213L13.9805 1.45546L13.7051 1.54657" fill="white"/>
<path d="M14.1598 2.0023L13.6895 1.6623L13.8597 1.42674" fill="white"/>
<path d="M13.4727 2.0023L13.943 1.6623L13.7728 1.42674" fill="white"/>
<path d="M16.1381 5.56888L15.959 6.11554L16.2345 6.20665" fill="white"/>
<path d="M16.1373 5.56888L16.3165 6.11554L16.041 6.20665" fill="white"/>
<path d="M16.6894 5.96663H16.1094V6.25552" fill="white"/>
<path d="M16.6893 5.96663L16.219 6.30663L16.0488 6.07107" fill="white"/>
<path d="M15.5859 5.96663L16.0563 6.30663L16.2265 6.07107" fill="white"/>
<path d="M15.5859 5.96663H16.166V6.25552" fill="white"/>
<path d="M16.48 6.609L16.3009 6.06233L16.0254 6.15344" fill="white"/>
<path d="M16.4801 6.60892L16.0098 6.26893L16.18 6.03337" fill="white"/>
<path d="M15.7949 6.60892L16.2652 6.26893L16.095 6.03337" fill="white"/>
<path d="M16.1381 3.2645L15.959 3.81116L16.2345 3.90227" fill="white"/>
<path d="M16.1373 3.2645L16.3165 3.81116L16.041 3.90227" fill="white"/>
<path d="M16.6894 3.66225H16.1094V3.95114" fill="white"/>
<path d="M15.5859 3.66225L16.0563 4.00224L16.2265 3.76669" fill="white"/>
<path d="M15.5859 3.66225H16.166V3.95114" fill="white"/>
<path d="M16.48 4.30651L16.3009 3.75984L16.0254 3.85095" fill="white"/>
<path d="M15.7949 4.30668L16.2652 3.96668L16.095 3.73112" fill="white"/>
<path d="M16.1381 0.959854L15.959 1.50652L16.2345 1.59763" fill="white"/>
<path d="M16.1373 0.959854L16.3165 1.50652L16.041 1.59763" fill="white"/>
<path d="M16.6894 1.35796H16.1094V1.64684" fill="white"/>
<path d="M15.5859 1.35796L16.0563 1.69796L16.2265 1.4624" fill="white"/>
<path d="M15.5859 1.35796H16.166V1.64684" fill="white"/>
<path d="M16.48 2.00213L16.3009 1.45546L16.0254 1.54657" fill="white"/>
<path d="M15.7949 2.0023L16.2652 1.6623L16.095 1.42674" fill="white"/>
<path d="M18.4604 5.56888L18.2812 6.11554L18.5567 6.20665" fill="white"/>
<path d="M18.4615 5.56888L18.6407 6.11554L18.3652 6.20665" fill="white"/>
<path d="M19.0117 5.96663H18.4316V6.25552" fill="white"/>
<path d="M19.0116 5.96663L18.5413 6.30663L18.3711 6.07107" fill="white"/>
<path d="M17.9102 5.96663L18.3805 6.30663L18.5507 6.07107" fill="white"/>
<path d="M17.9102 5.96663H18.4902V6.25552" fill="white"/>
<path d="M18.8042 6.609L18.6251 6.06233L18.3496 6.15344" fill="white"/>
<path d="M18.8043 6.60892L18.334 6.26893L18.5042 6.03337" fill="white"/>
<path d="M18.1152 6.60892L18.5855 6.26893L18.4153 6.03337" fill="white"/>
<path d="M18.4604 3.2645L18.2812 3.81116L18.5567 3.90227" fill="white"/>
<path d="M18.4615 3.2645L18.6407 3.81116L18.3652 3.90227" fill="white"/>
<path d="M19.0117 3.66225H18.4316V3.95114" fill="white"/>
<path d="M17.9102 3.66225L18.3805 4.00224L18.5507 3.76669" fill="white"/>
<path d="M17.9102 3.66225H18.4902V3.95114" fill="white"/>
<path d="M18.8042 4.30651L18.6251 3.75984L18.3496 3.85095" fill="white"/>
<path d="M18.1152 4.30668L18.5855 3.96668L18.4153 3.73112" fill="white"/>
<path d="M18.4604 0.959854L18.2812 1.50652L18.5567 1.59763" fill="white"/>
<path d="M18.4615 0.959854L18.6407 1.50652L18.3652 1.59763" fill="white"/>
<path d="M19.0117 1.35796H18.4316V1.64684" fill="white"/>
<path d="M17.9102 1.35796L18.3805 1.69796L18.5507 1.4624" fill="white"/>
<path d="M17.9102 1.35796H18.4902V1.64684" fill="white"/>
<path d="M18.8042 2.00213L18.6251 1.45546L18.3496 1.54657" fill="white"/>
<path d="M18.1152 2.0023L18.5855 1.6623L18.4153 1.42674" fill="white"/>
<path d="M9.17331 5.56888L8.99414 6.11554L9.26961 6.20665" fill="white"/>
<path d="M9.17247 5.56888L9.35164 6.11554L9.07617 6.20665" fill="white"/>
<path d="M9.72458 5.96663H9.14453V6.25552" fill="white"/>
<path d="M9.7245 5.96663L9.25419 6.30663L9.08398 6.07107" fill="white"/>
<path d="M8.61914 5.96663L9.08945 6.30663L9.25966 6.07107" fill="white"/>
<path d="M8.61914 5.96663H9.19919V6.25552" fill="white"/>
<path d="M9.51714 6.609L9.33797 6.06233L9.0625 6.15344" fill="white"/>
<path d="M9.51523 6.60892L9.04492 6.26893L9.21513 6.03337" fill="white"/>
<path d="M8.82812 6.60892L9.29844 6.26893L9.12823 6.03337" fill="white"/>
<path d="M8.82812 6.609L9.00729 6.06233L9.28276 6.15344" fill="white"/>
<path d="M11.4936 5.56888L11.3145 6.11554L11.5899 6.20665" fill="white"/>
<path d="M11.4928 5.56888L11.672 6.11554L11.3965 6.20665" fill="white"/>
<path d="M12.0468 5.96663H11.4668V6.25552" fill="white"/>
<path d="M12.0468 5.96663L11.5765 6.30663L11.4062 6.07107" fill="white"/>
<path d="M10.9414 5.96663L11.4117 6.30663L11.5819 6.07107" fill="white"/>
<path d="M10.9414 5.96663H11.5215V6.25552" fill="white"/>
<path d="M11.8374 6.609L11.6583 6.06233L11.3828 6.15344" fill="white"/>
<path d="M11.8395 6.60892L11.3691 6.26893L11.5394 6.03337" fill="white"/>
<path d="M11.1504 6.60892L11.6207 6.26893L11.4505 6.03337" fill="white"/>
<path d="M11.1504 6.609L11.3296 6.06233L11.605 6.15344" fill="white"/>
<path d="M11.4936 3.2645L11.3145 3.81116L11.5899 3.90227" fill="white"/>
<path d="M11.4928 3.2645L11.672 3.81116L11.3965 3.90227" fill="white"/>
<path d="M12.0468 3.66225H11.4668V3.95114" fill="white"/>
<path d="M12.0468 3.66225L11.5765 4.00224L11.4062 3.76669" fill="white"/>
<path d="M10.9414 3.66225L11.4117 4.00224L11.5819 3.76669" fill="white"/>
<path d="M10.9414 3.66225H11.5215V3.95114" fill="white"/>
<path d="M11.8374 4.30651L11.6583 3.75984L11.3828 3.85095" fill="white"/>
<path d="M11.8395 4.30668L11.3691 3.96668L11.5394 3.73112" fill="white"/>
<path d="M11.1504 4.30668L11.6207 3.96668L11.4505 3.73112" fill="white"/>
<path d="M11.1504 4.30651L11.3296 3.75984L11.605 3.85095" fill="white"/>
</g>
<rect x="0.808203" y="0.15" width="42.7" height="23.7" stroke="#EFEFF8" stroke-width="0.3"/>
<defs>
<clipPath id="clip0_684_43038">
<rect x="0.658203" width="43" height="24" fill="white"/>
</clipPath>
</defs>
</svg>
