<svg width="44" height="24" viewBox="0 0 44 24" fill="none" xmlns="http://www.w3.org/2000/svg">
<g clip-path="url(#clip0_684_44964)">
<path d="M43.6562 0H0.65625V24H43.6562V0Z" fill="#198A00"/>
<path d="M39.3353 8.57129H30.6973V24.0002H39.3353V8.57129Z" fill="#DE2010"/>
<path d="M43.6576 8.57129H35.0195V24.0002H43.6576V8.57129Z" fill="#EF7D00"/>
<path d="M39.3397 8.57129H35.0195V24.0002H39.3397V8.57129Z" fill="black"/>
<path d="M40.4849 2.88436C40.4849 2.88436 41.9697 2.30658 42.1131 2.18658C42.178 2.2577 41.5173 2.98436 40.2341 3.25325C41.3987 3.00214 42.393 2.21547 42.5968 2.23992C42.6551 2.25103 42.6439 3.00881 39.972 3.66214C41.8175 3.22214 42.8925 2.41103 42.879 2.49992C42.8925 2.5177 42.6954 3.1377 41.0784 3.61992C41.5285 3.52436 42.7536 2.84436 42.7402 2.9777C42.7805 3.03103 41.5554 4.45992 39.3427 3.99547C41.1097 4.41103 42.2564 3.40658 42.4199 3.42214C42.4535 3.42658 42.0929 4.30436 39.8668 4.3577C40.9351 4.25547 40.626 4.35325 40.626 4.35325C40.626 4.35325 39.9967 4.79992 39.2397 4.49547C39.8354 4.64436 39.9004 4.64881 39.9138 4.6977C39.8735 4.7577 39.383 4.84658 38.9127 4.61325C39.2934 4.75547 39.6339 4.77992 39.6406 4.83547C39.6339 4.85325 39.392 4.9777 39.1747 4.88881C38.9597 4.79992 36.9688 3.68436 36.9688 3.68436L40.3595 2.83992L40.4849 2.88436Z" fill="#EF7D00"/>
<path d="M39.3453 4.94458C39.2893 4.94458 39.2288 4.93569 39.1706 4.91125C38.9556 4.82236 37.043 3.75347 36.9624 3.7068C36.9557 3.70236 36.9512 3.69569 36.9512 3.68903C36.9512 3.68236 36.9579 3.67569 36.9646 3.67347L40.3553 2.82903C40.3598 2.8268 40.3621 2.82903 40.3665 2.82903L40.483 2.86903C40.5905 2.8268 41.9656 2.28903 42.1 2.17791C42.1089 2.17125 42.1179 2.17347 42.1269 2.18014C42.1381 2.19125 42.1381 2.20903 42.1313 2.22903C42.1045 2.31569 41.9275 2.50236 41.6543 2.69125C41.8066 2.61347 41.9454 2.53347 42.0664 2.4668C42.3351 2.31569 42.5165 2.21569 42.5972 2.2268C42.6084 2.22903 42.6263 2.23791 42.6285 2.28236C42.6285 2.32236 42.6106 2.53791 42.1828 2.83569C42.1784 2.84014 42.1716 2.84236 42.1672 2.8468C42.3665 2.74458 42.5255 2.65791 42.6397 2.59569C42.8346 2.4868 42.8637 2.47347 42.8861 2.4868C42.8928 2.49125 42.8973 2.49791 42.8973 2.50458C42.8995 2.51125 42.8973 2.52236 42.8906 2.54014C42.8794 2.57791 42.7943 2.7868 42.4247 3.0468C42.6196 2.96236 42.7159 2.93347 42.745 2.95569C42.7539 2.96014 42.7562 2.96903 42.7584 2.98014C42.7629 2.99125 42.7539 3.00903 42.7383 3.03569C42.6957 3.10014 42.5479 3.26903 42.2971 3.45125C42.3553 3.42236 42.3934 3.4068 42.4202 3.40903C42.4314 3.41125 42.4404 3.42014 42.4382 3.43569C42.4337 3.49125 42.3083 3.71569 41.9454 3.9268C41.7036 4.0668 41.3049 4.23125 40.6801 4.32014C40.6846 4.32458 40.6846 4.3268 40.6846 4.33125C40.6868 4.33791 40.689 4.35791 40.6331 4.37791C40.5995 4.40014 40.2658 4.61791 39.8089 4.6268C39.9029 4.65347 39.9209 4.66902 39.9298 4.70014C39.9321 4.70458 39.9298 4.71125 39.9276 4.71569C39.9029 4.75125 39.773 4.78903 39.5939 4.79125C39.6342 4.80458 39.6521 4.81791 39.6544 4.84014C39.6544 4.84458 39.6544 4.8468 39.6521 4.84902C39.6476 4.86014 39.6252 4.87569 39.5827 4.89569C39.5536 4.90902 39.4573 4.94458 39.3453 4.94458ZM37.0228 3.69569C37.314 3.85791 38.9892 4.79347 39.184 4.87569C39.361 4.94902 39.5625 4.86902 39.614 4.83791C39.5872 4.82236 39.5021 4.80458 39.4214 4.78458C39.417 4.78236 39.4125 4.78236 39.408 4.78014C39.2512 4.76236 39.0765 4.72014 38.9063 4.63569C38.8974 4.63125 38.8929 4.62014 38.8974 4.60902C38.9019 4.60014 38.913 4.59569 38.922 4.59791C39.1034 4.6668 39.2781 4.7068 39.408 4.73569C39.6544 4.76236 39.8492 4.72458 39.894 4.69347C39.8761 4.67347 39.8134 4.65569 39.6342 4.61125C39.5088 4.59791 39.3744 4.56903 39.2378 4.51125C39.2288 4.5068 39.2244 4.49791 39.2266 4.4868C39.2288 4.47569 39.24 4.47125 39.249 4.47569C39.3587 4.50236 39.4528 4.52458 39.5289 4.5468C39.5715 4.55791 39.6073 4.56458 39.6409 4.57347C40.1963 4.62902 40.6151 4.34014 40.6196 4.33791C40.6219 4.33569 40.6241 4.33569 40.6241 4.33347H40.6263C40.6107 4.33125 40.5838 4.33125 40.5479 4.33125C40.3441 4.35569 40.1202 4.37347 39.8716 4.37791C39.8604 4.37791 39.8537 4.36902 39.8514 4.36014C39.8492 4.34903 39.8582 4.34236 39.8694 4.34014C40.2322 4.3068 40.4315 4.29347 40.5457 4.29347C41.2467 4.20902 41.6834 4.03569 41.9387 3.88458C42.2635 3.69347 42.3777 3.50458 42.4023 3.4468C42.362 3.45791 42.2859 3.50014 42.1918 3.55125C42.0888 3.6068 41.9544 3.68014 41.7909 3.75569C41.7775 3.76236 41.764 3.76903 41.7484 3.77569C41.558 3.86458 41.3206 3.95125 41.0429 4.01569C40.5726 4.12902 39.9992 4.16903 39.3431 4.01569C39.3319 4.01347 39.3251 4.00458 39.3296 3.99347C39.3319 3.98236 39.3408 3.97569 39.352 3.97791C40.0149 4.11569 40.586 4.08236 41.0496 3.97347C41.3139 3.90903 41.5446 3.82014 41.7394 3.73569C41.9275 3.6468 42.0843 3.55347 42.203 3.47125C42.5434 3.23791 42.7159 3.02236 42.7271 2.98236V2.98014C42.68 2.96903 42.4494 3.07347 42.2075 3.18236C41.997 3.30236 41.7237 3.42903 41.3699 3.55125C41.2601 3.59347 41.1638 3.62458 41.0877 3.64014C41.0765 3.64236 41.0675 3.63569 41.0653 3.6268C41.0631 3.61791 41.0698 3.6068 41.0787 3.60236C41.1795 3.57347 41.2713 3.54236 41.3632 3.51125C41.5714 3.43125 41.82 3.31569 42.0529 3.21125C42.0977 3.19125 42.1403 3.17125 42.1784 3.15347C42.3463 3.05791 42.4695 2.96903 42.5591 2.89347C42.7763 2.70903 42.848 2.5668 42.8637 2.51791C42.8301 2.53125 42.7539 2.57347 42.6688 2.62014C42.4807 2.72458 42.1739 2.89347 41.764 3.07569C41.3945 3.26014 40.922 3.42903 40.3553 3.58458C40.2366 3.61791 40.1135 3.64903 39.988 3.68014C39.9769 3.68236 39.9679 3.67569 39.9634 3.6668C39.9612 3.65569 39.9679 3.6468 39.9769 3.64236C40.109 3.60903 40.2366 3.57791 40.3553 3.54458C40.8951 3.39347 41.3564 3.21569 41.7327 3.0468C42.3822 2.72903 42.5457 2.45791 42.5837 2.35125C42.6039 2.29569 42.6016 2.26458 42.5972 2.25569C42.5255 2.25125 42.3374 2.35791 42.0955 2.49125C41.8491 2.62903 41.5334 2.80236 41.175 2.96014C40.9264 3.07569 40.6174 3.19125 40.2456 3.26903C40.2344 3.27125 40.2254 3.26458 40.2232 3.25347C40.221 3.24236 40.2277 3.23347 40.2389 3.23125C40.5614 3.16236 40.8727 3.05125 41.1571 2.9268C41.3072 2.85569 41.4326 2.7868 41.5311 2.72236C41.829 2.53569 42.0261 2.34458 42.0865 2.24014C42.091 2.23347 42.0933 2.2268 42.0977 2.22236C41.8357 2.37791 40.5547 2.87791 40.4987 2.90014C40.4942 2.90236 40.4897 2.90236 40.4852 2.90014L40.3665 2.86014L37.0228 3.69569Z" fill="black"/>
<path d="M36.4987 5.89796C36.2009 5.89796 36.1919 6.14018 36.1919 6.14018C36.1919 6.14018 36.1673 6.15796 36.183 6.27351C36.2322 6.19574 36.2569 6.16907 36.2569 6.16907C36.2905 6.17351 36.4271 6.21129 36.6421 6.05796C36.445 6.24462 36.5637 6.31574 36.5637 6.31574C36.5637 6.31574 36.5167 6.4624 36.6667 6.49129C36.6197 6.43129 36.6488 6.38018 36.6488 6.38018C36.6488 6.38018 36.8593 6.36018 36.8459 6.12685C36.8548 6.33796 36.9803 6.39129 36.9803 6.39129C36.9803 6.39129 36.9803 6.50685 37.1169 6.51796C37.043 6.45796 37.0609 6.36462 37.0609 6.36462C37.0609 6.36462 37.2378 6.24907 37.0877 6.04907C37.1773 6.00018 37.2512 5.86907 37.2512 5.86907C37.2512 5.86907 37.1281 5.82018 37.0721 5.7824C37.0452 5.72907 37.0676 5.4424 37.0676 5.4424L36.9937 5.07129L36.7832 5.64907C36.7921 5.56907 36.7966 5.89796 36.4987 5.89796Z" fill="#EF7D00"/>
<path d="M37.1155 6.5356C37.1132 6.5356 37.1155 6.5356 37.1155 6.5356C36.9901 6.52671 36.9654 6.43337 36.9609 6.40226C36.9363 6.38893 36.8803 6.34671 36.8467 6.25115C36.8042 6.36004 36.6989 6.38893 36.6608 6.39782C36.6563 6.41337 36.6519 6.44448 36.681 6.48004C36.6855 6.48671 36.6855 6.4956 36.6832 6.50226C36.6787 6.50893 36.672 6.51337 36.6631 6.51115C36.6138 6.50004 36.578 6.47782 36.5556 6.44448C36.5287 6.40004 36.5354 6.34671 36.5399 6.32448C36.5287 6.31337 36.513 6.29337 36.5085 6.26004C36.5041 6.22448 36.5175 6.18448 36.5444 6.14226C36.3988 6.2156 36.3025 6.20004 36.2622 6.19337C36.251 6.20448 36.2308 6.2356 36.1972 6.28671C36.1927 6.29337 36.186 6.29782 36.1771 6.2956C36.1681 6.29337 36.1636 6.28671 36.1614 6.28004C36.1502 6.18671 36.1592 6.15115 36.1704 6.1356C36.1748 6.09337 36.2129 5.88226 36.4951 5.88226C36.5735 5.88226 36.6362 5.85782 36.6832 5.81115C36.737 5.7556 36.7549 5.68671 36.7594 5.65782C36.7594 5.6556 36.7594 5.65337 36.7594 5.65115C36.7594 5.64226 36.7616 5.63115 36.7683 5.62448L36.9699 5.06893C36.9744 5.06004 36.9811 5.0556 36.9878 5.05782C36.9968 5.05782 37.0035 5.06448 37.0057 5.07337L37.0796 5.44448C37.0796 5.44671 37.0796 5.44893 37.0796 5.44893C37.0707 5.55337 37.0617 5.73115 37.0774 5.77337C37.1334 5.81115 37.2476 5.8556 37.2498 5.8556C37.2543 5.85782 37.2588 5.86226 37.261 5.86671C37.2633 5.87115 37.2633 5.87782 37.2588 5.88226C37.2543 5.88671 37.1916 6.00226 37.1043 6.05782C37.1468 6.12226 37.1625 6.18226 37.1535 6.24226C37.1401 6.31782 37.0886 6.36448 37.0662 6.38004C37.064 6.40004 37.064 6.46448 37.1177 6.50671C37.1244 6.51115 37.1267 6.52004 37.1222 6.52893C37.1311 6.53115 37.1244 6.5356 37.1155 6.5356ZM36.8646 6.13337C36.8758 6.32226 36.9811 6.36893 36.9878 6.37115C36.9945 6.3756 36.999 6.38226 36.999 6.38893C36.999 6.39337 37.0012 6.4556 37.064 6.48226C37.0304 6.42448 37.0393 6.36226 37.0393 6.35782C37.0416 6.35337 37.0438 6.34671 37.0483 6.34671C37.0483 6.34671 37.1132 6.30448 37.1244 6.22893C37.1334 6.1756 37.1155 6.11782 37.0707 6.06004C37.0662 6.0556 37.0662 6.04893 37.0662 6.04448C37.0684 6.04004 37.0707 6.03337 37.0774 6.03337C37.1423 6.00004 37.1983 5.91782 37.223 5.88004C37.1849 5.86448 37.1043 5.83115 37.0595 5.80004C37.0572 5.79782 37.055 5.7956 37.0528 5.79337C37.0259 5.74004 37.0416 5.50226 37.0483 5.44671L36.9878 5.14671L36.8042 5.65115C36.7974 5.71782 36.7347 5.92226 36.4973 5.92226C36.2219 5.92226 36.2107 6.1356 36.2107 6.14448C36.2107 6.14893 36.2084 6.1556 36.2062 6.15782C36.2039 6.16004 36.1972 6.1756 36.1995 6.22226C36.2286 6.17782 36.2443 6.16226 36.2465 6.16226C36.251 6.15782 36.2577 6.1556 36.2644 6.15782C36.2667 6.15782 36.2689 6.15782 36.2734 6.16004C36.3159 6.16671 36.4413 6.18893 36.6362 6.05115C36.6452 6.04671 36.6541 6.04671 36.6631 6.0556C36.672 6.06448 36.6675 6.07337 36.6608 6.08226C36.5668 6.17337 36.5511 6.23115 36.5533 6.26448C36.5578 6.2956 36.578 6.30893 36.578 6.30893C36.5847 6.31337 36.5892 6.32226 36.5869 6.33115C36.5869 6.33115 36.569 6.38893 36.5959 6.43337C36.6048 6.44671 36.616 6.46004 36.6317 6.46671C36.616 6.41782 36.6362 6.38226 36.6362 6.38004C36.6407 6.3756 36.6452 6.36893 36.6519 6.36893C36.6586 6.36893 36.8378 6.34893 36.831 6.14448C36.831 6.14004 36.831 6.14004 36.831 6.1356C36.831 6.12448 36.84 6.11782 36.849 6.1156C36.8602 6.1156 36.8669 6.12226 36.8691 6.13337C36.8646 6.12671 36.8646 6.13115 36.8646 6.13337Z" fill="black"/>
<path d="M37.9694 5.06679C37.9761 5.07123 38.1934 5.29345 38.4017 5.28012C38.4801 5.22012 38.2382 5.08901 38.2382 5.0579C38.3233 5.12901 38.6839 5.40901 38.9123 5.30901C39.0041 5.19123 38.7488 5.20679 38.4666 4.88457C38.6637 5.00234 39.1542 5.26457 39.3826 5.16457C39.4812 5.06901 38.872 4.77123 38.6682 4.5379L38.1441 4.29346L37.4297 4.82234L37.9694 5.06679Z" fill="#EF7D00"/>
<path d="M38.8043 5.35093C38.6789 5.35093 38.5422 5.28648 38.4303 5.21982C38.4347 5.23093 38.4392 5.24204 38.4392 5.25315C38.4392 5.26426 38.4347 5.28204 38.4168 5.29537C38.4123 5.2976 38.4101 5.29982 38.4056 5.29982C38.213 5.31093 38.0159 5.13759 37.9622 5.08204L37.4292 4.84648C37.4224 4.84204 37.418 4.83759 37.418 4.83093C37.418 4.82426 37.4202 4.81759 37.4247 4.81315L38.1391 4.28426C38.1436 4.27982 38.1526 4.27982 38.1593 4.28204L38.6833 4.52648C38.6856 4.52871 38.6878 4.53093 38.6901 4.53093C38.7752 4.62871 38.9387 4.74204 39.0842 4.84204C39.288 4.98204 39.4134 5.07093 39.4202 5.13982C39.4224 5.15759 39.4157 5.17093 39.4045 5.18204C39.4022 5.18426 39.4 5.18648 39.4 5.18648C39.194 5.27759 38.7976 5.09093 38.587 4.97315C38.6878 5.06426 38.7774 5.11759 38.8423 5.15537C38.9073 5.19315 38.9498 5.21759 38.9588 5.25537C38.9633 5.27537 38.9543 5.2976 38.9364 5.32204C38.9342 5.32426 38.9319 5.32648 38.9297 5.32648C38.8849 5.34426 38.8468 5.35093 38.8043 5.35093ZM38.2421 5.03982C38.2466 5.03982 38.2511 5.04204 38.2533 5.04426C38.2959 5.07982 38.6721 5.38871 38.9028 5.29315C38.9118 5.27982 38.9163 5.26871 38.914 5.25982C38.9095 5.23982 38.8692 5.21537 38.8177 5.18648C38.7304 5.13537 38.5938 5.05759 38.4549 4.89759C38.4482 4.89093 38.4482 4.87982 38.4549 4.87093C38.4616 4.86426 38.4728 4.86204 38.4795 4.86648C38.587 4.93093 39.1313 5.24871 39.3754 5.14871C39.3776 5.14426 39.3799 5.14426 39.3799 5.13759C39.3754 5.08426 39.2164 4.97537 39.0618 4.86871C38.9163 4.76871 38.7528 4.65537 38.6632 4.55537L38.1526 4.31759L37.4762 4.82204L37.9823 5.04648C37.9846 5.04648 37.9868 5.04871 37.9868 5.05093L37.9891 5.05315C38.0249 5.08871 38.2108 5.25982 38.39 5.25982C38.3944 5.25982 38.3944 5.25982 38.3989 5.25982C38.4034 5.25537 38.4034 5.25315 38.4034 5.24871C38.4034 5.21759 38.3317 5.16204 38.2914 5.12871C38.2444 5.09093 38.2242 5.07537 38.2242 5.05759C38.2242 5.05093 38.2287 5.04426 38.2354 5.03982C38.2354 5.04204 38.2377 5.03982 38.2421 5.03982Z" fill="black"/>
<path d="M37.166 3.25557C37.166 3.25557 37.4079 3.12445 38.3776 3.19112C38.4829 3.20223 39.0383 3.01779 39.2152 2.96445C39.4974 2.91557 40.3933 2.73779 40.6351 2.57112C40.8053 2.55334 40.5881 2.85779 40.3731 2.92668C40.1424 3.02223 39.3115 3.28223 39.0182 3.2489C39.372 3.25334 39.1749 3.51557 38.5859 3.39112C38.8681 3.53334 38.7628 3.55779 38.7628 3.55779C38.7628 3.55779 38.2657 3.58223 38.1335 3.48001C38.4672 3.59334 38.3306 3.63334 38.3306 3.63334C38.3306 3.63334 37.9902 3.66223 37.8334 3.59779C38.0753 3.66223 37.9499 3.70668 37.9499 3.70668C37.9499 3.70668 37.7528 3.73557 37.5915 3.68223C37.428 3.63112 37.1795 3.25557 37.166 3.25557Z" fill="#EF7D00"/>
<path d="M37.8215 3.7353C37.752 3.7353 37.6669 3.72864 37.5841 3.70197C37.4542 3.65975 37.2795 3.43308 37.1966 3.32419C37.1787 3.30197 37.1608 3.27753 37.1541 3.27086C37.1496 3.26864 37.1451 3.26419 37.1451 3.25975C37.1429 3.25086 37.1473 3.24197 37.1563 3.23753C37.1675 3.23308 37.4139 3.10419 38.3769 3.16864C38.4597 3.17975 38.8651 3.05086 39.0846 2.98197C39.1338 2.96641 39.1786 2.95308 39.2078 2.94419H39.21C39.5011 2.8953 40.3858 2.71752 40.6232 2.5553C40.6276 2.55308 40.6276 2.55086 40.6321 2.55086C40.6971 2.54419 40.7105 2.57752 40.7128 2.59308C40.7307 2.67975 40.5515 2.88864 40.3768 2.94419C40.1797 3.02641 39.5482 3.22864 39.1786 3.26419C39.1898 3.27308 39.1988 3.28197 39.2055 3.29308C39.2167 3.31308 39.2122 3.3353 39.1943 3.35753C39.1383 3.42641 38.9569 3.46641 38.6927 3.43086C38.7867 3.48864 38.8002 3.52197 38.7957 3.54197C38.7912 3.56419 38.7733 3.5753 38.7621 3.5753C38.7598 3.5753 38.7598 3.5753 38.7576 3.5753C38.7442 3.5753 38.5336 3.58641 38.35 3.56419C38.3679 3.58197 38.3724 3.5953 38.3702 3.60641C38.3702 3.63975 38.3321 3.65086 38.3276 3.65308C38.3254 3.65308 38.3231 3.65308 38.3231 3.65308C38.3119 3.6553 38.1417 3.66864 37.9872 3.65308C37.9917 3.65975 37.9939 3.66641 37.9939 3.6753C37.9961 3.70864 37.9536 3.72419 37.9491 3.72419C37.9469 3.72419 37.9469 3.72419 37.9446 3.72419C37.9491 3.72641 37.8954 3.7353 37.8215 3.7353ZM37.1988 3.26197C37.2056 3.27086 37.2168 3.28419 37.228 3.30197C37.3086 3.40864 37.4788 3.62864 37.5953 3.66641C37.7431 3.7153 37.9245 3.69308 37.9446 3.69086C37.9513 3.68641 37.9603 3.68197 37.9625 3.67975C37.9625 3.67975 37.9581 3.66419 37.8909 3.64197C37.8662 3.63753 37.8438 3.63086 37.8237 3.62197C37.8147 3.61753 37.8103 3.60864 37.8125 3.59753C37.817 3.58641 37.8259 3.58197 37.8371 3.58641C37.864 3.59308 37.8842 3.59975 37.9021 3.60641C38.0588 3.63975 38.2985 3.62419 38.3231 3.62197C38.3298 3.61975 38.3343 3.6153 38.3343 3.61308C38.3343 3.61086 38.3321 3.59308 38.2515 3.5553C38.1955 3.54419 38.1484 3.52641 38.1193 3.50197C38.1126 3.49753 38.1081 3.48641 38.1148 3.47753C38.1193 3.46864 38.1283 3.46641 38.1395 3.46864C38.1955 3.48641 38.2358 3.50419 38.2694 3.51753C38.4485 3.5553 38.7285 3.54419 38.7576 3.54419C38.7598 3.54419 38.7621 3.54197 38.7621 3.54197C38.7621 3.54197 38.7621 3.50864 38.5762 3.41308C38.5672 3.40864 38.565 3.39975 38.5672 3.38864C38.5717 3.37753 38.5784 3.3753 38.5896 3.37753C38.9099 3.44641 39.1226 3.3953 39.1674 3.33753C39.1786 3.32419 39.1742 3.31753 39.1719 3.3153C39.1652 3.29975 39.1338 3.28197 39.0689 3.2753C39.0487 3.2753 39.0308 3.27308 39.0129 3.27086C39.0017 3.26864 38.995 3.25975 38.995 3.25086C38.995 3.23975 39.004 3.23308 39.0129 3.23308C39.0308 3.23308 39.051 3.2353 39.0689 3.23753C39.0711 3.23753 39.0734 3.23753 39.0756 3.23753C39.4048 3.23753 40.1529 3.00197 40.3611 2.91308C40.5313 2.85753 40.6836 2.66197 40.6724 2.60641C40.6702 2.60197 40.668 2.59086 40.6388 2.59308C40.3903 2.75975 39.5079 2.9353 39.2167 2.98641C39.1854 2.9953 39.145 3.00864 39.0935 3.02419C38.7733 3.12641 38.4553 3.22197 38.3724 3.21308C37.5863 3.1553 37.2795 3.2353 37.1988 3.26197Z" fill="black"/>
<path d="M37.5542 5.18875L37.59 5.77097C37.59 5.77097 37.5721 5.79986 37.5542 5.81986C37.5363 5.83764 37.0996 5.75764 37.16 6.06208C37.16 6.18653 37.1645 6.21764 37.2541 6.28875C37.2295 6.20653 37.2362 6.15097 37.2362 6.15097C37.2362 6.15097 37.3594 6.21764 37.4803 6.03542C37.3997 6.21764 37.4557 6.28208 37.4758 6.28653C37.4937 6.31986 37.4422 6.46653 37.608 6.46208C37.5452 6.40653 37.5744 6.32875 37.5744 6.32875C37.5744 6.32875 37.7468 6.30208 37.6863 6.01986C37.749 5.96431 37.7737 6.01764 37.7737 6.01764C37.7737 6.01764 37.7916 6.18653 37.9439 6.15097C38.0133 6.18431 37.9327 6.27764 37.9327 6.27764C37.9327 6.27764 38.0424 6.27986 38.0738 6.19542C38.1051 6.11097 38.1455 5.95986 37.9641 5.89764C37.9417 5.83764 38.0357 5.83319 38.0357 5.83319C38.0357 5.83319 38.1499 5.86653 38.1835 5.91986C38.2171 5.97097 38.2059 5.78208 38.0626 5.76431C37.8879 5.75986 37.8767 5.72653 37.8767 5.71986C37.8767 5.71319 37.8476 5.29542 37.8342 5.17542L37.5542 5.18875Z" fill="#EF7D00"/>
<path d="M37.6055 6.47768C37.4667 6.47768 37.4667 6.37768 37.4644 6.32435C37.4644 6.31546 37.4644 6.30212 37.4622 6.29768C37.451 6.29101 37.442 6.2799 37.4353 6.26435C37.4241 6.23768 37.4152 6.19324 37.4308 6.12435C37.3592 6.18657 37.2942 6.18212 37.2584 6.17546C37.2584 6.19768 37.2629 6.23768 37.2763 6.28435C37.2785 6.29324 37.2763 6.30212 37.2696 6.30435C37.2629 6.30879 37.2539 6.30879 37.2472 6.30435C37.1487 6.23101 37.1442 6.19101 37.1442 6.06435C37.1307 5.99324 37.1419 5.93324 37.1778 5.89101C37.2539 5.7999 37.4174 5.80212 37.507 5.80435C37.5227 5.80435 37.5383 5.80435 37.5473 5.80435C37.5585 5.79324 37.5675 5.77768 37.5742 5.76879L37.5406 5.19323C37.5406 5.18212 37.5473 5.17323 37.5585 5.17323L37.8407 5.15546C37.8519 5.15546 37.8586 5.16212 37.8608 5.17323C37.8743 5.28879 37.9034 5.67546 37.9034 5.71546C37.9079 5.7199 37.937 5.7399 38.0714 5.74435H38.0736C38.1766 5.75768 38.2214 5.85101 38.2259 5.90657C38.2281 5.92879 38.2214 5.94435 38.208 5.94879C38.2013 5.95101 38.1878 5.95324 38.1744 5.93101C38.152 5.89546 38.0736 5.86435 38.0422 5.85323C38.0266 5.85546 37.9997 5.8599 37.993 5.87323C37.9907 5.87546 37.9885 5.87768 37.9907 5.88435C38.0512 5.90657 38.0938 5.94212 38.1139 5.98657C38.1408 6.04212 38.1363 6.11546 38.1027 6.20212C38.0646 6.29768 37.9482 6.29546 37.9415 6.29546C37.9347 6.29546 37.928 6.29101 37.9235 6.28435C37.9191 6.27768 37.9213 6.26879 37.928 6.26435C37.9392 6.25324 37.9661 6.21324 37.9616 6.18657C37.9616 6.18212 37.9571 6.17546 37.9504 6.17101C37.9079 6.1799 37.8676 6.17324 37.8362 6.15101C37.7802 6.11324 37.7668 6.0399 37.7645 6.02212C37.7623 6.01768 37.7578 6.01324 37.7511 6.01101C37.7421 6.00879 37.7309 6.01546 37.7175 6.02435C37.7377 6.13324 37.7287 6.21768 37.6884 6.27546C37.6593 6.31768 37.619 6.33324 37.601 6.3399C37.5966 6.3599 37.5898 6.40879 37.6302 6.44435C37.6346 6.44879 37.6391 6.45768 37.6346 6.46435C37.6302 6.47101 37.6234 6.47546 37.6167 6.47546C37.6078 6.47768 37.6055 6.47768 37.6055 6.47768ZM37.4846 6.01101C37.4891 6.01101 37.4913 6.01101 37.4935 6.01324C37.5025 6.01768 37.5047 6.02879 37.5025 6.03768C37.451 6.15324 37.46 6.21324 37.4689 6.2399C37.4756 6.25546 37.4823 6.26212 37.4846 6.26212C37.4891 6.26435 37.4935 6.26657 37.4958 6.27101C37.5025 6.28212 37.5025 6.2999 37.5047 6.32212C37.507 6.36879 37.507 6.4199 37.5675 6.43324C37.5383 6.37768 37.5585 6.31768 37.5607 6.31546C37.563 6.30879 37.5697 6.30435 37.5764 6.30435C37.5786 6.30435 37.619 6.29768 37.6526 6.25101C37.6862 6.1999 37.6951 6.1199 37.6727 6.01768C37.6705 6.01101 37.6727 6.00435 37.6772 5.9999C37.7041 5.97546 37.7309 5.96657 37.7533 5.96879C37.7825 5.97324 37.7959 5.9999 37.7959 6.00212C37.7959 6.00435 37.7981 6.00657 37.7981 6.00657C37.7981 6.00657 37.8071 6.07768 37.8541 6.11324C37.8788 6.13101 37.9079 6.13324 37.9437 6.12435C37.9482 6.12212 37.9527 6.12435 37.9571 6.12657C37.9773 6.13768 37.9907 6.15324 37.993 6.17324C37.9975 6.1999 37.9885 6.22657 37.9751 6.24657C38.0042 6.2399 38.0422 6.22212 38.0602 6.18212C38.0915 6.10435 38.0938 6.04435 38.0714 5.99546C38.0534 5.95546 38.0154 5.92657 37.9616 5.90879C37.9571 5.90657 37.9504 5.90212 37.9504 5.89768C37.9415 5.87101 37.9459 5.85546 37.9549 5.84435C37.9773 5.81101 38.0333 5.80657 38.04 5.80657C38.0422 5.80657 38.0445 5.80657 38.0467 5.80657C38.0579 5.81101 38.1318 5.83324 38.1789 5.87101C38.1744 5.8599 38.1677 5.84657 38.1609 5.83324C38.1453 5.80879 38.1162 5.78212 38.0691 5.77323C37.9325 5.76879 37.8653 5.74657 37.8653 5.70879C37.8653 5.69768 37.8384 5.32212 37.8228 5.18657L37.5786 5.20212L37.6122 5.76657C37.6122 5.77101 37.6122 5.77546 37.6078 5.77768C37.6078 5.7799 37.5876 5.80879 37.5697 5.82657C37.5607 5.83768 37.5473 5.83546 37.5047 5.83546C37.4286 5.83324 37.2718 5.83101 37.2069 5.90879C37.1778 5.94212 37.171 5.99101 37.18 6.05101C37.18 6.05324 37.18 6.05324 37.18 6.05546C37.18 6.15101 37.1822 6.18657 37.2248 6.23101C37.2158 6.17768 37.2203 6.14212 37.2203 6.1399C37.2226 6.13324 37.2248 6.12879 37.2315 6.12657C37.236 6.12212 37.2427 6.12212 37.2494 6.12657C37.2539 6.12879 37.3592 6.18212 37.4667 6.01546C37.4711 6.01546 37.4779 6.01101 37.4846 6.01101ZM37.9012 5.71324C37.9012 5.71324 37.9012 5.71546 37.9012 5.71324V5.71324Z" fill="black"/>
<path d="M38.1645 5.68674C38.1668 5.66007 37.8667 5.29118 37.9406 5.24452C38.0167 5.25785 38.1421 5.42674 38.2429 5.37118C38.2116 5.30674 38.122 5.34229 38.019 5.17563C37.916 4.98674 37.9025 4.70229 37.5397 4.39118C37.7726 4.71785 38.3012 4.91118 38.3236 4.81563C38.346 4.72007 37.8577 4.35785 37.8824 4.27118C37.9787 4.44896 38.4691 4.84896 38.8319 4.81563C38.8566 4.73785 38.5363 4.58452 38.4534 4.44007C38.2228 4.30007 37.6047 3.8134 37.5935 3.70229C37.3695 3.40452 37.2284 3.31563 37.1635 3.28007C37.1366 3.25341 37.1321 3.22674 37.1276 3.21118C36.9888 2.91341 37.1724 2.81563 37.2822 2.80229C37.3695 2.7934 37.3964 2.80674 37.4591 2.77563C37.3829 2.74896 37.3068 2.72452 37.2306 2.69785C37.3292 2.76229 37.5823 2.70674 37.5285 2.89563C37.6382 2.85785 37.8734 2.60229 37.262 2.54452C37.0627 2.33785 36.243 2.21785 36.0369 3.12674C36.0526 3.13785 36.0616 3.15118 36.1153 3.18452C35.8555 3.06896 35.159 2.98229 34.906 2.94452C34.2251 2.76674 33.5197 2.33563 33.4502 2.38896C33.3584 2.42452 33.8623 2.85118 33.8354 2.86007C33.401 2.62896 33.0023 2.46674 32.6328 2.31563C32.373 2.22674 32.1132 2.02007 32.0841 2.06007C31.99 2.24007 32.5006 2.6934 32.5969 2.74674C32.691 2.79785 33.4413 3.11563 33.4323 3.11785C32.3013 2.65118 32.1132 2.56674 32.055 2.5134C31.9542 2.4934 31.7123 2.19563 31.6451 2.21341C31.6093 2.24674 31.6832 2.71785 32.2229 2.92896C32.3103 2.98674 33.3786 3.33563 33.3674 3.36229C33.3629 3.36896 32.1446 2.90452 32.0975 2.88674C31.8624 2.80229 31.5735 2.50896 31.5197 2.54229C31.4682 2.57341 31.6518 2.89118 31.8915 2.99118C32.0169 3.04007 32.4939 3.25785 32.9239 3.3934C32.9508 3.40229 32.149 3.11785 31.7638 2.96896C31.5891 2.88229 31.5063 2.77118 31.4794 2.7934C31.4391 2.81785 31.5443 3.28674 32.7828 3.5534C32.8164 3.56452 33.2173 3.46674 33.1994 3.48007C33.1949 3.48452 32.7985 3.56229 32.7604 3.55785C32.7268 3.5534 32.5096 3.58229 32.5051 3.59118C32.4917 3.62452 32.5835 3.79118 33.224 3.75563C33.3047 3.75118 33.7503 3.60896 33.7123 3.64007C33.6943 3.65563 33.1076 3.82896 33.0628 3.83118C33.0247 3.83563 32.8187 3.85563 32.8097 3.87563C32.8008 3.90229 32.962 4.02229 33.3047 4.04229C33.6092 4.05785 34.1848 3.8734 34.1759 3.88452C34.1647 3.89563 33.6204 4.06674 33.6048 4.07563C33.5868 4.08674 33.3853 4.09563 33.3786 4.10896C33.3629 4.14229 33.6675 4.40229 34.5678 4.12674C34.4782 4.23785 34.0415 4.3134 34.0415 4.3334C34.0392 4.34674 34.1378 4.43563 34.2901 4.46452C34.3662 4.48007 34.4715 4.47563 34.5655 4.46229C34.7357 4.43118 34.9172 4.36896 35.1478 4.17563C35.1747 4.23563 34.5745 4.5134 34.6036 4.54007C34.7335 4.64896 35.1657 4.52674 35.1949 4.51118C35.2217 4.49785 36.028 4.08452 36.0257 4.03563C36.0369 4.09785 34.9888 4.61785 35 4.63785C35.0672 4.73563 35.4278 4.6334 35.4435 4.62452C35.4614 4.61563 35.9003 4.39785 35.9138 4.3934C35.925 4.38674 35.3964 4.67563 35.4435 4.72007C35.4211 4.90674 36.2721 4.59118 36.3393 4.55118C36.3729 4.53118 35.9317 4.72674 35.9294 4.82229C36.0705 5.04229 36.5274 4.97118 36.5991 4.92452C36.6327 4.90007 36.5565 5.08674 36.5812 5.07118C36.5901 5.06674 36.6797 4.96896 36.7133 4.90007C36.7021 4.96229 36.6528 5.05785 36.6237 5.16674C36.5946 5.27563 36.5856 5.40229 36.5453 5.53563C36.5364 5.5934 36.8253 5.42229 36.7827 5.01118C36.8074 5.22452 36.6909 5.62452 36.7223 5.64452C36.7827 5.68674 36.9529 5.44674 36.9686 5.28229C37.0179 5.36452 37.1231 5.53563 37.215 5.57563C37.2038 5.45118 37.2172 5.45785 37.1746 5.3334C37.1993 5.17118 37.2015 4.94674 37.2082 4.69118C37.4546 5.11785 37.5531 5.30007 37.4837 5.62674C37.5554 5.6534 37.6741 5.39785 37.6629 5.26674C37.7525 5.64229 38.1578 5.69563 38.1645 5.68674Z" fill="#EF7D00"/>
<path d="M38.1569 5.70641C38.1502 5.70641 38.1412 5.70641 38.13 5.70419C38.1143 5.70196 37.7963 5.65307 37.6709 5.36863C37.6485 5.47752 37.5903 5.59974 37.5343 5.64196C37.5074 5.65974 37.485 5.65974 37.4738 5.65307C37.4649 5.64863 37.4604 5.64196 37.4626 5.63085C37.5253 5.3353 37.4514 5.16641 37.2252 4.76863C37.2207 4.9953 37.214 5.18863 37.1939 5.33752C37.223 5.42863 37.2252 5.45085 37.2275 5.50641C37.2297 5.52418 37.2297 5.54863 37.2319 5.57752C37.2319 5.58419 37.2297 5.59085 37.223 5.5953C37.2185 5.59974 37.2118 5.59974 37.2051 5.59752C37.1222 5.56196 37.0349 5.42863 36.9766 5.33974C36.943 5.4753 36.8378 5.63307 36.7661 5.66641C36.7392 5.67752 36.7213 5.67307 36.7101 5.66419C36.69 5.65085 36.6922 5.6153 36.7213 5.45752C36.7258 5.43974 36.728 5.42418 36.7303 5.40418C36.6877 5.47752 36.6384 5.52863 36.5959 5.5553C36.569 5.57085 36.5489 5.57307 36.5354 5.56641C36.5265 5.56196 36.522 5.54863 36.5242 5.53752C36.5242 5.5353 36.5242 5.5353 36.5242 5.5353C36.5466 5.46196 36.5578 5.38863 36.5713 5.32196C36.5802 5.26863 36.5892 5.21752 36.6026 5.16863C36.6161 5.11974 36.634 5.07085 36.6496 5.03085C36.6228 5.06196 36.6004 5.08641 36.5892 5.0953C36.578 5.10196 36.569 5.09974 36.5623 5.0953C36.5466 5.08418 36.5511 5.06418 36.5668 5.00863C36.5713 4.9953 36.5757 4.9753 36.578 4.95974C36.5018 4.99085 36.3182 5.01752 36.1547 4.98641C36.0382 4.96418 35.9554 4.9153 35.9061 4.83974C35.9039 4.8353 35.9016 4.83307 35.9016 4.82863C35.9016 4.78863 35.9576 4.73974 36.0315 4.69307C35.8076 4.76863 35.5299 4.83974 35.4448 4.78641C35.4268 4.7753 35.4156 4.7553 35.4156 4.73085C35.4134 4.72641 35.4112 4.71974 35.4134 4.7153C35.4156 4.6953 35.4492 4.66196 35.5119 4.6153C35.4739 4.63307 35.447 4.64641 35.4448 4.64863C35.4403 4.65085 35.0573 4.77307 34.9767 4.65752C34.9767 4.65752 34.9767 4.6553 34.9744 4.6553C34.9655 4.63752 34.9632 4.63307 35.0685 4.57307C34.9207 4.60863 34.6811 4.64418 34.5825 4.56196C34.578 4.55752 34.5736 4.55085 34.5758 4.54196C34.578 4.52641 34.5937 4.51085 34.6788 4.46196C34.6363 4.47307 34.6004 4.47974 34.5624 4.48863C34.4526 4.50418 34.3518 4.50418 34.2779 4.49085C34.1391 4.46418 34.0159 4.37974 34.0137 4.33974C34.0137 4.31752 34.0293 4.31307 34.1391 4.28418C34.2264 4.25974 34.3518 4.22863 34.4437 4.18641C33.6105 4.41307 33.3687 4.15307 33.3664 4.15085C33.353 4.13307 33.3485 4.11974 33.353 4.10863C33.3619 4.09307 33.3799 4.09085 33.4963 4.07752C33.5299 4.07307 33.5792 4.06863 33.5881 4.06641C33.5993 4.06196 33.6307 4.05085 33.7292 4.01752C33.5769 4.04863 33.4157 4.07307 33.2947 4.06641C32.9812 4.04863 32.8177 3.95085 32.7886 3.90418C32.7819 3.89307 32.7796 3.88418 32.7819 3.87307C32.7886 3.85529 32.8155 3.84196 33.0215 3.81752C33.0327 3.81529 33.0439 3.81529 33.0484 3.81307C33.0596 3.81085 33.1156 3.79752 33.1872 3.77752C32.6632 3.80418 32.5243 3.69085 32.4885 3.63974C32.4751 3.61974 32.4706 3.59752 32.4751 3.58418C32.4818 3.56418 32.5714 3.55085 32.6475 3.54418C32.2466 3.44863 31.9331 3.32196 31.7158 3.1664C31.5344 3.03529 31.456 2.90863 31.4426 2.83307C31.4381 2.79974 31.4471 2.78418 31.4538 2.77752C31.4784 2.75752 31.5098 2.78196 31.5613 2.81974C31.6083 2.85529 31.671 2.90418 31.7562 2.94863C31.7629 2.95307 31.7718 2.95307 31.7785 2.95752C31.6083 2.8464 31.4807 2.6464 31.474 2.56418C31.4717 2.53752 31.4829 2.5264 31.4919 2.52196C31.5255 2.49974 31.5859 2.54196 31.7181 2.63974C31.7741 2.68196 31.8345 2.7264 31.8995 2.76863C31.7226 2.62196 31.633 2.44196 31.6083 2.30418C31.6016 2.26418 31.5971 2.21307 31.6173 2.19529C31.6195 2.19307 31.6218 2.19085 31.624 2.19085C31.6666 2.17974 31.736 2.23974 31.8435 2.33752C31.9152 2.40418 32.0003 2.48196 32.0428 2.49085C32.0473 2.49085 32.0495 2.49307 32.0518 2.49529C32.0854 2.52863 32.1839 2.57752 32.5087 2.71752C32.3429 2.5864 31.9577 2.21752 32.0495 2.0464L32.0518 2.04418C32.0764 2.01085 32.1324 2.04418 32.2601 2.11529C32.3631 2.17307 32.493 2.2464 32.6229 2.29085C32.9857 2.43752 33.344 2.5864 33.7382 2.78863C33.7225 2.77307 33.7046 2.75752 33.6889 2.73974C33.4874 2.54196 33.3933 2.43974 33.4045 2.38863C33.4067 2.37752 33.4134 2.36863 33.4246 2.36196C33.465 2.33529 33.5792 2.38863 33.8502 2.51085C34.1324 2.63974 34.5153 2.81529 34.8938 2.91529C34.9229 2.91974 34.9588 2.9264 35.0013 2.93085C35.2678 2.96863 35.7359 3.03307 36.0024 3.11752C36.0024 3.11529 36.0024 3.11307 36.0024 3.11085C36.1121 2.62418 36.3854 2.45307 36.5959 2.39529C36.8557 2.32418 37.1379 2.39974 37.2543 2.51529C37.5164 2.54196 37.6575 2.6064 37.6687 2.7064C37.6799 2.79752 37.5791 2.88196 37.5186 2.90196C37.5119 2.90418 37.5052 2.90196 37.5007 2.89752C37.4962 2.89307 37.494 2.8864 37.4962 2.87974C37.5074 2.8464 37.5052 2.81752 37.4917 2.79974C37.485 2.78863 37.4738 2.78196 37.4626 2.77307C37.4604 2.77752 37.4581 2.78196 37.4514 2.78418C37.4044 2.80418 37.3753 2.80418 37.335 2.8064C37.317 2.8064 37.2924 2.80863 37.2655 2.81085C37.2387 2.81529 37.1491 2.83307 37.102 2.91307C37.064 2.98196 37.0729 3.07752 37.1267 3.19529C37.1267 3.19529 37.1267 3.19752 37.1289 3.19974L37.1312 3.20418C37.1356 3.21974 37.1424 3.23752 37.1603 3.25974C37.2857 3.3264 37.4313 3.47085 37.5948 3.68641C37.597 3.69085 37.5992 3.69307 37.5992 3.69752C37.6104 3.79085 38.1905 4.26196 38.4503 4.42196C38.4548 4.42418 38.4548 4.42641 38.457 4.42863C38.4951 4.4953 38.5891 4.56641 38.672 4.62863C38.7773 4.70863 38.8556 4.76641 38.8377 4.81974C38.8355 4.82641 38.8288 4.83085 38.8198 4.83307C38.8064 4.8353 38.7907 4.8353 38.7772 4.8353C38.5824 4.8353 38.3562 4.72418 38.177 4.5953C38.2823 4.70196 38.3428 4.77307 38.3316 4.81752C38.3271 4.82863 38.3204 4.84863 38.2868 4.8553C38.2039 4.87085 37.9956 4.79974 37.8008 4.66863C37.8769 4.78641 37.9173 4.89752 37.9531 4.9953C37.9755 5.05752 37.9956 5.1153 38.0247 5.16418C38.083 5.25974 38.1345 5.28418 38.1793 5.30196C38.2084 5.3153 38.2353 5.32863 38.2509 5.35974C38.2554 5.36863 38.2509 5.37974 38.242 5.38641C38.1658 5.42863 38.0852 5.36641 38.018 5.3153C37.9889 5.29307 37.9598 5.27307 37.9396 5.26418C37.9307 5.3153 38.0471 5.48418 38.1099 5.5753C38.1658 5.6553 38.177 5.67307 38.1748 5.68641C38.1748 5.69085 38.1726 5.69085 38.1703 5.6953C38.177 5.70418 38.1703 5.70641 38.1569 5.70641ZM37.6597 5.2553C37.6687 5.2553 37.6776 5.25974 37.6776 5.26863C37.7538 5.56419 38.0382 5.65085 38.1323 5.66419C38.1211 5.64641 38.1031 5.61974 38.0852 5.5953C37.9822 5.44641 37.8993 5.3153 37.9105 5.25307C37.915 5.23974 37.9217 5.22863 37.9307 5.22418C37.9352 5.21974 37.9396 5.21974 37.9441 5.21974C37.9777 5.22641 38.0113 5.25307 38.0516 5.28196C38.1031 5.32196 38.1614 5.36418 38.2129 5.35752C38.2039 5.35085 38.1927 5.34418 38.1748 5.3353C38.13 5.3153 38.0695 5.28641 38.0046 5.18196C37.9755 5.12863 37.9553 5.07085 37.9307 5.00641C37.8859 4.88641 37.8344 4.74641 37.7157 4.5953C37.644 4.53752 37.5791 4.47085 37.5276 4.39974C37.5231 4.39085 37.5231 4.38196 37.532 4.37307C37.5388 4.36641 37.55 4.36641 37.5589 4.37307C37.6373 4.43974 37.6978 4.50418 37.747 4.56863C37.9576 4.73752 38.2174 4.83085 38.2957 4.8153C38.3002 4.8153 38.3092 4.81085 38.3114 4.80641C38.3204 4.76863 38.186 4.63974 38.0897 4.54418C37.9441 4.40196 37.8545 4.31307 37.8702 4.26196C37.8725 4.2553 37.8792 4.24863 37.8881 4.24863C37.8971 4.24641 37.9038 4.25307 37.9061 4.25974C38.0001 4.43307 38.4682 4.81307 38.8176 4.7953C38.8041 4.76196 38.7257 4.70196 38.6675 4.65752C38.5824 4.59307 38.4906 4.52196 38.4458 4.45085C38.2375 4.32196 37.6127 3.84641 37.5813 3.70641C37.4223 3.49529 37.2812 3.35529 37.1603 3.29307C37.158 3.29085 37.1558 3.29085 37.1558 3.28863C37.1289 3.25974 37.1222 3.23307 37.1155 3.21529V3.21307C37.055 3.08418 37.0483 2.97752 37.0931 2.89752C37.1468 2.80196 37.2543 2.77974 37.2857 2.77529C37.317 2.77085 37.3394 2.77085 37.3574 2.77085C37.3753 2.77085 37.3909 2.76863 37.4044 2.7664C37.3865 2.75974 37.3663 2.75307 37.3484 2.7464C37.3394 2.74196 37.3305 2.74196 37.3215 2.73752C37.2879 2.73085 37.2543 2.72196 37.2297 2.70418C37.2207 2.69974 37.2185 2.68863 37.223 2.67974C37.2275 2.67085 37.2387 2.66863 37.2476 2.66863C37.2745 2.67974 37.3036 2.68863 37.3327 2.69752C37.3462 2.70196 37.3618 2.70196 37.3775 2.7064C37.4469 2.71752 37.5164 2.72863 37.5477 2.77752C37.5589 2.79752 37.5656 2.81974 37.5634 2.84863C37.6127 2.81974 37.6619 2.76196 37.6552 2.71085C37.6507 2.66418 37.5903 2.58196 37.2678 2.55085C37.2633 2.55085 37.2588 2.54863 37.2566 2.5464C37.1536 2.43752 36.8826 2.36196 36.634 2.43085C36.4346 2.4864 36.1771 2.6464 36.0696 3.1064C36.0718 3.10863 36.0718 3.10863 36.0741 3.11085C36.0853 3.12196 36.1009 3.13307 36.139 3.15974C36.148 3.16418 36.1502 3.17752 36.1435 3.1864C36.1368 3.19529 36.1278 3.19752 36.1189 3.19529C35.8949 3.09529 35.3283 3.01529 35.0237 2.97307C34.9812 2.96863 34.9453 2.96196 34.914 2.95752H34.9117C34.531 2.85752 34.1436 2.67974 33.8614 2.54863C33.6844 2.46863 33.503 2.38418 33.4739 2.39529C33.4717 2.39752 33.4717 2.39752 33.4694 2.39752C33.465 2.43974 33.662 2.63085 33.7449 2.71085C33.8614 2.82418 33.8703 2.83529 33.8681 2.85307C33.8658 2.85974 33.8614 2.86418 33.8546 2.86863C33.8502 2.87085 33.8434 2.87085 33.839 2.8664C33.4112 2.63974 33.026 2.47974 32.6386 2.32418C32.5064 2.27974 32.3743 2.20418 32.269 2.14418C32.2041 2.10863 32.1324 2.0664 32.11 2.0664C32.0383 2.23085 32.5199 2.66863 32.6184 2.72196C32.6677 2.74863 32.8894 2.8464 33.0865 2.93085C33.3239 3.03307 33.4112 3.07307 33.4448 3.09085C33.447 3.09085 33.4493 3.09307 33.4493 3.09307V3.09529C33.4605 3.10418 33.4605 3.1064 33.4605 3.11307C33.4605 3.12196 33.456 3.12863 33.447 3.13085C33.4426 3.13307 33.4358 3.13307 33.4336 3.13085C32.3407 2.67974 32.1212 2.58418 32.054 2.5264C32.0003 2.51085 31.9219 2.43974 31.8413 2.36418C31.783 2.31085 31.6979 2.23307 31.6643 2.2264C31.6599 2.24418 31.6643 2.30196 31.6912 2.38196C31.7293 2.49085 31.8614 2.75974 32.2332 2.90418C32.2354 2.90418 32.2354 2.9064 32.2377 2.9064C32.2489 2.91307 32.2802 2.9264 32.3228 2.94418C32.3429 2.95307 32.3653 2.96196 32.39 2.97085C32.4101 2.97752 32.4325 2.9864 32.4549 2.99529C32.5624 3.03529 32.6923 3.08196 32.8177 3.1264C33.3127 3.30196 33.3821 3.33085 33.391 3.35085C33.3933 3.35529 33.3933 3.36196 33.391 3.36641C33.3888 3.37085 33.3866 3.37529 33.3799 3.37752C33.3687 3.38196 33.3664 3.38418 32.4415 3.03529C32.3922 3.01752 32.3474 2.99974 32.3093 2.9864C32.1929 2.94196 32.1055 2.90863 32.0943 2.9064C31.9689 2.86196 31.8278 2.75752 31.7158 2.67529C31.6442 2.62418 31.5591 2.55974 31.5344 2.55974C31.5322 2.56418 31.5344 2.57752 31.5434 2.60196C31.5859 2.71085 31.7315 2.90196 31.9017 2.97307C31.9286 2.98418 31.9667 2.99974 32.0182 3.02196C32.1257 3.0664 32.278 3.13307 32.4527 3.20196C32.6005 3.25529 32.7349 3.30418 32.8222 3.33529L32.9028 3.36418C32.914 3.36863 32.9207 3.37085 32.9275 3.37307C32.9297 3.37307 32.9319 3.37307 32.9319 3.37529C32.9476 3.38196 32.9499 3.38641 32.9454 3.39974C32.9409 3.41085 32.9297 3.41529 32.9185 3.41085C32.7572 3.35974 32.5893 3.29752 32.437 3.23752C32.2041 3.15307 31.9353 3.05529 31.7584 2.9864H31.7562C31.6666 2.93974 31.6016 2.89085 31.5524 2.85307C31.53 2.83529 31.5053 2.81752 31.4941 2.81085C31.4941 2.82196 31.4964 2.84863 31.521 2.89307C31.5859 3.01752 31.8413 3.33085 32.7886 3.53529C32.7908 3.53529 32.7908 3.53529 32.7931 3.53752C32.7953 3.53752 32.7976 3.53752 32.8043 3.53752C32.8356 3.53307 32.8804 3.52641 32.9297 3.51752C32.979 3.50641 33.0327 3.49752 33.0708 3.48863C33.2164 3.45752 33.2164 3.45752 33.2231 3.47529C33.2276 3.48418 33.2231 3.49307 33.2141 3.49974C33.2052 3.50641 33.0686 3.53307 32.9476 3.55307C32.8715 3.56863 32.8289 3.57529 32.8043 3.57752C32.7819 3.58196 32.7684 3.58196 32.7617 3.58196C32.7349 3.57752 32.5714 3.59752 32.5288 3.60863C32.531 3.61307 32.5355 3.62196 32.5445 3.63307C32.5848 3.67529 32.7304 3.77085 33.2253 3.74196C33.2634 3.73974 33.3888 3.70418 33.5008 3.67307C33.7247 3.61085 33.7247 3.61307 33.7337 3.63085C33.7359 3.63307 33.7404 3.64641 33.727 3.65752C33.6979 3.68196 33.1021 3.85085 33.0663 3.85529C33.0618 3.85529 33.0506 3.85752 33.0394 3.85974C32.9319 3.87085 32.8625 3.88196 32.8379 3.89085C32.8692 3.92418 33.017 4.01307 33.3104 4.02863C33.5411 4.03974 33.9308 3.93529 34.0988 3.89085C34.1883 3.86641 34.1883 3.86641 34.1973 3.87974C34.2018 3.88641 34.2018 3.89752 34.1928 3.90418C34.1861 3.91085 34.1682 3.91974 33.8636 4.01752C33.7539 4.05307 33.6329 4.09307 33.6172 4.09974C33.6172 4.09974 33.6172 4.09974 33.615 4.09974C33.6038 4.10418 33.5769 4.10863 33.5097 4.11529C33.4762 4.11974 33.4314 4.12418 33.4067 4.12641C33.4157 4.13529 33.4336 4.15085 33.4627 4.16641C33.5657 4.22196 33.8815 4.32418 34.5624 4.11529C34.5713 4.11307 34.5803 4.11529 34.5847 4.12196C34.5892 4.12863 34.5892 4.13974 34.5825 4.14418C34.5176 4.22418 34.3003 4.28196 34.157 4.31974C34.1234 4.32863 34.0876 4.33752 34.0696 4.34641C34.0965 4.37307 34.1771 4.42863 34.2936 4.45307C34.3608 4.46641 34.4593 4.46641 34.5624 4.45085C34.7191 4.42196 34.8983 4.36863 35.1334 4.16863C35.1379 4.16418 35.1446 4.16418 35.1514 4.16418C35.1558 4.16641 35.1626 4.16863 35.1648 4.17529C35.1827 4.21974 35.0999 4.2753 34.8199 4.42863C34.7482 4.47085 34.6564 4.51752 34.6273 4.54196C34.7594 4.62418 35.1491 4.51752 35.1827 4.49974C35.4537 4.36196 35.9666 4.08641 36.0024 4.03752C36.0046 4.02863 36.0114 4.02418 36.0203 4.02196C36.0315 4.01974 36.0382 4.02641 36.0405 4.03752C36.0405 4.03974 36.0405 4.04196 36.0405 4.04196C36.0405 4.04641 36.0405 4.05085 36.036 4.05529C36.0114 4.09974 35.868 4.18641 35.3462 4.46418C35.2074 4.53752 35.0663 4.61307 35.0237 4.64196C35.1021 4.69974 35.4022 4.62196 35.4291 4.60863C35.438 4.60418 35.5612 4.54196 35.6821 4.48418C35.7852 4.43307 35.8904 4.38196 35.8971 4.37752C35.9061 4.37307 35.9173 4.3753 35.924 4.38418C35.9263 4.38863 35.9307 4.39974 35.9151 4.41085C35.9151 4.41085 35.9151 4.41085 35.9128 4.41085C35.9128 4.41085 35.9106 4.41085 35.9106 4.41307C35.6127 4.57752 35.4671 4.68196 35.4515 4.71085C35.4537 4.7153 35.4537 4.71752 35.4537 4.72196C35.4515 4.73307 35.4559 4.73974 35.4649 4.74641C35.559 4.80863 36.0584 4.64196 36.2488 4.56418C36.2936 4.54196 36.3271 4.53085 36.3271 4.53085C36.3361 4.52863 36.3451 4.5353 36.3495 4.54196C36.3518 4.54418 36.354 4.55752 36.3383 4.56641C36.3294 4.57085 36.3025 4.58418 36.2622 4.59974C36.1502 4.6553 35.9531 4.76196 35.9397 4.8153C35.9822 4.87752 36.0562 4.91752 36.1592 4.93974C36.3361 4.97307 36.5377 4.93307 36.578 4.90641C36.5937 4.8953 36.6049 4.90196 36.6071 4.90418C36.625 4.9153 36.6183 4.93974 36.6004 5.00641C36.6004 5.00863 36.6004 5.01085 36.5981 5.01085C36.6273 4.97752 36.6676 4.92641 36.6877 4.88641C36.6922 4.87752 36.7012 4.8753 36.7124 4.8753C36.7213 4.87974 36.728 4.88641 36.7258 4.89752C36.7213 4.93085 36.7056 4.96863 36.6877 5.01307C36.6698 5.05974 36.6496 5.11085 36.6362 5.16641C36.625 5.2153 36.6161 5.26418 36.6071 5.3153C36.5959 5.37974 36.5847 5.44641 36.5645 5.5153C36.578 5.50863 36.6026 5.49085 36.6295 5.46196C36.6653 5.42196 36.7348 5.33085 36.7549 5.17974C36.7594 5.12863 36.7616 5.07752 36.7594 5.0353C36.7594 5.02418 36.7571 5.01752 36.7571 5.00641C36.7549 4.9953 36.7639 4.98641 36.7751 4.98641C36.7863 4.98418 36.7952 4.99307 36.7952 5.00418C36.7975 5.0153 36.7975 5.02418 36.7997 5.03752C36.8042 5.08641 36.8019 5.13307 36.7952 5.1753C36.7863 5.27085 36.7683 5.37307 36.7527 5.4553C36.7415 5.52641 36.7258 5.60418 36.7303 5.62641C36.7347 5.62641 36.7415 5.62419 36.7437 5.62196C36.8131 5.59085 36.9296 5.40196 36.943 5.2753C36.943 5.26641 36.9497 5.25974 36.9587 5.25752C36.9677 5.2553 36.9766 5.25974 36.9789 5.26641C37.0192 5.33085 37.1065 5.47752 37.1871 5.53307C37.1871 5.51974 37.1849 5.50641 37.1849 5.49752C37.1804 5.44196 37.1804 5.42418 37.1513 5.33307C37.1491 5.32863 37.1491 5.32863 37.1513 5.32418C37.1715 5.1753 37.1782 4.9753 37.1827 4.74196L37.1849 4.68641C37.1849 4.67752 37.1916 4.67085 37.1983 4.66863C37.2073 4.66641 37.2163 4.67085 37.2207 4.67752C37.4537 5.08418 37.5634 5.2753 37.5029 5.60196C37.5052 5.59974 37.5074 5.59752 37.5096 5.59752C37.5746 5.55085 37.6463 5.36196 37.6395 5.26418C37.6395 5.25307 37.6463 5.24641 37.6552 5.24418C37.6597 5.2553 37.6597 5.2553 37.6597 5.2553Z" fill="black"/>
<path d="M34.0771 2.97125C34.0771 2.97125 33.9092 3.08681 33.7031 3.08014C33.7546 3.26903 34.1846 3.12459 34.1846 3.12459C34.1846 3.12459 33.9764 3.33348 33.8285 3.36903C33.9181 3.4357 34.2921 3.41348 34.3548 3.38014C34.4176 3.34681 34.5295 3.21348 34.5295 3.21348C34.5295 3.21348 34.1443 3.61792 34.0883 3.6157C34.0816 3.66459 34.4937 3.64681 34.5766 3.57348C34.6617 3.50236 34.8767 3.39792 34.8767 3.39792C34.8767 3.39792 34.3145 3.7557 34.2877 3.7557C34.4982 3.80681 34.9215 3.6957 35.1925 3.54236C34.7916 3.78681 34.7557 3.82903 34.5497 3.91125C34.7311 3.94903 34.8252 4.06014 35.4388 3.81792C35.7904 3.66459 35.992 3.38903 35.992 3.38903C35.7725 3.6557 35.4299 3.88236 35.0446 4.10459C35.0222 4.14681 35.4522 4.31125 36.0009 3.79125" fill="#EF7D00"/>
<path d="M35.2463 4.17764C35.1388 4.17764 35.0694 4.15097 35.047 4.13541C35.0224 4.11764 35.0291 4.09764 35.0313 4.09319C35.0336 4.08875 35.0358 4.08875 35.038 4.08652C35.1747 4.00875 35.3113 3.9243 35.4412 3.83541C34.9261 4.03764 34.776 3.99319 34.6304 3.95097C34.6036 3.94208 34.5745 3.93541 34.5453 3.92875C34.5364 3.92652 34.5319 3.91986 34.5297 3.91097C34.5297 3.90208 34.5341 3.89319 34.5409 3.89319C34.6797 3.83764 34.7402 3.79986 34.8992 3.69986C34.9104 3.69319 34.9194 3.68652 34.9305 3.68208C34.6999 3.76652 34.4356 3.81319 34.2788 3.77541C34.2676 3.77319 34.2631 3.7643 34.2631 3.75541C34.2654 3.74652 34.2721 3.73986 34.2811 3.73764C34.2967 3.73319 34.3639 3.69319 34.4535 3.63764C34.3147 3.6643 34.1265 3.66652 34.0817 3.64208C34.0638 3.63097 34.0638 3.61541 34.0638 3.61097C34.0661 3.59986 34.075 3.59319 34.084 3.59541C34.1064 3.59097 34.1937 3.51541 34.299 3.41097C34.1691 3.43541 33.8914 3.4443 33.8108 3.38208C33.8063 3.37764 33.8018 3.37097 33.804 3.3643C33.8063 3.35764 33.8107 3.35097 33.8175 3.34875C33.9115 3.32653 34.0347 3.22875 34.1064 3.1643C34.0078 3.18875 33.8421 3.21986 33.748 3.16875C33.7122 3.15097 33.6898 3.12208 33.6786 3.0843C33.6764 3.07986 33.6786 3.07319 33.6831 3.06653C33.6876 3.06208 33.6943 3.05986 33.6988 3.05986C33.8981 3.06653 34.0593 2.95764 34.0616 2.95541C34.0705 2.94875 34.0817 2.95097 34.0885 2.95986C34.0952 2.96875 34.0929 2.97986 34.084 2.98653C34.0773 2.99097 33.925 3.09541 33.7279 3.09764C33.7368 3.11319 33.7503 3.1243 33.7682 3.13319C33.8936 3.19764 34.1736 3.1043 34.1758 3.1043C34.1848 3.09986 34.1937 3.1043 34.1982 3.11319C34.2027 3.11986 34.2027 3.13097 34.1937 3.13764C34.1848 3.14653 34.019 3.31319 33.8757 3.37097C33.9989 3.40875 34.2878 3.38875 34.3415 3.35986C34.3527 3.35319 34.3662 3.3443 34.3796 3.33319C34.4222 3.29097 34.467 3.2443 34.5117 3.19986C34.5185 3.19319 34.5297 3.19097 34.5386 3.19764C34.5476 3.2043 34.5476 3.21541 34.5409 3.2243C34.5364 3.22875 34.4692 3.30653 34.4087 3.35764C34.3079 3.45986 34.1892 3.57097 34.1243 3.61541C34.2116 3.63097 34.4916 3.61541 34.561 3.55986C34.6484 3.48875 34.8566 3.38653 34.8656 3.38208C34.8746 3.37764 34.8858 3.37986 34.8925 3.39097C34.897 3.39986 34.8947 3.41097 34.8858 3.41764C34.6148 3.58875 34.4356 3.69986 34.346 3.75097C34.5543 3.76875 34.9238 3.67541 35.1814 3.53097C35.1903 3.52652 35.2015 3.52875 35.2083 3.53764C35.2127 3.54652 35.2105 3.55764 35.2015 3.5643C35.0806 3.63764 34.9933 3.69319 34.9238 3.73764C34.785 3.8243 34.72 3.86652 34.6125 3.91319C34.6237 3.91764 34.6304 3.91764 34.6416 3.92208C34.7805 3.9643 34.9261 4.00652 35.4345 3.80652C35.5554 3.75541 35.6584 3.68652 35.7413 3.62208C35.8286 3.54653 35.9115 3.46875 35.9787 3.38653C35.9854 3.37764 35.9966 3.37541 36.0056 3.38208C36.0145 3.38875 36.0168 3.39986 36.01 3.40875C36.0056 3.41541 35.916 3.53764 35.7547 3.66208C35.5554 3.83097 35.3135 3.97986 35.0761 4.11986C35.0918 4.12875 35.1254 4.14208 35.1791 4.14652C35.2956 4.15986 35.6069 4.15097 35.9921 3.7843C35.9988 3.77764 36.0123 3.77764 36.019 3.7843C36.0257 3.79097 36.0257 3.8043 36.019 3.81097C35.6987 4.10652 35.4233 4.17764 35.2463 4.17764Z" fill="black"/>
<path d="M37.0605 4.09778C37.0605 4.09778 37.0964 4.25778 37.2464 4.37778C37.3942 4.5 37.4054 4.61778 37.4054 4.61778" fill="#EF7D00"/>
<path d="M37.4062 4.6378C37.395 4.6378 37.3883 4.63113 37.3883 4.62002C37.3883 4.6178 37.3749 4.50669 37.236 4.39335C37.0837 4.26891 37.0456 4.10891 37.0434 4.10224C37.0412 4.09113 37.0479 4.08224 37.0568 4.08002C37.068 4.0778 37.077 4.08446 37.0815 4.09335C37.0815 4.09558 37.1196 4.24669 37.2606 4.36224C37.4152 4.48669 37.4264 4.60891 37.4264 4.61335C37.4286 4.62446 37.4197 4.63335 37.4085 4.63335C37.4085 4.6378 37.4062 4.6378 37.4062 4.6378Z" fill="black"/>
<path d="M36.9863 3.06451C36.9863 3.06451 37.0378 3.20674 37.1901 3.29785C37.3447 3.38896 37.5798 3.67563 37.5977 3.72674C37.6156 3.78896 37.7052 4.23118 37.6985 4.27785" fill="#EF7D00"/>
<path d="M37.6986 4.29562C37.6964 4.29562 37.6964 4.29562 37.6941 4.29562C37.6829 4.2934 37.6762 4.28451 37.6785 4.2734C37.6852 4.23117 37.5978 3.79784 37.5777 3.73117C37.5598 3.68228 37.3291 3.40228 37.179 3.31339C37.0223 3.22006 36.9685 3.07784 36.9663 3.06895C36.9618 3.05784 36.9685 3.04895 36.9775 3.04451C36.9887 3.04006 36.9976 3.04673 37.0021 3.05562C37.0021 3.05784 37.0536 3.19339 37.1969 3.27784C37.3582 3.37117 37.5934 3.66451 37.6135 3.71562C37.6292 3.76895 37.7232 4.22228 37.7165 4.27562C37.7165 4.28895 37.7076 4.29562 37.6986 4.29562Z" fill="black"/>
<path d="M36.0416 3.28418C36.0528 3.33974 35.8222 3.61085 36.138 3.93307C35.8535 4.25085 35.8535 4.29085 35.8535 4.29085C35.8535 4.29085 36.0125 4.37085 36.2992 4.14862C36.7718 4.67529 36.6128 4.91751 36.6128 4.91751" fill="#EF7D00"/>
<path d="M36.6092 4.9353C36.6047 4.9353 36.6025 4.93308 36.598 4.93086C36.589 4.92641 36.5868 4.91308 36.5935 4.90419C36.5957 4.90197 36.7324 4.67086 36.2934 4.17308C36.009 4.38641 35.8499 4.30863 35.8432 4.30419C35.8365 4.29974 35.832 4.29308 35.832 4.28641C35.832 4.25752 35.9351 4.12641 36.1097 3.92863C35.8679 3.67308 35.9597 3.44419 36.0022 3.3353C36.0112 3.3153 36.0202 3.29086 36.0202 3.28419C36.0179 3.27308 36.0246 3.26419 36.0358 3.26197C36.047 3.25974 36.056 3.26641 36.0582 3.2753C36.0627 3.29308 36.0538 3.3153 36.0403 3.34863C35.9955 3.46197 35.9127 3.67086 36.1501 3.91308C36.1568 3.91974 36.1568 3.93086 36.1501 3.93974C35.9552 4.15752 35.8947 4.24419 35.8768 4.27308C35.9261 4.28419 36.065 4.29752 36.2822 4.12641C36.2912 4.11974 36.3001 4.12197 36.3091 4.12863C36.7839 4.65974 36.6316 4.90863 36.6249 4.91974C36.6226 4.93308 36.6159 4.9353 36.6092 4.9353Z" fill="black"/>
<path d="M36.5724 4.54456C36.5724 4.54456 36.5298 4.489 36.606 4.27789C36.6754 4.35567 36.7538 4.37123 36.7874 4.40234C36.821 4.43345 37.1771 4.48012 37.1995 4.69789" fill="#EF7D00"/>
<path d="M37.2005 4.71336C37.1893 4.71336 37.1826 4.7067 37.1826 4.69559C37.1669 4.54225 36.9631 4.48003 36.8534 4.44447C36.8086 4.43114 36.7884 4.42447 36.775 4.41336C36.7638 4.40225 36.7481 4.39559 36.7257 4.38447C36.6943 4.36892 36.654 4.3467 36.6137 4.31114C36.5577 4.48003 36.5868 4.53336 36.5868 4.53336C36.5913 4.54225 36.5913 4.55336 36.5824 4.56003C36.5734 4.5667 36.5622 4.56447 36.5555 4.55559C36.551 4.54892 36.5062 4.48447 36.5868 4.26892C36.5891 4.26225 36.5958 4.25781 36.6003 4.25781C36.607 4.25559 36.6137 4.26003 36.6182 4.26225C36.6607 4.30892 36.7055 4.33114 36.7414 4.34892C36.7638 4.36003 36.7839 4.37114 36.7974 4.38225C36.8018 4.3867 36.8332 4.39559 36.8601 4.40447C36.9765 4.44225 37.196 4.51114 37.2162 4.68892C37.2207 4.70225 37.2117 4.71336 37.2005 4.71336C37.2027 4.71336 37.2027 4.71336 37.2005 4.71336Z" fill="black"/>
<path d="M36.9905 2.56226C36.9905 2.54671 36.9189 2.40671 36.6523 2.58004C36.7957 2.58893 36.9368 2.66448 36.9905 2.56226Z" fill="#EF7D00"/>
<path d="M36.891 2.63325C36.8551 2.63325 36.8148 2.62436 36.7745 2.61769C36.7342 2.6088 36.6939 2.60213 36.6513 2.59991C36.6424 2.59991 36.6356 2.59325 36.6334 2.58658C36.6312 2.57769 36.6356 2.5688 36.6424 2.56658C36.8081 2.45769 36.9044 2.46658 36.9559 2.49547C36.9917 2.51325 37.0119 2.5488 37.0119 2.56658C37.0119 2.57102 37.0119 2.57325 37.0097 2.57547C36.9828 2.61991 36.9402 2.63325 36.891 2.63325ZM36.7118 2.5688C36.7364 2.57325 36.7588 2.57769 36.7812 2.57991C36.8775 2.59769 36.9402 2.60658 36.9716 2.55991C36.9671 2.55102 36.9537 2.53325 36.9268 2.52214C36.8887 2.50658 36.8238 2.50436 36.7118 2.5688Z" fill="black"/>
<path d="M39.543 3.20221C39.5564 3.20665 40.3403 3.36443 40.6045 3.28665C40.2708 3.6911 39.6034 3.41777 39.6034 3.41777C39.9304 3.50665 39.9439 3.50221 40.0491 3.58443C40.0827 3.66221 39.4467 3.62665 39.2361 3.51999C39.8184 3.68665 39.8319 3.67332 39.852 3.74221C39.8789 3.8311 38.8957 3.71777 38.8129 3.59999C39.0749 3.78443 39.2182 3.82221 39.3616 3.90443C39.1846 3.97554 38.8577 4.04665 38.2552 3.65999C39.0458 4.31554 39.7602 4.27332 39.8722 4.3911C39.5967 4.75999 38.5307 4.16888 38.0402 3.87332C37.5497 3.57554 39.113 4.59332 39.2585 4.57554C39.1869 4.67777 38.6695 4.58665 38.6359 4.53999" fill="#EF7D00"/>
<path d="M39.067 4.63777C39.0625 4.63777 39.0625 4.63777 39.058 4.63777C38.8968 4.63554 38.6437 4.5911 38.6146 4.54665C38.6101 4.53777 38.6101 4.52665 38.6191 4.51999C38.628 4.51554 38.6392 4.51554 38.6459 4.52443C38.6661 4.54888 38.9214 4.60665 39.1073 4.59554C39.1543 4.59332 39.1834 4.58665 39.2013 4.57999C39.0983 4.54665 38.8788 4.42665 38.5407 4.21999C38.3727 4.11777 37.9315 3.84221 37.9203 3.81999C37.9158 3.81332 37.9181 3.80221 37.9248 3.79777C37.936 3.78665 37.936 3.78665 38.0412 3.8511C38.4914 4.12443 39.553 4.71554 39.8374 4.38665C39.7971 4.35999 39.712 4.33999 39.6 4.31332C39.2954 4.24221 38.787 4.12221 38.2338 3.66443C38.2249 3.65777 38.2249 3.64665 38.2294 3.63777C38.2361 3.62888 38.2473 3.62665 38.2562 3.63332C38.8027 3.98443 39.114 3.95777 39.3066 3.8911C39.2708 3.87332 39.2327 3.85554 39.1946 3.83554C39.0983 3.7911 38.9886 3.73999 38.8408 3.63777C38.8139 3.62665 38.7982 3.6111 38.7893 3.59999C38.7848 3.59332 38.7848 3.58221 38.7915 3.57554C38.7982 3.56888 38.8094 3.56888 38.8161 3.57332C38.8341 3.58443 38.852 3.59777 38.8676 3.60888C38.9751 3.65777 39.2305 3.70888 39.4992 3.73332C39.703 3.7511 39.8038 3.74443 39.824 3.7311C39.8128 3.69554 39.7993 3.68888 39.5171 3.6111C39.5059 3.60665 39.497 3.60665 39.4858 3.60221C39.3783 3.58443 39.282 3.55777 39.2215 3.52665C39.2125 3.52221 39.2103 3.5111 39.2125 3.50221C39.217 3.49332 39.226 3.48888 39.2372 3.4911C39.3447 3.52221 39.432 3.54665 39.5037 3.56665C39.7209 3.60221 39.9718 3.60665 40.021 3.58221C39.965 3.53777 39.9337 3.52221 39.8486 3.49554C39.7008 3.46888 39.5955 3.42665 39.5933 3.42443C39.5843 3.41999 39.5798 3.4111 39.5821 3.39999C39.5866 3.38888 39.5955 3.38443 39.6067 3.38888C39.656 3.40221 39.6941 3.41332 39.7321 3.42221C39.7859 3.43554 39.8284 3.44888 39.862 3.45777C40.0681 3.49332 40.3547 3.49777 40.5473 3.30665C40.236 3.35332 39.5373 3.21332 39.5328 3.20888C39.5216 3.20443 39.5194 3.19332 39.5216 3.18221C39.5261 3.17332 39.5373 3.16888 39.5462 3.1711C39.5821 3.18221 40.3458 3.32665 40.5944 3.25332C40.6033 3.2511 40.6123 3.25332 40.6168 3.26221C40.6212 3.26888 40.6212 3.27999 40.6145 3.28443C40.4488 3.48443 40.2024 3.52221 39.9919 3.50888C40.0098 3.51999 40.0322 3.53554 40.0546 3.55554C40.0569 3.55777 40.0591 3.55999 40.0591 3.56221C40.0636 3.57554 40.0613 3.58888 40.0501 3.59999C40.0188 3.62888 39.8822 3.63554 39.7254 3.62665C39.8396 3.66221 39.8508 3.67554 39.8643 3.71999C39.8665 3.72665 39.8687 3.74665 39.8419 3.76221C39.7545 3.80443 39.282 3.75777 38.9998 3.68665C39.0804 3.73332 39.1498 3.76443 39.2125 3.79554C39.2641 3.81999 39.3156 3.84443 39.3648 3.87332C39.3716 3.87777 39.376 3.88443 39.376 3.8911C39.376 3.89777 39.3716 3.90443 39.3648 3.90888C39.2013 3.97554 38.9438 4.02888 38.5093 3.81554C38.9572 4.11777 39.3581 4.20888 39.6134 4.26888C39.7523 4.30221 39.8441 4.32443 39.8822 4.36221C39.8889 4.36888 39.8889 4.37999 39.8844 4.38665C39.8195 4.47332 39.712 4.5111 39.5776 4.5111C39.2976 4.5111 38.9012 4.34888 38.5384 4.16221C38.8564 4.35332 39.1969 4.54888 39.2506 4.53999C39.2573 4.53777 39.2663 4.54443 39.2685 4.54888C39.273 4.55332 39.273 4.56443 39.2685 4.56888C39.2439 4.61777 39.1767 4.63777 39.067 4.63777Z" fill="black"/>
<path d="M39.7433 3.8866C39.6514 3.89771 39.376 3.89771 39.3379 3.89104L39.7433 3.8866Z" fill="#EF7D00"/>
<path d="M39.4823 3.91544C39.4106 3.91544 39.3524 3.91322 39.3345 3.911C39.3233 3.90877 39.3165 3.89989 39.3188 3.88878C39.321 3.87766 39.33 3.871 39.3412 3.87322C39.3793 3.87766 39.6525 3.87766 39.7421 3.86655C39.7533 3.86433 39.7622 3.87322 39.7645 3.88433C39.7667 3.89544 39.7577 3.90433 39.7465 3.90655C39.6928 3.911 39.5786 3.91544 39.4823 3.91544Z" fill="black"/>
<path d="M33.8496 2.862C33.8496 2.862 34.4476 3.14867 34.7007 3.12867C34.6335 3.18422 34.5327 3.20867 34.5327 3.20867C34.5976 3.23311 34.7701 3.31756 35.0343 3.26422C34.9694 3.31978 34.8888 3.38644 34.8888 3.38644C34.8888 3.38644 35.115 3.46422 35.3703 3.342C35.2919 3.42867 35.2471 3.49533 35.2471 3.49533L35.424 3.50644" fill="#EF7D00"/>
<path d="M35.424 3.52197L35.2448 3.51085C35.2381 3.51085 35.2314 3.50641 35.2292 3.49974C35.2247 3.49308 35.2269 3.48641 35.2314 3.48197C35.2337 3.47974 35.2583 3.44419 35.3031 3.38863C35.0746 3.46641 34.891 3.40641 34.882 3.40197C34.8753 3.39974 34.8708 3.39308 34.8708 3.38641C34.8686 3.37974 34.8731 3.37308 34.8776 3.36863C34.8776 3.36863 34.9223 3.33308 34.9716 3.29085C34.7611 3.31752 34.6133 3.25752 34.5461 3.23308C34.5394 3.22863 34.5327 3.22863 34.5282 3.22641C34.5192 3.22197 34.5147 3.2153 34.517 3.20863C34.5192 3.19974 34.5237 3.19308 34.5327 3.19085C34.5327 3.19085 34.5886 3.17752 34.6424 3.14863C34.3669 3.12863 33.8675 2.89085 33.8451 2.87974C33.8339 2.8753 33.8317 2.86419 33.8361 2.85308C33.8406 2.84196 33.8518 2.83974 33.863 2.84419C33.8675 2.84863 34.4588 3.12863 34.7029 3.11085C34.7118 3.11085 34.7185 3.1153 34.7208 3.12197C34.7253 3.12863 34.723 3.13974 34.7163 3.14419C34.6782 3.17752 34.629 3.19974 34.5954 3.21308C34.6805 3.24641 34.8283 3.28863 35.0343 3.24641C35.0433 3.24419 35.0522 3.24863 35.0545 3.25752C35.059 3.26641 35.0567 3.2753 35.05 3.27974C35.0097 3.3153 34.9627 3.35308 34.9335 3.37752C35.0052 3.39308 35.1799 3.41308 35.3658 3.32641C35.3747 3.32197 35.3837 3.32419 35.3904 3.33085C35.3949 3.33752 35.3949 3.34863 35.3882 3.3553C35.3412 3.40641 35.3098 3.45085 35.2874 3.47752L35.4307 3.48641C35.4419 3.48641 35.4486 3.49752 35.4486 3.50641C35.4442 3.5153 35.4352 3.52197 35.424 3.52197Z" fill="black"/>
</g>
<rect x="0.80625" y="0.15" width="42.7" height="23.7" stroke="#EFEFF8" stroke-width="0.3"/>
<defs>
<clipPath id="clip0_684_44964">
<rect x="0.65625" width="43" height="24" fill="white"/>
</clipPath>
</defs>
</svg>
