<svg width="44" height="24" viewBox="0 0 44 24" fill="none" xmlns="http://www.w3.org/2000/svg">
<g clip-path="url(#clip0_684_44999)">
<path d="M0.320312 0H48.6953V24H0.320312V0Z" fill="#006400"/>
<path d="M0.320312 3.42871H48.6953V20.5709H0.320312V3.42871Z" fill="#FFD200"/>
<path d="M0.320312 6.85797H48.6953V17.1446H0.320312V6.85797Z" fill="#D40000"/>
<path d="M0.320312 10.2866H48.6953V13.7155H0.320312V10.2866Z" fill="black"/>
<path d="M0.320312 0V24L16.4453 12L0.320312 0Z" fill="black"/>
<path d="M-0.255859 25.1424V-1.14203L17.4055 12.0002L-0.255859 25.1424ZM0.895287 1.14242V22.8557L15.4839 12.0002L0.895287 1.14242Z" fill="black"/>
<path d="M0.320312 0V24L16.4453 12L0.320312 0Z" fill="white"/>
<path d="M6.45383 5.96661L9.64747 15.7199L1.28711 9.69106H11.6228L3.26018 15.7177L6.45383 5.96661Z" fill="#D40000"/>
<path fill-rule="evenodd" clip-rule="evenodd" d="M6.1894 8.33122C6.07742 8.20233 5.90945 8.13788 5.73924 8.149C5.56904 8.16011 5.41227 8.25122 5.32044 8.39566C5.22414 8.39122 5.1256 8.40011 5.0293 8.41788C4.93747 8.43344 4.86133 8.49122 4.81878 8.56677C4.77174 8.64677 4.76951 8.74233 4.8031 8.82677L5.13232 8.80677C5.26669 8.88233 5.3518 9.02455 5.35852 9.17566L5.39659 10.4757C5.33164 10.6046 5.30029 10.749 5.30477 10.8957C5.30925 11.0712 5.32044 11.2468 5.34732 11.4179C5.37419 11.5934 5.31596 11.769 5.19279 11.8934C5.00018 12.0868 4.83669 12.3046 4.69784 12.5401C4.59034 12.7201 4.6105 12.9468 4.74487 13.1068L5.12112 14.5512H7.94299L8.09976 13.329C8.16471 12.8112 8.46482 12.3468 8.91273 12.0712L9.02471 12.1023C9.09862 12.1246 9.17924 12.0912 9.21284 12.0223C9.24643 11.9534 9.22851 11.869 9.16581 11.8246L6.5007 9.75566L6.43128 8.88233C6.4044 8.67344 6.32378 8.48455 6.1894 8.33122Z" fill="#FFD200"/>
<path d="M6.16394 8.35341L6.21321 8.30452L6.21769 8.30896L6.16394 8.35341ZM6.15946 8.35118C6.14378 8.33563 6.12811 8.32007 6.11243 8.30452L6.15946 8.25118C6.17962 8.26674 6.19753 8.28452 6.21321 8.30452L6.15946 8.35118ZM6.15946 8.25118L6.13706 8.27785L6.15946 8.25118ZM6.11467 8.30452C6.09899 8.28896 6.08107 8.27785 6.06092 8.26674L6.09899 8.20674C6.11915 8.2223 6.14154 8.23785 6.15946 8.25341L6.11467 8.30452ZM6.06092 8.26674C5.9691 8.20674 5.85712 8.17563 5.7429 8.1823L5.73842 8.10896C5.86831 8.1023 5.99597 8.13119 6.10347 8.20452L6.06092 8.26674ZM5.7429 8.1823L5.73618 8.10896H5.74066L5.7429 8.1823ZM5.73394 8.11118L5.73842 8.14452L5.73394 8.11118ZM5.7429 8.1823C5.7205 8.1823 5.69587 8.18674 5.67795 8.18896L5.66227 8.12007C5.68915 8.11563 5.71154 8.11341 5.73842 8.10896L5.7429 8.1823ZM5.67571 8.19341C5.65331 8.19785 5.63316 8.20452 5.61524 8.21341L5.59285 8.14452C5.61524 8.13785 5.63988 8.12896 5.66675 8.12452L5.67571 8.19341ZM5.61076 8.20896C5.50774 8.24674 5.41592 8.31563 5.35321 8.41119L5.29274 8.37341C5.36217 8.2623 5.46519 8.1823 5.58837 8.14007L5.61076 8.20896ZM5.35321 8.41119L5.32186 8.42674V8.39341L5.35321 8.41119ZM5.3241 8.43118C5.31962 8.43118 5.31738 8.43118 5.3129 8.43118V8.35785C5.31738 8.35785 5.31962 8.35785 5.3241 8.35785V8.43118ZM5.3129 8.43118V8.39785V8.43118ZM5.3129 8.43118C5.3017 8.43118 5.28602 8.43118 5.27482 8.43118V8.35785C5.2905 8.35785 5.3017 8.35785 5.31738 8.35785L5.3129 8.43118ZM5.27259 8.43118C5.26139 8.43118 5.24571 8.43118 5.23451 8.43118L5.23003 8.35785C5.24123 8.35785 5.25691 8.35785 5.27259 8.35785V8.43118ZM5.23451 8.43118C5.16956 8.43563 5.10462 8.43785 5.03967 8.45118L5.02847 8.37785C5.0979 8.36674 5.16732 8.35785 5.23675 8.35563V8.43118H5.23451ZM5.03967 8.44896L5.02399 8.38007L5.03967 8.44896ZM5.02399 8.38007L5.03071 8.41341L5.02399 8.38007ZM5.03519 8.44896C5.02399 8.45341 5.01279 8.45341 5.0016 8.45563L4.9792 8.38674C4.99488 8.3823 5.00607 8.38007 5.02175 8.37563L5.03519 8.44896ZM5.00384 8.45785C4.99264 8.4623 4.98368 8.46452 4.97248 8.46896L4.94113 8.40452C4.95232 8.40007 4.968 8.39341 4.9792 8.38896L5.00384 8.45785ZM4.94337 8.40452L4.95904 8.43785L4.94337 8.40452ZM4.97472 8.46896C4.92545 8.49119 4.87842 8.52896 4.85154 8.58007L4.7866 8.54674C4.82019 8.4823 4.87842 8.43341 4.94337 8.4023L4.97472 8.46896ZM4.7866 8.54896L4.81795 8.56452L4.7866 8.54896ZM4.85154 8.5823L4.7866 8.55118L4.79108 8.54674L4.85154 8.5823ZM4.7866 8.55341L4.81795 8.56896L4.7866 8.55341ZM4.84706 8.58674C4.84259 8.59341 4.83587 8.60674 4.83139 8.61785L4.76196 8.59119C4.76644 8.58007 4.77316 8.56452 4.78212 8.55341L4.84706 8.58674ZM4.76644 8.59119L4.80003 8.6023L4.76644 8.59119ZM4.83587 8.61785C4.83139 8.62896 4.82915 8.64007 4.82467 8.64896L4.75524 8.63341C4.75972 8.61785 4.76196 8.60674 4.76644 8.59563L4.83587 8.61785ZM4.75524 8.62896L4.78884 8.63563L4.75524 8.62896ZM4.82467 8.64674C4.81347 8.70007 4.81795 8.75785 4.83587 8.81119L4.77092 8.83785C4.74404 8.77341 4.73956 8.70007 4.75524 8.63118L4.82467 8.64674ZM4.80451 8.86007L4.77092 8.83785L4.80451 8.8223V8.86007ZM4.80227 8.78896L5.13149 8.76896L5.13597 8.8423L4.80675 8.8623L4.80227 8.78896ZM5.13149 8.76896L5.15165 8.77341L5.13149 8.80452V8.76896ZM5.15165 8.77341C5.15613 8.77785 5.15837 8.77785 5.15837 8.77785L5.12029 8.83785C5.11581 8.83341 5.11357 8.83341 5.11357 8.83341L5.15165 8.77341ZM5.15837 8.77785C5.17852 8.78896 5.19644 8.80452 5.2166 8.81563L5.16956 8.87341C5.15389 8.8623 5.13821 8.85118 5.12029 8.84007L5.15837 8.77785ZM5.2166 8.81563C5.23675 8.83119 5.25019 8.84674 5.26587 8.8623L5.21212 8.91119C5.20092 8.89563 5.18524 8.88452 5.16956 8.87341L5.2166 8.81563ZM5.26587 8.86452C5.34201 8.94896 5.39352 9.05785 5.39352 9.17341L5.31962 9.17785C5.31514 9.07785 5.27706 8.98452 5.21212 8.91563L5.26587 8.86452ZM5.39576 9.17341L5.43384 10.4734L5.35993 10.4779L5.32186 9.17785L5.39576 9.17341ZM5.4316 10.4734L5.42712 10.489L5.39576 10.4734H5.4316ZM5.42712 10.4912C5.42264 10.4956 5.42264 10.5023 5.4204 10.5067L5.35545 10.4756C5.35993 10.4712 5.35993 10.4645 5.36217 10.4556L5.42712 10.4912ZM5.35321 10.4756L5.3868 10.4912L5.35321 10.4756ZM5.4204 10.5067C5.41368 10.5267 5.40472 10.5401 5.398 10.5601L5.32858 10.5334C5.33529 10.5134 5.34425 10.4956 5.35097 10.4756L5.4204 10.5067ZM5.33081 10.5334L5.36441 10.5445L5.33081 10.5334ZM5.39576 10.5601C5.38904 10.5801 5.38456 10.5934 5.37561 10.6134L5.30618 10.5912C5.3129 10.5712 5.31738 10.5534 5.32634 10.5334L5.39576 10.5601ZM5.37785 10.6134C5.35097 10.7045 5.33529 10.7956 5.33529 10.8912H5.26139C5.26139 10.789 5.27706 10.6845 5.30842 10.5912L5.37785 10.6134ZM5.33977 10.8912C5.33977 10.8979 5.33977 10.9023 5.33977 10.9112H5.26587C5.26587 10.9045 5.26587 10.9001 5.26587 10.8912H5.33977ZM5.33977 10.9112C5.33977 10.9334 5.33977 10.9579 5.34425 10.9845L5.27035 10.989C5.27035 10.9667 5.27035 10.9401 5.26587 10.9156L5.33977 10.9112ZM5.33977 10.9823C5.33977 11.0045 5.34425 11.029 5.34425 11.0556L5.27035 11.0601C5.27035 11.0379 5.26587 11.0112 5.26587 10.9867L5.33977 10.9823ZM5.34201 11.0556C5.34873 11.1734 5.36217 11.2912 5.37561 11.409L5.3017 11.4201C5.28154 11.2979 5.27035 11.1801 5.26363 11.0579L5.34201 11.0556ZM5.38009 11.409L5.30618 11.4201L5.38009 11.409ZM5.38009 11.4134L5.34649 11.4179L5.38009 11.4134ZM5.38009 11.4134C5.38456 11.4401 5.3868 11.4667 5.3868 11.489H5.31514C5.31514 11.4667 5.31066 11.4423 5.31066 11.4201L5.38009 11.4134ZM5.38456 11.489C5.38456 11.5156 5.38456 11.5379 5.38009 11.5645L5.30618 11.5579C5.31066 11.5356 5.31066 11.5112 5.31066 11.489H5.38456ZM5.38009 11.5667C5.36441 11.6956 5.30618 11.8179 5.21212 11.9179L5.16285 11.869C5.24795 11.7845 5.29722 11.6779 5.30842 11.5601L5.38009 11.5667ZM5.21212 11.9156L5.18524 11.889L5.21212 11.9156ZM5.21212 11.9156C5.21212 11.9156 5.21884 11.909 5.2166 11.9112L5.15613 11.8734C5.16061 11.869 5.16061 11.869 5.16061 11.8667L5.21212 11.9156ZM5.21884 11.909L5.21436 11.9134L5.18748 11.8867L5.21884 11.909ZM5.21212 11.9156C5.18972 11.9423 5.16285 11.969 5.13597 12.0001L5.08222 11.9512C5.10462 11.9245 5.13149 11.8979 5.16285 11.8667L5.21212 11.9156ZM5.08222 11.9512L5.1091 11.9734L5.08222 11.9512ZM5.13597 11.9956C5.1091 12.0223 5.0867 12.0534 5.05983 12.0801L5.00607 12.0334C5.03295 12.0023 5.05535 11.9756 5.08222 11.9467L5.13597 11.9956ZM5.00384 12.0334L5.03071 12.0556L5.00384 12.0334ZM5.05759 12.0845C4.92993 12.2334 4.82019 12.389 4.71941 12.5579L4.65894 12.5245C4.75972 12.3534 4.87394 12.1934 5.00384 12.0401L5.05759 12.0845ZM4.65894 12.5179L4.69029 12.5379L4.65894 12.5179ZM4.72389 12.5556L4.65894 12.5223V12.5179L4.72389 12.5556ZM4.72165 12.5556C4.70597 12.5779 4.69477 12.6045 4.68805 12.629L4.61863 12.6067C4.62982 12.5756 4.64102 12.549 4.6567 12.5223L4.72165 12.5556ZM4.68581 12.629C4.6791 12.6556 4.67014 12.6779 4.66566 12.7045L4.59175 12.6934C4.59623 12.6623 4.60295 12.6334 4.61415 12.6067L4.68581 12.629ZM4.6679 12.7045C4.6455 12.8334 4.6791 12.9756 4.76868 13.0823L4.71045 13.129C4.60743 13.0067 4.56936 12.8467 4.59623 12.6956L4.6679 12.7045ZM4.76644 13.0823L4.77316 13.0979L4.73956 13.1045L4.76644 13.0823ZM4.7754 13.0979L5.15165 14.5423L5.08222 14.5623L4.70597 13.1179L4.7754 13.0979ZM5.11134 14.5823L5.07774 14.5556L5.11134 14.549V14.5823ZM5.11134 14.5112H7.92873V14.5845H5.10686L5.11134 14.5112ZM7.96904 14.5534L7.93545 14.5845V14.5512L7.96904 14.5534ZM7.89962 14.5401L8.05639 13.3179L8.13029 13.3245L7.97352 14.5467L7.89962 14.5401ZM8.12581 13.329L8.09222 13.3245L8.12581 13.329ZM8.05415 13.3179C8.05415 13.329 8.05639 13.3134 8.05415 13.3179L8.12805 13.3245C8.12805 13.3201 8.12805 13.3356 8.12805 13.3245L8.05415 13.3179ZM8.12581 13.3267L8.09222 13.3223L8.12581 13.3267ZM8.05415 13.3179C8.06534 13.2423 8.07654 13.169 8.0967 13.1001L8.16613 13.1201C8.14597 13.189 8.13477 13.2601 8.12357 13.329L8.05415 13.3179ZM8.09894 13.0979C8.11909 13.0245 8.14149 12.9579 8.16837 12.889L8.23779 12.9156C8.21092 12.9801 8.18852 13.049 8.17285 13.1179L8.09894 13.0979ZM8.16389 12.8867C8.30274 12.5356 8.55133 12.2356 8.88279 12.0334L8.92087 12.0934C8.60508 12.2867 8.36321 12.5779 8.22883 12.9134L8.16389 12.8867ZM8.88727 12.0334L8.91863 12.029L8.90743 12.0623L8.88727 12.0334ZM8.91415 12.0312L9.02613 12.0623L9.00597 12.1312L8.89399 12.1001L8.91415 12.0312ZM9.02389 12.0601L9.01269 12.0934L9.02389 12.0601ZM9.02389 12.0601L9.00373 12.129L9.02389 12.0601ZM9.00597 12.129L9.01269 12.0956L9.00597 12.129ZM9.02389 12.0601C9.03061 12.0645 9.03956 12.0645 9.04628 12.0645L9.0418 12.1379C9.0306 12.1379 9.01493 12.1334 9.00373 12.1312L9.02389 12.0601ZM9.05076 12.0645C9.05748 12.0645 9.06644 12.0645 9.07316 12.0645L9.07988 12.1379C9.06868 12.1379 9.053 12.1379 9.0418 12.1379L9.05076 12.0645ZM9.0754 12.0645C9.11795 12.0601 9.15154 12.0334 9.1717 11.9956L9.23665 12.0267C9.20529 12.0867 9.1493 12.1267 9.08212 12.1334L9.0754 12.0645ZM9.23665 12.0312L9.20529 12.0156L9.23665 12.0312ZM9.16946 11.9956L9.23441 12.0267L9.16946 11.9956ZM9.16946 11.9956C9.17394 11.989 9.17618 11.9801 9.17618 11.9734L9.2456 11.9934C9.24113 12.0045 9.23889 12.0156 9.22993 12.0267L9.16946 11.9956ZM9.25008 11.9934L9.21649 11.9867L9.25008 11.9934ZM9.1829 11.9734C9.18738 11.9667 9.18738 11.9579 9.18738 11.9512L9.26128 11.9556C9.26128 11.9667 9.2568 11.9779 9.25456 11.9934L9.1829 11.9734ZM9.25456 11.9534L9.22097 11.949L9.25456 11.9534ZM9.18514 11.9512C9.18962 11.909 9.16946 11.8712 9.13811 11.8445L9.18514 11.7867C9.23889 11.829 9.26576 11.8934 9.26128 11.9534L9.18514 11.9512ZM9.13587 11.8445L6.46852 9.77563L6.51555 9.71785L9.1829 11.7867L9.13587 11.8445ZM6.46852 9.77119L6.45285 9.74452L6.48644 9.74007L6.46852 9.77119ZM6.45508 9.74896L6.38566 8.87563L6.45956 8.87119L6.52899 9.74452L6.45508 9.74896ZM6.38342 8.87563L6.45732 8.86896V8.87341L6.38342 8.87563ZM6.45508 8.86896L6.42149 8.87341L6.45508 8.86896ZM6.38342 8.87341C6.37894 8.84674 6.3767 8.82007 6.37222 8.79341L6.44613 8.7823C6.45061 8.81341 6.45285 8.84007 6.45732 8.86896L6.38342 8.87341ZM6.37446 8.79341C6.36998 8.76674 6.36326 8.74007 6.3543 8.71341L6.42373 8.69341C6.43045 8.72007 6.43941 8.75119 6.44389 8.77785L6.37446 8.79341ZM6.35654 8.71341C6.32295 8.58007 6.25352 8.45785 6.16394 8.35118L6.21769 8.30452C6.31847 8.41785 6.38566 8.55119 6.42597 8.69341" fill="black"/>
<path d="M6.18338 10.6933L6.11396 10.6733C6.11396 10.6733 6.11396 10.6733 6.11396 10.6689L6.18338 10.6933ZM6.18338 10.6978L6.14979 10.6867L6.18338 10.6978ZM6.18338 10.6978C6.17666 10.7178 6.17219 10.7356 6.16771 10.7556L6.09828 10.74C6.10276 10.7178 6.10948 10.6933 6.11844 10.6756L6.18338 10.6978ZM6.16771 10.7533C6.16323 10.7733 6.16099 10.7911 6.16099 10.8111L6.08708 10.8044C6.09156 10.7822 6.09156 10.7578 6.09828 10.74L6.16771 10.7533ZM6.15651 10.8111C6.14979 10.9111 6.16771 11.0133 6.21474 11.1L6.14979 11.1333C6.09604 11.0311 6.07364 10.9156 6.08484 10.8022L6.15651 10.8111ZM6.2125 11.1L6.14755 11.1333L6.2125 11.1ZM6.2125 11.1044C6.21922 11.1244 6.23265 11.1378 6.24385 11.1533L6.18338 11.1956C6.17219 11.1756 6.16099 11.1578 6.14979 11.1378L6.2125 11.1044ZM6.24833 11.1533C6.25953 11.1689 6.27073 11.1844 6.28193 11.2L6.22818 11.2467C6.2125 11.2311 6.2013 11.2133 6.18562 11.1933L6.24833 11.1533ZM6.28193 11.2C6.34687 11.2756 6.43646 11.3333 6.535 11.36L6.51484 11.4289C6.40286 11.3978 6.30432 11.3333 6.22594 11.2467" fill="black"/>
<path d="M6.5088 9.77582L5.41365 10.518L5.37109 10.458L6.46625 9.71582" fill="black"/>
<path fill-rule="evenodd" clip-rule="evenodd" d="M5.90523 8.59795C5.90523 8.51795 5.84028 8.45795 5.76414 8.45795C5.68799 8.45795 5.62305 8.52239 5.62305 8.59795C5.62305 8.67795 5.68799 8.73795 5.76414 8.73795C5.84476 8.74017 5.90523 8.6735 5.90523 8.59795Z" fill="#FFD200"/>
<path d="M5.87094 8.59772H5.94485H5.87094ZM5.87094 8.59328C5.87094 8.56217 5.85974 8.5355 5.83959 8.51772L5.88886 8.46884C5.92021 8.49995 5.94261 8.54439 5.94261 8.5955H5.87094V8.59328ZM5.83959 8.52217C5.81943 8.50217 5.79255 8.49106 5.76344 8.49106V8.41772C5.81271 8.41772 5.85526 8.43773 5.8911 8.47106L5.83959 8.52217ZM5.76344 8.41995V8.45328V8.41995ZM5.76344 8.49106V8.41772V8.49106ZM5.76344 8.49106V8.41772V8.49106ZM5.76344 8.49106C5.73209 8.49106 5.70521 8.50217 5.68729 8.52217L5.63802 8.47328C5.66938 8.44217 5.71417 8.41995 5.76568 8.41995V8.49106H5.76344ZM5.68729 8.52217C5.66714 8.54217 5.65594 8.56884 5.65594 8.59772H5.58203C5.58203 8.54884 5.60219 8.50661 5.63578 8.47106L5.68729 8.52217ZM5.58203 8.59328H5.61563H5.58203ZM5.65594 8.59328H5.58203H5.65594ZM5.65594 8.59772H5.58203H5.65594ZM5.65594 8.59772C5.65594 8.62884 5.66714 8.6555 5.68729 8.67328L5.63802 8.72217C5.60667 8.69106 5.58427 8.64661 5.58427 8.5955H5.65594V8.59772ZM5.68729 8.67106C5.70745 8.69106 5.73432 8.70217 5.76344 8.70217V8.7755C5.71417 8.7755 5.67162 8.7555 5.63578 8.72217L5.68729 8.67106ZM5.76344 8.77328V8.73995V8.77328ZM5.76344 8.70439V8.77772V8.70439ZM5.76344 8.70439V8.77772V8.70439ZM5.76344 8.70439C5.79479 8.70439 5.82167 8.69328 5.83959 8.67328L5.88886 8.72217C5.8575 8.75328 5.81271 8.7755 5.7612 8.7755V8.70439H5.76344ZM5.83959 8.67106C5.85974 8.65106 5.87094 8.62439 5.87094 8.5955H5.94485C5.94485 8.64439 5.92469 8.68661 5.8911 8.72217L5.83959 8.67106ZM5.94261 8.59772H5.90901H5.94261ZM5.87094 8.59772H5.94485H5.87094Z" fill="black"/>
<path d="M5.61914 12L5.65273 12.0645H5.64825L5.61914 12ZM5.65273 12.06L5.63706 12.0289L5.65273 12.06ZM5.61914 12C5.65049 11.9845 5.67737 11.9689 5.70424 11.9511L5.7468 12.0089C5.71544 12.0311 5.68633 12.0511 5.65497 12.0667L5.61914 12ZM5.702 11.9467C5.72888 11.9267 5.75128 11.9045 5.77591 11.8822L5.82966 11.9311C5.80726 11.9578 5.77591 11.98 5.74904 12.0045L5.702 11.9467ZM5.77591 11.8867C5.89013 11.7689 5.94836 11.6089 5.93268 11.44L6.00659 11.4333C6.02226 11.6245 5.95732 11.8022 5.82518 11.9356" fill="black"/>
<path d="M6.11406 11.2424L6.08047 11.1779H6.08495L6.11406 11.2424ZM6.07823 11.1779L6.09391 11.209L6.07823 11.1779ZM6.11406 11.2424C6.10287 11.2468 6.09391 11.2535 6.08719 11.2624L6.04464 11.2046C6.05583 11.1979 6.07151 11.1846 6.08271 11.1824L6.11406 11.2424ZM6.08271 11.2601C6.07599 11.2668 6.06703 11.2757 6.06031 11.2824L6.00656 11.2335C6.01776 11.2224 6.02896 11.2135 6.04016 11.2024L6.08271 11.2601ZM6.06031 11.2801C6.02224 11.3179 6.00208 11.3757 6.00656 11.429L5.93266 11.4357C5.92594 11.3601 5.95281 11.2824 6.00656 11.229" fill="black"/>
<path d="M6.52039 12.2978L6.49352 12.2333L6.52039 12.2978ZM6.52039 12.2978C6.48232 12.3133 6.44424 12.3289 6.40617 12.3444L6.3793 12.28C6.41737 12.2644 6.45544 12.2489 6.49352 12.2333L6.52039 12.2978ZM6.40393 12.3422C6.36586 12.3578 6.32779 12.3733 6.28971 12.3911L6.26284 12.3267C6.30091 12.3111 6.33898 12.2933 6.37706 12.2778L6.40393 12.3422ZM6.28971 12.3933C6.09487 12.4778 5.89779 12.5644 5.70518 12.66L5.67383 12.5956C5.86643 12.5 6.06128 12.4133 6.2606 12.3289" fill="black"/>
<path d="M6.49414 12.2289L6.52102 12.2933L6.49414 12.2289ZM6.52102 12.2977L6.50534 12.2644L6.52102 12.2977ZM6.49414 12.2289C6.53669 12.2133 6.57477 12.1955 6.61284 12.1711L6.64643 12.2311C6.60388 12.2533 6.56133 12.2777 6.51878 12.2911L6.49414 12.2289ZM6.61284 12.1711C6.65091 12.1489 6.68674 12.1244 6.72034 12.0977L6.76737 12.1555C6.73378 12.1822 6.69346 12.2089 6.65315 12.2311L6.61284 12.1711ZM6.72034 12.1C6.89279 11.9622 7.01596 11.7689 7.05404 11.5466L7.12794 11.5577C7.08539 11.7977 6.95549 12.0066 6.76737 12.1511" fill="black"/>
<path d="M6.13672 12.38H8.49052V12.4533H6.13672" fill="black"/>
<path fill-rule="evenodd" clip-rule="evenodd" d="M6.68318 12.8534C6.68318 12.7045 6.56 12.5823 6.40995 12.5823C6.2599 12.5823 6.13672 12.7045 6.13672 12.8534C6.13672 13.0023 6.2599 13.1245 6.40995 13.1245C6.56 13.1245 6.68318 13.0067 6.68318 12.8534Z" fill="#FFD200"/>
<path d="M6.64188 12.8533H6.71578H6.64188ZM6.64188 12.8533C6.64188 12.7889 6.615 12.7311 6.57245 12.6866L6.62172 12.6377C6.67995 12.6955 6.71354 12.7711 6.71354 12.8555L6.64188 12.8533ZM6.62396 12.6355L6.59708 12.6622L6.62396 12.6355ZM6.57469 12.6889C6.53214 12.6466 6.47391 12.62 6.40896 12.62V12.5466C6.49406 12.5466 6.57021 12.58 6.62844 12.6377L6.57469 12.6889ZM6.40896 12.62V12.5466V12.62ZM6.40896 12.62V12.5466V12.62ZM6.40896 12.62C6.34401 12.62 6.28578 12.6466 6.24099 12.6889L6.19172 12.64C6.24995 12.5822 6.32609 12.5489 6.4112 12.5489V12.62H6.40896ZM6.23875 12.6889C6.1962 12.7311 6.16932 12.7889 6.16932 12.8533H6.09766C6.09766 12.7689 6.13125 12.6933 6.18948 12.6355L6.23875 12.6889ZM6.17156 12.8533H6.09766H6.17156ZM6.17156 12.8533H6.09766H6.17156ZM6.17156 12.8533C6.17156 12.9177 6.19844 12.9755 6.24099 13.02L6.19172 13.0689C6.13349 13.0111 6.0999 12.9355 6.0999 12.8511H6.17156V12.8533ZM6.23875 13.02C6.2813 13.0622 6.33953 13.0889 6.40448 13.0889V13.1622C6.31938 13.1622 6.24323 13.1289 6.185 13.0711L6.23875 13.02ZM6.40448 13.0889V13.1622V13.0889ZM6.40896 13.0889V13.1622V13.0889ZM6.40896 13.0889C6.47391 13.0889 6.53214 13.0622 6.57693 13.02L6.6262 13.0689C6.56797 13.1266 6.49182 13.16 6.40672 13.16V13.0889H6.40896ZM6.62844 13.0711L6.60156 13.0444L6.62844 13.0711ZM6.57469 13.02C6.61724 12.9777 6.64411 12.92 6.64411 12.8555H6.71802C6.71802 12.94 6.68443 13.0155 6.6262 13.0733L6.57469 13.02ZM6.64188 12.8577H6.71578H6.64188Z" fill="black"/>
<path fill-rule="evenodd" clip-rule="evenodd" d="M7.76521 12.8534C7.76521 12.7045 7.64203 12.5823 7.49198 12.5823C7.34193 12.5823 7.21875 12.7045 7.21875 12.8534C7.21875 13.0023 7.34193 13.1245 7.49198 13.1245C7.64651 13.1245 7.76521 13.0067 7.76521 12.8534Z" fill="#FFD200"/>
<path d="M7.73201 12.8533H7.80591H7.73201ZM7.73201 12.8533C7.73201 12.7889 7.70513 12.7311 7.66258 12.6866L7.71185 12.6377C7.77008 12.6955 7.80367 12.7711 7.80367 12.8555L7.73201 12.8533ZM7.71185 12.6355L7.68497 12.6622L7.71185 12.6355ZM7.66258 12.6889C7.62003 12.6466 7.5618 12.62 7.49685 12.62V12.5466C7.58195 12.5466 7.6581 12.58 7.71633 12.6377L7.66258 12.6889ZM7.49685 12.62V12.5466V12.62ZM7.49237 12.62V12.5466V12.62ZM7.49237 12.62C7.42742 12.62 7.36919 12.6466 7.3244 12.6889L7.27513 12.64C7.33336 12.5822 7.40951 12.5489 7.49461 12.5489V12.62H7.49237ZM7.32888 12.6889C7.28633 12.7311 7.25945 12.7889 7.25945 12.8533H7.18555C7.18555 12.7689 7.21914 12.6933 7.27737 12.6355L7.32888 12.6889ZM7.25945 12.8533H7.18555H7.25945ZM7.25945 12.8533H7.18555H7.25945ZM7.25945 12.8533C7.25945 12.9177 7.28633 12.9755 7.32888 13.02L7.27961 13.0689C7.22138 13.0111 7.18779 12.9355 7.18779 12.8511H7.25945V12.8533ZM7.32888 13.02C7.37143 13.0622 7.42966 13.0889 7.49461 13.0889V13.1622C7.40951 13.1622 7.33336 13.1289 7.27513 13.0711L7.32888 13.02ZM7.49237 13.0889V13.1622V13.0889ZM7.49237 13.0889V13.1622V13.0889ZM7.49237 13.0889C7.55732 13.0889 7.61555 13.0622 7.66034 13.02L7.70961 13.0689C7.65138 13.1266 7.57523 13.16 7.49013 13.16V13.0889H7.49237ZM7.71185 13.0711L7.68497 13.0444L7.71185 13.0711ZM7.66258 13.02C7.70513 12.9777 7.73201 12.92 7.73201 12.8555H7.80591C7.80591 12.94 7.77232 13.0155 7.71409 13.0733L7.66258 13.02ZM7.73201 12.8577H7.80591H7.73201Z" fill="black"/>
<path d="M6.93812 11.8978C6.94932 11.9022 6.965 11.9044 6.9762 11.9089L6.95604 11.9778C6.94036 11.9733 6.92917 11.9711 6.91797 11.9667L6.93812 11.8978ZM6.97844 11.9089C6.99859 11.9133 7.01651 11.92 7.03667 11.9244L7.02099 11.9933C7.00083 11.9889 6.97844 11.9822 6.96052 11.9778L6.97844 11.9089ZM7.03443 11.9244C7.05458 11.9289 7.0725 11.9311 7.09266 11.9355L7.08146 12.0089C7.0613 12.0044 7.03891 12.0022 7.02099 11.9978L7.03443 11.9244ZM7.09266 11.9355C7.18448 11.9511 7.2763 11.9578 7.36813 11.9578V12.0311C7.27182 12.0311 7.17328 12.0244 7.07698 12.0044" fill="black"/>
<path d="M7.36747 11.9576C7.37867 11.9576 7.39435 11.9576 7.40107 11.9576L7.40779 12.0309C7.39211 12.0309 7.37643 12.0354 7.36523 12.0354L7.36747 11.9576ZM7.40779 11.9576L7.41227 11.9909L7.40779 11.9576ZM7.40779 11.9576C7.42794 11.9531 7.45034 11.9509 7.46826 11.9465L7.48841 12.0154C7.46602 12.022 7.44138 12.0265 7.4145 12.0265L7.40779 11.9576ZM7.46826 11.9465C7.48841 11.942 7.50633 11.9354 7.52648 11.9265L7.55784 11.9909C7.53544 12.002 7.51081 12.0109 7.48841 12.0131L7.46826 11.9465ZM7.52648 11.9265C7.61383 11.8887 7.68774 11.8198 7.72581 11.7287L7.79076 11.7598C7.74372 11.8665 7.65638 11.9509 7.55336 11.9954" fill="black"/>
<path d="M8.89378 12.1001L6.51758 11.429L6.53773 11.3601L8.91393 12.0312" fill="black"/>
<path d="M4.78516 13.2534H8.09526V13.3267H4.78516" fill="black"/>
<path d="M5.54883 13.9666H8.00117V14.0399H5.54883" fill="black"/>
<path d="M6.69693 13.7222L6.42818 13.9844L6.37891 13.9355L6.64766 13.6733" fill="black"/>
<path d="M6.18599 13.6954L6.45474 13.9576L6.40547 14.0065L6.13672 13.7443" fill="black"/>
<path d="M6.2106 13.7222L5.94185 13.9844L5.89258 13.9355L6.16133 13.6733" fill="black"/>
<path d="M5.70161 13.6954L5.97037 13.9576L5.9211 14.0065L5.65234 13.7443" fill="black"/>
<path d="M7.17935 13.7222L6.9106 13.9844L6.86133 13.9355L7.13008 13.6733" fill="black"/>
<path d="M6.67036 13.6954L6.93912 13.9309L6.88984 13.9798L6.62109 13.7443" fill="black"/>
<path d="M7.66372 13.7222L7.39497 13.9844L7.3457 13.9355L7.61445 13.6733" fill="black"/>
<path d="M7.15279 13.6954L7.42154 13.9309L7.37227 13.9798L7.10352 13.7443" fill="black"/>
<path d="M8.0557 13.8177L7.88326 13.9844L7.83398 13.9355L8.00643 13.7689" fill="black"/>
<path d="M7.64107 13.6954L7.90982 13.9576L7.86055 14.0065L7.5918 13.7443" fill="black"/>
<path d="M6.69693 13.3554L6.42818 13.6176L6.37891 13.5687L6.64766 13.3065" fill="black"/>
<path d="M6.18599 13.3334L6.45474 13.5956L6.40547 13.6445L6.13672 13.3823" fill="black"/>
<path d="M6.2106 13.3554L5.94185 13.6176L5.89258 13.5687L6.16133 13.3065" fill="black"/>
<path d="M5.70161 13.3334L5.97037 13.5956L5.9211 13.6445L5.65234 13.3823" fill="black"/>
<path d="M7.17935 13.3554L6.9106 13.6176L6.86133 13.5687L7.13008 13.3065" fill="black"/>
<path d="M6.67036 13.3334L6.93912 13.5956L6.88984 13.6445L6.62109 13.3823" fill="black"/>
<path d="M7.66372 13.3554L7.39497 13.6176L7.3457 13.5687L7.61445 13.3065" fill="black"/>
<path d="M7.15279 13.3334L7.42154 13.5956L7.37227 13.6445L7.10352 13.3823" fill="black"/>
<path d="M8.10945 13.3978L7.88326 13.6178L7.83398 13.5689L8.06018 13.3489" fill="black"/>
<path d="M7.64107 13.3334L7.90982 13.5956L7.86055 13.6445L7.5918 13.3823" fill="black"/>
<path d="M5.45336 8.82223L5.13534 8.84223L5.13086 8.7689L5.44888 8.7489" fill="black"/>
<path d="M5.64889 12.0644L5.61754 12L5.64889 12.0644ZM5.6153 12L5.63097 12.0311L5.6153 12ZM5.64889 12.0644C5.58842 12.0956 5.53019 12.1289 5.47644 12.1711L5.43389 12.1133C5.49212 12.0711 5.55259 12.0333 5.61754 12L5.64889 12.0644ZM5.47644 12.1711C5.42269 12.2133 5.37566 12.2556 5.33087 12.3044L5.27712 12.2556C5.32415 12.2022 5.3779 12.1556 5.43165 12.1156L5.47644 12.1711ZM5.33087 12.3044C5.10467 12.5511 5.00389 12.8978 5.08227 13.2422L5.01285 13.2578C4.93222 12.8911 5.03972 12.5222 5.27712 12.2556" fill="black"/>
<path d="M5.70252 12.6556L5.69804 12.6601L5.66668 12.5956L5.67116 12.5912L5.70252 12.6556ZM5.66892 12.5934L5.6846 12.6245L5.66892 12.5934ZM5.70028 12.6601C5.66892 12.6756 5.63981 12.6934 5.61293 12.7134L5.57038 12.6556C5.60173 12.6334 5.63085 12.6134 5.66668 12.5979L5.70028 12.6601ZM5.61517 12.7134C5.5883 12.7334 5.56142 12.7556 5.53903 12.7779L5.48976 12.729C5.51663 12.7023 5.54351 12.6801 5.57486 12.6556L5.61517 12.7134ZM5.53903 12.7779C5.42033 12.8956 5.35538 13.0712 5.3621 13.2467L5.2882 13.2512C5.277 13.0578 5.35314 12.8623 5.48304 12.729" fill="black"/>
<path d="M4.85458 12.9067L4.78516 12.9022V12.9289V12.9022L4.85458 12.9067ZM4.78516 12.9267L4.85458 12.9045L4.78516 12.9V12.9267ZM4.85458 12.9067C4.85906 12.9267 4.86578 12.94 4.87474 12.96L4.80531 12.9867C4.79859 12.9667 4.78964 12.9489 4.78516 12.9289L4.85458 12.9067ZM4.8725 12.9556C4.87922 12.9711 4.88818 12.9889 4.8949 13.0045L4.82995 13.0356C4.82323 13.0156 4.80979 12.9978 4.80755 12.9822L4.8725 12.9556ZM4.8949 13.0067C4.93745 13.0911 4.99568 13.1622 5.06734 13.22L5.02031 13.2778C4.93969 13.2134 4.87026 13.1334 4.82547 13.0378" fill="black"/>
<path d="M4.85513 12.9289L4.77003 13.12L4.70508 13.0889L4.79018 12.8978" fill="black"/>
<path d="M5.01172 13.2578L5.0162 13.2356L5.08115 13.2667L5.01172 13.2578ZM5.08115 13.2645L5.0162 13.2312L5.08115 13.2645ZM5.0162 13.2334C5.02292 13.2178 5.03635 13.2001 5.04307 13.1845L5.10802 13.2156C5.1013 13.2356 5.08786 13.2489 5.08115 13.2645L5.0162 13.2334ZM5.04307 13.1845C5.04979 13.1645 5.06323 13.1512 5.06547 13.1356L5.13042 13.1667C5.1237 13.1867 5.11026 13.2045 5.10802 13.2201L5.04307 13.1845ZM5.06547 13.1312C5.10354 13.0445 5.13937 12.9556 5.16849 12.8645L5.23792 12.8867C5.20656 12.9823 5.17297 13.0734 5.13042 13.1601" fill="black"/>
<path d="M5.28862 13.2468L5.35805 13.2312L5.28862 13.2468ZM5.35805 13.2312L5.32445 13.2379L5.35805 13.2312ZM5.28862 13.2468C5.28414 13.2268 5.2819 13.2134 5.27742 13.1979L5.34685 13.1779C5.35133 13.1979 5.35357 13.2157 5.35805 13.2312L5.28862 13.2468ZM5.27742 13.1957C5.27294 13.1801 5.2707 13.1646 5.26174 13.1468L5.33117 13.1268C5.33565 13.1423 5.33789 13.1579 5.34685 13.1801L5.27742 13.1957ZM5.33117 13.1246L5.29758 13.1357L5.33117 13.1246ZM5.26174 13.1423C5.23487 13.0557 5.20352 12.9712 5.16992 12.8912V12.8646L5.23935 12.8601C5.27742 12.9446 5.30878 13.0312 5.33565 13.1223" fill="black"/>
<path d="M5.61865 14.5401L5.51562 14.0068L5.58953 13.9913L5.69255 14.5246" fill="black"/>
<path d="M5.51393 14.0156L5.26758 13.3023L5.33701 13.28L5.58336 13.9934" fill="black"/>
<path d="M5.72625 13.7222L5.53365 13.9088L5.48438 13.8599L5.67698 13.6733" fill="black"/>
<path d="M5.72685 13.3554L5.43794 13.6376L5.38867 13.5887L5.67758 13.3065" fill="black"/>
</g>
<rect x="0.470313" y="0.15" width="42.7" height="23.7" stroke="#EFEFF8" stroke-width="0.3"/>
<defs>
<clipPath id="clip0_684_44999">
<rect x="0.320312" width="43" height="24" fill="white"/>
</clipPath>
</defs>
</svg>
