<?xml version="1.0" standalone="no"?>
<!DOCTYPE svg PUBLIC "-//W3C//DTD SVG 20010904//EN"
 "http://www.w3.org/TR/2001/REC-SVG-20010904/DTD/svg10.dtd">
<svg version="1.0" xmlns="http://www.w3.org/2000/svg"
 width="122.000000pt" height="122.000000pt" viewBox="0 0 122.000000 122.000000"
 preserveAspectRatio="xMidYMid meet">
<metadata>
Created by potrace 1.14, written by Peter Selinger 2001-2017
</metadata>
<g transform="translate(0.000000,122.000000) scale(0.100000,-0.100000)"
fill="#000000" stroke="none">
<path d="M542 1200 c-84 -51 -74 -187 16 -223 72 -29 139 -2 167 66 25 62 6
124 -48 157 -41 26 -93 25 -135 0z"/>
<path d="M725 799 c-56 -38 -77 -44 -140 -40 -32 2 -115 46 -115 61 0 6 -13
10 -28 10 -22 0 -32 -7 -45 -32 -9 -18 -36 -69 -60 -113 -24 -44 -66 -123 -94
-175 -28 -52 -92 -171 -142 -264 -104 -195 -106 -198 -91 -226 10 -19 18 -20
138 -18 l127 3 20 40 c25 50 62 135 106 244 66 164 177 223 300 161 33 -17 89
-75 89 -93 0 -4 14 -37 31 -74 17 -38 40 -90 50 -118 11 -27 32 -75 47 -105
l27 -55 129 0 c169 0 169 0 99 138 -49 95 -70 135 -172 322 -21 39 -64 120
-96 180 -64 121 -100 180 -113 189 -5 3 -35 -13 -67 -35z"/>
</g>
</svg>
