<?xml version="1.0" standalone="no"?>
<!DOCTYPE svg PUBLIC "-//W3C//DTD SVG 20010904//EN"
 "http://www.w3.org/TR/2001/REC-SVG-20010904/DTD/svg10.dtd">
<svg version="1.0" xmlns="http://www.w3.org/2000/svg"
 width="101.000000pt" height="101.000000pt" viewBox="0 0 101.000000 101.000000"
 preserveAspectRatio="xMidYMid meet">
<metadata>
Created by potrace 1.14, written by Peter Selinger 2001-2017
</metadata>
<g transform="translate(0.000000,101.000000) scale(0.100000,-0.100000)"
fill="#000000" stroke="none">
<path d="M383 995 c-269 -73 -435 -348 -368 -610 25 -95 65 -165 135 -235 200
-200 510 -200 710 0 198 198 200 509 5 705 -130 130 -317 184 -482 140z m232
-50 c244 -64 392 -310 330 -548 -64 -247 -308 -395 -548 -332 -248 64 -395
308 -332 550 64 244 311 392 550 330z"/>
<path d="M497 914 c-4 -4 -7 -14 -7 -23 0 -8 -38 -94 -85 -191 -92 -190 -110
-252 -94 -331 11 -52 56 -112 102 -136 18 -9 57 -17 88 -17 106 -1 186 74 197
184 6 66 -18 140 -95 294 -36 72 -73 153 -82 179 -9 26 -20 45 -24 41z m13
-219 c0 -20 -14 -92 -31 -162 -31 -129 -32 -162 -2 -195 23 -25 68 -23 87 4
22 31 20 81 -8 168 -13 41 -27 98 -31 125 -6 47 -3 43 46 -65 79 -172 72 -252
-26 -289 -51 -20 -110 0 -142 48 -39 58 -32 119 27 240 28 55 53 115 57 131 8
41 23 38 23 -5z"/>
<path d="M256 549 c-49 -119 -57 -187 -27 -254 12 -27 29 -58 39 -69 24 -27
91 -56 132 -56 l35 0 -50 29 c-51 29 -94 80 -114 134 -17 45 -13 139 9 203 37
105 19 114 -24 13z"/>
<path d="M710 619 c0 -14 9 -52 20 -84 29 -84 27 -168 -6 -233 -25 -51 -79
-103 -125 -121 -22 -9 -20 -10 14 -10 109 -2 197 110 184 234 -6 59 -86 256
-87 214z"/>
</g>
</svg>
