<?xml version="1.0" standalone="no"?>
<!DOCTYPE svg PUBLIC "-//W3C//DTD SVG 20010904//EN"
 "http://www.w3.org/TR/2001/REC-SVG-20010904/DTD/svg10.dtd">
<svg version="1.0" xmlns="http://www.w3.org/2000/svg"
 width="196.000000pt" height="196.000000pt" viewBox="0 0 196.000000 196.000000"
 preserveAspectRatio="xMidYMid meet">
<metadata>
Created by potrace 1.14, written by Peter Selinger 2001-2017
</metadata>
<g transform="translate(0.000000,196.000000) scale(0.100000,-0.100000)"
fill="#000000" stroke="none">
<path d="M316 1605 c-5 -14 -16 -98 -21 -175 -2 -19 -4 -96 -4 -171 l-1 -136
-55 10 c-60 10 -145 2 -145 -14 0 -5 5 -9 11 -9 6 0 39 -28 73 -62 45 -46 73
-86 103 -148 42 -88 69 -159 65 -172 -1 -5 2 -8 6 -8 5 0 9 -6 9 -13 0 -19 56
-137 65 -137 5 0 8 -5 8 -10 0 -10 25 -44 105 -149 20 -26 109 -112 155 -150
14 -12 31 -26 38 -32 29 -24 20 0 -13 37 -20 21 -52 64 -73 94 -20 30 -39 57
-42 60 -13 13 -70 131 -74 152 -3 13 -5 23 -6 23 -1 0 -3 7 -5 15 -1 8 -7 40
-14 70 -6 30 -13 82 -16 115 -8 81 -15 445 -9 445 3 0 11 -6 18 -12 7 -7 35
-31 61 -53 106 -87 263 -239 291 -281 13 -19 11 -29 -19 -95 -53 -117 -48
-214 17 -282 46 -49 81 -54 221 -35 13 2 80 68 70 68 -4 0 -2 7 5 15 9 10 13
46 13 98 0 72 -4 90 -32 146 -29 57 -31 65 -18 84 20 30 139 150 217 219 36
31 83 72 105 91 22 20 42 34 46 31 7 -4 3 -315 -5 -414 -9 -104 -18 -164 -28
-182 -5 -10 -6 -18 -4 -18 8 0 -22 -78 -53 -140 -39 -77 -98 -161 -158 -225
-18 -20 -33 -38 -33 -41 0 -13 133 99 184 155 17 19 42 46 55 60 65 72 135
195 177 314 52 144 110 250 172 309 31 30 65 59 76 65 16 9 12 11 -25 17 -44
6 -144 0 -160 -10 -5 -3 -9 55 -10 128 -1 129 -2 157 -13 265 -6 55 -16 103
-22 103 -5 0 -96 -63 -114 -80 -44 -40 -80 -70 -80 -66 0 3 -10 -5 -23 -17
-13 -12 -59 -53 -103 -91 -43 -38 -135 -126 -204 -196 l-125 -127 -130 131
c-71 72 -161 158 -199 191 -38 33 -74 65 -80 70 -43 39 -231 185 -239 185 -3
0 -7 -7 -11 -15z m680 -948 c15 -60 14 -98 -1 -128 -16 -29 -18 -30 -33 -15
-21 21 -23 118 -3 164 12 28 16 31 23 18 5 -9 12 -26 14 -39z"/>
</g>
</svg>
