<svg version="1.0" xmlns="http://www.w3.org/2000/svg" width="1130.667" height="1130.667" viewBox="0 0 848 848"><path d="M483.3 57.9c-4.2 2.6-5 4.3-5.8 12.1-.3 3.6-.8 7.6-1 9-.2 1.4-.6 5-.9 8-1.3 12.4-1.6 15.7-2.2 20.5-.8 6.4-1.1 8.6-1.8 16.5-.4 3.6-.9 8.3-1.2 10.5-1.3 10.7-1.6 14.6-1.8 22.4-.1 8.7 1.4 18.8 3.6 23.1.7 1.4 3.4 6.2 6 10.7 2.7 4.5 4.8 8.5 4.8 8.8 0 .4 1.4 2.6 3 5 1.7 2.4 3 4.6 3 4.8 0 .5 16.5 29.7 19.5 34.7.9 1.4 2.4 4.1 3.3 6 .9 1.9 1.9 3.7 2.2 4 .5.5 1.2 1.7 5.8 9.9 1.4 2.5 3.4 5.9 4.4 7.6 1 1.6 2.1 3.6 2.4 4.4.4.7 6.5 11.5 13.6 23.8 7 12.4 12.8 22.9 12.8 23.4s.5.9 1 .9c.6 0 1 .5 1 1.1 0 .6 1.7 4.1 3.9 7.7 3.7 6.4 5.2 9.1 10.9 19.2 1.4 2.5 4.5 7.8 6.9 11.8 2.4 4.1 4.3 7.5 4.3 7.7 0 .4 17.6 31.5 19 33.5.6.8 1.6 2.6 2.3 4 2.9 5.8 9.2 16.5 9.9 16.8.4.2.8 1.2.8 2.2 0 1 .4 2 .8 2.2.5.1 2.8 3.9 5.2 8.3 2.4 4.4 4.9 8.7 5.6 9.5.7.8 1.3 1.8 1.3 2.3 0 .4 2.5 5 5.6 10.1 3 5.2 5.5 9.9 5.5 10.5 0 .6.5 1.1 1 1.1.6 0 1 .4 1 .9s4.1 8 9 16.7c5 8.6 9 16.1 9 16.6 0 .4.5.8 1.2.8.6 0 .8.3.5.7-.4.3-.1 1.3.7 2.2.7.9 2.7 4.1 4.3 7.1 4.6 8.4 11.3 20.3 12.3 22 3.9 6.5 7 12.1 7 13 0 .5.5 1 1 1 .6 0 1 .4 1 .8 0 .7 4.5 9.1 7 13.2 2.7 4.4 11 18.9 11 19.4 0 .3 1.8 3.5 4 7.1 2.2 3.6 4 7 4 7.5 0 .6.5 1 1 1 .6 0 1 .4 1 1 0 1.8 16.1 29.4 19.8 34 2.1 2.4 5.3 6 7.2 7.8 6.3 6.1 6.5 6.1 57.5 26.6 21.2 8.6 22 8.9 25.5 10.5 5.2 2.3 13.5 4.9 14.9 4.6 6.2-1.3 10.1-5.4 10.1-10.7 0-1.3-2-5.8-4.5-10.2-2.5-4.3-4.5-8-4.5-8.1 0-.2-2.1-3.9-4.6-8.2-2.6-4.3-5.9-10.1-7.4-12.8-4.8-8.8-17.9-31.9-19-33.5-.6-.8-1.3-2.2-1.7-3-.4-.8-2.6-4.8-5-8.8-2.4-4.1-4.3-7.5-4.3-7.7 0-.3-12-21.4-19.4-34-2.2-3.9-4.1-7.2-4.1-7.5 0-.3-.8-1.6-1.7-3-.9-1.4-3.1-5.3-4.9-8.6-1.9-3.4-5-9-7-12.5s-5.7-10-8.2-14.4c-2.4-4.4-5.3-9.6-6.4-11.5-7-12.2-13.3-23.3-13.3-23.5 0-.1-2.9-5.3-6.5-11.4-3.6-6.2-6.5-11.6-6.5-12.2 0-.5-.4-.9-1-.9-.5 0-1-.5-1-1.1 0-.6-1.5-3.7-3.4-6.8-3.3-5.6-6.2-10.6-11.9-21.1-1.6-3-3.3-6-3.7-6.5-.5-.6-2-3.3-3.6-6-1.5-2.8-3.8-6.8-5.1-9-1.3-2.2-2.9-5.2-3.6-6.8-.6-1.5-1.5-2.7-1.9-2.7-.4 0-.8-.4-.8-1 0-.5-3.7-7.4-8.2-15.2-12.8-22.4-14.9-26.2-15.5-28.1-.3-.9-.9-1.7-1.4-1.7-.5 0-.9-.4-.9-.9s-4-8-9-16.7c-4.9-8.6-9-15.8-9-16 0-.2-1.7-3.2-3.8-6.6-2.1-3.5-4.3-7.4-5-8.8-.6-1.4-1.6-3.2-2.2-4-1.6-2.4-11-19.1-11-19.6 0-.2-1.8-3.3-4-6.9-2.2-3.6-3.6-6.5-3.2-6.5.4 0 .2-.4-.4-.8-.6-.4-2.8-3.9-4.9-7.7-2.1-3.9-4.6-8.2-5.7-9.7-1-1.4-1.8-2.8-1.8-3.1 0-.2-4.3-8-9.6-17.3-8.8-15.6-12.5-22.1-17.7-31.4-1-1.9-2.3-4-2.7-4.5-.4-.6-2.1-3.5-3.7-6.5s-4.4-8-6.2-11c-1.7-3-3.7-6.6-4.4-8-.6-1.4-1.4-2.7-1.7-3-.3-.3-1-1.4-1.6-2.5-6-11-8.1-14.8-11-19.6-1.9-3.1-3.4-6.2-3.4-6.8 0-.6-.4-1.1-.8-1.1-.5 0-1.4-1.6-2.2-3.5-.8-1.9-1.7-3.5-2.2-3.5-.4 0-.8-.4-.8-.9 0-.7-17.4-32.1-20-36.1-.5-.8-2.2-3.8-3.6-6.7-4.7-9.2-7.1-11.3-13.4-11.9-4.4-.4-6.1-.1-8.7 1.5zm-132.4.4c-.8.7-2.2 2.5-3.1 4.2-.8 1.6-5.5 10-10.4 18.5-11.1 19.4-11.2 19.6-15.3 27.2-1.8 3.5-3.8 6.6-4.5 7-.6.4-.7.8-.3.8.5 0-.1 1.3-1.2 2.9-1.2 1.6-2.1 3.4-2.1 4 0 .6-.4 1.1-1 1.1-.5 0-1 .5-1 1 0 .8-7.8 15.2-13 24-2.3 4-34.6 60.9-36.3 64-1 1.9-2.7 4.8-3.7 6.5-1.1 1.6-3.3 5.7-5.1 9-1.7 3.3-3.4 6.2-3.8 6.5-.3.3-1.4 2.1-2.3 4-1 1.9-3.3 6.2-5.3 9.5s-3.8 6.8-4.2 7.7c-.3 1-1 1.8-1.5 1.8s-.6.4-.3 1c.3.5.2 1-.2 1-.5 0-1.4 1.2-2 2.7-.7 1.6-2.5 5-4.1 7.8-1.6 2.7-5 8.6-7.4 13-2.5 4.4-5.5 9.6-6.6 11.5-1.1 1.9-3.2 5.5-4.5 8-1.4 2.5-3.4 6.1-4.5 8-3.1 5.4-13.7 24.1-15.8 28-1 1.9-2.1 3.7-2.4 4-.3.3-1 1.4-1.6 2.5-4.1 7.4-8.5 15.4-13.7 24.5-3.3 5.8-7 12.3-8.2 14.5-5.1 9.2-20.4 36.2-29.6 52.2-5.5 9.5-9.9 17.6-9.9 18 0 .3-.6 1.4-1.4 2.2-.7.9-3.5 5.6-6.1 10.6-2.7 4.9-5.1 9.2-5.4 9.5-.3.3-1.4 2.1-2.5 4-3.4 6.5-8.9 16.5-11.8 21.3-1.5 2.6-2.8 5.2-2.8 5.7 0 .6-.3 1-.8 1-.4 0-1.3 1.5-2.1 3.2-.8 1.8-1.7 3.5-2.1 3.8-.3.3-1.4 2.1-2.3 4-1 1.9-2.8 5.3-4.2 7.5-1.3 2.2-3.1 5.3-4 7-.8 1.6-2.6 4.9-4 7.2-6.3 10.7-7.6 13-8.7 15.3-.7 1.4-2.7 4.9-4.5 7.8-1.8 2.9-3.3 5.9-3.3 6.6 0 .8-.4 1.6-.8 1.8-.7.2-8.6 13.8-22 37.8-3.5 6.3-21.6 38.2-29.6 52.2C4 669.6.7 676.1.4 677.7c-1.2 5.9 3.2 11.3 9.7 11.8 1.7.1 6.8-1.2 11.3-3 10.2-4.1 59.1-23.9 67.1-27.2 6.8-2.8 21-15.8 24.9-22.8 1.3-2.2 6.4-11.2 11.4-20 4.9-8.8 10-17.6 11.1-19.5 1.1-1.9 2.9-5.1 3.8-7 1-1.9 2-3.7 2.4-4 .3-.3 1.3-2.1 2.2-4 1-1.9 2.2-4.2 2.7-5 1.4-2.1 17.5-30.2 18.3-32 .4-.8 1.7-3.1 2.8-5 1.2-1.9 3.1-5.3 4.2-7.5 1.2-2.2 2.8-4.6 3.5-5.3.7-.8 1-1.7.7-2.2-.3-.5-.1-1 .3-1.2.5-.1 2-2.3 3.4-4.8s3.8-6.8 5.3-9.5c1.5-2.8 4.5-7.9 6.5-11.5 8-13.8 13.2-23.1 19-33.5 1.8-3.3 4.3-7.6 5.5-9.5 1.2-1.9 2.5-4.5 2.9-5.8.4-1.2 1.1-2.2 1.6-2.2.4 0 1-.8 1.3-1.8.4-.9 2.2-4.4 4.2-7.7 1.9-3.3 3.8-6.7 4.2-7.5.3-.8 2.5-4.7 4.8-8.5 2.3-3.9 5.7-9.7 7.4-13 6.2-11.5 9.7-17.5 10.9-18.7.7-.7 1.2-1.5 1.2-1.9 0-.4 2.3-4.7 5.1-9.6 5.4-9.3 7.2-12.4 13.4-23.8 2-3.9 4.3-7.7 4.9-8.5.7-.8 1.8-2.9 2.6-4.5.8-1.7 1.7-3.2 2-3.5.3-.3 1.3-2.1 2.4-4 3.2-6.2 7.9-14.4 10.1-18 1.2-1.9 2.8-5 3.6-6.8.8-1.7 1.7-3.2 2.1-3.2.5 0 .8-.4.8-1 0-.5 1.8-3.9 4-7.5s4-6.7 4-6.9c0-.2 3.2-6 7.1-12.8 3.9-6.7 8.1-14.2 9.4-16.5 1.3-2.2 8.9-15.6 16.9-29.7 8-14.1 14.6-26 14.6-26.5s.4-1.1.8-1.3c.5-.2 1.5-1.5 2.3-3 6.5-12.4 8.2-15.4 8.8-15.8 1.2-.8 4.3-8.1 6.1-14 1.6-5.4 1.9-12.4.7-18.5-.7-3.4-1.8-12.3-2.2-17.5-.1-1.9-.5-5.5-.8-8-.4-2.5-.9-7.2-1.3-10.5-.3-3.3-.7-7.4-.9-9-.2-1.7-.6-5.7-1-9-.3-3.3-.8-7.4-1-9-.3-1.7-.7-5.7-1.1-9-.3-3.3-.7-6.9-.9-8-.1-1.1-.3-3.7-.4-5.8-.2-5.5-4.7-9.7-10.5-9.7-2.2 0-4.8.6-5.7 1.3zm29.4 215.8c-1.9 1.2-6.9 8.8-15.3 23.5-6.9 11.9-14 24.2-15.7 27.3-1.8 3.1-5.1 9-7.5 13.1-2.3 4.1-4.4 7.7-4.8 8-.3.3-1.2 2-1.9 3.7-.8 1.8-1.7 3.3-2.2 3.3-.5 0-.9.4-.9 1 0 .8-16 29.3-20.6 36.7-.8 1.3-1.3 2.4-1.2 2.5.2.2-.7 1.6-1.8 3.3-1.8 2.5-20.4 34.5-23.8 41-.6 1.1-2.1 3.5-3.4 5.3-1.3 1.7-2 3.2-1.6 3.2.4 0 0 .8-.8 1.7-.8 1-5.9 9.7-11.4 19.3-5.4 9.6-10.1 17.7-10.4 18-.3.3-1.2 1.8-2 3.5-.8 1.6-1.7 3.2-2 3.5-.3.3-1 1.4-1.6 2.5-5.5 10.2-7.8 14.1-8.4 15-.4.5-2 3.2-3.6 6-1.5 2.7-3.5 6.3-4.5 8-1 1.6-3 5.2-4.4 8-1.5 2.7-3.3 5.7-4.1 6.6-.8.8-1.4 1.8-1.4 2.2 0 .3-1.4 3-3.1 5.9-1.8 2.9-4.1 6.9-5.2 8.8-1 1.9-5.8 10.2-10.4 18.3-8 13.9-8.5 15.2-8 19.3.6 5.3 3 8.4 6.6 8.4 1.5 0 7.4-2.1 13.1-4.6 5.8-2.5 12.5-5.5 15-6.6 2.5-1 5.4-2.3 6.5-2.8 1.1-.5 4-1.8 6.5-2.8 15.7-6.8 20.1-8.7 24.8-10.8 2.9-1.3 7.3-2.9 9.8-3.4 2.6-.6 5.8-1.7 7.3-2.5 4.3-2.2 10.3-9.7 16.2-20.3 3-5.3 6.8-12.1 8.5-15.2 1.7-3 6.2-11.1 10-18 3.7-6.9 7-12.7 7.3-13 .3-.3 1.5-2.3 2.6-4.5 1-2.2 3.4-6.3 5.1-9.2 1.8-2.8 3.1-5.3 2.8-5.6-.2-.2.2-1 1.1-1.7.8-.7 1.5-1.6 1.5-2.1 0-.4 1.3-3 2.8-5.6 3.3-5.5 9.6-16.9 12.6-22.8 1.2-2.2 2.3-4.2 2.6-4.5.3-.3 1.8-3 3.4-6 3.8-7.1 6.3-11.6 8-14.3.7-1.2 2.7-4.7 4.3-7.7 1.7-3 3.9-7.1 5-9 2-3.5 7.3-13.3 10.9-20 1.1-1.9 2.1-3.7 2.4-4 1.9-1.9 8.5-19 7.3-19-.3 0 .1-.7.8-1.6 1.5-1.8 1.8-13.8.5-22.4-.4-3-1-6.6-1.1-8-.2-1.3-.7-4.7-1.1-7.5-.4-2.7-.8-6.1-.9-7.5-.2-1.4-.5-3.9-.8-5.5-.7-3.6-1.6-11.2-2.3-17.5-.3-2.5-.7-5.9-1-7.5-.6-2.7-1-6.1-1.3-9.1-.1-.7-1.2-2.2-2.5-3.5-3.1-3-8.3-3.3-12.3-.8zm76.3 5.3c-6.5 3.7-7.2 5.4-9 21.1-.2 1.6-.6 4.8-1 7.1s-.8 5.9-1.1 8c-.5 4.7-1.4 12-2 15.4-.2 1.4-.6 4.3-1 6.5-.3 2.2-.8 6-1 8.4-.2 2.4-.7 6.1-1 8.2-.4 2.4 0 5.2.8 7.1.8 1.8 2 5.3 2.8 7.8.7 2.5 2.6 6.7 4.1 9.5 1.6 2.7 3.4 6.1 4.1 7.5.6 1.4 1.4 2.7 1.7 3 .3.3 1 1.4 1.6 2.5 3 5.6 5 9.1 5.4 9.5.3.3 1 1.4 1.6 2.5 2.6 4.7 6.3 11.3 9.1 16 1.6 2.7 3.2 5.7 3.6 6.5.4.8 1.7 3.1 2.8 5 2.2 3.6 23.7 40.8 27.2 47 5.4 9.7 7.2 12.6 8.2 13.2.5.4.7.8.3.8-.4 0 1 2.9 3.2 6.5s4 7 4 7.5c0 .6.4 1 .8 1s1.3 1.2 1.9 2.7c.7 1.6 2.5 5 4.1 7.8 9.8 16.8 22.2 38.6 24.1 42.3 4.9 9.5 10.4 13.5 34.1 24.2 6.3 2.9 14.7 6.7 18.5 8.5 3.9 1.7 8.8 4 11 5 2.2 1 7.2 3.3 11.2 5.1 3.9 1.9 8.6 3.4 10.5 3.4 5.9 0 11.4-7 9.2-11.7-.4-1-.8-2-.8-2.3-.1-.3-.9-1.6-1.8-3-1.9-3-21.5-37.3-23.7-41.5-.9-1.7-1.9-3.2-2.3-3.3-.5-.2-.8-.8-.8-1.3s-1.8-3.9-4-7.5-4-6.7-4-6.9c0-.2-2.7-4.9-6-10.5s-6-10.3-6-10.5c0-.3-2-3.7-4.3-7.7-4.3-7.1-21.5-36.7-25.5-43.8-4.1-7.3-25.3-44-27.2-47.2-1.1-1.8-2.3-4-2.7-4.8-.4-.8-2.4-4.3-4.5-7.8-2.1-3.4-3.8-6.5-3.8-6.8 0-.3-1.3-2.6-3-5.1-1.6-2.4-3-4.6-3-4.9 0-.3-2.3-4.4-5.2-9.2-2.8-4.8-6.5-11.2-8.1-14.2-1.7-3-3.8-6.7-4.6-8.2-6.8-11.5-12.3-20.9-14.1-24.3-1.3-2.2-3.1-5.4-4.1-7-1.1-1.7-2.2-3.7-2.6-4.5-.4-.8-2.6-4.8-5-8.8-2.4-4-4.3-7.7-4.3-8.2 0-.6-.3-1-.7-1-.5 0-1.9-2.3-3.2-5-1.4-2.7-3.4-6-4.5-7.4-2.4-2.8-7.1-3.9-10-2.2zM307.8 603.5c-6.2 1.3-11.1 3.5-15.3 7-3.6 2.9-3.8 3.1-9 7-2.2 1.6-4.1 3.3-4.3 3.7-.2.4-.8.8-1.3.8-.9 0-14 9.6-17 12.5-.9.8-2.1 1.5-2.7 1.5-.5 0-1.2.4-1.4.8-.1.5-3.5 3.2-7.4 6-9.2 6.6-10.9 10.5-8.3 18.1 2.2 6.3-9.5 5.9 180.4 5.7 187-.2 177.5.1 179.1-5.5 2.4-8.5 1.4-10.7-7.6-18.1-2.3-1.9-4.8-4-5.4-4.5-.6-.6-2.7-2.2-4.8-3.7-2-1.5-4.2-3.3-5-4-1.3-1.3-11.4-9.6-13.3-11-.5-.4-3.7-3-7.1-5.7-5.6-4.6-17.1-10.7-18.2-9.7-.2.3-1.6 0-3.1-.6-3.7-1.6-220.7-1.9-228.3-.3zM174.2 712.1c-.9.4-2 .5-2.4.2-2.4-1.3-21.2 6.2-25.4 10.1-.7.6-2.2 1.9-3.5 2.8-3.2 2.2-31.7 23.2-44.4 32.5-5.5 4.1-10.8 8-11.7 8.8-1 .8-3.6 2.6-5.8 4.1-2.2 1.5-4.9 4.1-5.9 5.8-1.7 2.7-1.8 3.8-1 7.1.6 2.3 2.2 4.8 3.7 6 2.7 2 4.5 2 342.2 2.2 337.9.3 339.5.3 342.8-1.7 4.8-3 6.2-8.1 3.7-14.1-.3-.9-3.1-3.4-6.2-5.5s-6.1-4.3-6.7-4.9c-.6-.6-6-4.6-12.1-9-9.5-6.9-30-22-33-24.2-.5-.5-4.3-3.2-8.3-6.2-4-2.9-7.8-6.1-8.5-7-.6-.9-2.5-2.3-4.2-3.2-8-4.3-4.3-4.3-264.3-4.3-136-.1-248 .2-249 .5z"/></svg>