<svg width="36" height="36" viewBox="0 0 36 36" fill="none" xmlns="http://www.w3.org/2000/svg">
<mask id="path-1-outside-1_1008_890" maskUnits="userSpaceOnUse" x="0" y="0" width="36" height="36" fill="black">
<rect fill="white" width="36" height="36"/>
<path fill-rule="evenodd" clip-rule="evenodd" d="M16.062 33C15.7873 33 15.5547 32.797 15.5176 32.5248L15.2527 30.5824V30.2128C13.8353 29.8888 12.5094 29.3245 11.3203 28.5649L11.0455 28.8397L9.48475 30.0259C9.26599 30.1921 8.95805 30.1712 8.76376 29.977L6.02306 27.2362C5.82877 27.042 5.80787 26.734 5.97413 26.5153L7.1603 24.9545L7.44751 24.6673C6.69978 23.4801 6.14582 22.1587 5.83002 20.7473H5.41758L3.47521 20.4824C3.20297 20.4453 3 20.2127 3 19.938V16.062C3 15.7873 3.20297 15.5547 3.47521 15.5176L5.41758 15.2527H5.83001C6.14581 13.8413 6.69976 12.5199 7.4475 11.3327L7.27685 11.162L5.97992 9.48553C5.81071 9.26678 5.83044 8.95636 6.026 8.76081L8.76082 6.02598C8.95638 5.83043 9.2668 5.8107 9.48554 5.97991L11.1621 7.27684L11.3203 7.43511C12.5094 6.6755 13.8353 6.11113 15.2527 5.78719V5.58242L15.5212 3.47987C15.5562 3.20555 15.7896 3 16.0662 3H19.9338C20.2104 3 20.4438 3.20555 20.4788 3.47987L20.7473 5.58242V5.76244C22.1795 6.07604 23.52 6.63468 24.7226 7.39217L24.838 7.27684L26.5145 5.97991C26.7332 5.8107 27.0436 5.83043 27.2392 6.02598L29.974 8.76081C30.1696 8.95636 30.1893 9.26679 30.0201 9.48553L28.7232 11.162L28.6202 11.265C29.3897 12.4695 29.9588 13.8145 30.2806 15.2527H30.4176L32.5201 15.5212C32.7945 15.5562 33 15.7896 33 16.0662V19.9338C33 20.2104 32.7945 20.4438 32.5201 20.4788L30.4176 20.7473H30.2806C29.9588 22.1855 29.3897 23.5304 28.6202 24.735L28.8397 24.9545L30.0259 26.5153C30.1922 26.734 30.1713 27.042 29.977 27.2362L27.2363 29.977C27.042 30.1712 26.734 30.1921 26.5153 30.0259L24.9545 28.8397L24.7226 28.6078C23.52 29.3653 22.1795 29.9239 20.7473 30.2375V30.5824L20.4824 32.5248C20.4453 32.797 20.2127 33 19.938 33H16.062Z"/>
</mask>
<path fill-rule="evenodd" clip-rule="evenodd" d="M16.062 33C15.7873 33 15.5547 32.797 15.5176 32.5248L15.2527 30.5824V30.2128C13.8353 29.8888 12.5094 29.3245 11.3203 28.5649L11.0455 28.8397L9.48475 30.0259C9.26599 30.1921 8.95805 30.1712 8.76376 29.977L6.02306 27.2362C5.82877 27.042 5.80787 26.734 5.97413 26.5153L7.1603 24.9545L7.44751 24.6673C6.69978 23.4801 6.14582 22.1587 5.83002 20.7473H5.41758L3.47521 20.4824C3.20297 20.4453 3 20.2127 3 19.938V16.062C3 15.7873 3.20297 15.5547 3.47521 15.5176L5.41758 15.2527H5.83001C6.14581 13.8413 6.69976 12.5199 7.4475 11.3327L7.27685 11.162L5.97992 9.48553C5.81071 9.26678 5.83044 8.95636 6.026 8.76081L8.76082 6.02598C8.95638 5.83043 9.2668 5.8107 9.48554 5.97991L11.1621 7.27684L11.3203 7.43511C12.5094 6.6755 13.8353 6.11113 15.2527 5.78719V5.58242L15.5212 3.47987C15.5562 3.20555 15.7896 3 16.0662 3H19.9338C20.2104 3 20.4438 3.20555 20.4788 3.47987L20.7473 5.58242V5.76244C22.1795 6.07604 23.52 6.63468 24.7226 7.39217L24.838 7.27684L26.5145 5.97991C26.7332 5.8107 27.0436 5.83043 27.2392 6.02598L29.974 8.76081C30.1696 8.95636 30.1893 9.26679 30.0201 9.48553L28.7232 11.162L28.6202 11.265C29.3897 12.4695 29.9588 13.8145 30.2806 15.2527H30.4176L32.5201 15.5212C32.7945 15.5562 33 15.7896 33 16.0662V19.9338C33 20.2104 32.7945 20.4438 32.5201 20.4788L30.4176 20.7473H30.2806C29.9588 22.1855 29.3897 23.5304 28.6202 24.735L28.8397 24.9545L30.0259 26.5153C30.1922 26.734 30.1713 27.042 29.977 27.2362L27.2363 29.977C27.042 30.1712 26.734 30.1921 26.5153 30.0259L24.9545 28.8397L24.7226 28.6078C23.52 29.3653 22.1795 29.9239 20.7473 30.2375V30.5824L20.4824 32.5248C20.4453 32.797 20.2127 33 19.938 33H16.062Z" fill="black"/>
<path d="M15.5176 32.5248L12.5451 32.9301L12.5451 32.9301L15.5176 32.5248ZM15.2527 30.5824H12.2527V30.786L12.2803 30.9878L15.2527 30.5824ZM15.2527 30.2128H18.2527V27.821L15.9211 27.2882L15.2527 30.2128ZM11.3203 28.5649L12.9354 26.0367L10.9037 24.7388L9.19903 26.4435L11.3203 28.5649ZM11.0455 28.8397L12.8607 31.2282L13.0228 31.105L13.1668 30.961L11.0455 28.8397ZM9.48475 30.0259L7.6695 27.6374L7.66949 27.6374L9.48475 30.0259ZM8.76376 29.977L10.8851 27.8556L10.8851 27.8556L8.76376 29.977ZM6.02306 27.2362L3.90173 29.3576L3.90174 29.3576L6.02306 27.2362ZM5.97413 26.5153L3.58564 24.7L3.58563 24.7L5.97413 26.5153ZM7.1603 24.9545L5.03898 22.8332L4.89501 22.9772L4.77181 23.1393L7.1603 24.9545ZM7.44751 24.6673L9.56883 26.7886L11.2624 25.095L9.98596 23.0685L7.44751 24.6673ZM5.83002 20.7473L8.75764 20.0922L8.23297 17.7473H5.83002V20.7473ZM5.41758 20.7473L5.01224 23.7197L5.21398 23.7473H5.41758V20.7473ZM3.47521 20.4824L3.06987 23.4549H3.06987L3.47521 20.4824ZM3.47521 15.5176L3.06987 12.5451L3.06986 12.5451L3.47521 15.5176ZM5.41758 15.2527V12.2527H5.21398L5.01224 12.2803L5.41758 15.2527ZM5.83001 15.2527V18.2527H8.23297L8.75763 15.9078L5.83001 15.2527ZM7.4475 11.3327L9.98594 12.9315L11.2624 10.9049L9.56882 9.21137L7.4475 11.3327ZM7.27685 11.162L4.90398 12.9977L5.02068 13.1485L5.15553 13.2834L7.27685 11.162ZM5.97992 9.48553L3.60705 11.3211L3.60705 11.3211L5.97992 9.48553ZM6.026 8.76081L8.14732 10.8821L8.14732 10.8821L6.026 8.76081ZM8.76082 6.02598L10.8821 8.14731L10.8821 8.1473L8.76082 6.02598ZM9.48554 5.97991L7.64992 8.35278L7.64992 8.35278L9.48554 5.97991ZM11.1621 7.27684L13.2834 5.15552L13.1485 5.02066L12.9977 4.90397L11.1621 7.27684ZM11.3203 7.43511L9.199 9.55643L10.9037 11.2611L12.9354 9.96328L11.3203 7.43511ZM15.2527 5.78719L15.9211 8.71179L18.2527 8.17894V5.78719H15.2527ZM15.2527 5.58242L12.2769 5.20252L12.2527 5.3917V5.58242H15.2527ZM15.5212 3.47987L18.497 3.85977L18.497 3.85976L15.5212 3.47987ZM20.4788 3.47987L17.503 3.85975L17.503 3.85977L20.4788 3.47987ZM20.7473 5.58242H23.7473V5.3917L23.7231 5.20252L20.7473 5.58242ZM20.7473 5.76244H17.7473V8.17661L20.1056 8.693L20.7473 5.76244ZM24.7226 7.39217L23.1238 9.93062L25.1504 11.2071L26.844 9.51349L24.7226 7.39217ZM24.838 7.27684L23.0024 4.90397L22.8515 5.02067L22.7166 5.15553L24.838 7.27684ZM26.5145 5.97991L24.6789 3.60704L24.6789 3.60704L26.5145 5.97991ZM27.2392 6.02598L29.3605 3.90466L29.3605 3.90466L27.2392 6.02598ZM29.974 8.76081L27.8527 10.8821L27.8527 10.8821L29.974 8.76081ZM30.0201 9.48553L27.6472 7.64991H27.6472L30.0201 9.48553ZM28.7232 11.162L30.8445 13.2834L30.9794 13.1485L31.096 12.9977L28.7232 11.162ZM28.6202 11.265L26.4989 9.1437L24.7942 10.8484L26.092 12.88L28.6202 11.265ZM30.2806 15.2527L27.353 15.9078L27.8777 18.2527H30.2806V15.2527ZM30.4176 15.2527L30.7975 12.2769L30.6083 12.2527H30.4176V15.2527ZM32.5201 15.5212L32.1402 18.497L32.1402 18.497L32.5201 15.5212ZM32.5201 20.4788L32.1402 17.503L32.1402 17.503L32.5201 20.4788ZM30.4176 20.7473V23.7473H30.6083L30.7975 23.7231L30.4176 20.7473ZM30.2806 20.7473V17.7473H27.8777L27.353 20.0922L30.2806 20.7473ZM28.6202 24.735L26.092 23.1199L24.7942 25.1516L26.4989 26.8563L28.6202 24.735ZM28.8397 24.9545L31.2282 23.1393L31.105 22.9772L30.961 22.8332L28.8397 24.9545ZM30.0259 26.5153L27.6374 28.3305L27.6374 28.3305L30.0259 26.5153ZM29.977 27.2362L32.0983 29.3576L32.0983 29.3576L29.977 27.2362ZM27.2363 29.977L25.1149 27.8556H25.1149L27.2363 29.977ZM26.5153 30.0259L28.3305 27.6374V27.6374L26.5153 30.0259ZM24.9545 28.8397L22.8332 30.961L22.9772 31.105L23.1393 31.2282L24.9545 28.8397ZM24.7226 28.6078L26.8439 26.4865L25.1504 24.7929L23.1238 26.0694L24.7226 28.6078ZM20.7473 30.2375L20.1056 27.307L17.7473 27.8234V30.2375H20.7473ZM20.7473 30.5824L23.7197 30.9878L23.7473 30.786V30.5824H20.7473ZM20.4824 32.5248L23.4549 32.9301V32.9301L20.4824 32.5248ZM12.5451 32.9301C12.785 34.6888 14.287 36 16.062 36V30C17.2875 30 18.3245 30.9052 18.4901 32.1194L12.5451 32.9301ZM12.2803 30.9878L12.5451 32.9301L18.4901 32.1194L18.2252 30.1771L12.2803 30.9878ZM12.2527 30.2128V30.5824H18.2527V30.2128H12.2527ZM9.70531 31.093C11.1791 32.0345 12.8244 32.7352 14.5844 33.1374L15.9211 27.2882C14.8462 27.0425 13.8398 26.6144 12.9354 26.0367L9.70531 31.093ZM13.1668 30.961L13.4417 30.6862L9.19903 26.4435L8.92418 26.7184L13.1668 30.961ZM11.3 32.4144L12.8607 31.2282L9.23025 26.4512L7.6695 27.6374L11.3 32.4144ZM6.64244 32.0983C7.89753 33.3534 9.88682 33.4884 11.3 32.4144L7.66949 27.6374C8.64516 26.8959 10.0186 26.9891 10.8851 27.8556L6.64244 32.0983ZM3.90174 29.3576L6.64244 32.0983L10.8851 27.8556L8.14438 25.1149L3.90174 29.3576ZM3.58563 24.7C2.51163 26.1132 2.64664 28.1025 3.90173 29.3576L8.14438 25.1149C9.0109 25.9815 9.10411 27.3549 8.36262 28.3305L3.58563 24.7ZM4.77181 23.1393L3.58564 24.7L8.36261 28.3305L9.54878 26.7698L4.77181 23.1393ZM5.32619 22.546L5.03898 22.8332L9.28162 27.0758L9.56883 26.7886L5.32619 22.546ZM2.90241 21.4023C3.29451 23.1547 3.98224 24.7946 4.90907 26.2661L9.98596 23.0685C9.41732 22.1656 8.99712 21.1626 8.75764 20.0922L2.90241 21.4023ZM5.41758 23.7473H5.83002V17.7473H5.41758V23.7473ZM3.06987 23.4549L5.01224 23.7197L5.82292 17.7748L3.88055 17.5099L3.06987 23.4549ZM0 19.938C0 21.7129 1.31117 23.215 3.06987 23.4549L3.88056 17.5099C5.09476 17.6755 6 18.7125 6 19.938H0ZM0 16.062V19.938H6V16.062H0ZM3.06986 12.5451C1.31118 12.785 0 14.287 0 16.062H6C6 17.2875 5.09476 18.3245 3.88057 18.4901L3.06986 12.5451ZM5.01224 12.2803L3.06987 12.5451L3.88055 18.4901L5.82292 18.2252L5.01224 12.2803ZM5.83001 12.2527H5.41758V18.2527H5.83001V12.2527ZM4.90905 9.73385C3.98222 11.2054 3.2945 12.8453 2.9024 14.5977L8.75763 15.9078C8.99712 14.8374 9.41731 13.8343 9.98594 12.9315L4.90905 9.73385ZM5.15553 13.2834L5.32618 13.454L9.56882 9.21137L9.39817 9.04072L5.15553 13.2834ZM3.60705 11.3211L4.90398 12.9977L9.64972 9.32643L8.35279 7.64991L3.60705 11.3211ZM3.90468 6.63949C2.64141 7.90276 2.51393 9.90807 3.60705 11.3211L8.3528 7.64991C9.10749 8.6255 9.01948 10.01 8.14732 10.8821L3.90468 6.63949ZM6.6395 3.90466L3.90468 6.63949L8.14732 10.8821L10.8821 8.14731L6.6395 3.90466ZM11.3212 3.60705C9.90809 2.51391 7.90277 2.6414 6.6395 3.90467L10.8821 8.1473C10.01 9.01947 8.62551 9.10748 7.64992 8.35278L11.3212 3.60705ZM12.9977 4.90397L11.3212 3.60704L7.64992 8.35278L9.32644 9.64971L12.9977 4.90397ZM13.4416 5.31378L13.2834 5.15552L9.04074 9.39817L9.199 9.55643L13.4416 5.31378ZM14.5844 2.86259C12.8244 3.26481 11.1791 3.96545 9.70528 4.90694L12.9354 9.96328C13.8397 9.38554 14.8462 8.95744 15.9211 8.71179L14.5844 2.86259ZM12.2527 5.58242V5.78719H18.2527V5.58242H12.2527ZM12.5453 3.09998L12.2769 5.20252L18.2286 5.96231L18.497 3.85977L12.5453 3.09998ZM16.0662 0C14.2797 0 12.7715 1.32782 12.5453 3.09998L18.497 3.85976C18.3408 5.08327 17.2996 6 16.0662 6V0ZM19.9338 0H16.0662V6H19.9338V0ZM23.4547 3.09999C23.2285 1.32783 21.7203 0 19.9338 0V6C18.7004 6 17.6592 5.08327 17.503 3.85975L23.4547 3.09999ZM23.7231 5.20252L23.4547 3.09997L17.503 3.85977L17.7714 5.96232L23.7231 5.20252ZM23.7473 5.76244V5.58242H17.7473V5.76244H23.7473ZM26.3215 4.85373C24.8307 3.91479 23.1672 3.22125 21.389 2.83187L20.1056 8.693C21.1917 8.93084 22.2092 9.35456 23.1238 9.93062L26.3215 4.85373ZM22.7166 5.15553L22.6013 5.27086L26.844 9.51349L26.9593 9.39816L22.7166 5.15553ZM24.6789 3.60704L23.0024 4.90397L26.6736 9.64971L28.3501 8.35278L24.6789 3.60704ZM29.3605 3.90466C28.0973 2.6414 26.0919 2.51391 24.6789 3.60704L28.3501 8.35278C27.3745 9.10748 25.99 9.01947 25.1179 8.14731L29.3605 3.90466ZM32.0953 6.63949L29.3605 3.90466L25.1179 8.14731L27.8527 10.8821L32.0953 6.63949ZM32.393 11.3211C33.4861 9.90809 33.3586 7.90277 32.0953 6.63949L27.8527 10.8821C26.9805 10.01 26.8925 8.62548 27.6472 7.64991L32.393 11.3211ZM31.096 12.9977L32.393 11.3211L27.6472 7.64991L26.3503 9.32643L31.096 12.9977ZM30.7415 13.3863L30.8445 13.2834L26.6018 9.04073L26.4989 9.1437L30.7415 13.3863ZM33.2082 14.5977C32.8087 12.8119 32.1021 11.1429 31.1484 9.64997L26.092 12.88C26.6773 13.7962 27.109 14.817 27.353 15.9078L33.2082 14.5977ZM30.4176 12.2527H30.2806V18.2527H30.4176V12.2527ZM32.9 12.5453L30.7975 12.2769L30.0377 18.2286L32.1402 18.497L32.9 12.5453ZM36 16.0662C36 14.2797 34.6722 12.7715 32.9 12.5453L32.1402 18.497C30.9167 18.3408 30 17.2996 30 16.0662H36ZM36 19.9338V16.0662H30V19.9338H36ZM32.9 23.4547C34.6722 23.2285 36 21.7204 36 19.9338H30C30 18.7004 30.9167 17.6592 32.1402 17.503L32.9 23.4547ZM30.7975 23.7231L32.9 23.4547L32.1402 17.503L30.0377 17.7714L30.7975 23.7231ZM30.2806 23.7473H30.4176V17.7473H30.2806V23.7473ZM31.1484 26.35C32.1021 24.8571 32.8087 23.1881 33.2082 21.4023L27.353 20.0922C27.109 21.1829 26.6773 22.2038 26.092 23.1199L31.1484 26.35ZM30.961 22.8332L30.7415 22.6137L26.4989 26.8563L26.7184 27.0758L30.961 22.8332ZM32.4144 24.7L31.2282 23.1393L26.4512 26.7698L27.6374 28.3305L32.4144 24.7ZM32.0983 29.3576C33.3534 28.1025 33.4884 26.1132 32.4144 24.7L27.6374 28.3305C26.8959 27.3549 26.9891 25.9814 27.8556 25.1149L32.0983 29.3576ZM29.3576 32.0983L32.0983 29.3576L27.8556 25.1149L25.1149 27.8556L29.3576 32.0983ZM24.7 32.4144C26.1132 33.4884 28.1025 33.3534 29.3576 32.0983L25.1149 27.8556C25.9815 26.9891 27.3549 26.8959 28.3305 27.6374L24.7 32.4144ZM23.1393 31.2282L24.7 32.4144L28.3305 27.6374L26.7698 26.4512L23.1393 31.2282ZM22.6013 30.7291L22.8332 30.961L27.0759 26.7184L26.8439 26.4865L22.6013 30.7291ZM21.389 33.1681C23.1672 32.7787 24.8307 32.0852 26.3215 31.1462L23.1238 26.0694C22.2092 26.6454 21.1917 27.0691 20.1056 27.307L21.389 33.1681ZM23.7473 30.5824V30.2375H17.7473V30.5824H23.7473ZM23.4549 32.9301L23.7197 30.9878L17.7748 30.1771L17.5099 32.1194L23.4549 32.9301ZM19.938 36C21.713 36 23.215 34.6888 23.4549 32.9301L17.5099 32.1194C17.6755 30.9052 18.7125 30 19.938 30V36ZM16.062 36H19.938V30H16.062V36Z" fill="black" mask="url(#path-1-outside-1_1008_890)"/>
<path d="M15 11V26L26 18.5L15 11Z" fill="white"/>
</svg>
