<svg width="31" height="31" viewBox="0 0 31 31" fill="none" xmlns="http://www.w3.org/2000/svg">
<mask id="path-1-outside-1_77_957" maskUnits="userSpaceOnUse" x="0" y="0" width="31" height="31" fill="black">
<rect fill="white" width="31" height="31"/>
<path fill-rule="evenodd" clip-rule="evenodd" d="M13.885 28C13.6561 28 13.4623 27.8309 13.4313 27.604L13.2106 25.9853V25.6773C12.0294 25.4074 10.9245 24.9371 9.93353 24.3041L9.70458 24.5331L8.40396 25.5216C8.22166 25.6601 7.96504 25.6427 7.80314 25.4808L5.51921 23.1969C5.35731 23.035 5.33989 22.7784 5.47844 22.5961L6.46692 21.2954L6.7061 21.0562C6.08294 20.0669 5.62127 18.9656 5.35809 17.7894H5.01465L3.39601 17.5687C3.16914 17.5377 3 17.3439 3 17.115V13.885C3 13.6561 3.16914 13.4623 3.39601 13.4313L5.01465 13.2106H5.35807C5.62124 12.0344 6.08291 10.9331 6.70607 9.94373L6.56405 9.8017L5.48327 8.40461C5.34226 8.22232 5.3587 7.96364 5.52166 7.80068L7.80069 5.52165C7.96365 5.35869 8.22233 5.34225 8.40461 5.48326L9.80171 6.56404L9.93348 6.6958C10.9244 6.06279 12.0294 5.5925 13.2106 5.32257V5.15201L13.4343 3.39989C13.4635 3.17129 13.658 3 13.8885 3H17.1115C17.342 3 17.5365 3.17129 17.5657 3.39989L17.7894 5.15201V5.30206C18.9829 5.56343 20.0999 6.02898 21.1021 6.66024L21.1983 6.56404L22.5954 5.48326C22.7777 5.34225 23.0364 5.35869 23.1993 5.52165L25.4784 7.80068C25.6413 7.96364 25.6578 8.22232 25.5167 8.40461L24.436 9.8017L24.35 9.88766C24.9912 10.8914 25.4654 12.0121 25.7336 13.2106H25.848L27.6001 13.4343C27.8287 13.4635 28 13.658 28 13.8885V17.1115C28 17.342 27.8287 17.5365 27.6001 17.5657L25.848 17.7894H25.7336C25.4654 18.9879 24.9912 20.1086 24.35 21.1123L24.5331 21.2954L25.5216 22.5961C25.6601 22.7784 25.6427 23.035 25.4808 23.1969L23.1969 25.4808C23.035 25.6427 22.7784 25.6601 22.5961 25.5216L21.2954 24.5331L21.1021 24.3397C20.0999 24.971 18.9828 25.4365 17.7894 25.6979V25.9853L17.5687 27.604C17.5377 27.8309 17.3439 28 17.115 28H13.885Z"/>
</mask>
<path d="M13.4313 27.604L11.1795 27.9111L11.1795 27.9111L13.4313 27.604ZM13.2106 25.9853H10.9379V26.1396L10.9587 26.2924L13.2106 25.9853ZM13.2106 25.6773H15.4834V23.8654L13.7169 23.4617L13.2106 25.6773ZM9.93353 24.3041L11.157 22.3888L9.61788 21.4057L8.32647 22.6971L9.93353 24.3041ZM9.70458 24.5331L11.0798 26.3426L11.2026 26.2492L11.3116 26.1402L9.70458 24.5331ZM8.40396 25.5216L7.02877 23.7121H7.02876L8.40396 25.5216ZM7.80314 25.4808L9.4102 23.8737L9.4102 23.8737L7.80314 25.4808ZM5.51921 23.1969L3.91215 24.8039L3.91215 24.8039L5.51921 23.1969ZM5.47844 22.5961L3.66898 21.2209L3.66897 21.2209L5.47844 22.5961ZM6.46692 21.2954L4.85985 19.6884L4.75079 19.7974L4.65746 19.9202L6.46692 21.2954ZM6.7061 21.0562L8.31317 22.6633L9.5962 21.3803L8.62914 19.845L6.7061 21.0562ZM5.35809 17.7894L7.57598 17.2931L7.1785 15.5166H5.35809V17.7894ZM5.01465 17.7894L4.70758 20.0413L4.86041 20.0621H5.01465V17.7894ZM3.39601 17.5687L3.70309 15.3168L3.70308 15.3168L3.39601 17.5687ZM3.39601 13.4313L3.08893 11.1795L3.08893 11.1795L3.39601 13.4313ZM5.01465 13.2106V10.9379H4.86041L4.70758 10.9587L5.01465 13.2106ZM5.35807 13.2106V15.4834H7.17849L7.57596 13.7069L5.35807 13.2106ZM6.70607 9.94373L8.62912 11.155L9.59617 9.6197L8.31313 8.33667L6.70607 9.94373ZM6.56405 9.8017L4.76642 11.1923L4.85482 11.3066L4.95699 11.4088L6.56405 9.8017ZM5.48327 8.40461L3.68564 9.79522L3.68564 9.79523L5.48327 8.40461ZM5.52166 7.80068L3.9146 6.19362L3.9146 6.19362L5.52166 7.80068ZM7.80069 5.52165L6.19363 3.91459L6.19363 3.91459L7.80069 5.52165ZM8.40461 5.48326L7.01399 7.28089L7.014 7.28089L8.40461 5.48326ZM9.80171 6.56404L11.4088 4.95698L11.3066 4.85481L11.1923 4.76641L9.80171 6.56404ZM9.93348 6.6958L8.32642 8.30286L9.61784 9.59429L11.157 8.6111L9.93348 6.6958ZM13.2106 5.32257L13.7169 7.53819L15.4834 7.13455V5.32257H13.2106ZM13.2106 5.15201L10.9562 4.86422L10.9379 5.00753V5.15201H13.2106ZM13.4343 3.39989L11.1799 3.11209L11.1799 3.11209L13.4343 3.39989ZM17.5657 3.39989L15.3113 3.68769V3.68769L17.5657 3.39989ZM17.7894 5.15201H20.0621V5.00753L20.0438 4.86422L17.7894 5.15201ZM17.7894 5.30206H15.5166V7.13094L17.3032 7.52218L17.7894 5.30206ZM21.1021 6.66024L19.8908 8.58327L21.4261 9.55034L22.7092 8.26729L21.1021 6.66024ZM21.1983 6.56404L19.8077 4.76641L19.6934 4.85481L19.5912 4.95698L21.1983 6.56404ZM22.5954 5.48326L21.2048 3.68563L21.2048 3.68563L22.5954 5.48326ZM23.1993 5.52165L21.5923 7.12871L21.5923 7.12872L23.1993 5.52165ZM25.4784 7.80068L27.0854 6.19362L27.0854 6.19361L25.4784 7.80068ZM25.5167 8.40461L23.7191 7.01399L23.7191 7.01399L25.5167 8.40461ZM24.436 9.8017L26.043 11.4088L26.1452 11.3066L26.2336 11.1923L24.436 9.8017ZM24.35 9.88766L22.743 8.2806L21.4515 9.57201L22.4347 11.1111L24.35 9.88766ZM25.7336 13.2106L23.5157 13.7069L23.9132 15.4834H25.7336V13.2106ZM25.848 13.2106L26.1358 10.9562L25.9925 10.9379H25.848V13.2106ZM27.6001 13.4343L27.8879 11.1799H27.8879L27.6001 13.4343ZM27.6001 17.5657L27.3123 15.3113H27.3123L27.6001 17.5657ZM25.848 17.7894V20.0621H25.9925L26.1358 20.0438L25.848 17.7894ZM25.7336 17.7894V15.5166H23.9132L23.5157 17.2931L25.7336 17.7894ZM24.35 21.1123L22.4347 19.8888L21.4515 21.4279L22.7429 22.7194L24.35 21.1123ZM24.5331 21.2954L26.3426 19.9202L26.2492 19.7974L26.1402 19.6884L24.5331 21.2954ZM25.5216 22.5961L23.7121 23.9712L23.7121 23.9712L25.5216 22.5961ZM25.4808 23.1969L27.0879 24.8039L27.0879 24.8039L25.4808 23.1969ZM23.1969 25.4808L21.5898 23.8737V23.8737L23.1969 25.4808ZM22.5961 25.5216L21.2209 27.331L21.2209 27.331L22.5961 25.5216ZM21.2954 24.5331L19.6884 26.1402L19.7974 26.2492L19.9202 26.3426L21.2954 24.5331ZM21.1021 24.3397L22.7091 22.7327L21.4261 21.4496L19.8908 22.4167L21.1021 24.3397ZM17.7894 25.6979L17.3032 23.4777L15.5166 23.869V25.6979H17.7894ZM17.7894 25.9853L20.0413 26.2924L20.0621 26.1396V25.9853H17.7894ZM17.5687 27.604L15.3168 27.2969V27.2969L17.5687 27.604ZM11.1795 27.9111C11.364 29.264 12.5195 30.2727 13.885 30.2727V25.7273C14.7926 25.7273 15.5606 26.3977 15.6832 27.2969L11.1795 27.9111ZM10.9587 26.2924L11.1795 27.9111L15.6832 27.2969L15.4625 25.6783L10.9587 26.2924ZM10.9379 25.6773V25.9853H15.4834V25.6773H10.9379ZM8.71005 26.2195C9.91668 26.9902 11.2636 27.5637 12.7043 27.893L13.7169 23.4617C12.7952 23.2511 11.9322 22.8841 11.157 22.3888L8.71005 26.2195ZM11.3116 26.1402L11.5406 25.9112L8.32647 22.6971L8.09752 22.926L11.3116 26.1402ZM9.77915 27.331L11.0798 26.3426L8.32939 22.7236L7.02877 23.7121L9.77915 27.331ZM6.19607 27.0879C7.16162 28.0534 8.69199 28.1573 9.77915 27.331L7.02876 23.7121C7.75133 23.163 8.76846 23.232 9.4102 23.8737L6.19607 27.0879ZM3.91215 24.8039L6.19608 27.0879L9.4102 23.8737L7.12628 21.5898L3.91215 24.8039ZM3.66897 21.2209C2.84274 22.308 2.9466 23.8384 3.91215 24.8039L7.12628 21.5898C7.76801 22.2316 7.83704 23.2487 7.2879 23.9712L3.66897 21.2209ZM4.65746 19.9202L3.66898 21.2209L7.2879 23.9712L8.27638 22.6706L4.65746 19.9202ZM5.09904 19.4492L4.85985 19.6884L8.07398 22.9025L8.31317 22.6633L5.09904 19.4492ZM3.1402 18.2856C3.46119 19.7202 4.02421 21.0628 4.78306 22.2675L8.62914 19.845C8.14167 19.071 7.78134 18.211 7.57598 17.2931L3.1402 18.2856ZM5.01465 20.0621H5.35809V15.5166H5.01465V20.0621ZM3.08893 19.8205L4.70758 20.0413L5.32173 15.5375L3.70309 15.3168L3.08893 19.8205ZM0.727272 17.115C0.727272 18.4805 1.73596 19.636 3.08894 19.8205L3.70308 15.3168C4.60232 15.4394 5.27273 16.2074 5.27273 17.115H0.727272ZM0.727272 13.885V17.115H5.27273V13.885H0.727272ZM3.08893 11.1795C1.73596 11.364 0.727272 12.5195 0.727272 13.885H5.27273C5.27273 14.7926 4.60232 15.5606 3.70309 15.6832L3.08893 11.1795ZM4.70758 10.9587L3.08893 11.1795L3.70309 15.6832L5.32173 15.4625L4.70758 10.9587ZM5.35807 10.9379H5.01465V15.4834H5.35807V10.9379ZM4.78303 8.73246C4.02417 9.93723 3.46116 11.2798 3.14018 12.7144L7.57596 13.7069C7.78132 12.789 8.14165 11.9289 8.62912 11.155L4.78303 8.73246ZM4.95699 11.4088L5.09901 11.5508L8.31313 8.33667L8.17111 8.19464L4.95699 11.4088ZM3.68564 9.79523L4.76642 11.1923L8.36167 8.41108L7.2809 7.01399L3.68564 9.79523ZM3.9146 6.19362C2.94277 7.16545 2.84469 8.70814 3.68564 9.79522L7.2809 7.01399C7.83982 7.7365 7.77464 8.76182 7.12873 9.40774L3.9146 6.19362ZM6.19363 3.91459L3.9146 6.19362L7.12873 9.40774L9.40775 7.12872L6.19363 3.91459ZM9.79524 3.68563C8.70816 2.84468 7.16546 2.94276 6.19363 3.91459L9.40775 7.12872C8.76183 7.77463 7.73651 7.83982 7.01399 7.28089L9.79524 3.68563ZM11.1923 4.76641L9.79523 3.68563L7.014 7.28089L8.41109 8.36167L11.1923 4.76641ZM11.5405 5.08874L11.4088 4.95698L8.19465 8.1711L8.32642 8.30286L11.5405 5.08874ZM12.7043 3.10695C11.2636 3.43618 9.91664 4.0097 8.71 4.7805L11.157 8.6111C11.9322 8.11588 12.7952 7.74882 13.7169 7.53819L12.7043 3.10695ZM10.9379 5.15201V5.32257H15.4834V5.15201H10.9379ZM11.1799 3.11209L10.9562 4.86422L15.4651 5.43981L15.6887 3.68769L11.1799 3.11209ZM13.8885 0.727272C12.5141 0.727272 11.3539 1.74877 11.1799 3.11209L15.6887 3.6877C15.5731 4.5938 14.802 5.27273 13.8885 5.27273V0.727272ZM17.1115 0.727272H13.8885V5.27273H17.1115V0.727272ZM19.8201 3.1121C19.6461 1.74877 18.4859 0.727272 17.1115 0.727272V5.27273C16.1981 5.27273 15.4269 4.59381 15.3113 3.68769L19.8201 3.1121ZM20.0438 4.86422L19.8201 3.11209L15.3113 3.68769L15.5349 5.43981L20.0438 4.86422ZM20.0621 5.30206V5.15201H15.5166V5.30206H20.0621ZM22.3134 4.7372C21.093 3.96848 19.7312 3.40073 18.2756 3.08195L17.3032 7.52218C18.2345 7.72614 19.1069 8.08948 19.8908 8.58327L22.3134 4.7372ZM19.5912 4.95698L19.495 5.05318L22.7092 8.26729L22.8054 8.17109L19.5912 4.95698ZM21.2048 3.68563L19.8077 4.76641L22.5889 8.36166L23.986 7.28089L21.2048 3.68563ZM24.8064 3.91459C23.8346 2.94276 22.2919 2.84468 21.2048 3.68563L23.986 7.28089C23.2635 7.83981 22.2382 7.77463 21.5923 7.12871L24.8064 3.91459ZM27.0854 6.19361L24.8064 3.91459L21.5923 7.12872L23.8713 9.40774L27.0854 6.19361ZM27.3144 9.79523C28.1553 8.70816 28.0573 7.16546 27.0854 6.19362L23.8713 9.40774C23.2254 8.76181 23.1602 7.73648 23.7191 7.01399L27.3144 9.79523ZM26.2336 11.1923L27.3144 9.79522L23.7191 7.01399L22.6383 8.41108L26.2336 11.1923ZM25.9571 11.4947L26.043 11.4088L22.8289 8.19464L22.743 8.2806L25.9571 11.4947ZM27.9515 12.7144C27.6244 11.2526 27.0461 9.88643 26.2653 8.66419L22.4347 11.1111C22.9363 11.8964 23.3064 12.7716 23.5157 13.7069L27.9515 12.7144ZM25.848 10.9379H25.7336V15.4834H25.848V10.9379ZM27.8879 11.1799L26.1358 10.9562L25.5602 15.4651L27.3123 15.6887L27.8879 11.1799ZM30.2727 13.8885C30.2727 12.5141 29.2512 11.3539 27.8879 11.1799L27.3123 15.6887C26.4062 15.5731 25.7273 14.8019 25.7273 13.8885H30.2727ZM30.2727 17.1115V13.8885H25.7273V17.1115H30.2727ZM27.8879 19.8201C29.2512 19.6461 30.2727 18.4859 30.2727 17.1115H25.7273C25.7273 16.198 26.4062 15.4269 27.3123 15.3113L27.8879 19.8201ZM26.1358 20.0438L27.8879 19.8201L27.3123 15.3113L25.5602 15.5349L26.1358 20.0438ZM25.7336 20.0621H25.848V15.5166H25.7336V20.0621ZM26.2653 22.3358C27.046 21.1136 27.6244 19.7474 27.9515 18.2856L23.5157 17.2931C23.3064 18.2283 22.9363 19.1036 22.4347 19.8888L26.2653 22.3358ZM26.1402 19.6884L25.957 19.5052L22.7429 22.7194L22.926 22.9025L26.1402 19.6884ZM27.331 21.2209L26.3426 19.9202L22.7236 22.6706L23.7121 23.9712L27.331 21.2209ZM27.0879 24.8039C28.0534 23.8384 28.1573 22.308 27.331 21.2209L23.7121 23.9712C23.163 23.2487 23.232 22.2316 23.8737 21.5898L27.0879 24.8039ZM24.8039 27.0879L27.0879 24.8039L23.8737 21.5898L21.5898 23.8737L24.8039 27.0879ZM21.2209 27.331C22.308 28.1573 23.8384 28.0534 24.8039 27.0879L21.5898 23.8737C22.2316 23.232 23.2487 23.163 23.9712 23.7121L21.2209 27.331ZM19.9202 26.3426L21.2209 27.331L23.9713 23.7121L22.6706 22.7236L19.9202 26.3426ZM19.495 25.9468L19.6884 26.1402L22.9025 22.926L22.7091 22.7327L19.495 25.9468ZM18.2756 27.918C19.7312 27.5992 21.0929 27.0315 22.3133 26.2628L19.8908 22.4167C19.1068 22.9105 18.2345 23.2738 17.3032 23.4777L18.2756 27.918ZM20.0621 25.9853V25.6979H15.5166V25.9853H20.0621ZM19.8205 27.9111L20.0413 26.2924L15.5375 25.6783L15.3168 27.2969L19.8205 27.9111ZM17.115 30.2727C18.4805 30.2727 19.636 29.264 19.8205 27.9111L15.3168 27.2969C15.4394 26.3977 16.2074 25.7273 17.115 25.7273V30.2727ZM13.885 30.2727H17.115V25.7273H13.885V30.2727Z" fill="black" mask="url(#path-1-outside-1_77_957)"/>
<circle cx="15.5004" cy="15.5" r="6.81818" stroke="black" stroke-width="2.27273"/>
</svg>
