<svg width="178" height="79" viewBox="0 0 178 79" fill="none" xmlns="http://www.w3.org/2000/svg">
<path d="M11.1339 38.0156L9.52166 51.3227H13.6673L15.2795 38.0156H11.1339ZM5.58071 16.0077H26.1044L25.1319 24.1967H12.7973L12.1063 29.8266H24.441L20.8839 59.5117H0.360236L5.58071 16.0077ZM46.2186 16.0077L45.2461 24.1967H37.2618L36.1103 33.7676H44.0945L43.1221 41.9566H35.1122L33.9863 51.3227H41.9705L40.9981 59.5117H24.8248L30.0453 16.0077H46.2186ZM68.4056 59.5117H60.2166L64.4646 24.1967H61.6753L55.5591 59.5117H44.2993L45.2717 51.3227H48.7776L54.8938 16.0077H73.6261L68.4056 59.5117ZM95.8387 59.5117H87.6497L91.8977 24.1967H89.1084L82.9922 59.5117H71.7324L72.7048 51.3227H76.2107L82.3269 16.0077H101.059L95.8387 59.5117Z" fill="black"/>
<path fill-rule="evenodd" clip-rule="evenodd" d="M128.431 68.3337C137.88 68.3337 145.541 60.6731 145.541 51.2231C145.869 43.4158 141.944 35.9413 137.581 27.6323C134.204 21.1999 130.564 14.2674 128.431 6.29333C126.298 14.2674 122.657 21.1999 119.28 27.6323C114.917 35.9413 110.992 43.4158 111.32 51.2231C111.32 60.6731 118.981 68.3337 128.431 68.3337ZM117.718 48.6755C118.221 44.707 120.096 41.331 122.142 37.6477C124.579 33.2607 127.258 28.4376 128.149 21.6578C130.038 26.7654 128.993 31.4353 124.657 47.3819C122.242 57.9742 129.003 61.8702 133.543 57.7963C136.96 53.941 135.337 49.1257 133.302 43.0875C131.654 38.1958 129.735 32.5015 130.006 25.8647C130.113 28.2505 133.491 35.6737 136.129 41.4702C137.082 43.5636 137.938 45.4448 138.508 46.7999C139.439 49.0115 139.501 50.6636 139.207 53.9002C137.701 61.8457 130.427 64.8633 124.508 62.3485C119.457 60.2027 117.028 54.1194 117.718 48.6755ZM130.024 25.487C130.005 25.5933 130 25.7197 130.006 25.8647C130.011 25.7391 130.017 25.6132 130.024 25.487Z" fill="black"/>
<path d="M154.018 56.6941C155.532 45.4035 147.733 37.2556 146.103 28.4093C144.939 38.6524 152.019 42.463 149.712 54.9482C148.315 62.5066 141.778 70.7921 132.252 72.2915C143.775 73.8047 152.389 67.4028 154.018 56.6941Z" fill="black"/>
<path d="M103.347 56.6941C101.834 45.4035 109.632 37.2556 111.262 28.4093C112.426 38.6524 105.346 42.463 107.654 54.9482C109.05 62.5066 115.588 70.7921 125.113 72.2915C113.59 73.8047 104.976 67.4028 103.347 56.6941Z" fill="black"/>
<path d="M164.888 51.3227H172.872L171.9 59.5117H155.726L160.947 16.0077H177.12L176.148 24.1967H168.163L164.888 51.3227Z" fill="black"/>
</svg>
