<svg width="46" height="46" viewBox="0 0 46 46" fill="none" xmlns="http://www.w3.org/2000/svg">
<mask id="path-1-outside-1_325_5915" maskUnits="userSpaceOnUse" x="0" y="0" width="46" height="46" fill="black">
<rect fill="white" width="46" height="46"/>
<path fill-rule="evenodd" clip-rule="evenodd" d="M20.416 43C20.0497 43 19.7397 42.7294 19.6902 42.3664L19.337 39.7766V39.2838C17.447 38.8519 15.6791 38.0995 14.0936 37.0867L13.7273 37.453L11.6463 39.0345C11.3547 39.2562 10.9441 39.2283 10.685 38.9693L7.03074 35.315C6.77169 35.056 6.74383 34.6454 6.9655 34.3537L8.54706 32.2727L8.92978 31.89C7.93273 30.307 7.19407 28.545 6.773 26.663H6.22344L3.63362 26.3098C3.27062 26.2603 3 25.9503 3 25.584V20.416C3 20.0497 3.27062 19.7397 3.63362 19.6902L6.22344 19.337H6.77301C7.19409 17.455 7.93275 15.693 8.9298 14.1101L8.70247 13.8827L6.97323 11.6474C6.74761 11.3557 6.77393 10.9418 7.03466 10.6811L10.6811 7.03465C10.9418 6.77391 11.3557 6.7476 11.6474 6.97322L13.8827 8.70246L14.0937 8.91337C15.6791 7.90057 17.447 7.1481 19.337 6.71622V6.44322L19.6949 3.63983C19.7416 3.27406 20.0528 3 20.4216 3H25.5784C25.9472 3 26.2584 3.27406 26.3051 3.63983L26.663 6.44322V6.68337C28.5726 7.10155 30.3598 7.8464 31.9633 8.8564L32.1173 8.70246L34.3526 6.97322C34.6443 6.7476 35.0582 6.77391 35.3189 7.03465L38.9654 10.6811C39.2261 10.9418 39.2524 11.3557 39.0268 11.6474L37.2976 13.8827L37.16 14.0202C38.186 15.6262 38.9447 17.4194 39.3738 19.337H39.5568L42.3602 19.6949C42.7259 19.7416 43 20.0528 43 20.4216V25.5784C43 25.9472 42.7259 26.2584 42.3602 26.3051L39.5568 26.663H39.3738C38.9448 28.5806 38.186 30.3738 37.1601 31.9798L37.453 32.2727L39.0345 34.3537C39.2562 34.6454 39.2283 35.056 38.9693 35.315L35.315 38.9693C35.056 39.2283 34.6454 39.2562 34.3537 39.0345L32.2727 37.453L31.9634 37.1436C30.3599 38.1536 28.5726 38.8985 26.663 39.3167V39.7766L26.3098 42.3664C26.2603 42.7294 25.9503 43 25.584 43H20.416Z"/>
</mask>
<path fill-rule="evenodd" clip-rule="evenodd" d="M20.416 43C20.0497 43 19.7397 42.7294 19.6902 42.3664L19.337 39.7766V39.2838C17.447 38.8519 15.6791 38.0995 14.0936 37.0867L13.7273 37.453L11.6463 39.0345C11.3547 39.2562 10.9441 39.2283 10.685 38.9693L7.03074 35.315C6.77169 35.056 6.74383 34.6454 6.9655 34.3537L8.54706 32.2727L8.92978 31.89C7.93273 30.307 7.19407 28.545 6.773 26.663H6.22344L3.63362 26.3098C3.27062 26.2603 3 25.9503 3 25.584V20.416C3 20.0497 3.27062 19.7397 3.63362 19.6902L6.22344 19.337H6.77301C7.19409 17.455 7.93275 15.693 8.9298 14.1101L8.70247 13.8827L6.97323 11.6474C6.74761 11.3557 6.77393 10.9418 7.03466 10.6811L10.6811 7.03465C10.9418 6.77391 11.3557 6.7476 11.6474 6.97322L13.8827 8.70246L14.0937 8.91337C15.6791 7.90057 17.447 7.1481 19.337 6.71622V6.44322L19.6949 3.63983C19.7416 3.27406 20.0528 3 20.4216 3H25.5784C25.9472 3 26.2584 3.27406 26.3051 3.63983L26.663 6.44322V6.68337C28.5726 7.10155 30.3598 7.8464 31.9633 8.8564L32.1173 8.70246L34.3526 6.97322C34.6443 6.7476 35.0582 6.77391 35.3189 7.03465L38.9654 10.6811C39.2261 10.9418 39.2524 11.3557 39.0268 11.6474L37.2976 13.8827L37.16 14.0202C38.186 15.6262 38.9447 17.4194 39.3738 19.337H39.5568L42.3602 19.6949C42.7259 19.7416 43 20.0528 43 20.4216V25.5784C43 25.9472 42.7259 26.2584 42.3602 26.3051L39.5568 26.663H39.3738C38.9448 28.5806 38.186 30.3738 37.1601 31.9798L37.453 32.2727L39.0345 34.3537C39.2562 34.6454 39.2283 35.056 38.9693 35.315L35.315 38.9693C35.056 39.2283 34.6454 39.2562 34.3537 39.0345L32.2727 37.453L31.9634 37.1436C30.3599 38.1536 28.5726 38.8985 26.663 39.3167V39.7766L26.3098 42.3664C26.2603 42.7294 25.9503 43 25.584 43H20.416Z" fill="black"/>
<path d="M19.6902 42.3664L17.1663 42.7105V42.7105L19.6902 42.3664ZM19.337 39.7766H16.7898V39.9494L16.8132 40.1207L19.337 39.7766ZM19.337 39.2838H21.8842V37.253L19.9044 36.8007L19.337 39.2838ZM14.0936 37.0867L15.4649 34.9401L13.7399 33.8382L12.2925 35.2855L14.0936 37.0867ZM13.7273 37.453L15.2686 39.4809L15.4062 39.3763L15.5285 39.2541L13.7273 37.453ZM11.6463 39.0345L10.1051 37.0066L10.1051 37.0066L11.6463 39.0345ZM10.685 38.9693L12.4861 37.1682L12.4861 37.1682L10.685 38.9693ZM7.03074 35.315L8.83186 33.5139L8.83186 33.5139L7.03074 35.315ZM6.9655 34.3537L4.93754 32.8124L4.93753 32.8124L6.9655 34.3537ZM8.54706 32.2727L6.74594 30.4716L6.62371 30.5938L6.51911 30.7314L8.54706 32.2727ZM8.92978 31.89L10.7309 33.6911L12.1689 32.2531L11.085 30.5324L8.92978 31.89ZM6.773 26.663L9.25871 26.1068L8.81324 24.1158H6.773V26.663ZM6.22344 26.663L5.87929 29.1868L6.05057 29.2102H6.22344V26.663ZM3.63362 26.3098L3.97777 23.786H3.97776L3.63362 26.3098ZM3.63362 19.6902L3.28946 17.1663H3.28946L3.63362 19.6902ZM6.22344 19.337V16.7898H6.05057L5.87929 16.8132L6.22344 19.337ZM6.77301 19.337V21.8842H8.81324L9.25872 19.8932L6.77301 19.337ZM8.9298 14.1101L11.0851 15.4676L12.1689 13.7469L10.7309 12.3089L8.9298 14.1101ZM8.70247 13.8827L6.68777 15.4413L6.78685 15.5693L6.90135 15.6838L8.70247 13.8827ZM6.97323 11.6474L4.95853 13.2059L4.95853 13.2059L6.97323 11.6474ZM7.03466 10.6811L5.23354 8.87996L5.23354 8.87996L7.03466 10.6811ZM10.6811 7.03465L12.4822 8.83577L12.4822 8.83576L10.6811 7.03465ZM11.6474 6.97322L10.0888 8.98792L10.0888 8.98792L11.6474 6.97322ZM13.8827 8.70246L15.6839 6.90133L15.5694 6.78683L15.4413 6.68776L13.8827 8.70246ZM14.0937 8.91337L12.2925 10.7145L13.7399 12.1619L15.4649 11.06L14.0937 8.91337ZM19.337 6.71622L19.9044 9.19939L21.8842 8.747V6.71622H19.337ZM19.337 6.44322L16.8103 6.12067L16.7898 6.2813V6.44322H19.337ZM19.6949 3.63983L17.1682 3.31726L17.1682 3.31728L19.6949 3.63983ZM26.3051 3.63983L23.7785 3.96238V3.96238L26.3051 3.63983ZM26.663 6.44322H29.2102V6.2813L29.1897 6.12067L26.663 6.44322ZM26.663 6.68337H24.1158V8.7331L26.1181 9.17158L26.663 6.68337ZM31.9633 8.8564L30.6058 11.0117L32.3265 12.0955L33.7645 10.6575L31.9633 8.8564ZM32.1173 8.70246L30.5588 6.68776L30.4307 6.78683L30.3162 6.90133L32.1173 8.70246ZM34.3526 6.97322L32.7941 4.95852V4.95852L34.3526 6.97322ZM35.3189 7.03465L37.1201 5.23353L37.1201 5.23352L35.3189 7.03465ZM38.9654 10.6811L37.1642 12.4822L37.1643 12.4822L38.9654 10.6811ZM39.0268 11.6474L37.0121 10.0888L37.0121 10.0888L39.0268 11.6474ZM37.2976 13.8827L39.0987 15.6838L39.2132 15.5693L39.3123 15.4413L37.2976 13.8827ZM37.16 14.0202L35.3589 12.2191L33.9116 13.6665L35.0135 15.3915L37.16 14.0202ZM39.3738 19.337L36.8881 19.8932L37.3336 21.8842H39.3738V19.337ZM39.5568 19.337L39.8793 16.8103L39.7187 16.7898H39.5568V19.337ZM42.3602 19.6949L42.6827 17.1682L42.6827 17.1682L42.3602 19.6949ZM42.3602 26.3051L42.0376 23.7785L42.3602 26.3051ZM39.5568 26.663V29.2102H39.7187L39.8793 29.1897L39.5568 26.663ZM39.3738 26.663V24.1158H37.3336L36.8881 26.1068L39.3738 26.663ZM37.1601 31.9798L35.0135 30.6086L33.9116 32.3335L35.3589 33.7809L37.1601 31.9798ZM37.453 32.2727L39.4809 30.7314L39.3763 30.5938L39.2541 30.4716L37.453 32.2727ZM39.0345 34.3537L37.0066 35.8949L37.0066 35.895L39.0345 34.3537ZM38.9693 35.315L40.7704 37.1161L38.9693 35.315ZM35.315 38.9693L33.5139 37.1682L33.5139 37.1682L35.315 38.9693ZM34.3537 39.0345L35.895 37.0066L35.895 37.0066L34.3537 39.0345ZM32.2727 37.453L30.4716 39.2541L30.5938 39.3763L30.7314 39.4809L32.2727 37.453ZM31.9634 37.1436L33.7645 35.3425L32.3265 33.9045L30.6058 34.9884L31.9634 37.1436ZM26.663 39.3167L26.1181 36.8285L24.1158 37.2669V39.3167H26.663ZM26.663 39.7766L29.1868 40.1207L29.2102 39.9494V39.7766H26.663ZM26.3098 42.3664L23.786 42.0222V42.0222L26.3098 42.3664ZM17.1663 42.7105C17.3879 44.3356 18.7759 45.5472 20.416 45.5472V40.4528C21.3234 40.4528 22.0914 41.1231 22.214 42.0222L17.1663 42.7105ZM16.8132 40.1207L17.1663 42.7105L22.214 42.0222L21.8608 39.4324L16.8132 40.1207ZM16.7898 39.2838V39.7766H21.8842V39.2838H16.7898ZM12.7224 39.2332C14.5496 40.4005 16.5887 41.2686 18.7696 41.767L19.9044 36.8007C18.3053 36.4352 16.8086 35.7985 15.4649 34.9401L12.7224 39.2332ZM15.5285 39.2541L15.8947 38.8878L12.2925 35.2855L11.9262 35.6518L15.5285 39.2541ZM13.1876 41.0625L15.2686 39.4809L12.1861 35.425L10.1051 37.0066L13.1876 41.0625ZM8.88389 40.7704C10.0436 41.9301 11.8818 42.0549 13.1876 41.0625L10.1051 37.0066C10.8275 36.4575 11.8445 36.5265 12.4861 37.1682L8.88389 40.7704ZM5.22962 37.1161L8.8839 40.7704L12.4861 37.1682L8.83186 33.5139L5.22962 37.1161ZM4.93753 32.8124C3.94514 34.1182 4.06988 35.9564 5.22963 37.1161L8.83186 33.5139C9.47351 34.1555 9.54252 35.1725 8.99347 35.8949L4.93753 32.8124ZM6.51911 30.7314L4.93754 32.8124L8.99346 35.8949L10.575 33.8139L6.51911 30.7314ZM7.12866 30.0888L6.74594 30.4716L10.3482 34.0738L10.7309 33.6911L7.12866 30.0888ZM4.28729 27.2192C4.77315 29.3907 5.62539 31.4231 6.77452 33.2475L11.085 30.5324C10.2401 29.1909 9.61499 27.6992 9.25871 26.1068L4.28729 27.2192ZM6.22344 29.2102H6.773V24.1158H6.22344V29.2102ZM3.28946 28.8337L5.87929 29.1868L6.5676 24.1392L3.97777 23.786L3.28946 28.8337ZM0.45283 25.584C0.45283 27.2241 1.66438 28.6121 3.28947 28.8337L3.97776 23.786C4.87687 23.9086 5.54717 24.6766 5.54717 25.584H0.45283ZM0.45283 20.416V25.584H5.54717V20.416H0.45283ZM3.28946 17.1663C1.66438 17.3879 0.45283 18.7759 0.45283 20.416H5.54717C5.54717 21.3235 4.87687 22.0914 3.97778 22.214L3.28946 17.1663ZM5.87929 16.8132L3.28946 17.1663L3.97777 22.214L6.5676 21.8608L5.87929 16.8132ZM6.77301 16.7898H6.22344V21.8842H6.77301V16.7898ZM6.77454 12.7525C5.62541 14.5769 4.77317 16.6093 4.2873 18.7808L9.25872 19.8932C9.61501 18.3008 10.2401 16.8091 11.0851 15.4676L6.77454 12.7525ZM6.90135 15.6838L7.12868 15.9112L10.7309 12.3089L10.5036 12.0816L6.90135 15.6838ZM4.95853 13.2059L6.68777 15.4413L10.7172 12.3242L8.98793 10.0888L4.95853 13.2059ZM5.23354 8.87996C4.06626 10.0472 3.94846 11.9002 4.95853 13.2059L8.98794 10.0888C9.54677 10.8112 9.48159 11.8364 8.83578 12.4822L5.23354 8.87996ZM8.87998 5.23353L5.23354 8.87996L8.83578 12.4822L12.4822 8.83577L8.87998 5.23353ZM13.2059 4.95852C11.9002 3.94844 10.0473 4.06624 8.87998 5.23353L12.4822 8.83576C11.8364 9.48158 10.8112 9.54675 10.0888 8.98792L13.2059 4.95852ZM15.4413 6.68776L13.2059 4.95852L10.0888 8.98792L12.3242 10.7172L15.4413 6.68776ZM15.8948 7.11224L15.6839 6.90133L12.0816 10.5036L12.2925 10.7145L15.8948 7.11224ZM18.7696 4.23306C16.5887 4.7314 14.5497 5.59956 12.7224 6.76678L15.4649 11.06C16.8086 10.2016 18.3053 9.5648 19.9044 9.19939L18.7696 4.23306ZM16.7898 6.44322V6.71622H21.8842V6.44322H16.7898ZM17.1682 3.31728L16.8103 6.12067L21.8637 6.76578L22.2215 3.96238L17.1682 3.31728ZM20.4216 0.45283C18.7708 0.45283 17.3773 1.67977 17.1682 3.31726L22.2215 3.9624C22.1059 4.86835 21.3349 5.54717 20.4216 5.54717V0.45283ZM25.5784 0.45283H20.4216V5.54717H25.5784V0.45283ZM28.8318 3.31728C28.6227 1.67977 27.2292 0.45283 25.5784 0.45283V5.54717C24.6651 5.54717 23.8941 4.86835 23.7785 3.96238L28.8318 3.31728ZM29.1897 6.12067L28.8318 3.31728L23.7785 3.96238L24.1363 6.76578L29.1897 6.12067ZM29.2102 6.68337V6.44322H24.1158V6.68337H29.2102ZM33.3209 6.70114C31.4728 5.53708 29.4113 4.67769 27.2079 4.19517L26.1181 9.17158C27.7339 9.52541 29.2469 10.1557 30.6058 11.0117L33.3209 6.70114ZM30.3162 6.90133L30.1622 7.05527L33.7645 10.6575L33.9184 10.5036L30.3162 6.90133ZM32.7941 4.95852L30.5588 6.68776L33.6758 10.7172L35.9112 8.98792L32.7941 4.95852ZM37.1201 5.23352C35.9528 4.06625 34.0998 3.94844 32.7941 4.95852L35.9112 8.98792C35.1888 9.54676 34.1636 9.48157 33.5178 8.83577L37.1201 5.23352ZM40.7665 8.87996L37.1201 5.23353L33.5178 8.83577L37.1642 12.4822L40.7665 8.87996ZM41.0415 13.2059C42.0516 11.9002 41.9338 10.0473 40.7665 8.87996L37.1643 12.4822C36.5184 11.8364 36.4533 10.8112 37.0121 10.0888L41.0415 13.2059ZM39.3123 15.4413L41.0415 13.2059L37.0121 10.0888L35.2829 12.3242L39.3123 15.4413ZM38.9612 15.8214L39.0987 15.6838L35.4964 12.0816L35.3589 12.2191L38.9612 15.8214ZM41.8595 18.7808C41.3644 16.5681 40.489 14.4999 39.3066 12.649L35.0135 15.3915C35.8829 16.7526 36.5251 18.2706 36.8881 19.8932L41.8595 18.7808ZM39.5568 16.7898H39.3738V21.8842H39.5568V16.7898ZM42.6827 17.1682L39.8793 16.8103L39.2342 21.8637L42.0376 22.2215L42.6827 17.1682ZM45.5472 20.4216C45.5472 18.7708 44.3202 17.3773 42.6827 17.1682L42.0376 22.2215C41.1316 22.1059 40.4528 21.3349 40.4528 20.4216H45.5472ZM45.5472 25.5784V20.4216H40.4528V25.5784H45.5472ZM42.6827 28.8318C44.3202 28.6227 45.5472 27.2292 45.5472 25.5784H40.4528C40.4528 24.6651 41.1317 23.8941 42.0376 23.7785L42.6827 28.8318ZM39.8793 29.1897L42.6827 28.8318L42.0376 23.7785L39.2342 24.1363L39.8793 29.1897ZM39.3738 29.2102H39.5568V24.1158H39.3738V29.2102ZM39.3066 33.351C40.489 31.5001 41.3644 29.4319 41.8595 27.2192L36.8881 26.1068C36.5251 27.7294 35.883 29.2474 35.0135 30.6086L39.3066 33.351ZM39.2541 30.4716L38.9612 30.1787L35.3589 33.7809L35.6518 34.0738L39.2541 30.4716ZM41.0625 32.8124L39.4809 30.7314L35.425 33.8139L37.0066 35.8949L41.0625 32.8124ZM40.7704 37.1161C41.9301 35.9564 42.0549 34.1182 41.0625 32.8124L37.0066 35.895C36.4575 35.1725 36.5265 34.1555 37.1682 33.5139L40.7704 37.1161ZM37.1161 40.7704L40.7704 37.1161L37.1682 33.5139L33.5139 37.1682L37.1161 40.7704ZM32.8124 41.0625C34.1182 42.0549 35.9564 41.9301 37.1161 40.7704L33.5139 37.1682C34.1555 36.5265 35.1725 36.4575 35.895 37.0066L32.8124 41.0625ZM30.7314 39.4809L32.8125 41.0625L35.895 37.0066L33.8139 35.425L30.7314 39.4809ZM30.1623 38.9448L30.4716 39.2541L34.0738 35.6518L33.7645 35.3425L30.1623 38.9448ZM27.2079 41.8049C29.4113 41.3224 31.4728 40.463 33.3209 39.2989L30.6058 34.9884C29.2469 35.8443 27.7339 36.4746 26.1181 36.8285L27.2079 41.8049ZM29.2102 39.7766V39.3167H24.1158V39.7766H29.2102ZM28.8337 42.7105L29.1868 40.1207L24.1392 39.4324L23.786 42.0222L28.8337 42.7105ZM25.584 45.5472C27.2241 45.5472 28.6121 44.3356 28.8337 42.7105L23.786 42.0222C23.9086 41.1231 24.6766 40.4528 25.584 40.4528V45.5472ZM20.416 45.5472H25.584V40.4528H20.416V45.5472Z" fill="black" mask="url(#path-1-outside-1_325_5915)"/>
<circle cx="23.0002" cy="23.0002" r="14.717" fill="#EBEBEB"/>
<rect x="13.3208" y="17.3394" width="19.5283" height="2.54717" rx="1.27358" fill="black"/>
<rect x="13.3208" y="22.4336" width="19.5283" height="2.54717" rx="1.27358" fill="black"/>
<rect x="13.3208" y="27.5278" width="19.5283" height="2.54717" rx="1.27358" fill="black"/>
</svg>
