<svg width="59" height="59" viewBox="0 0 59 59" fill="none" xmlns="http://www.w3.org/2000/svg">
<mask id="path-1-outside-1_1008_1159" maskUnits="userSpaceOnUse" x="0" y="0" width="59" height="59" fill="black">
<rect fill="white" width="59" height="59"/>
<path fill-rule="evenodd" clip-rule="evenodd" d="M26.0763 56C25.5908 56 25.18 55.6414 25.1145 55.1605L24.6465 51.7289V51.0761C22.1422 50.5039 19.7998 49.5069 17.699 48.1649L17.2137 48.6502L14.4564 50.7457C14.0699 51.0395 13.5259 51.0025 13.1826 50.6593L8.34073 45.8174C7.99749 45.4741 7.96057 44.9301 8.25429 44.5436L10.3499 41.7863L10.8568 41.2793C9.53572 39.1819 8.55696 36.8471 7.99903 34.3535H7.27106L3.83954 33.8855C3.35858 33.82 3 33.4092 3 32.9237V26.0763C3 25.5908 3.35858 25.18 3.83954 25.1145L7.27106 24.6465H7.99904C8.55698 22.1529 9.53573 19.8181 10.8569 17.7207L10.5558 17.4196L8.26453 14.4578C7.96559 14.0713 8.00045 13.5229 8.34593 13.1774L13.1775 8.34591C13.5229 8.00043 14.0713 7.96557 14.4578 8.26451L17.4196 10.5558L17.699 10.8351C19.7998 9.49317 22.1423 8.49616 24.6465 7.92394V7.56227L25.1207 3.84777C25.1826 3.36313 25.595 3 26.0836 3H32.9164C33.405 3 33.8174 3.36313 33.8793 3.84777L34.3535 7.56227V7.8805C36.8836 8.4346 39.2518 9.42155 41.3764 10.7598L41.5804 10.5558L44.5423 8.26451C44.9287 7.96556 45.4771 8.00043 45.8226 8.34591L50.6541 13.1774C50.9996 13.5229 51.0345 14.0713 50.7355 14.4578L48.4443 17.4196L48.2619 17.6019C49.6212 19.7299 50.6266 22.1057 51.1951 24.6465H51.4377L55.1522 25.1207C55.6369 25.1826 56 25.595 56 26.0836V32.9164C56 33.405 55.6369 33.8174 55.1522 33.8793L51.4377 34.3535H51.1951C50.6266 36.8943 49.6212 39.2702 48.262 41.3981L48.6502 41.7863L50.7458 44.5436C51.0395 44.9301 51.0025 45.4741 50.6593 45.8174L45.8174 50.6593C45.4742 51.0025 44.9301 51.0395 44.5437 50.7457L41.7863 48.6502L41.3764 48.2402C39.2518 49.5785 36.8836 50.5654 34.3535 51.1195V51.7289L33.8855 55.1605C33.82 55.6414 33.4092 56 32.9237 56H26.0763Z"/>
</mask>
<path fill-rule="evenodd" clip-rule="evenodd" d="M26.0763 56C25.5908 56 25.18 55.6414 25.1145 55.1605L24.6465 51.7289V51.0761C22.1422 50.5039 19.7998 49.5069 17.699 48.1649L17.2137 48.6502L14.4564 50.7457C14.0699 51.0395 13.5259 51.0025 13.1826 50.6593L8.34073 45.8174C7.99749 45.4741 7.96057 44.9301 8.25429 44.5436L10.3499 41.7863L10.8568 41.2793C9.53572 39.1819 8.55696 36.8471 7.99903 34.3535H7.27106L3.83954 33.8855C3.35858 33.82 3 33.4092 3 32.9237V26.0763C3 25.5908 3.35858 25.18 3.83954 25.1145L7.27106 24.6465H7.99904C8.55698 22.1529 9.53573 19.8181 10.8569 17.7207L10.5558 17.4196L8.26453 14.4578C7.96559 14.0713 8.00045 13.5229 8.34593 13.1774L13.1775 8.34591C13.5229 8.00043 14.0713 7.96557 14.4578 8.26451L17.4196 10.5558L17.699 10.8351C19.7998 9.49317 22.1423 8.49616 24.6465 7.92394V7.56227L25.1207 3.84777C25.1826 3.36313 25.595 3 26.0836 3H32.9164C33.405 3 33.8174 3.36313 33.8793 3.84777L34.3535 7.56227V7.8805C36.8836 8.4346 39.2518 9.42155 41.3764 10.7598L41.5804 10.5558L44.5423 8.26451C44.9287 7.96556 45.4771 8.00043 45.8226 8.34591L50.6541 13.1774C50.9996 13.5229 51.0345 14.0713 50.7355 14.4578L48.4443 17.4196L48.2619 17.6019C49.6212 19.7299 50.6266 22.1057 51.1951 24.6465H51.4377L55.1522 25.1207C55.6369 25.1826 56 25.595 56 26.0836V32.9164C56 33.405 55.6369 33.8174 55.1522 33.8793L51.4377 34.3535H51.1951C50.6266 36.8943 49.6212 39.2702 48.262 41.3981L48.6502 41.7863L50.7458 44.5436C51.0395 44.9301 51.0025 45.4741 50.6593 45.8174L45.8174 50.6593C45.4742 51.0025 44.9301 51.0395 44.5437 50.7457L41.7863 48.6502L41.3764 48.2402C39.2518 49.5785 36.8836 50.5654 34.3535 51.1195V51.7289L33.8855 55.1605C33.82 55.6414 33.4092 56 32.9237 56H26.0763Z" fill="black"/>
<path d="M25.1145 55.1605L22.142 55.5658L22.142 55.5658L25.1145 55.1605ZM24.6465 51.7289H21.6465V51.9325L21.674 52.1343L24.6465 51.7289ZM24.6465 51.0761H27.6465V48.6843L25.3148 48.1515L24.6465 51.0761ZM17.699 48.1649L19.314 45.6367L17.2823 44.3389L15.5777 46.0436L17.699 48.1649ZM17.2137 48.6502L19.029 51.0387L19.1911 50.9155L19.335 50.7715L17.2137 48.6502ZM14.4564 50.7457L12.6411 48.3572L12.6411 48.3573L14.4564 50.7457ZM13.1826 50.6593L15.304 48.538L15.304 48.538L13.1826 50.6593ZM8.34073 45.8174L6.21941 47.9387L6.21942 47.9387L8.34073 45.8174ZM8.25429 44.5436L5.8658 42.7284L5.8658 42.7284L8.25429 44.5436ZM10.3499 41.7863L8.22854 39.665L8.08457 39.809L7.96137 39.9711L10.3499 41.7863ZM10.8568 41.2793L12.9782 43.4006L14.6718 41.707L13.3953 39.6804L10.8568 41.2793ZM7.99903 34.3535L10.9266 33.6985L10.402 31.3535H7.99903V34.3535ZM7.27106 34.3535L6.86572 37.326L7.06746 37.3535H7.27106V34.3535ZM3.83954 33.8855L4.24488 30.9131H4.24488L3.83954 33.8855ZM3.83954 25.1145L3.4342 22.142L3.43419 22.142L3.83954 25.1145ZM7.27106 24.6465V21.6465H7.06746L6.86572 21.674L7.27106 24.6465ZM7.99904 24.6465V27.6465H10.402L10.9267 25.3016L7.99904 24.6465ZM10.8569 17.7207L13.3953 19.3196L14.6718 17.293L12.9782 15.5994L10.8569 17.7207ZM10.5558 17.4196L8.18291 19.2552L8.2996 19.4061L8.43446 19.5409L10.5558 17.4196ZM8.26453 14.4578L5.89166 16.2934L5.89166 16.2934L8.26453 14.4578ZM8.34593 13.1774L10.4672 15.2988V15.2988L8.34593 13.1774ZM13.1775 8.34591L11.0561 6.22459L13.1775 8.34591ZM14.4578 8.26451L12.6222 10.6374L12.6222 10.6374L14.4578 8.26451ZM17.4196 10.5558L19.541 8.43443L19.4061 8.29958L19.2552 8.18288L17.4196 10.5558ZM17.699 10.8351L15.5777 12.9564L17.2824 14.6611L19.314 13.3633L17.699 10.8351ZM24.6465 7.92394L25.3148 10.8486L27.6465 10.3158V7.92394H24.6465ZM24.6465 7.56227L21.6707 7.18238L21.6465 7.37156V7.56227H24.6465ZM25.1207 3.84777L22.1449 3.46787V3.46788L25.1207 3.84777ZM33.8793 3.84777L30.9034 4.22765L30.9034 4.22767L33.8793 3.84777ZM34.3535 7.56227H37.3535V7.37155L37.3293 7.18237L34.3535 7.56227ZM34.3535 7.8805H31.3535V10.2946L33.7117 10.811L34.3535 7.8805ZM41.3764 10.7598L39.7775 13.2982L41.8041 14.5747L43.4977 12.8811L41.3764 10.7598ZM41.5804 10.5558L39.7448 8.18289L39.5939 8.29958L39.4591 8.43444L41.5804 10.5558ZM44.5423 8.26451L42.7066 5.89164V5.89165L44.5423 8.26451ZM45.8226 8.34591L43.7013 10.4672L43.7013 10.4672L45.8226 8.34591ZM50.6541 13.1774L52.7754 11.0561L52.7754 11.0561L50.6541 13.1774ZM50.7355 14.4578L48.3626 12.6221L48.3626 12.6221L50.7355 14.4578ZM48.4443 17.4196L50.5656 19.5409L50.7004 19.4061L50.8171 19.2552L48.4443 17.4196ZM48.2619 17.6019L46.1406 15.4806L44.436 17.1853L45.7337 19.2169L48.2619 17.6019ZM51.1951 24.6465L48.2675 25.3016L48.7921 27.6465H51.1951V24.6465ZM51.4377 24.6465L51.8176 21.6707L51.6284 21.6465H51.4377V24.6465ZM55.1522 25.1207L55.5321 22.1449H55.5321L55.1522 25.1207ZM55.1522 33.8793L54.7723 30.9034L54.7723 30.9034L55.1522 33.8793ZM51.4377 34.3535V37.3535H51.6284L51.8176 37.3293L51.4377 34.3535ZM51.1951 34.3535V31.3535H48.7922L48.2675 33.6985L51.1951 34.3535ZM48.262 41.3981L45.7337 39.7831L44.436 41.8147L46.1406 43.5194L48.262 41.3981ZM48.6502 41.7863L51.0387 39.9711L50.9155 39.809L50.7715 39.665L48.6502 41.7863ZM50.7458 44.5436L53.1342 42.7284V42.7284L50.7458 44.5436ZM50.6593 45.8174L52.7806 47.9387L52.7806 47.9387L50.6593 45.8174ZM45.8174 50.6593L43.6961 48.538V48.538L45.8174 50.6593ZM44.5437 50.7457L46.3589 48.3573L46.3589 48.3572L44.5437 50.7457ZM41.7863 48.6502L39.665 50.7715L39.809 50.9155L39.9711 51.0387L41.7863 48.6502ZM41.3764 48.2402L43.4977 46.1189L41.8041 44.4253L39.7775 45.7018L41.3764 48.2402ZM34.3535 51.1195L33.7117 48.189L31.3535 48.7054V51.1195H34.3535ZM34.3535 51.7289L37.326 52.1343L37.3535 51.9325V51.7289H34.3535ZM33.8855 55.1605L30.9131 54.7551V54.7551L33.8855 55.1605ZM22.142 55.5658C22.4103 57.5332 24.0906 59 26.0763 59V53C27.0911 53 27.9498 53.7496 28.0869 54.7551L22.142 55.5658ZM21.674 52.1343L22.142 55.5658L28.0869 54.7551L27.619 51.3236L21.674 52.1343ZM21.6465 51.0761V51.7289H27.6465V51.0761H21.6465ZM16.084 50.6931C18.4695 52.2169 21.1314 53.3502 23.9782 54.0007L25.3148 48.1515C23.1531 47.6575 21.13 46.7968 19.314 45.6367L16.084 50.6931ZM19.335 50.7715L19.8203 50.2862L15.5777 46.0436L15.0924 46.5288L19.335 50.7715ZM16.2716 53.1342L19.029 51.0387L15.3985 46.2617L12.6411 48.3572L16.2716 53.1342ZM11.0613 52.7806C12.4654 54.1847 14.6908 54.3357 16.2716 53.1342L12.6411 48.3573C13.4491 47.7432 14.5864 47.8204 15.304 48.538L11.0613 52.7806ZM6.21942 47.9387L11.0613 52.7806L15.304 48.538L10.4621 43.6961L6.21942 47.9387ZM5.8658 42.7284C4.66433 44.3093 4.81537 46.5346 6.21941 47.9387L10.4621 43.6961C11.1796 44.4136 11.2568 45.5509 10.6428 46.3589L5.8658 42.7284ZM7.96137 39.9711L5.8658 42.7284L10.6428 46.3589L12.7383 43.6016L7.96137 39.9711ZM8.73553 39.158L8.22854 39.665L12.4712 43.9076L12.9782 43.4006L8.73553 39.158ZM5.07141 35.0085C5.70566 37.8432 6.81819 40.4964 8.31843 42.8782L13.3953 39.6804C12.2532 37.8674 11.4083 35.851 10.9266 33.6985L5.07141 35.0085ZM7.27106 37.3535H7.99903V31.3535H7.27106V37.3535ZM3.4342 36.858L6.86572 37.326L7.6764 31.381L4.24488 30.9131L3.4342 36.858ZM0 32.9237C0 34.9094 1.46677 36.5898 3.4342 36.858L4.24488 30.9131C5.25038 31.0502 6 31.909 6 32.9237H0ZM0 26.0763V32.9237H6V26.0763H0ZM3.43419 22.142C1.46678 22.4103 0 24.0906 0 26.0763H6C6 27.0911 5.25037 27.9498 4.24489 28.0869L3.43419 22.142ZM6.86572 21.674L3.4342 22.142L4.24488 28.0869L7.6764 27.619L6.86572 21.674ZM7.99904 21.6465H7.27106V27.6465H7.99904V21.6465ZM8.31845 16.1218C6.81821 18.5036 5.70568 21.1568 5.07142 23.9915L10.9267 25.3016C11.4083 23.149 12.2533 21.1327 13.3953 19.3196L8.31845 16.1218ZM8.43446 19.5409L8.73554 19.842L12.9782 15.5994L12.6771 15.2983L8.43446 19.5409ZM5.89166 16.2934L8.18291 19.2552L12.9286 15.584L10.6374 12.6221L5.89166 16.2934ZM6.22461 11.0561C4.81142 12.4693 4.6688 14.7126 5.89166 16.2934L10.6374 12.6221C11.2624 13.43 11.1895 14.5765 10.4672 15.2988L6.22461 11.0561ZM11.0561 6.22459L6.22461 11.0561L10.4672 15.2988L15.2988 10.4672L11.0561 6.22459ZM16.2934 5.89165C14.7126 4.66878 12.4693 4.8114 11.0561 6.22459L15.2988 10.4672C14.5765 11.1895 13.4301 11.2624 12.6222 10.6374L16.2934 5.89165ZM19.2552 8.18288L16.2934 5.89164L12.6222 10.6374L15.584 12.9286L19.2552 8.18288ZM19.8203 8.71381L19.541 8.43443L15.2983 12.6771L15.5777 12.9564L19.8203 8.71381ZM23.9782 4.99932C21.1314 5.64982 18.4695 6.78309 16.084 8.30692L19.314 13.3633C21.1301 12.2033 23.1531 11.3425 25.3148 10.8486L23.9782 4.99932ZM21.6465 7.56227V7.92394H27.6465V7.56227H21.6465ZM22.1449 3.46788L21.6707 7.18238L27.6224 7.94217L28.0966 4.22767L22.1449 3.46788ZM26.0836 0C24.085 0 22.3979 1.48541 22.1449 3.46787L28.0966 4.22768C27.9672 5.24085 27.105 6 26.0836 6V0ZM32.9164 0H26.0836V6H32.9164V0ZM36.8551 3.4679C36.6021 1.48541 34.915 0 32.9164 0V6C31.895 6 31.0328 5.24086 30.9034 4.22765L36.8551 3.4679ZM37.3293 7.18237L36.8551 3.46788L30.9034 4.22767L31.3776 7.94217L37.3293 7.18237ZM37.3535 7.8805V7.56227H31.3535V7.8805H37.3535ZM42.9753 8.22139C40.5626 6.70169 37.8714 5.57984 34.9953 4.94996L33.7117 10.811C35.8958 11.2894 37.9409 12.1414 39.7775 13.2982L42.9753 8.22139ZM39.4591 8.43444L39.255 8.63848L43.4977 12.8811L43.7017 12.6771L39.4591 8.43444ZM42.7066 5.89165L39.7448 8.18289L43.416 12.9286L46.3779 10.6374L42.7066 5.89165ZM47.9439 6.22459C46.5307 4.81139 44.2874 4.66878 42.7066 5.89164L46.3779 10.6374C45.57 11.2623 44.4235 11.1895 43.7013 10.4672L47.9439 6.22459ZM52.7754 11.0561L47.9439 6.22459L43.7013 10.4672L48.5328 15.2988L52.7754 11.0561ZM53.1084 16.2934C54.3312 14.7126 54.1886 12.4693 52.7754 11.0561L48.5328 15.2987C47.8106 14.5765 47.7377 13.43 48.3626 12.6221L53.1084 16.2934ZM50.8171 19.2552L53.1084 16.2934L48.3626 12.6221L46.0714 15.584L50.8171 19.2552ZM50.3833 19.7233L50.5656 19.5409L46.3229 15.2983L46.1406 15.4806L50.3833 19.7233ZM54.1227 23.9915C53.4765 21.1031 52.3337 18.4033 50.7901 15.987L45.7337 19.2169C46.9088 21.0564 47.7768 23.1083 48.2675 25.3016L54.1227 23.9915ZM51.4377 21.6465H51.1951V27.6465H51.4377V21.6465ZM55.5321 22.1449L51.8176 21.6707L51.0578 27.6224L54.7723 28.0966L55.5321 22.1449ZM59 26.0836C59 24.085 57.5146 22.3979 55.5321 22.1449L54.7723 28.0966C53.7591 27.9672 53 27.105 53 26.0836H59ZM59 32.9164V26.0836H53V32.9164H59ZM55.5321 36.8551C57.5146 36.6021 59 34.915 59 32.9164H53C53 31.895 53.7591 31.0328 54.7723 30.9034L55.5321 36.8551ZM51.8176 37.3293L55.5321 36.8551L54.7723 30.9034L51.0578 31.3776L51.8176 37.3293ZM51.1951 37.3535H51.4377V31.3535H51.1951V37.3535ZM50.7902 43.0131C52.3337 40.5967 53.4765 37.8969 54.1227 35.0085L48.2675 33.6985C47.7768 35.8917 46.9088 37.9436 45.7337 39.7831L50.7902 43.0131ZM50.7715 39.665L50.3833 39.2768L46.1406 43.5194L46.5289 43.9076L50.7715 39.665ZM53.1342 42.7284L51.0387 39.9711L46.2617 43.6016L48.3573 46.3589L53.1342 42.7284ZM52.7806 47.9387C54.1847 46.5346 54.3357 44.3093 53.1342 42.7284L48.3573 46.3589C47.7432 45.5509 47.8204 44.4136 48.538 43.6961L52.7806 47.9387ZM47.9387 52.7806L52.7806 47.9387L48.538 43.6961L43.6961 48.538L47.9387 52.7806ZM42.7284 53.1342C44.3093 54.3357 46.5347 54.1847 47.9387 52.7806L43.6961 48.538C44.4136 47.8204 45.551 47.7432 46.3589 48.3573L42.7284 53.1342ZM39.9711 51.0387L42.7284 53.1342L46.3589 48.3572L43.6016 46.2617L39.9711 51.0387ZM39.2551 50.3615L39.665 50.7715L43.9076 46.5288L43.4977 46.1189L39.2551 50.3615ZM34.9953 54.0501C37.8715 53.4202 40.5626 52.2983 42.9753 50.7786L39.7775 45.7018C37.9409 46.8586 35.8958 47.7107 33.7117 48.189L34.9953 54.0501ZM37.3535 51.7289V51.1195H31.3535V51.7289H37.3535ZM36.858 55.5658L37.326 52.1343L31.381 51.3236L30.9131 54.7551L36.858 55.5658ZM32.9237 59C34.9094 59 36.5898 57.5332 36.858 55.5658L30.9131 54.7551C31.0502 53.7496 31.909 53 32.9237 53V59ZM26.0763 59H32.9237V53H26.0763V59Z" fill="black" mask="url(#path-1-outside-1_1008_1159)"/>
<path d="M42.9198 20.4C38.3598 13 29.0498 10.8 21.8298 15.4C14.7998 20 12.5198 30 17.0798 37.4L17.4598 38L15.9398 44L21.6398 42.4L22.2098 42.8C24.6798 44.2 27.3398 45 29.9998 45C32.8498 45 35.6998 44.2 38.1698 42.6C45.1998 37.8 47.2898 28 42.9198 20.4ZM38.9298 35.8C38.1698 37 37.2198 37.8 35.8898 38C35.1298 38 34.1798 38.4 30.3798 36.8C27.1498 35.2 24.4898 32.6 22.5898 29.6C21.4498 28.2 20.8798 26.4 20.6898 24.6C20.6898 23 21.2598 21.6 22.2098 20.6C22.5898 20.2 22.9698 20 23.3498 20H24.2998C24.6798 20 25.0598 20 25.2498 20.8C25.6298 21.8 26.5798 24.2 26.5798 24.4C26.7698 24.6 26.7698 25 26.5798 25.2C26.7698 25.6 26.5798 26 26.3898 26.2C26.1998 26.4 26.0098 26.8 25.8198 27C25.4398 27.2 25.2498 27.6 25.4398 28C26.1998 29.2 27.1498 30.4 28.0998 31.4C29.2398 32.4 30.3798 33.2 31.7098 33.8C32.0898 34 32.4698 34 32.6598 33.6C32.8498 33.2 33.7998 32.2 34.1798 31.8C34.5598 31.4 34.7498 31.4 35.1298 31.6L38.1698 33.2C38.5498 33.4 38.9298 33.6 39.1198 33.8C39.3098 34.4 39.3098 35.2 38.9298 35.8Z" fill="white"/>
</svg>
