<svg width="296" height="135" viewBox="0 0 296 135" fill="none" xmlns="http://www.w3.org/2000/svg">
<path d="M18.6195 67.7464L15.9755 89.5701H22.7744L25.4184 67.7464H18.6195ZM9.51237 31.6535H43.1711L41.5763 45.0834H21.3475L20.2143 54.3165H40.4432L34.6096 103H0.950786L9.51237 31.6535ZM76.1584 31.6535L74.5636 45.0834H61.4694L59.5808 60.7796H72.675L71.0802 74.2096H57.9441L56.0975 89.5701H69.1916L67.5968 103H41.0727L49.6343 31.6535H76.1584ZM112.545 103H99.1152L106.082 45.0834H101.507L91.4769 103H73.0108L74.6056 89.5701H80.3553L90.3858 31.6535H121.107L112.545 103ZM157.535 103H144.105L151.072 45.0834H146.498L136.467 103H118.001L119.596 89.5701H125.346L135.376 31.6535H166.097L157.535 103Z" fill="black"/>
<path fill-rule="evenodd" clip-rule="evenodd" d="M213.431 117.744C229.843 117.744 243.147 104.44 243.147 88.0287C243.716 74.4698 236.9 61.489 229.323 47.059C223.457 35.888 217.135 23.8485 213.431 10C209.727 23.8485 203.405 35.8879 197.539 47.0589C189.962 61.489 183.146 74.4698 183.715 88.0287C183.715 104.44 197.02 117.744 213.431 117.744ZM194.827 83.6042C195.7 76.7121 198.957 70.8491 202.51 64.4524C206.742 56.8335 211.395 48.4574 212.942 36.6831C216.223 45.5534 214.408 53.6635 206.878 81.3576C202.684 99.753 214.426 106.519 222.31 99.444C228.244 92.7486 225.426 84.386 221.892 73.8996C219.029 65.4043 215.697 55.515 216.168 43.9891C216.353 48.1324 222.22 61.0242 226.801 71.0907C228.455 74.7263 229.942 77.9935 230.933 80.3468C232.55 84.1876 232.657 87.0569 232.146 92.6778C229.531 106.477 216.898 111.717 206.618 107.35C197.847 103.623 193.629 93.0585 194.827 83.6042ZM216.198 43.3331C216.166 43.5177 216.156 43.7372 216.168 43.9891C216.177 43.771 216.187 43.5523 216.198 43.3331Z" fill="black"/>
<path d="M257.869 97.5299C260.497 77.9217 246.953 63.7714 244.123 48.4082C242.102 66.1971 254.397 72.815 250.39 94.4977C247.964 107.624 236.611 122.014 220.068 124.618C240.08 127.246 255.039 116.127 257.869 97.5299Z" fill="black"/>
<path d="M169.868 97.5299C167.241 77.9217 180.784 63.7714 183.614 48.4082C185.636 66.1971 173.341 72.815 177.348 94.4977C179.774 107.624 191.127 122.014 207.67 124.618C187.657 127.246 172.699 116.127 169.868 97.5299Z" fill="black"/>
<path d="M275.713 89.5701H288.808L287.213 103H260.689L269.25 31.6535H295.774L294.179 45.0834H281.085L275.713 89.5701Z" fill="black"/>
</svg>
