<svg width="43" height="43" viewBox="0 0 43 43" fill="none" xmlns="http://www.w3.org/2000/svg">
<path fill-rule="evenodd" clip-rule="evenodd" d="M18.7222 43C18.3284 43 17.9951 42.7091 17.9419 42.3189L17.5623 39.5348V39.0052C15.5305 38.5409 13.63 37.732 11.9256 36.6432L11.5319 37.0369L9.2948 38.7371C8.98125 38.9754 8.53987 38.9454 8.26139 38.667L4.33305 34.7386C4.05457 34.4601 4.02461 34.0188 4.26291 33.7052L5.96309 31.4681L6.37444 31.0568C5.30261 29.3551 4.50854 27.4609 4.0559 25.4377H3.4652L0.681137 25.0581C0.29092 25.0049 0 24.6716 0 24.2778V18.7222C0 18.3284 0.290921 17.9951 0.681138 17.9419L3.4652 17.5623H4.05595C4.50862 15.5392 5.30269 13.645 6.37454 11.9433L6.13016 11.6989L4.27123 9.29592C4.02868 8.98239 4.05697 8.53746 4.33726 8.25716L8.25718 4.33724C8.53747 4.05695 8.98241 4.02867 9.29594 4.27121L11.6989 6.13014L11.9257 6.3569C13.6301 5.26817 15.5305 4.45928 17.5623 3.99502V3.70147L17.947 0.687817C17.9972 0.294616 18.3318 0 18.7282 0H24.2718C24.6682 0 25.0028 0.294616 25.053 0.687817L25.4377 3.70147V3.95973C27.4905 4.40927 29.4118 5.20998 31.1355 6.29571L31.3011 6.13014L33.7041 4.27121C34.0176 4.02867 34.4626 4.05695 34.7429 4.33724L38.6628 8.25716C38.9431 8.53746 38.9713 8.98239 38.7288 9.29592L36.8699 11.6989L36.722 11.8468C37.8248 13.5733 38.6405 15.5008 39.1018 17.5623H39.2985L42.3122 17.947C42.7054 17.9972 43 18.3318 43 18.7282V24.2718C43 24.6682 42.7054 25.0028 42.3122 25.053L39.2985 25.4377H39.1018C38.6406 27.4992 37.8249 29.4268 36.7221 31.1533L37.0369 31.4681L38.7371 33.7052C38.9754 34.0188 38.9455 34.4601 38.667 34.7386L34.7386 38.667C34.4602 38.9454 34.0188 38.9754 33.7052 38.7371L31.4682 37.0369L31.1357 36.7044C29.4119 37.7902 27.4905 38.591 25.4377 39.0405V39.5348L25.0581 42.3189C25.0049 42.7091 24.6716 43 24.2778 43H18.7222ZM21.5 33.1458C27.9318 33.1458 33.1458 27.9318 33.1458 21.5C33.1458 15.0682 27.9318 9.85417 21.5 9.85417C15.0682 9.85417 9.85417 15.0682 9.85417 21.5C9.85417 27.9318 15.0682 33.1458 21.5 33.1458Z" fill="#4A4A4A"/>
</svg>
