<svg width="132" height="16" viewBox="0 0 132 16" fill="none" xmlns="http://www.w3.org/2000/svg"><path d="M33.006 11.005h-6.018V3.997c0-.262-.104-.525-.287-.708a1.01 1.01 0 0 0-1.413 0 1.016 1.016 0 0 0-.288.708v8.006c0 .262.105.525.288.708.183.184.445.289.706.289h7.012c.261 0 .523-.105.706-.289a1.015 1.015 0 0 0 0-1.417.964.964 0 0 0-.706-.289Zm22.992-4.026h-3.995a.907.907 0 0 1-.705-.288.911.911 0 0 1-.288-.707c0-.288.105-.497.288-.707a.907.907 0 0 1 .705-.287h2.558c.262 0 .523-.105.706-.288a1.013 1.013 0 0 0 0-1.414A1.008 1.008 0 0 0 54.56 3h-2.558c-.81 0-1.54.288-2.115.89A2.953 2.953 0 0 0 49 6.01c0 .812.287 1.545.888 2.12.574.577 1.305.89 2.115.89h3.995c.287 0 .495.106.704.289.21.21.288.419.288.707s-.105.497-.288.707a.907.907 0 0 1-.704.287h-2.56c-.26 0-.522.105-.704.288a1.013 1.013 0 0 0 0 1.414c.182.183.444.288.705.288h2.559c.81 0 1.54-.288 2.114-.89A2.953 2.953 0 0 0 59 9.99c0-.812-.287-1.545-.888-2.12-.574-.603-1.279-.891-2.114-.891ZM87 6.01c0-.811-.26-1.544-.801-2.12C85.68 3.314 85.02 3 84.29 3h-5.395a.865.865 0 0 0-.636.288 1.07 1.07 0 0 0-.259.707v7.984c0 .262.094.524.26.707.164.183.4.288.635.288a.865.865 0 0 0 .636-.288c.165-.183.26-.445.26-.707V5.016h4.5c.259 0 .447.104.636.288.188.21.259.418.259.706s-.094.498-.26.707a.78.78 0 0 1-.636.288h-1.578c-.424 0-.777.262-.942.68-.142.394-.071.839.165 1.127l3.44 3.822c.023.026.046.078.07.078a.816.816 0 0 0 .612.288.866.866 0 0 0 .637-.288c.165-.183.259-.445.259-.707 0-.262-.094-.497-.26-.707L84.62 8.995c.59-.079 1.108-.367 1.532-.864.565-.576.848-1.283.848-2.12Zm41.667 2.985c.59-.079 1.108-.367 1.532-.864A3.122 3.122 0 0 0 131 6.01c0-.812-.259-1.545-.801-2.121-.519-.576-1.178-.89-1.909-.89h-5.395a.866.866 0 0 0-.636.288 1.072 1.072 0 0 0-.259.707v7.984c0 .262.094.524.259.707a.866.866 0 0 0 .636.288.865.865 0 0 0 .636-.288c.165-.183.26-.445.26-.707V5.016h4.499c.26 0 .448.104.637.288.188.183.259.418.259.706s-.094.498-.259.707a.781.781 0 0 1-.637.288h-1.578c-.424 0-.777.262-.942.68-.142.394-.071.839.165 1.127l3.463 3.822c.023.026.047.078.071.078a.814.814 0 0 0 .612.288.865.865 0 0 0 .636-.288c.165-.183.259-.445.259-.707 0-.262-.094-.497-.259-.707l-2.05-2.303ZM64.004 9h4.992C69.551 9 70 8.553 70 8c0-.553-.45-1-1.004-1h-4.992C63.449 7 63 7.447 63 8c0 .553.45 1 1.004 1ZM71.1 3h-7.2c-.497 0-.9.447-.9 1 0 .553.403 1 .9 1h7.2c.497 0 .9-.447.9-1 0-.553-.403-1-.9-1Zm0 8h-7.2c-.497 0-.9.447-.9 1 0 .553.403 1 .9 1h7.2c.497 0 .9-.447.9-1 0-.553-.403-1-.9-1ZM42.916 3.551A.955.955 0 0 0 42.03 3h-.026c-.365 0-.704.21-.886.551l-4.013 8.005a.973.973 0 0 0-.052.762c.079.236.26.472.495.577a.85.85 0 0 0 .443.105c.105 0 .209-.026.313-.053a.91.91 0 0 0 .573-.498l3.1-6.22 3.154 6.22c.13.236.312.42.573.498.26.08.521.053.755-.052.235-.131.417-.315.496-.577a1.09 1.09 0 0 0-.053-.762l-3.986-8.005Zm72.016.105a.939.939 0 0 0-.497-.551.856.856 0 0 0-.444-.105.854.854 0 0 0-.444.105.924.924 0 0 0-.471.524l-3.97 7.92a.964.964 0 0 0-.052.76c.078.237.261.473.496.577a.856.856 0 0 0 .444.105c.104 0 .209-.026.313-.052a.91.91 0 0 0 .575-.498l3.109-6.215 3.108 6.215c.262.498.863.708 1.359.445.235-.13.418-.314.496-.576a1.08 1.08 0 0 0-.052-.761l-3.97-7.893Zm-8.451-.542-.074.157.074-.157c-.468-.263-1.035-.053-1.281.445l-2.933 6.215-2.884-6.11a.919.919 0 0 0-.468-.55.773.773 0 0 0-.419-.105.773.773 0 0 0-.419.105c-.222.104-.37.314-.443.524l-2.909 6.136-2.932-6.215c-.247-.498-.813-.708-1.282-.445a.964.964 0 0 0-.468.576c-.074.263-.05.525.05.761l3.77 7.998a.948.948 0 0 0 .789.551h.123a.948.948 0 0 0 .789-.55l2.932-6.216 2.908 6.215a.901.901 0 0 0 .838.551h.025c.345 0 .665-.21.838-.55l3.795-8a1.01 1.01 0 0 0 .049-.76 1.05 1.05 0 0 0-.468-.577Z" fill="#333"/><path d="M11.314 12H6.686c-.21 0-.42.05-.561.15l-1.052.55c-.14.1-.07.3.14.3h7.574c.21 0 .28-.2.14-.3l-1.052-.6c-.14-.05-.35-.1-.56-.1Zm-5.337-1 1.9-3.758C7.94 7.037 8 6.9 8 6.695l-.184-1.503c0-.205-.245-.273-.368-.068l-3.432 6.558c-.061.205.061.41.245.274l1.287-.615c.184 0 .307-.137.43-.342Zm4.207-3.817 1.961 3.774c.062.206.245.343.368.412l1.226.617c.184.069.306-.137.245-.274l-3.432-6.588c-.062-.206-.307-.137-.368.069L10 6.703c.061.068.061.274.184.48ZM10.2.217 10 2.143c0 .286 0 .5.134.714l5.349 9.916c.133.214.334.428.535.5l1.671.713c.2.071.401-.143.268-.357L10.669.074c-.134-.142-.468-.071-.468.143ZM14.775 14H4.294c-.274 0-.48.08-.685.24l-1.507 1.28c-.206.16-.069.48.137.48H16.76c.206 0 .343-.32.137-.48l-1.507-1.28c-.068-.16-.342-.24-.616-.24ZM2.463 12.707l5.376-9.878c.135-.213.202-.497.135-.71L7.772.199c0-.212-.336-.283-.403-.07L.044 13.63a.233.233 0 0 0 .268.355l1.68-.71c.202-.214.404-.356.47-.57Z" fill="red"/></svg>