<svg width="202" height="44" viewBox="0 0 202 44" fill="none" xmlns="http://www.w3.org/2000/svg">
<path d="M9.48664 43.4085H1.50643C0.370765 43.4085 -0.355372 42.1983 0.179061 41.1962L1.55202 38.6219L15.251 14.5C15.7387 13.6412 16.9173 13.4972 17.5975 14.2133C20.4982 17.2674 25.3661 17.2674 28.2668 14.2133C28.947 13.4972 30.1256 13.6412 30.6133 14.5L44.3123 38.6219L45.6852 41.1962C46.2197 42.1983 45.4935 43.4085 44.3578 43.4085H36.3776C35.7865 43.4085 35.2501 43.0622 35.0067 42.5235L29.7869 30.9692C27.1214 25.0692 18.7428 25.0692 16.0774 30.9693L10.8576 42.5235C10.6142 43.0622 10.0778 43.4085 9.48664 43.4085Z" fill="#1D5BFB"/>
<path d="M22.6928 9.09493H23.1715C25.6829 9.09493 27.7187 7.05907 27.7187 4.54771C27.7187 2.03635 25.6829 0.000488281 23.1715 0.000488281H22.9321H22.6928C20.1814 0.000488281 18.1455 2.03635 18.1455 4.54771C18.1455 7.05907 20.1814 9.09493 22.6928 9.09493Z" fill="#1D5BFB"/>
<path d="M75.5005 26.4614V18.6403C75.5005 17.5685 75.2916 16.5602 74.8737 15.6154C74.4741 14.6526 73.9199 13.8169 73.2114 13.1083C72.5029 12.3998 71.6672 11.8457 70.7043 11.446C69.7596 11.0282 68.7513 10.8192 67.6794 10.8192C66.6075 10.8192 65.5902 11.0282 64.6273 11.446C63.6826 11.8457 62.8559 12.3998 62.1474 13.1083C61.4389 13.8169 60.8757 14.6526 60.4578 15.6154C60.0582 16.5602 59.8583 17.5685 59.8583 18.6403V26.4614H75.5005ZM83.3216 42.0764H75.5005V34.2553H59.8583V42.0764H52.0645V18.6403C52.0645 16.4784 52.4732 14.4527 53.2908 12.5633C54.1083 10.6557 55.2165 8.9934 56.6154 7.57633C58.0325 6.15927 59.6857 5.04197 61.5751 4.22443C63.4827 3.40689 65.5175 2.99812 67.6794 2.99812C69.8413 2.99812 71.867 3.40689 73.7564 4.22443C75.664 5.04197 77.3264 6.15927 78.7434 7.57633C80.1605 8.9934 81.2778 10.6557 82.0953 12.5633C82.9129 14.4527 83.3216 16.4784 83.3216 18.6403V42.0764Z" fill="#1D5BFB"/>
<path d="M126.433 42.0764H119.021V23.5456C119.021 23.0369 118.921 22.5554 118.721 22.1012C118.539 21.6471 118.276 21.2474 117.931 20.9022C117.586 20.557 117.186 20.2936 116.732 20.1119C116.277 19.9121 115.796 19.8121 115.287 19.8121C114.779 19.8121 114.297 19.9121 113.843 20.1119C113.407 20.2936 113.016 20.557 112.671 20.9022C112.344 21.2474 112.081 21.6471 111.881 22.1012C111.699 22.5554 111.608 23.0369 111.608 23.5456V42.0764H104.169V23.5456C104.169 23.0369 104.069 22.5554 103.869 22.1012C103.687 21.6471 103.424 21.2474 103.079 20.9022C102.734 20.557 102.334 20.2936 101.88 20.1119C101.426 19.9121 100.944 19.8121 100.435 19.8121C99.9267 19.8121 99.4453 19.9121 98.9911 20.1119C98.5551 20.2936 98.1645 20.557 97.8193 20.9022C97.4923 21.2474 97.2288 21.6471 97.029 22.1012C96.8473 22.5554 96.7565 23.0369 96.7565 23.5456V42.0764H89.3169V12.8903H91.1155L93.1321 15.1249C94.1676 14.2529 95.3031 13.5807 96.5385 13.1083C97.792 12.6178 99.091 12.3726 100.435 12.3726C101.798 12.3726 103.124 12.6269 104.414 13.1356C105.722 13.6443 106.867 14.5254 107.848 15.779C108.302 15.1613 108.82 14.6344 109.401 14.1984C109.982 13.7624 110.591 13.4081 111.227 13.1356C111.881 12.8631 112.553 12.6723 113.243 12.5633C113.934 12.4361 114.615 12.3726 115.287 12.3726C116.832 12.3726 118.276 12.6632 119.62 13.2446C120.983 13.826 122.164 14.6253 123.163 15.6427C124.18 16.6419 124.98 17.8228 125.561 19.1854C126.142 20.5479 126.433 22.0013 126.433 23.5456V42.0764Z" fill="#1D5BFB"/>
<path d="M140.658 4.96021C140.658 5.65058 140.522 6.29553 140.249 6.89505C139.995 7.49458 139.641 8.02144 139.187 8.47562C138.732 8.91164 138.197 9.26591 137.579 9.53842C136.979 9.79277 136.334 9.91994 135.644 9.91994C134.954 9.91994 134.3 9.79277 133.682 9.53842C133.082 9.26591 132.556 8.91164 132.101 8.47562C131.665 8.02144 131.311 7.49458 131.039 6.89505C130.784 6.29553 130.657 5.65058 130.657 4.96021C130.657 4.28802 130.784 3.65215 131.039 3.05263C131.311 2.43493 131.665 1.90808 132.101 1.47206C132.556 1.01787 133.082 0.663602 133.682 0.409257C134.3 0.136744 134.954 0.000488281 135.644 0.000488281C136.334 0.000488281 136.979 0.136744 137.579 0.409257C138.197 0.663602 138.732 1.01787 139.187 1.47206C139.641 1.90808 139.995 2.43493 140.249 3.05263C140.522 3.65215 140.658 4.28802 140.658 4.96021ZM139.377 42.0764H131.883V12.8903H139.377V42.0764Z" fill="#1D5BFB"/>
<path d="M170.58 18.6948L165.13 24.1723C164.857 23.4093 164.485 22.728 164.013 22.1285C163.54 21.5108 163.004 20.993 162.405 20.5752C161.823 20.1573 161.188 19.8394 160.497 19.6214C159.807 19.4034 159.098 19.2944 158.372 19.2944C157.354 19.2944 156.391 19.5033 155.483 19.9211C154.593 20.339 153.812 20.9294 153.139 21.6925C152.485 22.4373 151.968 23.3276 151.586 24.3631C151.204 25.3986 151.014 26.5432 151.014 27.7968C151.014 28.8141 151.204 29.7679 151.586 30.6581C151.968 31.5483 152.485 32.3295 153.139 33.0017C153.812 33.6739 154.593 34.2008 155.483 34.5823C156.391 34.9638 157.354 35.1546 158.372 35.1546C159.098 35.1546 159.798 35.0547 160.47 34.8548C161.142 34.655 161.769 34.3734 162.35 34.01C162.95 33.6285 163.477 33.1743 163.931 32.6475C164.403 32.1025 164.785 31.5029 165.075 30.8489L170.526 36.3264C169.835 37.3074 169.036 38.1886 168.127 38.9698C167.237 39.751 166.265 40.4141 165.212 40.9591C164.176 41.5041 163.077 41.9129 161.914 42.1854C160.77 42.4761 159.589 42.6214 158.372 42.6214C156.319 42.6214 154.384 42.2399 152.567 41.4769C150.768 40.6957 149.188 39.6329 147.825 38.2885C146.481 36.9441 145.418 35.3726 144.637 33.574C143.856 31.7754 143.465 29.8497 143.465 27.7968C143.465 25.5622 143.856 23.4729 144.637 21.529C145.418 19.585 146.481 17.8955 147.825 16.4602C149.188 15.0068 150.768 13.8623 152.567 13.0266C154.384 12.1909 156.319 11.773 158.372 11.773C159.589 11.773 160.779 11.9274 161.941 12.2363C163.122 12.5451 164.24 12.9993 165.293 13.5989C166.365 14.1802 167.346 14.8978 168.236 15.7517C169.145 16.6056 169.926 17.5866 170.58 18.6948Z" fill="#1D5BFB"/>
<path d="M202.001 27.2245C202.001 29.4046 201.61 31.4393 200.829 33.3288C200.048 35.2 198.985 36.826 197.641 38.2067C196.296 39.5693 194.716 40.6503 192.899 41.4496C191.1 42.2308 189.165 42.6214 187.094 42.6214C185.041 42.6214 183.107 42.2308 181.29 41.4496C179.491 40.6503 177.911 39.5693 176.548 38.2067C175.204 36.826 174.141 35.2 173.36 33.3288C172.579 31.4393 172.188 29.4046 172.188 27.2245C172.188 25.008 172.579 22.9551 173.36 21.0657C174.141 19.1763 175.204 17.5503 176.548 16.1877C177.911 14.807 179.491 13.726 181.29 12.9448C183.107 12.1636 185.041 11.773 187.094 11.773C189.165 11.773 191.1 12.1455 192.899 12.8903C194.716 13.617 196.296 14.6617 197.641 16.0242C198.985 17.3686 200.048 18.9946 200.829 20.9022C201.61 22.7916 202.001 24.899 202.001 27.2245ZM194.507 27.2245C194.507 26.0254 194.307 24.9445 193.907 23.9816C193.526 23.0005 192.999 22.1648 192.327 21.4745C191.654 20.7659 190.864 20.23 189.956 19.8666C189.066 19.4851 188.112 19.2944 187.094 19.2944C186.077 19.2944 185.114 19.4851 184.206 19.8666C183.316 20.23 182.534 20.7659 181.862 21.4745C181.208 22.1648 180.69 23.0005 180.309 23.9816C179.927 24.9445 179.737 26.0254 179.737 27.2245C179.737 28.3509 179.927 29.3955 180.309 30.3584C180.69 31.3212 181.208 32.157 181.862 32.8655C182.534 33.574 183.316 34.1372 184.206 34.5551C185.114 34.9547 186.077 35.1546 187.094 35.1546C188.112 35.1546 189.066 34.9638 189.956 34.5823C190.864 34.2008 191.654 33.6649 192.327 32.9745C192.999 32.2841 193.526 31.4484 193.907 30.4674C194.307 29.4863 194.507 28.4054 194.507 27.2245Z" fill="#1D5BFB"/>
<mask id="mask0_490_55289" style="mask-type:alpha" maskUnits="userSpaceOnUse" x="0" y="0" width="202" height="44">
<path d="M9.48664 43.408H1.50643C0.370765 43.408 -0.355372 42.1978 0.179061 41.1957L1.55202 38.6214L15.251 14.4995C15.7387 13.6407 16.9173 13.4967 17.5975 14.2128C20.4982 17.267 25.3661 17.267 28.2668 14.2128C28.947 13.4967 30.1256 13.6407 30.6133 14.4995L44.3123 38.6214L45.6852 41.1957C46.2197 42.1978 45.4935 43.408 44.3578 43.408H36.3776C35.7865 43.408 35.2501 43.0618 35.0067 42.523L29.7869 30.9688C27.1214 25.0687 18.7428 25.0687 16.0774 30.9688L10.8576 42.523C10.6142 43.0618 10.0778 43.408 9.48664 43.408Z" fill="#1D5BFB"/>
<path d="M22.6928 9.09444H23.1715C25.6829 9.09444 27.7187 7.05858 27.7187 4.54722C27.7187 2.03586 25.6829 0 23.1715 0H22.9321H22.6928C20.1814 0 18.1455 2.03586 18.1455 4.54722C18.1455 7.05858 20.1814 9.09444 22.6928 9.09444Z" fill="#1D5BFB"/>
<path d="M75.5005 26.461V18.6398C75.5005 17.568 75.2916 16.5597 74.8737 15.615C74.4741 14.6521 73.9199 13.8164 73.2114 13.1078C72.5029 12.3993 71.6672 11.8452 70.7043 11.4455C69.7596 11.0277 68.7513 10.8187 67.6794 10.8187C66.6075 10.8187 65.5902 11.0277 64.6273 11.4455C63.6826 11.8452 62.8559 12.3993 62.1474 13.1078C61.4389 13.8164 60.8757 14.6521 60.4578 15.615C60.0582 16.5597 59.8583 17.568 59.8583 18.6398V26.461H75.5005ZM83.3216 42.0759H75.5005V34.2548H59.8583V42.0759H52.0645V18.6398C52.0645 16.4779 52.4732 14.4522 53.2908 12.5628C54.1083 10.6552 55.2165 8.99291 56.6154 7.57585C58.0325 6.15878 59.6857 5.04148 61.5751 4.22394C63.4827 3.40641 65.5175 2.99764 67.6794 2.99764C69.8413 2.99764 71.867 3.40641 73.7564 4.22394C75.664 5.04148 77.3264 6.15878 78.7434 7.57585C80.1605 8.99291 81.2778 10.6552 82.0953 12.5628C82.9129 14.4522 83.3216 16.4779 83.3216 18.6398V42.0759Z" fill="#1D5BFB"/>
<path d="M126.433 42.0759H119.021V23.5451C119.021 23.0364 118.921 22.5549 118.721 22.1008C118.539 21.6466 118.276 21.2469 117.931 20.9017C117.586 20.5565 117.186 20.2931 116.732 20.1114C116.277 19.9116 115.796 19.8117 115.287 19.8117C114.779 19.8117 114.297 19.9116 113.843 20.1114C113.407 20.2931 113.016 20.5565 112.671 20.9017C112.344 21.2469 112.081 21.6466 111.881 22.1008C111.699 22.5549 111.608 23.0364 111.608 23.5451V42.0759H104.169V23.5451C104.169 23.0364 104.069 22.5549 103.869 22.1008C103.687 21.6466 103.424 21.2469 103.079 20.9017C102.734 20.5565 102.334 20.2931 101.88 20.1114C101.426 19.9116 100.944 19.8117 100.435 19.8117C99.9267 19.8117 99.4453 19.9116 98.9911 20.1114C98.5551 20.2931 98.1645 20.5565 97.8193 20.9017C97.4923 21.2469 97.2288 21.6466 97.029 22.1008C96.8473 22.5549 96.7565 23.0364 96.7565 23.5451V42.0759H89.3169V12.8898H91.1155L93.1321 15.1244C94.1676 14.2524 95.3031 13.5802 96.5385 13.1078C97.792 12.6173 99.091 12.3721 100.435 12.3721C101.798 12.3721 103.124 12.6264 104.414 13.1351C105.722 13.6438 106.867 14.5249 107.848 15.7785C108.302 15.1608 108.82 14.6339 109.401 14.1979C109.982 13.7619 110.591 13.4076 111.227 13.1351C111.881 12.8626 112.553 12.6718 113.243 12.5628C113.934 12.4356 114.615 12.3721 115.287 12.3721C116.832 12.3721 118.276 12.6627 119.62 13.2441C120.983 13.8255 122.164 14.6248 123.163 15.6422C124.18 16.6414 124.98 17.8223 125.561 19.1849C126.142 20.5474 126.433 22.0008 126.433 23.5451V42.0759Z" fill="#1D5BFB"/>
<path d="M140.658 4.95973C140.658 5.65009 140.522 6.29504 140.249 6.89456C139.995 7.49409 139.641 8.02095 139.187 8.47514C138.732 8.91116 138.197 9.26542 137.579 9.53793C136.979 9.79228 136.334 9.91945 135.644 9.91945C134.954 9.91945 134.3 9.79228 133.682 9.53793C133.082 9.26542 132.556 8.91116 132.101 8.47514C131.665 8.02095 131.311 7.49409 131.039 6.89456C130.784 6.29504 130.657 5.65009 130.657 4.95973C130.657 4.28753 130.784 3.65167 131.039 3.05214C131.311 2.43444 131.665 1.90759 132.101 1.47157C132.556 1.01738 133.082 0.663114 133.682 0.408769C134.3 0.136256 134.954 0 135.644 0C136.334 0 136.979 0.136256 137.579 0.408769C138.197 0.663114 138.732 1.01738 139.187 1.47157C139.641 1.90759 139.995 2.43444 140.249 3.05214C140.522 3.65167 140.658 4.28753 140.658 4.95973ZM139.377 42.0759H131.883V12.8898H139.377V42.0759Z" fill="#1D5BFB"/>
<path d="M170.58 18.6944L165.13 24.1719C164.857 23.4088 164.485 22.7275 164.013 22.128C163.54 21.5103 163.004 20.9925 162.405 20.5747C161.823 20.1568 161.188 19.8389 160.497 19.6209C159.807 19.4029 159.098 19.2939 158.372 19.2939C157.354 19.2939 156.391 19.5028 155.483 19.9207C154.593 20.3385 153.812 20.929 153.139 21.692C152.485 22.4369 151.968 23.3271 151.586 24.3626C151.204 25.3982 151.014 26.5427 151.014 27.7963C151.014 28.8136 151.204 29.7674 151.586 30.6576C151.968 31.5479 152.485 32.3291 153.139 33.0013C153.812 33.6735 154.593 34.2003 155.483 34.5818C156.391 34.9633 157.354 35.1541 158.372 35.1541C159.098 35.1541 159.798 35.0542 160.47 34.8543C161.142 34.6545 161.769 34.3729 162.35 34.0095C162.95 33.628 163.477 33.1738 163.931 32.647C164.403 32.102 164.785 31.5024 165.075 30.8484L170.526 36.3259C169.835 37.3069 169.036 38.1881 168.127 38.9693C167.237 39.7505 166.265 40.4136 165.212 40.9586C164.176 41.5036 163.077 41.9124 161.914 42.1849C160.77 42.4756 159.589 42.6209 158.372 42.6209C156.319 42.6209 154.384 42.2394 152.567 41.4764C150.768 40.6952 149.188 39.6324 147.825 38.288C146.481 36.9436 145.418 35.3721 144.637 33.5735C143.856 31.7749 143.465 29.8492 143.465 27.7963C143.465 25.5617 143.856 23.4724 144.637 21.5285C145.418 19.5846 146.481 17.895 147.825 16.4597C149.188 15.0064 150.768 13.8618 152.567 13.0261C154.384 12.1904 156.319 11.7725 158.372 11.7725C159.589 11.7725 160.779 11.927 161.941 12.2358C163.122 12.5447 164.24 12.9988 165.293 13.5984C166.365 14.1797 167.346 14.8973 168.236 15.7512C169.145 16.6051 169.926 17.5861 170.58 18.6944Z" fill="#1D5BFB"/>
<path d="M202.001 27.224C202.001 29.4041 201.61 31.4388 200.829 33.3283C200.048 35.1995 198.985 36.8255 197.641 38.2062C196.296 39.5688 194.716 40.6498 192.899 41.4491C191.1 42.2303 189.165 42.6209 187.094 42.6209C185.041 42.6209 183.107 42.2303 181.29 41.4491C179.491 40.6498 177.911 39.5688 176.548 38.2062C175.204 36.8255 174.141 35.1995 173.36 33.3283C172.579 31.4388 172.188 29.4041 172.188 27.224C172.188 25.0076 172.579 22.9546 173.36 21.0652C174.141 19.1758 175.204 17.5498 176.548 16.1872C177.911 14.8065 179.491 13.7255 181.29 12.9443C183.107 12.1631 185.041 11.7725 187.094 11.7725C189.165 11.7725 191.1 12.145 192.899 12.8898C194.716 13.6165 196.296 14.6612 197.641 16.0237C198.985 17.3681 200.048 18.9941 200.829 20.9017C201.61 22.7911 202.001 24.8986 202.001 27.224ZM194.507 27.224C194.507 26.0249 194.307 24.944 193.907 23.9811C193.526 23 192.999 22.1643 192.327 21.474C191.654 20.7654 190.864 20.2295 189.956 19.8662C189.066 19.4846 188.112 19.2939 187.094 19.2939C186.077 19.2939 185.114 19.4846 184.206 19.8662C183.316 20.2295 182.534 20.7654 181.862 21.474C181.208 22.1643 180.69 23 180.309 23.9811C179.927 24.944 179.737 26.0249 179.737 27.224C179.737 28.3504 179.927 29.395 180.309 30.3579C180.69 31.3208 181.208 32.1565 181.862 32.865C182.534 33.5735 183.316 34.1367 184.206 34.5546C185.114 34.9543 186.077 35.1541 187.094 35.1541C188.112 35.1541 189.066 34.9633 189.956 34.5818C190.864 34.2003 191.654 33.6644 192.327 32.974C192.999 32.2836 193.526 31.4479 193.907 30.4669C194.307 29.4858 194.507 28.4049 194.507 27.224Z" fill="#1D5BFB"/>
</mask>
<g mask="url(#mask0_490_55289)">
<path d="M12.4023 7.86647C21.0412 21.8604 46.8364 44.9074 80.9068 25.1441C103.186 20.5974 105.762 30.0521 135.165 33.4799C179.723 34.2376 165.78 12.2616 209.883 34.5407L215.491 4.6837L41.35 -27.9014L12.4023 7.86647Z" fill="#FF5D12"/>
</g>
</svg>
