<svg width="169" height="30" viewBox="0 0 169 30" fill="none" xmlns="http://www.w3.org/2000/svg"><path d="M55.704 19.588h-6.542v-8.366c0-.313-.114-.627-.313-.846-.2-.22-.484-.345-.768-.345a1.05 1.05 0 0 0-.768.345c-.2.22-.313.533-.313.846v9.556c0 .314.114.627.313.846.199.22.483.345.768.345h7.623c.285 0 .569-.126.768-.345.2-.22.313-.532.313-.846a1.28 1.28 0 0 0-.313-.846 1.004 1.004 0 0 0-.768-.344Zm26.511-4.794h-4.353c-.312 0-.54-.094-.767-.345-.228-.25-.313-.5-.313-.845s.113-.596.313-.846c.227-.251.455-.345.767-.345h2.788c.284 0 .569-.125.768-.345.2-.219.313-.532.313-.846a1.28 1.28 0 0 0-.313-.846 1.05 1.05 0 0 0-.768-.344h-2.788c-.881 0-1.678.344-2.304 1.065a3.716 3.716 0 0 0-.967 2.538c0 .971.313 1.848.967 2.538.626.689 1.423 1.065 2.304 1.065h4.353c.312 0 .54.125.767.345.228.25.313.501.313.846 0 .344-.113.595-.313.846a.945.945 0 0 1-.767.344h-2.788c-.285 0-.569.125-.768.345-.2.22-.313.533-.313.846 0 .313.114.626.313.846.199.22.483.344.768.344h2.787c.882 0 1.679-.344 2.305-1.065a3.72 3.72 0 0 0 .967-2.538c0-.971-.313-1.848-.967-2.538-.626-.72-1.394-1.065-2.305-1.065Zm35.954-1.191c0-.971-.313-1.848-.967-2.538-.626-.689-1.422-1.065-2.304-1.065h-6.514a1.05 1.05 0 0 0-.768.345 1.276 1.276 0 0 0-.313.846v9.556c0 .313.114.626.313.846.199.219.484.344.768.344.285 0 .569-.125.768-.344a1.28 1.28 0 0 0 .313-.846v-8.335h5.433c.313 0 .54.126.768.345.228.25.313.502.313.846 0 .345-.114.595-.313.846-.228.25-.455.345-.768.345h-1.906c-.512 0-.938.313-1.138.814-.17.47-.085 1.003.2 1.348l4.152 4.574c.029.031.057.094.086.094.199.22.455.345.739.345.285 0 .569-.126.768-.345a1.28 1.28 0 0 0 .313-.846 1.34 1.34 0 0 0-.313-.846l-2.503-2.757c.711-.094 1.337-.439 1.849-1.034.683-.69 1.024-1.535 1.024-2.538Zm48.015 3.572c.711-.094 1.337-.439 1.849-1.034.626-.69.967-1.567.967-2.538 0-.971-.313-1.848-.967-2.538-.626-.689-1.422-1.065-2.304-1.065h-6.514c-.285 0-.569.125-.768.345a1.276 1.276 0 0 0-.313.846v9.556c0 .313.114.626.313.846.199.219.483.344.768.344.284 0 .569-.125.768-.344a1.28 1.28 0 0 0 .313-.846v-8.335h5.433c.313 0 .54.126.768.345.227.22.313.502.313.846 0 .345-.114.595-.313.846-.228.25-.455.345-.768.345h-1.906c-.512 0-.939.313-1.138.814-.17.47-.085 1.003.199 1.348l4.182 4.574c.028.031.057.094.085.094.199.22.455.345.74.345.284 0 .569-.126.768-.345a1.28 1.28 0 0 0 .313-.846 1.34 1.34 0 0 0-.313-.846l-2.475-2.757Zm-74.384.031h5.377c.597 0 1.08-.533 1.08-1.19 0-.659-.483-1.191-1.08-1.191H91.8c-.598 0-1.081.532-1.081 1.19 0 .658.483 1.19 1.08 1.19ZM100.448 10h-8.647c-.598 0-1.081.533-1.081 1.19 0 .659.483 1.191 1.08 1.191h8.648c.597 0 1.081-.532 1.081-1.19 0-.658-.484-1.191-1.081-1.191Zm0 9.587h-8.647c-.598 0-1.081.533-1.081 1.191s.483 1.19 1.08 1.19h8.648c.597 0 1.081-.532 1.081-1.19 0-.658-.484-1.19-1.081-1.19ZM66.712 10.69a1.039 1.039 0 0 0-.967-.658h-.028c-.399 0-.768.25-.968.658l-4.38 9.556c-.142.282-.142.627-.057.908.086.282.285.564.54.69a.866.866 0 0 0 .484.125c.114 0 .228-.031.342-.063.284-.094.512-.313.625-.595l3.385-7.425 3.442 7.425c.142.282.341.501.626.595.284.094.569.063.825-.062.256-.157.455-.376.54-.69a1.414 1.414 0 0 0-.057-.908l-4.352-9.556Zm83.031.125a1.086 1.086 0 0 0-.54-.658.868.868 0 0 0-.484-.125.868.868 0 0 0-.484.125c-.256.125-.426.376-.512.627l-4.323 9.462c-.142.282-.142.627-.057.909.085.281.284.563.54.689a.868.868 0 0 0 .484.125c.114 0 .227-.031.341-.063.285-.094.512-.313.626-.595l3.385-7.425 3.385 7.425c.284.595.939.846 1.479.533.256-.157.455-.376.541-.69a1.422 1.422 0 0 0-.057-.908l-4.324-9.431Zm-8.989-.658-.085.188.085-.188c-.54-.314-1.194-.063-1.479.532l-3.385 7.426-3.328-7.3a1.086 1.086 0 0 0-.54-.658.868.868 0 0 0-.484-.126.863.863 0 0 0-.483.126c-.256.125-.427.376-.512.626l-3.357 7.332-3.385-7.426c-.284-.595-.939-.846-1.479-.532a1.147 1.147 0 0 0-.54.689c-.086.313-.057.627.056.909l4.353 9.556c.17.376.512.626.91.658h.142c.398-.032.74-.282.91-.658l3.385-7.426 3.357 7.426c.17.407.54.658.967.658h.028c.398 0 .768-.251.967-.658l4.381-9.556c.142-.282.142-.627.057-.909a1.252 1.252 0 0 0-.541-.69Z" fill="#333"/><g clip-path="url(#a)" fill="red"><path d="M21.69 22.272h-8.642c-.393 0-.785.13-1.047.393l-1.964 1.44c-.262.263-.131.787.261.787H24.44c.393 0 .524-.524.262-.786l-1.964-1.572a2.466 2.466 0 0 0-1.048-.262Zm-9.297-1.965 4.059-7.204c.13-.393.262-.655.262-1.047l-.393-2.882c0-.393-.524-.524-.786-.131L8.203 21.617c-.131.393.13.786.523.524l2.75-1.179c.393 0 .655-.262.916-.655Zm6.153-7.072 4.19 7.204c.13.392.524.654.785.785l2.62 1.18c.392.13.654-.263.523-.525L19.331 9.305c-.13-.393-.654-.262-.785.131l-.393 2.882c.131.13.131.524.393.917ZM19.727.398l-.393 3.537c0 .524 0 .917.262 1.31L30.07 23.45c.262.393.654.786 1.047.917l3.274 1.31c.392.13.785-.262.523-.655L20.644.136c-.262-.262-.916-.13-.916.262Zm7.723 26.328H7.417c-.524 0-.917.13-1.31.393l-2.88 2.095c-.393.262-.131.786.261.786h27.76c.392 0 .654-.524.261-.786l-2.88-2.095c-.131-.262-.655-.393-1.179-.393ZM4.799 23.45 15.274 5.245c.262-.393.392-.917.262-1.31L15.143.398c0-.393-.655-.524-.786-.131L.085 25.153c-.262.393.13.786.524.655l3.273-1.31c.393-.393.786-.655.917-1.047Z"/></g><defs><clipPath id="a"><path fill="#fff" d="M0 0h35v30H0z"/></clipPath></defs></svg>