<svg width="178" height="79" viewBox="0 0 178 79" fill="none" xmlns="http://www.w3.org/2000/svg">
<path d="M11.1339 38.0156L9.52166 51.3227H13.6673L15.2795 38.0156H11.1339ZM5.58071 16.0077H26.1044L25.1319 24.1967H12.7973L12.1063 29.8266H24.441L20.8839 59.5117H0.360236L5.58071 16.0077ZM46.2186 16.0077L45.2461 24.1967H37.2618L36.1103 33.7676H44.0945L43.1221 41.9566H35.1122L33.9863 51.3227H41.9705L40.9981 59.5117H24.8248L30.0453 16.0077H46.2186ZM68.4056 59.5117H60.2166L64.4646 24.1967H61.6753L55.5591 59.5117H44.2993L45.2717 51.3227H48.7776L54.8938 16.0077H73.6261L68.4056 59.5117ZM95.8387 59.5117H87.6497L91.8977 24.1967H89.1084L82.9922 59.5117H71.7324L72.7048 51.3227H76.2107L82.3269 16.0077H101.059L95.8387 59.5117Z" fill="black"/>
<path fill-rule="evenodd" clip-rule="evenodd" d="M128.431 68.3339C137.88 68.3339 145.541 60.6732 145.541 51.2233C145.869 43.4159 141.944 35.9414 137.581 27.6324C134.204 21.2 130.564 14.2676 128.431 6.29346C126.298 14.2676 122.657 21.2 119.28 27.6324C114.917 35.9414 110.992 43.4159 111.32 51.2233C111.32 60.6732 118.981 68.3339 128.431 68.3339ZM117.718 48.6756C118.221 44.7071 120.096 41.3311 122.142 37.6478C124.579 33.2608 127.258 28.4377 128.149 21.658C130.038 26.7655 128.993 31.4354 124.657 47.382C122.242 57.9743 129.003 61.8704 133.543 57.7964C136.96 53.9411 135.337 49.1259 133.302 43.0877C131.654 38.1959 129.735 32.5016 130.006 25.8648C130.113 28.2506 133.491 35.6739 136.129 41.4703C137.082 43.5637 137.938 45.4449 138.508 46.8C139.439 49.0116 139.501 50.6637 139.207 53.9003C137.701 61.8458 130.427 64.8634 124.508 62.3486C119.457 60.2028 117.028 54.1196 117.718 48.6756ZM130.024 25.4871C130.005 25.5934 130 25.7198 130.006 25.8648C130.011 25.7393 130.017 25.6133 130.024 25.4871Z" fill="black"/>
<path d="M154.018 56.6943C155.532 45.4036 147.733 37.2557 146.103 28.4094C144.939 38.6525 152.019 42.4631 149.712 54.9483C148.315 62.5067 141.778 70.7922 132.252 72.2917C143.775 73.8048 152.389 67.4029 154.018 56.6943Z" fill="black"/>
<path d="M103.347 56.6943C101.834 45.4036 109.632 37.2557 111.262 28.4094C112.426 38.6525 105.346 42.4631 107.654 54.9483C109.05 62.5067 115.588 70.7922 125.113 72.2917C113.59 73.8048 104.976 67.4029 103.347 56.6943Z" fill="black"/>
<path d="M164.888 51.3227H172.872L171.9 59.5117H155.726L160.947 16.0077H177.12L176.148 24.1967H168.163L164.888 51.3227Z" fill="black"/>
</svg>
