<svg width="20" height="20" viewBox="0 0 20 20" fill="none" xmlns="http://www.w3.org/2000/svg">
<path fill-rule="evenodd" clip-rule="evenodd" d="M2.9165 3.125C2.57133 3.125 2.2915 3.40482 2.2915 3.75V16.25C2.2915 16.5952 2.57133 16.875 2.9165 16.875H17.0832C17.4283 16.875 17.7082 16.5952 17.7082 16.25V3.75C17.7082 3.40482 17.4283 3.125 17.0832 3.125H2.9165ZM1.0415 3.75C1.0415 2.71447 1.88097 1.875 2.9165 1.875H17.0832C18.1187 1.875 18.9582 2.71447 18.9582 3.75V16.25C18.9582 17.2855 18.1187 18.125 17.0832 18.125H2.9165C1.88097 18.125 1.0415 17.2855 1.0415 16.25V3.75Z" fill="#1D5BFB"/>
<path fill-rule="evenodd" clip-rule="evenodd" d="M1.0415 5.8335C1.0415 5.48832 1.32133 5.2085 1.6665 5.2085H18.3332C18.6783 5.2085 18.9582 5.48832 18.9582 5.8335C18.9582 6.17867 18.6783 6.4585 18.3332 6.4585H1.6665C1.32133 6.4585 1.0415 6.17867 1.0415 5.8335Z" fill="#1D5BFB"/>
<path fill-rule="evenodd" clip-rule="evenodd" d="M7.7085 10C7.7085 9.65482 7.98832 9.375 8.3335 9.375H15.0002C15.3453 9.375 15.6252 9.65482 15.6252 10C15.6252 10.3452 15.3453 10.625 15.0002 10.625H8.3335C7.98832 10.625 7.7085 10.3452 7.7085 10Z" fill="#1D5BFB"/>
<path fill-rule="evenodd" clip-rule="evenodd" d="M7.7085 13.3335C7.7085 12.9883 7.98832 12.7085 8.3335 12.7085H15.0002C15.3453 12.7085 15.6252 12.9883 15.6252 13.3335C15.6252 13.6787 15.3453 13.9585 15.0002 13.9585H8.3335C7.98832 13.9585 7.7085 13.6787 7.7085 13.3335Z" fill="#1D5BFB"/>
<path fill-rule="evenodd" clip-rule="evenodd" d="M4.375 10C4.375 9.65482 4.65482 9.375 5 9.375H5.83333C6.17851 9.375 6.45833 9.65482 6.45833 10C6.45833 10.3452 6.17851 10.625 5.83333 10.625H5C4.65482 10.625 4.375 10.3452 4.375 10Z" fill="#1D5BFB"/>
<path fill-rule="evenodd" clip-rule="evenodd" d="M4.375 13.3335C4.375 12.9883 4.65482 12.7085 5 12.7085H5.83333C6.17851 12.7085 6.45833 12.9883 6.45833 13.3335C6.45833 13.6787 6.17851 13.9585 5.83333 13.9585H5C4.65482 13.9585 4.375 13.6787 4.375 13.3335Z" fill="#1D5BFB"/>
</svg>
