<svg width="13" height="8" viewBox="0 0 13 8" fill="none" xmlns="http://www.w3.org/2000/svg">
<path d="M12.75 1.81669L7.15003 7.43336C7.08337 7.50002 7.01114 7.54736 6.93337 7.57536C6.85559 7.60336 6.77226 7.61713 6.68337 7.61669C6.59448 7.61669 6.51114 7.60291 6.43337 7.57536C6.35559 7.5478 6.28337 7.50047 6.2167 7.43336L0.600032 1.81669C0.444477 1.66113 0.366699 1.46669 0.366699 1.23336C0.366699 1.00002 0.450033 0.800023 0.616699 0.633356C0.783366 0.466689 0.97781 0.383356 1.20003 0.383356C1.42225 0.383356 1.6167 0.466689 1.78337 0.633356L6.68337 5.53336L11.5834 0.633356C11.7389 0.4778 11.9307 0.400023 12.1587 0.400023C12.3867 0.400023 12.5838 0.483356 12.75 0.650023C12.9167 0.816689 13 1.01113 13 1.23336C13 1.45558 12.9167 1.65002 12.75 1.81669Z" fill="#0E0E0E"/>
</svg>
