<svg width="16" height="17" viewBox="0 0 16 17" fill="none" xmlns="http://www.w3.org/2000/svg">
<path d="M5.81669 2.53317L11.4334 8.13317C11.5 8.19984 11.5474 8.27206 11.5754 8.34984C11.6034 8.42761 11.6171 8.51095 11.6167 8.59984C11.6167 8.68873 11.6029 8.77206 11.5754 8.84984C11.5478 8.92761 11.5005 8.99984 11.4334 9.0665L5.81669 14.6832C5.66113 14.8387 5.46669 14.9165 5.23336 14.9165C5.00002 14.9165 4.80002 14.8332 4.63336 14.6665C4.46669 14.4998 4.38336 14.3054 4.38336 14.0832C4.38336 13.8609 4.46669 13.6665 4.63336 13.4998L9.53336 8.59984L4.63336 3.69984C4.4778 3.54428 4.40002 3.3525 4.40002 3.1245C4.40002 2.8965 4.48336 2.69939 4.65002 2.53317C4.81669 2.3665 5.01113 2.28317 5.23336 2.28317C5.45558 2.28317 5.65002 2.3665 5.81669 2.53317Z" fill="#0E0E0E"/>
</svg>
