<svg width="24" height="24" viewBox="0 0 24 24" fill="none" xmlns="http://www.w3.org/2000/svg"><g clip-path="url(#a)"><g clip-path="url(#b)"><path d="M7.111 1h9.778c2.7 0 3.055 1.222 3.667 3.667L23 19.333C23 23 23 23 19.333 23H4.667C1 23 1 23 1 19.333L3.444 4.667C4.056 2.222 4.411 1 7.111 1ZM6.5 2.048c-1.222 0-2.357 1.269-2.357 2.619L2.048 19.333c0 2.445.174 2.62 2.619 2.62h14.666c2.445 0 2.62-.175 2.62-2.62L19.856 4.667c0-1.35-1.007-2.62-2.357-2.62h-11Zm-.262 3.666c0-.675-.151-1.047.524-1.047s.524.372.524 1.047v1.397c0 1.833 3.364 2.445 4.714 2.445 1.35 0 4.714 0 4.714-2.445V5.89c0-.675-.15-1.222.524-1.222.675 0 .524.547.524 1.222v1.22c0 2.7-3.062 3.318-5.762 3.318-2.7 0-5.762-.618-5.762-3.318V5.714Z" fill="#333"/></g></g><defs><clipPath id="a"><path fill="#fff" d="M0 0h24v24H0z"/></clipPath><clipPath id="b"><path fill="#fff" d="M0 0h24v24H0z"/></clipPath></defs></svg>