<svg width="20" height="20" viewBox="0 0 20 20" fill="none" xmlns="http://www.w3.org/2000/svg">
<path fill-rule="evenodd" clip-rule="evenodd" d="M2.49984 2.2915C2.38478 2.2915 2.2915 2.38478 2.2915 2.49984V17.4998C2.2915 17.6149 2.38478 17.7082 2.49984 17.7082H17.4998C17.6149 17.7082 17.7082 17.6149 17.7082 17.4998V2.49984C17.7082 2.38478 17.6149 2.2915 17.4998 2.2915H2.49984ZM1.0415 2.49984C1.0415 1.69442 1.69442 1.0415 2.49984 1.0415H17.4998C18.3053 1.0415 18.9582 1.69442 18.9582 2.49984V17.4998C18.9582 18.3053 18.3053 18.9582 17.4998 18.9582H2.49984C1.69442 18.9582 1.0415 18.3053 1.0415 17.4998V2.49984Z" fill="#1D5BFB"/>
<path fill-rule="evenodd" clip-rule="evenodd" d="M1.0415 5.8335C1.0415 5.48832 1.32133 5.2085 1.6665 5.2085H18.3332C18.6783 5.2085 18.9582 5.48832 18.9582 5.8335C18.9582 6.17867 18.6783 6.4585 18.3332 6.4585H1.6665C1.32133 6.4585 1.0415 6.17867 1.0415 5.8335Z" fill="#1D5BFB"/>
<path fill-rule="evenodd" clip-rule="evenodd" d="M18.3335 3.9585C18.6787 3.9585 18.9585 4.23832 18.9585 4.5835V9.5835C18.9585 9.92867 18.6787 10.2085 18.3335 10.2085C17.9883 10.2085 17.7085 9.92867 17.7085 9.5835V4.5835C17.7085 4.23832 17.9883 3.9585 18.3335 3.9585Z" fill="#1D5BFB"/>
<path fill-rule="evenodd" clip-rule="evenodd" d="M4.375 9.1665C4.375 8.82133 4.65482 8.5415 5 8.5415H6.66667C7.01184 8.5415 7.29167 8.82133 7.29167 9.1665C7.29167 9.51168 7.01184 9.7915 6.66667 9.7915H5C4.65482 9.7915 4.375 9.51168 4.375 9.1665Z" fill="#1D5BFB"/>
<path fill-rule="evenodd" clip-rule="evenodd" d="M8.5415 9.1665C8.5415 8.82133 8.82133 8.5415 9.1665 8.5415H10.8332C11.1783 8.5415 11.4582 8.82133 11.4582 9.1665C11.4582 9.51168 11.1783 9.7915 10.8332 9.7915H9.1665C8.82133 9.7915 8.5415 9.51168 8.5415 9.1665Z" fill="#1D5BFB"/>
<path fill-rule="evenodd" clip-rule="evenodd" d="M12.7085 9.1665C12.7085 8.82133 12.9883 8.5415 13.3335 8.5415H15.0002C15.3453 8.5415 15.6252 8.82133 15.6252 9.1665C15.6252 9.51168 15.3453 9.7915 15.0002 9.7915H13.3335C12.9883 9.7915 12.7085 9.51168 12.7085 9.1665Z" fill="#1D5BFB"/>
<path fill-rule="evenodd" clip-rule="evenodd" d="M4.375 12.0835C4.375 11.7383 4.65482 11.4585 5 11.4585H6.66667C7.01184 11.4585 7.29167 11.7383 7.29167 12.0835C7.29167 12.4287 7.01184 12.7085 6.66667 12.7085H5C4.65482 12.7085 4.375 12.4287 4.375 12.0835Z" fill="#1D5BFB"/>
<path fill-rule="evenodd" clip-rule="evenodd" d="M8.5415 12.0835C8.5415 11.7383 8.82133 11.4585 9.1665 11.4585H10.8332C11.1783 11.4585 11.4582 11.7383 11.4582 12.0835C11.4582 12.4287 11.1783 12.7085 10.8332 12.7085H9.1665C8.82133 12.7085 8.5415 12.4287 8.5415 12.0835Z" fill="#1D5BFB"/>
<path fill-rule="evenodd" clip-rule="evenodd" d="M12.7085 12.0835C12.7085 11.7383 12.9883 11.4585 13.3335 11.4585H15.0002C15.3453 11.4585 15.6252 11.7383 15.6252 12.0835C15.6252 12.4287 15.3453 12.7085 15.0002 12.7085H13.3335C12.9883 12.7085 12.7085 12.4287 12.7085 12.0835Z" fill="#1D5BFB"/>
<path fill-rule="evenodd" clip-rule="evenodd" d="M4.375 15C4.375 14.6548 4.65482 14.375 5 14.375H6.66667C7.01184 14.375 7.29167 14.6548 7.29167 15C7.29167 15.3452 7.01184 15.625 6.66667 15.625H5C4.65482 15.625 4.375 15.3452 4.375 15Z" fill="#1D5BFB"/>
<path fill-rule="evenodd" clip-rule="evenodd" d="M8.5415 15C8.5415 14.6548 8.82133 14.375 9.1665 14.375H10.8332C11.1783 14.375 11.4582 14.6548 11.4582 15C11.4582 15.3452 11.1783 15.625 10.8332 15.625H9.1665C8.82133 15.625 8.5415 15.3452 8.5415 15Z" fill="#1D5BFB"/>
<path fill-rule="evenodd" clip-rule="evenodd" d="M12.7085 15C12.7085 14.6548 12.9883 14.375 13.3335 14.375H15.0002C15.3453 14.375 15.6252 14.6548 15.6252 15C15.6252 15.3452 15.3453 15.625 15.0002 15.625H13.3335C12.9883 15.625 12.7085 15.3452 12.7085 15Z" fill="#1D5BFB"/>
<path fill-rule="evenodd" clip-rule="evenodd" d="M1.6665 3.9585C2.01168 3.9585 2.2915 4.23832 2.2915 4.5835V9.5835C2.2915 9.92867 2.01168 10.2085 1.6665 10.2085C1.32133 10.2085 1.0415 9.92867 1.0415 9.5835V4.5835C1.0415 4.23832 1.32133 3.9585 1.6665 3.9585Z" fill="#1D5BFB"/>
</svg>
