<svg width="24" height="24" viewBox="0 0 24 24" fill="none" xmlns="http://www.w3.org/2000/svg"><path d="M13.223 19.583c.35-.05.656-.221.915-.512a1.85 1.85 0 0 0 .471-1.272c0-.493-.158-.921-.47-1.271-.313-.35-.694-.528-1.135-.528H9.8a.499.499 0 0 0-.38.176.628.628 0 0 0-.157.426v4.789c0 .164.054.312.157.426a.5.5 0 0 0 .76 0 .629.629 0 0 0 .157-.426v-4.187h2.667c.15 0 .27.055.376.174a.597.597 0 0 1 .155.421.6.6 0 0 1-.155.421.476.476 0 0 1-.376.174h-.94a.595.595 0 0 0-.561.408c-.087.236-.046.507.104.674l2.05 2.298c.015.02.033.04.047.053a.49.49 0 0 0 .368.166.5.5 0 0 0 .38-.176.63.63 0 0 0 .157-.426.647.647 0 0 0-.15-.422l-1.236-1.386Zm8.24-3.581a.61.61 0 0 0-.254.05l-.027.012-.15.146-1.741 1.916-1.739-1.916-.153-.145-.024-.012a.594.594 0 0 0-.257-.051c-.336 0-.537.222-.537.595v4.79c0 .373.201.596.537.596.337 0 .537-.223.537-.595V18.07l1.636 1.8 1.635-1.8v3.318c0 .372.2.595.537.595.336 0 .537-.223.537-.595v-4.79c0-.374-.2-.596-.537-.596ZM4.674 22C3.199 22 2 20.655 2 19.003c0-1.653 1.2-2.998 2.674-2.998.754 0 1.476.36 1.983.987.132.164.249.346.346.539.144.286.054.65-.202.812-.256.162-.58.06-.724-.226a1.818 1.818 0 0 0-.209-.325 1.542 1.542 0 0 0-1.194-.594c-.888 0-1.61.81-1.61 1.805 0 .995.722 1.804 1.61 1.804.575 0 1.111-.348 1.398-.909.146-.285.471-.384.726-.22.254.163.343.528.197.813C6.519 21.421 5.63 22 4.674 22Zm9.002-11.065h-3.457a.597.597 0 0 0-.419.156l-.785.571c-.105.104-.053.312.104.312h5.657c.157 0 .21-.208.105-.312l-.786-.623a.992.992 0 0 0-.419-.104Zm-3.719-.78 1.624-2.857c.052-.156.104-.26.104-.416l-.157-1.143c0-.156-.21-.208-.314-.052l-2.933 4.988c-.052.156.052.312.21.208l1.1-.468c.157 0 .261-.104.366-.26Zm2.461-2.805 1.676 2.857c.053.156.21.26.315.312l1.047.468c.157.052.262-.104.21-.208L12.733 5.79c-.053-.156-.262-.104-.315.052l-.157 1.143c.053.052.053.208.157.364Zm.472-5.092-.157 1.403c0 .208 0 .364.105.52l4.19 7.221c.105.156.262.312.42.364l1.309.52c.157.052.314-.104.21-.26l-5.71-9.872c-.105-.104-.367-.052-.367.104Zm3.09 10.443H7.967a.89.89 0 0 0-.524.156l-1.152.831c-.158.104-.053.312.104.312H17.5c.157 0 .262-.208.105-.312l-1.153-.83c-.052-.105-.262-.157-.471-.157Zm-9.06-1.299 4.19-7.222c.104-.155.157-.363.104-.52l-.157-1.402c0-.156-.262-.208-.314-.052l-5.71 9.872c-.104.156.053.312.21.26l1.31-.52c.157-.156.314-.26.366-.416Z" fill="red"/></svg>