<svg width="32" height="32" viewBox="0 0 32 32" fill="none" xmlns="http://www.w3.org/2000/svg">
<rect width="32" height="32" rx="16" fill="white"/>
<path fill-rule="evenodd" clip-rule="evenodd" d="M9.33333 9.125C9.21827 9.125 9.125 9.21827 9.125 9.33333V22.6667C9.125 22.7817 9.21827 22.875 9.33333 22.875H22.6667C22.7817 22.875 22.875 22.7817 22.875 22.6667V16.8333C22.875 16.4882 23.1548 16.2083 23.5 16.2083C23.8452 16.2083 24.125 16.4882 24.125 16.8333V22.6667C24.125 23.4721 23.4721 24.125 22.6667 24.125H9.33333C8.52792 24.125 7.875 23.4721 7.875 22.6667V9.33333C7.875 8.52792 8.52792 7.875 9.33333 7.875H15.1667C15.5118 7.875 15.7917 8.15482 15.7917 8.5C15.7917 8.84518 15.5118 9.125 15.1667 9.125H9.33333Z" fill="#1D5BFB"/>
<path fill-rule="evenodd" clip-rule="evenodd" d="M20.4563 7.875C20.6222 7.87497 20.7812 7.94086 20.8985 8.05816L23.9422 11.1032C24.1861 11.3473 24.1861 11.7428 23.9422 11.9869L15.3244 20.6085C15.2071 20.7258 15.0481 20.7917 14.8823 20.7917H11.8335C11.4883 20.7917 11.2085 20.5118 11.2085 20.1667V17.1333C11.2085 16.9677 11.2742 16.8088 11.3913 16.6916L20.0142 8.05832C20.1315 7.94098 20.2905 7.87503 20.4563 7.875ZM20.4566 9.38425L12.4585 17.392V19.5417H14.6234L22.6165 11.545L20.4566 9.38425Z" fill="#1D5BFB"/>
</svg>
