<svg width="20" height="20" viewBox="0 0 20 20" fill="none" xmlns="http://www.w3.org/2000/svg">
<path fill-rule="evenodd" clip-rule="evenodd" d="M3.33333 3.125C3.21827 3.125 3.125 3.21827 3.125 3.33333V16.6667C3.125 16.7817 3.21827 16.875 3.33333 16.875H16.6667C16.7817 16.875 16.875 16.7817 16.875 16.6667V10.8333C16.875 10.4882 17.1548 10.2083 17.5 10.2083C17.8452 10.2083 18.125 10.4882 18.125 10.8333V16.6667C18.125 17.4721 17.4721 18.125 16.6667 18.125H3.33333C2.52792 18.125 1.875 17.4721 1.875 16.6667V3.33333C1.875 2.52792 2.52792 1.875 3.33333 1.875H9.16667C9.51184 1.875 9.79167 2.15482 9.79167 2.5C9.79167 2.84518 9.51184 3.125 9.16667 3.125H3.33333Z" fill="#1D5BFB"/>
<path fill-rule="evenodd" clip-rule="evenodd" d="M14.4568 1.875C14.6227 1.87497 14.7817 1.94086 14.899 2.05816L17.9427 5.1032C18.1866 5.34725 18.1866 5.74283 17.9427 5.98689L9.32486 14.6085C9.20764 14.7258 9.04863 14.7917 8.88282 14.7917H5.83398C5.48881 14.7917 5.20898 14.5118 5.20898 14.1667V11.1333C5.20898 10.9677 5.27473 10.8088 5.39178 10.6916L14.0147 2.05832C14.1319 1.94098 14.291 1.87503 14.4568 1.875ZM14.4571 3.38425L6.45898 11.392V13.5417H8.62385L16.617 5.54504L14.4571 3.38425Z" fill="#1D5BFB"/>
</svg>
