<svg width="14" height="14" viewBox="0 0 14 14" fill="none" xmlns="http://www.w3.org/2000/svg">
<path d="M2.625 2.18762L11.375 11.8126" stroke="#1A2030" stroke-width="1.5" stroke-linecap="round" stroke-linejoin="round"/>
<path d="M8.47136 8.61873C8.04206 9.00893 7.47534 9.21262 6.89587 9.185C6.3164 9.15738 5.77163 8.90071 5.38139 8.47145C4.99115 8.04219 4.78741 7.47549 4.81497 6.89602C4.84254 6.31654 5.09916 5.77175 5.52839 5.38147" stroke="#1A2030" stroke-linecap="round" stroke-linejoin="round"/>
<path d="M4.04657 3.75122C1.817 4.88027 0.875 7.00001 0.875 7.00001C0.875 7.00001 2.625 10.9371 7 10.9371C8.02506 10.9452 9.03732 10.7091 9.95299 10.2483" stroke="#1A2030" stroke-width="1.5" stroke-linecap="round" stroke-linejoin="round"/>
<path d="M11.4085 9.24769C12.6008 8.1798 13.1252 7.00007 13.1252 7.00007C13.1252 7.00007 11.3752 3.06214 7.0002 3.06214C6.62128 3.06152 6.24297 3.09233 5.86914 3.15424" stroke="#1A2030" stroke-width="1.5" stroke-linecap="round" stroke-linejoin="round"/>
<path d="M7.41211 4.85132C7.87705 4.9406 8.30051 5.17822 8.61897 5.52853C8.93743 5.87885 9.13372 6.32298 9.1784 6.7943" stroke="#1A2030" stroke-width="1.5" stroke-linecap="round" stroke-linejoin="round"/>
</svg>
