<svg width="24" height="24" viewBox="0 0 24 24" fill="none" xmlns="http://www.w3.org/2000/svg">
<path fill-rule="evenodd" clip-rule="evenodd" d="M8.8001 4.8C8.16358 4.8 7.55313 5.05285 7.10304 5.50294C6.65295 5.95303 6.4001 6.56348 6.4001 7.2C6.4001 7.83652 6.65295 8.44697 7.10304 8.89705C7.55313 9.34714 8.16358 9.6 8.8001 9.6C9.43662 9.6 10.0471 9.34714 10.4972 8.89705C10.9472 8.44697 11.2001 7.83652 11.2001 7.2C11.2001 6.56348 10.9472 5.95303 10.4972 5.50294C10.0471 5.05285 9.43662 4.8 8.8001 4.8ZM4.8001 8C4.8273 8 4.8529 8 4.8801 7.9968C5.06371 8.90103 5.55428 9.71398 6.26869 10.2979C6.9831 10.8818 7.87741 11.2008 8.8001 11.2008C9.72278 11.2008 10.6171 10.8818 11.3315 10.2979C12.0459 9.71398 12.5365 8.90103 12.7201 7.9968C12.7467 7.99918 12.7734 8.00025 12.8001 8H21.6001C21.8123 8 22.0158 7.91571 22.1658 7.76568C22.3158 7.61565 22.4001 7.41217 22.4001 7.2C22.4001 6.98783 22.3158 6.78434 22.1658 6.63431C22.0158 6.48428 21.8123 6.4 21.6001 6.4H12.8001C12.7729 6.4 12.7473 6.4 12.7201 6.4032C12.5365 5.49897 12.0459 4.68602 11.3315 4.1021C10.6171 3.51817 9.72278 3.19919 8.8001 3.19919C7.87741 3.19919 6.9831 3.51817 6.26869 4.1021C5.55428 4.68602 5.06371 5.49897 4.8801 6.4032C4.8535 6.40082 4.8268 6.39975 4.8001 6.4H2.4001C2.18792 6.4 1.98444 6.48428 1.83441 6.63431C1.68438 6.78434 1.6001 6.98783 1.6001 7.2C1.6001 7.41217 1.68438 7.61565 1.83441 7.76568C1.98444 7.91571 2.18792 8 2.4001 8H4.8001ZM19.1201 17.5968C18.9365 18.501 18.4459 19.314 17.7315 19.8979C17.0171 20.4818 16.1228 20.8008 15.2001 20.8008C14.2774 20.8008 13.3831 20.4818 12.6687 19.8979C11.9543 19.314 11.4637 18.501 11.2801 17.5968C11.2535 17.5992 11.2268 17.6002 11.2001 17.6H2.4001C2.18792 17.6 1.98444 17.5157 1.83441 17.3657C1.68438 17.2157 1.6001 17.0122 1.6001 16.8C1.6001 16.5878 1.68438 16.3843 1.83441 16.2343C1.98444 16.0843 2.18792 16 2.4001 16H11.2001C11.2273 16 11.2529 16 11.2801 16.0032C11.4637 15.099 11.9543 14.286 12.6687 13.7021C13.3831 13.1182 14.2774 12.7992 15.2001 12.7992C16.1228 12.7992 17.0171 13.1182 17.7315 13.7021C18.4459 14.286 18.9365 15.099 19.1201 16.0032C19.1467 16.0008 19.1734 15.9997 19.2001 16H21.6001C21.8123 16 22.0158 16.0843 22.1658 16.2343C22.3158 16.3843 22.4001 16.5878 22.4001 16.8C22.4001 17.0122 22.3158 17.2157 22.1658 17.3657C22.0158 17.5157 21.8123 17.6 21.6001 17.6H19.2001C19.1729 17.6 19.1473 17.6 19.1201 17.5968ZM12.8001 16.8C12.8001 16.1635 13.053 15.553 13.503 15.1029C13.9531 14.6529 14.5636 14.4 15.2001 14.4C15.8366 14.4 16.4471 14.6529 16.8972 15.1029C17.3472 15.553 17.6001 16.1635 17.6001 16.8C17.6001 17.4365 17.3472 18.047 16.8972 18.4971C16.4471 18.9471 15.8366 19.2 15.2001 19.2C14.5636 19.2 13.9531 18.9471 13.503 18.4971C13.053 18.047 12.8001 17.4365 12.8001 16.8Z" fill="white"/>
</svg>
