<svg width="216" height="187" viewBox="0 0 216 187" fill="none" xmlns="http://www.w3.org/2000/svg"><g filter="url(#a)"><mask id="b" maskUnits="userSpaceOnUse" x="6" y="6" width="198" height="169" fill="#000"><path fill="#fff" d="M6 6h198v169H6z"/><path fill-rule="evenodd" clip-rule="evenodd" d="M15 7a8 8 0 0 0-8 8v144a8 8 0 0 0 8 8h180a8 8 0 0 0 8-8V15a8 8 0 0 0-8-8H15Zm12.536 160.066L31 173l3.464-5.934h-6.928Z"/></mask><path fill-rule="evenodd" clip-rule="evenodd" d="M15 7a8 8 0 0 0-8 8v144a8 8 0 0 0 8 8h180a8 8 0 0 0 8-8V15a8 8 0 0 0-8-8H15Zm12.536 160.066L31 173l3.464-5.934h-6.928Z" fill="#fff"/><path d="m31 173-.864.504.864 1.48.864-1.48L31 173Zm-3.464-5.934v-1h-1.742l.878 1.504.864-.504Zm6.928 0 .864.504.878-1.504h-1.742v1ZM8 15a7 7 0 0 1 7-7V6a9 9 0 0 0-9 9h2Zm0 144V15H6v144h2Zm7 7a7 7 0 0 1-7-7H6a9 9 0 0 0 9 9v-2Zm180 0H15v2h180v-2Zm7-7a7 7 0 0 1-7 7v2a9 9 0 0 0 9-9h-2Zm0-144v144h2V15h-2Zm-7-7a7 7 0 0 1 7 7h2a9 9 0 0 0-9-9v2ZM15 8h180V6H15v2Zm16.864 164.496-3.465-5.934-1.727 1.008 3.464 5.934 1.728-1.008Zm1.736-5.934-3.464 5.934 1.728 1.008 3.464-5.934-1.728-1.008Zm-6.064 1.504h6.928v-2h-6.928v2Z" fill="#E5E5E5" mask="url(#b)"/></g><defs><filter id="a" x="0" y="0" width="216" height="186.984" filterUnits="userSpaceOnUse" color-interpolation-filters="sRGB"><feFlood flood-opacity="0" result="BackgroundImageFix"/><feColorMatrix in="SourceAlpha" values="0 0 0 0 0 0 0 0 0 0 0 0 0 0 0 0 0 0 127 0" result="hardAlpha"/><feMorphology radius="1" operator="dilate" in="SourceAlpha" result="effect1_dropShadow_1_97114"/><feOffset dx="3" dy="3"/><feGaussianBlur stdDeviation="4"/><feColorMatrix values="0 0 0 0 0.682353 0 0 0 0 0.682353 0 0 0 0 0.752941 0 0 0 0.2 0"/><feBlend in2="BackgroundImageFix" result="effect1_dropShadow_1_97114"/><feBlend in="SourceGraphic" in2="effect1_dropShadow_1_97114" result="shape"/></filter></defs></svg>