<svg width="16" height="17" viewBox="0 0 16 17" fill="none" xmlns="http://www.w3.org/2000/svg">
<path d="M9.77778 0.5V2.27778H12.9689L4.23111 11.0156L5.48444 12.2689L14.2222 3.53111V6.72222H16V0.5M14.2222 14.7222H1.77778V2.27778H8V0.5H1.77778C1.30628 0.5 0.854097 0.687301 0.520699 1.0207C0.187301 1.3541 0 1.80628 0 2.27778V14.7222C0 15.1937 0.187301 15.6459 0.520699 15.9793C0.854097 16.3127 1.30628 16.5 1.77778 16.5H14.2222C14.6937 16.5 15.1459 16.3127 15.4793 15.9793C15.8127 15.6459 16 15.1937 16 14.7222V8.5H14.2222V14.7222Z" fill="#174F8F"/>
</svg>
