<svg width="16" height="17" viewBox="0 0 16 17" fill="none" xmlns="http://www.w3.org/2000/svg">
<path d="M8 16.5C6.90667 16.5 5.87333 16.2899 4.9 15.8696C3.92667 15.4493 3.07653 14.876 2.3496 14.1496C1.6232 13.4232 1.04987 12.5733 0.629601 11.6C0.209334 10.6267 -0.000532319 9.59333 1.01394e-06 8.5C1.01394e-06 7.39333 0.210134 6.35653 0.630401 5.3896C1.05067 4.42267 1.624 3.57627 2.3504 2.8504C3.0768 2.12347 3.9264 1.55013 4.8992 1.1304C5.872 0.710667 6.9056 0.500533 8 0.5C9.10667 0.5 10.1435 0.710133 11.1104 1.1304C12.0773 1.55067 12.9237 2.124 13.6496 2.8504C14.3765 3.5768 14.9499 4.42347 15.3696 5.3904C15.7893 6.35733 15.9995 7.39387 16 8.5V9.66C16 10.4467 15.7301 11.1168 15.1904 11.6704C14.6507 12.224 13.9872 12.5005 13.2 12.5C12.72 12.5 12.2733 12.3933 11.86 12.18C11.4467 11.9667 11.1067 11.6867 10.84 11.34C10.48 11.7 10.0565 11.9835 9.5696 12.1904C9.08267 12.3973 8.55947 12.5005 8 12.5C6.89333 12.5 5.94987 12.1099 5.1696 11.3296C4.38933 10.5493 3.99947 9.60613 4 8.5C4 7.39333 4.39013 6.44987 5.1704 5.6696C5.95067 4.88933 6.89387 4.49947 8 4.5C9.10667 4.5 10.0501 4.89013 10.8304 5.6704C11.6107 6.45067 12.0005 7.39387 12 8.5V9.66C12 10.0467 12.12 10.3499 12.36 10.5696C12.6 10.7893 12.88 10.8995 13.2 10.9C13.52 10.9 13.8 10.7899 14.04 10.5696C14.28 10.3493 14.4 10.0461 14.4 9.66V8.5C14.4 6.75333 13.7699 5.24987 12.5096 3.9896C11.2493 2.72933 9.74613 2.09947 8 2.1C6.25333 2.1 4.74987 2.73013 3.4896 3.9904C2.22933 5.25067 1.59947 6.75387 1.6 8.5C1.6 10.2467 2.23013 11.7501 3.4904 13.0104C4.75067 14.2707 6.25387 14.9005 8 14.9H12V16.5H8ZM8 10.9C8.66667 10.9 9.23333 10.6667 9.7 10.2C10.1667 9.73333 10.4 9.16667 10.4 8.5C10.4 7.83333 10.1667 7.26667 9.7 6.8C9.23333 6.33333 8.66667 6.1 8 6.1C7.33333 6.1 6.76667 6.33333 6.3 6.8C5.83333 7.26667 5.6 7.83333 5.6 8.5C5.6 9.16667 5.83333 9.73333 6.3 10.2C6.76667 10.6667 7.33333 10.9 8 10.9Z" fill="#515151"/>
</svg>
