<svg width="20" height="20" viewBox="0 0 20 20" fill="none" xmlns="http://www.w3.org/2000/svg">
<path fill-rule="evenodd" clip-rule="evenodd" d="M1.0415 3.75C1.0415 3.40482 1.32133 3.125 1.6665 3.125H18.3332C18.6783 3.125 18.9582 3.40482 18.9582 3.75V16.25C18.9582 16.5952 18.6783 16.875 18.3332 16.875H1.6665C1.32133 16.875 1.0415 16.5952 1.0415 16.25V3.75ZM2.2915 4.375V15.625H17.7082V4.375H2.2915Z" fill="#1D5BFB"/>
<path fill-rule="evenodd" clip-rule="evenodd" d="M1.16654 3.37504C1.37365 3.09889 1.7654 3.04293 2.04154 3.25004L9.99987 9.21879L17.9582 3.25004C18.2344 3.04293 18.6261 3.09889 18.8332 3.37504C19.0403 3.65118 18.9844 4.04293 18.7082 4.25004L10.3749 10.5C10.1527 10.6667 9.8471 10.6667 9.62487 10.5L1.29154 4.25004C1.0154 4.04293 0.959434 3.65118 1.16654 3.37504Z" fill="#1D5BFB"/>
<path fill-rule="evenodd" clip-rule="evenodd" d="M1.0415 3.75C1.0415 3.40482 1.32133 3.125 1.6665 3.125H9.99984C10.345 3.125 10.6248 3.40482 10.6248 3.75C10.6248 4.09518 10.345 4.375 9.99984 4.375H2.2915V10C2.2915 10.3452 2.01168 10.625 1.6665 10.625C1.32133 10.625 1.0415 10.3452 1.0415 10V3.75Z" fill="#1D5BFB"/>
<path fill-rule="evenodd" clip-rule="evenodd" d="M9.375 3.75C9.375 3.40482 9.65482 3.125 10 3.125H18.3333C18.6785 3.125 18.9583 3.40482 18.9583 3.75V10C18.9583 10.3452 18.6785 10.625 18.3333 10.625C17.9882 10.625 17.7083 10.3452 17.7083 10V4.375H10C9.65482 4.375 9.375 4.09518 9.375 3.75Z" fill="#1D5BFB"/>
</svg>
