<svg width="36" height="37" viewBox="0 0 36 37" fill="none" xmlns="http://www.w3.org/2000/svg">
<path fill-rule="evenodd" clip-rule="evenodd" d="M5.77686 14.6508C5.77686 7.71574 11.227 2.09381 17.95 2.09381C24.6731 2.09381 30.1232 7.71574 30.1232 14.6508C30.1232 20.002 27.1523 25.0185 24.3429 28.5926C22.9212 30.4013 21.5022 31.8892 20.439 32.9249C19.9068 33.4435 19.4619 33.8505 19.1481 34.1295C18.9911 34.269 18.8668 34.3767 18.7806 34.4504C18.7374 34.4873 18.7038 34.5157 18.6804 34.5354L18.653 34.5583L18.6452 34.5648L18.6428 34.5668C18.6425 34.567 18.6414 34.5679 17.95 33.6765C17.2587 34.5679 17.2585 34.5677 17.2581 34.5675L17.2549 34.5648L17.2471 34.5583L17.2197 34.5354C17.1963 34.5157 17.1627 34.4873 17.1195 34.4504C17.0333 34.3767 16.909 34.269 16.752 34.1295C16.4382 33.8505 15.9933 33.4435 15.461 32.9249C14.3979 31.8892 12.9789 30.4013 11.5572 28.5926C8.7478 25.0185 5.77686 20.002 5.77686 14.6508ZM17.95 33.6765L17.2581 34.5675C17.6623 34.901 18.2372 34.9015 18.6414 34.5679L17.95 33.6765ZM17.95 32.1781C18.2138 31.9385 18.5428 31.6319 18.9193 31.2651C19.9311 30.2794 21.2788 28.8658 22.6237 27.1547C25.3476 23.6893 27.9099 19.1929 27.9099 14.6508C27.9099 8.97666 23.4508 4.3769 17.95 4.3769C12.4493 4.3769 7.99016 8.97666 7.99016 14.6508C7.99016 19.1929 10.5525 23.6893 13.2764 27.1547C14.6213 28.8658 15.969 30.2794 16.9808 31.2651C17.3572 31.6319 17.6862 31.9385 17.95 32.1781Z" fill="#1D5BFB"/>
<path d="M18.9193 31.2651C18.5428 31.6319 18.2138 31.9385 17.95 32.1781C17.6862 31.9385 17.3572 31.6319 16.9808 31.2651C15.969 30.2794 14.6213 28.8658 13.2764 27.1547C10.5525 23.6893 7.99016 19.1929 7.99016 14.6508C7.99016 8.97666 12.4493 4.3769 17.95 4.3769C23.4508 4.3769 27.9099 8.97666 27.9099 14.6508C27.9099 19.1929 25.3476 23.6893 22.6237 27.1547C21.2788 28.8658 19.9311 30.2794 18.9193 31.2651Z" fill="#1D5BFB"/>
<path fill-rule="evenodd" clip-rule="evenodd" d="M12.417 14.6508C12.417 11.4985 14.8943 8.94305 17.9503 8.94305C21.0062 8.94305 23.4835 11.4985 23.4835 14.6508C23.4835 17.8031 21.0062 20.3585 17.9503 20.3585C14.8943 20.3585 12.417 17.8031 12.417 14.6508ZM17.9503 11.2261C16.1167 11.2261 14.6303 12.7594 14.6303 14.6508C14.6303 16.5421 16.1167 18.0754 17.9503 18.0754C19.7838 18.0754 21.2702 16.5421 21.2702 14.6508C21.2702 12.7594 19.7838 11.2261 17.9503 11.2261Z" fill="white"/>
</svg>
