<svg width="20" height="20" viewBox="0 0 20 20" fill="none" xmlns="http://www.w3.org/2000/svg">
<path fill-rule="evenodd" clip-rule="evenodd" d="M8.33464 4.16667C8.33464 5.08714 9.08083 5.83333 10.0013 5.83333C10.9218 5.83333 11.668 5.08714 11.668 4.16667C11.668 3.24619 10.9218 2.5 10.0013 2.5C9.08083 2.5 8.33464 3.24619 8.33464 4.16667ZM8.33464 9.99967C8.33464 10.9201 9.08083 11.6663 10.0013 11.6663C10.9218 11.6663 11.668 10.9201 11.668 9.99967C11.668 9.0792 10.9218 8.33301 10.0013 8.33301C9.08083 8.33301 8.33464 9.0792 8.33464 9.99967ZM10.0013 17.5003C9.08083 17.5003 8.33464 16.7541 8.33464 15.8337C8.33464 14.9132 9.08083 14.167 10.0013 14.167C10.9218 14.167 11.668 14.9132 11.668 15.8337C11.668 16.7541 10.9218 17.5003 10.0013 17.5003Z" fill="#1D5BFB"/>
</svg>
