<svg width="10" height="17" viewBox="0 0 10 17" fill="none" xmlns="http://www.w3.org/2000/svg">
<g clip-path="url(#clip0_901_2464)">
<path d="M7.63636 0.5H1.81818C1.33597 0.5 0.873508 0.691558 0.532533 1.03253C0.191558 1.37351 0 1.83597 0 2.31818V14.6818C0 15.164 0.191558 15.6265 0.532533 15.9675C0.873508 16.3084 1.33597 16.5 1.81818 16.5H7.63636C8.11858 16.5 8.58104 16.3084 8.92201 15.9675C9.26299 15.6265 9.45455 15.164 9.45455 14.6818V2.31818C9.45455 1.83597 9.26299 1.37351 8.92201 1.03253C8.58104 0.691558 8.11858 0.5 7.63636 0.5ZM4.72727 15.7727C4.12364 15.7727 3.63636 15.2855 3.63636 14.6818C3.63636 14.0782 4.12364 13.5909 4.72727 13.5909C5.33091 13.5909 5.81818 14.0782 5.81818 14.6818C5.81818 15.2855 5.33091 15.7727 4.72727 15.7727ZM8 12.8636H1.45455V2.68182H8V12.8636Z" fill="#515151"/>
</g>
<defs>
<clipPath id="clip0_901_2464">
<rect width="10" height="16" fill="white" transform="translate(0 0.5)"/>
</clipPath>
</defs>
</svg>
