<svg width="25" height="24" viewBox="0 0 25 24" fill="none" xmlns="http://www.w3.org/2000/svg">
<path d="M5.17104 24H0.821137C0.202099 24 -0.193708 23.3309 0.0976036 22.7768L0.845987 21.3535L8.31311 8.01668C8.57896 7.54184 9.22139 7.46222 9.59214 7.85817C11.1733 9.54678 13.8267 9.54678 15.4079 7.85817C15.7786 7.46222 16.421 7.54184 16.6869 8.01668L24.154 21.3535L24.9024 22.7768C25.1937 23.3309 24.7979 24 24.1789 24H19.829C19.5067 24 19.2143 23.8086 19.0817 23.5107L16.2364 17.1224C14.7835 13.8603 10.2165 13.8603 8.76358 17.1224L5.91832 23.5107C5.78566 23.8086 5.49328 24 5.17104 24Z" fill="#1D5BFB"/>
<path d="M12.3695 5.02826H12.6305C13.9994 5.02826 15.1091 3.90264 15.1091 2.51413C15.1091 1.12561 13.9994 0 12.6305 0H12.5H12.3695C11.0006 0 9.89089 1.12561 9.89089 2.51413C9.89089 3.90264 11.0006 5.02826 12.3695 5.02826Z" fill="#1D5BFB"/>
<mask id="mask0_811_12217" style="mask-type:alpha" maskUnits="userSpaceOnUse" x="0" y="0" width="25" height="24">
<path d="M5.17104 24H0.821137C0.202099 24 -0.193708 23.3309 0.0976036 22.7768L0.845987 21.3535L8.31311 8.01668C8.57896 7.54184 9.22139 7.46222 9.59214 7.85817C11.1733 9.54678 13.8267 9.54678 15.4079 7.85817C15.7786 7.46222 16.421 7.54184 16.6869 8.01668L24.154 21.3535L24.9024 22.7768C25.1937 23.3309 24.7979 24 24.1789 24H19.829C19.5067 24 19.2143 23.8086 19.0817 23.5107L16.2364 17.1224C14.7835 13.8603 10.2165 13.8603 8.76358 17.1224L5.91832 23.5107C5.78566 23.8086 5.49328 24 5.17104 24Z" fill="#1D5BFB"/>
<path d="M12.3695 5.02826H12.6305C13.9994 5.02826 15.1091 3.90264 15.1091 2.51413C15.1091 1.12561 13.9994 0 12.6305 0H12.5H12.3695C11.0006 0 9.89089 1.12561 9.89089 2.51413C9.89089 3.90264 11.0006 5.02826 12.3695 5.02826Z" fill="#1D5BFB"/>
</mask>
<g mask="url(#mask0_811_12217)">
<path d="M5.99559 -7.95556C4.28056 -4.63919 2.77766 3.14455 10.4862 7.74853C13.9096 11.7063 12.3784 13.2926 15.0758 19.5819C20.0203 28.6115 22.6705 23.3278 23.4076 34.6996L29.8132 32.4491L16.2092 -6.18953L5.99559 -7.95556Z" fill="#FF5D12"/>
</g>
</svg>
