<svg width="32" height="32" viewBox="0 0 32 32" fill="none" xmlns="http://www.w3.org/2000/svg">
<path d="M11.75 27C11.75 27.3461 11.6474 27.6845 11.4551 27.9722C11.2628 28.26 10.9895 28.4843 10.6697 28.6168C10.3499 28.7492 9.99806 28.7839 9.65859 28.7164C9.31913 28.6488 9.0073 28.4822 8.76256 28.2374C8.51782 27.9927 8.35115 27.6809 8.28363 27.3414C8.2161 27.0019 8.25076 26.6501 8.38321 26.3303C8.51566 26.0105 8.73997 25.7372 9.02775 25.5449C9.31554 25.3526 9.65388 25.25 10 25.25C10.4641 25.25 10.9092 25.4344 11.2374 25.7626C11.5656 26.0908 11.75 26.5359 11.75 27ZM23 25.25C22.6539 25.25 22.3155 25.3526 22.0278 25.5449C21.74 25.7372 21.5157 26.0105 21.3832 26.3303C21.2508 26.6501 21.2161 27.0019 21.2836 27.3414C21.3512 27.6809 21.5178 27.9927 21.7626 28.2374C22.0073 28.4822 22.3191 28.6488 22.6586 28.7164C22.9981 28.7839 23.3499 28.7492 23.6697 28.6168C23.9895 28.4843 24.2628 28.26 24.4551 27.9722C24.6474 27.6845 24.75 27.3461 24.75 27C24.75 26.5359 24.5656 26.0908 24.2374 25.7626C23.9092 25.4344 23.4641 25.25 23 25.25ZM28.7162 9.22L25.1513 20.8088C24.9804 21.3714 24.6328 21.8641 24.16 22.2138C23.6872 22.5634 23.1143 22.7515 22.5263 22.75H10.5087C9.91081 22.7478 9.32973 22.5516 8.85279 22.191C8.37584 21.8304 8.02879 21.3247 7.86375 20.75L3.34375 4.93125C3.32877 4.87888 3.2971 4.83284 3.25355 4.80012C3.21001 4.76741 3.15697 4.74981 3.1025 4.75H1C0.801088 4.75 0.610322 4.67098 0.46967 4.53033C0.329018 4.38968 0.25 4.19891 0.25 4C0.25 3.80109 0.329018 3.61032 0.46967 3.46967C0.610322 3.32902 0.801088 3.25 1 3.25H3.1025C3.48245 3.25102 3.85182 3.37524 4.15518 3.604C4.45854 3.83276 4.67954 4.15373 4.785 4.51875L5.85125 8.25H28C28.1173 8.25012 28.2328 8.27773 28.3375 8.33061C28.4421 8.38349 28.5329 8.46017 28.6026 8.55449C28.6722 8.64881 28.7188 8.75815 28.7385 8.87373C28.7583 8.98931 28.7506 9.10791 28.7162 9.22ZM26.985 9.75H6.28L9.30625 20.3438C9.38097 20.605 9.53876 20.8347 9.75573 20.9983C9.97271 21.1618 10.2371 21.2502 10.5087 21.25H22.5225C22.7899 21.2501 23.0502 21.1644 23.2653 21.0055C23.4804 20.8467 23.6389 20.6231 23.7175 20.3675L26.985 9.75Z" fill="white"/>
</svg>
