<svg width="26" height="30" viewBox="0 0 26 30" fill="none" xmlns="http://www.w3.org/2000/svg">
<path d="M7.66663 20.3333C7.66663 24.104 7.66663 25.9907 8.83863 27.1613C10.0093 28.3333 11.896 28.3333 15.6666 28.3333H17C20.7706 28.3333 22.6573 28.3333 23.828 27.1613C25 25.9907 25 24.104 25 20.3333V9.66667C25 5.896 25 4.00933 23.828 2.83867C22.6573 1.66667 20.7706 1.66667 17 1.66667H15.6666C11.896 1.66667 10.0093 1.66667 8.83863 2.83867C7.66663 4.00933 7.66663 5.896 7.66663 9.66667" stroke="white" stroke-width="1.5" stroke-linecap="round"/>
<path d="M7.66667 25C4.524 25 2.952 25 1.976 24.024C1 23.0467 1 21.476 1 18.3333V11.6667C1 8.524 1 6.952 1.976 5.976C2.952 5 4.524 5 7.66667 5" stroke="white" stroke-width="1.5"/>
<path d="M5 15H17M17 15L13.6667 18.3333M17 15L13.6667 11.6667" stroke="white" stroke-width="1.5" stroke-linecap="round" stroke-linejoin="round"/>
</svg>
