<svg width="24" height="24" viewBox="0 0 24 24" fill="none" xmlns="http://www.w3.org/2000/svg"><mask id="a" fill="#fff"><path fill-rule="evenodd" clip-rule="evenodd" d="M17 6.07C17 3.265 14.767 1 12 1S7 3.265 7 6.07c0 2.806 2.233 5.07 5 5.07s5-2.264 5-5.07Zm-5 7.282C8.667 13.352 2 15 2 23h20c0-8-6.683-9.648-10-9.648Z"/></mask><path d="M2 23H1v1h1v-1Zm20 0v1h1v-1h-1ZM12 2c2.201 0 4 1.804 4 4.07h2C18 2.726 15.332 0 12 0v2ZM8 6.07C8 3.804 9.799 2 12 2V0C8.668 0 6 2.726 6 6.07h2Zm4 4.07c-2.201 0-4-1.803-4-4.07H6c0 3.345 2.668 6.07 6 6.07v-2Zm4-4.07c0 2.267-1.799 4.07-4 4.07v2c3.332 0 6-2.725 6-6.07h-2ZM3 23c0-3.67 1.503-5.771 3.311-6.996 1.867-1.266 4.15-1.652 5.689-1.652v-2c-1.795 0-4.511.438-6.811 1.996C2.83 15.947 1 18.67 1 23h2Zm9-1H2v2h10v-2Zm10 0H12v2h10v-2Zm-10-7.648c1.53 0 3.813.386 5.683 1.652C19.493 17.23 21 19.331 21 23h2c0-4.331-1.835-7.054-4.196-8.652-2.3-1.558-5.017-1.996-6.804-1.996v2Z" fill="#333" mask="url(#a)"/></svg>