<svg width="24" height="24" viewBox="0 0 24 24" fill="none" xmlns="http://www.w3.org/2000/svg"><path fill-rule="evenodd" clip-rule="evenodd" d="M22.177 7.023c.149-.495 0-.858-.706-.858h-2.334c-.593 0-.867.314-1.015.66 0 0-1.187 2.893-2.868 4.772-.544.544-.791.717-1.088.717-.149 0-.363-.173-.363-.667V7.023c0-.594-.172-.858-.667-.858H9.468c-.37 0-.593.275-.593.537 0 .562.84.692.927 2.274v3.437c0 .754-.136.89-.433.89-.791 0-2.716-2.906-3.857-6.23-.224-.647-.448-.908-1.045-.908H2.133c-.666 0-.8.314-.8.66 0 .618.792 3.684 3.684 7.74 1.93 2.768 4.646 4.27 7.119 4.27 1.484 0 1.667-.334 1.667-.908v-2.093c0-.667.14-.8.61-.8.346 0 .94.173 2.325 1.508 1.582 1.582 1.843 2.293 2.733 2.293h2.334c.666 0 1-.334.808-.992-.21-.656-.966-1.607-1.969-2.735-.544-.643-1.36-1.335-1.607-1.681-.346-.445-.247-.643 0-1.038 0 0 2.843-4.006 3.14-5.366Z" fill="#4680C2"/></svg>