<svg width="24" height="24" viewBox="0 0 24 24" fill="none" xmlns="http://www.w3.org/2000/svg"><path fill-rule="evenodd" clip-rule="evenodd" d="M2.222 5.412c-1.107 1.128-1.14 2.55-1.208 5.393a50.966 50.966 0 0 0 0 2.39c.067 2.844.1 4.265 1.208 5.393 1.107 1.128 2.602 1.191 5.591 1.316C9.16 19.961 10.6 20 12 20c1.4 0 2.84-.04 4.187-.096 2.989-.125 4.484-.188 5.591-1.316 1.107-1.128 1.14-2.55 1.208-5.393a50.912 50.912 0 0 0 0-2.39c-.067-2.844-.1-4.265-1.208-5.393-1.107-1.128-2.602-1.191-5.591-1.316A101.375 101.375 0 0 0 12 4c-1.4 0-2.84.04-4.187.096-2.989.125-4.484.188-5.591 1.316ZM9 16l7-4-7-4v8Z" fill="red"/></svg>