<svg width="24" height="24" viewBox="0 0 24 24" fill="none" xmlns="http://www.w3.org/2000/svg">
<path fill-rule="evenodd" clip-rule="evenodd" d="M4 3.75C3.86193 3.75 3.75 3.86193 3.75 4V20C3.75 20.1381 3.86192 20.25 4 20.25H20C20.1381 20.25 20.25 20.1381 20.25 20V13C20.25 12.5858 20.5858 12.25 21 12.25C21.4142 12.25 21.75 12.5858 21.75 13V20C21.75 20.9665 20.9665 21.75 20 21.75H4C3.03351 21.75 2.25 20.9665 2.25 20V4C2.25 3.0335 3.0335 2.25 4 2.25H11C11.4142 2.25 11.75 2.58579 11.75 3C11.75 3.41421 11.4142 3.75 11 3.75H4Z" fill="#1A2030"/>
<path fill-rule="evenodd" clip-rule="evenodd" d="M17.3474 2.25C17.5464 2.24996 17.7373 2.32903 17.878 2.46979L21.5304 6.12384C21.8232 6.4167 21.8232 6.8914 21.5304 7.18426L11.189 17.5302C11.0484 17.6709 10.8576 17.75 10.6586 17.75H7C6.58579 17.75 6.25 17.4142 6.25 17V13.36C6.25 13.1612 6.32889 12.9706 6.46935 12.8299L16.8169 2.46999C16.9575 2.32918 17.1484 2.25004 17.3474 2.25ZM17.3478 4.06109L7.75 13.6703V16.25H10.3478L19.9396 6.65405L17.3478 4.06109Z" fill="#1A2030"/>
</svg>
