<svg width="25" height="17" viewBox="0 0 25 17" fill="none" xmlns="http://www.w3.org/2000/svg">
<g clip-path="url(#clip0_306_32579)">
<path d="M0 0H25V17H0V0Z" fill="#012169"/>
<path d="M25 0V2.125L15.7227 8.5L25 14.709V17H21.7285L12.4023 10.7578L3.32031 17H0V14.7422L9.08203 8.5332L0 2.45703V0H3.02734L12.4023 6.24219L21.4844 0H25Z" fill="white"/>
<path d="M8.98438 10.7578L9.52148 11.8867L2.05078 17H0V16.9004L8.98438 10.7578ZM15.0391 10.3594L17.6758 10.625L25 15.5059V17L15.0391 10.3594ZM25 0L15.625 6.50781L15.4297 5.04688L22.7539 0H25ZM0 0.0332031L9.42383 6.30859L6.54297 6.04297L0 1.62695V0.0332031Z" fill="#C8102E"/>
<path d="M8.59375 0V17H16.4062V0H8.59375ZM0 5.84375V11.1562H25V5.84375H0Z" fill="white"/>
<path d="M0 6.90625V10.0938H25V6.90625H0ZM10.1562 0V17H14.8438V0H10.1562Z" fill="#C8102E"/>
</g>
<rect x="0.25" y="0.25" width="24.5" height="16.5" stroke="black" stroke-width="0.5"/>
<defs>
<clipPath id="clip0_306_32579">
<rect width="25" height="17" fill="white"/>
</clipPath>
</defs>
</svg>
