<svg width="20" height="20" viewBox="0 0 20 20" fill="none" xmlns="http://www.w3.org/2000/svg">
<path fill-rule="evenodd" clip-rule="evenodd" d="M1.875 3.33333C1.875 2.52792 2.52792 1.875 3.33333 1.875H6.66667C7.01184 1.875 7.29167 2.15482 7.29167 2.5C7.29167 2.84518 7.01184 3.125 6.66667 3.125H3.33333C3.21827 3.125 3.125 3.21827 3.125 3.33333V6.66667C3.125 7.01184 2.84518 7.29167 2.5 7.29167C2.15482 7.29167 1.875 7.01184 1.875 6.66667V3.33333Z" fill="#1D5BFB"/>
<path fill-rule="evenodd" clip-rule="evenodd" d="M2.5 12.7083C2.84518 12.7083 3.125 12.9881 3.125 13.3333V16.6666C3.125 16.7817 3.21827 16.875 3.33333 16.875H6.66667C7.01184 16.875 7.29167 17.1548 7.29167 17.5C7.29167 17.8452 7.01184 18.125 6.66667 18.125H3.33333C2.52792 18.125 1.875 17.4721 1.875 16.6666V13.3333C1.875 12.9881 2.15482 12.7083 2.5 12.7083Z" fill="#1D5BFB"/>
<path fill-rule="evenodd" clip-rule="evenodd" d="M17.5007 12.7083C17.8458 12.7083 18.1257 12.9881 18.1257 13.3333V16.6666C18.1257 17.4721 17.4727 18.125 16.6673 18.125H13.334C12.9888 18.125 12.709 17.8452 12.709 17.5C12.709 17.1548 12.9888 16.875 13.334 16.875H16.6673C16.7824 16.875 16.8757 16.7817 16.8757 16.6666V13.3333C16.8757 12.9881 17.1555 12.7083 17.5007 12.7083Z" fill="#1D5BFB"/>
<path fill-rule="evenodd" clip-rule="evenodd" d="M12.709 2.5C12.709 2.15482 12.9888 1.875 13.334 1.875H16.6673C17.4728 1.875 18.1257 2.52792 18.1257 3.33333V6.66667C18.1257 7.01184 17.8458 7.29167 17.5007 7.29167C17.1555 7.29167 16.8757 7.01184 16.8757 6.66667V3.33333C16.8757 3.21827 16.7824 3.125 16.6673 3.125H13.334C12.9888 3.125 12.709 2.84518 12.709 2.5Z" fill="#1D5BFB"/>
<path fill-rule="evenodd" clip-rule="evenodd" d="M6.04102 10C6.04102 9.65482 6.32084 9.375 6.66602 9.375H13.3327C13.6779 9.375 13.9577 9.65482 13.9577 10C13.9577 10.3452 13.6779 10.625 13.3327 10.625H6.66602C6.32084 10.625 6.04102 10.3452 6.04102 10Z" fill="#1D5BFB"/>
<path fill-rule="evenodd" clip-rule="evenodd" d="M10 6.04169C10.3452 6.04169 10.625 6.32151 10.625 6.66669V13.3334C10.625 13.6785 10.3452 13.9584 10 13.9584C9.65482 13.9584 9.375 13.6785 9.375 13.3334V6.66669C9.375 6.32151 9.65482 6.04169 10 6.04169Z" fill="#1D5BFB"/>
</svg>
