<svg width="40" height="40" viewBox="0 0 40 40" fill="none" xmlns="http://www.w3.org/2000/svg">
<rect width="40" height="40" rx="20" fill="white"/>
<path fill-rule="evenodd" clip-rule="evenodd" d="M13.125 17.917C13.125 14.12 16.203 11.042 20 11.042C23.797 11.042 26.875 14.12 26.875 17.917C26.875 20.8468 25.1971 23.5933 23.6105 25.5502C22.8076 26.5405 22.0061 27.3551 21.4057 27.9222C21.1051 28.2061 20.8538 28.4289 20.6766 28.5817C20.588 28.6581 20.5177 28.717 20.469 28.7574C20.4447 28.7776 20.4257 28.7931 20.4125 28.8039L20.397 28.8164L20.3926 28.82L20.3912 28.8211L20.3908 28.8214C20.3906 28.8216 20.3904 28.8217 20 28.3337C19.6096 28.8217 19.6094 28.8216 19.6092 28.8214L19.6088 28.8211L19.6074 28.82L19.603 28.8164L19.5875 28.8039C19.5743 28.7931 19.5553 28.7776 19.531 28.7574C19.4823 28.717 19.412 28.6581 19.3234 28.5817C19.1462 28.4289 18.8949 28.2061 18.5943 27.9222C17.9939 27.3551 17.1924 26.5405 16.3895 25.5502C14.8029 23.5933 13.125 20.8468 13.125 17.917ZM20 28.3337L19.6096 28.8217C19.8378 29.0043 20.1622 29.0043 20.3904 28.8217L20 28.3337ZM20 27.5133C20.149 27.3821 20.3348 27.2142 20.5474 27.0134C21.1189 26.4737 21.8799 25.6998 22.6395 24.7629C24.1779 22.8656 25.625 20.4038 25.625 17.917C25.625 14.8104 23.1066 12.292 20 12.292C16.8934 12.292 14.375 14.8104 14.375 17.917C14.375 20.4038 15.8221 22.8656 17.3605 24.7629C18.1201 25.6998 18.8811 26.4737 19.4526 27.0134C19.6652 27.2142 19.851 27.3821 20 27.5133Z" fill="#1D5BFB"/>
<path fill-rule="evenodd" clip-rule="evenodd" d="M16.875 17.917C16.875 16.1911 18.2741 14.792 20 14.792C21.7259 14.792 23.125 16.1911 23.125 17.917C23.125 19.6429 21.7259 21.042 20 21.042C18.2741 21.042 16.875 19.6429 16.875 17.917ZM20 16.042C18.9645 16.042 18.125 16.8815 18.125 17.917C18.125 18.9525 18.9645 19.792 20 19.792C21.0355 19.792 21.875 18.9525 21.875 17.917C21.875 16.8815 21.0355 16.042 20 16.042Z" fill="#1D5BFB"/>
</svg>
