<svg width="24" height="24" viewBox="0 0 24 24" fill="none" xmlns="http://www.w3.org/2000/svg">
<path d="M6 13.8H18C18.1105 13.8 18.2 13.8895 18.2 14V18C18.2 18.1105 18.1105 18.2 18 18.2H6C5.88954 18.2 5.8 18.1105 5.8 18V14C5.8 13.8895 5.88954 13.8 6 13.8Z" stroke="#1D5BFB" stroke-width="1.6" stroke-miterlimit="10"/>
<path d="M6 5.8H18C18.1105 5.8 18.2 5.88954 18.2 6V10C18.2 10.1105 18.1105 10.2 18 10.2H6C5.88954 10.2 5.8 10.1105 5.8 10V6C5.8 5.88954 5.88954 5.8 6 5.8Z" stroke="#1D5BFB" stroke-width="1.6" stroke-miterlimit="10"/>
</svg>
