<svg width="40" height="40" viewBox="0 0 40 40" fill="none" xmlns="http://www.w3.org/2000/svg">
<path fill-rule="evenodd" clip-rule="evenodd" d="M10.6733 32.6385H8.76213C6.6843 32.6385 4.99988 30.9595 4.99988 28.8885V17.5288C4.99988 15.4577 6.68429 13.7788 8.76212 13.7788H12.0711C12.8273 13.1062 13.9797 11.7164 14.4111 8.99272L14.6398 7.29792C14.7321 6.79955 14.9356 5.96704 15.6875 5.46439C16.4553 4.95108 17.3699 4.92052 18.1136 5.09847C18.8673 5.27882 19.6164 5.70841 20.1408 6.3612C20.9215 7.33302 21.1889 8.60445 21.2544 9.74001C21.3214 10.9037 21.1861 12.1069 21.0012 13.1071C20.9957 13.1372 21.0254 13.2611 21.0649 13.266H30.5165C34.8493 13.2665 36.4579 18.7004 33.4762 21.1606C33.7801 22.7497 33.1614 24.3842 31.936 25.4126C32.2441 27.0043 31.6257 28.6429 30.3985 29.6734C30.9206 32.3567 28.7151 34.9967 25.9038 34.9998L18.7959 34.9998L18.7305 34.9999C17.5758 35.001 16.5049 35.002 15.407 34.7458C14.2945 34.4862 13.221 33.9831 11.9385 33.0938L10.6733 32.6385ZM7.50804 17.5288C7.50804 16.8384 8.06951 16.2788 8.76212 16.2788H11.268V30.1385H8.76213C8.06951 30.1385 7.50804 29.5788 7.50804 28.8885V17.5288ZM27.2901 20.6314C27.2901 19.941 27.8516 19.3814 28.5442 19.3814L31.6672 19.3814C33.1458 18.4138 32.5313 15.7664 30.5163 15.766L21.0649 15.766C19.3525 15.766 18.2567 14.1576 18.5346 12.6542C18.6979 11.7706 18.802 10.7801 18.7503 9.88342C18.697 8.95856 18.4874 8.30279 18.1829 7.92377C18.0422 7.74862 17.7985 7.59411 17.5281 7.52941C17.3544 7.48785 17.2343 7.49637 17.1627 7.51242L16.8886 9.38262C16.3568 12.7398 14.8838 14.6142 13.7762 15.6121V31.3128C14.6691 31.8875 15.3468 32.1642 15.9786 32.3116C16.764 32.4948 17.5545 32.5009 18.7937 32.4998H25.9011C27.11 32.4979 27.9816 31.4456 27.9539 30.4045L25.2577 30.4045C24.5651 30.4045 24.0037 29.8449 24.0037 29.1545C24.0037 28.4642 24.5651 27.9045 25.2577 27.9045L28.59 27.9045C29.1969 27.5116 29.5336 26.8229 29.5011 26.1426L27.1551 26.1426C26.4625 26.1426 25.9011 25.5829 25.9011 24.8926C25.9011 24.2022 26.4625 23.6426 27.1551 23.6426L30.129 23.6426C30.7355 23.2496 31.0719 22.5614 31.0395 21.8814L28.5442 21.8814C27.8516 21.8814 27.2901 21.3217 27.2901 20.6314Z" fill="#6D778B"/>
</svg>
