<svg width="40" height="40" viewBox="0 0 40 40" fill="none" xmlns="http://www.w3.org/2000/svg">
<path fill-rule="evenodd" clip-rule="evenodd" d="M21.1606 28.8267C20.4388 28.4518 19.5798 28.4514 18.8577 28.8256L11.7685 32.5L13.1326 24.6608C13.2651 23.8991 13.0378 23.1189 12.5168 22.5476L7.50005 17.0469L14.6082 15.9304C15.406 15.805 16.0942 15.302 16.4558 14.5798L20 7.5L23.5443 14.5798C23.9059 15.302 24.594 15.805 25.3919 15.9304L32.5 17.0469L27.4833 22.5476C26.9623 23.1189 26.7349 23.8991 26.8675 24.6608L28.2316 32.5L21.1606 28.8267ZM30.1564 23.3266C29.6354 23.8979 29.4081 24.6781 29.5406 25.4398L30.6946 32.0714C30.8575 33.0078 30.4753 33.9556 29.7084 34.5171C28.9415 35.0786 27.9225 35.1567 27.0791 34.7185L21.1593 31.6432C20.4375 31.2683 19.5785 31.2679 18.8564 31.6422L12.9189 34.7196C12.0754 35.1568 11.057 35.0781 10.2907 34.5164C9.52442 33.9548 9.14266 33.0074 9.30553 32.0714L10.4595 25.4398C10.592 24.6781 10.3647 23.8979 9.84365 23.3266L5.65289 18.7316C5.03293 18.0518 4.83643 17.0865 5.14132 16.2184C5.44622 15.3504 6.20323 14.72 7.1121 14.5772L12.9488 13.6604C13.7467 13.5351 14.4348 13.032 14.7964 12.3098L17.7645 6.38086C18.1882 5.53451 19.0536 5 20 5C20.9465 5 21.8119 5.53451 22.2356 6.38086L25.2037 12.3098C25.5653 13.032 26.2534 13.5351 27.0513 13.6604L32.888 14.5772C33.7969 14.72 34.5539 15.3504 34.8588 16.2184C35.1637 17.0865 34.9672 18.0518 34.3472 18.7316L30.1564 23.3266Z" fill="#6D778B"/>
</svg>
