<svg width="40" height="40" viewBox="0 0 40 40" fill="none" xmlns="http://www.w3.org/2000/svg">
<path fill-rule="evenodd" clip-rule="evenodd" d="M14.7149 23.8002C15.2913 23.4203 16.0666 23.5796 16.4465 24.156C16.6035 24.3942 16.8401 24.7104 17.1585 25.0249C17.798 25.6563 18.7334 26.25 20 26.25C21.2666 26.25 22.202 25.6563 22.8415 25.0249C23.1599 24.7104 23.3965 24.3942 23.5535 24.156C23.9334 23.5796 24.7087 23.4203 25.2851 23.8002C25.8615 24.1801 26.0208 24.9554 25.6409 25.5318C25.4117 25.8796 25.0678 26.3399 24.598 26.8038C23.656 27.7339 22.1248 28.75 20 28.75C17.8752 28.75 16.344 27.7339 15.402 26.8038C14.9322 26.3399 14.5883 25.8796 14.3591 25.5318C13.9792 24.9554 14.1385 24.1801 14.7149 23.8002Z" fill="#6D778B"/>
<path d="M15.9091 15C17.0388 15 17.9546 16.0074 17.9546 17.25C17.9546 18.8676 16.5909 20.25 15.9091 21C15.6257 21.3117 15.2981 21.6235 14.9264 21.9352C14.5083 22.2858 13.9008 22.2858 13.4827 21.9352C13.111 21.6235 12.7834 21.3117 12.5 21C11.8182 20.25 10.4546 18.8676 10.4546 17.25C10.4546 16.0074 11.3704 15 12.5 15C13.2115 15 13.8381 15.3996 14.2046 16.0058C14.571 15.3996 15.1977 15 15.9091 15Z" fill="#6D778B"/>
<path d="M27.5 15C28.6296 15 29.5454 16.0074 29.5454 17.25C29.5454 18.8676 28.1818 20.25 27.5 21C27.2166 21.3117 26.889 21.6235 26.5173 21.9352C26.0992 22.2858 25.4917 22.2858 25.0736 21.9352C24.7019 21.6235 24.3743 21.3117 24.0909 21C23.4091 20.25 22.0454 18.8676 22.0454 17.25C22.0454 16.0074 22.9612 15 24.0909 15C24.8023 15 25.429 15.3996 25.7954 16.0058C26.1619 15.3996 26.7885 15 27.5 15Z" fill="#6D778B"/>
<path fill-rule="evenodd" clip-rule="evenodd" d="M20 32.5C26.9036 32.5 32.5 26.9036 32.5 20C32.5 13.0964 26.9036 7.5 20 7.5C13.0964 7.5 7.5 13.0964 7.5 20C7.5 26.9036 13.0964 32.5 20 32.5ZM20 35C28.2843 35 35 28.2843 35 20C35 11.7157 28.2843 5 20 5C11.7157 5 5 11.7157 5 20C5 28.2843 11.7157 35 20 35Z" fill="#6D778B"/>
</svg>
